<?xml version="1.0" encoding="utf-8" standalone="no"?>
<!DOCTYPE svg PUBLIC "-//W3C//DTD SVG 1.1//EN"
  "http://www.w3.org/Graphics/SVG/1.1/DTD/svg11.dtd">
<svg xmlns:xlink="http://www.w3.org/1999/xlink" width="523.636364pt" height="360pt" viewBox="0 0 523.636364 360" xmlns="http://www.w3.org/2000/svg" version="1.1">
 <metadata>
  <rdf:RDF xmlns:dc="http://purl.org/dc/elements/1.1/" xmlns:cc="http://creativecommons.org/ns#" xmlns:rdf="http://www.w3.org/1999/02/22-rdf-syntax-ns#">
   <cc:Work>
    <dc:type rdf:resource="http://purl.org/dc/dcmitype/StillImage"/>
    <dc:date>2022-12-18T12:35:50.870178</dc:date>
    <dc:format>image/svg+xml</dc:format>
    <dc:creator>
     <cc:Agent>
      <dc:title>Matplotlib v3.6.2, https://matplotlib.org/</dc:title>
     </cc:Agent>
    </dc:creator>
   </cc:Work>
  </rdf:RDF>
 </metadata>
 <defs>
  <style type="text/css">*{stroke-linejoin: round; stroke-linecap: butt}</style>
 </defs>
 <g id="figure_1">
  <g id="patch_1">
   <path d="M 0 360 
L 523.636364 360 
L 523.636364 0 
L 0 0 
z
" style="fill: #ffffff"/>
  </g>
  <g id="axes_1">
   <g id="patch_2">
    <path d="M 65.07 312.66 
L 510.676364 312.66 
L 510.676364 12.96 
L 65.07 12.96 
z
" style="fill: #eaeaf2"/>
   </g>
   <g id="matplotlib.axis_1">
    <g id="xtick_1">
     <g id="line2d_1">
      <path d="M 85.324835 312.66 
L 85.324835 12.96 
" clip-path="url(#pdf32b29972)" style="fill: none; stroke: #ffffff; stroke-linecap: round"/>
     </g>
     <g id="text_1">
      <!-- −10.0 -->
      <g style="fill: #262626" transform="translate(71.408975 330.033594) scale(0.11 -0.11)">
       <defs>
        <path id="ArialMT-2212" d="M 3381 1997 
L 356 1997 
L 356 2522 
L 3381 2522 
L 3381 1997 
z
" transform="scale(0.015625)"/>
        <path id="ArialMT-31" d="M 2384 0 
L 1822 0 
L 1822 3584 
Q 1619 3391 1289 3197 
Q 959 3003 697 2906 
L 697 3450 
Q 1169 3672 1522 3987 
Q 1875 4303 2022 4600 
L 2384 4600 
L 2384 0 
z
" transform="scale(0.015625)"/>
        <path id="ArialMT-30" d="M 266 2259 
Q 266 3072 433 3567 
Q 600 4063 929 4331 
Q 1259 4600 1759 4600 
Q 2128 4600 2406 4451 
Q 2684 4303 2865 4023 
Q 3047 3744 3150 3342 
Q 3253 2941 3253 2259 
Q 3253 1453 3087 958 
Q 2922 463 2592 192 
Q 2263 -78 1759 -78 
Q 1097 -78 719 397 
Q 266 969 266 2259 
z
M 844 2259 
Q 844 1131 1108 757 
Q 1372 384 1759 384 
Q 2147 384 2411 759 
Q 2675 1134 2675 2259 
Q 2675 3391 2411 3762 
Q 2147 4134 1753 4134 
Q 1366 4134 1134 3806 
Q 844 3388 844 2259 
z
" transform="scale(0.015625)"/>
        <path id="ArialMT-2e" d="M 581 0 
L 581 641 
L 1222 641 
L 1222 0 
L 581 0 
z
" transform="scale(0.015625)"/>
       </defs>
       <use xlink:href="#ArialMT-2212"/>
       <use xlink:href="#ArialMT-31" x="58.398438"/>
       <use xlink:href="#ArialMT-30" x="114.013672"/>
       <use xlink:href="#ArialMT-2e" x="169.628906"/>
       <use xlink:href="#ArialMT-30" x="197.412109"/>
      </g>
     </g>
    </g>
    <g id="xtick_2">
     <g id="line2d_2">
      <path d="M 120.246964 312.66 
L 120.246964 12.96 
" clip-path="url(#pdf32b29972)" style="fill: none; stroke: #ffffff; stroke-linecap: round"/>
     </g>
     <g id="text_2">
      <!-- −7.5 -->
      <g style="fill: #262626" transform="translate(109.38962 330.033594) scale(0.11 -0.11)">
       <defs>
        <path id="ArialMT-37" d="M 303 3981 
L 303 4522 
L 3269 4522 
L 3269 4084 
Q 2831 3619 2401 2847 
Q 1972 2075 1738 1259 
Q 1569 684 1522 0 
L 944 0 
Q 953 541 1156 1306 
Q 1359 2072 1739 2783 
Q 2119 3494 2547 3981 
L 303 3981 
z
" transform="scale(0.015625)"/>
        <path id="ArialMT-35" d="M 266 1200 
L 856 1250 
Q 922 819 1161 601 
Q 1400 384 1738 384 
Q 2144 384 2425 690 
Q 2706 997 2706 1503 
Q 2706 1984 2436 2262 
Q 2166 2541 1728 2541 
Q 1456 2541 1237 2417 
Q 1019 2294 894 2097 
L 366 2166 
L 809 4519 
L 3088 4519 
L 3088 3981 
L 1259 3981 
L 1013 2750 
Q 1425 3038 1878 3038 
Q 2478 3038 2890 2622 
Q 3303 2206 3303 1553 
Q 3303 931 2941 478 
Q 2500 -78 1738 -78 
Q 1113 -78 717 272 
Q 322 622 266 1200 
z
" transform="scale(0.015625)"/>
       </defs>
       <use xlink:href="#ArialMT-2212"/>
       <use xlink:href="#ArialMT-37" x="58.398438"/>
       <use xlink:href="#ArialMT-2e" x="114.013672"/>
       <use xlink:href="#ArialMT-35" x="141.796875"/>
      </g>
     </g>
    </g>
    <g id="xtick_3">
     <g id="line2d_3">
      <path d="M 155.169092 312.66 
L 155.169092 12.96 
" clip-path="url(#pdf32b29972)" style="fill: none; stroke: #ffffff; stroke-linecap: round"/>
     </g>
     <g id="text_3">
      <!-- −5.0 -->
      <g style="fill: #262626" transform="translate(144.311749 330.033594) scale(0.11 -0.11)">
       <use xlink:href="#ArialMT-2212"/>
       <use xlink:href="#ArialMT-35" x="58.398438"/>
       <use xlink:href="#ArialMT-2e" x="114.013672"/>
       <use xlink:href="#ArialMT-30" x="141.796875"/>
      </g>
     </g>
    </g>
    <g id="xtick_4">
     <g id="line2d_4">
      <path d="M 190.091221 312.66 
L 190.091221 12.96 
" clip-path="url(#pdf32b29972)" style="fill: none; stroke: #ffffff; stroke-linecap: round"/>
     </g>
     <g id="text_4">
      <!-- −2.5 -->
      <g style="fill: #262626" transform="translate(179.233877 330.033594) scale(0.11 -0.11)">
       <defs>
        <path id="ArialMT-32" d="M 3222 541 
L 3222 0 
L 194 0 
Q 188 203 259 391 
Q 375 700 629 1000 
Q 884 1300 1366 1694 
Q 2113 2306 2375 2664 
Q 2638 3022 2638 3341 
Q 2638 3675 2398 3904 
Q 2159 4134 1775 4134 
Q 1369 4134 1125 3890 
Q 881 3647 878 3216 
L 300 3275 
Q 359 3922 746 4261 
Q 1134 4600 1788 4600 
Q 2447 4600 2831 4234 
Q 3216 3869 3216 3328 
Q 3216 3053 3103 2787 
Q 2991 2522 2730 2228 
Q 2469 1934 1863 1422 
Q 1356 997 1212 845 
Q 1069 694 975 541 
L 3222 541 
z
" transform="scale(0.015625)"/>
       </defs>
       <use xlink:href="#ArialMT-2212"/>
       <use xlink:href="#ArialMT-32" x="58.398438"/>
       <use xlink:href="#ArialMT-2e" x="114.013672"/>
       <use xlink:href="#ArialMT-35" x="141.796875"/>
      </g>
     </g>
    </g>
    <g id="xtick_5">
     <g id="line2d_5">
      <path d="M 225.01335 312.66 
L 225.01335 12.96 
" clip-path="url(#pdf32b29972)" style="fill: none; stroke: #ffffff; stroke-linecap: round"/>
     </g>
     <g id="text_5">
      <!-- 0.0 -->
      <g style="fill: #262626" transform="translate(217.36835 330.033594) scale(0.11 -0.11)">
       <use xlink:href="#ArialMT-30"/>
       <use xlink:href="#ArialMT-2e" x="55.615234"/>
       <use xlink:href="#ArialMT-30" x="83.398438"/>
      </g>
     </g>
    </g>
    <g id="xtick_6">
     <g id="line2d_6">
      <path d="M 259.935479 312.66 
L 259.935479 12.96 
" clip-path="url(#pdf32b29972)" style="fill: none; stroke: #ffffff; stroke-linecap: round"/>
     </g>
     <g id="text_6">
      <!-- 2.5 -->
      <g style="fill: #262626" transform="translate(252.290479 330.033594) scale(0.11 -0.11)">
       <use xlink:href="#ArialMT-32"/>
       <use xlink:href="#ArialMT-2e" x="55.615234"/>
       <use xlink:href="#ArialMT-35" x="83.398438"/>
      </g>
     </g>
    </g>
    <g id="xtick_7">
     <g id="line2d_7">
      <path d="M 294.857608 312.66 
L 294.857608 12.96 
" clip-path="url(#pdf32b29972)" style="fill: none; stroke: #ffffff; stroke-linecap: round"/>
     </g>
     <g id="text_7">
      <!-- 5.0 -->
      <g style="fill: #262626" transform="translate(287.212608 330.033594) scale(0.11 -0.11)">
       <use xlink:href="#ArialMT-35"/>
       <use xlink:href="#ArialMT-2e" x="55.615234"/>
       <use xlink:href="#ArialMT-30" x="83.398438"/>
      </g>
     </g>
    </g>
    <g id="xtick_8">
     <g id="line2d_8">
      <path d="M 329.779736 312.66 
L 329.779736 12.96 
" clip-path="url(#pdf32b29972)" style="fill: none; stroke: #ffffff; stroke-linecap: round"/>
     </g>
     <g id="text_8">
      <!-- 7.5 -->
      <g style="fill: #262626" transform="translate(322.134736 330.033594) scale(0.11 -0.11)">
       <use xlink:href="#ArialMT-37"/>
       <use xlink:href="#ArialMT-2e" x="55.615234"/>
       <use xlink:href="#ArialMT-35" x="83.398438"/>
      </g>
     </g>
    </g>
    <g id="xtick_9">
     <g id="line2d_9">
      <path d="M 364.701865 312.66 
L 364.701865 12.96 
" clip-path="url(#pdf32b29972)" style="fill: none; stroke: #ffffff; stroke-linecap: round"/>
     </g>
     <g id="text_9">
      <!-- 10.0 -->
      <g style="fill: #262626" transform="translate(353.99835 330.033594) scale(0.11 -0.11)">
       <use xlink:href="#ArialMT-31"/>
       <use xlink:href="#ArialMT-30" x="55.615234"/>
       <use xlink:href="#ArialMT-2e" x="111.230469"/>
       <use xlink:href="#ArialMT-30" x="139.013672"/>
      </g>
     </g>
    </g>
    <g id="xtick_10">
     <g id="line2d_10">
      <path d="M 399.623994 312.66 
L 399.623994 12.96 
" clip-path="url(#pdf32b29972)" style="fill: none; stroke: #ffffff; stroke-linecap: round"/>
     </g>
     <g id="text_10">
      <!-- 12.5 -->
      <g style="fill: #262626" transform="translate(388.920478 330.033594) scale(0.11 -0.11)">
       <use xlink:href="#ArialMT-31"/>
       <use xlink:href="#ArialMT-32" x="55.615234"/>
       <use xlink:href="#ArialMT-2e" x="111.230469"/>
       <use xlink:href="#ArialMT-35" x="139.013672"/>
      </g>
     </g>
    </g>
    <g id="xtick_11">
     <g id="line2d_11">
      <path d="M 434.546123 312.66 
L 434.546123 12.96 
" clip-path="url(#pdf32b29972)" style="fill: none; stroke: #ffffff; stroke-linecap: round"/>
     </g>
     <g id="text_11">
      <!-- 15.0 -->
      <g style="fill: #262626" transform="translate(423.842607 330.033594) scale(0.11 -0.11)">
       <use xlink:href="#ArialMT-31"/>
       <use xlink:href="#ArialMT-35" x="55.615234"/>
       <use xlink:href="#ArialMT-2e" x="111.230469"/>
       <use xlink:href="#ArialMT-30" x="139.013672"/>
      </g>
     </g>
    </g>
    <g id="xtick_12">
     <g id="line2d_12">
      <path d="M 469.468252 312.66 
L 469.468252 12.96 
" clip-path="url(#pdf32b29972)" style="fill: none; stroke: #ffffff; stroke-linecap: round"/>
     </g>
     <g id="text_12">
      <!-- 17.5 -->
      <g style="fill: #262626" transform="translate(458.764736 330.033594) scale(0.11 -0.11)">
       <use xlink:href="#ArialMT-31"/>
       <use xlink:href="#ArialMT-37" x="55.615234"/>
       <use xlink:href="#ArialMT-2e" x="111.230469"/>
       <use xlink:href="#ArialMT-35" x="139.013672"/>
      </g>
     </g>
    </g>
    <g id="xtick_13">
     <g id="line2d_13">
      <path d="M 504.39038 312.66 
L 504.39038 12.96 
" clip-path="url(#pdf32b29972)" style="fill: none; stroke: #ffffff; stroke-linecap: round"/>
     </g>
     <g id="text_13">
      <!-- 20.0 -->
      <g style="fill: #262626" transform="translate(493.686865 330.033594) scale(0.11 -0.11)">
       <use xlink:href="#ArialMT-32"/>
       <use xlink:href="#ArialMT-30" x="55.615234"/>
       <use xlink:href="#ArialMT-2e" x="111.230469"/>
       <use xlink:href="#ArialMT-30" x="139.013672"/>
      </g>
     </g>
    </g>
    <g id="text_14">
     <!-- α [°] -->
     <g style="fill: #262626" transform="translate(277.004744 344.955469) scale(0.12 -0.12)">
      <defs>
       <path id="ArialMT-3b1" d="M 2884 3319 
L 3459 3319 
Q 3241 2631 3056 1659 
Q 3275 453 3459 0 
L 2900 0 
Q 2766 313 2697 606 
Q 2438 -75 1613 -75 
Q 988 -75 606 394 
Q 225 863 225 1666 
Q 225 2491 608 2942 
Q 991 3394 1622 3394 
Q 2013 3394 2259 3236 
Q 2506 3078 2719 2756 
Q 2741 2866 2884 3319 
z
M 1716 2928 
Q 1313 2928 1078 2603 
Q 844 2278 844 1666 
Q 844 1069 1066 728 
Q 1288 388 1684 388 
Q 2072 388 2331 723 
Q 2591 1059 2591 1691 
Q 2591 2303 2348 2615 
Q 2106 2928 1716 2928 
z
" transform="scale(0.015625)"/>
       <path id="ArialMT-20" transform="scale(0.015625)"/>
       <path id="ArialMT-5b" d="M 434 -1272 
L 434 4581 
L 1675 4581 
L 1675 4116 
L 997 4116 
L 997 -806 
L 1675 -806 
L 1675 -1272 
L 434 -1272 
z
" transform="scale(0.015625)"/>
       <path id="ArialMT-b0" d="M 400 3794 
Q 400 4153 654 4406 
Q 909 4659 1266 4659 
Q 1628 4659 1881 4406 
Q 2134 4153 2134 3794 
Q 2134 3434 1879 3179 
Q 1625 2925 1266 2925 
Q 909 2925 654 3178 
Q 400 3431 400 3794 
z
M 741 3794 
Q 741 3575 895 3420 
Q 1050 3266 1269 3266 
Q 1484 3266 1639 3420 
Q 1794 3575 1794 3794 
Q 1794 4013 1639 4167 
Q 1484 4322 1269 4322 
Q 1050 4322 895 4167 
Q 741 4013 741 3794 
z
" transform="scale(0.015625)"/>
       <path id="ArialMT-5d" d="M 1363 -1272 
L 122 -1272 
L 122 -806 
L 800 -806 
L 800 4116 
L 122 4116 
L 122 4581 
L 1363 4581 
L 1363 -1272 
z
" transform="scale(0.015625)"/>
      </defs>
      <use xlink:href="#ArialMT-3b1"/>
      <use xlink:href="#ArialMT-20" x="57.8125"/>
      <use xlink:href="#ArialMT-5b" x="85.595703"/>
      <use xlink:href="#ArialMT-b0" x="113.378906"/>
      <use xlink:href="#ArialMT-5d" x="153.369141"/>
     </g>
    </g>
   </g>
   <g id="matplotlib.axis_2">
    <g id="ytick_1">
     <g id="line2d_14">
      <path d="M 65.07 312.66 
L 510.676364 312.66 
" clip-path="url(#pdf32b29972)" style="fill: none; stroke: #ffffff; stroke-linecap: round"/>
     </g>
     <g id="text_15">
      <!-- −0.10 -->
      <g style="fill: #262626" transform="translate(27.738281 316.596797) scale(0.11 -0.11)">
       <use xlink:href="#ArialMT-2212"/>
       <use xlink:href="#ArialMT-30" x="58.398438"/>
       <use xlink:href="#ArialMT-2e" x="114.013672"/>
       <use xlink:href="#ArialMT-31" x="141.796875"/>
       <use xlink:href="#ArialMT-30" x="197.412109"/>
      </g>
     </g>
    </g>
    <g id="ytick_2">
     <g id="line2d_15">
      <path d="M 65.07 292.68 
L 510.676364 292.68 
" clip-path="url(#pdf32b29972)" style="fill: none; stroke: #ffffff; stroke-linecap: round"/>
     </g>
     <g id="text_16">
      <!-- −0.09 -->
      <g style="fill: #262626" transform="translate(27.738281 296.616797) scale(0.11 -0.11)">
       <defs>
        <path id="ArialMT-39" d="M 350 1059 
L 891 1109 
Q 959 728 1153 556 
Q 1347 384 1650 384 
Q 1909 384 2104 503 
Q 2300 622 2425 820 
Q 2550 1019 2634 1356 
Q 2719 1694 2719 2044 
Q 2719 2081 2716 2156 
Q 2547 1888 2255 1720 
Q 1963 1553 1622 1553 
Q 1053 1553 659 1965 
Q 266 2378 266 3053 
Q 266 3750 677 4175 
Q 1088 4600 1706 4600 
Q 2153 4600 2523 4359 
Q 2894 4119 3086 3673 
Q 3278 3228 3278 2384 
Q 3278 1506 3087 986 
Q 2897 466 2520 194 
Q 2144 -78 1638 -78 
Q 1100 -78 759 220 
Q 419 519 350 1059 
z
M 2653 3081 
Q 2653 3566 2395 3850 
Q 2138 4134 1775 4134 
Q 1400 4134 1122 3828 
Q 844 3522 844 3034 
Q 844 2597 1108 2323 
Q 1372 2050 1759 2050 
Q 2150 2050 2401 2323 
Q 2653 2597 2653 3081 
z
" transform="scale(0.015625)"/>
       </defs>
       <use xlink:href="#ArialMT-2212"/>
       <use xlink:href="#ArialMT-30" x="58.398438"/>
       <use xlink:href="#ArialMT-2e" x="114.013672"/>
       <use xlink:href="#ArialMT-30" x="141.796875"/>
       <use xlink:href="#ArialMT-39" x="197.412109"/>
      </g>
     </g>
    </g>
    <g id="ytick_3">
     <g id="line2d_16">
      <path d="M 65.07 272.7 
L 510.676364 272.7 
" clip-path="url(#pdf32b29972)" style="fill: none; stroke: #ffffff; stroke-linecap: round"/>
     </g>
     <g id="text_17">
      <!-- −0.08 -->
      <g style="fill: #262626" transform="translate(27.738281 276.636797) scale(0.11 -0.11)">
       <defs>
        <path id="ArialMT-38" d="M 1131 2484 
Q 781 2613 612 2850 
Q 444 3088 444 3419 
Q 444 3919 803 4259 
Q 1163 4600 1759 4600 
Q 2359 4600 2725 4251 
Q 3091 3903 3091 3403 
Q 3091 3084 2923 2848 
Q 2756 2613 2416 2484 
Q 2838 2347 3058 2040 
Q 3278 1734 3278 1309 
Q 3278 722 2862 322 
Q 2447 -78 1769 -78 
Q 1091 -78 675 323 
Q 259 725 259 1325 
Q 259 1772 486 2073 
Q 713 2375 1131 2484 
z
M 1019 3438 
Q 1019 3113 1228 2906 
Q 1438 2700 1772 2700 
Q 2097 2700 2305 2904 
Q 2513 3109 2513 3406 
Q 2513 3716 2298 3927 
Q 2084 4138 1766 4138 
Q 1444 4138 1231 3931 
Q 1019 3725 1019 3438 
z
M 838 1322 
Q 838 1081 952 856 
Q 1066 631 1291 507 
Q 1516 384 1775 384 
Q 2178 384 2440 643 
Q 2703 903 2703 1303 
Q 2703 1709 2433 1975 
Q 2163 2241 1756 2241 
Q 1359 2241 1098 1978 
Q 838 1716 838 1322 
z
" transform="scale(0.015625)"/>
       </defs>
       <use xlink:href="#ArialMT-2212"/>
       <use xlink:href="#ArialMT-30" x="58.398438"/>
       <use xlink:href="#ArialMT-2e" x="114.013672"/>
       <use xlink:href="#ArialMT-30" x="141.796875"/>
       <use xlink:href="#ArialMT-38" x="197.412109"/>
      </g>
     </g>
    </g>
    <g id="ytick_4">
     <g id="line2d_17">
      <path d="M 65.07 252.72 
L 510.676364 252.72 
" clip-path="url(#pdf32b29972)" style="fill: none; stroke: #ffffff; stroke-linecap: round"/>
     </g>
     <g id="text_18">
      <!-- −0.07 -->
      <g style="fill: #262626" transform="translate(27.738281 256.656797) scale(0.11 -0.11)">
       <use xlink:href="#ArialMT-2212"/>
       <use xlink:href="#ArialMT-30" x="58.398438"/>
       <use xlink:href="#ArialMT-2e" x="114.013672"/>
       <use xlink:href="#ArialMT-30" x="141.796875"/>
       <use xlink:href="#ArialMT-37" x="197.412109"/>
      </g>
     </g>
    </g>
    <g id="ytick_5">
     <g id="line2d_18">
      <path d="M 65.07 232.74 
L 510.676364 232.74 
" clip-path="url(#pdf32b29972)" style="fill: none; stroke: #ffffff; stroke-linecap: round"/>
     </g>
     <g id="text_19">
      <!-- −0.06 -->
      <g style="fill: #262626" transform="translate(27.738281 236.676797) scale(0.11 -0.11)">
       <defs>
        <path id="ArialMT-36" d="M 3184 3459 
L 2625 3416 
Q 2550 3747 2413 3897 
Q 2184 4138 1850 4138 
Q 1581 4138 1378 3988 
Q 1113 3794 959 3422 
Q 806 3050 800 2363 
Q 1003 2672 1297 2822 
Q 1591 2972 1913 2972 
Q 2475 2972 2870 2558 
Q 3266 2144 3266 1488 
Q 3266 1056 3080 686 
Q 2894 316 2569 119 
Q 2244 -78 1831 -78 
Q 1128 -78 684 439 
Q 241 956 241 2144 
Q 241 3472 731 4075 
Q 1159 4600 1884 4600 
Q 2425 4600 2770 4297 
Q 3116 3994 3184 3459 
z
M 888 1484 
Q 888 1194 1011 928 
Q 1134 663 1356 523 
Q 1578 384 1822 384 
Q 2178 384 2434 671 
Q 2691 959 2691 1453 
Q 2691 1928 2437 2201 
Q 2184 2475 1800 2475 
Q 1419 2475 1153 2201 
Q 888 1928 888 1484 
z
" transform="scale(0.015625)"/>
       </defs>
       <use xlink:href="#ArialMT-2212"/>
       <use xlink:href="#ArialMT-30" x="58.398438"/>
       <use xlink:href="#ArialMT-2e" x="114.013672"/>
       <use xlink:href="#ArialMT-30" x="141.796875"/>
       <use xlink:href="#ArialMT-36" x="197.412109"/>
      </g>
     </g>
    </g>
    <g id="ytick_6">
     <g id="line2d_19">
      <path d="M 65.07 212.76 
L 510.676364 212.76 
" clip-path="url(#pdf32b29972)" style="fill: none; stroke: #ffffff; stroke-linecap: round"/>
     </g>
     <g id="text_20">
      <!-- −0.05 -->
      <g style="fill: #262626" transform="translate(27.738281 216.696797) scale(0.11 -0.11)">
       <use xlink:href="#ArialMT-2212"/>
       <use xlink:href="#ArialMT-30" x="58.398438"/>
       <use xlink:href="#ArialMT-2e" x="114.013672"/>
       <use xlink:href="#ArialMT-30" x="141.796875"/>
       <use xlink:href="#ArialMT-35" x="197.412109"/>
      </g>
     </g>
    </g>
    <g id="ytick_7">
     <g id="line2d_20">
      <path d="M 65.07 192.78 
L 510.676364 192.78 
" clip-path="url(#pdf32b29972)" style="fill: none; stroke: #ffffff; stroke-linecap: round"/>
     </g>
     <g id="text_21">
      <!-- −0.04 -->
      <g style="fill: #262626" transform="translate(27.738281 196.716797) scale(0.11 -0.11)">
       <defs>
        <path id="ArialMT-34" d="M 2069 0 
L 2069 1097 
L 81 1097 
L 81 1613 
L 2172 4581 
L 2631 4581 
L 2631 1613 
L 3250 1613 
L 3250 1097 
L 2631 1097 
L 2631 0 
L 2069 0 
z
M 2069 1613 
L 2069 3678 
L 634 1613 
L 2069 1613 
z
" transform="scale(0.015625)"/>
       </defs>
       <use xlink:href="#ArialMT-2212"/>
       <use xlink:href="#ArialMT-30" x="58.398438"/>
       <use xlink:href="#ArialMT-2e" x="114.013672"/>
       <use xlink:href="#ArialMT-30" x="141.796875"/>
       <use xlink:href="#ArialMT-34" x="197.412109"/>
      </g>
     </g>
    </g>
    <g id="ytick_8">
     <g id="line2d_21">
      <path d="M 65.07 172.8 
L 510.676364 172.8 
" clip-path="url(#pdf32b29972)" style="fill: none; stroke: #ffffff; stroke-linecap: round"/>
     </g>
     <g id="text_22">
      <!-- −0.03 -->
      <g style="fill: #262626" transform="translate(27.738281 176.736797) scale(0.11 -0.11)">
       <defs>
        <path id="ArialMT-33" d="M 269 1209 
L 831 1284 
Q 928 806 1161 595 
Q 1394 384 1728 384 
Q 2125 384 2398 659 
Q 2672 934 2672 1341 
Q 2672 1728 2419 1979 
Q 2166 2231 1775 2231 
Q 1616 2231 1378 2169 
L 1441 2663 
Q 1497 2656 1531 2656 
Q 1891 2656 2178 2843 
Q 2466 3031 2466 3422 
Q 2466 3731 2256 3934 
Q 2047 4138 1716 4138 
Q 1388 4138 1169 3931 
Q 950 3725 888 3313 
L 325 3413 
Q 428 3978 793 4289 
Q 1159 4600 1703 4600 
Q 2078 4600 2393 4439 
Q 2709 4278 2876 4000 
Q 3044 3722 3044 3409 
Q 3044 3113 2884 2869 
Q 2725 2625 2413 2481 
Q 2819 2388 3044 2092 
Q 3269 1797 3269 1353 
Q 3269 753 2831 336 
Q 2394 -81 1725 -81 
Q 1122 -81 723 278 
Q 325 638 269 1209 
z
" transform="scale(0.015625)"/>
       </defs>
       <use xlink:href="#ArialMT-2212"/>
       <use xlink:href="#ArialMT-30" x="58.398438"/>
       <use xlink:href="#ArialMT-2e" x="114.013672"/>
       <use xlink:href="#ArialMT-30" x="141.796875"/>
       <use xlink:href="#ArialMT-33" x="197.412109"/>
      </g>
     </g>
    </g>
    <g id="ytick_9">
     <g id="line2d_22">
      <path d="M 65.07 152.82 
L 510.676364 152.82 
" clip-path="url(#pdf32b29972)" style="fill: none; stroke: #ffffff; stroke-linecap: round"/>
     </g>
     <g id="text_23">
      <!-- −0.02 -->
      <g style="fill: #262626" transform="translate(27.738281 156.756797) scale(0.11 -0.11)">
       <use xlink:href="#ArialMT-2212"/>
       <use xlink:href="#ArialMT-30" x="58.398438"/>
       <use xlink:href="#ArialMT-2e" x="114.013672"/>
       <use xlink:href="#ArialMT-30" x="141.796875"/>
       <use xlink:href="#ArialMT-32" x="197.412109"/>
      </g>
     </g>
    </g>
    <g id="ytick_10">
     <g id="line2d_23">
      <path d="M 65.07 132.84 
L 510.676364 132.84 
" clip-path="url(#pdf32b29972)" style="fill: none; stroke: #ffffff; stroke-linecap: round"/>
     </g>
     <g id="text_24">
      <!-- −0.01 -->
      <g style="fill: #262626" transform="translate(27.738281 136.776797) scale(0.11 -0.11)">
       <use xlink:href="#ArialMT-2212"/>
       <use xlink:href="#ArialMT-30" x="58.398438"/>
       <use xlink:href="#ArialMT-2e" x="114.013672"/>
       <use xlink:href="#ArialMT-30" x="141.796875"/>
       <use xlink:href="#ArialMT-31" x="197.412109"/>
      </g>
     </g>
    </g>
    <g id="ytick_11">
     <g id="line2d_24">
      <path d="M 65.07 112.86 
L 510.676364 112.86 
" clip-path="url(#pdf32b29972)" style="fill: none; stroke: #ffffff; stroke-linecap: round"/>
     </g>
     <g id="text_25">
      <!-- 0.00 -->
      <g style="fill: #262626" transform="translate(34.162969 116.796797) scale(0.11 -0.11)">
       <use xlink:href="#ArialMT-30"/>
       <use xlink:href="#ArialMT-2e" x="55.615234"/>
       <use xlink:href="#ArialMT-30" x="83.398438"/>
       <use xlink:href="#ArialMT-30" x="139.013672"/>
      </g>
     </g>
    </g>
    <g id="ytick_12">
     <g id="line2d_25">
      <path d="M 65.07 92.88 
L 510.676364 92.88 
" clip-path="url(#pdf32b29972)" style="fill: none; stroke: #ffffff; stroke-linecap: round"/>
     </g>
     <g id="text_26">
      <!-- 0.01 -->
      <g style="fill: #262626" transform="translate(34.162969 96.816797) scale(0.11 -0.11)">
       <use xlink:href="#ArialMT-30"/>
       <use xlink:href="#ArialMT-2e" x="55.615234"/>
       <use xlink:href="#ArialMT-30" x="83.398438"/>
       <use xlink:href="#ArialMT-31" x="139.013672"/>
      </g>
     </g>
    </g>
    <g id="ytick_13">
     <g id="line2d_26">
      <path d="M 65.07 72.9 
L 510.676364 72.9 
" clip-path="url(#pdf32b29972)" style="fill: none; stroke: #ffffff; stroke-linecap: round"/>
     </g>
     <g id="text_27">
      <!-- 0.02 -->
      <g style="fill: #262626" transform="translate(34.162969 76.836797) scale(0.11 -0.11)">
       <use xlink:href="#ArialMT-30"/>
       <use xlink:href="#ArialMT-2e" x="55.615234"/>
       <use xlink:href="#ArialMT-30" x="83.398438"/>
       <use xlink:href="#ArialMT-32" x="139.013672"/>
      </g>
     </g>
    </g>
    <g id="ytick_14">
     <g id="line2d_27">
      <path d="M 65.07 52.92 
L 510.676364 52.92 
" clip-path="url(#pdf32b29972)" style="fill: none; stroke: #ffffff; stroke-linecap: round"/>
     </g>
     <g id="text_28">
      <!-- 0.03 -->
      <g style="fill: #262626" transform="translate(34.162969 56.856797) scale(0.11 -0.11)">
       <use xlink:href="#ArialMT-30"/>
       <use xlink:href="#ArialMT-2e" x="55.615234"/>
       <use xlink:href="#ArialMT-30" x="83.398438"/>
       <use xlink:href="#ArialMT-33" x="139.013672"/>
      </g>
     </g>
    </g>
    <g id="ytick_15">
     <g id="line2d_28">
      <path d="M 65.07 32.94 
L 510.676364 32.94 
" clip-path="url(#pdf32b29972)" style="fill: none; stroke: #ffffff; stroke-linecap: round"/>
     </g>
     <g id="text_29">
      <!-- 0.04 -->
      <g style="fill: #262626" transform="translate(34.162969 36.876797) scale(0.11 -0.11)">
       <use xlink:href="#ArialMT-30"/>
       <use xlink:href="#ArialMT-2e" x="55.615234"/>
       <use xlink:href="#ArialMT-30" x="83.398438"/>
       <use xlink:href="#ArialMT-34" x="139.013672"/>
      </g>
     </g>
    </g>
    <g id="ytick_16">
     <g id="line2d_29">
      <path d="M 65.07 12.96 
L 510.676364 12.96 
" clip-path="url(#pdf32b29972)" style="fill: none; stroke: #ffffff; stroke-linecap: round"/>
     </g>
     <g id="text_30">
      <!-- 0.05 -->
      <g style="fill: #262626" transform="translate(34.162969 16.896797) scale(0.11 -0.11)">
       <use xlink:href="#ArialMT-30"/>
       <use xlink:href="#ArialMT-2e" x="55.615234"/>
       <use xlink:href="#ArialMT-30" x="83.398438"/>
       <use xlink:href="#ArialMT-35" x="139.013672"/>
      </g>
     </g>
    </g>
    <g id="text_31">
     <!-- Cm [-] -->
     <g style="fill: #262626" transform="translate(21.353281 179.139375) rotate(-90) scale(0.12 -0.12)">
      <defs>
       <path id="ArialMT-43" d="M 3763 1606 
L 4369 1453 
Q 4178 706 3683 314 
Q 3188 -78 2472 -78 
Q 1731 -78 1267 223 
Q 803 525 561 1097 
Q 319 1669 319 2325 
Q 319 3041 592 3573 
Q 866 4106 1370 4382 
Q 1875 4659 2481 4659 
Q 3169 4659 3637 4309 
Q 4106 3959 4291 3325 
L 3694 3184 
Q 3534 3684 3231 3912 
Q 2928 4141 2469 4141 
Q 1941 4141 1586 3887 
Q 1231 3634 1087 3207 
Q 944 2781 944 2328 
Q 944 1744 1114 1308 
Q 1284 872 1643 656 
Q 2003 441 2422 441 
Q 2931 441 3284 734 
Q 3638 1028 3763 1606 
z
" transform="scale(0.015625)"/>
       <path id="ArialMT-6d" d="M 422 0 
L 422 3319 
L 925 3319 
L 925 2853 
Q 1081 3097 1340 3245 
Q 1600 3394 1931 3394 
Q 2300 3394 2536 3241 
Q 2772 3088 2869 2813 
Q 3263 3394 3894 3394 
Q 4388 3394 4653 3120 
Q 4919 2847 4919 2278 
L 4919 0 
L 4359 0 
L 4359 2091 
Q 4359 2428 4304 2576 
Q 4250 2725 4106 2815 
Q 3963 2906 3769 2906 
Q 3419 2906 3187 2673 
Q 2956 2441 2956 1928 
L 2956 0 
L 2394 0 
L 2394 2156 
Q 2394 2531 2256 2718 
Q 2119 2906 1806 2906 
Q 1569 2906 1367 2781 
Q 1166 2656 1075 2415 
Q 984 2175 984 1722 
L 984 0 
L 422 0 
z
" transform="scale(0.015625)"/>
       <path id="ArialMT-2d" d="M 203 1375 
L 203 1941 
L 1931 1941 
L 1931 1375 
L 203 1375 
z
" transform="scale(0.015625)"/>
      </defs>
      <use xlink:href="#ArialMT-43"/>
      <use xlink:href="#ArialMT-6d" x="72.216797"/>
      <use xlink:href="#ArialMT-20" x="155.517578"/>
      <use xlink:href="#ArialMT-5b" x="183.300781"/>
      <use xlink:href="#ArialMT-2d" x="211.083984"/>
      <use xlink:href="#ArialMT-5d" x="244.384766"/>
     </g>
    </g>
   </g>
   <g id="PolyCollection_1"/>
   <g id="PathCollection_1">
    <path d="M 85.324835 147.4284 
C 86.120444 147.4284 86.883574 147.112301 87.446155 146.54972 
C 88.008736 145.98714 88.324835 145.224009 88.324835 144.4284 
C 88.324835 143.632791 88.008736 142.86966 87.446155 142.30708 
C 86.883574 141.744499 86.120444 141.4284 85.324835 141.4284 
C 84.529225 141.4284 83.766095 141.744499 83.203514 142.30708 
C 82.640934 142.86966 82.324835 143.632791 82.324835 144.4284 
C 82.324835 145.224009 82.640934 145.98714 83.203514 146.54972 
C 83.766095 147.112301 84.529225 147.4284 85.324835 147.4284 
z
" clip-path="url(#pdf32b29972)" style="fill: #a6cee3; stroke: #ffffff; stroke-width: 0.48"/>
    <path d="M 99.293686 127.848 
C 100.089296 127.848 100.852426 127.531901 101.415007 126.96932 
C 101.977587 126.40674 102.293686 125.643609 102.293686 124.848 
C 102.293686 124.052391 101.977587 123.28926 101.415007 122.72668 
C 100.852426 122.164099 100.089296 121.848 99.293686 121.848 
C 98.498077 121.848 97.734947 122.164099 97.172366 122.72668 
C 96.609785 123.28926 96.293686 124.052391 96.293686 124.848 
C 96.293686 125.643609 96.609785 126.40674 97.172366 126.96932 
C 97.734947 127.531901 98.498077 127.848 99.293686 127.848 
z
" clip-path="url(#pdf32b29972)" style="fill: #a6cee3; stroke: #ffffff; stroke-width: 0.48"/>
    <path d="M 113.262538 136.4394 
C 114.058147 136.4394 114.821277 136.123301 115.383858 135.56072 
C 115.946439 134.99814 116.262538 134.235009 116.262538 133.4394 
C 116.262538 132.643791 115.946439 131.88066 115.383858 131.31808 
C 114.821277 130.755499 114.058147 130.4394 113.262538 130.4394 
C 112.466928 130.4394 111.703798 130.755499 111.141217 131.31808 
C 110.578637 131.88066 110.262538 132.643791 110.262538 133.4394 
C 110.262538 134.235009 110.578637 134.99814 111.141217 135.56072 
C 111.703798 136.123301 112.466928 136.4394 113.262538 136.4394 
z
" clip-path="url(#pdf32b29972)" style="fill: #a6cee3; stroke: #ffffff; stroke-width: 0.48"/>
    <path d="M 141.200241 127.2486 
C 141.99585 127.2486 142.75898 126.932501 143.321561 126.36992 
C 143.884142 125.80734 144.200241 125.044209 144.200241 124.2486 
C 144.200241 123.452991 143.884142 122.68986 143.321561 122.12728 
C 142.75898 121.564699 141.99585 121.2486 141.200241 121.2486 
C 140.404632 121.2486 139.641501 121.564699 139.07892 122.12728 
C 138.51634 122.68986 138.200241 123.452991 138.200241 124.2486 
C 138.200241 125.044209 138.51634 125.80734 139.07892 126.36992 
C 139.641501 126.932501 140.404632 127.2486 141.200241 127.2486 
z
" clip-path="url(#pdf32b29972)" style="fill: #a6cee3; stroke: #ffffff; stroke-width: 0.48"/>
    <path d="M 155.169092 120.4554 
C 155.964702 120.4554 156.727832 120.139301 157.290413 119.57672 
C 157.852993 119.01414 158.169092 118.251009 158.169092 117.4554 
C 158.169092 116.659791 157.852993 115.89666 157.290413 115.33408 
C 156.727832 114.771499 155.964702 114.4554 155.169092 114.4554 
C 154.373483 114.4554 153.610353 114.771499 153.047772 115.33408 
C 152.485191 115.89666 152.169092 116.659791 152.169092 117.4554 
C 152.169092 118.251009 152.485191 119.01414 153.047772 119.57672 
C 153.610353 120.139301 154.373483 120.4554 155.169092 120.4554 
z
" clip-path="url(#pdf32b29972)" style="fill: #a6cee3; stroke: #ffffff; stroke-width: 0.48"/>
    <path d="M 162.153518 115.4604 
C 162.949127 115.4604 163.712258 115.144301 164.274838 114.58172 
C 164.837419 114.01914 165.153518 113.256009 165.153518 112.4604 
C 165.153518 111.664791 164.837419 110.90166 164.274838 110.33908 
C 163.712258 109.776499 162.949127 109.4604 162.153518 109.4604 
C 161.357909 109.4604 160.594778 109.776499 160.032198 110.33908 
C 159.469617 110.90166 159.153518 111.664791 159.153518 112.4604 
C 159.153518 113.256009 159.469617 114.01914 160.032198 114.58172 
C 160.594778 115.144301 161.357909 115.4604 162.153518 115.4604 
z
" clip-path="url(#pdf32b29972)" style="fill: #a6cee3; stroke: #ffffff; stroke-width: 0.48"/>
    <path d="M 169.137944 114.4614 
C 169.933553 114.4614 170.696683 114.145301 171.259264 113.58272 
C 171.821845 113.02014 172.137944 112.257009 172.137944 111.4614 
C 172.137944 110.665791 171.821845 109.90266 171.259264 109.34008 
C 170.696683 108.777499 169.933553 108.4614 169.137944 108.4614 
C 168.342335 108.4614 167.579204 108.777499 167.016624 109.34008 
C 166.454043 109.90266 166.137944 110.665791 166.137944 111.4614 
C 166.137944 112.257009 166.454043 113.02014 167.016624 113.58272 
C 167.579204 114.145301 168.342335 114.4614 169.137944 114.4614 
z
" clip-path="url(#pdf32b29972)" style="fill: #a6cee3; stroke: #ffffff; stroke-width: 0.48"/>
    <path d="M 176.12237 114.2616 
C 176.917979 114.2616 177.681109 113.945501 178.24369 113.38292 
C 178.806271 112.82034 179.12237 112.057209 179.12237 111.2616 
C 179.12237 110.465991 178.806271 109.70286 178.24369 109.14028 
C 177.681109 108.577699 176.917979 108.2616 176.12237 108.2616 
C 175.32676 108.2616 174.56363 108.577699 174.001049 109.14028 
C 173.438469 109.70286 173.12237 110.465991 173.12237 111.2616 
C 173.12237 112.057209 173.438469 112.82034 174.001049 113.38292 
C 174.56363 113.945501 175.32676 114.2616 176.12237 114.2616 
z
" clip-path="url(#pdf32b29972)" style="fill: #a6cee3; stroke: #ffffff; stroke-width: 0.48"/>
    <path d="M 183.106795 114.0618 
C 183.902405 114.0618 184.665535 113.745701 185.228116 113.18312 
C 185.790696 112.62054 186.106795 111.857409 186.106795 111.0618 
C 186.106795 110.266191 185.790696 109.50306 185.228116 108.94048 
C 184.665535 108.377899 183.902405 108.0618 183.106795 108.0618 
C 182.311186 108.0618 181.548056 108.377899 180.985475 108.94048 
C 180.422894 109.50306 180.106795 110.266191 180.106795 111.0618 
C 180.106795 111.857409 180.422894 112.62054 180.985475 113.18312 
C 181.548056 113.745701 182.311186 114.0618 183.106795 114.0618 
z
" clip-path="url(#pdf32b29972)" style="fill: #a6cee3; stroke: #ffffff; stroke-width: 0.48"/>
    <path d="M 190.091221 114.0618 
C 190.88683 114.0618 191.649961 113.745701 192.212541 113.18312 
C 192.775122 112.62054 193.091221 111.857409 193.091221 111.0618 
C 193.091221 110.266191 192.775122 109.50306 192.212541 108.94048 
C 191.649961 108.377899 190.88683 108.0618 190.091221 108.0618 
C 189.295612 108.0618 188.532482 108.377899 187.969901 108.94048 
C 187.40732 109.50306 187.091221 110.266191 187.091221 111.0618 
C 187.091221 111.857409 187.40732 112.62054 187.969901 113.18312 
C 188.532482 113.745701 189.295612 114.0618 190.091221 114.0618 
z
" clip-path="url(#pdf32b29972)" style="fill: #a6cee3; stroke: #ffffff; stroke-width: 0.48"/>
    <path d="M 197.075647 114.0618 
C 197.871256 114.0618 198.634387 113.745701 199.196967 113.18312 
C 199.759548 112.62054 200.075647 111.857409 200.075647 111.0618 
C 200.075647 110.266191 199.759548 109.50306 199.196967 108.94048 
C 198.634387 108.377899 197.871256 108.0618 197.075647 108.0618 
C 196.280038 108.0618 195.516907 108.377899 194.954327 108.94048 
C 194.391746 109.50306 194.075647 110.266191 194.075647 111.0618 
C 194.075647 111.857409 194.391746 112.62054 194.954327 113.18312 
C 195.516907 113.745701 196.280038 114.0618 197.075647 114.0618 
z
" clip-path="url(#pdf32b29972)" style="fill: #a6cee3; stroke: #ffffff; stroke-width: 0.48"/>
    <path d="M 204.060073 114.2616 
C 204.855682 114.2616 205.618812 113.945501 206.181393 113.38292 
C 206.743974 112.82034 207.060073 112.057209 207.060073 111.2616 
C 207.060073 110.465991 206.743974 109.70286 206.181393 109.14028 
C 205.618812 108.577699 204.855682 108.2616 204.060073 108.2616 
C 203.264463 108.2616 202.501333 108.577699 201.938752 109.14028 
C 201.376172 109.70286 201.060073 110.465991 201.060073 111.2616 
C 201.060073 112.057209 201.376172 112.82034 201.938752 113.38292 
C 202.501333 113.945501 203.264463 114.2616 204.060073 114.2616 
z
" clip-path="url(#pdf32b29972)" style="fill: #a6cee3; stroke: #ffffff; stroke-width: 0.48"/>
    <path d="M 211.044498 114.6612 
C 211.840108 114.6612 212.603238 114.345101 213.165819 113.78252 
C 213.7284 113.21994 214.044498 112.456809 214.044498 111.6612 
C 214.044498 110.865591 213.7284 110.10246 213.165819 109.53988 
C 212.603238 108.977299 211.840108 108.6612 211.044498 108.6612 
C 210.248889 108.6612 209.485759 108.977299 208.923178 109.53988 
C 208.360597 110.10246 208.044498 110.865591 208.044498 111.6612 
C 208.044498 112.456809 208.360597 113.21994 208.923178 113.78252 
C 209.485759 114.345101 210.248889 114.6612 211.044498 114.6612 
z
" clip-path="url(#pdf32b29972)" style="fill: #a6cee3; stroke: #ffffff; stroke-width: 0.48"/>
    <path d="M 218.028924 115.2606 
C 218.824533 115.2606 219.587664 114.944501 220.150245 114.38192 
C 220.712825 113.81934 221.028924 113.056209 221.028924 112.2606 
C 221.028924 111.464991 220.712825 110.70186 220.150245 110.13928 
C 219.587664 109.576699 218.824533 109.2606 218.028924 109.2606 
C 217.233315 109.2606 216.470185 109.576699 215.907604 110.13928 
C 215.345023 110.70186 215.028924 111.464991 215.028924 112.2606 
C 215.028924 113.056209 215.345023 113.81934 215.907604 114.38192 
C 216.470185 114.944501 217.233315 115.2606 218.028924 115.2606 
z
" clip-path="url(#pdf32b29972)" style="fill: #a6cee3; stroke: #ffffff; stroke-width: 0.48"/>
    <path d="M 225.01335 115.86 
C 225.808959 115.86 226.57209 115.543901 227.13467 114.98132 
C 227.697251 114.41874 228.01335 113.655609 228.01335 112.86 
C 228.01335 112.064391 227.697251 111.30126 227.13467 110.73868 
C 226.57209 110.176099 225.808959 109.86 225.01335 109.86 
C 224.217741 109.86 223.45461 110.176099 222.89203 110.73868 
C 222.329449 111.30126 222.01335 112.064391 222.01335 112.86 
C 222.01335 113.655609 222.329449 114.41874 222.89203 114.98132 
C 223.45461 115.543901 224.217741 115.86 225.01335 115.86 
z
" clip-path="url(#pdf32b29972)" style="fill: #a6cee3; stroke: #ffffff; stroke-width: 0.48"/>
    <path d="M 231.997776 116.4594 
C 232.793385 116.4594 233.556515 116.143301 234.119096 115.58072 
C 234.681677 115.01814 234.997776 114.255009 234.997776 113.4594 
C 234.997776 112.663791 234.681677 111.90066 234.119096 111.33808 
C 233.556515 110.775499 232.793385 110.4594 231.997776 110.4594 
C 231.202166 110.4594 230.439036 110.775499 229.876455 111.33808 
C 229.313875 111.90066 228.997776 112.663791 228.997776 113.4594 
C 228.997776 114.255009 229.313875 115.01814 229.876455 115.58072 
C 230.439036 116.143301 231.202166 116.4594 231.997776 116.4594 
z
" clip-path="url(#pdf32b29972)" style="fill: #a6cee3; stroke: #ffffff; stroke-width: 0.48"/>
    <path d="M 238.982201 117.0588 
C 239.777811 117.0588 240.540941 116.742701 241.103522 116.18012 
C 241.666103 115.61754 241.982201 114.854409 241.982201 114.0588 
C 241.982201 113.263191 241.666103 112.50006 241.103522 111.93748 
C 240.540941 111.374899 239.777811 111.0588 238.982201 111.0588 
C 238.186592 111.0588 237.423462 111.374899 236.860881 111.93748 
C 236.2983 112.50006 235.982201 113.263191 235.982201 114.0588 
C 235.982201 114.854409 236.2983 115.61754 236.860881 116.18012 
C 237.423462 116.742701 238.186592 117.0588 238.982201 117.0588 
z
" clip-path="url(#pdf32b29972)" style="fill: #a6cee3; stroke: #ffffff; stroke-width: 0.48"/>
    <path d="M 245.966627 117.4584 
C 246.762237 117.4584 247.525367 117.142301 248.087948 116.57972 
C 248.650528 116.01714 248.966627 115.254009 248.966627 114.4584 
C 248.966627 113.662791 248.650528 112.89966 248.087948 112.33708 
C 247.525367 111.774499 246.762237 111.4584 245.966627 111.4584 
C 245.171018 111.4584 244.407888 111.774499 243.845307 112.33708 
C 243.282726 112.89966 242.966627 113.662791 242.966627 114.4584 
C 242.966627 115.254009 243.282726 116.01714 243.845307 116.57972 
C 244.407888 117.142301 245.171018 117.4584 245.966627 117.4584 
z
" clip-path="url(#pdf32b29972)" style="fill: #a6cee3; stroke: #ffffff; stroke-width: 0.48"/>
    <path d="M 252.951053 117.6582 
C 253.746662 117.6582 254.509793 117.342101 255.072373 116.77952 
C 255.634954 116.21694 255.951053 115.453809 255.951053 114.6582 
C 255.951053 113.862591 255.634954 113.09946 255.072373 112.53688 
C 254.509793 111.974299 253.746662 111.6582 252.951053 111.6582 
C 252.155444 111.6582 251.392313 111.974299 250.829733 112.53688 
C 250.267152 113.09946 249.951053 113.862591 249.951053 114.6582 
C 249.951053 115.453809 250.267152 116.21694 250.829733 116.77952 
C 251.392313 117.342101 252.155444 117.6582 252.951053 117.6582 
z
" clip-path="url(#pdf32b29972)" style="fill: #a6cee3; stroke: #ffffff; stroke-width: 0.48"/>
    <path d="M 259.935479 117.6582 
C 260.731088 117.6582 261.494218 117.342101 262.056799 116.77952 
C 262.61938 116.21694 262.935479 115.453809 262.935479 114.6582 
C 262.935479 113.862591 262.61938 113.09946 262.056799 112.53688 
C 261.494218 111.974299 260.731088 111.6582 259.935479 111.6582 
C 259.139869 111.6582 258.376739 111.974299 257.814158 112.53688 
C 257.251578 113.09946 256.935479 113.862591 256.935479 114.6582 
C 256.935479 115.453809 257.251578 116.21694 257.814158 116.77952 
C 258.376739 117.342101 259.139869 117.6582 259.935479 117.6582 
z
" clip-path="url(#pdf32b29972)" style="fill: #a6cee3; stroke: #ffffff; stroke-width: 0.48"/>
    <path d="M 266.919905 117.6582 
C 267.715514 117.6582 268.478644 117.342101 269.041225 116.77952 
C 269.603806 116.21694 269.919905 115.453809 269.919905 114.6582 
C 269.919905 113.862591 269.603806 113.09946 269.041225 112.53688 
C 268.478644 111.974299 267.715514 111.6582 266.919905 111.6582 
C 266.124295 111.6582 265.361165 111.974299 264.798584 112.53688 
C 264.236003 113.09946 263.919905 113.862591 263.919905 114.6582 
C 263.919905 115.453809 264.236003 116.21694 264.798584 116.77952 
C 265.361165 117.342101 266.124295 117.6582 266.919905 117.6582 
z
" clip-path="url(#pdf32b29972)" style="fill: #a6cee3; stroke: #ffffff; stroke-width: 0.48"/>
    <path d="M 273.90433 117.4584 
C 274.69994 117.4584 275.46307 117.142301 276.025651 116.57972 
C 276.588231 116.01714 276.90433 115.254009 276.90433 114.4584 
C 276.90433 113.662791 276.588231 112.89966 276.025651 112.33708 
C 275.46307 111.774499 274.69994 111.4584 273.90433 111.4584 
C 273.108721 111.4584 272.345591 111.774499 271.78301 112.33708 
C 271.220429 112.89966 270.90433 113.662791 270.90433 114.4584 
C 270.90433 115.254009 271.220429 116.01714 271.78301 116.57972 
C 272.345591 117.142301 273.108721 117.4584 273.90433 117.4584 
z
" clip-path="url(#pdf32b29972)" style="fill: #a6cee3; stroke: #ffffff; stroke-width: 0.48"/>
    <path d="M 280.888756 117.2586 
C 281.684365 117.2586 282.447496 116.942501 283.010076 116.37992 
C 283.572657 115.81734 283.888756 115.054209 283.888756 114.2586 
C 283.888756 113.462991 283.572657 112.69986 283.010076 112.13728 
C 282.447496 111.574699 281.684365 111.2586 280.888756 111.2586 
C 280.093147 111.2586 279.330016 111.574699 278.767436 112.13728 
C 278.204855 112.69986 277.888756 113.462991 277.888756 114.2586 
C 277.888756 115.054209 278.204855 115.81734 278.767436 116.37992 
C 279.330016 116.942501 280.093147 117.2586 280.888756 117.2586 
z
" clip-path="url(#pdf32b29972)" style="fill: #a6cee3; stroke: #ffffff; stroke-width: 0.48"/>
    <path d="M 287.873182 116.2596 
C 288.668791 116.2596 289.431921 115.943501 289.994502 115.38092 
C 290.557083 114.81834 290.873182 114.055209 290.873182 113.2596 
C 290.873182 112.463991 290.557083 111.70086 289.994502 111.13828 
C 289.431921 110.575699 288.668791 110.2596 287.873182 110.2596 
C 287.077573 110.2596 286.314442 110.575699 285.751861 111.13828 
C 285.189281 111.70086 284.873182 112.463991 284.873182 113.2596 
C 284.873182 114.055209 285.189281 114.81834 285.751861 115.38092 
C 286.314442 115.943501 287.077573 116.2596 287.873182 116.2596 
z
" clip-path="url(#pdf32b29972)" style="fill: #a6cee3; stroke: #ffffff; stroke-width: 0.48"/>
    <path d="M 294.857608 111.2646 
C 295.653217 111.2646 296.416347 110.948501 296.978928 110.38592 
C 297.541509 109.82334 297.857608 109.060209 297.857608 108.2646 
C 297.857608 107.468991 297.541509 106.70586 296.978928 106.14328 
C 296.416347 105.580699 295.653217 105.2646 294.857608 105.2646 
C 294.061998 105.2646 293.298868 105.580699 292.736287 106.14328 
C 292.173707 106.70586 291.857608 107.468991 291.857608 108.2646 
C 291.857608 109.060209 292.173707 109.82334 292.736287 110.38592 
C 293.298868 110.948501 294.061998 111.2646 294.857608 111.2646 
z
" clip-path="url(#pdf32b29972)" style="fill: #a6cee3; stroke: #ffffff; stroke-width: 0.48"/>
    <path d="M 301.842033 107.4684 
C 302.637643 107.4684 303.400773 107.152301 303.963354 106.58972 
C 304.525934 106.02714 304.842033 105.264009 304.842033 104.4684 
C 304.842033 103.672791 304.525934 102.90966 303.963354 102.34708 
C 303.400773 101.784499 302.637643 101.4684 301.842033 101.4684 
C 301.046424 101.4684 300.283294 101.784499 299.720713 102.34708 
C 299.158132 102.90966 298.842033 103.672791 298.842033 104.4684 
C 298.842033 105.264009 299.158132 106.02714 299.720713 106.58972 
C 300.283294 107.152301 301.046424 107.4684 301.842033 107.4684 
z
" clip-path="url(#pdf32b29972)" style="fill: #a6cee3; stroke: #ffffff; stroke-width: 0.48"/>
    <path d="M 308.826459 104.6712 
C 309.622068 104.6712 310.385199 104.355101 310.947779 103.79252 
C 311.51036 103.22994 311.826459 102.466809 311.826459 101.6712 
C 311.826459 100.875591 311.51036 100.11246 310.947779 99.54988 
C 310.385199 98.987299 309.622068 98.6712 308.826459 98.6712 
C 308.03085 98.6712 307.267719 98.987299 306.705139 99.54988 
C 306.142558 100.11246 305.826459 100.875591 305.826459 101.6712 
C 305.826459 102.466809 306.142558 103.22994 306.705139 103.79252 
C 307.267719 104.355101 308.03085 104.6712 308.826459 104.6712 
z
" clip-path="url(#pdf32b29972)" style="fill: #a6cee3; stroke: #ffffff; stroke-width: 0.48"/>
    <path d="M 315.810885 101.874 
C 316.606494 101.874 317.369624 101.557901 317.932205 100.99532 
C 318.494786 100.43274 318.810885 99.669609 318.810885 98.874 
C 318.810885 98.078391 318.494786 97.31526 317.932205 96.75268 
C 317.369624 96.190099 316.606494 95.874 315.810885 95.874 
C 315.015276 95.874 314.252145 96.190099 313.689565 96.75268 
C 313.126984 97.31526 312.810885 98.078391 312.810885 98.874 
C 312.810885 99.669609 313.126984 100.43274 313.689565 100.99532 
C 314.252145 101.557901 315.015276 101.874 315.810885 101.874 
z
" clip-path="url(#pdf32b29972)" style="fill: #a6cee3; stroke: #ffffff; stroke-width: 0.48"/>
    <path d="M 322.795311 98.2776 
C 323.59092 98.2776 324.35405 97.961501 324.916631 97.39892 
C 325.479212 96.83634 325.795311 96.073209 325.795311 95.2776 
C 325.795311 94.481991 325.479212 93.71886 324.916631 93.15628 
C 324.35405 92.593699 323.59092 92.2776 322.795311 92.2776 
C 321.999701 92.2776 321.236571 92.593699 320.67399 93.15628 
C 320.11141 93.71886 319.795311 94.481991 319.795311 95.2776 
C 319.795311 96.073209 320.11141 96.83634 320.67399 97.39892 
C 321.236571 97.961501 321.999701 98.2776 322.795311 98.2776 
z
" clip-path="url(#pdf32b29972)" style="fill: #a6cee3; stroke: #ffffff; stroke-width: 0.48"/>
    <path d="M 329.779736 94.2816 
C 330.575346 94.2816 331.338476 93.965501 331.901057 93.40292 
C 332.463637 92.84034 332.779736 92.077209 332.779736 91.2816 
C 332.779736 90.485991 332.463637 89.72286 331.901057 89.16028 
C 331.338476 88.597699 330.575346 88.2816 329.779736 88.2816 
C 328.984127 88.2816 328.220997 88.597699 327.658416 89.16028 
C 327.095835 89.72286 326.779736 90.485991 326.779736 91.2816 
C 326.779736 92.077209 327.095835 92.84034 327.658416 93.40292 
C 328.220997 93.965501 328.984127 94.2816 329.779736 94.2816 
z
" clip-path="url(#pdf32b29972)" style="fill: #a6cee3; stroke: #ffffff; stroke-width: 0.48"/>
    <path d="M 336.764162 95.2806 
C 337.559771 95.2806 338.322902 94.964501 338.885482 94.40192 
C 339.448063 93.83934 339.764162 93.076209 339.764162 92.2806 
C 339.764162 91.484991 339.448063 90.72186 338.885482 90.15928 
C 338.322902 89.596699 337.559771 89.2806 336.764162 89.2806 
C 335.968553 89.2806 335.205423 89.596699 334.642842 90.15928 
C 334.080261 90.72186 333.764162 91.484991 333.764162 92.2806 
C 333.764162 93.076209 334.080261 93.83934 334.642842 94.40192 
C 335.205423 94.964501 335.968553 95.2806 336.764162 95.2806 
z
" clip-path="url(#pdf32b29972)" style="fill: #a6cee3; stroke: #ffffff; stroke-width: 0.48"/>
    <path d="M 343.748588 101.0748 
C 344.544197 101.0748 345.307328 100.758701 345.869908 100.19612 
C 346.432489 99.63354 346.748588 98.870409 346.748588 98.0748 
C 346.748588 97.279191 346.432489 96.51606 345.869908 95.95348 
C 345.307328 95.390899 344.544197 95.0748 343.748588 95.0748 
C 342.952979 95.0748 342.189848 95.390899 341.627268 95.95348 
C 341.064687 96.51606 340.748588 97.279191 340.748588 98.0748 
C 340.748588 98.870409 341.064687 99.63354 341.627268 100.19612 
C 342.189848 100.758701 342.952979 101.0748 343.748588 101.0748 
z
" clip-path="url(#pdf32b29972)" style="fill: #a6cee3; stroke: #ffffff; stroke-width: 0.48"/>
    <path d="M 350.733014 103.872 
C 351.528623 103.872 352.291753 103.555901 352.854334 102.99332 
C 353.416915 102.43074 353.733014 101.667609 353.733014 100.872 
C 353.733014 100.076391 353.416915 99.31326 352.854334 98.75068 
C 352.291753 98.188099 351.528623 97.872 350.733014 97.872 
C 349.937404 97.872 349.174274 98.188099 348.611693 98.75068 
C 348.049113 99.31326 347.733014 100.076391 347.733014 100.872 
C 347.733014 101.667609 348.049113 102.43074 348.611693 102.99332 
C 349.174274 103.555901 349.937404 103.872 350.733014 103.872 
z
" clip-path="url(#pdf32b29972)" style="fill: #a6cee3; stroke: #ffffff; stroke-width: 0.48"/>
    <path d="M 357.717439 92.0838 
C 358.513049 92.0838 359.276179 91.767701 359.83876 91.20512 
C 360.401341 90.64254 360.717439 89.879409 360.717439 89.0838 
C 360.717439 88.288191 360.401341 87.52506 359.83876 86.96248 
C 359.276179 86.399899 358.513049 86.0838 357.717439 86.0838 
C 356.92183 86.0838 356.1587 86.399899 355.596119 86.96248 
C 355.033538 87.52506 354.717439 88.288191 354.717439 89.0838 
C 354.717439 89.879409 355.033538 90.64254 355.596119 91.20512 
C 356.1587 91.767701 356.92183 92.0838 357.717439 92.0838 
z
" clip-path="url(#pdf32b29972)" style="fill: #a6cee3; stroke: #ffffff; stroke-width: 0.48"/>
    <path d="M 364.701865 83.4924 
C 365.497475 83.4924 366.260605 83.176301 366.823186 82.61372 
C 367.385766 82.05114 367.701865 81.288009 367.701865 80.4924 
C 367.701865 79.696791 367.385766 78.93366 366.823186 78.37108 
C 366.260605 77.808499 365.497475 77.4924 364.701865 77.4924 
C 363.906256 77.4924 363.143126 77.808499 362.580545 78.37108 
C 362.017964 78.93366 361.701865 79.696791 361.701865 80.4924 
C 361.701865 81.288009 362.017964 82.05114 362.580545 82.61372 
C 363.143126 83.176301 363.906256 83.4924 364.701865 83.4924 
z
" clip-path="url(#pdf32b29972)" style="fill: #a6cee3; stroke: #ffffff; stroke-width: 0.48"/>
    <path d="M 371.686291 76.4994 
C 372.4819 76.4994 373.245031 76.183301 373.807611 75.62072 
C 374.370192 75.05814 374.686291 74.295009 374.686291 73.4994 
C 374.686291 72.703791 374.370192 71.94066 373.807611 71.37808 
C 373.245031 70.815499 372.4819 70.4994 371.686291 70.4994 
C 370.890682 70.4994 370.127551 70.815499 369.564971 71.37808 
C 369.00239 71.94066 368.686291 72.703791 368.686291 73.4994 
C 368.686291 74.295009 369.00239 75.05814 369.564971 75.62072 
C 370.127551 76.183301 370.890682 76.4994 371.686291 76.4994 
z
" clip-path="url(#pdf32b29972)" style="fill: #a6cee3; stroke: #ffffff; stroke-width: 0.48"/>
    <path d="M 378.670717 70.7052 
C 379.466326 70.7052 380.229456 70.389101 380.792037 69.82652 
C 381.354618 69.26394 381.670717 68.500809 381.670717 67.7052 
C 381.670717 66.909591 381.354618 66.14646 380.792037 65.58388 
C 380.229456 65.021299 379.466326 64.7052 378.670717 64.7052 
C 377.875107 64.7052 377.111977 65.021299 376.549396 65.58388 
C 375.986816 66.14646 375.670717 66.909591 375.670717 67.7052 
C 375.670717 68.500809 375.986816 69.26394 376.549396 69.82652 
C 377.111977 70.389101 377.875107 70.7052 378.670717 70.7052 
z
" clip-path="url(#pdf32b29972)" style="fill: #a6cee3; stroke: #ffffff; stroke-width: 0.48"/>
    <path d="M 385.655142 66.1098 
C 386.450752 66.1098 387.213882 65.793701 387.776463 65.23112 
C 388.339044 64.66854 388.655142 63.905409 388.655142 63.1098 
C 388.655142 62.314191 388.339044 61.55106 387.776463 60.98848 
C 387.213882 60.425899 386.450752 60.1098 385.655142 60.1098 
C 384.859533 60.1098 384.096403 60.425899 383.533822 60.98848 
C 382.971241 61.55106 382.655142 62.314191 382.655142 63.1098 
C 382.655142 63.905409 382.971241 64.66854 383.533822 65.23112 
C 384.096403 65.793701 384.859533 66.1098 385.655142 66.1098 
z
" clip-path="url(#pdf32b29972)" style="fill: #a6cee3; stroke: #ffffff; stroke-width: 0.48"/>
    <path d="M 392.639568 62.1138 
C 393.435178 62.1138 394.198308 61.797701 394.760889 61.23512 
C 395.323469 60.67254 395.639568 59.909409 395.639568 59.1138 
C 395.639568 58.318191 395.323469 57.55506 394.760889 56.99248 
C 394.198308 56.429899 393.435178 56.1138 392.639568 56.1138 
C 391.843959 56.1138 391.080829 56.429899 390.518248 56.99248 
C 389.955667 57.55506 389.639568 58.318191 389.639568 59.1138 
C 389.639568 59.909409 389.955667 60.67254 390.518248 61.23512 
C 391.080829 61.797701 391.843959 62.1138 392.639568 62.1138 
z
" clip-path="url(#pdf32b29972)" style="fill: #a6cee3; stroke: #ffffff; stroke-width: 0.48"/>
    <path d="M 399.623994 58.3176 
C 400.419603 58.3176 401.182734 58.001501 401.745314 57.43892 
C 402.307895 56.87634 402.623994 56.113209 402.623994 55.3176 
C 402.623994 54.521991 402.307895 53.75886 401.745314 53.19628 
C 401.182734 52.633699 400.419603 52.3176 399.623994 52.3176 
C 398.828385 52.3176 398.065254 52.633699 397.502674 53.19628 
C 396.940093 53.75886 396.623994 54.521991 396.623994 55.3176 
C 396.623994 56.113209 396.940093 56.87634 397.502674 57.43892 
C 398.065254 58.001501 398.828385 58.3176 399.623994 58.3176 
z
" clip-path="url(#pdf32b29972)" style="fill: #a6cee3; stroke: #ffffff; stroke-width: 0.48"/>
    <path d="M 406.60842 54.5214 
C 407.404029 54.5214 408.167159 54.205301 408.72974 53.64272 
C 409.292321 53.08014 409.60842 52.317009 409.60842 51.5214 
C 409.60842 50.725791 409.292321 49.96266 408.72974 49.40008 
C 408.167159 48.837499 407.404029 48.5214 406.60842 48.5214 
C 405.81281 48.5214 405.04968 48.837499 404.487099 49.40008 
C 403.924519 49.96266 403.60842 50.725791 403.60842 51.5214 
C 403.60842 52.317009 403.924519 53.08014 404.487099 53.64272 
C 405.04968 54.205301 405.81281 54.5214 406.60842 54.5214 
z
" clip-path="url(#pdf32b29972)" style="fill: #a6cee3; stroke: #ffffff; stroke-width: 0.48"/>
    <path d="M 413.592846 51.924 
C 414.388455 51.924 415.151585 51.607901 415.714166 51.04532 
C 416.276747 50.48274 416.592846 49.719609 416.592846 48.924 
C 416.592846 48.128391 416.276747 47.36526 415.714166 46.80268 
C 415.151585 46.240099 414.388455 45.924 413.592846 45.924 
C 412.797236 45.924 412.034106 46.240099 411.471525 46.80268 
C 410.908944 47.36526 410.592846 48.128391 410.592846 48.924 
C 410.592846 49.719609 410.908944 50.48274 411.471525 51.04532 
C 412.034106 51.607901 412.797236 51.924 413.592846 51.924 
z
" clip-path="url(#pdf32b29972)" style="fill: #a6cee3; stroke: #ffffff; stroke-width: 0.48"/>
    <path d="M 420.577271 49.5264 
C 421.372881 49.5264 422.136011 49.210301 422.698592 48.64772 
C 423.261172 48.08514 423.577271 47.322009 423.577271 46.5264 
C 423.577271 45.730791 423.261172 44.96766 422.698592 44.40508 
C 422.136011 43.842499 421.372881 43.5264 420.577271 43.5264 
C 419.781662 43.5264 419.018532 43.842499 418.455951 44.40508 
C 417.89337 44.96766 417.577271 45.730791 417.577271 46.5264 
C 417.577271 47.322009 417.89337 48.08514 418.455951 48.64772 
C 419.018532 49.210301 419.781662 49.5264 420.577271 49.5264 
z
" clip-path="url(#pdf32b29972)" style="fill: #a6cee3; stroke: #ffffff; stroke-width: 0.48"/>
    <path d="M 427.561697 47.928 
C 428.357306 47.928 429.120437 47.611901 429.683017 47.04932 
C 430.245598 46.48674 430.561697 45.723609 430.561697 44.928 
C 430.561697 44.132391 430.245598 43.36926 429.683017 42.80668 
C 429.120437 42.244099 428.357306 41.928 427.561697 41.928 
C 426.766088 41.928 426.002957 42.244099 425.440377 42.80668 
C 424.877796 43.36926 424.561697 44.132391 424.561697 44.928 
C 424.561697 45.723609 424.877796 46.48674 425.440377 47.04932 
C 426.002957 47.611901 426.766088 47.928 427.561697 47.928 
z
" clip-path="url(#pdf32b29972)" style="fill: #a6cee3; stroke: #ffffff; stroke-width: 0.48"/>
    <path d="M 434.546123 47.1288 
C 435.341732 47.1288 436.104862 46.812701 436.667443 46.25012 
C 437.230024 45.68754 437.546123 44.924409 437.546123 44.1288 
C 437.546123 43.333191 437.230024 42.57006 436.667443 42.00748 
C 436.104862 41.444899 435.341732 41.1288 434.546123 41.1288 
C 433.750514 41.1288 432.987383 41.444899 432.424802 42.00748 
C 431.862222 42.57006 431.546123 43.333191 431.546123 44.1288 
C 431.546123 44.924409 431.862222 45.68754 432.424802 46.25012 
C 432.987383 46.812701 433.750514 47.1288 434.546123 47.1288 
z
" clip-path="url(#pdf32b29972)" style="fill: #a6cee3; stroke: #ffffff; stroke-width: 0.48"/>
    <path d="M 441.530549 46.7292 
C 442.326158 46.7292 443.089288 46.413101 443.651869 45.85052 
C 444.21445 45.28794 444.530549 44.524809 444.530549 43.7292 
C 444.530549 42.933591 444.21445 42.17046 443.651869 41.60788 
C 443.089288 41.045299 442.326158 40.7292 441.530549 40.7292 
C 440.734939 40.7292 439.971809 41.045299 439.409228 41.60788 
C 438.846648 42.17046 438.530549 42.933591 438.530549 43.7292 
C 438.530549 44.524809 438.846648 45.28794 439.409228 45.85052 
C 439.971809 46.413101 440.734939 46.7292 441.530549 46.7292 
z
" clip-path="url(#pdf32b29972)" style="fill: #a6cee3; stroke: #ffffff; stroke-width: 0.48"/>
    <path d="M 455.4994 50.3256 
C 456.295009 50.3256 457.05814 50.009501 457.62072 49.44692 
C 458.183301 48.88434 458.4994 48.121209 458.4994 47.3256 
C 458.4994 46.529991 458.183301 45.76686 457.62072 45.20428 
C 457.05814 44.641699 456.295009 44.3256 455.4994 44.3256 
C 454.703791 44.3256 453.940661 44.641699 453.37808 45.20428 
C 452.815499 45.76686 452.4994 46.529991 452.4994 47.3256 
C 452.4994 48.121209 452.815499 48.88434 453.37808 49.44692 
C 453.940661 50.009501 454.703791 50.3256 455.4994 50.3256 
z
" clip-path="url(#pdf32b29972)" style="fill: #a6cee3; stroke: #ffffff; stroke-width: 0.48"/>
    <path d="M 462.483826 56.3196 
C 463.279435 56.3196 464.042565 56.003501 464.605146 55.44092 
C 465.167727 54.87834 465.483826 54.115209 465.483826 53.3196 
C 465.483826 52.523991 465.167727 51.76086 464.605146 51.19828 
C 464.042565 50.635699 463.279435 50.3196 462.483826 50.3196 
C 461.688217 50.3196 460.925086 50.635699 460.362506 51.19828 
C 459.799925 51.76086 459.483826 52.523991 459.483826 53.3196 
C 459.483826 54.115209 459.799925 54.87834 460.362506 55.44092 
C 460.925086 56.003501 461.688217 56.3196 462.483826 56.3196 
z
" clip-path="url(#pdf32b29972)" style="fill: #a6cee3; stroke: #ffffff; stroke-width: 0.48"/>
    <path d="M 469.468252 65.7102 
C 470.263861 65.7102 471.026991 65.394101 471.589572 64.83152 
C 472.152153 64.26894 472.468252 63.505809 472.468252 62.7102 
C 472.468252 61.914591 472.152153 61.15146 471.589572 60.58888 
C 471.026991 60.026299 470.263861 59.7102 469.468252 59.7102 
C 468.672642 59.7102 467.909512 60.026299 467.346931 60.58888 
C 466.784351 61.15146 466.468252 61.914591 466.468252 62.7102 
C 466.468252 63.505809 466.784351 64.26894 467.346931 64.83152 
C 467.909512 65.394101 468.672642 65.7102 469.468252 65.7102 
z
" clip-path="url(#pdf32b29972)" style="fill: #a6cee3; stroke: #ffffff; stroke-width: 0.48"/>
    <path d="M 476.452677 78.897 
C 477.248287 78.897 478.011417 78.580901 478.573998 78.01832 
C 479.136578 77.45574 479.452677 76.692609 479.452677 75.897 
C 479.452677 75.101391 479.136578 74.33826 478.573998 73.77568 
C 478.011417 73.213099 477.248287 72.897 476.452677 72.897 
C 475.657068 72.897 474.893938 73.213099 474.331357 73.77568 
C 473.768776 74.33826 473.452677 75.101391 473.452677 75.897 
C 473.452677 76.692609 473.768776 77.45574 474.331357 78.01832 
C 474.893938 78.580901 475.657068 78.897 476.452677 78.897 
z
" clip-path="url(#pdf32b29972)" style="fill: #a6cee3; stroke: #ffffff; stroke-width: 0.48"/>
    <path d="M 483.437103 96.879 
C 484.232712 96.879 484.995843 96.562901 485.558424 96.00032 
C 486.121004 95.43774 486.437103 94.674609 486.437103 93.879 
C 486.437103 93.083391 486.121004 92.32026 485.558424 91.75768 
C 484.995843 91.195099 484.232712 90.879 483.437103 90.879 
C 482.641494 90.879 481.878364 91.195099 481.315783 91.75768 
C 480.753202 92.32026 480.437103 93.083391 480.437103 93.879 
C 480.437103 94.674609 480.753202 95.43774 481.315783 96.00032 
C 481.878364 96.562901 482.641494 96.879 483.437103 96.879 
z
" clip-path="url(#pdf32b29972)" style="fill: #a6cee3; stroke: #ffffff; stroke-width: 0.48"/>
    <path d="M 490.421529 121.2546 
C 491.217138 121.2546 491.980269 120.938501 492.542849 120.37592 
C 493.10543 119.81334 493.421529 119.050209 493.421529 118.2546 
C 493.421529 117.458991 493.10543 116.69586 492.542849 116.13328 
C 491.980269 115.570699 491.217138 115.2546 490.421529 115.2546 
C 489.62592 115.2546 488.862789 115.570699 488.300209 116.13328 
C 487.737628 116.69586 487.421529 117.458991 487.421529 118.2546 
C 487.421529 119.050209 487.737628 119.81334 488.300209 120.37592 
C 488.862789 120.938501 489.62592 121.2546 490.421529 121.2546 
z
" clip-path="url(#pdf32b29972)" style="fill: #a6cee3; stroke: #ffffff; stroke-width: 0.48"/>
    <path d="M 181.453138 110.6652 
L 182.953138 109.1652 
L 184.453138 110.6652 
L 185.953138 109.1652 
L 184.453138 107.6652 
L 185.953138 106.1652 
L 184.453138 104.6652 
L 182.953138 106.1652 
L 181.453138 104.6652 
L 179.953138 106.1652 
L 181.453138 107.6652 
L 179.953138 109.1652 
z
" clip-path="url(#pdf32b29972)" style="fill: #1f78b4; stroke: #ffffff; stroke-width: 0.48"/>
    <path d="M 195.408021 111.6642 
L 196.908021 110.1642 
L 198.408021 111.6642 
L 199.908021 110.1642 
L 198.408021 108.6642 
L 199.908021 107.1642 
L 198.408021 105.6642 
L 196.908021 107.1642 
L 195.408021 105.6642 
L 193.908021 107.1642 
L 195.408021 108.6642 
L 193.908021 110.1642 
z
" clip-path="url(#pdf32b29972)" style="fill: #1f78b4; stroke: #ffffff; stroke-width: 0.48"/>
    <path d="M 209.418779 111.864 
L 210.918779 110.364 
L 212.418779 111.864 
L 213.918779 110.364 
L 212.418779 108.864 
L 213.918779 107.364 
L 212.418779 105.864 
L 210.918779 107.364 
L 209.418779 105.864 
L 207.918779 107.364 
L 209.418779 108.864 
L 207.918779 110.364 
z
" clip-path="url(#pdf32b29972)" style="fill: #1f78b4; stroke: #ffffff; stroke-width: 0.48"/>
    <path d="M 223.51335 111.2646 
L 225.01335 109.7646 
L 226.51335 111.2646 
L 228.01335 109.7646 
L 226.51335 108.2646 
L 228.01335 106.7646 
L 226.51335 105.2646 
L 225.01335 106.7646 
L 223.51335 105.2646 
L 222.01335 106.7646 
L 223.51335 108.2646 
L 222.01335 109.7646 
z
" clip-path="url(#pdf32b29972)" style="fill: #1f78b4; stroke: #ffffff; stroke-width: 0.48"/>
    <path d="M 237.468233 111.4644 
L 238.968233 109.9644 
L 240.468233 111.4644 
L 241.968233 109.9644 
L 240.468233 108.4644 
L 241.968233 106.9644 
L 240.468233 105.4644 
L 238.968233 106.9644 
L 237.468233 105.4644 
L 235.968233 106.9644 
L 237.468233 108.4644 
L 235.968233 109.9644 
z
" clip-path="url(#pdf32b29972)" style="fill: #1f78b4; stroke: #ffffff; stroke-width: 0.48"/>
    <path d="M 251.632648 112.0638 
L 253.132648 110.5638 
L 254.632648 112.0638 
L 256.132648 110.5638 
L 254.632648 109.0638 
L 256.132648 107.5638 
L 254.632648 106.0638 
L 253.132648 107.5638 
L 251.632648 106.0638 
L 250.132648 107.5638 
L 251.632648 109.0638 
L 250.132648 110.5638 
z
" clip-path="url(#pdf32b29972)" style="fill: #1f78b4; stroke: #ffffff; stroke-width: 0.48"/>
    <path d="M 265.587531 111.864 
L 267.087531 110.364 
L 268.587531 111.864 
L 270.087531 110.364 
L 268.587531 108.864 
L 270.087531 107.364 
L 268.587531 105.864 
L 267.087531 107.364 
L 265.587531 105.864 
L 264.087531 107.364 
L 265.587531 108.864 
L 264.087531 110.364 
z
" clip-path="url(#pdf32b29972)" style="fill: #1f78b4; stroke: #ffffff; stroke-width: 0.48"/>
    <path d="M 272.599894 111.6642 
L 274.099894 110.1642 
L 275.599894 111.6642 
L 277.099894 110.1642 
L 275.599894 108.6642 
L 277.099894 107.1642 
L 275.599894 105.6642 
L 274.099894 107.1642 
L 272.599894 105.6642 
L 271.099894 107.1642 
L 272.599894 108.6642 
L 271.099894 110.1642 
z
" clip-path="url(#pdf32b29972)" style="fill: #1f78b4; stroke: #ffffff; stroke-width: 0.48"/>
    <path d="M 279.542413 111.2646 
L 281.042413 109.7646 
L 282.542413 111.2646 
L 284.042413 109.7646 
L 282.542413 108.2646 
L 284.042413 106.7646 
L 282.542413 105.2646 
L 281.042413 106.7646 
L 279.542413 105.2646 
L 278.042413 106.7646 
L 279.542413 108.2646 
L 278.042413 109.7646 
z
" clip-path="url(#pdf32b29972)" style="fill: #1f78b4; stroke: #ffffff; stroke-width: 0.48"/>
    <path d="M 286.694465 109.6662 
L 288.194465 108.1662 
L 289.694465 109.6662 
L 291.194465 108.1662 
L 289.694465 106.6662 
L 291.194465 105.1662 
L 289.694465 103.6662 
L 288.194465 105.1662 
L 286.694465 103.6662 
L 285.194465 105.1662 
L 286.694465 106.6662 
L 285.194465 108.1662 
z
" clip-path="url(#pdf32b29972)" style="fill: #1f78b4; stroke: #ffffff; stroke-width: 0.48"/>
    <path d="M 293.56714 106.4694 
L 295.06714 104.9694 
L 296.56714 106.4694 
L 298.06714 104.9694 
L 296.56714 103.4694 
L 298.06714 101.9694 
L 296.56714 100.4694 
L 295.06714 101.9694 
L 293.56714 100.4694 
L 292.06714 101.9694 
L 293.56714 103.4694 
L 292.06714 104.9694 
z
" clip-path="url(#pdf32b29972)" style="fill: #1f78b4; stroke: #ffffff; stroke-width: 0.48"/>
    <path d="M 300.719192 102.2736 
L 302.219192 100.7736 
L 303.719192 102.2736 
L 305.219192 100.7736 
L 303.719192 99.2736 
L 305.219192 97.7736 
L 303.719192 96.2736 
L 302.219192 97.7736 
L 300.719192 96.2736 
L 299.219192 97.7736 
L 300.719192 99.2736 
L 299.219192 100.7736 
z
" clip-path="url(#pdf32b29972)" style="fill: #1f78b4; stroke: #ffffff; stroke-width: 0.48"/>
    <path d="M 307.647743 99.4764 
L 309.147743 97.9764 
L 310.647743 99.4764 
L 312.147743 97.9764 
L 310.647743 96.4764 
L 312.147743 94.9764 
L 310.647743 93.4764 
L 309.147743 94.9764 
L 307.647743 93.4764 
L 306.147743 94.9764 
L 307.647743 96.4764 
L 306.147743 97.9764 
z
" clip-path="url(#pdf32b29972)" style="fill: #1f78b4; stroke: #ffffff; stroke-width: 0.48"/>
    <path d="M 314.660106 97.2786 
L 316.160106 95.7786 
L 317.660106 97.2786 
L 319.160106 95.7786 
L 317.660106 94.2786 
L 319.160106 92.7786 
L 317.660106 91.2786 
L 316.160106 92.7786 
L 314.660106 91.2786 
L 313.160106 92.7786 
L 314.660106 94.2786 
L 313.160106 95.7786 
z
" clip-path="url(#pdf32b29972)" style="fill: #1f78b4; stroke: #ffffff; stroke-width: 0.48"/>
    <path d="M 321.67247 94.2816 
L 323.17247 92.7816 
L 324.67247 94.2816 
L 326.17247 92.7816 
L 324.67247 91.2816 
L 326.17247 89.7816 
L 324.67247 88.2816 
L 323.17247 89.7816 
L 321.67247 88.2816 
L 320.17247 89.7816 
L 321.67247 91.2816 
L 320.17247 92.7816 
z
" clip-path="url(#pdf32b29972)" style="fill: #1f78b4; stroke: #ffffff; stroke-width: 0.48"/>
    <path d="M 328.754677 92.2836 
L 330.254677 90.7836 
L 331.754677 92.2836 
L 333.254677 90.7836 
L 331.754677 89.2836 
L 333.254677 87.7836 
L 331.754677 86.2836 
L 330.254677 87.7836 
L 328.754677 86.2836 
L 327.254677 87.7836 
L 328.754677 89.2836 
L 327.254677 90.7836 
z
" clip-path="url(#pdf32b29972)" style="fill: #1f78b4; stroke: #ffffff; stroke-width: 0.48"/>
    <path d="M 335.683228 88.6872 
L 337.183228 87.1872 
L 338.683228 88.6872 
L 340.183228 87.1872 
L 338.683228 85.6872 
L 340.183228 84.1872 
L 338.683228 82.6872 
L 337.183228 84.1872 
L 335.683228 82.6872 
L 334.183228 84.1872 
L 335.683228 85.6872 
L 334.183228 87.1872 
z
" clip-path="url(#pdf32b29972)" style="fill: #1f78b4; stroke: #ffffff; stroke-width: 0.48"/>
    <path d="M 342.625747 85.6902 
L 344.125747 84.1902 
L 345.625747 85.6902 
L 347.125747 84.1902 
L 345.625747 82.6902 
L 347.125747 81.1902 
L 345.625747 79.6902 
L 344.125747 81.1902 
L 342.625747 79.6902 
L 341.125747 81.1902 
L 342.625747 82.6902 
L 341.125747 84.1902 
z
" clip-path="url(#pdf32b29972)" style="fill: #1f78b4; stroke: #ffffff; stroke-width: 0.48"/>
    <path d="M 349.707955 86.0898 
L 351.207955 84.5898 
L 352.707955 86.0898 
L 354.207955 84.5898 
L 352.707955 83.0898 
L 354.207955 81.5898 
L 352.707955 80.0898 
L 351.207955 81.5898 
L 349.707955 80.0898 
L 348.207955 81.5898 
L 349.707955 83.0898 
L 348.207955 84.5898 
z
" clip-path="url(#pdf32b29972)" style="fill: #1f78b4; stroke: #ffffff; stroke-width: 0.48"/>
    <path d="M 356.650474 83.4924 
L 358.150474 81.9924 
L 359.650474 83.4924 
L 361.150474 81.9924 
L 359.650474 80.4924 
L 361.150474 78.9924 
L 359.650474 77.4924 
L 358.150474 78.9924 
L 356.650474 77.4924 
L 355.150474 78.9924 
L 356.650474 80.4924 
L 355.150474 81.9924 
z
" clip-path="url(#pdf32b29972)" style="fill: #1f78b4; stroke: #ffffff; stroke-width: 0.48"/>
    <path d="M 363.718713 78.0978 
L 365.218713 76.5978 
L 366.718713 78.0978 
L 368.218713 76.5978 
L 366.718713 75.0978 
L 368.218713 73.5978 
L 366.718713 72.0978 
L 365.218713 73.5978 
L 363.718713 72.0978 
L 362.218713 73.5978 
L 363.718713 75.0978 
L 362.218713 76.5978 
z
" clip-path="url(#pdf32b29972)" style="fill: #1f78b4; stroke: #ffffff; stroke-width: 0.48"/>
    <path d="M 377.659627 68.3076 
L 379.159627 66.8076 
L 380.659627 68.3076 
L 382.159627 66.8076 
L 380.659627 65.3076 
L 382.159627 63.8076 
L 380.659627 62.3076 
L 379.159627 63.8076 
L 377.659627 62.3076 
L 376.159627 63.8076 
L 377.659627 65.3076 
L 376.159627 66.8076 
z
" clip-path="url(#pdf32b29972)" style="fill: #1f78b4; stroke: #ffffff; stroke-width: 0.48"/>
    <path d="M 391.712291 61.1148 
L 393.212291 59.6148 
L 394.712291 61.1148 
L 396.212291 59.6148 
L 394.712291 58.1148 
L 396.212291 56.6148 
L 394.712291 55.1148 
L 393.212291 56.6148 
L 391.712291 55.1148 
L 390.212291 56.6148 
L 391.712291 58.1148 
L 390.212291 59.6148 
z
" clip-path="url(#pdf32b29972)" style="fill: #1f78b4; stroke: #ffffff; stroke-width: 0.48"/>
    <path d="M 405.625267 63.5124 
L 407.125267 62.0124 
L 408.625267 63.5124 
L 410.125267 62.0124 
L 408.625267 60.5124 
L 410.125267 59.0124 
L 408.625267 57.5124 
L 407.125267 59.0124 
L 405.625267 57.5124 
L 404.125267 59.0124 
L 405.625267 60.5124 
L 404.125267 62.0124 
z
" clip-path="url(#pdf32b29972)" style="fill: #1f78b4; stroke: #ffffff; stroke-width: 0.48"/>
    <path d="M 419.649994 76.0998 
L 421.149994 74.5998 
L 422.649994 76.0998 
L 424.149994 74.5998 
L 422.649994 73.0998 
L 424.149994 71.5998 
L 422.649994 70.0998 
L 421.149994 71.5998 
L 419.649994 70.0998 
L 418.149994 71.5998 
L 419.649994 73.0998 
L 418.149994 74.5998 
z
" clip-path="url(#pdf32b29972)" style="fill: #1f78b4; stroke: #ffffff; stroke-width: 0.48"/>
    <path d="M 433.604877 95.88 
L 435.104877 94.38 
L 436.604877 95.88 
L 438.104877 94.38 
L 436.604877 92.88 
L 438.104877 91.38 
L 436.604877 89.88 
L 435.104877 91.38 
L 433.604877 89.88 
L 432.104877 91.38 
L 433.604877 92.88 
L 432.104877 94.38 
z
" clip-path="url(#pdf32b29972)" style="fill: #1f78b4; stroke: #ffffff; stroke-width: 0.48"/>
    <path d="M 440.631209 112.4634 
L 442.131209 110.9634 
L 443.631209 112.4634 
L 445.131209 110.9634 
L 443.631209 109.4634 
L 445.131209 107.9634 
L 443.631209 106.4634 
L 442.131209 107.9634 
L 440.631209 106.4634 
L 439.131209 107.9634 
L 440.631209 109.4634 
L 439.131209 110.9634 
z
" clip-path="url(#pdf32b29972)" style="fill: #1f78b4; stroke: #ffffff; stroke-width: 0.48"/>
    <path d="M 447.503884 128.847 
L 449.003884 127.347 
L 450.503884 128.847 
L 452.003884 127.347 
L 450.503884 125.847 
L 452.003884 124.347 
L 450.503884 122.847 
L 449.003884 124.347 
L 447.503884 122.847 
L 446.003884 124.347 
L 447.503884 125.847 
L 446.003884 127.347 
z
" clip-path="url(#pdf32b29972)" style="fill: #1f78b4; stroke: #ffffff; stroke-width: 0.48"/>
    <path d="M 454.222902 276.4992 
L 455.722902 274.9992 
L 457.222902 276.4992 
L 458.722902 274.9992 
L 457.222902 273.4992 
L 458.722902 271.9992 
L 457.222902 270.4992 
L 455.722902 271.9992 
L 454.222902 270.4992 
L 452.722902 271.9992 
L 454.222902 273.4992 
L 452.722902 274.9992 
z
" clip-path="url(#pdf32b29972)" style="fill: #1f78b4; stroke: #ffffff; stroke-width: 0.48"/>
    <path d="M 461.137483 272.1036 
L 462.637483 270.6036 
L 464.137483 272.1036 
L 465.637483 270.6036 
L 464.137483 269.1036 
L 465.637483 267.6036 
L 464.137483 266.1036 
L 462.637483 267.6036 
L 461.137483 266.1036 
L 459.637483 267.6036 
L 461.137483 269.1036 
L 459.637483 270.6036 
z
" clip-path="url(#pdf32b29972)" style="fill: #1f78b4; stroke: #ffffff; stroke-width: 0.48"/>
    <path d="M 468.052065 230.3454 
L 469.552065 228.8454 
L 471.052065 230.3454 
L 472.552065 228.8454 
L 471.052065 227.3454 
L 472.552065 225.8454 
L 471.052065 224.3454 
L 469.552065 225.8454 
L 468.052065 224.3454 
L 466.552065 225.8454 
L 468.052065 227.3454 
L 466.552065 228.8454 
z
" clip-path="url(#pdf32b29972)" style="fill: #1f78b4; stroke: #ffffff; stroke-width: 0.48"/>
    <path d="M 475.176179 232.3434 
L 476.676179 230.8434 
L 478.176179 232.3434 
L 479.676179 230.8434 
L 478.176179 229.3434 
L 479.676179 227.8434 
L 478.176179 226.3434 
L 476.676179 227.8434 
L 475.176179 226.3434 
L 473.676179 227.8434 
L 475.176179 229.3434 
L 473.676179 230.8434 
z
" clip-path="url(#pdf32b29972)" style="fill: #1f78b4; stroke: #ffffff; stroke-width: 0.48"/>
    <path d="M 482.090761 232.3434 
L 483.590761 230.8434 
L 485.090761 232.3434 
L 486.590761 230.8434 
L 485.090761 229.3434 
L 486.590761 227.8434 
L 485.090761 226.3434 
L 483.590761 227.8434 
L 482.090761 226.3434 
L 480.590761 227.8434 
L 482.090761 229.3434 
L 480.590761 230.8434 
z
" clip-path="url(#pdf32b29972)" style="fill: #1f78b4; stroke: #ffffff; stroke-width: 0.48"/>
    <path d="M 475.176179 235.3404 
L 476.676179 233.8404 
L 478.176179 235.3404 
L 479.676179 233.8404 
L 478.176179 232.3404 
L 479.676179 230.8404 
L 478.176179 229.3404 
L 476.676179 230.8404 
L 475.176179 229.3404 
L 473.676179 230.8404 
L 475.176179 232.3404 
L 473.676179 233.8404 
z
" clip-path="url(#pdf32b29972)" style="fill: #1f78b4; stroke: #ffffff; stroke-width: 0.48"/>
    <path d="M 468.191753 228.9468 
L 469.691753 227.4468 
L 471.191753 228.9468 
L 472.691753 227.4468 
L 471.191753 225.9468 
L 472.691753 224.4468 
L 471.191753 222.9468 
L 469.691753 224.4468 
L 468.191753 222.9468 
L 466.691753 224.4468 
L 468.191753 225.9468 
L 466.691753 227.4468 
z
" clip-path="url(#pdf32b29972)" style="fill: #1f78b4; stroke: #ffffff; stroke-width: 0.48"/>
    <path d="M 461.067639 227.9478 
L 462.567639 226.4478 
L 464.067639 227.9478 
L 465.567639 226.4478 
L 464.067639 224.9478 
L 465.567639 223.4478 
L 464.067639 221.9478 
L 462.567639 223.4478 
L 461.067639 221.9478 
L 459.567639 223.4478 
L 461.067639 224.9478 
L 459.567639 226.4478 
z
" clip-path="url(#pdf32b29972)" style="fill: #1f78b4; stroke: #ffffff; stroke-width: 0.48"/>
    <path d="M 454.153057 250.725 
L 455.653057 249.225 
L 457.153057 250.725 
L 458.653057 249.225 
L 457.153057 247.725 
L 458.653057 246.225 
L 457.153057 244.725 
L 455.653057 246.225 
L 454.153057 244.725 
L 452.653057 246.225 
L 454.153057 247.725 
L 452.653057 249.225 
z
" clip-path="url(#pdf32b29972)" style="fill: #1f78b4; stroke: #ffffff; stroke-width: 0.48"/>
    <path d="M 440.198175 294.681 
L 441.698175 293.181 
L 443.198175 294.681 
L 444.698175 293.181 
L 443.198175 291.681 
L 444.698175 290.181 
L 443.198175 288.681 
L 441.698175 290.181 
L 440.198175 288.681 
L 438.698175 290.181 
L 440.198175 291.681 
L 438.698175 293.181 
z
" clip-path="url(#pdf32b29972)" style="fill: #1f78b4; stroke: #ffffff; stroke-width: 0.48"/>
    <path d="M 433.143905 291.0846 
L 434.643905 289.5846 
L 436.143905 291.0846 
L 437.643905 289.5846 
L 436.143905 288.0846 
L 437.643905 286.5846 
L 436.143905 285.0846 
L 434.643905 286.5846 
L 433.143905 285.0846 
L 431.643905 286.5846 
L 433.143905 288.0846 
L 431.643905 289.5846 
z
" clip-path="url(#pdf32b29972)" style="fill: #1f78b4; stroke: #ffffff; stroke-width: 0.48"/>
    <path d="M 426.313136 261.5142 
L 427.813136 260.0142 
L 429.313136 261.5142 
L 430.813136 260.0142 
L 429.313136 258.5142 
L 430.813136 257.0142 
L 429.313136 255.5142 
L 427.813136 257.0142 
L 426.313136 255.5142 
L 424.813136 257.0142 
L 426.313136 258.5142 
L 424.813136 260.0142 
z
" clip-path="url(#pdf32b29972)" style="fill: #1f78b4; stroke: #ffffff; stroke-width: 0.48"/>
    <path d="M 419.45443 228.747 
L 420.95443 227.247 
L 422.45443 228.747 
L 423.95443 227.247 
L 422.45443 225.747 
L 423.95443 224.247 
L 422.45443 222.747 
L 420.95443 224.247 
L 419.45443 222.747 
L 417.95443 224.247 
L 419.45443 225.747 
L 417.95443 227.247 
z
" clip-path="url(#pdf32b29972)" style="fill: #1f78b4; stroke: #ffffff; stroke-width: 0.48"/>
    <path d="M 412.679537 67.908 
L 414.179537 66.408 
L 415.679537 67.908 
L 417.179537 66.408 
L 415.679537 64.908 
L 417.179537 63.408 
L 415.679537 61.908 
L 414.179537 63.408 
L 412.679537 61.908 
L 411.179537 63.408 
L 412.679537 64.908 
L 411.179537 66.408 
z
" clip-path="url(#pdf32b29972)" style="fill: #1f78b4; stroke: #ffffff; stroke-width: 0.48"/>
    <path d="M 405.695112 62.5134 
L 407.195112 61.0134 
L 408.695112 62.5134 
L 410.195112 61.0134 
L 408.695112 59.5134 
L 410.195112 58.0134 
L 408.695112 56.5134 
L 407.195112 58.0134 
L 405.695112 56.5134 
L 404.195112 58.0134 
L 405.695112 59.5134 
L 404.195112 61.0134 
z
" clip-path="url(#pdf32b29972)" style="fill: #1f78b4; stroke: #ffffff; stroke-width: 0.48"/>
   </g>
   <g id="PathCollection_2"/>
   <g id="PathCollection_3"/>
   <g id="line2d_30">
    <path d="M 85.324835 144.4284 
L 99.293686 124.848 
L 113.262538 133.4394 
L 141.200241 124.2486 
L 155.169092 117.4554 
L 162.153518 112.4604 
L 169.137944 111.4614 
L 176.12237 111.2616 
L 183.106795 111.0618 
L 190.091221 111.0618 
L 197.075647 111.0618 
L 204.060073 111.2616 
L 211.044498 111.6612 
L 218.028924 112.2606 
L 225.01335 112.86 
L 231.997776 113.4594 
L 238.982201 114.0588 
L 245.966627 114.4584 
L 252.951053 114.6582 
L 259.935479 114.6582 
L 266.919905 114.6582 
L 273.90433 114.4584 
L 280.888756 114.2586 
L 287.873182 113.2596 
L 294.857608 108.2646 
L 301.842033 104.4684 
L 308.826459 101.6712 
L 315.810885 98.874 
L 322.795311 95.2776 
L 329.779736 91.2816 
L 336.764162 92.2806 
L 343.748588 98.0748 
L 350.733014 100.872 
L 357.717439 89.0838 
L 364.701865 80.4924 
L 371.686291 73.4994 
L 378.670717 67.7052 
L 385.655142 63.1098 
L 392.639568 59.1138 
L 399.623994 55.3176 
L 406.60842 51.5214 
L 413.592846 48.924 
L 420.577271 46.5264 
L 427.561697 44.928 
L 434.546123 44.1288 
L 441.530549 43.7292 
L 455.4994 47.3256 
L 462.483826 53.3196 
L 469.468252 62.7102 
L 476.452677 75.897 
L 483.437103 93.879 
L 490.421529 118.2546 
" clip-path="url(#pdf32b29972)" style="fill: none; stroke: #808080; stroke-linecap: round"/>
   </g>
   <g id="line2d_31">
    <path d="M 182.953138 107.6652 
L 196.908021 108.6642 
L 210.918779 108.864 
L 225.01335 108.2646 
L 238.968233 108.4644 
L 253.132648 109.0638 
L 267.087531 108.864 
L 274.099894 108.6642 
L 281.042413 108.2646 
L 288.194465 106.6662 
L 295.06714 103.4694 
L 302.219192 99.2736 
L 309.147743 96.4764 
L 316.160106 94.2786 
L 323.17247 91.2816 
L 330.254677 89.2836 
L 337.183228 85.6872 
L 344.125747 82.6902 
L 351.207955 83.0898 
L 358.150474 80.4924 
L 365.218713 75.0978 
L 379.159627 65.3076 
L 393.212291 58.1148 
L 407.125267 60.5124 
L 421.149994 73.0998 
L 435.104877 92.88 
L 442.131209 109.4634 
L 449.003884 125.847 
L 455.722902 273.4992 
L 462.637483 269.1036 
L 469.552065 227.3454 
L 476.676179 229.3434 
L 483.590761 229.3434 
L 476.676179 232.3404 
L 469.691753 225.9468 
L 462.567639 224.9478 
L 455.653057 247.725 
L 441.698175 291.681 
L 434.643905 288.0846 
L 427.813136 258.5142 
L 420.95443 225.747 
L 414.179537 64.908 
L 407.195112 59.5134 
" clip-path="url(#pdf32b29972)" style="fill: none; stroke: #808080; stroke-linecap: round"/>
   </g>
   <g id="patch_3">
    <path d="M 65.07 312.66 
L 65.07 12.96 
" style="fill: none; stroke: #ffffff; stroke-width: 1.25; stroke-linejoin: miter; stroke-linecap: square"/>
   </g>
   <g id="patch_4">
    <path d="M 65.07 312.66 
L 510.676364 312.66 
" style="fill: none; stroke: #ffffff; stroke-width: 1.25; stroke-linejoin: miter; stroke-linecap: square"/>
   </g>
   <g id="legend_1">
    <g id="patch_5">
     <path d="M 72.77 52.879688 
L 175.216094 52.879688 
Q 177.416094 52.879688 177.416094 50.679688 
L 177.416094 20.66 
Q 177.416094 18.46 175.216094 18.46 
L 72.77 18.46 
Q 70.57 18.46 70.57 20.66 
L 70.57 50.679688 
Q 70.57 52.879688 72.77 52.879688 
z
" style="fill: #eaeaf2; opacity: 0.8; stroke: #cccccc; stroke-linejoin: miter"/>
    </g>
    <g id="PathCollection_4">
     <defs>
      <path id="maebb69245c" d="M 0 3 
C 0.795609 3 1.55874 2.683901 2.12132 2.12132 
C 2.683901 1.55874 3 0.795609 3 0 
C 3 -0.795609 2.683901 -1.55874 2.12132 -2.12132 
C 1.55874 -2.683901 0.795609 -3 0 -3 
C -0.795609 -3 -1.55874 -2.683901 -2.12132 -2.12132 
C -2.683901 -1.55874 -3 -0.795609 -3 0 
C -3 0.795609 -2.683901 1.55874 -2.12132 2.12132 
C -1.55874 2.683901 -0.795609 3 0 3 
z
" style="stroke: #a6cee3"/>
     </defs>
     <g>
      <use xlink:href="#maebb69245c" x="85.97" y="27.846094" style="fill: #a6cee3; stroke: #a6cee3"/>
     </g>
    </g>
    <g id="text_32">
     <!-- CFD -->
     <g style="fill: #262626" transform="translate(105.77 30.733594) scale(0.11 -0.11)">
      <defs>
       <path id="ArialMT-46" d="M 525 0 
L 525 4581 
L 3616 4581 
L 3616 4041 
L 1131 4041 
L 1131 2622 
L 3281 2622 
L 3281 2081 
L 1131 2081 
L 1131 0 
L 525 0 
z
" transform="scale(0.015625)"/>
       <path id="ArialMT-44" d="M 494 0 
L 494 4581 
L 2072 4581 
Q 2606 4581 2888 4516 
Q 3281 4425 3559 4188 
Q 3922 3881 4101 3404 
Q 4281 2928 4281 2316 
Q 4281 1794 4159 1391 
Q 4038 988 3847 723 
Q 3656 459 3429 307 
Q 3203 156 2883 78 
Q 2563 0 2147 0 
L 494 0 
z
M 1100 541 
L 2078 541 
Q 2531 541 2789 625 
Q 3047 709 3200 863 
Q 3416 1078 3536 1442 
Q 3656 1806 3656 2325 
Q 3656 3044 3420 3430 
Q 3184 3816 2847 3947 
Q 2603 4041 2063 4041 
L 1100 4041 
L 1100 541 
z
" transform="scale(0.015625)"/>
      </defs>
      <use xlink:href="#ArialMT-43"/>
      <use xlink:href="#ArialMT-46" x="72.216797"/>
      <use xlink:href="#ArialMT-44" x="133.300781"/>
     </g>
    </g>
    <g id="PathCollection_5">
     <defs>
      <path id="m89265ae8be" d="M -1.5 3 
L 0 1.5 
L 1.5 3 
L 3 1.5 
L 1.5 0 
L 3 -1.5 
L 1.5 -3 
L 0 -1.5 
L -1.5 -3 
L -3 -1.5 
L -1.5 0 
L -3 1.5 
z
" style="stroke: #1f78b4"/>
     </defs>
     <g>
      <use xlink:href="#m89265ae8be" x="85.97" y="43.405938" style="fill: #1f78b4; stroke: #1f78b4"/>
     </g>
    </g>
    <g id="text_33">
     <!-- Measurement -->
     <g style="fill: #262626" transform="translate(105.77 46.293438) scale(0.11 -0.11)">
      <defs>
       <path id="ArialMT-4d" d="M 475 0 
L 475 4581 
L 1388 4581 
L 2472 1338 
Q 2622 884 2691 659 
Q 2769 909 2934 1394 
L 4031 4581 
L 4847 4581 
L 4847 0 
L 4263 0 
L 4263 3834 
L 2931 0 
L 2384 0 
L 1059 3900 
L 1059 0 
L 475 0 
z
" transform="scale(0.015625)"/>
       <path id="ArialMT-65" d="M 2694 1069 
L 3275 997 
Q 3138 488 2766 206 
Q 2394 -75 1816 -75 
Q 1088 -75 661 373 
Q 234 822 234 1631 
Q 234 2469 665 2931 
Q 1097 3394 1784 3394 
Q 2450 3394 2872 2941 
Q 3294 2488 3294 1666 
Q 3294 1616 3291 1516 
L 816 1516 
Q 847 969 1125 678 
Q 1403 388 1819 388 
Q 2128 388 2347 550 
Q 2566 713 2694 1069 
z
M 847 1978 
L 2700 1978 
Q 2663 2397 2488 2606 
Q 2219 2931 1791 2931 
Q 1403 2931 1139 2672 
Q 875 2413 847 1978 
z
" transform="scale(0.015625)"/>
       <path id="ArialMT-61" d="M 2588 409 
Q 2275 144 1986 34 
Q 1697 -75 1366 -75 
Q 819 -75 525 192 
Q 231 459 231 875 
Q 231 1119 342 1320 
Q 453 1522 633 1644 
Q 813 1766 1038 1828 
Q 1203 1872 1538 1913 
Q 2219 1994 2541 2106 
Q 2544 2222 2544 2253 
Q 2544 2597 2384 2738 
Q 2169 2928 1744 2928 
Q 1347 2928 1158 2789 
Q 969 2650 878 2297 
L 328 2372 
Q 403 2725 575 2942 
Q 747 3159 1072 3276 
Q 1397 3394 1825 3394 
Q 2250 3394 2515 3294 
Q 2781 3194 2906 3042 
Q 3031 2891 3081 2659 
Q 3109 2516 3109 2141 
L 3109 1391 
Q 3109 606 3145 398 
Q 3181 191 3288 0 
L 2700 0 
Q 2613 175 2588 409 
z
M 2541 1666 
Q 2234 1541 1622 1453 
Q 1275 1403 1131 1340 
Q 988 1278 909 1158 
Q 831 1038 831 891 
Q 831 666 1001 516 
Q 1172 366 1500 366 
Q 1825 366 2078 508 
Q 2331 650 2450 897 
Q 2541 1088 2541 1459 
L 2541 1666 
z
" transform="scale(0.015625)"/>
       <path id="ArialMT-73" d="M 197 991 
L 753 1078 
Q 800 744 1014 566 
Q 1228 388 1613 388 
Q 2000 388 2187 545 
Q 2375 703 2375 916 
Q 2375 1106 2209 1216 
Q 2094 1291 1634 1406 
Q 1016 1563 777 1677 
Q 538 1791 414 1992 
Q 291 2194 291 2438 
Q 291 2659 392 2848 
Q 494 3038 669 3163 
Q 800 3259 1026 3326 
Q 1253 3394 1513 3394 
Q 1903 3394 2198 3281 
Q 2494 3169 2634 2976 
Q 2775 2784 2828 2463 
L 2278 2388 
Q 2241 2644 2061 2787 
Q 1881 2931 1553 2931 
Q 1166 2931 1000 2803 
Q 834 2675 834 2503 
Q 834 2394 903 2306 
Q 972 2216 1119 2156 
Q 1203 2125 1616 2013 
Q 2213 1853 2448 1751 
Q 2684 1650 2818 1456 
Q 2953 1263 2953 975 
Q 2953 694 2789 445 
Q 2625 197 2315 61 
Q 2006 -75 1616 -75 
Q 969 -75 630 194 
Q 291 463 197 991 
z
" transform="scale(0.015625)"/>
       <path id="ArialMT-75" d="M 2597 0 
L 2597 488 
Q 2209 -75 1544 -75 
Q 1250 -75 995 37 
Q 741 150 617 320 
Q 494 491 444 738 
Q 409 903 409 1263 
L 409 3319 
L 972 3319 
L 972 1478 
Q 972 1038 1006 884 
Q 1059 663 1231 536 
Q 1403 409 1656 409 
Q 1909 409 2131 539 
Q 2353 669 2445 892 
Q 2538 1116 2538 1541 
L 2538 3319 
L 3100 3319 
L 3100 0 
L 2597 0 
z
" transform="scale(0.015625)"/>
       <path id="ArialMT-72" d="M 416 0 
L 416 3319 
L 922 3319 
L 922 2816 
Q 1116 3169 1280 3281 
Q 1444 3394 1641 3394 
Q 1925 3394 2219 3213 
L 2025 2691 
Q 1819 2813 1613 2813 
Q 1428 2813 1281 2702 
Q 1134 2591 1072 2394 
Q 978 2094 978 1738 
L 978 0 
L 416 0 
z
" transform="scale(0.015625)"/>
       <path id="ArialMT-6e" d="M 422 0 
L 422 3319 
L 928 3319 
L 928 2847 
Q 1294 3394 1984 3394 
Q 2284 3394 2536 3286 
Q 2788 3178 2913 3003 
Q 3038 2828 3088 2588 
Q 3119 2431 3119 2041 
L 3119 0 
L 2556 0 
L 2556 2019 
Q 2556 2363 2490 2533 
Q 2425 2703 2258 2804 
Q 2091 2906 1866 2906 
Q 1506 2906 1245 2678 
Q 984 2450 984 1813 
L 984 0 
L 422 0 
z
" transform="scale(0.015625)"/>
       <path id="ArialMT-74" d="M 1650 503 
L 1731 6 
Q 1494 -44 1306 -44 
Q 1000 -44 831 53 
Q 663 150 594 308 
Q 525 466 525 972 
L 525 2881 
L 113 2881 
L 113 3319 
L 525 3319 
L 525 4141 
L 1084 4478 
L 1084 3319 
L 1650 3319 
L 1650 2881 
L 1084 2881 
L 1084 941 
Q 1084 700 1114 631 
Q 1144 563 1211 522 
Q 1278 481 1403 481 
Q 1497 481 1650 503 
z
" transform="scale(0.015625)"/>
      </defs>
      <use xlink:href="#ArialMT-4d"/>
      <use xlink:href="#ArialMT-65" x="83.300781"/>
      <use xlink:href="#ArialMT-61" x="138.916016"/>
      <use xlink:href="#ArialMT-73" x="194.53125"/>
      <use xlink:href="#ArialMT-75" x="244.53125"/>
      <use xlink:href="#ArialMT-72" x="300.146484"/>
      <use xlink:href="#ArialMT-65" x="333.447266"/>
      <use xlink:href="#ArialMT-6d" x="389.0625"/>
      <use xlink:href="#ArialMT-65" x="472.363281"/>
      <use xlink:href="#ArialMT-6e" x="527.978516"/>
      <use xlink:href="#ArialMT-74" x="583.59375"/>
     </g>
    </g>
   </g>
  </g>
 </g>
 <defs>
  <clipPath id="pdf32b29972">
   <rect x="65.07" y="12.96" width="445.606364" height="299.7"/>
  </clipPath>
 </defs>
</svg>
