<?xml version="1.0" encoding="utf-8" standalone="no"?>
<!DOCTYPE svg PUBLIC "-//W3C//DTD SVG 1.1//EN"
  "http://www.w3.org/Graphics/SVG/1.1/DTD/svg11.dtd">
<svg xmlns:xlink="http://www.w3.org/1999/xlink" width="523.636364pt" height="360pt" viewBox="0 0 523.636364 360" xmlns="http://www.w3.org/2000/svg" version="1.1">
 <metadata>
  <rdf:RDF xmlns:dc="http://purl.org/dc/elements/1.1/" xmlns:cc="http://creativecommons.org/ns#" xmlns:rdf="http://www.w3.org/1999/02/22-rdf-syntax-ns#">
   <cc:Work>
    <dc:type rdf:resource="http://purl.org/dc/dcmitype/StillImage"/>
    <dc:date>2022-12-18T12:35:50.425728</dc:date>
    <dc:format>image/svg+xml</dc:format>
    <dc:creator>
     <cc:Agent>
      <dc:title>Matplotlib v3.6.2, https://matplotlib.org/</dc:title>
     </cc:Agent>
    </dc:creator>
   </cc:Work>
  </rdf:RDF>
 </metadata>
 <defs>
  <style type="text/css">*{stroke-linejoin: round; stroke-linecap: butt}</style>
 </defs>
 <g id="figure_1">
  <g id="patch_1">
   <path d="M 0 360 
L 523.636364 360 
L 523.636364 0 
L 0 0 
z
" style="fill: #ffffff"/>
  </g>
  <g id="axes_1">
   <g id="patch_2">
    <path d="M 58.77 312.66 
L 510.676364 312.66 
L 510.676364 12.96 
L 58.77 12.96 
z
" style="fill: #eaeaf2"/>
   </g>
   <g id="matplotlib.axis_1">
    <g id="xtick_1">
     <g id="line2d_1">
      <path d="M 79.311198 312.66 
L 79.311198 12.96 
" clip-path="url(#pab345e108a)" style="fill: none; stroke: #ffffff; stroke-linecap: round"/>
     </g>
     <g id="text_1">
      <!-- −10.0 -->
      <g style="fill: #262626" transform="translate(65.395339 330.033594) scale(0.11 -0.11)">
       <defs>
        <path id="ArialMT-2212" d="M 3381 1997 
L 356 1997 
L 356 2522 
L 3381 2522 
L 3381 1997 
z
" transform="scale(0.015625)"/>
        <path id="ArialMT-31" d="M 2384 0 
L 1822 0 
L 1822 3584 
Q 1619 3391 1289 3197 
Q 959 3003 697 2906 
L 697 3450 
Q 1169 3672 1522 3987 
Q 1875 4303 2022 4600 
L 2384 4600 
L 2384 0 
z
" transform="scale(0.015625)"/>
        <path id="ArialMT-30" d="M 266 2259 
Q 266 3072 433 3567 
Q 600 4063 929 4331 
Q 1259 4600 1759 4600 
Q 2128 4600 2406 4451 
Q 2684 4303 2865 4023 
Q 3047 3744 3150 3342 
Q 3253 2941 3253 2259 
Q 3253 1453 3087 958 
Q 2922 463 2592 192 
Q 2263 -78 1759 -78 
Q 1097 -78 719 397 
Q 266 969 266 2259 
z
M 844 2259 
Q 844 1131 1108 757 
Q 1372 384 1759 384 
Q 2147 384 2411 759 
Q 2675 1134 2675 2259 
Q 2675 3391 2411 3762 
Q 2147 4134 1753 4134 
Q 1366 4134 1134 3806 
Q 844 3388 844 2259 
z
" transform="scale(0.015625)"/>
        <path id="ArialMT-2e" d="M 581 0 
L 581 641 
L 1222 641 
L 1222 0 
L 581 0 
z
" transform="scale(0.015625)"/>
       </defs>
       <use xlink:href="#ArialMT-2212"/>
       <use xlink:href="#ArialMT-31" x="58.398438"/>
       <use xlink:href="#ArialMT-30" x="114.013672"/>
       <use xlink:href="#ArialMT-2e" x="169.628906"/>
       <use xlink:href="#ArialMT-30" x="197.412109"/>
      </g>
     </g>
    </g>
    <g id="xtick_2">
     <g id="line2d_2">
      <path d="M 114.727058 312.66 
L 114.727058 12.96 
" clip-path="url(#pab345e108a)" style="fill: none; stroke: #ffffff; stroke-linecap: round"/>
     </g>
     <g id="text_2">
      <!-- −7.5 -->
      <g style="fill: #262626" transform="translate(103.869714 330.033594) scale(0.11 -0.11)">
       <defs>
        <path id="ArialMT-37" d="M 303 3981 
L 303 4522 
L 3269 4522 
L 3269 4084 
Q 2831 3619 2401 2847 
Q 1972 2075 1738 1259 
Q 1569 684 1522 0 
L 944 0 
Q 953 541 1156 1306 
Q 1359 2072 1739 2783 
Q 2119 3494 2547 3981 
L 303 3981 
z
" transform="scale(0.015625)"/>
        <path id="ArialMT-35" d="M 266 1200 
L 856 1250 
Q 922 819 1161 601 
Q 1400 384 1738 384 
Q 2144 384 2425 690 
Q 2706 997 2706 1503 
Q 2706 1984 2436 2262 
Q 2166 2541 1728 2541 
Q 1456 2541 1237 2417 
Q 1019 2294 894 2097 
L 366 2166 
L 809 4519 
L 3088 4519 
L 3088 3981 
L 1259 3981 
L 1013 2750 
Q 1425 3038 1878 3038 
Q 2478 3038 2890 2622 
Q 3303 2206 3303 1553 
Q 3303 931 2941 478 
Q 2500 -78 1738 -78 
Q 1113 -78 717 272 
Q 322 622 266 1200 
z
" transform="scale(0.015625)"/>
       </defs>
       <use xlink:href="#ArialMT-2212"/>
       <use xlink:href="#ArialMT-37" x="58.398438"/>
       <use xlink:href="#ArialMT-2e" x="114.013672"/>
       <use xlink:href="#ArialMT-35" x="141.796875"/>
      </g>
     </g>
    </g>
    <g id="xtick_3">
     <g id="line2d_3">
      <path d="M 150.142917 312.66 
L 150.142917 12.96 
" clip-path="url(#pab345e108a)" style="fill: none; stroke: #ffffff; stroke-linecap: round"/>
     </g>
     <g id="text_3">
      <!-- −5.0 -->
      <g style="fill: #262626" transform="translate(139.285573 330.033594) scale(0.11 -0.11)">
       <use xlink:href="#ArialMT-2212"/>
       <use xlink:href="#ArialMT-35" x="58.398438"/>
       <use xlink:href="#ArialMT-2e" x="114.013672"/>
       <use xlink:href="#ArialMT-30" x="141.796875"/>
      </g>
     </g>
    </g>
    <g id="xtick_4">
     <g id="line2d_4">
      <path d="M 185.558776 312.66 
L 185.558776 12.96 
" clip-path="url(#pab345e108a)" style="fill: none; stroke: #ffffff; stroke-linecap: round"/>
     </g>
     <g id="text_4">
      <!-- −2.5 -->
      <g style="fill: #262626" transform="translate(174.701432 330.033594) scale(0.11 -0.11)">
       <defs>
        <path id="ArialMT-32" d="M 3222 541 
L 3222 0 
L 194 0 
Q 188 203 259 391 
Q 375 700 629 1000 
Q 884 1300 1366 1694 
Q 2113 2306 2375 2664 
Q 2638 3022 2638 3341 
Q 2638 3675 2398 3904 
Q 2159 4134 1775 4134 
Q 1369 4134 1125 3890 
Q 881 3647 878 3216 
L 300 3275 
Q 359 3922 746 4261 
Q 1134 4600 1788 4600 
Q 2447 4600 2831 4234 
Q 3216 3869 3216 3328 
Q 3216 3053 3103 2787 
Q 2991 2522 2730 2228 
Q 2469 1934 1863 1422 
Q 1356 997 1212 845 
Q 1069 694 975 541 
L 3222 541 
z
" transform="scale(0.015625)"/>
       </defs>
       <use xlink:href="#ArialMT-2212"/>
       <use xlink:href="#ArialMT-32" x="58.398438"/>
       <use xlink:href="#ArialMT-2e" x="114.013672"/>
       <use xlink:href="#ArialMT-35" x="141.796875"/>
      </g>
     </g>
    </g>
    <g id="xtick_5">
     <g id="line2d_5">
      <path d="M 220.974635 312.66 
L 220.974635 12.96 
" clip-path="url(#pab345e108a)" style="fill: none; stroke: #ffffff; stroke-linecap: round"/>
     </g>
     <g id="text_5">
      <!-- 0.0 -->
      <g style="fill: #262626" transform="translate(213.329635 330.033594) scale(0.11 -0.11)">
       <use xlink:href="#ArialMT-30"/>
       <use xlink:href="#ArialMT-2e" x="55.615234"/>
       <use xlink:href="#ArialMT-30" x="83.398438"/>
      </g>
     </g>
    </g>
    <g id="xtick_6">
     <g id="line2d_6">
      <path d="M 256.390494 312.66 
L 256.390494 12.96 
" clip-path="url(#pab345e108a)" style="fill: none; stroke: #ffffff; stroke-linecap: round"/>
     </g>
     <g id="text_6">
      <!-- 2.5 -->
      <g style="fill: #262626" transform="translate(248.745494 330.033594) scale(0.11 -0.11)">
       <use xlink:href="#ArialMT-32"/>
       <use xlink:href="#ArialMT-2e" x="55.615234"/>
       <use xlink:href="#ArialMT-35" x="83.398438"/>
      </g>
     </g>
    </g>
    <g id="xtick_7">
     <g id="line2d_7">
      <path d="M 291.806354 312.66 
L 291.806354 12.96 
" clip-path="url(#pab345e108a)" style="fill: none; stroke: #ffffff; stroke-linecap: round"/>
     </g>
     <g id="text_7">
      <!-- 5.0 -->
      <g style="fill: #262626" transform="translate(284.161354 330.033594) scale(0.11 -0.11)">
       <use xlink:href="#ArialMT-35"/>
       <use xlink:href="#ArialMT-2e" x="55.615234"/>
       <use xlink:href="#ArialMT-30" x="83.398438"/>
      </g>
     </g>
    </g>
    <g id="xtick_8">
     <g id="line2d_8">
      <path d="M 327.222213 312.66 
L 327.222213 12.96 
" clip-path="url(#pab345e108a)" style="fill: none; stroke: #ffffff; stroke-linecap: round"/>
     </g>
     <g id="text_8">
      <!-- 7.5 -->
      <g style="fill: #262626" transform="translate(319.577213 330.033594) scale(0.11 -0.11)">
       <use xlink:href="#ArialMT-37"/>
       <use xlink:href="#ArialMT-2e" x="55.615234"/>
       <use xlink:href="#ArialMT-35" x="83.398438"/>
      </g>
     </g>
    </g>
    <g id="xtick_9">
     <g id="line2d_9">
      <path d="M 362.638072 312.66 
L 362.638072 12.96 
" clip-path="url(#pab345e108a)" style="fill: none; stroke: #ffffff; stroke-linecap: round"/>
     </g>
     <g id="text_9">
      <!-- 10.0 -->
      <g style="fill: #262626" transform="translate(351.934556 330.033594) scale(0.11 -0.11)">
       <use xlink:href="#ArialMT-31"/>
       <use xlink:href="#ArialMT-30" x="55.615234"/>
       <use xlink:href="#ArialMT-2e" x="111.230469"/>
       <use xlink:href="#ArialMT-30" x="139.013672"/>
      </g>
     </g>
    </g>
    <g id="xtick_10">
     <g id="line2d_10">
      <path d="M 398.053931 312.66 
L 398.053931 12.96 
" clip-path="url(#pab345e108a)" style="fill: none; stroke: #ffffff; stroke-linecap: round"/>
     </g>
     <g id="text_10">
      <!-- 12.5 -->
      <g style="fill: #262626" transform="translate(387.350416 330.033594) scale(0.11 -0.11)">
       <use xlink:href="#ArialMT-31"/>
       <use xlink:href="#ArialMT-32" x="55.615234"/>
       <use xlink:href="#ArialMT-2e" x="111.230469"/>
       <use xlink:href="#ArialMT-35" x="139.013672"/>
      </g>
     </g>
    </g>
    <g id="xtick_11">
     <g id="line2d_11">
      <path d="M 433.469791 312.66 
L 433.469791 12.96 
" clip-path="url(#pab345e108a)" style="fill: none; stroke: #ffffff; stroke-linecap: round"/>
     </g>
     <g id="text_11">
      <!-- 15.0 -->
      <g style="fill: #262626" transform="translate(422.766275 330.033594) scale(0.11 -0.11)">
       <use xlink:href="#ArialMT-31"/>
       <use xlink:href="#ArialMT-35" x="55.615234"/>
       <use xlink:href="#ArialMT-2e" x="111.230469"/>
       <use xlink:href="#ArialMT-30" x="139.013672"/>
      </g>
     </g>
    </g>
    <g id="xtick_12">
     <g id="line2d_12">
      <path d="M 468.88565 312.66 
L 468.88565 12.96 
" clip-path="url(#pab345e108a)" style="fill: none; stroke: #ffffff; stroke-linecap: round"/>
     </g>
     <g id="text_12">
      <!-- 17.5 -->
      <g style="fill: #262626" transform="translate(458.182134 330.033594) scale(0.11 -0.11)">
       <use xlink:href="#ArialMT-31"/>
       <use xlink:href="#ArialMT-37" x="55.615234"/>
       <use xlink:href="#ArialMT-2e" x="111.230469"/>
       <use xlink:href="#ArialMT-35" x="139.013672"/>
      </g>
     </g>
    </g>
    <g id="text_13">
     <!-- α [°] -->
     <g style="fill: #262626" transform="translate(273.854744 344.955469) scale(0.12 -0.12)">
      <defs>
       <path id="ArialMT-3b1" d="M 2884 3319 
L 3459 3319 
Q 3241 2631 3056 1659 
Q 3275 453 3459 0 
L 2900 0 
Q 2766 313 2697 606 
Q 2438 -75 1613 -75 
Q 988 -75 606 394 
Q 225 863 225 1666 
Q 225 2491 608 2942 
Q 991 3394 1622 3394 
Q 2013 3394 2259 3236 
Q 2506 3078 2719 2756 
Q 2741 2866 2884 3319 
z
M 1716 2928 
Q 1313 2928 1078 2603 
Q 844 2278 844 1666 
Q 844 1069 1066 728 
Q 1288 388 1684 388 
Q 2072 388 2331 723 
Q 2591 1059 2591 1691 
Q 2591 2303 2348 2615 
Q 2106 2928 1716 2928 
z
" transform="scale(0.015625)"/>
       <path id="ArialMT-20" transform="scale(0.015625)"/>
       <path id="ArialMT-5b" d="M 434 -1272 
L 434 4581 
L 1675 4581 
L 1675 4116 
L 997 4116 
L 997 -806 
L 1675 -806 
L 1675 -1272 
L 434 -1272 
z
" transform="scale(0.015625)"/>
       <path id="ArialMT-b0" d="M 400 3794 
Q 400 4153 654 4406 
Q 909 4659 1266 4659 
Q 1628 4659 1881 4406 
Q 2134 4153 2134 3794 
Q 2134 3434 1879 3179 
Q 1625 2925 1266 2925 
Q 909 2925 654 3178 
Q 400 3431 400 3794 
z
M 741 3794 
Q 741 3575 895 3420 
Q 1050 3266 1269 3266 
Q 1484 3266 1639 3420 
Q 1794 3575 1794 3794 
Q 1794 4013 1639 4167 
Q 1484 4322 1269 4322 
Q 1050 4322 895 4167 
Q 741 4013 741 3794 
z
" transform="scale(0.015625)"/>
       <path id="ArialMT-5d" d="M 1363 -1272 
L 122 -1272 
L 122 -806 
L 800 -806 
L 800 4116 
L 122 4116 
L 122 4581 
L 1363 4581 
L 1363 -1272 
z
" transform="scale(0.015625)"/>
      </defs>
      <use xlink:href="#ArialMT-3b1"/>
      <use xlink:href="#ArialMT-20" x="57.8125"/>
      <use xlink:href="#ArialMT-5b" x="85.595703"/>
      <use xlink:href="#ArialMT-b0" x="113.378906"/>
      <use xlink:href="#ArialMT-5d" x="153.369141"/>
     </g>
    </g>
   </g>
   <g id="matplotlib.axis_2">
    <g id="ytick_1">
     <g id="line2d_13">
      <path d="M 58.77 312.66 
L 510.676364 312.66 
" clip-path="url(#pab345e108a)" style="fill: none; stroke: #ffffff; stroke-linecap: round"/>
     </g>
     <g id="text_14">
      <!-- −0.05 -->
      <g style="fill: #262626" transform="translate(21.438281 316.596797) scale(0.11 -0.11)">
       <use xlink:href="#ArialMT-2212"/>
       <use xlink:href="#ArialMT-30" x="58.398438"/>
       <use xlink:href="#ArialMT-2e" x="114.013672"/>
       <use xlink:href="#ArialMT-30" x="141.796875"/>
       <use xlink:href="#ArialMT-35" x="197.412109"/>
      </g>
     </g>
    </g>
    <g id="ytick_2">
     <g id="line2d_14">
      <path d="M 58.77 273.631496 
L 510.676364 273.631496 
" clip-path="url(#pab345e108a)" style="fill: none; stroke: #ffffff; stroke-linecap: round"/>
     </g>
     <g id="text_15">
      <!-- 0.00 -->
      <g style="fill: #262626" transform="translate(27.862969 277.568293) scale(0.11 -0.11)">
       <use xlink:href="#ArialMT-30"/>
       <use xlink:href="#ArialMT-2e" x="55.615234"/>
       <use xlink:href="#ArialMT-30" x="83.398438"/>
       <use xlink:href="#ArialMT-30" x="139.013672"/>
      </g>
     </g>
    </g>
    <g id="ytick_3">
     <g id="line2d_15">
      <path d="M 58.77 234.602992 
L 510.676364 234.602992 
" clip-path="url(#pab345e108a)" style="fill: none; stroke: #ffffff; stroke-linecap: round"/>
     </g>
     <g id="text_16">
      <!-- 0.05 -->
      <g style="fill: #262626" transform="translate(27.862969 238.539789) scale(0.11 -0.11)">
       <use xlink:href="#ArialMT-30"/>
       <use xlink:href="#ArialMT-2e" x="55.615234"/>
       <use xlink:href="#ArialMT-30" x="83.398438"/>
       <use xlink:href="#ArialMT-35" x="139.013672"/>
      </g>
     </g>
    </g>
    <g id="ytick_4">
     <g id="line2d_16">
      <path d="M 58.77 195.574488 
L 510.676364 195.574488 
" clip-path="url(#pab345e108a)" style="fill: none; stroke: #ffffff; stroke-linecap: round"/>
     </g>
     <g id="text_17">
      <!-- 0.10 -->
      <g style="fill: #262626" transform="translate(27.862969 199.511285) scale(0.11 -0.11)">
       <use xlink:href="#ArialMT-30"/>
       <use xlink:href="#ArialMT-2e" x="55.615234"/>
       <use xlink:href="#ArialMT-31" x="83.398438"/>
       <use xlink:href="#ArialMT-30" x="139.013672"/>
      </g>
     </g>
    </g>
    <g id="ytick_5">
     <g id="line2d_17">
      <path d="M 58.77 156.545984 
L 510.676364 156.545984 
" clip-path="url(#pab345e108a)" style="fill: none; stroke: #ffffff; stroke-linecap: round"/>
     </g>
     <g id="text_18">
      <!-- 0.15 -->
      <g style="fill: #262626" transform="translate(27.862969 160.482781) scale(0.11 -0.11)">
       <use xlink:href="#ArialMT-30"/>
       <use xlink:href="#ArialMT-2e" x="55.615234"/>
       <use xlink:href="#ArialMT-31" x="83.398438"/>
       <use xlink:href="#ArialMT-35" x="139.013672"/>
      </g>
     </g>
    </g>
    <g id="ytick_6">
     <g id="line2d_18">
      <path d="M 58.77 117.51748 
L 510.676364 117.51748 
" clip-path="url(#pab345e108a)" style="fill: none; stroke: #ffffff; stroke-linecap: round"/>
     </g>
     <g id="text_19">
      <!-- 0.20 -->
      <g style="fill: #262626" transform="translate(27.862969 121.454276) scale(0.11 -0.11)">
       <use xlink:href="#ArialMT-30"/>
       <use xlink:href="#ArialMT-2e" x="55.615234"/>
       <use xlink:href="#ArialMT-32" x="83.398438"/>
       <use xlink:href="#ArialMT-30" x="139.013672"/>
      </g>
     </g>
    </g>
    <g id="ytick_7">
     <g id="line2d_19">
      <path d="M 58.77 78.488975 
L 510.676364 78.488975 
" clip-path="url(#pab345e108a)" style="fill: none; stroke: #ffffff; stroke-linecap: round"/>
     </g>
     <g id="text_20">
      <!-- 0.25 -->
      <g style="fill: #262626" transform="translate(27.862969 82.425772) scale(0.11 -0.11)">
       <use xlink:href="#ArialMT-30"/>
       <use xlink:href="#ArialMT-2e" x="55.615234"/>
       <use xlink:href="#ArialMT-32" x="83.398438"/>
       <use xlink:href="#ArialMT-35" x="139.013672"/>
      </g>
     </g>
    </g>
    <g id="ytick_8">
     <g id="line2d_20">
      <path d="M 58.77 39.460471 
L 510.676364 39.460471 
" clip-path="url(#pab345e108a)" style="fill: none; stroke: #ffffff; stroke-linecap: round"/>
     </g>
     <g id="text_21">
      <!-- 0.30 -->
      <g style="fill: #262626" transform="translate(27.862969 43.397268) scale(0.11 -0.11)">
       <defs>
        <path id="ArialMT-33" d="M 269 1209 
L 831 1284 
Q 928 806 1161 595 
Q 1394 384 1728 384 
Q 2125 384 2398 659 
Q 2672 934 2672 1341 
Q 2672 1728 2419 1979 
Q 2166 2231 1775 2231 
Q 1616 2231 1378 2169 
L 1441 2663 
Q 1497 2656 1531 2656 
Q 1891 2656 2178 2843 
Q 2466 3031 2466 3422 
Q 2466 3731 2256 3934 
Q 2047 4138 1716 4138 
Q 1388 4138 1169 3931 
Q 950 3725 888 3313 
L 325 3413 
Q 428 3978 793 4289 
Q 1159 4600 1703 4600 
Q 2078 4600 2393 4439 
Q 2709 4278 2876 4000 
Q 3044 3722 3044 3409 
Q 3044 3113 2884 2869 
Q 2725 2625 2413 2481 
Q 2819 2388 3044 2092 
Q 3269 1797 3269 1353 
Q 3269 753 2831 336 
Q 2394 -81 1725 -81 
Q 1122 -81 723 278 
Q 325 638 269 1209 
z
" transform="scale(0.015625)"/>
       </defs>
       <use xlink:href="#ArialMT-30"/>
       <use xlink:href="#ArialMT-2e" x="55.615234"/>
       <use xlink:href="#ArialMT-33" x="83.398438"/>
       <use xlink:href="#ArialMT-30" x="139.013672"/>
      </g>
     </g>
    </g>
    <g id="text_22">
     <!-- Cd [-] -->
     <g style="fill: #262626" transform="translate(15.053281 177.478125) rotate(-90) scale(0.12 -0.12)">
      <defs>
       <path id="ArialMT-43" d="M 3763 1606 
L 4369 1453 
Q 4178 706 3683 314 
Q 3188 -78 2472 -78 
Q 1731 -78 1267 223 
Q 803 525 561 1097 
Q 319 1669 319 2325 
Q 319 3041 592 3573 
Q 866 4106 1370 4382 
Q 1875 4659 2481 4659 
Q 3169 4659 3637 4309 
Q 4106 3959 4291 3325 
L 3694 3184 
Q 3534 3684 3231 3912 
Q 2928 4141 2469 4141 
Q 1941 4141 1586 3887 
Q 1231 3634 1087 3207 
Q 944 2781 944 2328 
Q 944 1744 1114 1308 
Q 1284 872 1643 656 
Q 2003 441 2422 441 
Q 2931 441 3284 734 
Q 3638 1028 3763 1606 
z
" transform="scale(0.015625)"/>
       <path id="ArialMT-64" d="M 2575 0 
L 2575 419 
Q 2259 -75 1647 -75 
Q 1250 -75 917 144 
Q 584 363 401 755 
Q 219 1147 219 1656 
Q 219 2153 384 2558 
Q 550 2963 881 3178 
Q 1213 3394 1622 3394 
Q 1922 3394 2156 3267 
Q 2391 3141 2538 2938 
L 2538 4581 
L 3097 4581 
L 3097 0 
L 2575 0 
z
M 797 1656 
Q 797 1019 1065 703 
Q 1334 388 1700 388 
Q 2069 388 2326 689 
Q 2584 991 2584 1609 
Q 2584 2291 2321 2609 
Q 2059 2928 1675 2928 
Q 1300 2928 1048 2622 
Q 797 2316 797 1656 
z
" transform="scale(0.015625)"/>
       <path id="ArialMT-2d" d="M 203 1375 
L 203 1941 
L 1931 1941 
L 1931 1375 
L 203 1375 
z
" transform="scale(0.015625)"/>
      </defs>
      <use xlink:href="#ArialMT-43"/>
      <use xlink:href="#ArialMT-64" x="72.216797"/>
      <use xlink:href="#ArialMT-20" x="127.832031"/>
      <use xlink:href="#ArialMT-5b" x="155.615234"/>
      <use xlink:href="#ArialMT-2d" x="183.398438"/>
      <use xlink:href="#ArialMT-5d" x="216.699219"/>
     </g>
    </g>
   </g>
   <g id="PolyCollection_1"/>
   <g id="PathCollection_1">
    <path d="M 79.311198 262.347063 
C 80.106808 262.347063 80.869938 262.030964 81.432519 261.468384 
C 81.995099 260.905803 82.311198 260.142673 82.311198 259.347063 
C 82.311198 258.551454 81.995099 257.788324 81.432519 257.225743 
C 80.869938 256.663162 80.106808 256.347063 79.311198 256.347063 
C 78.515589 256.347063 77.752459 256.663162 77.189878 257.225743 
C 76.627297 257.788324 76.311198 258.551454 76.311198 259.347063 
C 76.311198 260.142673 76.627297 260.905803 77.189878 261.468384 
C 77.752459 262.030964 78.515589 262.347063 79.311198 262.347063 
z
" clip-path="url(#pab345e108a)" style="fill: #a6cee3; stroke: #ffffff; stroke-width: 0.48"/>
    <path d="M 93.477542 263.923815 
C 94.273151 263.923815 95.036282 263.607716 95.598862 263.045135 
C 96.161443 262.482555 96.477542 261.719424 96.477542 260.923815 
C 96.477542 260.128206 96.161443 259.365075 95.598862 258.802495 
C 95.036282 258.239914 94.273151 257.923815 93.477542 257.923815 
C 92.681933 257.923815 91.918802 258.239914 91.356222 258.802495 
C 90.793641 259.365075 90.477542 260.128206 90.477542 260.923815 
C 90.477542 261.719424 90.793641 262.482555 91.356222 263.045135 
C 91.918802 263.607716 92.681933 263.923815 93.477542 263.923815 
z
" clip-path="url(#pab345e108a)" style="fill: #a6cee3; stroke: #ffffff; stroke-width: 0.48"/>
    <path d="M 107.643886 265.76596 
C 108.439495 265.76596 109.202625 265.449861 109.765206 264.887281 
C 110.327787 264.3247 110.643886 263.56157 110.643886 262.76596 
C 110.643886 261.970351 110.327787 261.207221 109.765206 260.64464 
C 109.202625 260.082059 108.439495 259.76596 107.643886 259.76596 
C 106.848276 259.76596 106.085146 260.082059 105.522565 260.64464 
C 104.959985 261.207221 104.643886 261.970351 104.643886 262.76596 
C 104.643886 263.56157 104.959985 264.3247 105.522565 264.887281 
C 106.085146 265.449861 106.848276 265.76596 107.643886 265.76596 
z
" clip-path="url(#pab345e108a)" style="fill: #a6cee3; stroke: #ffffff; stroke-width: 0.48"/>
    <path d="M 135.976573 268.115476 
C 136.772182 268.115476 137.535313 267.799377 138.097893 267.236797 
C 138.660474 266.674216 138.976573 265.911086 138.976573 265.115476 
C 138.976573 264.319867 138.660474 263.556737 138.097893 262.994156 
C 137.535313 262.431575 136.772182 262.115476 135.976573 262.115476 
C 135.180964 262.115476 134.417833 262.431575 133.855253 262.994156 
C 133.292672 263.556737 132.976573 264.319867 132.976573 265.115476 
C 132.976573 265.911086 133.292672 266.674216 133.855253 267.236797 
C 134.417833 267.799377 135.180964 268.115476 135.976573 268.115476 
z
" clip-path="url(#pab345e108a)" style="fill: #a6cee3; stroke: #ffffff; stroke-width: 0.48"/>
    <path d="M 150.142917 269.785896 
C 150.938526 269.785896 151.701656 269.469797 152.264237 268.907217 
C 152.826818 268.344636 153.142917 267.581506 153.142917 266.785896 
C 153.142917 265.990287 152.826818 265.227157 152.264237 264.664576 
C 151.701656 264.101995 150.938526 263.785896 150.142917 263.785896 
C 149.347307 263.785896 148.584177 264.101995 148.021596 264.664576 
C 147.459016 265.227157 147.142917 265.990287 147.142917 266.785896 
C 147.142917 267.581506 147.459016 268.344636 148.021596 268.907217 
C 148.584177 269.469797 149.347307 269.785896 150.142917 269.785896 
z
" clip-path="url(#pab345e108a)" style="fill: #a6cee3; stroke: #ffffff; stroke-width: 0.48"/>
    <path d="M 157.226089 270.917723 
C 158.021698 270.917723 158.784828 270.601624 159.347409 270.039043 
C 159.90999 269.476463 160.226089 268.713332 160.226089 267.917723 
C 160.226089 267.122114 159.90999 266.358983 159.347409 265.796403 
C 158.784828 265.233822 158.021698 264.917723 157.226089 264.917723 
C 156.430479 264.917723 155.667349 265.233822 155.104768 265.796403 
C 154.542188 266.358983 154.226089 267.122114 154.226089 267.917723 
C 154.226089 268.713332 154.542188 269.476463 155.104768 270.039043 
C 155.667349 270.601624 156.430479 270.917723 157.226089 270.917723 
z
" clip-path="url(#pab345e108a)" style="fill: #a6cee3; stroke: #ffffff; stroke-width: 0.48"/>
    <path d="M 164.30926 271.144088 
C 165.10487 271.144088 165.868 270.827989 166.430581 270.265409 
C 166.993162 269.702828 167.30926 268.939698 167.30926 268.144088 
C 167.30926 267.348479 166.993162 266.585349 166.430581 266.022768 
C 165.868 265.460187 165.10487 265.144088 164.30926 265.144088 
C 163.513651 265.144088 162.750521 265.460187 162.18794 266.022768 
C 161.625359 266.585349 161.30926 267.348479 161.30926 268.144088 
C 161.30926 268.939698 161.625359 269.702828 162.18794 270.265409 
C 162.750521 270.827989 163.513651 271.144088 164.30926 271.144088 
z
" clip-path="url(#pab345e108a)" style="fill: #a6cee3; stroke: #ffffff; stroke-width: 0.48"/>
    <path d="M 171.392432 271.237757 
C 172.188042 271.237757 172.951172 270.921658 173.513753 270.359077 
C 174.076333 269.796496 174.392432 269.033366 174.392432 268.237757 
C 174.392432 267.442147 174.076333 266.679017 173.513753 266.116436 
C 172.951172 265.553856 172.188042 265.237757 171.392432 265.237757 
C 170.596823 265.237757 169.833693 265.553856 169.271112 266.116436 
C 168.708531 266.679017 168.392432 267.442147 168.392432 268.237757 
C 168.392432 269.033366 168.708531 269.796496 169.271112 270.359077 
C 169.833693 270.921658 170.596823 271.237757 171.392432 271.237757 
z
" clip-path="url(#pab345e108a)" style="fill: #a6cee3; stroke: #ffffff; stroke-width: 0.48"/>
    <path d="M 178.475604 271.308008 
C 179.271213 271.308008 180.034344 270.991909 180.596925 270.429328 
C 181.159505 269.866748 181.475604 269.103617 181.475604 268.308008 
C 181.475604 267.512399 181.159505 266.749268 180.596925 266.186688 
C 180.034344 265.624107 179.271213 265.308008 178.475604 265.308008 
C 177.679995 265.308008 176.916865 265.624107 176.354284 266.186688 
C 175.791703 266.749268 175.475604 267.512399 175.475604 268.308008 
C 175.475604 269.103617 175.791703 269.866748 176.354284 270.429328 
C 176.916865 270.991909 177.679995 271.308008 178.475604 271.308008 
z
" clip-path="url(#pab345e108a)" style="fill: #a6cee3; stroke: #ffffff; stroke-width: 0.48"/>
    <path d="M 185.558776 271.354842 
C 186.354385 271.354842 187.117516 271.038743 187.680096 270.476162 
C 188.242677 269.913582 188.558776 269.150451 188.558776 268.354842 
C 188.558776 267.559233 188.242677 266.796103 187.680096 266.233522 
C 187.117516 265.670941 186.354385 265.354842 185.558776 265.354842 
C 184.763167 265.354842 184.000036 265.670941 183.437456 266.233522 
C 182.874875 266.796103 182.558776 267.559233 182.558776 268.354842 
C 182.558776 269.150451 182.874875 269.913582 183.437456 270.476162 
C 184.000036 271.038743 184.763167 271.354842 185.558776 271.354842 
z
" clip-path="url(#pab345e108a)" style="fill: #a6cee3; stroke: #ffffff; stroke-width: 0.48"/>
    <path d="M 192.641948 271.401676 
C 193.437557 271.401676 194.200687 271.085577 194.763268 270.522997 
C 195.325849 269.960416 195.641948 269.197286 195.641948 268.401676 
C 195.641948 267.606067 195.325849 266.842937 194.763268 266.280356 
C 194.200687 265.717775 193.437557 265.401676 192.641948 265.401676 
C 191.846339 265.401676 191.083208 265.717775 190.520628 266.280356 
C 189.958047 266.842937 189.641948 267.606067 189.641948 268.401676 
C 189.641948 269.197286 189.958047 269.960416 190.520628 270.522997 
C 191.083208 271.085577 191.846339 271.401676 192.641948 271.401676 
z
" clip-path="url(#pab345e108a)" style="fill: #a6cee3; stroke: #ffffff; stroke-width: 0.48"/>
    <path d="M 199.72512 271.425093 
C 200.520729 271.425093 201.283859 271.108995 201.84644 270.546414 
C 202.409021 269.983833 202.72512 269.220703 202.72512 268.425093 
C 202.72512 267.629484 202.409021 266.866354 201.84644 266.303773 
C 201.283859 265.741192 200.520729 265.425093 199.72512 265.425093 
C 198.92951 265.425093 198.16638 265.741192 197.603799 266.303773 
C 197.041219 266.866354 196.72512 267.629484 196.72512 268.425093 
C 196.72512 269.220703 197.041219 269.983833 197.603799 270.546414 
C 198.16638 271.108995 198.92951 271.425093 199.72512 271.425093 
z
" clip-path="url(#pab345e108a)" style="fill: #a6cee3; stroke: #ffffff; stroke-width: 0.48"/>
    <path d="M 206.808292 271.440705 
C 207.603901 271.440705 208.367031 271.124606 208.929612 270.562025 
C 209.492193 269.999444 209.808292 269.236314 209.808292 268.440705 
C 209.808292 267.645096 209.492193 266.881965 208.929612 266.319385 
C 208.367031 265.756804 207.603901 265.440705 206.808292 265.440705 
C 206.012682 265.440705 205.249552 265.756804 204.686971 266.319385 
C 204.12439 266.881965 203.808292 267.645096 203.808292 268.440705 
C 203.808292 269.236314 204.12439 269.999444 204.686971 270.562025 
C 205.249552 271.124606 206.012682 271.440705 206.808292 271.440705 
z
" clip-path="url(#pab345e108a)" style="fill: #a6cee3; stroke: #ffffff; stroke-width: 0.48"/>
    <path d="M 213.891463 271.464122 
C 214.687073 271.464122 215.450203 271.148023 216.012784 270.585442 
C 216.575364 270.022862 216.891463 269.259731 216.891463 268.464122 
C 216.891463 267.668513 216.575364 266.905382 216.012784 266.342802 
C 215.450203 265.780221 214.687073 265.464122 213.891463 265.464122 
C 213.095854 265.464122 212.332724 265.780221 211.770143 266.342802 
C 211.207562 266.905382 210.891463 267.668513 210.891463 268.464122 
C 210.891463 269.259731 211.207562 270.022862 211.770143 270.585442 
C 212.332724 271.148023 213.095854 271.464122 213.891463 271.464122 
z
" clip-path="url(#pab345e108a)" style="fill: #a6cee3; stroke: #ffffff; stroke-width: 0.48"/>
    <path d="M 220.974635 271.456316 
C 221.770245 271.456316 222.533375 271.140217 223.095956 270.577637 
C 223.658536 270.015056 223.974635 269.251926 223.974635 268.456316 
C 223.974635 267.660707 223.658536 266.897577 223.095956 266.334996 
C 222.533375 265.772415 221.770245 265.456316 220.974635 265.456316 
C 220.179026 265.456316 219.415896 265.772415 218.853315 266.334996 
C 218.290734 266.897577 217.974635 267.660707 217.974635 268.456316 
C 217.974635 269.251926 218.290734 270.015056 218.853315 270.577637 
C 219.415896 271.140217 220.179026 271.456316 220.974635 271.456316 
z
" clip-path="url(#pab345e108a)" style="fill: #a6cee3; stroke: #ffffff; stroke-width: 0.48"/>
    <path d="M 228.057807 271.464122 
C 228.853416 271.464122 229.616547 271.148023 230.179127 270.585442 
C 230.741708 270.022862 231.057807 269.259731 231.057807 268.464122 
C 231.057807 267.668513 230.741708 266.905382 230.179127 266.342802 
C 229.616547 265.780221 228.853416 265.464122 228.057807 265.464122 
C 227.262198 265.464122 226.499067 265.780221 225.936487 266.342802 
C 225.373906 266.905382 225.057807 267.668513 225.057807 268.464122 
C 225.057807 269.259731 225.373906 270.022862 225.936487 270.585442 
C 226.499067 271.148023 227.262198 271.464122 228.057807 271.464122 
z
" clip-path="url(#pab345e108a)" style="fill: #a6cee3; stroke: #ffffff; stroke-width: 0.48"/>
    <path d="M 235.140979 271.440705 
C 235.936588 271.440705 236.699719 271.124606 237.262299 270.562025 
C 237.82488 269.999444 238.140979 269.236314 238.140979 268.440705 
C 238.140979 267.645096 237.82488 266.881965 237.262299 266.319385 
C 236.699719 265.756804 235.936588 265.440705 235.140979 265.440705 
C 234.34537 265.440705 233.582239 265.756804 233.019659 266.319385 
C 232.457078 266.881965 232.140979 267.645096 232.140979 268.440705 
C 232.140979 269.236314 232.457078 269.999444 233.019659 270.562025 
C 233.582239 271.124606 234.34537 271.440705 235.140979 271.440705 
z
" clip-path="url(#pab345e108a)" style="fill: #a6cee3; stroke: #ffffff; stroke-width: 0.48"/>
    <path d="M 242.224151 271.425093 
C 243.01976 271.425093 243.78289 271.108995 244.345471 270.546414 
C 244.908052 269.983833 245.224151 269.220703 245.224151 268.425093 
C 245.224151 267.629484 244.908052 266.866354 244.345471 266.303773 
C 243.78289 265.741192 243.01976 265.425093 242.224151 265.425093 
C 241.428541 265.425093 240.665411 265.741192 240.10283 266.303773 
C 239.54025 266.866354 239.224151 267.629484 239.224151 268.425093 
C 239.224151 269.220703 239.54025 269.983833 240.10283 270.546414 
C 240.665411 271.108995 241.428541 271.425093 242.224151 271.425093 
z
" clip-path="url(#pab345e108a)" style="fill: #a6cee3; stroke: #ffffff; stroke-width: 0.48"/>
    <path d="M 249.307323 271.401676 
C 250.102932 271.401676 250.866062 271.085577 251.428643 270.522997 
C 251.991224 269.960416 252.307323 269.197286 252.307323 268.401676 
C 252.307323 267.606067 251.991224 266.842937 251.428643 266.280356 
C 250.866062 265.717775 250.102932 265.401676 249.307323 265.401676 
C 248.511713 265.401676 247.748583 265.717775 247.186002 266.280356 
C 246.623422 266.842937 246.307323 267.606067 246.307323 268.401676 
C 246.307323 269.197286 246.623422 269.960416 247.186002 270.522997 
C 247.748583 271.085577 248.511713 271.401676 249.307323 271.401676 
z
" clip-path="url(#pab345e108a)" style="fill: #a6cee3; stroke: #ffffff; stroke-width: 0.48"/>
    <path d="M 256.390494 271.354842 
C 257.186104 271.354842 257.949234 271.038743 258.511815 270.476162 
C 259.074396 269.913582 259.390494 269.150451 259.390494 268.354842 
C 259.390494 267.559233 259.074396 266.796103 258.511815 266.233522 
C 257.949234 265.670941 257.186104 265.354842 256.390494 265.354842 
C 255.594885 265.354842 254.831755 265.670941 254.269174 266.233522 
C 253.706593 266.796103 253.390494 267.559233 253.390494 268.354842 
C 253.390494 269.150451 253.706593 269.913582 254.269174 270.476162 
C 254.831755 271.038743 255.594885 271.354842 256.390494 271.354842 
z
" clip-path="url(#pab345e108a)" style="fill: #a6cee3; stroke: #ffffff; stroke-width: 0.48"/>
    <path d="M 263.473666 271.308008 
C 264.269276 271.308008 265.032406 270.991909 265.594987 270.429328 
C 266.157567 269.866748 266.473666 269.103617 266.473666 268.308008 
C 266.473666 267.512399 266.157567 266.749268 265.594987 266.186688 
C 265.032406 265.624107 264.269276 265.308008 263.473666 265.308008 
C 262.678057 265.308008 261.914927 265.624107 261.352346 266.186688 
C 260.789765 266.749268 260.473666 267.512399 260.473666 268.308008 
C 260.473666 269.103617 260.789765 269.866748 261.352346 270.429328 
C 261.914927 270.991909 262.678057 271.308008 263.473666 271.308008 
z
" clip-path="url(#pab345e108a)" style="fill: #a6cee3; stroke: #ffffff; stroke-width: 0.48"/>
    <path d="M 270.556838 271.245562 
C 271.352447 271.245562 272.115578 270.929463 272.678158 270.366883 
C 273.240739 269.804302 273.556838 269.041172 273.556838 268.245562 
C 273.556838 267.449953 273.240739 266.686823 272.678158 266.124242 
C 272.115578 265.561661 271.352447 265.245562 270.556838 265.245562 
C 269.761229 265.245562 268.998099 265.561661 268.435518 266.124242 
C 267.872937 266.686823 267.556838 267.449953 267.556838 268.245562 
C 267.556838 269.041172 267.872937 269.804302 268.435518 270.366883 
C 268.998099 270.929463 269.761229 271.245562 270.556838 271.245562 
z
" clip-path="url(#pab345e108a)" style="fill: #a6cee3; stroke: #ffffff; stroke-width: 0.48"/>
    <path d="M 277.64001 271.144088 
C 278.435619 271.144088 279.19875 270.827989 279.76133 270.265409 
C 280.323911 269.702828 280.64001 268.939698 280.64001 268.144088 
C 280.64001 267.348479 280.323911 266.585349 279.76133 266.022768 
C 279.19875 265.460187 278.435619 265.144088 277.64001 265.144088 
C 276.844401 265.144088 276.08127 265.460187 275.51869 266.022768 
C 274.956109 266.585349 274.64001 267.348479 274.64001 268.144088 
C 274.64001 268.939698 274.956109 269.702828 275.51869 270.265409 
C 276.08127 270.827989 276.844401 271.144088 277.64001 271.144088 
z
" clip-path="url(#pab345e108a)" style="fill: #a6cee3; stroke: #ffffff; stroke-width: 0.48"/>
    <path d="M 284.723182 270.917723 
C 285.518791 270.917723 286.281921 270.601624 286.844502 270.039043 
C 287.407083 269.476463 287.723182 268.713332 287.723182 267.917723 
C 287.723182 267.122114 287.407083 266.358983 286.844502 265.796403 
C 286.281921 265.233822 285.518791 264.917723 284.723182 264.917723 
C 283.927573 264.917723 283.164442 265.233822 282.601861 265.796403 
C 282.039281 266.358983 281.723182 267.122114 281.723182 267.917723 
C 281.723182 268.713332 282.039281 269.476463 282.601861 270.039043 
C 283.164442 270.601624 283.927573 270.917723 284.723182 270.917723 
z
" clip-path="url(#pab345e108a)" style="fill: #a6cee3; stroke: #ffffff; stroke-width: 0.48"/>
    <path d="M 291.806354 269.785896 
C 292.601963 269.785896 293.365093 269.469797 293.927674 268.907217 
C 294.490255 268.344636 294.806354 267.581506 294.806354 266.785896 
C 294.806354 265.990287 294.490255 265.227157 293.927674 264.664576 
C 293.365093 264.101995 292.601963 263.785896 291.806354 263.785896 
C 291.010744 263.785896 290.247614 264.101995 289.685033 264.664576 
C 289.122453 265.227157 288.806354 265.990287 288.806354 266.785896 
C 288.806354 267.581506 289.122453 268.344636 289.685033 268.907217 
C 290.247614 269.469797 291.010744 269.785896 291.806354 269.785896 
z
" clip-path="url(#pab345e108a)" style="fill: #a6cee3; stroke: #ffffff; stroke-width: 0.48"/>
    <path d="M 298.889526 268.771155 
C 299.685135 268.771155 300.448265 268.455056 301.010846 267.892476 
C 301.573427 267.329895 301.889526 266.566764 301.889526 265.771155 
C 301.889526 264.975546 301.573427 264.212416 301.010846 263.649835 
C 300.448265 263.087254 299.685135 262.771155 298.889526 262.771155 
C 298.093916 262.771155 297.330786 263.087254 296.768205 263.649835 
C 296.205624 264.212416 295.889526 264.975546 295.889526 265.771155 
C 295.889526 266.566764 296.205624 267.329895 296.768205 267.892476 
C 297.330786 268.455056 298.093916 268.771155 298.889526 268.771155 
z
" clip-path="url(#pab345e108a)" style="fill: #a6cee3; stroke: #ffffff; stroke-width: 0.48"/>
    <path d="M 305.972697 268.115476 
C 306.768307 268.115476 307.531437 267.799377 308.094018 267.236797 
C 308.656598 266.674216 308.972697 265.911086 308.972697 265.115476 
C 308.972697 264.319867 308.656598 263.556737 308.094018 262.994156 
C 307.531437 262.431575 306.768307 262.115476 305.972697 262.115476 
C 305.177088 262.115476 304.413958 262.431575 303.851377 262.994156 
C 303.288796 263.556737 302.972697 264.319867 302.972697 265.115476 
C 302.972697 265.911086 303.288796 266.674216 303.851377 267.236797 
C 304.413958 267.799377 305.177088 268.115476 305.972697 268.115476 
z
" clip-path="url(#pab345e108a)" style="fill: #a6cee3; stroke: #ffffff; stroke-width: 0.48"/>
    <path d="M 313.055869 267.6003 
C 313.851478 267.6003 314.614609 267.284201 315.17719 266.72162 
C 315.73977 266.15904 316.055869 265.395909 316.055869 264.6003 
C 316.055869 263.804691 315.73977 263.04156 315.17719 262.47898 
C 314.614609 261.916399 313.851478 261.6003 313.055869 261.6003 
C 312.26026 261.6003 311.49713 261.916399 310.934549 262.47898 
C 310.371968 263.04156 310.055869 263.804691 310.055869 264.6003 
C 310.055869 265.395909 310.371968 266.15904 310.934549 266.72162 
C 311.49713 267.284201 312.26026 267.6003 313.055869 267.6003 
z
" clip-path="url(#pab345e108a)" style="fill: #a6cee3; stroke: #ffffff; stroke-width: 0.48"/>
    <path d="M 320.139041 267.077318 
C 320.93465 267.077318 321.697781 266.761219 322.260361 266.198638 
C 322.822942 265.636058 323.139041 264.872927 323.139041 264.077318 
C 323.139041 263.281709 322.822942 262.518578 322.260361 261.955998 
C 321.697781 261.393417 320.93465 261.077318 320.139041 261.077318 
C 319.343432 261.077318 318.580301 261.393417 318.017721 261.955998 
C 317.45514 262.518578 317.139041 263.281709 317.139041 264.077318 
C 317.139041 264.872927 317.45514 265.636058 318.017721 266.198638 
C 318.580301 266.761219 319.343432 267.077318 320.139041 267.077318 
z
" clip-path="url(#pab345e108a)" style="fill: #a6cee3; stroke: #ffffff; stroke-width: 0.48"/>
    <path d="M 327.222213 266.523113 
C 328.017822 266.523113 328.780952 266.207014 329.343533 265.644434 
C 329.906114 265.081853 330.222213 264.318723 330.222213 263.523113 
C 330.222213 262.727504 329.906114 261.964374 329.343533 261.401793 
C 328.780952 260.839212 328.017822 260.523113 327.222213 260.523113 
C 326.426604 260.523113 325.663473 260.839212 325.100893 261.401793 
C 324.538312 261.964374 324.222213 262.727504 324.222213 263.523113 
C 324.222213 264.318723 324.538312 265.081853 325.100893 265.644434 
C 325.663473 266.207014 326.426604 266.523113 327.222213 266.523113 
z
" clip-path="url(#pab345e108a)" style="fill: #a6cee3; stroke: #ffffff; stroke-width: 0.48"/>
    <path d="M 334.305385 265.758155 
C 335.100994 265.758155 335.864124 265.442056 336.426705 264.879475 
C 336.989286 264.316894 337.305385 263.553764 337.305385 262.758155 
C 337.305385 261.962545 336.989286 261.199415 336.426705 260.636834 
C 335.864124 260.074254 335.100994 259.758155 334.305385 259.758155 
C 333.509775 259.758155 332.746645 260.074254 332.184064 260.636834 
C 331.621484 261.199415 331.305385 261.962545 331.305385 262.758155 
C 331.305385 263.553764 331.621484 264.316894 332.184064 264.879475 
C 332.746645 265.442056 333.509775 265.758155 334.305385 265.758155 
z
" clip-path="url(#pab345e108a)" style="fill: #a6cee3; stroke: #ffffff; stroke-width: 0.48"/>
    <path d="M 341.388557 264.829276 
C 342.184166 264.829276 342.947296 264.513177 343.509877 263.950597 
C 344.072458 263.388016 344.388557 262.624886 344.388557 261.829276 
C 344.388557 261.033667 344.072458 260.270537 343.509877 259.707956 
C 342.947296 259.145375 342.184166 258.829276 341.388557 258.829276 
C 340.592947 258.829276 339.829817 259.145375 339.267236 259.707956 
C 338.704655 260.270537 338.388557 261.033667 338.388557 261.829276 
C 338.388557 262.624886 338.704655 263.388016 339.267236 263.950597 
C 339.829817 264.513177 340.592947 264.829276 341.388557 264.829276 
z
" clip-path="url(#pab345e108a)" style="fill: #a6cee3; stroke: #ffffff; stroke-width: 0.48"/>
    <path d="M 348.471728 263.939426 
C 349.267338 263.939426 350.030468 263.623327 350.593049 263.060747 
C 351.155629 262.498166 351.471728 261.735036 351.471728 260.939426 
C 351.471728 260.143817 351.155629 259.380687 350.593049 258.818106 
C 350.030468 258.255525 349.267338 257.939426 348.471728 257.939426 
C 347.676119 257.939426 346.912989 258.255525 346.350408 258.818106 
C 345.787827 259.380687 345.471728 260.143817 345.471728 260.939426 
C 345.471728 261.735036 345.787827 262.498166 346.350408 263.060747 
C 346.912989 263.623327 347.676119 263.939426 348.471728 263.939426 
z
" clip-path="url(#pab345e108a)" style="fill: #a6cee3; stroke: #ffffff; stroke-width: 0.48"/>
    <path d="M 355.5549 263.080799 
C 356.35051 263.080799 357.11364 262.7647 357.676221 262.20212 
C 358.238801 261.639539 358.5549 260.876409 358.5549 260.080799 
C 358.5549 259.28519 358.238801 258.52206 357.676221 257.959479 
C 357.11364 257.396898 356.35051 257.080799 355.5549 257.080799 
C 354.759291 257.080799 353.996161 257.396898 353.43358 257.959479 
C 352.870999 258.52206 352.5549 259.28519 352.5549 260.080799 
C 352.5549 260.876409 352.870999 261.639539 353.43358 262.20212 
C 353.996161 262.7647 354.759291 263.080799 355.5549 263.080799 
z
" clip-path="url(#pab345e108a)" style="fill: #a6cee3; stroke: #ffffff; stroke-width: 0.48"/>
    <path d="M 362.638072 262.245589 
C 363.433681 262.245589 364.196812 261.92949 364.759392 261.36691 
C 365.321973 260.804329 365.638072 260.041199 365.638072 259.245589 
C 365.638072 258.44998 365.321973 257.68685 364.759392 257.124269 
C 364.196812 256.561688 363.433681 256.245589 362.638072 256.245589 
C 361.842463 256.245589 361.079332 256.561688 360.516752 257.124269 
C 359.954171 257.68685 359.638072 258.44998 359.638072 259.245589 
C 359.638072 260.041199 359.954171 260.804329 360.516752 261.36691 
C 361.079332 261.92949 361.842463 262.245589 362.638072 262.245589 
z
" clip-path="url(#pab345e108a)" style="fill: #a6cee3; stroke: #ffffff; stroke-width: 0.48"/>
    <path d="M 369.721244 261.08254 
C 370.516853 261.08254 371.279984 260.766441 371.842564 260.20386 
C 372.405145 259.641279 372.721244 258.878149 372.721244 258.08254 
C 372.721244 257.286931 372.405145 256.5238 371.842564 255.96122 
C 371.279984 255.398639 370.516853 255.08254 369.721244 255.08254 
C 368.925635 255.08254 368.162504 255.398639 367.599924 255.96122 
C 367.037343 256.5238 366.721244 257.286931 366.721244 258.08254 
C 366.721244 258.878149 367.037343 259.641279 367.599924 260.20386 
C 368.162504 260.766441 368.925635 261.08254 369.721244 261.08254 
z
" clip-path="url(#pab345e108a)" style="fill: #a6cee3; stroke: #ffffff; stroke-width: 0.48"/>
    <path d="M 376.804416 259.700931 
C 377.600025 259.700931 378.363155 259.384832 378.925736 258.822251 
C 379.488317 258.25967 379.804416 257.49654 379.804416 256.700931 
C 379.804416 255.905322 379.488317 255.142191 378.925736 254.57961 
C 378.363155 254.01703 377.600025 253.700931 376.804416 253.700931 
C 376.008806 253.700931 375.245676 254.01703 374.683095 254.57961 
C 374.120515 255.142191 373.804416 255.905322 373.804416 256.700931 
C 373.804416 257.49654 374.120515 258.25967 374.683095 258.822251 
C 375.245676 259.384832 376.008806 259.700931 376.804416 259.700931 
z
" clip-path="url(#pab345e108a)" style="fill: #a6cee3; stroke: #ffffff; stroke-width: 0.48"/>
    <path d="M 383.887588 258.264682 
C 384.683197 258.264682 385.446327 257.948583 386.008908 257.386002 
C 386.571489 256.823421 386.887588 256.060291 386.887588 255.264682 
C 386.887588 254.469073 386.571489 253.705942 386.008908 253.143362 
C 385.446327 252.580781 384.683197 252.264682 383.887588 252.264682 
C 383.091978 252.264682 382.328848 252.580781 381.766267 253.143362 
C 381.203687 253.705942 380.887588 254.469073 380.887588 255.264682 
C 380.887588 256.060291 381.203687 256.823421 381.766267 257.386002 
C 382.328848 257.948583 383.091978 258.264682 383.887588 258.264682 
z
" clip-path="url(#pab345e108a)" style="fill: #a6cee3; stroke: #ffffff; stroke-width: 0.48"/>
    <path d="M 390.970759 256.617679 
C 391.766369 256.617679 392.529499 256.30158 393.09208 255.738999 
C 393.654661 255.176419 393.970759 254.413288 393.970759 253.617679 
C 393.970759 252.82207 393.654661 252.058939 393.09208 251.496359 
C 392.529499 250.933778 391.766369 250.617679 390.970759 250.617679 
C 390.17515 250.617679 389.41202 250.933778 388.849439 251.496359 
C 388.286858 252.058939 387.970759 252.82207 387.970759 253.617679 
C 387.970759 254.413288 388.286858 255.176419 388.849439 255.738999 
C 389.41202 256.30158 390.17515 256.617679 390.970759 256.617679 
z
" clip-path="url(#pab345e108a)" style="fill: #a6cee3; stroke: #ffffff; stroke-width: 0.48"/>
    <path d="M 398.053931 254.635031 
C 398.849541 254.635031 399.612671 254.318932 400.175252 253.756351 
C 400.737832 253.193771 401.053931 252.43064 401.053931 251.635031 
C 401.053931 250.839422 400.737832 250.076291 400.175252 249.513711 
C 399.612671 248.95113 398.849541 248.635031 398.053931 248.635031 
C 397.258322 248.635031 396.495192 248.95113 395.932611 249.513711 
C 395.37003 250.076291 395.053931 250.839422 395.053931 251.635031 
C 395.053931 252.43064 395.37003 253.193771 395.932611 253.756351 
C 396.495192 254.318932 397.258322 254.635031 398.053931 254.635031 
z
" clip-path="url(#pab345e108a)" style="fill: #a6cee3; stroke: #ffffff; stroke-width: 0.48"/>
    <path d="M 405.137103 252.410406 
C 405.932712 252.410406 406.695843 252.094307 407.258424 251.531727 
C 407.821004 250.969146 408.137103 250.206016 408.137103 249.410406 
C 408.137103 248.614797 407.821004 247.851667 407.258424 247.289086 
C 406.695843 246.726505 405.932712 246.410406 405.137103 246.410406 
C 404.341494 246.410406 403.578364 246.726505 403.015783 247.289086 
C 402.453202 247.851667 402.137103 248.614797 402.137103 249.410406 
C 402.137103 250.206016 402.453202 250.969146 403.015783 251.531727 
C 403.578364 252.094307 404.341494 252.410406 405.137103 252.410406 
z
" clip-path="url(#pab345e108a)" style="fill: #a6cee3; stroke: #ffffff; stroke-width: 0.48"/>
    <path d="M 412.220275 250.084307 
C 413.015884 250.084307 413.779015 249.768209 414.341595 249.205628 
C 414.904176 248.643047 415.220275 247.879917 415.220275 247.084307 
C 415.220275 246.288698 414.904176 245.525568 414.341595 244.962987 
C 413.779015 244.400406 413.015884 244.084307 412.220275 244.084307 
C 411.424666 244.084307 410.661535 244.400406 410.098955 244.962987 
C 409.536374 245.525568 409.220275 246.288698 409.220275 247.084307 
C 409.220275 247.879917 409.536374 248.643047 410.098955 249.205628 
C 410.661535 249.768209 411.424666 250.084307 412.220275 250.084307 
z
" clip-path="url(#pab345e108a)" style="fill: #a6cee3; stroke: #ffffff; stroke-width: 0.48"/>
    <path d="M 419.303447 247.461592 
C 420.099056 247.461592 420.862186 247.145493 421.424767 246.582912 
C 421.987348 246.020332 422.303447 245.257201 422.303447 244.461592 
C 422.303447 243.665983 421.987348 242.902852 421.424767 242.340272 
C 420.862186 241.777691 420.099056 241.461592 419.303447 241.461592 
C 418.507838 241.461592 417.744707 241.777691 417.182127 242.340272 
C 416.619546 242.902852 416.303447 243.665983 416.303447 244.461592 
C 416.303447 245.257201 416.619546 246.020332 417.182127 246.582912 
C 417.744707 247.145493 418.507838 247.461592 419.303447 247.461592 
z
" clip-path="url(#pab345e108a)" style="fill: #a6cee3; stroke: #ffffff; stroke-width: 0.48"/>
    <path d="M 426.386619 244.511037 
C 427.182228 244.511037 427.945358 244.194938 428.507939 243.632357 
C 429.07052 243.069777 429.386619 242.306646 429.386619 241.511037 
C 429.386619 240.715428 429.07052 239.952297 428.507939 239.389717 
C 427.945358 238.827136 427.182228 238.511037 426.386619 238.511037 
C 425.591009 238.511037 424.827879 238.827136 424.265298 239.389717 
C 423.702718 239.952297 423.386619 240.715428 423.386619 241.511037 
C 423.386619 242.306646 423.702718 243.069777 424.265298 243.632357 
C 424.827879 244.194938 425.591009 244.511037 426.386619 244.511037 
z
" clip-path="url(#pab345e108a)" style="fill: #a6cee3; stroke: #ffffff; stroke-width: 0.48"/>
    <path d="M 433.469791 241.209226 
C 434.2654 241.209226 435.02853 240.893127 435.591111 240.330546 
C 436.153692 239.767965 436.469791 239.004835 436.469791 238.209226 
C 436.469791 237.413616 436.153692 236.650486 435.591111 236.087905 
C 435.02853 235.525325 434.2654 235.209226 433.469791 235.209226 
C 432.674181 235.209226 431.911051 235.525325 431.34847 236.087905 
C 430.785889 236.650486 430.469791 237.413616 430.469791 238.209226 
C 430.469791 239.004835 430.785889 239.767965 431.34847 240.330546 
C 431.911051 240.893127 432.674181 241.209226 433.469791 241.209226 
z
" clip-path="url(#pab345e108a)" style="fill: #a6cee3; stroke: #ffffff; stroke-width: 0.48"/>
    <path d="M 440.552962 237.509323 
C 441.348572 237.509323 442.111702 237.193224 442.674283 236.630644 
C 443.236863 236.068063 443.552962 235.304933 443.552962 234.509323 
C 443.552962 233.713714 443.236863 232.950584 442.674283 232.388003 
C 442.111702 231.825422 441.348572 231.509323 440.552962 231.509323 
C 439.757353 231.509323 438.994223 231.825422 438.431642 232.388003 
C 437.869061 232.950584 437.552962 233.713714 437.552962 234.509323 
C 437.552962 235.304933 437.869061 236.068063 438.431642 236.630644 
C 438.994223 237.193224 439.757353 237.509323 440.552962 237.509323 
z
" clip-path="url(#pab345e108a)" style="fill: #a6cee3; stroke: #ffffff; stroke-width: 0.48"/>
    <path d="M 454.719306 227.361912 
C 455.514915 227.361912 456.278046 227.045813 456.840626 226.483233 
C 457.403207 225.920652 457.719306 225.157522 457.719306 224.361912 
C 457.719306 223.566303 457.403207 222.803173 456.840626 222.240592 
C 456.278046 221.678011 455.514915 221.361912 454.719306 221.361912 
C 453.923697 221.361912 453.160566 221.678011 452.597986 222.240592 
C 452.035405 222.803173 451.719306 223.566303 451.719306 224.361912 
C 451.719306 225.157522 452.035405 225.920652 452.597986 226.483233 
C 453.160566 227.045813 453.923697 227.361912 454.719306 227.361912 
z
" clip-path="url(#pab345e108a)" style="fill: #a6cee3; stroke: #ffffff; stroke-width: 0.48"/>
    <path d="M 461.802478 220.446061 
C 462.598087 220.446061 463.361218 220.129962 463.923798 219.567382 
C 464.486379 219.004801 464.802478 218.241671 464.802478 217.446061 
C 464.802478 216.650452 464.486379 215.887322 463.923798 215.324741 
C 463.361218 214.76216 462.598087 214.446061 461.802478 214.446061 
C 461.006869 214.446061 460.243738 214.76216 459.681158 215.324741 
C 459.118577 215.887322 458.802478 216.650452 458.802478 217.446061 
C 458.802478 218.241671 459.118577 219.004801 459.681158 219.567382 
C 460.243738 220.129962 461.006869 220.446061 461.802478 220.446061 
z
" clip-path="url(#pab345e108a)" style="fill: #a6cee3; stroke: #ffffff; stroke-width: 0.48"/>
    <path d="M 468.88565 212.101767 
C 469.681259 212.101767 470.444389 211.785668 471.00697 211.223088 
C 471.569551 210.660507 471.88565 209.897377 471.88565 209.101767 
C 471.88565 208.306158 471.569551 207.543028 471.00697 206.980447 
C 470.444389 206.417866 469.681259 206.101767 468.88565 206.101767 
C 468.09004 206.101767 467.32691 206.417866 466.764329 206.980447 
C 466.201749 207.543028 465.88565 208.306158 465.88565 209.101767 
C 465.88565 209.897377 466.201749 210.660507 466.764329 211.223088 
C 467.32691 211.785668 468.09004 212.101767 468.88565 212.101767 
z
" clip-path="url(#pab345e108a)" style="fill: #a6cee3; stroke: #ffffff; stroke-width: 0.48"/>
    <path d="M 475.968822 202.11047 
C 476.764431 202.11047 477.527561 201.794371 478.090142 201.231791 
C 478.652723 200.66921 478.968822 199.906079 478.968822 199.11047 
C 478.968822 198.314861 478.652723 197.551731 478.090142 196.98915 
C 477.527561 196.426569 476.764431 196.11047 475.968822 196.11047 
C 475.173212 196.11047 474.410082 196.426569 473.847501 196.98915 
C 473.284921 197.551731 472.968822 198.314861 472.968822 199.11047 
C 472.968822 199.906079 473.284921 200.66921 473.847501 201.231791 
C 474.410082 201.794371 475.173212 202.11047 475.968822 202.11047 
z
" clip-path="url(#pab345e108a)" style="fill: #a6cee3; stroke: #ffffff; stroke-width: 0.48"/>
    <path d="M 483.051993 190.167748 
C 483.847603 190.167748 484.610733 189.851649 485.173314 189.289068 
C 485.735895 188.726488 486.051993 187.963357 486.051993 187.167748 
C 486.051993 186.372139 485.735895 185.609008 485.173314 185.046428 
C 484.610733 184.483847 483.847603 184.167748 483.051993 184.167748 
C 482.256384 184.167748 481.493254 184.483847 480.930673 185.046428 
C 480.368092 185.609008 480.051993 186.372139 480.051993 187.167748 
C 480.051993 187.963357 480.368092 188.726488 480.930673 189.289068 
C 481.493254 189.851649 482.256384 190.167748 483.051993 190.167748 
z
" clip-path="url(#pab345e108a)" style="fill: #a6cee3; stroke: #ffffff; stroke-width: 0.48"/>
    <path d="M 490.135165 175.461808 
C 490.930775 175.461808 491.693905 175.145709 492.256486 174.583128 
C 492.819066 174.020547 493.135165 173.257417 493.135165 172.461808 
C 493.135165 171.666198 492.819066 170.903068 492.256486 170.340487 
C 491.693905 169.777907 490.930775 169.461808 490.135165 169.461808 
C 489.339556 169.461808 488.576426 169.777907 488.013845 170.340487 
C 487.451264 170.903068 487.135165 171.666198 487.135165 172.461808 
C 487.135165 173.257417 487.451264 174.020547 488.013845 174.583128 
C 488.576426 175.145709 489.339556 175.461808 490.135165 175.461808 
z
" clip-path="url(#pab345e108a)" style="fill: #a6cee3; stroke: #ffffff; stroke-width: 0.48"/>
    <path d="M 176.819774 270.405669 
L 178.319774 268.905669 
L 179.819774 270.405669 
L 181.319774 268.905669 
L 179.819774 267.405669 
L 181.319774 265.905669 
L 179.819774 264.405669 
L 178.319774 265.905669 
L 176.819774 264.405669 
L 175.319774 265.905669 
L 176.819774 267.405669 
L 175.319774 268.905669 
z
" clip-path="url(#pab345e108a)" style="fill: #1f78b4; stroke: #ffffff; stroke-width: 0.48"/>
    <path d="M 190.971952 270.389277 
L 192.471952 268.889277 
L 193.971952 270.389277 
L 195.471952 268.889277 
L 193.971952 267.389277 
L 195.471952 265.889277 
L 193.971952 264.389277 
L 192.471952 265.889277 
L 190.971952 264.389277 
L 189.471952 265.889277 
L 190.971952 267.389277 
L 189.471952 268.889277 
z
" clip-path="url(#pab345e108a)" style="fill: #1f78b4; stroke: #ffffff; stroke-width: 0.48"/>
    <path d="M 205.180794 270.409572 
L 206.680794 268.909572 
L 208.180794 270.409572 
L 209.680794 268.909572 
L 208.180794 267.409572 
L 209.680794 265.909572 
L 208.180794 264.409572 
L 206.680794 265.909572 
L 205.180794 264.409572 
L 203.680794 265.909572 
L 205.180794 267.409572 
L 203.680794 268.909572 
z
" clip-path="url(#pab345e108a)" style="fill: #1f78b4; stroke: #ffffff; stroke-width: 0.48"/>
    <path d="M 219.474635 270.42128 
L 220.974635 268.92128 
L 222.474635 270.42128 
L 223.974635 268.92128 
L 222.474635 267.42128 
L 223.974635 265.92128 
L 222.474635 264.42128 
L 220.974635 265.92128 
L 219.474635 264.42128 
L 217.974635 265.92128 
L 219.474635 267.42128 
L 217.974635 268.92128 
z
" clip-path="url(#pab345e108a)" style="fill: #1f78b4; stroke: #ffffff; stroke-width: 0.48"/>
    <path d="M 233.626813 270.504021 
L 235.126813 269.004021 
L 236.626813 270.504021 
L 238.126813 269.004021 
L 236.626813 267.504021 
L 238.126813 266.004021 
L 236.626813 264.504021 
L 235.126813 266.004021 
L 233.626813 264.504021 
L 232.126813 266.004021 
L 233.626813 267.504021 
L 232.126813 269.004021 
z
" clip-path="url(#pab345e108a)" style="fill: #1f78b4; stroke: #ffffff; stroke-width: 0.48"/>
    <path d="M 247.991485 270.294828 
L 249.491485 268.794828 
L 250.991485 270.294828 
L 252.491485 268.794828 
L 250.991485 267.294828 
L 252.491485 265.794828 
L 250.991485 264.294828 
L 249.491485 265.794828 
L 247.991485 264.294828 
L 246.491485 265.794828 
L 247.991485 267.294828 
L 246.491485 268.794828 
z
" clip-path="url(#pab345e108a)" style="fill: #1f78b4; stroke: #ffffff; stroke-width: 0.48"/>
    <path d="M 262.143662 270.316684 
L 263.643662 268.816684 
L 265.143662 270.316684 
L 266.643662 268.816684 
L 265.143662 267.316684 
L 266.643662 265.816684 
L 265.143662 264.316684 
L 263.643662 265.816684 
L 262.143662 264.316684 
L 260.643662 265.816684 
L 262.143662 267.316684 
L 260.643662 268.816684 
z
" clip-path="url(#pab345e108a)" style="fill: #1f78b4; stroke: #ffffff; stroke-width: 0.48"/>
    <path d="M 269.255167 270.254238 
L 270.755167 268.754238 
L 272.255167 270.254238 
L 273.755167 268.754238 
L 272.255167 267.254238 
L 273.755167 265.754238 
L 272.255167 264.254238 
L 270.755167 265.754238 
L 269.255167 264.254238 
L 267.755167 265.754238 
L 269.255167 267.254238 
L 267.755167 268.754238 
z
" clip-path="url(#pab345e108a)" style="fill: #1f78b4; stroke: #ffffff; stroke-width: 0.48"/>
    <path d="M 276.29584 270.211307 
L 277.79584 268.711307 
L 279.29584 270.211307 
L 280.79584 268.711307 
L 279.29584 267.211307 
L 280.79584 265.711307 
L 279.29584 264.211307 
L 277.79584 265.711307 
L 276.29584 264.211307 
L 274.79584 265.711307 
L 276.29584 267.211307 
L 274.79584 268.711307 
z
" clip-path="url(#pab345e108a)" style="fill: #1f78b4; stroke: #ffffff; stroke-width: 0.48"/>
    <path d="M 283.549008 269.960744 
L 285.049008 268.460744 
L 286.549008 269.960744 
L 288.049008 268.460744 
L 286.549008 266.960744 
L 288.049008 265.460744 
L 286.549008 263.960744 
L 285.049008 265.460744 
L 283.549008 263.960744 
L 282.049008 265.460744 
L 283.549008 266.960744 
L 282.049008 268.460744 
z
" clip-path="url(#pab345e108a)" style="fill: #1f78b4; stroke: #ffffff; stroke-width: 0.48"/>
    <path d="M 290.518849 269.273842 
L 292.018849 267.773842 
L 293.518849 269.273842 
L 295.018849 267.773842 
L 293.518849 266.273842 
L 295.018849 264.773842 
L 293.518849 263.273842 
L 292.018849 264.773842 
L 290.518849 263.273842 
L 289.018849 264.773842 
L 290.518849 266.273842 
L 289.018849 267.773842 
z
" clip-path="url(#pab345e108a)" style="fill: #1f78b4; stroke: #ffffff; stroke-width: 0.48"/>
    <path d="M 297.772017 268.060836 
L 299.272017 266.560836 
L 300.772017 268.060836 
L 302.272017 266.560836 
L 300.772017 265.060836 
L 302.272017 263.560836 
L 300.772017 262.060836 
L 299.272017 263.560836 
L 297.772017 262.060836 
L 296.272017 263.560836 
L 297.772017 265.060836 
L 296.272017 266.560836 
z
" clip-path="url(#pab345e108a)" style="fill: #1f78b4; stroke: #ffffff; stroke-width: 0.48"/>
    <path d="M 304.798523 267.237335 
L 306.298523 265.737335 
L 307.798523 267.237335 
L 309.298523 265.737335 
L 307.798523 264.237335 
L 309.298523 262.737335 
L 307.798523 261.237335 
L 306.298523 262.737335 
L 304.798523 261.237335 
L 303.298523 262.737335 
L 304.798523 264.237335 
L 303.298523 265.737335 
z
" clip-path="url(#pab345e108a)" style="fill: #1f78b4; stroke: #ffffff; stroke-width: 0.48"/>
    <path d="M 311.910028 266.54653 
L 313.410028 265.04653 
L 314.910028 266.54653 
L 316.410028 265.04653 
L 314.910028 263.54653 
L 316.410028 262.04653 
L 314.910028 260.54653 
L 313.410028 262.04653 
L 311.910028 260.54653 
L 310.410028 262.04653 
L 311.910028 263.54653 
L 310.410028 265.04653 
z
" clip-path="url(#pab345e108a)" style="fill: #1f78b4; stroke: #ffffff; stroke-width: 0.48"/>
    <path d="M 319.021532 265.903341 
L 320.521532 264.403341 
L 322.021532 265.903341 
L 323.521532 264.403341 
L 322.021532 262.903341 
L 323.521532 261.403341 
L 322.021532 259.903341 
L 320.521532 261.403341 
L 319.021532 259.903341 
L 317.521532 261.403341 
L 319.021532 262.903341 
L 317.521532 264.403341 
z
" clip-path="url(#pab345e108a)" style="fill: #1f78b4; stroke: #ffffff; stroke-width: 0.48"/>
    <path d="M 326.203869 265.360844 
L 327.703869 263.860844 
L 329.203869 265.360844 
L 330.703869 263.860844 
L 329.203869 262.360844 
L 330.703869 260.860844 
L 329.203869 259.360844 
L 327.703869 260.860844 
L 326.203869 259.360844 
L 324.703869 260.860844 
L 326.203869 262.360844 
L 324.703869 263.860844 
z
" clip-path="url(#pab345e108a)" style="fill: #1f78b4; stroke: #ffffff; stroke-width: 0.48"/>
    <path d="M 333.230375 264.690335 
L 334.730375 263.190335 
L 336.230375 264.690335 
L 337.730375 263.190335 
L 336.230375 261.690335 
L 337.730375 260.190335 
L 336.230375 258.690335 
L 334.730375 260.190335 
L 333.230375 258.690335 
L 331.730375 260.190335 
L 333.230375 261.690335 
L 331.730375 263.190335 
z
" clip-path="url(#pab345e108a)" style="fill: #1f78b4; stroke: #ffffff; stroke-width: 0.48"/>
    <path d="M 340.271048 263.761456 
L 341.771048 262.261456 
L 343.271048 263.761456 
L 344.771048 262.261456 
L 343.271048 260.761456 
L 344.771048 259.261456 
L 343.271048 257.761456 
L 341.771048 259.261456 
L 340.271048 257.761456 
L 338.771048 259.261456 
L 340.271048 260.761456 
L 338.771048 262.261456 
z
" clip-path="url(#pab345e108a)" style="fill: #1f78b4; stroke: #ffffff; stroke-width: 0.48"/>
    <path d="M 347.453384 262.78106 
L 348.953384 261.28106 
L 350.453384 262.78106 
L 351.953384 261.28106 
L 350.453384 259.78106 
L 351.953384 258.28106 
L 350.453384 256.78106 
L 348.953384 258.28106 
L 347.453384 256.78106 
L 345.953384 258.28106 
L 347.453384 259.78106 
L 345.953384 261.28106 
z
" clip-path="url(#pab345e108a)" style="fill: #1f78b4; stroke: #ffffff; stroke-width: 0.48"/>
    <path d="M 354.494057 261.650795 
L 355.994057 260.150795 
L 357.494057 261.650795 
L 358.994057 260.150795 
L 357.494057 258.650795 
L 358.994057 257.150795 
L 357.494057 255.650795 
L 355.994057 257.150795 
L 354.494057 255.650795 
L 352.994057 257.150795 
L 354.494057 258.650795 
L 352.994057 260.150795 
z
" clip-path="url(#pab345e108a)" style="fill: #1f78b4; stroke: #ffffff; stroke-width: 0.48"/>
    <path d="M 361.662227 261.12391 
L 363.162227 259.62391 
L 364.662227 261.12391 
L 366.162227 259.62391 
L 364.662227 258.12391 
L 366.162227 256.62391 
L 364.662227 255.12391 
L 363.162227 256.62391 
L 361.662227 255.12391 
L 360.162227 256.62391 
L 361.662227 258.12391 
L 360.162227 259.62391 
z
" clip-path="url(#pab345e108a)" style="fill: #1f78b4; stroke: #ffffff; stroke-width: 0.48"/>
    <path d="M 375.800238 258.089054 
L 377.300238 256.589054 
L 378.800238 258.089054 
L 380.300238 256.589054 
L 378.800238 255.089054 
L 380.300238 253.589054 
L 378.800238 252.089054 
L 377.300238 253.589054 
L 375.800238 252.089054 
L 374.300238 253.589054 
L 375.800238 255.089054 
L 374.300238 256.589054 
z
" clip-path="url(#pab345e108a)" style="fill: #1f78b4; stroke: #ffffff; stroke-width: 0.48"/>
    <path d="M 390.05158 251.545535 
L 391.55158 250.045535 
L 393.05158 251.545535 
L 394.55158 250.045535 
L 393.05158 248.545535 
L 394.55158 247.045535 
L 393.05158 245.545535 
L 391.55158 247.045535 
L 390.05158 245.545535 
L 388.55158 247.045535 
L 390.05158 248.545535 
L 388.55158 250.045535 
z
" clip-path="url(#pab345e108a)" style="fill: #1f78b4; stroke: #ffffff; stroke-width: 0.48"/>
    <path d="M 404.161258 241.369242 
L 405.661258 239.869242 
L 407.161258 241.369242 
L 408.661258 239.869242 
L 407.161258 238.369242 
L 408.661258 236.869242 
L 407.161258 235.369242 
L 405.661258 236.869242 
L 404.161258 235.369242 
L 402.661258 236.869242 
L 404.161258 238.369242 
L 402.661258 239.869242 
z
" clip-path="url(#pab345e108a)" style="fill: #1f78b4; stroke: #ffffff; stroke-width: 0.48"/>
    <path d="M 418.384267 225.235639 
L 419.884267 223.735639 
L 421.384267 225.235639 
L 422.884267 223.735639 
L 421.384267 222.235639 
L 422.884267 220.735639 
L 421.384267 219.235639 
L 419.884267 220.735639 
L 418.384267 219.235639 
L 416.884267 220.735639 
L 418.384267 222.235639 
L 416.884267 223.735639 
z
" clip-path="url(#pab345e108a)" style="fill: #1f78b4; stroke: #ffffff; stroke-width: 0.48"/>
    <path d="M 432.536444 216.887442 
L 434.036444 215.387442 
L 435.536444 216.887442 
L 437.036444 215.387442 
L 435.536444 213.887442 
L 437.036444 212.387442 
L 435.536444 210.887442 
L 434.036444 212.387442 
L 432.536444 210.887442 
L 431.036444 212.387442 
L 432.536444 213.887442 
L 431.036444 215.387442 
z
" clip-path="url(#pab345e108a)" style="fill: #1f78b4; stroke: #ffffff; stroke-width: 0.48"/>
    <path d="M 439.662115 215.024222 
L 441.162115 213.524222 
L 442.662115 215.024222 
L 444.162115 213.524222 
L 442.662115 212.024222 
L 444.162115 210.524222 
L 442.662115 209.024222 
L 441.162115 210.524222 
L 439.662115 209.024222 
L 438.162115 210.524222 
L 439.662115 212.024222 
L 438.162115 213.524222 
z
" clip-path="url(#pab345e108a)" style="fill: #1f78b4; stroke: #ffffff; stroke-width: 0.48"/>
    <path d="M 446.631956 213.826047 
L 448.131956 212.326047 
L 449.631956 213.826047 
L 451.131956 212.326047 
L 449.631956 210.826047 
L 451.131956 209.326047 
L 449.631956 207.826047 
L 448.131956 209.326047 
L 446.631956 207.826047 
L 445.131956 209.326047 
L 446.631956 210.826047 
L 445.131956 212.326047 
z
" clip-path="url(#pab345e108a)" style="fill: #1f78b4; stroke: #ffffff; stroke-width: 0.48"/>
    <path d="M 453.445968 36.670983 
L 454.945968 35.170983 
L 456.445968 36.670983 
L 457.945968 35.170983 
L 456.445968 33.670983 
L 457.945968 32.170983 
L 456.445968 30.670983 
L 454.945968 32.170983 
L 453.445968 30.670983 
L 451.945968 32.170983 
L 453.445968 33.670983 
L 451.945968 35.170983 
z
" clip-path="url(#pab345e108a)" style="fill: #1f78b4; stroke: #ffffff; stroke-width: 0.48"/>
    <path d="M 460.458308 28.126863 
L 461.958308 26.626863 
L 463.458308 28.126863 
L 464.958308 26.626863 
L 463.458308 25.126863 
L 464.958308 23.626863 
L 463.458308 22.126863 
L 461.958308 23.626863 
L 460.458308 22.126863 
L 458.958308 23.626863 
L 460.458308 25.126863 
L 458.958308 26.626863 
z
" clip-path="url(#pab345e108a)" style="fill: #1f78b4; stroke: #ffffff; stroke-width: 0.48"/>
    <path d="M 467.470648 56.279684 
L 468.970648 54.779684 
L 470.470648 56.279684 
L 471.970648 54.779684 
L 470.470648 53.279684 
L 471.970648 51.779684 
L 470.470648 50.279684 
L 468.970648 51.779684 
L 467.470648 50.279684 
L 465.970648 51.779684 
L 467.470648 53.279684 
L 465.970648 54.779684 
z
" clip-path="url(#pab345e108a)" style="fill: #1f78b4; stroke: #ffffff; stroke-width: 0.48"/>
    <path d="M 474.695483 54.481251 
L 476.195483 52.981251 
L 477.695483 54.481251 
L 479.195483 52.981251 
L 477.695483 51.481251 
L 479.195483 49.981251 
L 477.695483 48.481251 
L 476.195483 49.981251 
L 474.695483 48.481251 
L 473.195483 49.981251 
L 474.695483 51.481251 
L 473.195483 52.981251 
z
" clip-path="url(#pab345e108a)" style="fill: #1f78b4; stroke: #ffffff; stroke-width: 0.48"/>
    <path d="M 481.707823 44.634359 
L 483.207823 43.134359 
L 484.707823 44.634359 
L 486.207823 43.134359 
L 484.707823 41.634359 
L 486.207823 40.134359 
L 484.707823 38.634359 
L 483.207823 40.134359 
L 481.707823 38.634359 
L 480.207823 40.134359 
L 481.707823 41.634359 
L 480.207823 43.134359 
z
" clip-path="url(#pab345e108a)" style="fill: #1f78b4; stroke: #ffffff; stroke-width: 0.48"/>
    <path d="M 474.695483 45.092554 
L 476.195483 43.592554 
L 477.695483 45.092554 
L 479.195483 43.592554 
L 477.695483 42.092554 
L 479.195483 40.592554 
L 477.695483 39.092554 
L 476.195483 40.592554 
L 474.695483 39.092554 
L 473.195483 40.592554 
L 474.695483 42.092554 
L 473.195483 43.592554 
z
" clip-path="url(#pab345e108a)" style="fill: #1f78b4; stroke: #ffffff; stroke-width: 0.48"/>
    <path d="M 467.612311 58.233451 
L 469.112311 56.733451 
L 470.612311 58.233451 
L 472.112311 56.733451 
L 470.612311 55.233451 
L 472.112311 53.733451 
L 470.612311 52.233451 
L 469.112311 53.733451 
L 467.612311 52.233451 
L 466.112311 53.733451 
L 467.612311 55.233451 
L 466.112311 56.733451 
z
" clip-path="url(#pab345e108a)" style="fill: #1f78b4; stroke: #ffffff; stroke-width: 0.48"/>
    <path d="M 460.387476 64.431958 
L 461.887476 62.931958 
L 463.387476 64.431958 
L 464.887476 62.931958 
L 463.387476 61.431958 
L 464.887476 59.931958 
L 463.387476 58.431958 
L 461.887476 59.931958 
L 460.387476 58.431958 
L 458.887476 59.931958 
L 460.387476 61.431958 
L 458.887476 62.931958 
z
" clip-path="url(#pab345e108a)" style="fill: #1f78b4; stroke: #ffffff; stroke-width: 0.48"/>
    <path d="M 453.375136 47.452217 
L 454.875136 45.952217 
L 456.375136 47.452217 
L 457.875136 45.952217 
L 456.375136 44.452217 
L 457.875136 42.952217 
L 456.375136 41.452217 
L 454.875136 42.952217 
L 453.375136 41.452217 
L 451.875136 42.952217 
L 453.375136 44.452217 
L 451.875136 45.952217 
z
" clip-path="url(#pab345e108a)" style="fill: #1f78b4; stroke: #ffffff; stroke-width: 0.48"/>
    <path d="M 439.222959 33.935865 
L 440.722959 32.435865 
L 442.222959 33.935865 
L 443.722959 32.435865 
L 442.222959 30.935865 
L 443.722959 29.435865 
L 442.222959 27.935865 
L 440.722959 29.435865 
L 439.222959 27.935865 
L 437.722959 29.435865 
L 439.222959 30.935865 
L 437.722959 32.435865 
z
" clip-path="url(#pab345e108a)" style="fill: #1f78b4; stroke: #ffffff; stroke-width: 0.48"/>
    <path d="M 432.068955 42.375389 
L 433.568955 40.875389 
L 435.068955 42.375389 
L 436.568955 40.875389 
L 435.068955 39.375389 
L 436.568955 37.875389 
L 435.068955 36.375389 
L 433.568955 37.875389 
L 432.068955 36.375389 
L 430.568955 37.875389 
L 432.068955 39.375389 
L 430.568955 40.875389 
z
" clip-path="url(#pab345e108a)" style="fill: #1f78b4; stroke: #ffffff; stroke-width: 0.48"/>
    <path d="M 425.141613 107.207979 
L 426.641613 105.707979 
L 428.141613 107.207979 
L 429.641613 105.707979 
L 428.141613 104.207979 
L 429.641613 102.707979 
L 428.141613 101.207979 
L 426.641613 102.707979 
L 425.141613 101.207979 
L 423.641613 102.707979 
L 425.141613 104.207979 
L 423.641613 105.707979 
z
" clip-path="url(#pab345e108a)" style="fill: #1f78b4; stroke: #ffffff; stroke-width: 0.48"/>
    <path d="M 418.185938 204.666837 
L 419.685938 203.166837 
L 421.185938 204.666837 
L 422.685938 203.166837 
L 421.185938 201.666837 
L 422.685938 200.166837 
L 421.185938 198.666837 
L 419.685938 200.166837 
L 418.185938 198.666837 
L 416.685938 200.166837 
L 418.185938 201.666837 
L 416.685938 203.166837 
z
" clip-path="url(#pab345e108a)" style="fill: #1f78b4; stroke: #ffffff; stroke-width: 0.48"/>
    <path d="M 411.315261 234.984179 
L 412.815261 233.484179 
L 414.315261 234.984179 
L 415.815261 233.484179 
L 414.315261 231.984179 
L 415.815261 230.484179 
L 414.315261 228.984179 
L 412.815261 230.484179 
L 411.315261 228.984179 
L 409.815261 230.484179 
L 411.315261 231.984179 
L 409.815261 233.484179 
z
" clip-path="url(#pab345e108a)" style="fill: #1f78b4; stroke: #ffffff; stroke-width: 0.48"/>
    <path d="M 404.23209 241.643223 
L 405.73209 240.143223 
L 407.23209 241.643223 
L 408.73209 240.143223 
L 407.23209 238.643223 
L 408.73209 237.143223 
L 407.23209 235.643223 
L 405.73209 237.143223 
L 404.23209 235.643223 
L 402.73209 237.143223 
L 404.23209 238.643223 
L 402.73209 240.143223 
z
" clip-path="url(#pab345e108a)" style="fill: #1f78b4; stroke: #ffffff; stroke-width: 0.48"/>
   </g>
   <g id="PathCollection_2"/>
   <g id="PathCollection_3"/>
   <g id="line2d_21">
    <path d="M 79.311198 259.347063 
L 93.477542 260.923815 
L 107.643886 262.76596 
L 135.976573 265.115476 
L 150.142917 266.785896 
L 157.226089 267.917723 
L 164.30926 268.144088 
L 171.392432 268.237757 
L 178.475604 268.308008 
L 185.558776 268.354842 
L 192.641948 268.401676 
L 199.72512 268.425093 
L 206.808292 268.440705 
L 213.891463 268.464122 
L 220.974635 268.456316 
L 228.057807 268.464122 
L 235.140979 268.440705 
L 242.224151 268.425093 
L 249.307323 268.401676 
L 256.390494 268.354842 
L 263.473666 268.308008 
L 270.556838 268.245562 
L 277.64001 268.144088 
L 284.723182 267.917723 
L 291.806354 266.785896 
L 298.889526 265.771155 
L 305.972697 265.115476 
L 313.055869 264.6003 
L 320.139041 264.077318 
L 327.222213 263.523113 
L 334.305385 262.758155 
L 341.388557 261.829276 
L 348.471728 260.939426 
L 355.5549 260.080799 
L 362.638072 259.245589 
L 369.721244 258.08254 
L 376.804416 256.700931 
L 383.887588 255.264682 
L 390.970759 253.617679 
L 398.053931 251.635031 
L 405.137103 249.410406 
L 412.220275 247.084307 
L 419.303447 244.461592 
L 426.386619 241.511037 
L 433.469791 238.209226 
L 440.552962 234.509323 
L 454.719306 224.361912 
L 461.802478 217.446061 
L 468.88565 209.101767 
L 475.968822 199.11047 
L 483.051993 187.167748 
L 490.135165 172.461808 
" clip-path="url(#pab345e108a)" style="fill: none; stroke: #808080; stroke-linecap: round"/>
   </g>
   <g id="line2d_22">
    <path d="M 178.319774 267.405669 
L 192.471952 267.389277 
L 206.680794 267.409572 
L 220.974635 267.42128 
L 235.126813 267.504021 
L 249.491485 267.294828 
L 263.643662 267.316684 
L 270.755167 267.254238 
L 277.79584 267.211307 
L 285.049008 266.960744 
L 292.018849 266.273842 
L 299.272017 265.060836 
L 306.298523 264.237335 
L 313.410028 263.54653 
L 320.521532 262.903341 
L 327.703869 262.360844 
L 334.730375 261.690335 
L 341.771048 260.761456 
L 348.953384 259.78106 
L 355.994057 258.650795 
L 363.162227 258.12391 
L 377.300238 255.089054 
L 391.55158 248.545535 
L 405.661258 238.369242 
L 419.884267 222.235639 
L 434.036444 213.887442 
L 441.162115 212.024222 
L 448.131956 210.826047 
L 454.945968 33.670983 
L 461.958308 25.126863 
L 468.970648 53.279684 
L 476.195483 51.481251 
L 483.207823 41.634359 
L 476.195483 42.092554 
L 469.112311 55.233451 
L 461.887476 61.431958 
L 454.875136 44.452217 
L 440.722959 30.935865 
L 433.568955 39.375389 
L 426.641613 104.207979 
L 419.685938 201.666837 
L 412.815261 231.984179 
L 405.73209 238.643223 
" clip-path="url(#pab345e108a)" style="fill: none; stroke: #808080; stroke-linecap: round"/>
   </g>
   <g id="patch_3">
    <path d="M 58.77 312.66 
L 58.77 12.96 
" style="fill: none; stroke: #ffffff; stroke-width: 1.25; stroke-linejoin: miter; stroke-linecap: square"/>
   </g>
   <g id="patch_4">
    <path d="M 58.77 312.66 
L 510.676364 312.66 
" style="fill: none; stroke: #ffffff; stroke-width: 1.25; stroke-linejoin: miter; stroke-linecap: square"/>
   </g>
   <g id="legend_1">
    <g id="patch_5">
     <path d="M 66.47 52.879688 
L 168.916094 52.879688 
Q 171.116094 52.879688 171.116094 50.679688 
L 171.116094 20.66 
Q 171.116094 18.46 168.916094 18.46 
L 66.47 18.46 
Q 64.27 18.46 64.27 20.66 
L 64.27 50.679688 
Q 64.27 52.879688 66.47 52.879688 
z
" style="fill: #eaeaf2; opacity: 0.8; stroke: #cccccc; stroke-linejoin: miter"/>
    </g>
    <g id="PathCollection_4">
     <defs>
      <path id="m12cbfe872a" d="M 0 3 
C 0.795609 3 1.55874 2.683901 2.12132 2.12132 
C 2.683901 1.55874 3 0.795609 3 0 
C 3 -0.795609 2.683901 -1.55874 2.12132 -2.12132 
C 1.55874 -2.683901 0.795609 -3 0 -3 
C -0.795609 -3 -1.55874 -2.683901 -2.12132 -2.12132 
C -2.683901 -1.55874 -3 -0.795609 -3 0 
C -3 0.795609 -2.683901 1.55874 -2.12132 2.12132 
C -1.55874 2.683901 -0.795609 3 0 3 
z
" style="stroke: #a6cee3"/>
     </defs>
     <g>
      <use xlink:href="#m12cbfe872a" x="79.67" y="27.846094" style="fill: #a6cee3; stroke: #a6cee3"/>
     </g>
    </g>
    <g id="text_23">
     <!-- CFD -->
     <g style="fill: #262626" transform="translate(99.47 30.733594) scale(0.11 -0.11)">
      <defs>
       <path id="ArialMT-46" d="M 525 0 
L 525 4581 
L 3616 4581 
L 3616 4041 
L 1131 4041 
L 1131 2622 
L 3281 2622 
L 3281 2081 
L 1131 2081 
L 1131 0 
L 525 0 
z
" transform="scale(0.015625)"/>
       <path id="ArialMT-44" d="M 494 0 
L 494 4581 
L 2072 4581 
Q 2606 4581 2888 4516 
Q 3281 4425 3559 4188 
Q 3922 3881 4101 3404 
Q 4281 2928 4281 2316 
Q 4281 1794 4159 1391 
Q 4038 988 3847 723 
Q 3656 459 3429 307 
Q 3203 156 2883 78 
Q 2563 0 2147 0 
L 494 0 
z
M 1100 541 
L 2078 541 
Q 2531 541 2789 625 
Q 3047 709 3200 863 
Q 3416 1078 3536 1442 
Q 3656 1806 3656 2325 
Q 3656 3044 3420 3430 
Q 3184 3816 2847 3947 
Q 2603 4041 2063 4041 
L 1100 4041 
L 1100 541 
z
" transform="scale(0.015625)"/>
      </defs>
      <use xlink:href="#ArialMT-43"/>
      <use xlink:href="#ArialMT-46" x="72.216797"/>
      <use xlink:href="#ArialMT-44" x="133.300781"/>
     </g>
    </g>
    <g id="PathCollection_5">
     <defs>
      <path id="m55fe652b0f" d="M -1.5 3 
L 0 1.5 
L 1.5 3 
L 3 1.5 
L 1.5 0 
L 3 -1.5 
L 1.5 -3 
L 0 -1.5 
L -1.5 -3 
L -3 -1.5 
L -1.5 0 
L -3 1.5 
z
" style="stroke: #1f78b4"/>
     </defs>
     <g>
      <use xlink:href="#m55fe652b0f" x="79.67" y="43.405938" style="fill: #1f78b4; stroke: #1f78b4"/>
     </g>
    </g>
    <g id="text_24">
     <!-- Measurement -->
     <g style="fill: #262626" transform="translate(99.47 46.293438) scale(0.11 -0.11)">
      <defs>
       <path id="ArialMT-4d" d="M 475 0 
L 475 4581 
L 1388 4581 
L 2472 1338 
Q 2622 884 2691 659 
Q 2769 909 2934 1394 
L 4031 4581 
L 4847 4581 
L 4847 0 
L 4263 0 
L 4263 3834 
L 2931 0 
L 2384 0 
L 1059 3900 
L 1059 0 
L 475 0 
z
" transform="scale(0.015625)"/>
       <path id="ArialMT-65" d="M 2694 1069 
L 3275 997 
Q 3138 488 2766 206 
Q 2394 -75 1816 -75 
Q 1088 -75 661 373 
Q 234 822 234 1631 
Q 234 2469 665 2931 
Q 1097 3394 1784 3394 
Q 2450 3394 2872 2941 
Q 3294 2488 3294 1666 
Q 3294 1616 3291 1516 
L 816 1516 
Q 847 969 1125 678 
Q 1403 388 1819 388 
Q 2128 388 2347 550 
Q 2566 713 2694 1069 
z
M 847 1978 
L 2700 1978 
Q 2663 2397 2488 2606 
Q 2219 2931 1791 2931 
Q 1403 2931 1139 2672 
Q 875 2413 847 1978 
z
" transform="scale(0.015625)"/>
       <path id="ArialMT-61" d="M 2588 409 
Q 2275 144 1986 34 
Q 1697 -75 1366 -75 
Q 819 -75 525 192 
Q 231 459 231 875 
Q 231 1119 342 1320 
Q 453 1522 633 1644 
Q 813 1766 1038 1828 
Q 1203 1872 1538 1913 
Q 2219 1994 2541 2106 
Q 2544 2222 2544 2253 
Q 2544 2597 2384 2738 
Q 2169 2928 1744 2928 
Q 1347 2928 1158 2789 
Q 969 2650 878 2297 
L 328 2372 
Q 403 2725 575 2942 
Q 747 3159 1072 3276 
Q 1397 3394 1825 3394 
Q 2250 3394 2515 3294 
Q 2781 3194 2906 3042 
Q 3031 2891 3081 2659 
Q 3109 2516 3109 2141 
L 3109 1391 
Q 3109 606 3145 398 
Q 3181 191 3288 0 
L 2700 0 
Q 2613 175 2588 409 
z
M 2541 1666 
Q 2234 1541 1622 1453 
Q 1275 1403 1131 1340 
Q 988 1278 909 1158 
Q 831 1038 831 891 
Q 831 666 1001 516 
Q 1172 366 1500 366 
Q 1825 366 2078 508 
Q 2331 650 2450 897 
Q 2541 1088 2541 1459 
L 2541 1666 
z
" transform="scale(0.015625)"/>
       <path id="ArialMT-73" d="M 197 991 
L 753 1078 
Q 800 744 1014 566 
Q 1228 388 1613 388 
Q 2000 388 2187 545 
Q 2375 703 2375 916 
Q 2375 1106 2209 1216 
Q 2094 1291 1634 1406 
Q 1016 1563 777 1677 
Q 538 1791 414 1992 
Q 291 2194 291 2438 
Q 291 2659 392 2848 
Q 494 3038 669 3163 
Q 800 3259 1026 3326 
Q 1253 3394 1513 3394 
Q 1903 3394 2198 3281 
Q 2494 3169 2634 2976 
Q 2775 2784 2828 2463 
L 2278 2388 
Q 2241 2644 2061 2787 
Q 1881 2931 1553 2931 
Q 1166 2931 1000 2803 
Q 834 2675 834 2503 
Q 834 2394 903 2306 
Q 972 2216 1119 2156 
Q 1203 2125 1616 2013 
Q 2213 1853 2448 1751 
Q 2684 1650 2818 1456 
Q 2953 1263 2953 975 
Q 2953 694 2789 445 
Q 2625 197 2315 61 
Q 2006 -75 1616 -75 
Q 969 -75 630 194 
Q 291 463 197 991 
z
" transform="scale(0.015625)"/>
       <path id="ArialMT-75" d="M 2597 0 
L 2597 488 
Q 2209 -75 1544 -75 
Q 1250 -75 995 37 
Q 741 150 617 320 
Q 494 491 444 738 
Q 409 903 409 1263 
L 409 3319 
L 972 3319 
L 972 1478 
Q 972 1038 1006 884 
Q 1059 663 1231 536 
Q 1403 409 1656 409 
Q 1909 409 2131 539 
Q 2353 669 2445 892 
Q 2538 1116 2538 1541 
L 2538 3319 
L 3100 3319 
L 3100 0 
L 2597 0 
z
" transform="scale(0.015625)"/>
       <path id="ArialMT-72" d="M 416 0 
L 416 3319 
L 922 3319 
L 922 2816 
Q 1116 3169 1280 3281 
Q 1444 3394 1641 3394 
Q 1925 3394 2219 3213 
L 2025 2691 
Q 1819 2813 1613 2813 
Q 1428 2813 1281 2702 
Q 1134 2591 1072 2394 
Q 978 2094 978 1738 
L 978 0 
L 416 0 
z
" transform="scale(0.015625)"/>
       <path id="ArialMT-6d" d="M 422 0 
L 422 3319 
L 925 3319 
L 925 2853 
Q 1081 3097 1340 3245 
Q 1600 3394 1931 3394 
Q 2300 3394 2536 3241 
Q 2772 3088 2869 2813 
Q 3263 3394 3894 3394 
Q 4388 3394 4653 3120 
Q 4919 2847 4919 2278 
L 4919 0 
L 4359 0 
L 4359 2091 
Q 4359 2428 4304 2576 
Q 4250 2725 4106 2815 
Q 3963 2906 3769 2906 
Q 3419 2906 3187 2673 
Q 2956 2441 2956 1928 
L 2956 0 
L 2394 0 
L 2394 2156 
Q 2394 2531 2256 2718 
Q 2119 2906 1806 2906 
Q 1569 2906 1367 2781 
Q 1166 2656 1075 2415 
Q 984 2175 984 1722 
L 984 0 
L 422 0 
z
" transform="scale(0.015625)"/>
       <path id="ArialMT-6e" d="M 422 0 
L 422 3319 
L 928 3319 
L 928 2847 
Q 1294 3394 1984 3394 
Q 2284 3394 2536 3286 
Q 2788 3178 2913 3003 
Q 3038 2828 3088 2588 
Q 3119 2431 3119 2041 
L 3119 0 
L 2556 0 
L 2556 2019 
Q 2556 2363 2490 2533 
Q 2425 2703 2258 2804 
Q 2091 2906 1866 2906 
Q 1506 2906 1245 2678 
Q 984 2450 984 1813 
L 984 0 
L 422 0 
z
" transform="scale(0.015625)"/>
       <path id="ArialMT-74" d="M 1650 503 
L 1731 6 
Q 1494 -44 1306 -44 
Q 1000 -44 831 53 
Q 663 150 594 308 
Q 525 466 525 972 
L 525 2881 
L 113 2881 
L 113 3319 
L 525 3319 
L 525 4141 
L 1084 4478 
L 1084 3319 
L 1650 3319 
L 1650 2881 
L 1084 2881 
L 1084 941 
Q 1084 700 1114 631 
Q 1144 563 1211 522 
Q 1278 481 1403 481 
Q 1497 481 1650 503 
z
" transform="scale(0.015625)"/>
      </defs>
      <use xlink:href="#ArialMT-4d"/>
      <use xlink:href="#ArialMT-65" x="83.300781"/>
      <use xlink:href="#ArialMT-61" x="138.916016"/>
      <use xlink:href="#ArialMT-73" x="194.53125"/>
      <use xlink:href="#ArialMT-75" x="244.53125"/>
      <use xlink:href="#ArialMT-72" x="300.146484"/>
      <use xlink:href="#ArialMT-65" x="333.447266"/>
      <use xlink:href="#ArialMT-6d" x="389.0625"/>
      <use xlink:href="#ArialMT-65" x="472.363281"/>
      <use xlink:href="#ArialMT-6e" x="527.978516"/>
      <use xlink:href="#ArialMT-74" x="583.59375"/>
     </g>
    </g>
   </g>
  </g>
 </g>
 <defs>
  <clipPath id="pab345e108a">
   <rect x="58.77" y="12.96" width="451.906364" height="299.7"/>
  </clipPath>
 </defs>
</svg>
