<?xml version="1.0" encoding="utf-8" standalone="no"?>
<!DOCTYPE svg PUBLIC "-//W3C//DTD SVG 1.1//EN"
  "http://www.w3.org/Graphics/SVG/1.1/DTD/svg11.dtd">
<svg xmlns:xlink="http://www.w3.org/1999/xlink" width="523.636364pt" height="360pt" viewBox="0 0 523.636364 360" xmlns="http://www.w3.org/2000/svg" version="1.1">
 <metadata>
  <rdf:RDF xmlns:dc="http://purl.org/dc/elements/1.1/" xmlns:cc="http://creativecommons.org/ns#" xmlns:rdf="http://www.w3.org/1999/02/22-rdf-syntax-ns#">
   <cc:Work>
    <dc:type rdf:resource="http://purl.org/dc/dcmitype/StillImage"/>
    <dc:date>2022-12-18T12:35:50.203678</dc:date>
    <dc:format>image/svg+xml</dc:format>
    <dc:creator>
     <cc:Agent>
      <dc:title>Matplotlib v3.6.2, https://matplotlib.org/</dc:title>
     </cc:Agent>
    </dc:creator>
   </cc:Work>
  </rdf:RDF>
 </metadata>
 <defs>
  <style type="text/css">*{stroke-linejoin: round; stroke-linecap: butt}</style>
 </defs>
 <g id="figure_1">
  <g id="patch_1">
   <path d="M 0 360 
L 523.636364 360 
L 523.636364 0 
L 0 0 
z
" style="fill: #ffffff"/>
  </g>
  <g id="axes_1">
   <g id="patch_2">
    <path d="M 58.95 312.66 
L 510.676364 312.66 
L 510.676364 12.96 
L 58.95 12.96 
z
" style="fill: #eaeaf2"/>
   </g>
   <g id="matplotlib.axis_1">
    <g id="xtick_1">
     <g id="line2d_1">
      <path d="M 79.483017 312.66 
L 79.483017 12.96 
" clip-path="url(#p34c8ea54f6)" style="fill: none; stroke: #ffffff; stroke-linecap: round"/>
     </g>
     <g id="text_1">
      <!-- −10.0 -->
      <g style="fill: #262626" transform="translate(65.567157 330.033594) scale(0.11 -0.11)">
       <defs>
        <path id="ArialMT-2212" d="M 3381 1997 
L 356 1997 
L 356 2522 
L 3381 2522 
L 3381 1997 
z
" transform="scale(0.015625)"/>
        <path id="ArialMT-31" d="M 2384 0 
L 1822 0 
L 1822 3584 
Q 1619 3391 1289 3197 
Q 959 3003 697 2906 
L 697 3450 
Q 1169 3672 1522 3987 
Q 1875 4303 2022 4600 
L 2384 4600 
L 2384 0 
z
" transform="scale(0.015625)"/>
        <path id="ArialMT-30" d="M 266 2259 
Q 266 3072 433 3567 
Q 600 4063 929 4331 
Q 1259 4600 1759 4600 
Q 2128 4600 2406 4451 
Q 2684 4303 2865 4023 
Q 3047 3744 3150 3342 
Q 3253 2941 3253 2259 
Q 3253 1453 3087 958 
Q 2922 463 2592 192 
Q 2263 -78 1759 -78 
Q 1097 -78 719 397 
Q 266 969 266 2259 
z
M 844 2259 
Q 844 1131 1108 757 
Q 1372 384 1759 384 
Q 2147 384 2411 759 
Q 2675 1134 2675 2259 
Q 2675 3391 2411 3762 
Q 2147 4134 1753 4134 
Q 1366 4134 1134 3806 
Q 844 3388 844 2259 
z
" transform="scale(0.015625)"/>
        <path id="ArialMT-2e" d="M 581 0 
L 581 641 
L 1222 641 
L 1222 0 
L 581 0 
z
" transform="scale(0.015625)"/>
       </defs>
       <use xlink:href="#ArialMT-2212"/>
       <use xlink:href="#ArialMT-31" x="58.398438"/>
       <use xlink:href="#ArialMT-30" x="114.013672"/>
       <use xlink:href="#ArialMT-2e" x="169.628906"/>
       <use xlink:href="#ArialMT-30" x="197.412109"/>
      </g>
     </g>
    </g>
    <g id="xtick_2">
     <g id="line2d_2">
      <path d="M 114.884769 312.66 
L 114.884769 12.96 
" clip-path="url(#p34c8ea54f6)" style="fill: none; stroke: #ffffff; stroke-linecap: round"/>
     </g>
     <g id="text_2">
      <!-- −7.5 -->
      <g style="fill: #262626" transform="translate(104.027425 330.033594) scale(0.11 -0.11)">
       <defs>
        <path id="ArialMT-37" d="M 303 3981 
L 303 4522 
L 3269 4522 
L 3269 4084 
Q 2831 3619 2401 2847 
Q 1972 2075 1738 1259 
Q 1569 684 1522 0 
L 944 0 
Q 953 541 1156 1306 
Q 1359 2072 1739 2783 
Q 2119 3494 2547 3981 
L 303 3981 
z
" transform="scale(0.015625)"/>
        <path id="ArialMT-35" d="M 266 1200 
L 856 1250 
Q 922 819 1161 601 
Q 1400 384 1738 384 
Q 2144 384 2425 690 
Q 2706 997 2706 1503 
Q 2706 1984 2436 2262 
Q 2166 2541 1728 2541 
Q 1456 2541 1237 2417 
Q 1019 2294 894 2097 
L 366 2166 
L 809 4519 
L 3088 4519 
L 3088 3981 
L 1259 3981 
L 1013 2750 
Q 1425 3038 1878 3038 
Q 2478 3038 2890 2622 
Q 3303 2206 3303 1553 
Q 3303 931 2941 478 
Q 2500 -78 1738 -78 
Q 1113 -78 717 272 
Q 322 622 266 1200 
z
" transform="scale(0.015625)"/>
       </defs>
       <use xlink:href="#ArialMT-2212"/>
       <use xlink:href="#ArialMT-37" x="58.398438"/>
       <use xlink:href="#ArialMT-2e" x="114.013672"/>
       <use xlink:href="#ArialMT-35" x="141.796875"/>
      </g>
     </g>
    </g>
    <g id="xtick_3">
     <g id="line2d_3">
      <path d="M 150.286522 312.66 
L 150.286522 12.96 
" clip-path="url(#p34c8ea54f6)" style="fill: none; stroke: #ffffff; stroke-linecap: round"/>
     </g>
     <g id="text_3">
      <!-- −5.0 -->
      <g style="fill: #262626" transform="translate(139.429178 330.033594) scale(0.11 -0.11)">
       <use xlink:href="#ArialMT-2212"/>
       <use xlink:href="#ArialMT-35" x="58.398438"/>
       <use xlink:href="#ArialMT-2e" x="114.013672"/>
       <use xlink:href="#ArialMT-30" x="141.796875"/>
      </g>
     </g>
    </g>
    <g id="xtick_4">
     <g id="line2d_4">
      <path d="M 185.688274 312.66 
L 185.688274 12.96 
" clip-path="url(#p34c8ea54f6)" style="fill: none; stroke: #ffffff; stroke-linecap: round"/>
     </g>
     <g id="text_4">
      <!-- −2.5 -->
      <g style="fill: #262626" transform="translate(174.830931 330.033594) scale(0.11 -0.11)">
       <defs>
        <path id="ArialMT-32" d="M 3222 541 
L 3222 0 
L 194 0 
Q 188 203 259 391 
Q 375 700 629 1000 
Q 884 1300 1366 1694 
Q 2113 2306 2375 2664 
Q 2638 3022 2638 3341 
Q 2638 3675 2398 3904 
Q 2159 4134 1775 4134 
Q 1369 4134 1125 3890 
Q 881 3647 878 3216 
L 300 3275 
Q 359 3922 746 4261 
Q 1134 4600 1788 4600 
Q 2447 4600 2831 4234 
Q 3216 3869 3216 3328 
Q 3216 3053 3103 2787 
Q 2991 2522 2730 2228 
Q 2469 1934 1863 1422 
Q 1356 997 1212 845 
Q 1069 694 975 541 
L 3222 541 
z
" transform="scale(0.015625)"/>
       </defs>
       <use xlink:href="#ArialMT-2212"/>
       <use xlink:href="#ArialMT-32" x="58.398438"/>
       <use xlink:href="#ArialMT-2e" x="114.013672"/>
       <use xlink:href="#ArialMT-35" x="141.796875"/>
      </g>
     </g>
    </g>
    <g id="xtick_5">
     <g id="line2d_5">
      <path d="M 221.090027 312.66 
L 221.090027 12.96 
" clip-path="url(#p34c8ea54f6)" style="fill: none; stroke: #ffffff; stroke-linecap: round"/>
     </g>
     <g id="text_5">
      <!-- 0.0 -->
      <g style="fill: #262626" transform="translate(213.445027 330.033594) scale(0.11 -0.11)">
       <use xlink:href="#ArialMT-30"/>
       <use xlink:href="#ArialMT-2e" x="55.615234"/>
       <use xlink:href="#ArialMT-30" x="83.398438"/>
      </g>
     </g>
    </g>
    <g id="xtick_6">
     <g id="line2d_6">
      <path d="M 256.49178 312.66 
L 256.49178 12.96 
" clip-path="url(#p34c8ea54f6)" style="fill: none; stroke: #ffffff; stroke-linecap: round"/>
     </g>
     <g id="text_6">
      <!-- 2.5 -->
      <g style="fill: #262626" transform="translate(248.84678 330.033594) scale(0.11 -0.11)">
       <use xlink:href="#ArialMT-32"/>
       <use xlink:href="#ArialMT-2e" x="55.615234"/>
       <use xlink:href="#ArialMT-35" x="83.398438"/>
      </g>
     </g>
    </g>
    <g id="xtick_7">
     <g id="line2d_7">
      <path d="M 291.893532 312.66 
L 291.893532 12.96 
" clip-path="url(#p34c8ea54f6)" style="fill: none; stroke: #ffffff; stroke-linecap: round"/>
     </g>
     <g id="text_7">
      <!-- 5.0 -->
      <g style="fill: #262626" transform="translate(284.248532 330.033594) scale(0.11 -0.11)">
       <use xlink:href="#ArialMT-35"/>
       <use xlink:href="#ArialMT-2e" x="55.615234"/>
       <use xlink:href="#ArialMT-30" x="83.398438"/>
      </g>
     </g>
    </g>
    <g id="xtick_8">
     <g id="line2d_8">
      <path d="M 327.295285 312.66 
L 327.295285 12.96 
" clip-path="url(#p34c8ea54f6)" style="fill: none; stroke: #ffffff; stroke-linecap: round"/>
     </g>
     <g id="text_8">
      <!-- 7.5 -->
      <g style="fill: #262626" transform="translate(319.650285 330.033594) scale(0.11 -0.11)">
       <use xlink:href="#ArialMT-37"/>
       <use xlink:href="#ArialMT-2e" x="55.615234"/>
       <use xlink:href="#ArialMT-35" x="83.398438"/>
      </g>
     </g>
    </g>
    <g id="xtick_9">
     <g id="line2d_9">
      <path d="M 362.697038 312.66 
L 362.697038 12.96 
" clip-path="url(#p34c8ea54f6)" style="fill: none; stroke: #ffffff; stroke-linecap: round"/>
     </g>
     <g id="text_9">
      <!-- 10.0 -->
      <g style="fill: #262626" transform="translate(351.993522 330.033594) scale(0.11 -0.11)">
       <use xlink:href="#ArialMT-31"/>
       <use xlink:href="#ArialMT-30" x="55.615234"/>
       <use xlink:href="#ArialMT-2e" x="111.230469"/>
       <use xlink:href="#ArialMT-30" x="139.013672"/>
      </g>
     </g>
    </g>
    <g id="xtick_10">
     <g id="line2d_10">
      <path d="M 398.09879 312.66 
L 398.09879 12.96 
" clip-path="url(#p34c8ea54f6)" style="fill: none; stroke: #ffffff; stroke-linecap: round"/>
     </g>
     <g id="text_10">
      <!-- 12.5 -->
      <g style="fill: #262626" transform="translate(387.395275 330.033594) scale(0.11 -0.11)">
       <use xlink:href="#ArialMT-31"/>
       <use xlink:href="#ArialMT-32" x="55.615234"/>
       <use xlink:href="#ArialMT-2e" x="111.230469"/>
       <use xlink:href="#ArialMT-35" x="139.013672"/>
      </g>
     </g>
    </g>
    <g id="xtick_11">
     <g id="line2d_11">
      <path d="M 433.500543 312.66 
L 433.500543 12.96 
" clip-path="url(#p34c8ea54f6)" style="fill: none; stroke: #ffffff; stroke-linecap: round"/>
     </g>
     <g id="text_11">
      <!-- 15.0 -->
      <g style="fill: #262626" transform="translate(422.797027 330.033594) scale(0.11 -0.11)">
       <use xlink:href="#ArialMT-31"/>
       <use xlink:href="#ArialMT-35" x="55.615234"/>
       <use xlink:href="#ArialMT-2e" x="111.230469"/>
       <use xlink:href="#ArialMT-30" x="139.013672"/>
      </g>
     </g>
    </g>
    <g id="xtick_12">
     <g id="line2d_12">
      <path d="M 468.902296 312.66 
L 468.902296 12.96 
" clip-path="url(#p34c8ea54f6)" style="fill: none; stroke: #ffffff; stroke-linecap: round"/>
     </g>
     <g id="text_12">
      <!-- 17.5 -->
      <g style="fill: #262626" transform="translate(458.19878 330.033594) scale(0.11 -0.11)">
       <use xlink:href="#ArialMT-31"/>
       <use xlink:href="#ArialMT-37" x="55.615234"/>
       <use xlink:href="#ArialMT-2e" x="111.230469"/>
       <use xlink:href="#ArialMT-35" x="139.013672"/>
      </g>
     </g>
    </g>
    <g id="xtick_13">
     <g id="line2d_13">
      <path d="M 504.304048 312.66 
L 504.304048 12.96 
" clip-path="url(#p34c8ea54f6)" style="fill: none; stroke: #ffffff; stroke-linecap: round"/>
     </g>
     <g id="text_13">
      <!-- 20.0 -->
      <g style="fill: #262626" transform="translate(493.600533 330.033594) scale(0.11 -0.11)">
       <use xlink:href="#ArialMT-32"/>
       <use xlink:href="#ArialMT-30" x="55.615234"/>
       <use xlink:href="#ArialMT-2e" x="111.230469"/>
       <use xlink:href="#ArialMT-30" x="139.013672"/>
      </g>
     </g>
    </g>
    <g id="text_14">
     <!-- α [°] -->
     <g style="fill: #262626" transform="translate(273.944744 344.955469) scale(0.12 -0.12)">
      <defs>
       <path id="ArialMT-3b1" d="M 2884 3319 
L 3459 3319 
Q 3241 2631 3056 1659 
Q 3275 453 3459 0 
L 2900 0 
Q 2766 313 2697 606 
Q 2438 -75 1613 -75 
Q 988 -75 606 394 
Q 225 863 225 1666 
Q 225 2491 608 2942 
Q 991 3394 1622 3394 
Q 2013 3394 2259 3236 
Q 2506 3078 2719 2756 
Q 2741 2866 2884 3319 
z
M 1716 2928 
Q 1313 2928 1078 2603 
Q 844 2278 844 1666 
Q 844 1069 1066 728 
Q 1288 388 1684 388 
Q 2072 388 2331 723 
Q 2591 1059 2591 1691 
Q 2591 2303 2348 2615 
Q 2106 2928 1716 2928 
z
" transform="scale(0.015625)"/>
       <path id="ArialMT-20" transform="scale(0.015625)"/>
       <path id="ArialMT-5b" d="M 434 -1272 
L 434 4581 
L 1675 4581 
L 1675 4116 
L 997 4116 
L 997 -806 
L 1675 -806 
L 1675 -1272 
L 434 -1272 
z
" transform="scale(0.015625)"/>
       <path id="ArialMT-b0" d="M 400 3794 
Q 400 4153 654 4406 
Q 909 4659 1266 4659 
Q 1628 4659 1881 4406 
Q 2134 4153 2134 3794 
Q 2134 3434 1879 3179 
Q 1625 2925 1266 2925 
Q 909 2925 654 3178 
Q 400 3431 400 3794 
z
M 741 3794 
Q 741 3575 895 3420 
Q 1050 3266 1269 3266 
Q 1484 3266 1639 3420 
Q 1794 3575 1794 3794 
Q 1794 4013 1639 4167 
Q 1484 4322 1269 4322 
Q 1050 4322 895 4167 
Q 741 4013 741 3794 
z
" transform="scale(0.015625)"/>
       <path id="ArialMT-5d" d="M 1363 -1272 
L 122 -1272 
L 122 -806 
L 800 -806 
L 800 4116 
L 122 4116 
L 122 4581 
L 1363 4581 
L 1363 -1272 
z
" transform="scale(0.015625)"/>
      </defs>
      <use xlink:href="#ArialMT-3b1"/>
      <use xlink:href="#ArialMT-20" x="57.8125"/>
      <use xlink:href="#ArialMT-5b" x="85.595703"/>
      <use xlink:href="#ArialMT-b0" x="113.378906"/>
      <use xlink:href="#ArialMT-5d" x="153.369141"/>
     </g>
    </g>
   </g>
   <g id="matplotlib.axis_2">
    <g id="ytick_1">
     <g id="line2d_14">
      <path d="M 58.95 300.772652 
L 510.676364 300.772652 
" clip-path="url(#p34c8ea54f6)" style="fill: none; stroke: #ffffff; stroke-linecap: round"/>
     </g>
     <g id="text_15">
      <!-- −1.00 -->
      <g style="fill: #262626" transform="translate(21.618281 304.709449) scale(0.11 -0.11)">
       <use xlink:href="#ArialMT-2212"/>
       <use xlink:href="#ArialMT-31" x="58.398438"/>
       <use xlink:href="#ArialMT-2e" x="114.013672"/>
       <use xlink:href="#ArialMT-30" x="141.796875"/>
       <use xlink:href="#ArialMT-30" x="197.412109"/>
      </g>
     </g>
    </g>
    <g id="ytick_2">
     <g id="line2d_15">
      <path d="M 58.95 269.560795 
L 510.676364 269.560795 
" clip-path="url(#p34c8ea54f6)" style="fill: none; stroke: #ffffff; stroke-linecap: round"/>
     </g>
     <g id="text_16">
      <!-- −0.75 -->
      <g style="fill: #262626" transform="translate(21.618281 273.497591) scale(0.11 -0.11)">
       <use xlink:href="#ArialMT-2212"/>
       <use xlink:href="#ArialMT-30" x="58.398438"/>
       <use xlink:href="#ArialMT-2e" x="114.013672"/>
       <use xlink:href="#ArialMT-37" x="141.796875"/>
       <use xlink:href="#ArialMT-35" x="197.412109"/>
      </g>
     </g>
    </g>
    <g id="ytick_3">
     <g id="line2d_16">
      <path d="M 58.95 238.348937 
L 510.676364 238.348937 
" clip-path="url(#p34c8ea54f6)" style="fill: none; stroke: #ffffff; stroke-linecap: round"/>
     </g>
     <g id="text_17">
      <!-- −0.50 -->
      <g style="fill: #262626" transform="translate(21.618281 242.285734) scale(0.11 -0.11)">
       <use xlink:href="#ArialMT-2212"/>
       <use xlink:href="#ArialMT-30" x="58.398438"/>
       <use xlink:href="#ArialMT-2e" x="114.013672"/>
       <use xlink:href="#ArialMT-35" x="141.796875"/>
       <use xlink:href="#ArialMT-30" x="197.412109"/>
      </g>
     </g>
    </g>
    <g id="ytick_4">
     <g id="line2d_17">
      <path d="M 58.95 207.13708 
L 510.676364 207.13708 
" clip-path="url(#p34c8ea54f6)" style="fill: none; stroke: #ffffff; stroke-linecap: round"/>
     </g>
     <g id="text_18">
      <!-- −0.25 -->
      <g style="fill: #262626" transform="translate(21.618281 211.073877) scale(0.11 -0.11)">
       <use xlink:href="#ArialMT-2212"/>
       <use xlink:href="#ArialMT-30" x="58.398438"/>
       <use xlink:href="#ArialMT-2e" x="114.013672"/>
       <use xlink:href="#ArialMT-32" x="141.796875"/>
       <use xlink:href="#ArialMT-35" x="197.412109"/>
      </g>
     </g>
    </g>
    <g id="ytick_5">
     <g id="line2d_18">
      <path d="M 58.95 175.925222 
L 510.676364 175.925222 
" clip-path="url(#p34c8ea54f6)" style="fill: none; stroke: #ffffff; stroke-linecap: round"/>
     </g>
     <g id="text_19">
      <!-- 0.00 -->
      <g style="fill: #262626" transform="translate(28.042969 179.862019) scale(0.11 -0.11)">
       <use xlink:href="#ArialMT-30"/>
       <use xlink:href="#ArialMT-2e" x="55.615234"/>
       <use xlink:href="#ArialMT-30" x="83.398438"/>
       <use xlink:href="#ArialMT-30" x="139.013672"/>
      </g>
     </g>
    </g>
    <g id="ytick_6">
     <g id="line2d_19">
      <path d="M 58.95 144.713365 
L 510.676364 144.713365 
" clip-path="url(#p34c8ea54f6)" style="fill: none; stroke: #ffffff; stroke-linecap: round"/>
     </g>
     <g id="text_20">
      <!-- 0.25 -->
      <g style="fill: #262626" transform="translate(28.042969 148.650162) scale(0.11 -0.11)">
       <use xlink:href="#ArialMT-30"/>
       <use xlink:href="#ArialMT-2e" x="55.615234"/>
       <use xlink:href="#ArialMT-32" x="83.398438"/>
       <use xlink:href="#ArialMT-35" x="139.013672"/>
      </g>
     </g>
    </g>
    <g id="ytick_7">
     <g id="line2d_20">
      <path d="M 58.95 113.501508 
L 510.676364 113.501508 
" clip-path="url(#p34c8ea54f6)" style="fill: none; stroke: #ffffff; stroke-linecap: round"/>
     </g>
     <g id="text_21">
      <!-- 0.50 -->
      <g style="fill: #262626" transform="translate(28.042969 117.438305) scale(0.11 -0.11)">
       <use xlink:href="#ArialMT-30"/>
       <use xlink:href="#ArialMT-2e" x="55.615234"/>
       <use xlink:href="#ArialMT-35" x="83.398438"/>
       <use xlink:href="#ArialMT-30" x="139.013672"/>
      </g>
     </g>
    </g>
    <g id="ytick_8">
     <g id="line2d_21">
      <path d="M 58.95 82.28965 
L 510.676364 82.28965 
" clip-path="url(#p34c8ea54f6)" style="fill: none; stroke: #ffffff; stroke-linecap: round"/>
     </g>
     <g id="text_22">
      <!-- 0.75 -->
      <g style="fill: #262626" transform="translate(28.042969 86.226447) scale(0.11 -0.11)">
       <use xlink:href="#ArialMT-30"/>
       <use xlink:href="#ArialMT-2e" x="55.615234"/>
       <use xlink:href="#ArialMT-37" x="83.398438"/>
       <use xlink:href="#ArialMT-35" x="139.013672"/>
      </g>
     </g>
    </g>
    <g id="ytick_9">
     <g id="line2d_22">
      <path d="M 58.95 51.077793 
L 510.676364 51.077793 
" clip-path="url(#p34c8ea54f6)" style="fill: none; stroke: #ffffff; stroke-linecap: round"/>
     </g>
     <g id="text_23">
      <!-- 1.00 -->
      <g style="fill: #262626" transform="translate(28.042969 55.01459) scale(0.11 -0.11)">
       <use xlink:href="#ArialMT-31"/>
       <use xlink:href="#ArialMT-2e" x="55.615234"/>
       <use xlink:href="#ArialMT-30" x="83.398438"/>
       <use xlink:href="#ArialMT-30" x="139.013672"/>
      </g>
     </g>
    </g>
    <g id="ytick_10">
     <g id="line2d_23">
      <path d="M 58.95 19.865936 
L 510.676364 19.865936 
" clip-path="url(#p34c8ea54f6)" style="fill: none; stroke: #ffffff; stroke-linecap: round"/>
     </g>
     <g id="text_24">
      <!-- 1.25 -->
      <g style="fill: #262626" transform="translate(28.042969 23.802732) scale(0.11 -0.11)">
       <use xlink:href="#ArialMT-31"/>
       <use xlink:href="#ArialMT-2e" x="55.615234"/>
       <use xlink:href="#ArialMT-32" x="83.398438"/>
       <use xlink:href="#ArialMT-35" x="139.013672"/>
      </g>
     </g>
    </g>
    <g id="text_25">
     <!-- Cl [-] -->
     <g style="fill: #262626" transform="translate(15.233281 175.474688) rotate(-90) scale(0.12 -0.12)">
      <defs>
       <path id="ArialMT-43" d="M 3763 1606 
L 4369 1453 
Q 4178 706 3683 314 
Q 3188 -78 2472 -78 
Q 1731 -78 1267 223 
Q 803 525 561 1097 
Q 319 1669 319 2325 
Q 319 3041 592 3573 
Q 866 4106 1370 4382 
Q 1875 4659 2481 4659 
Q 3169 4659 3637 4309 
Q 4106 3959 4291 3325 
L 3694 3184 
Q 3534 3684 3231 3912 
Q 2928 4141 2469 4141 
Q 1941 4141 1586 3887 
Q 1231 3634 1087 3207 
Q 944 2781 944 2328 
Q 944 1744 1114 1308 
Q 1284 872 1643 656 
Q 2003 441 2422 441 
Q 2931 441 3284 734 
Q 3638 1028 3763 1606 
z
" transform="scale(0.015625)"/>
       <path id="ArialMT-6c" d="M 409 0 
L 409 4581 
L 972 4581 
L 972 0 
L 409 0 
z
" transform="scale(0.015625)"/>
       <path id="ArialMT-2d" d="M 203 1375 
L 203 1941 
L 1931 1941 
L 1931 1375 
L 203 1375 
z
" transform="scale(0.015625)"/>
      </defs>
      <use xlink:href="#ArialMT-43"/>
      <use xlink:href="#ArialMT-6c" x="72.216797"/>
      <use xlink:href="#ArialMT-20" x="94.433594"/>
      <use xlink:href="#ArialMT-5b" x="122.216797"/>
      <use xlink:href="#ArialMT-2d" x="150"/>
      <use xlink:href="#ArialMT-5d" x="183.300781"/>
     </g>
    </g>
   </g>
   <g id="PolyCollection_1"/>
   <g id="PathCollection_1">
    <path d="M 79.483017 302.037273 
C 80.278626 302.037273 81.041756 301.721174 81.604337 301.158593 
C 82.166918 300.596012 82.483017 299.832882 82.483017 299.037273 
C 82.483017 298.241663 82.166918 297.478533 81.604337 296.915952 
C 81.041756 296.353372 80.278626 296.037273 79.483017 296.037273 
C 78.687407 296.037273 77.924277 296.353372 77.361696 296.915952 
C 76.799115 297.478533 76.483017 298.241663 76.483017 299.037273 
C 76.483017 299.832882 76.799115 300.596012 77.361696 301.158593 
C 77.924277 301.721174 78.687407 302.037273 79.483017 302.037273 
z
" clip-path="url(#p34c8ea54f6)" style="fill: #a6cee3; stroke: #ffffff; stroke-width: 0.48"/>
    <path d="M 93.643718 295.957203 
C 94.439327 295.957203 95.202457 295.641104 95.765038 295.078523 
C 96.327619 294.515943 96.643718 293.752812 96.643718 292.957203 
C 96.643718 292.161594 96.327619 291.398463 95.765038 290.835883 
C 95.202457 290.273302 94.439327 289.957203 93.643718 289.957203 
C 92.848108 289.957203 92.084978 290.273302 91.522397 290.835883 
C 90.959817 291.398463 90.643718 292.161594 90.643718 292.957203 
C 90.643718 293.752812 90.959817 294.515943 91.522397 295.078523 
C 92.084978 295.641104 92.848108 295.957203 93.643718 295.957203 
z
" clip-path="url(#p34c8ea54f6)" style="fill: #a6cee3; stroke: #ffffff; stroke-width: 0.48"/>
    <path d="M 107.804419 281.062905 
C 108.600028 281.062905 109.363158 280.746806 109.925739 280.184225 
C 110.48832 279.621644 110.804419 278.858514 110.804419 278.062905 
C 110.804419 277.267295 110.48832 276.504165 109.925739 275.941584 
C 109.363158 275.379003 108.600028 275.062905 107.804419 275.062905 
C 107.008809 275.062905 106.245679 275.379003 105.683098 275.941584 
C 105.120518 276.504165 104.804419 277.267295 104.804419 278.062905 
C 104.804419 278.858514 105.120518 279.621644 105.683098 280.184225 
C 106.245679 280.746806 107.008809 281.062905 107.804419 281.062905 
z
" clip-path="url(#p34c8ea54f6)" style="fill: #a6cee3; stroke: #ffffff; stroke-width: 0.48"/>
    <path d="M 136.125821 257.266984 
C 136.92143 257.266984 137.68456 256.950886 138.247141 256.388305 
C 138.809722 255.825724 139.125821 255.062594 139.125821 254.266984 
C 139.125821 253.471375 138.809722 252.708245 138.247141 252.145664 
C 137.68456 251.583083 136.92143 251.266984 136.125821 251.266984 
C 135.330211 251.266984 134.567081 251.583083 134.0045 252.145664 
C 133.44192 252.708245 133.125821 253.471375 133.125821 254.266984 
C 133.125821 255.062594 133.44192 255.825724 134.0045 256.388305 
C 134.567081 256.950886 135.330211 257.266984 136.125821 257.266984 
z
" clip-path="url(#p34c8ea54f6)" style="fill: #a6cee3; stroke: #ffffff; stroke-width: 0.48"/>
    <path d="M 150.286522 246.405258 
C 151.082131 246.405258 151.845261 246.089159 152.407842 245.526578 
C 152.970423 244.963998 153.286522 244.200867 153.286522 243.405258 
C 153.286522 242.609649 152.970423 241.846519 152.407842 241.283938 
C 151.845261 240.721357 151.082131 240.405258 150.286522 240.405258 
C 149.490913 240.405258 148.727782 240.721357 148.165201 241.283938 
C 147.602621 241.846519 147.286522 242.609649 147.286522 243.405258 
C 147.286522 244.200867 147.602621 244.963998 148.165201 245.526578 
C 148.727782 246.089159 149.490913 246.405258 150.286522 246.405258 
z
" clip-path="url(#p34c8ea54f6)" style="fill: #a6cee3; stroke: #ffffff; stroke-width: 0.48"/>
    <path d="M 157.366872 241.548693 
C 158.162482 241.548693 158.925612 241.232594 159.488193 240.670013 
C 160.050773 240.107433 160.366872 239.344302 160.366872 238.548693 
C 160.366872 237.753084 160.050773 236.989954 159.488193 236.427373 
C 158.925612 235.864792 158.162482 235.548693 157.366872 235.548693 
C 156.571263 235.548693 155.808133 235.864792 155.245552 236.427373 
C 154.682971 236.989954 154.366872 237.753084 154.366872 238.548693 
C 154.366872 239.344302 154.682971 240.107433 155.245552 240.670013 
C 155.808133 241.232594 156.571263 241.548693 157.366872 241.548693 
z
" clip-path="url(#p34c8ea54f6)" style="fill: #a6cee3; stroke: #ffffff; stroke-width: 0.48"/>
    <path d="M 164.447223 234.994203 
C 165.242832 234.994203 166.005962 234.678104 166.568543 234.115523 
C 167.131124 233.552943 167.447223 232.789812 167.447223 231.994203 
C 167.447223 231.198594 167.131124 230.435463 166.568543 229.872883 
C 166.005962 229.310302 165.242832 228.994203 164.447223 228.994203 
C 163.651614 228.994203 162.888483 229.310302 162.325903 229.872883 
C 161.763322 230.435463 161.447223 231.198594 161.447223 231.994203 
C 161.447223 232.789812 161.763322 233.552943 162.325903 234.115523 
C 162.888483 234.678104 163.651614 234.994203 164.447223 234.994203 
z
" clip-path="url(#p34c8ea54f6)" style="fill: #a6cee3; stroke: #ffffff; stroke-width: 0.48"/>
    <path d="M 171.527573 228.127594 
C 172.323183 228.127594 173.086313 227.811496 173.648894 227.248915 
C 174.211474 226.686334 174.527573 225.923204 174.527573 225.127594 
C 174.527573 224.331985 174.211474 223.568855 173.648894 223.006274 
C 173.086313 222.443693 172.323183 222.127594 171.527573 222.127594 
C 170.731964 222.127594 169.968834 222.443693 169.406253 223.006274 
C 168.843672 223.568855 168.527573 224.331985 168.527573 225.127594 
C 168.527573 225.923204 168.843672 226.686334 169.406253 227.248915 
C 169.968834 227.811496 170.731964 228.127594 171.527573 228.127594 
z
" clip-path="url(#p34c8ea54f6)" style="fill: #a6cee3; stroke: #ffffff; stroke-width: 0.48"/>
    <path d="M 178.607924 221.198562 
C 179.403533 221.198562 180.166664 220.882463 180.729244 220.319882 
C 181.291825 219.757302 181.607924 218.994171 181.607924 218.198562 
C 181.607924 217.402953 181.291825 216.639822 180.729244 216.077242 
C 180.166664 215.514661 179.403533 215.198562 178.607924 215.198562 
C 177.812315 215.198562 177.049184 215.514661 176.486604 216.077242 
C 175.924023 216.639822 175.607924 217.402953 175.607924 218.198562 
C 175.607924 218.994171 175.924023 219.757302 176.486604 220.319882 
C 177.049184 220.882463 177.812315 221.198562 178.607924 221.198562 
z
" clip-path="url(#p34c8ea54f6)" style="fill: #a6cee3; stroke: #ffffff; stroke-width: 0.48"/>
    <path d="M 185.688274 214.26953 
C 186.483884 214.26953 187.247014 213.953431 187.809595 213.39085 
C 188.372176 212.828269 188.688274 212.065139 188.688274 211.26953 
C 188.688274 210.47392 188.372176 209.71079 187.809595 209.148209 
C 187.247014 208.585629 186.483884 208.26953 185.688274 208.26953 
C 184.892665 208.26953 184.129535 208.585629 183.566954 209.148209 
C 183.004373 209.71079 182.688274 210.47392 182.688274 211.26953 
C 182.688274 212.065139 183.004373 212.828269 183.566954 213.39085 
C 184.129535 213.953431 184.892665 214.26953 185.688274 214.26953 
z
" clip-path="url(#p34c8ea54f6)" style="fill: #a6cee3; stroke: #ffffff; stroke-width: 0.48"/>
    <path d="M 192.768625 207.290558 
C 193.564234 207.290558 194.327365 206.97446 194.889945 206.411879 
C 195.452526 205.849298 195.768625 205.086168 195.768625 204.290558 
C 195.768625 203.494949 195.452526 202.731819 194.889945 202.169238 
C 194.327365 201.606657 193.564234 201.290558 192.768625 201.290558 
C 191.973016 201.290558 191.209885 201.606657 190.647305 202.169238 
C 190.084724 202.731819 189.768625 203.494949 189.768625 204.290558 
C 189.768625 205.086168 190.084724 205.849298 190.647305 206.411879 
C 191.209885 206.97446 191.973016 207.290558 192.768625 207.290558 
z
" clip-path="url(#p34c8ea54f6)" style="fill: #a6cee3; stroke: #ffffff; stroke-width: 0.48"/>
    <path d="M 199.848975 200.261648 
C 200.644585 200.261648 201.407715 199.945549 201.970296 199.382969 
C 202.532877 198.820388 202.848975 198.057257 202.848975 197.261648 
C 202.848975 196.466039 202.532877 195.702909 201.970296 195.140328 
C 201.407715 194.577747 200.644585 194.261648 199.848975 194.261648 
C 199.053366 194.261648 198.290236 194.577747 197.727655 195.140328 
C 197.165074 195.702909 196.848975 196.466039 196.848975 197.261648 
C 196.848975 198.057257 197.165074 198.820388 197.727655 199.382969 
C 198.290236 199.945549 199.053366 200.261648 199.848975 200.261648 
z
" clip-path="url(#p34c8ea54f6)" style="fill: #a6cee3; stroke: #ffffff; stroke-width: 0.48"/>
    <path d="M 206.929326 193.157829 
C 207.724935 193.157829 208.488066 192.841731 209.050646 192.27915 
C 209.613227 191.716569 209.929326 190.953439 209.929326 190.157829 
C 209.929326 189.36222 209.613227 188.59909 209.050646 188.036509 
C 208.488066 187.473928 207.724935 187.157829 206.929326 187.157829 
C 206.133717 187.157829 205.370586 187.473928 204.808006 188.036509 
C 204.245425 188.59909 203.929326 189.36222 203.929326 190.157829 
C 203.929326 190.953439 204.245425 191.716569 204.808006 192.27915 
C 205.370586 192.841731 206.133717 193.157829 206.929326 193.157829 
z
" clip-path="url(#p34c8ea54f6)" style="fill: #a6cee3; stroke: #ffffff; stroke-width: 0.48"/>
    <path d="M 214.009677 186.041526 
C 214.805286 186.041526 215.568416 185.725427 216.130997 185.162846 
C 216.693578 184.600266 217.009677 183.837135 217.009677 183.041526 
C 217.009677 182.245917 216.693578 181.482786 216.130997 180.920206 
C 215.568416 180.357625 214.805286 180.041526 214.009677 180.041526 
C 213.214067 180.041526 212.450937 180.357625 211.888356 180.920206 
C 211.325775 181.482786 211.009677 182.245917 211.009677 183.041526 
C 211.009677 183.837135 211.325775 184.600266 211.888356 185.162846 
C 212.450937 185.725427 213.214067 186.041526 214.009677 186.041526 
z
" clip-path="url(#p34c8ea54f6)" style="fill: #a6cee3; stroke: #ffffff; stroke-width: 0.48"/>
    <path d="M 221.090027 178.925222 
C 221.885636 178.925222 222.648767 178.609124 223.211347 178.046543 
C 223.773928 177.483962 224.090027 176.720832 224.090027 175.925222 
C 224.090027 175.129613 223.773928 174.366483 223.211347 173.803902 
C 222.648767 173.241321 221.885636 172.925222 221.090027 172.925222 
C 220.294418 172.925222 219.531287 173.241321 218.968707 173.803902 
C 218.406126 174.366483 218.090027 175.129613 218.090027 175.925222 
C 218.090027 176.720832 218.406126 177.483962 218.968707 178.046543 
C 219.531287 178.609124 220.294418 178.925222 221.090027 178.925222 
z
" clip-path="url(#p34c8ea54f6)" style="fill: #a6cee3; stroke: #ffffff; stroke-width: 0.48"/>
    <path d="M 228.170378 171.808919 
C 228.965987 171.808919 229.729117 171.49282 230.291698 170.930239 
C 230.854279 170.367659 231.170378 169.604528 231.170378 168.808919 
C 231.170378 168.01331 230.854279 167.250179 230.291698 166.687599 
C 229.729117 166.125018 228.965987 165.808919 228.170378 165.808919 
C 227.374768 165.808919 226.611638 166.125018 226.049057 166.687599 
C 225.486477 167.250179 225.170378 168.01331 225.170378 168.808919 
C 225.170378 169.604528 225.486477 170.367659 226.049057 170.930239 
C 226.611638 171.49282 227.374768 171.808919 228.170378 171.808919 
z
" clip-path="url(#p34c8ea54f6)" style="fill: #a6cee3; stroke: #ffffff; stroke-width: 0.48"/>
    <path d="M 235.250728 164.692616 
C 236.046337 164.692616 236.809468 164.376517 237.372048 163.813936 
C 237.934629 163.251355 238.250728 162.488225 238.250728 161.692616 
C 238.250728 160.897006 237.934629 160.133876 237.372048 159.571295 
C 236.809468 159.008714 236.046337 158.692616 235.250728 158.692616 
C 234.455119 158.692616 233.691989 159.008714 233.129408 159.571295 
C 232.566827 160.133876 232.250728 160.897006 232.250728 161.692616 
C 232.250728 162.488225 232.566827 163.251355 233.129408 163.813936 
C 233.691989 164.376517 234.455119 164.692616 235.250728 164.692616 
z
" clip-path="url(#p34c8ea54f6)" style="fill: #a6cee3; stroke: #ffffff; stroke-width: 0.48"/>
    <path d="M 242.331079 157.588797 
C 243.126688 157.588797 243.889818 157.272698 244.452399 156.710117 
C 245.01498 156.147536 245.331079 155.384406 245.331079 154.588797 
C 245.331079 153.793187 245.01498 153.030057 244.452399 152.467476 
C 243.889818 151.904896 243.126688 151.588797 242.331079 151.588797 
C 241.535469 151.588797 240.772339 151.904896 240.209758 152.467476 
C 239.647178 153.030057 239.331079 153.793187 239.331079 154.588797 
C 239.331079 155.384406 239.647178 156.147536 240.209758 156.710117 
C 240.772339 157.272698 241.535469 157.588797 242.331079 157.588797 
z
" clip-path="url(#p34c8ea54f6)" style="fill: #a6cee3; stroke: #ffffff; stroke-width: 0.48"/>
    <path d="M 249.411429 150.559886 
C 250.207038 150.559886 250.970169 150.243788 251.53275 149.681207 
C 252.09533 149.118626 252.411429 148.355496 252.411429 147.559886 
C 252.411429 146.764277 252.09533 146.001147 251.53275 145.438566 
C 250.970169 144.875985 250.207038 144.559886 249.411429 144.559886 
C 248.61582 144.559886 247.85269 144.875985 247.290109 145.438566 
C 246.727528 146.001147 246.411429 146.764277 246.411429 147.559886 
C 246.411429 148.355496 246.727528 149.118626 247.290109 149.681207 
C 247.85269 150.243788 248.61582 150.559886 249.411429 150.559886 
z
" clip-path="url(#p34c8ea54f6)" style="fill: #a6cee3; stroke: #ffffff; stroke-width: 0.48"/>
    <path d="M 256.49178 143.580915 
C 257.287389 143.580915 258.050519 143.264816 258.6131 142.702236 
C 259.175681 142.139655 259.49178 141.376524 259.49178 140.580915 
C 259.49178 139.785306 259.175681 139.022176 258.6131 138.459595 
C 258.050519 137.897014 257.287389 137.580915 256.49178 137.580915 
C 255.69617 137.580915 254.93304 137.897014 254.370459 138.459595 
C 253.807879 139.022176 253.49178 139.785306 253.49178 140.580915 
C 253.49178 141.376524 253.807879 142.139655 254.370459 142.702236 
C 254.93304 143.264816 255.69617 143.580915 256.49178 143.580915 
z
" clip-path="url(#p34c8ea54f6)" style="fill: #a6cee3; stroke: #ffffff; stroke-width: 0.48"/>
    <path d="M 263.57213 136.651883 
C 264.36774 136.651883 265.13087 136.335784 265.693451 135.773203 
C 266.256031 135.210622 266.57213 134.447492 266.57213 133.651883 
C 266.57213 132.856274 266.256031 132.093143 265.693451 131.530562 
C 265.13087 130.967982 264.36774 130.651883 263.57213 130.651883 
C 262.776521 130.651883 262.013391 130.967982 261.45081 131.530562 
C 260.888229 132.093143 260.57213 132.856274 260.57213 133.651883 
C 260.57213 134.447492 260.888229 135.210622 261.45081 135.773203 
C 262.013391 136.335784 262.776521 136.651883 263.57213 136.651883 
z
" clip-path="url(#p34c8ea54f6)" style="fill: #a6cee3; stroke: #ffffff; stroke-width: 0.48"/>
    <path d="M 270.652481 129.72285 
C 271.44809 129.72285 272.21122 129.406752 272.773801 128.844171 
C 273.336382 128.28159 273.652481 127.51846 273.652481 126.72285 
C 273.652481 125.927241 273.336382 125.164111 272.773801 124.60153 
C 272.21122 124.038949 271.44809 123.72285 270.652481 123.72285 
C 269.856871 123.72285 269.093741 124.038949 268.53116 124.60153 
C 267.96858 125.164111 267.652481 125.927241 267.652481 126.72285 
C 267.652481 127.51846 267.96858 128.28159 268.53116 128.844171 
C 269.093741 129.406752 269.856871 129.72285 270.652481 129.72285 
z
" clip-path="url(#p34c8ea54f6)" style="fill: #a6cee3; stroke: #ffffff; stroke-width: 0.48"/>
    <path d="M 277.732831 122.856242 
C 278.528441 122.856242 279.291571 122.540143 279.854152 121.977562 
C 280.416732 121.414981 280.732831 120.651851 280.732831 119.856242 
C 280.732831 119.060633 280.416732 118.297502 279.854152 117.734922 
C 279.291571 117.172341 278.528441 116.856242 277.732831 116.856242 
C 276.937222 116.856242 276.174092 117.172341 275.611511 117.734922 
C 275.04893 118.297502 274.732831 119.060633 274.732831 119.856242 
C 274.732831 120.651851 275.04893 121.414981 275.611511 121.977562 
C 276.174092 122.540143 276.937222 122.856242 277.732831 122.856242 
z
" clip-path="url(#p34c8ea54f6)" style="fill: #a6cee3; stroke: #ffffff; stroke-width: 0.48"/>
    <path d="M 284.813182 116.301752 
C 285.608791 116.301752 286.371921 115.985653 286.934502 115.423072 
C 287.497083 114.860491 287.813182 114.097361 287.813182 113.301752 
C 287.813182 112.506143 287.497083 111.743012 286.934502 111.180431 
C 286.371921 110.617851 285.608791 110.301752 284.813182 110.301752 
C 284.017573 110.301752 283.254442 110.617851 282.691861 111.180431 
C 282.129281 111.743012 281.813182 112.506143 281.813182 113.301752 
C 281.813182 114.097361 282.129281 114.860491 282.691861 115.423072 
C 283.254442 115.985653 284.017573 116.301752 284.813182 116.301752 
z
" clip-path="url(#p34c8ea54f6)" style="fill: #a6cee3; stroke: #ffffff; stroke-width: 0.48"/>
    <path d="M 291.893532 111.432702 
C 292.689142 111.432702 293.452272 111.116603 294.014853 110.554022 
C 294.577433 109.991442 294.893532 109.228311 294.893532 108.432702 
C 294.893532 107.637093 294.577433 106.873962 294.014853 106.311382 
C 293.452272 105.748801 292.689142 105.432702 291.893532 105.432702 
C 291.097923 105.432702 290.334793 105.748801 289.772212 106.311382 
C 289.209631 106.873962 288.893532 107.637093 288.893532 108.432702 
C 288.893532 109.228311 289.209631 109.991442 289.772212 110.554022 
C 290.334793 111.116603 291.097923 111.432702 291.893532 111.432702 
z
" clip-path="url(#p34c8ea54f6)" style="fill: #a6cee3; stroke: #ffffff; stroke-width: 0.48"/>
    <path d="M 298.973883 106.276503 
C 299.769492 106.276503 300.532622 105.960404 301.095203 105.397824 
C 301.657784 104.835243 301.973883 104.072113 301.973883 103.276503 
C 301.973883 102.480894 301.657784 101.717764 301.095203 101.155183 
C 300.532622 100.592602 299.769492 100.276503 298.973883 100.276503 
C 298.178274 100.276503 297.415143 100.592602 296.852563 101.155183 
C 296.289982 101.717764 295.973883 102.480894 295.973883 103.276503 
C 295.973883 104.072113 296.289982 104.835243 296.852563 105.397824 
C 297.415143 105.960404 298.178274 106.276503 298.973883 106.276503 
z
" clip-path="url(#p34c8ea54f6)" style="fill: #a6cee3; stroke: #ffffff; stroke-width: 0.48"/>
    <path d="M 306.054233 100.570976 
C 306.849843 100.570976 307.612973 100.254877 308.175554 99.692296 
C 308.738134 99.129715 309.054233 98.366585 309.054233 97.570976 
C 309.054233 96.775366 308.738134 96.012236 308.175554 95.449655 
C 307.612973 94.887075 306.849843 94.570976 306.054233 94.570976 
C 305.258624 94.570976 304.495494 94.887075 303.932913 95.449655 
C 303.370332 96.012236 303.054233 96.775366 303.054233 97.570976 
C 303.054233 98.366585 303.370332 99.129715 303.932913 99.692296 
C 304.495494 100.254877 305.258624 100.570976 306.054233 100.570976 
z
" clip-path="url(#p34c8ea54f6)" style="fill: #a6cee3; stroke: #ffffff; stroke-width: 0.48"/>
    <path d="M 313.134584 94.740601 
C 313.930193 94.740601 314.693324 94.424502 315.255904 93.861921 
C 315.818485 93.29934 316.134584 92.53621 316.134584 91.740601 
C 316.134584 90.944991 315.818485 90.181861 315.255904 89.61928 
C 314.693324 89.0567 313.930193 88.740601 313.134584 88.740601 
C 312.338975 88.740601 311.575844 89.0567 311.013264 89.61928 
C 310.450683 90.181861 310.134584 90.944991 310.134584 91.740601 
C 310.134584 92.53621 310.450683 93.29934 311.013264 93.861921 
C 311.575844 94.424502 312.338975 94.740601 313.134584 94.740601 
z
" clip-path="url(#p34c8ea54f6)" style="fill: #a6cee3; stroke: #ffffff; stroke-width: 0.48"/>
    <path d="M 320.214934 89.109982 
C 321.010544 89.109982 321.773674 88.793883 322.336255 88.231302 
C 322.898836 87.668721 323.214934 86.905591 323.214934 86.109982 
C 323.214934 85.314372 322.898836 84.551242 322.336255 83.988661 
C 321.773674 83.426081 321.010544 83.109982 320.214934 83.109982 
C 319.419325 83.109982 318.656195 83.426081 318.093614 83.988661 
C 317.531033 84.551242 317.214934 85.314372 317.214934 86.109982 
C 317.214934 86.905591 317.531033 87.668721 318.093614 88.231302 
C 318.656195 88.793883 319.419325 89.109982 320.214934 89.109982 
z
" clip-path="url(#p34c8ea54f6)" style="fill: #a6cee3; stroke: #ffffff; stroke-width: 0.48"/>
    <path d="M 327.295285 83.566756 
C 328.090894 83.566756 328.854025 83.250657 329.416605 82.688076 
C 329.979186 82.125495 330.295285 81.362365 330.295285 80.566756 
C 330.295285 79.771146 329.979186 79.008016 329.416605 78.445435 
C 328.854025 77.882855 328.090894 77.566756 327.295285 77.566756 
C 326.499676 77.566756 325.736545 77.882855 325.173965 78.445435 
C 324.611384 79.008016 324.295285 79.771146 324.295285 80.566756 
C 324.295285 81.362365 324.611384 82.125495 325.173965 82.688076 
C 325.736545 83.250657 326.499676 83.566756 327.295285 83.566756 
z
" clip-path="url(#p34c8ea54f6)" style="fill: #a6cee3; stroke: #ffffff; stroke-width: 0.48"/>
    <path d="M 334.375636 76.775056 
C 335.171245 76.775056 335.934375 76.458957 336.496956 75.896376 
C 337.059537 75.333795 337.375636 74.570665 337.375636 73.775056 
C 337.375636 72.979446 337.059537 72.216316 336.496956 71.653735 
C 335.934375 71.091155 335.171245 70.775056 334.375636 70.775056 
C 333.580026 70.775056 332.816896 71.091155 332.254315 71.653735 
C 331.691734 72.216316 331.375636 72.979446 331.375636 73.775056 
C 331.375636 74.570665 331.691734 75.333795 332.254315 75.896376 
C 332.816896 76.458957 333.580026 76.775056 334.375636 76.775056 
z
" clip-path="url(#p34c8ea54f6)" style="fill: #a6cee3; stroke: #ffffff; stroke-width: 0.48"/>
    <path d="M 341.455986 68.822274 
C 342.251595 68.822274 343.014726 68.506175 343.577306 67.943595 
C 344.139887 67.381014 344.455986 66.617884 344.455986 65.822274 
C 344.455986 65.026665 344.139887 64.263535 343.577306 63.700954 
C 343.014726 63.138373 342.251595 62.822274 341.455986 62.822274 
C 340.660377 62.822274 339.897246 63.138373 339.334666 63.700954 
C 338.772085 64.263535 338.455986 65.026665 338.455986 65.822274 
C 338.455986 66.617884 338.772085 67.381014 339.334666 67.943595 
C 339.897246 68.506175 340.660377 68.822274 341.455986 68.822274 
z
" clip-path="url(#p34c8ea54f6)" style="fill: #a6cee3; stroke: #ffffff; stroke-width: 0.48"/>
    <path d="M 348.536337 61.855788 
C 349.331946 61.855788 350.095076 61.539689 350.657657 60.977108 
C 351.220238 60.414527 351.536337 59.651397 351.536337 58.855788 
C 351.536337 58.060179 351.220238 57.297048 350.657657 56.734467 
C 350.095076 56.171887 349.331946 55.855788 348.536337 55.855788 
C 347.740727 55.855788 346.977597 56.171887 346.415016 56.734467 
C 345.852435 57.297048 345.536337 58.060179 345.536337 58.855788 
C 345.536337 59.651397 345.852435 60.414527 346.415016 60.977108 
C 346.977597 61.539689 347.740727 61.855788 348.536337 61.855788 
z
" clip-path="url(#p34c8ea54f6)" style="fill: #a6cee3; stroke: #ffffff; stroke-width: 0.48"/>
    <path d="M 355.616687 59.408778 
C 356.412296 59.408778 357.175427 59.092679 357.738007 58.530099 
C 358.300588 57.967518 358.616687 57.204387 358.616687 56.408778 
C 358.616687 55.613169 358.300588 54.850039 357.738007 54.287458 
C 357.175427 53.724877 356.412296 53.408778 355.616687 53.408778 
C 354.821078 53.408778 354.057947 53.724877 353.495367 54.287458 
C 352.932786 54.850039 352.616687 55.613169 352.616687 56.408778 
C 352.616687 57.204387 352.932786 57.967518 353.495367 58.530099 
C 354.057947 59.092679 354.821078 59.408778 355.616687 59.408778 
z
" clip-path="url(#p34c8ea54f6)" style="fill: #a6cee3; stroke: #ffffff; stroke-width: 0.48"/>
    <path d="M 362.697038 56.075352 
C 363.492647 56.075352 364.255777 55.759253 364.818358 55.196672 
C 365.380939 54.634091 365.697038 53.870961 365.697038 53.075352 
C 365.697038 52.279743 365.380939 51.516612 364.818358 50.954031 
C 364.255777 50.391451 363.492647 50.075352 362.697038 50.075352 
C 361.901428 50.075352 361.138298 50.391451 360.575717 50.954031 
C 360.013137 51.516612 359.697038 52.279743 359.697038 53.075352 
C 359.697038 53.870961 360.013137 54.634091 360.575717 55.196672 
C 361.138298 55.759253 361.901428 56.075352 362.697038 56.075352 
z
" clip-path="url(#p34c8ea54f6)" style="fill: #a6cee3; stroke: #ffffff; stroke-width: 0.48"/>
    <path d="M 369.777388 52.791864 
C 370.572997 52.791864 371.336128 52.475765 371.898708 51.913185 
C 372.461289 51.350604 372.777388 50.587474 372.777388 49.791864 
C 372.777388 48.996255 372.461289 48.233125 371.898708 47.670544 
C 371.336128 47.107963 370.572997 46.791864 369.777388 46.791864 
C 368.981779 46.791864 368.218649 47.107963 367.656068 47.670544 
C 367.093487 48.233125 366.777388 48.996255 366.777388 49.791864 
C 366.777388 50.587474 367.093487 51.350604 367.656068 51.913185 
C 368.218649 52.475765 368.981779 52.791864 369.777388 52.791864 
z
" clip-path="url(#p34c8ea54f6)" style="fill: #a6cee3; stroke: #ffffff; stroke-width: 0.48"/>
    <path d="M 376.857739 49.483408 
C 377.653348 49.483408 378.416478 49.167309 378.979059 48.604728 
C 379.54164 48.042147 379.857739 47.279017 379.857739 46.483408 
C 379.857739 45.687798 379.54164 44.924668 378.979059 44.362087 
C 378.416478 43.799506 377.653348 43.483408 376.857739 43.483408 
C 376.062129 43.483408 375.298999 43.799506 374.736418 44.362087 
C 374.173838 44.924668 373.857739 45.687798 373.857739 46.483408 
C 373.857739 47.279017 374.173838 48.042147 374.736418 48.604728 
C 375.298999 49.167309 376.062129 49.483408 376.857739 49.483408 
z
" clip-path="url(#p34c8ea54f6)" style="fill: #a6cee3; stroke: #ffffff; stroke-width: 0.48"/>
    <path d="M 383.938089 46.012649 
C 384.733698 46.012649 385.496829 45.69655 386.05941 45.133969 
C 386.62199 44.571389 386.938089 43.808258 386.938089 43.012649 
C 386.938089 42.21704 386.62199 41.453909 386.05941 40.891329 
C 385.496829 40.328748 384.733698 40.012649 383.938089 40.012649 
C 383.14248 40.012649 382.37935 40.328748 381.816769 40.891329 
C 381.254188 41.453909 380.938089 42.21704 380.938089 43.012649 
C 380.938089 43.808258 381.254188 44.571389 381.816769 45.133969 
C 382.37935 45.69655 383.14248 46.012649 383.938089 46.012649 
z
" clip-path="url(#p34c8ea54f6)" style="fill: #a6cee3; stroke: #ffffff; stroke-width: 0.48"/>
    <path d="M 391.01844 42.766616 
C 391.814049 42.766616 392.577179 42.450517 393.13976 41.887936 
C 393.702341 41.325355 394.01844 40.562225 394.01844 39.766616 
C 394.01844 38.971007 393.702341 38.207876 393.13976 37.645295 
C 392.577179 37.082715 391.814049 36.766616 391.01844 36.766616 
C 390.22283 36.766616 389.4597 37.082715 388.897119 37.645295 
C 388.334539 38.207876 388.01844 38.971007 388.01844 39.766616 
C 388.01844 40.562225 388.334539 41.325355 388.897119 41.887936 
C 389.4597 42.450517 390.22283 42.766616 391.01844 42.766616 
z
" clip-path="url(#p34c8ea54f6)" style="fill: #a6cee3; stroke: #ffffff; stroke-width: 0.48"/>
    <path d="M 398.09879 40.007488 
C 398.8944 40.007488 399.65753 39.691389 400.220111 39.128808 
C 400.782691 38.566227 401.09879 37.803097 401.09879 37.007488 
C 401.09879 36.211878 400.782691 35.448748 400.220111 34.886167 
C 399.65753 34.323587 398.8944 34.007488 398.09879 34.007488 
C 397.303181 34.007488 396.540051 34.323587 395.97747 34.886167 
C 395.414889 35.448748 395.09879 36.211878 395.09879 37.007488 
C 395.09879 37.803097 395.414889 38.566227 395.97747 39.128808 
C 396.540051 39.691389 397.303181 40.007488 398.09879 40.007488 
z
" clip-path="url(#p34c8ea54f6)" style="fill: #a6cee3; stroke: #ffffff; stroke-width: 0.48"/>
    <path d="M 405.179141 37.498054 
C 405.97475 37.498054 406.73788 37.181955 407.300461 36.619375 
C 407.863042 36.056794 408.179141 35.293664 408.179141 34.498054 
C 408.179141 33.702445 407.863042 32.939315 407.300461 32.376734 
C 406.73788 31.814153 405.97475 31.498054 405.179141 31.498054 
C 404.383531 31.498054 403.620401 31.814153 403.05782 32.376734 
C 402.49524 32.939315 402.179141 33.702445 402.179141 34.498054 
C 402.179141 35.293664 402.49524 36.056794 403.05782 36.619375 
C 403.620401 37.181955 404.383531 37.498054 405.179141 37.498054 
z
" clip-path="url(#p34c8ea54f6)" style="fill: #a6cee3; stroke: #ffffff; stroke-width: 0.48"/>
    <path d="M 412.259491 35.051045 
C 413.055101 35.051045 413.818231 34.734946 414.380812 34.172365 
C 414.943392 33.609784 415.259491 32.846654 415.259491 32.051045 
C 415.259491 31.255435 414.943392 30.492305 414.380812 29.929724 
C 413.818231 29.367144 413.055101 29.051045 412.259491 29.051045 
C 411.463882 29.051045 410.700752 29.367144 410.138171 29.929724 
C 409.57559 30.492305 409.259491 31.255435 409.259491 32.051045 
C 409.259491 32.846654 409.57559 33.609784 410.138171 34.172365 
C 410.700752 34.734946 411.463882 35.051045 412.259491 35.051045 
z
" clip-path="url(#p34c8ea54f6)" style="fill: #a6cee3; stroke: #ffffff; stroke-width: 0.48"/>
    <path d="M 419.339842 33.041001 
C 420.135451 33.041001 420.898581 32.724902 421.461162 32.162321 
C 422.023743 31.599741 422.339842 30.83661 422.339842 30.041001 
C 422.339842 29.245392 422.023743 28.482261 421.461162 27.919681 
C 420.898581 27.3571 420.135451 27.041001 419.339842 27.041001 
C 418.544233 27.041001 417.781102 27.3571 417.218521 27.919681 
C 416.655941 28.482261 416.339842 29.245392 416.339842 30.041001 
C 416.339842 30.83661 416.655941 31.599741 417.218521 32.162321 
C 417.781102 32.724902 418.544233 33.041001 419.339842 33.041001 
z
" clip-path="url(#p34c8ea54f6)" style="fill: #a6cee3; stroke: #ffffff; stroke-width: 0.48"/>
    <path d="M 426.420192 31.442954 
C 427.215802 31.442954 427.978932 31.126855 428.541513 30.564274 
C 429.104093 30.001694 429.420192 29.238563 429.420192 28.442954 
C 429.420192 27.647345 429.104093 26.884214 428.541513 26.321634 
C 427.978932 25.759053 427.215802 25.442954 426.420192 25.442954 
C 425.624583 25.442954 424.861453 25.759053 424.298872 26.321634 
C 423.736291 26.884214 423.420192 27.647345 423.420192 28.442954 
C 423.420192 29.238563 423.736291 30.001694 424.298872 30.564274 
C 424.861453 31.126855 425.624583 31.442954 426.420192 31.442954 
z
" clip-path="url(#p34c8ea54f6)" style="fill: #a6cee3; stroke: #ffffff; stroke-width: 0.48"/>
    <path d="M 433.500543 30.281873 
C 434.296152 30.281873 435.059283 29.965774 435.621863 29.403193 
C 436.184444 28.840612 436.500543 28.077482 436.500543 27.281873 
C 436.500543 26.486264 436.184444 25.723133 435.621863 25.160553 
C 435.059283 24.597972 434.296152 24.281873 433.500543 24.281873 
C 432.704934 24.281873 431.941803 24.597972 431.379223 25.160553 
C 430.816642 25.723133 430.500543 26.486264 430.500543 27.281873 
C 430.500543 28.077482 430.816642 28.840612 431.379223 29.403193 
C 431.941803 29.965774 432.704934 30.281873 433.500543 30.281873 
z
" clip-path="url(#p34c8ea54f6)" style="fill: #a6cee3; stroke: #ffffff; stroke-width: 0.48"/>
    <path d="M 440.580893 29.582727 
C 441.376503 29.582727 442.139633 29.266628 442.702214 28.704048 
C 443.264794 28.141467 443.580893 27.378337 443.580893 26.582727 
C 443.580893 25.787118 443.264794 25.023988 442.702214 24.461407 
C 442.139633 23.898826 441.376503 23.582727 440.580893 23.582727 
C 439.785284 23.582727 439.022154 23.898826 438.459573 24.461407 
C 437.896992 25.023988 437.580893 25.787118 437.580893 26.582727 
C 437.580893 27.378337 437.896992 28.141467 438.459573 28.704048 
C 439.022154 29.266628 439.785284 29.582727 440.580893 29.582727 
z
" clip-path="url(#p34c8ea54f6)" style="fill: #a6cee3; stroke: #ffffff; stroke-width: 0.48"/>
    <path d="M 454.741594 30.968534 
C 455.537204 30.968534 456.300334 30.652435 456.862915 30.089854 
C 457.425496 29.527273 457.741594 28.764143 457.741594 27.968534 
C 457.741594 27.172924 457.425496 26.409794 456.862915 25.847213 
C 456.300334 25.284633 455.537204 24.968534 454.741594 24.968534 
C 453.945985 24.968534 453.182855 25.284633 452.620274 25.847213 
C 452.057693 26.409794 451.741594 27.172924 451.741594 27.968534 
C 451.741594 28.764143 452.057693 29.527273 452.620274 30.089854 
C 453.182855 30.652435 453.945985 30.968534 454.741594 30.968534 
z
" clip-path="url(#p34c8ea54f6)" style="fill: #a6cee3; stroke: #ffffff; stroke-width: 0.48"/>
    <path d="M 461.821945 33.09094 
C 462.617554 33.09094 463.380685 32.774841 463.943265 32.21226 
C 464.505846 31.64968 464.821945 30.886549 464.821945 30.09094 
C 464.821945 29.295331 464.505846 28.5322 463.943265 27.96962 
C 463.380685 27.407039 462.617554 27.09094 461.821945 27.09094 
C 461.026336 27.09094 460.263205 27.407039 459.700625 27.96962 
C 459.138044 28.5322 458.821945 29.295331 458.821945 30.09094 
C 458.821945 30.886549 459.138044 31.64968 459.700625 32.21226 
C 460.263205 32.774841 461.026336 33.09094 461.821945 33.09094 
z
" clip-path="url(#p34c8ea54f6)" style="fill: #a6cee3; stroke: #ffffff; stroke-width: 0.48"/>
    <path d="M 468.902296 36.112248 
C 469.697905 36.112248 470.461035 35.796149 471.023616 35.233568 
C 471.586197 34.670987 471.902296 33.907857 471.902296 33.112248 
C 471.902296 32.316639 471.586197 31.553508 471.023616 30.990927 
C 470.461035 30.428347 469.697905 30.112248 468.902296 30.112248 
C 468.106686 30.112248 467.343556 30.428347 466.780975 30.990927 
C 466.218394 31.553508 465.902296 32.316639 465.902296 33.112248 
C 465.902296 33.907857 466.218394 34.670987 466.780975 35.233568 
C 467.343556 35.796149 468.106686 36.112248 468.902296 36.112248 
z
" clip-path="url(#p34c8ea54f6)" style="fill: #a6cee3; stroke: #ffffff; stroke-width: 0.48"/>
    <path d="M 475.982646 40.019972 
C 476.778255 40.019972 477.541386 39.703873 478.103966 39.141293 
C 478.666547 38.578712 478.982646 37.815582 478.982646 37.019972 
C 478.982646 36.224363 478.666547 35.461233 478.103966 34.898652 
C 477.541386 34.336071 476.778255 34.019972 475.982646 34.019972 
C 475.187037 34.019972 474.423906 34.336071 473.861326 34.898652 
C 473.298745 35.461233 472.982646 36.224363 472.982646 37.019972 
C 472.982646 37.815582 473.298745 38.578712 473.861326 39.141293 
C 474.423906 39.703873 475.187037 40.019972 475.982646 40.019972 
z
" clip-path="url(#p34c8ea54f6)" style="fill: #a6cee3; stroke: #ffffff; stroke-width: 0.48"/>
    <path d="M 483.062997 44.814114 
C 483.858606 44.814114 484.621736 44.498015 485.184317 43.935434 
C 485.746898 43.372853 486.062997 42.609723 486.062997 41.814114 
C 486.062997 41.018504 485.746898 40.255374 485.184317 39.692793 
C 484.621736 39.130213 483.858606 38.814114 483.062997 38.814114 
C 482.267387 38.814114 481.504257 39.130213 480.941676 39.692793 
C 480.379096 40.255374 480.062997 41.018504 480.062997 41.814114 
C 480.062997 42.609723 480.379096 43.372853 480.941676 43.935434 
C 481.504257 44.498015 482.267387 44.814114 483.062997 44.814114 
z
" clip-path="url(#p34c8ea54f6)" style="fill: #a6cee3; stroke: #ffffff; stroke-width: 0.48"/>
    <path d="M 490.143347 50.869214 
C 490.938956 50.869214 491.702087 50.553115 492.264667 49.990534 
C 492.827248 49.427954 493.143347 48.664823 493.143347 47.869214 
C 493.143347 47.073605 492.827248 46.310474 492.264667 45.747894 
C 491.702087 45.185313 490.938956 44.869214 490.143347 44.869214 
C 489.347738 44.869214 488.584607 45.185313 488.022027 45.747894 
C 487.459446 46.310474 487.143347 47.073605 487.143347 47.869214 
C 487.143347 48.664823 487.459446 49.427954 488.022027 49.990534 
C 488.584607 50.553115 489.347738 50.869214 490.143347 50.869214 
z
" clip-path="url(#p34c8ea54f6)" style="fill: #a6cee3; stroke: #ffffff; stroke-width: 0.48"/>
    <path d="M 176.952156 215.542974 
L 178.452156 214.042974 
L 179.952156 215.542974 
L 181.452156 214.042974 
L 179.952156 212.542974 
L 181.452156 211.042974 
L 179.952156 209.542974 
L 178.452156 211.042974 
L 176.952156 209.542974 
L 175.452156 211.042974 
L 176.952156 212.542974 
L 175.452156 214.042974 
z
" clip-path="url(#p34c8ea54f6)" style="fill: #1f78b4; stroke: #ffffff; stroke-width: 0.48"/>
    <path d="M 191.098697 203.245502 
L 192.598697 201.745502 
L 194.098697 203.245502 
L 195.598697 201.745502 
L 194.098697 200.245502 
L 195.598697 198.745502 
L 194.098697 197.245502 
L 192.598697 198.745502 
L 191.098697 197.245502 
L 189.598697 198.745502 
L 191.098697 200.245502 
L 189.598697 201.745502 
z
" clip-path="url(#p34c8ea54f6)" style="fill: #1f78b4; stroke: #ffffff; stroke-width: 0.48"/>
    <path d="M 205.30188 191.060393 
L 206.80188 189.560393 
L 208.30188 191.060393 
L 209.80188 189.560393 
L 208.30188 188.060393 
L 209.80188 186.560393 
L 208.30188 185.060393 
L 206.80188 186.560393 
L 205.30188 185.060393 
L 203.80188 186.560393 
L 205.30188 188.060393 
L 203.80188 189.560393 
z
" clip-path="url(#p34c8ea54f6)" style="fill: #1f78b4; stroke: #ffffff; stroke-width: 0.48"/>
    <path d="M 219.590027 179.0251 
L 221.090027 177.5251 
L 222.590027 179.0251 
L 224.090027 177.5251 
L 222.590027 176.0251 
L 224.090027 174.5251 
L 222.590027 173.0251 
L 221.090027 174.5251 
L 219.590027 173.0251 
L 218.090027 174.5251 
L 219.590027 176.0251 
L 218.090027 177.5251 
z
" clip-path="url(#p34c8ea54f6)" style="fill: #1f78b4; stroke: #ffffff; stroke-width: 0.48"/>
    <path d="M 233.736567 166.88993 
L 235.236567 165.38993 
L 236.736567 166.88993 
L 238.236567 165.38993 
L 236.736567 163.88993 
L 238.236567 162.38993 
L 236.736567 160.88993 
L 235.236567 162.38993 
L 233.736567 160.88993 
L 232.236567 162.38993 
L 233.736567 163.88993 
L 232.236567 165.38993 
z
" clip-path="url(#p34c8ea54f6)" style="fill: #1f78b4; stroke: #ffffff; stroke-width: 0.48"/>
    <path d="M 248.095518 154.455126 
L 249.595518 152.955126 
L 251.095518 154.455126 
L 252.595518 152.955126 
L 251.095518 151.455126 
L 252.595518 149.955126 
L 251.095518 148.455126 
L 249.595518 149.955126 
L 248.095518 148.455126 
L 246.595518 149.955126 
L 248.095518 151.455126 
L 246.595518 152.955126 
z
" clip-path="url(#p34c8ea54f6)" style="fill: #1f78b4; stroke: #ffffff; stroke-width: 0.48"/>
    <path d="M 262.242059 142.170139 
L 263.742059 140.670139 
L 265.242059 142.170139 
L 266.742059 140.670139 
L 265.242059 139.170139 
L 266.742059 137.670139 
L 265.242059 136.170139 
L 263.742059 137.670139 
L 262.242059 136.170139 
L 260.742059 137.670139 
L 262.242059 139.170139 
L 260.742059 140.670139 
z
" clip-path="url(#p34c8ea54f6)" style="fill: #1f78b4; stroke: #ffffff; stroke-width: 0.48"/>
    <path d="M 269.350731 135.977707 
L 270.850731 134.477707 
L 272.350731 135.977707 
L 273.850731 134.477707 
L 272.350731 132.977707 
L 273.850731 131.477707 
L 272.350731 129.977707 
L 270.850731 131.477707 
L 269.350731 129.977707 
L 267.850731 131.477707 
L 269.350731 132.977707 
L 267.850731 134.477707 
z
" clip-path="url(#p34c8ea54f6)" style="fill: #1f78b4; stroke: #ffffff; stroke-width: 0.48"/>
    <path d="M 276.388599 130.059939 
L 277.888599 128.559939 
L 279.388599 130.059939 
L 280.888599 128.559939 
L 279.388599 127.059939 
L 280.888599 125.559939 
L 279.388599 124.059939 
L 277.888599 125.559939 
L 276.388599 124.059939 
L 274.888599 125.559939 
L 276.388599 127.059939 
L 274.888599 128.559939 
z
" clip-path="url(#p34c8ea54f6)" style="fill: #1f78b4; stroke: #ffffff; stroke-width: 0.48"/>
    <path d="M 283.638878 124.354411 
L 285.138878 122.854411 
L 286.638878 124.354411 
L 288.138878 122.854411 
L 286.638878 121.354411 
L 288.138878 119.854411 
L 286.638878 118.354411 
L 285.138878 119.854411 
L 283.638878 118.354411 
L 282.138878 119.854411 
L 283.638878 121.354411 
L 282.138878 122.854411 
z
" clip-path="url(#p34c8ea54f6)" style="fill: #1f78b4; stroke: #ffffff; stroke-width: 0.48"/>
    <path d="M 290.605943 119.497846 
L 292.105943 117.997846 
L 293.605943 119.497846 
L 295.105943 117.997846 
L 293.605943 116.497846 
L 295.105943 114.997846 
L 293.605943 113.497846 
L 292.105943 114.997846 
L 290.605943 113.497846 
L 289.105943 114.997846 
L 290.605943 116.497846 
L 289.105943 117.997846 
z
" clip-path="url(#p34c8ea54f6)" style="fill: #1f78b4; stroke: #ffffff; stroke-width: 0.48"/>
    <path d="M 297.856222 115.040793 
L 299.356222 113.540793 
L 300.856222 115.040793 
L 302.356222 113.540793 
L 300.856222 112.040793 
L 302.356222 110.540793 
L 300.856222 109.040793 
L 299.356222 110.540793 
L 297.856222 109.040793 
L 296.356222 110.540793 
L 297.856222 112.040793 
L 296.356222 113.540793 
z
" clip-path="url(#p34c8ea54f6)" style="fill: #1f78b4; stroke: #ffffff; stroke-width: 0.48"/>
    <path d="M 304.87993 110.246651 
L 306.37993 108.746651 
L 307.87993 110.246651 
L 309.37993 108.746651 
L 307.87993 107.246651 
L 309.37993 105.746651 
L 307.87993 104.246651 
L 306.37993 105.746651 
L 304.87993 104.246651 
L 303.37993 105.746651 
L 304.87993 107.246651 
L 303.37993 108.746651 
z
" clip-path="url(#p34c8ea54f6)" style="fill: #1f78b4; stroke: #ffffff; stroke-width: 0.48"/>
    <path d="M 311.988601 105.440025 
L 313.488601 103.940025 
L 314.988601 105.440025 
L 316.488601 103.940025 
L 314.988601 102.440025 
L 316.488601 100.940025 
L 314.988601 99.440025 
L 313.488601 100.940025 
L 311.988601 99.440025 
L 310.488601 100.940025 
L 311.988601 102.440025 
L 310.488601 103.940025 
z
" clip-path="url(#p34c8ea54f6)" style="fill: #1f78b4; stroke: #ffffff; stroke-width: 0.48"/>
    <path d="M 319.097273 100.208918 
L 320.597273 98.708918 
L 322.097273 100.208918 
L 323.597273 98.708918 
L 322.097273 97.208918 
L 323.597273 95.708918 
L 322.097273 94.208918 
L 320.597273 95.708918 
L 319.097273 94.208918 
L 317.597273 95.708918 
L 319.097273 97.208918 
L 317.597273 98.708918 
z
" clip-path="url(#p34c8ea54f6)" style="fill: #1f78b4; stroke: #ffffff; stroke-width: 0.48"/>
    <path d="M 326.276749 95.689441 
L 327.776749 94.189441 
L 329.276749 95.689441 
L 330.776749 94.189441 
L 329.276749 92.689441 
L 330.776749 91.189441 
L 329.276749 89.689441 
L 327.776749 91.189441 
L 326.276749 89.689441 
L 324.776749 91.189441 
L 326.276749 92.689441 
L 324.776749 94.189441 
z
" clip-path="url(#p34c8ea54f6)" style="fill: #1f78b4; stroke: #ffffff; stroke-width: 0.48"/>
    <path d="M 333.300457 91.082571 
L 334.800457 89.582571 
L 336.300457 91.082571 
L 337.800457 89.582571 
L 336.300457 88.082571 
L 337.800457 86.582571 
L 336.300457 85.082571 
L 334.800457 86.582571 
L 333.300457 85.082571 
L 331.800457 86.582571 
L 333.300457 88.082571 
L 331.800457 89.582571 
z
" clip-path="url(#p34c8ea54f6)" style="fill: #1f78b4; stroke: #ffffff; stroke-width: 0.48"/>
    <path d="M 340.338325 85.963826 
L 341.838325 84.463826 
L 343.338325 85.963826 
L 344.838325 84.463826 
L 343.338325 82.963826 
L 344.838325 81.463826 
L 343.338325 79.963826 
L 341.838325 81.463826 
L 340.338325 79.963826 
L 338.838325 81.463826 
L 340.338325 82.963826 
L 338.838325 84.463826 
z
" clip-path="url(#p34c8ea54f6)" style="fill: #1f78b4; stroke: #ffffff; stroke-width: 0.48"/>
    <path d="M 347.5178 80.458055 
L 349.0178 78.958055 
L 350.5178 80.458055 
L 352.0178 78.958055 
L 350.5178 77.458055 
L 352.0178 75.958055 
L 350.5178 74.458055 
L 349.0178 75.958055 
L 347.5178 74.458055 
L 346.0178 75.958055 
L 347.5178 77.458055 
L 346.0178 78.958055 
z
" clip-path="url(#p34c8ea54f6)" style="fill: #1f78b4; stroke: #ffffff; stroke-width: 0.48"/>
    <path d="M 354.555669 75.913608 
L 356.055669 74.413608 
L 357.555669 75.913608 
L 359.055669 74.413608 
L 357.555669 72.913608 
L 359.055669 71.413608 
L 357.555669 69.913608 
L 356.055669 71.413608 
L 354.555669 69.913608 
L 353.055669 71.413608 
L 354.555669 72.913608 
L 353.055669 74.413608 
z
" clip-path="url(#p34c8ea54f6)" style="fill: #1f78b4; stroke: #ffffff; stroke-width: 0.48"/>
    <path d="M 361.720984 72.530243 
L 363.220984 71.030243 
L 364.720984 72.530243 
L 366.220984 71.030243 
L 364.720984 69.530243 
L 366.220984 68.030243 
L 364.720984 66.530243 
L 363.220984 68.030243 
L 361.720984 66.530243 
L 360.220984 68.030243 
L 361.720984 69.530243 
L 360.220984 71.030243 
z
" clip-path="url(#p34c8ea54f6)" style="fill: #1f78b4; stroke: #ffffff; stroke-width: 0.48"/>
    <path d="M 375.853363 66.787261 
L 377.353363 65.287261 
L 378.853363 66.787261 
L 380.353363 65.287261 
L 378.853363 63.787261 
L 380.353363 62.287261 
L 378.853363 60.787261 
L 377.353363 62.287261 
L 375.853363 60.787261 
L 374.353363 62.287261 
L 375.853363 63.787261 
L 374.353363 65.287261 
z
" clip-path="url(#p34c8ea54f6)" style="fill: #1f78b4; stroke: #ffffff; stroke-width: 0.48"/>
    <path d="M 390.099028 63.728499 
L 391.599028 62.228499 
L 393.099028 63.728499 
L 394.599028 62.228499 
L 393.099028 60.728499 
L 394.599028 59.228499 
L 393.099028 57.728499 
L 391.599028 59.228499 
L 390.099028 57.728499 
L 388.599028 59.228499 
L 390.099028 60.728499 
L 388.599028 62.228499 
z
" clip-path="url(#p34c8ea54f6)" style="fill: #1f78b4; stroke: #ffffff; stroke-width: 0.48"/>
    <path d="M 404.203087 61.880757 
L 405.703087 60.380757 
L 407.203087 61.880757 
L 408.703087 60.380757 
L 407.203087 58.880757 
L 408.703087 57.380757 
L 407.203087 55.880757 
L 405.703087 57.380757 
L 404.203087 55.880757 
L 402.703087 57.380757 
L 404.203087 58.880757 
L 402.703087 60.380757 
z
" clip-path="url(#p34c8ea54f6)" style="fill: #1f78b4; stroke: #ffffff; stroke-width: 0.48"/>
    <path d="M 418.420431 60.557375 
L 419.920431 59.057375 
L 421.420431 60.557375 
L 422.920431 59.057375 
L 421.420431 57.557375 
L 422.920431 56.057375 
L 421.420431 54.557375 
L 419.920431 56.057375 
L 418.420431 54.557375 
L 416.920431 56.057375 
L 418.420431 57.557375 
L 416.920431 59.057375 
z
" clip-path="url(#p34c8ea54f6)" style="fill: #1f78b4; stroke: #ffffff; stroke-width: 0.48"/>
    <path d="M 432.566971 60.894463 
L 434.066971 59.394463 
L 435.566971 60.894463 
L 437.066971 59.394463 
L 435.566971 57.894463 
L 437.066971 56.394463 
L 435.566971 54.894463 
L 434.066971 56.394463 
L 432.566971 54.894463 
L 431.066971 56.394463 
L 432.566971 57.894463 
L 431.066971 59.394463 
z
" clip-path="url(#p34c8ea54f6)" style="fill: #1f78b4; stroke: #ffffff; stroke-width: 0.48"/>
    <path d="M 439.689804 63.091777 
L 441.189804 61.591777 
L 442.689804 63.091777 
L 444.189804 61.591777 
L 442.689804 60.091777 
L 444.189804 58.591777 
L 442.689804 57.091777 
L 441.189804 58.591777 
L 439.689804 57.091777 
L 438.189804 58.591777 
L 439.689804 60.091777 
L 438.189804 61.591777 
z
" clip-path="url(#p34c8ea54f6)" style="fill: #1f78b4; stroke: #ffffff; stroke-width: 0.48"/>
    <path d="M 446.656868 67.349075 
L 448.156868 65.849075 
L 449.656868 67.349075 
L 451.156868 65.849075 
L 449.656868 64.349075 
L 451.156868 62.849075 
L 449.656868 61.349075 
L 448.156868 62.849075 
L 446.656868 61.349075 
L 445.156868 62.849075 
L 446.656868 64.349075 
L 445.156868 65.849075 
z
" clip-path="url(#p34c8ea54f6)" style="fill: #1f78b4; stroke: #ffffff; stroke-width: 0.48"/>
    <path d="M 453.468166 105.464995 
L 454.968166 103.964995 
L 456.468166 105.464995 
L 457.968166 103.964995 
L 456.468166 102.464995 
L 457.968166 100.964995 
L 456.468166 99.464995 
L 454.968166 100.964995 
L 453.468166 99.464995 
L 451.968166 100.964995 
L 453.468166 102.464995 
L 451.968166 103.964995 
z
" clip-path="url(#p34c8ea54f6)" style="fill: #1f78b4; stroke: #ffffff; stroke-width: 0.48"/>
    <path d="M 460.477713 107.612371 
L 461.977713 106.112371 
L 463.477713 107.612371 
L 464.977713 106.112371 
L 463.477713 104.612371 
L 464.977713 103.112371 
L 463.477713 101.612371 
L 461.977713 103.112371 
L 460.477713 101.612371 
L 458.977713 103.112371 
L 460.477713 104.612371 
L 458.977713 106.112371 
z
" clip-path="url(#p34c8ea54f6)" style="fill: #1f78b4; stroke: #ffffff; stroke-width: 0.48"/>
    <path d="M 467.48726 117.737497 
L 468.98726 116.237497 
L 470.48726 117.737497 
L 471.98726 116.237497 
L 470.48726 114.737497 
L 471.98726 113.237497 
L 470.48726 111.737497 
L 468.98726 113.237497 
L 467.48726 111.737497 
L 465.98726 113.237497 
L 467.48726 114.737497 
L 465.98726 116.237497 
z
" clip-path="url(#p34c8ea54f6)" style="fill: #1f78b4; stroke: #ffffff; stroke-width: 0.48"/>
    <path d="M 474.709217 116.588901 
L 476.209217 115.088901 
L 477.709217 116.588901 
L 479.209217 115.088901 
L 477.709217 113.588901 
L 479.209217 112.088901 
L 477.709217 110.588901 
L 476.209217 112.088901 
L 474.709217 110.588901 
L 473.209217 112.088901 
L 474.709217 113.588901 
L 473.209217 115.088901 
z
" clip-path="url(#p34c8ea54f6)" style="fill: #1f78b4; stroke: #ffffff; stroke-width: 0.48"/>
    <path d="M 481.718764 116.588901 
L 483.218764 115.088901 
L 484.718764 116.588901 
L 486.218764 115.088901 
L 484.718764 113.588901 
L 486.218764 112.088901 
L 484.718764 110.588901 
L 483.218764 112.088901 
L 481.718764 110.588901 
L 480.218764 112.088901 
L 481.718764 113.588901 
L 480.218764 115.088901 
z
" clip-path="url(#p34c8ea54f6)" style="fill: #1f78b4; stroke: #ffffff; stroke-width: 0.48"/>
    <path d="M 474.709217 116.364176 
L 476.209217 114.864176 
L 477.709217 116.364176 
L 479.209217 114.864176 
L 477.709217 113.364176 
L 479.209217 111.864176 
L 477.709217 110.364176 
L 476.209217 111.864176 
L 474.709217 110.364176 
L 473.209217 111.864176 
L 474.709217 113.364176 
L 473.209217 114.864176 
z
" clip-path="url(#p34c8ea54f6)" style="fill: #1f78b4; stroke: #ffffff; stroke-width: 0.48"/>
    <path d="M 467.628867 118.062101 
L 469.128867 116.562101 
L 470.628867 118.062101 
L 472.128867 116.562101 
L 470.628867 115.062101 
L 472.128867 113.562101 
L 470.628867 112.062101 
L 469.128867 113.562101 
L 467.628867 112.062101 
L 466.128867 113.562101 
L 467.628867 115.062101 
L 466.128867 116.562101 
z
" clip-path="url(#p34c8ea54f6)" style="fill: #1f78b4; stroke: #ffffff; stroke-width: 0.48"/>
    <path d="M 460.406909 118.598945 
L 461.906909 117.098945 
L 463.406909 118.598945 
L 464.906909 117.098945 
L 463.406909 115.598945 
L 464.906909 114.098945 
L 463.406909 112.598945 
L 461.906909 114.098945 
L 460.406909 112.598945 
L 458.906909 114.098945 
L 460.406909 115.598945 
L 458.906909 117.098945 
z
" clip-path="url(#p34c8ea54f6)" style="fill: #1f78b4; stroke: #ffffff; stroke-width: 0.48"/>
    <path d="M 453.397362 112.718631 
L 454.897362 111.218631 
L 456.397362 112.718631 
L 457.897362 111.218631 
L 456.397362 109.718631 
L 457.897362 108.218631 
L 456.397362 106.718631 
L 454.897362 108.218631 
L 453.397362 106.718631 
L 451.897362 108.218631 
L 453.397362 109.718631 
L 451.897362 111.218631 
z
" clip-path="url(#p34c8ea54f6)" style="fill: #1f78b4; stroke: #ffffff; stroke-width: 0.48"/>
    <path d="M 439.250822 98.248814 
L 440.750822 96.748814 
L 442.250822 98.248814 
L 443.750822 96.748814 
L 442.250822 95.248814 
L 443.750822 93.748814 
L 442.250822 92.248814 
L 440.750822 93.748814 
L 439.250822 92.248814 
L 437.750822 93.748814 
L 439.250822 95.248814 
L 437.750822 96.748814 
z
" clip-path="url(#p34c8ea54f6)" style="fill: #1f78b4; stroke: #ffffff; stroke-width: 0.48"/>
    <path d="M 432.099668 98.39863 
L 433.599668 96.89863 
L 435.099668 98.39863 
L 436.599668 96.89863 
L 435.099668 95.39863 
L 436.599668 93.89863 
L 435.099668 92.39863 
L 433.599668 93.89863 
L 432.099668 92.39863 
L 430.599668 93.89863 
L 432.099668 95.39863 
L 430.599668 96.89863 
z
" clip-path="url(#p34c8ea54f6)" style="fill: #1f78b4; stroke: #ffffff; stroke-width: 0.48"/>
    <path d="M 425.175085 89.347192 
L 426.675085 87.847192 
L 428.175085 89.347192 
L 429.675085 87.847192 
L 428.175085 86.347192 
L 429.675085 84.847192 
L 428.175085 83.347192 
L 426.675085 84.847192 
L 425.175085 83.347192 
L 423.675085 84.847192 
L 425.175085 86.347192 
L 423.675085 87.847192 
z
" clip-path="url(#p34c8ea54f6)" style="fill: #1f78b4; stroke: #ffffff; stroke-width: 0.48"/>
    <path d="M 418.222181 80.083513 
L 419.722181 78.583513 
L 421.222181 80.083513 
L 422.722181 78.583513 
L 421.222181 77.083513 
L 422.722181 75.583513 
L 421.222181 74.083513 
L 419.722181 75.583513 
L 418.222181 74.083513 
L 416.722181 75.583513 
L 418.222181 77.083513 
L 416.722181 78.583513 
z
" clip-path="url(#p34c8ea54f6)" style="fill: #1f78b4; stroke: #ffffff; stroke-width: 0.48"/>
    <path d="M 411.354241 61.244035 
L 412.854241 59.744035 
L 414.354241 61.244035 
L 415.854241 59.744035 
L 414.354241 58.244035 
L 415.854241 56.744035 
L 414.354241 55.244035 
L 412.854241 56.744035 
L 411.354241 55.244035 
L 409.854241 56.744035 
L 411.354241 58.244035 
L 409.854241 59.744035 
z
" clip-path="url(#p34c8ea54f6)" style="fill: #1f78b4; stroke: #ffffff; stroke-width: 0.48"/>
    <path d="M 404.27389 62.043059 
L 405.77389 60.543059 
L 407.27389 62.043059 
L 408.77389 60.543059 
L 407.27389 59.043059 
L 408.77389 57.543059 
L 407.27389 56.043059 
L 405.77389 57.543059 
L 404.27389 56.043059 
L 402.77389 57.543059 
L 404.27389 59.043059 
L 402.77389 60.543059 
z
" clip-path="url(#p34c8ea54f6)" style="fill: #1f78b4; stroke: #ffffff; stroke-width: 0.48"/>
   </g>
   <g id="PathCollection_2"/>
   <g id="PathCollection_3"/>
   <g id="line2d_24">
    <path d="M 79.483017 299.037273 
L 93.643718 292.957203 
L 107.804419 278.062905 
L 136.125821 254.266984 
L 150.286522 243.405258 
L 157.366872 238.548693 
L 164.447223 231.994203 
L 171.527573 225.127594 
L 178.607924 218.198562 
L 185.688274 211.26953 
L 192.768625 204.290558 
L 199.848975 197.261648 
L 206.929326 190.157829 
L 214.009677 183.041526 
L 221.090027 175.925222 
L 228.170378 168.808919 
L 235.250728 161.692616 
L 242.331079 154.588797 
L 249.411429 147.559886 
L 256.49178 140.580915 
L 263.57213 133.651883 
L 270.652481 126.72285 
L 277.732831 119.856242 
L 284.813182 113.301752 
L 291.893532 108.432702 
L 298.973883 103.276503 
L 306.054233 97.570976 
L 313.134584 91.740601 
L 320.214934 86.109982 
L 327.295285 80.566756 
L 334.375636 73.775056 
L 341.455986 65.822274 
L 348.536337 58.855788 
L 355.616687 56.408778 
L 362.697038 53.075352 
L 369.777388 49.791864 
L 376.857739 46.483408 
L 383.938089 43.012649 
L 391.01844 39.766616 
L 398.09879 37.007488 
L 405.179141 34.498054 
L 412.259491 32.051045 
L 419.339842 30.041001 
L 426.420192 28.442954 
L 433.500543 27.281873 
L 440.580893 26.582727 
L 454.741594 27.968534 
L 461.821945 30.09094 
L 468.902296 33.112248 
L 475.982646 37.019972 
L 483.062997 41.814114 
L 490.143347 47.869214 
" clip-path="url(#p34c8ea54f6)" style="fill: none; stroke: #808080; stroke-linecap: round"/>
   </g>
   <g id="line2d_25">
    <path d="M 178.452156 212.542974 
L 192.598697 200.245502 
L 206.80188 188.060393 
L 221.090027 176.0251 
L 235.236567 163.88993 
L 249.595518 151.455126 
L 263.742059 139.170139 
L 270.850731 132.977707 
L 277.888599 127.059939 
L 285.138878 121.354411 
L 292.105943 116.497846 
L 299.356222 112.040793 
L 306.37993 107.246651 
L 313.488601 102.440025 
L 320.597273 97.208918 
L 327.776749 92.689441 
L 334.800457 88.082571 
L 341.838325 82.963826 
L 349.0178 77.458055 
L 356.055669 72.913608 
L 363.220984 69.530243 
L 377.353363 63.787261 
L 391.599028 60.728499 
L 405.703087 58.880757 
L 419.920431 57.557375 
L 434.066971 57.894463 
L 441.189804 60.091777 
L 448.156868 64.349075 
L 454.968166 102.464995 
L 461.977713 104.612371 
L 468.98726 114.737497 
L 476.209217 113.588901 
L 483.218764 113.588901 
L 476.209217 113.364176 
L 469.128867 115.062101 
L 461.906909 115.598945 
L 454.897362 109.718631 
L 440.750822 95.248814 
L 433.599668 95.39863 
L 426.675085 86.347192 
L 419.722181 77.083513 
L 412.854241 58.244035 
L 405.77389 59.043059 
" clip-path="url(#p34c8ea54f6)" style="fill: none; stroke: #808080; stroke-linecap: round"/>
   </g>
   <g id="patch_3">
    <path d="M 58.95 312.66 
L 58.95 12.96 
" style="fill: none; stroke: #ffffff; stroke-width: 1.25; stroke-linejoin: miter; stroke-linecap: square"/>
   </g>
   <g id="patch_4">
    <path d="M 58.95 312.66 
L 510.676364 312.66 
" style="fill: none; stroke: #ffffff; stroke-width: 1.25; stroke-linejoin: miter; stroke-linecap: square"/>
   </g>
   <g id="legend_1">
    <g id="patch_5">
     <path d="M 66.65 52.879688 
L 169.096094 52.879688 
Q 171.296094 52.879688 171.296094 50.679688 
L 171.296094 20.66 
Q 171.296094 18.46 169.096094 18.46 
L 66.65 18.46 
Q 64.45 18.46 64.45 20.66 
L 64.45 50.679688 
Q 64.45 52.879688 66.65 52.879688 
z
" style="fill: #eaeaf2; opacity: 0.8; stroke: #cccccc; stroke-linejoin: miter"/>
    </g>
    <g id="PathCollection_4">
     <defs>
      <path id="m4533c3f9b5" d="M 0 3 
C 0.795609 3 1.55874 2.683901 2.12132 2.12132 
C 2.683901 1.55874 3 0.795609 3 0 
C 3 -0.795609 2.683901 -1.55874 2.12132 -2.12132 
C 1.55874 -2.683901 0.795609 -3 0 -3 
C -0.795609 -3 -1.55874 -2.683901 -2.12132 -2.12132 
C -2.683901 -1.55874 -3 -0.795609 -3 0 
C -3 0.795609 -2.683901 1.55874 -2.12132 2.12132 
C -1.55874 2.683901 -0.795609 3 0 3 
z
" style="stroke: #a6cee3"/>
     </defs>
     <g>
      <use xlink:href="#m4533c3f9b5" x="79.85" y="27.846094" style="fill: #a6cee3; stroke: #a6cee3"/>
     </g>
    </g>
    <g id="text_26">
     <!-- CFD -->
     <g style="fill: #262626" transform="translate(99.65 30.733594) scale(0.11 -0.11)">
      <defs>
       <path id="ArialMT-46" d="M 525 0 
L 525 4581 
L 3616 4581 
L 3616 4041 
L 1131 4041 
L 1131 2622 
L 3281 2622 
L 3281 2081 
L 1131 2081 
L 1131 0 
L 525 0 
z
" transform="scale(0.015625)"/>
       <path id="ArialMT-44" d="M 494 0 
L 494 4581 
L 2072 4581 
Q 2606 4581 2888 4516 
Q 3281 4425 3559 4188 
Q 3922 3881 4101 3404 
Q 4281 2928 4281 2316 
Q 4281 1794 4159 1391 
Q 4038 988 3847 723 
Q 3656 459 3429 307 
Q 3203 156 2883 78 
Q 2563 0 2147 0 
L 494 0 
z
M 1100 541 
L 2078 541 
Q 2531 541 2789 625 
Q 3047 709 3200 863 
Q 3416 1078 3536 1442 
Q 3656 1806 3656 2325 
Q 3656 3044 3420 3430 
Q 3184 3816 2847 3947 
Q 2603 4041 2063 4041 
L 1100 4041 
L 1100 541 
z
" transform="scale(0.015625)"/>
      </defs>
      <use xlink:href="#ArialMT-43"/>
      <use xlink:href="#ArialMT-46" x="72.216797"/>
      <use xlink:href="#ArialMT-44" x="133.300781"/>
     </g>
    </g>
    <g id="PathCollection_5">
     <defs>
      <path id="mf9777018a1" d="M -1.5 3 
L 0 1.5 
L 1.5 3 
L 3 1.5 
L 1.5 0 
L 3 -1.5 
L 1.5 -3 
L 0 -1.5 
L -1.5 -3 
L -3 -1.5 
L -1.5 0 
L -3 1.5 
z
" style="stroke: #1f78b4"/>
     </defs>
     <g>
      <use xlink:href="#mf9777018a1" x="79.85" y="43.405938" style="fill: #1f78b4; stroke: #1f78b4"/>
     </g>
    </g>
    <g id="text_27">
     <!-- Measurement -->
     <g style="fill: #262626" transform="translate(99.65 46.293438) scale(0.11 -0.11)">
      <defs>
       <path id="ArialMT-4d" d="M 475 0 
L 475 4581 
L 1388 4581 
L 2472 1338 
Q 2622 884 2691 659 
Q 2769 909 2934 1394 
L 4031 4581 
L 4847 4581 
L 4847 0 
L 4263 0 
L 4263 3834 
L 2931 0 
L 2384 0 
L 1059 3900 
L 1059 0 
L 475 0 
z
" transform="scale(0.015625)"/>
       <path id="ArialMT-65" d="M 2694 1069 
L 3275 997 
Q 3138 488 2766 206 
Q 2394 -75 1816 -75 
Q 1088 -75 661 373 
Q 234 822 234 1631 
Q 234 2469 665 2931 
Q 1097 3394 1784 3394 
Q 2450 3394 2872 2941 
Q 3294 2488 3294 1666 
Q 3294 1616 3291 1516 
L 816 1516 
Q 847 969 1125 678 
Q 1403 388 1819 388 
Q 2128 388 2347 550 
Q 2566 713 2694 1069 
z
M 847 1978 
L 2700 1978 
Q 2663 2397 2488 2606 
Q 2219 2931 1791 2931 
Q 1403 2931 1139 2672 
Q 875 2413 847 1978 
z
" transform="scale(0.015625)"/>
       <path id="ArialMT-61" d="M 2588 409 
Q 2275 144 1986 34 
Q 1697 -75 1366 -75 
Q 819 -75 525 192 
Q 231 459 231 875 
Q 231 1119 342 1320 
Q 453 1522 633 1644 
Q 813 1766 1038 1828 
Q 1203 1872 1538 1913 
Q 2219 1994 2541 2106 
Q 2544 2222 2544 2253 
Q 2544 2597 2384 2738 
Q 2169 2928 1744 2928 
Q 1347 2928 1158 2789 
Q 969 2650 878 2297 
L 328 2372 
Q 403 2725 575 2942 
Q 747 3159 1072 3276 
Q 1397 3394 1825 3394 
Q 2250 3394 2515 3294 
Q 2781 3194 2906 3042 
Q 3031 2891 3081 2659 
Q 3109 2516 3109 2141 
L 3109 1391 
Q 3109 606 3145 398 
Q 3181 191 3288 0 
L 2700 0 
Q 2613 175 2588 409 
z
M 2541 1666 
Q 2234 1541 1622 1453 
Q 1275 1403 1131 1340 
Q 988 1278 909 1158 
Q 831 1038 831 891 
Q 831 666 1001 516 
Q 1172 366 1500 366 
Q 1825 366 2078 508 
Q 2331 650 2450 897 
Q 2541 1088 2541 1459 
L 2541 1666 
z
" transform="scale(0.015625)"/>
       <path id="ArialMT-73" d="M 197 991 
L 753 1078 
Q 800 744 1014 566 
Q 1228 388 1613 388 
Q 2000 388 2187 545 
Q 2375 703 2375 916 
Q 2375 1106 2209 1216 
Q 2094 1291 1634 1406 
Q 1016 1563 777 1677 
Q 538 1791 414 1992 
Q 291 2194 291 2438 
Q 291 2659 392 2848 
Q 494 3038 669 3163 
Q 800 3259 1026 3326 
Q 1253 3394 1513 3394 
Q 1903 3394 2198 3281 
Q 2494 3169 2634 2976 
Q 2775 2784 2828 2463 
L 2278 2388 
Q 2241 2644 2061 2787 
Q 1881 2931 1553 2931 
Q 1166 2931 1000 2803 
Q 834 2675 834 2503 
Q 834 2394 903 2306 
Q 972 2216 1119 2156 
Q 1203 2125 1616 2013 
Q 2213 1853 2448 1751 
Q 2684 1650 2818 1456 
Q 2953 1263 2953 975 
Q 2953 694 2789 445 
Q 2625 197 2315 61 
Q 2006 -75 1616 -75 
Q 969 -75 630 194 
Q 291 463 197 991 
z
" transform="scale(0.015625)"/>
       <path id="ArialMT-75" d="M 2597 0 
L 2597 488 
Q 2209 -75 1544 -75 
Q 1250 -75 995 37 
Q 741 150 617 320 
Q 494 491 444 738 
Q 409 903 409 1263 
L 409 3319 
L 972 3319 
L 972 1478 
Q 972 1038 1006 884 
Q 1059 663 1231 536 
Q 1403 409 1656 409 
Q 1909 409 2131 539 
Q 2353 669 2445 892 
Q 2538 1116 2538 1541 
L 2538 3319 
L 3100 3319 
L 3100 0 
L 2597 0 
z
" transform="scale(0.015625)"/>
       <path id="ArialMT-72" d="M 416 0 
L 416 3319 
L 922 3319 
L 922 2816 
Q 1116 3169 1280 3281 
Q 1444 3394 1641 3394 
Q 1925 3394 2219 3213 
L 2025 2691 
Q 1819 2813 1613 2813 
Q 1428 2813 1281 2702 
Q 1134 2591 1072 2394 
Q 978 2094 978 1738 
L 978 0 
L 416 0 
z
" transform="scale(0.015625)"/>
       <path id="ArialMT-6d" d="M 422 0 
L 422 3319 
L 925 3319 
L 925 2853 
Q 1081 3097 1340 3245 
Q 1600 3394 1931 3394 
Q 2300 3394 2536 3241 
Q 2772 3088 2869 2813 
Q 3263 3394 3894 3394 
Q 4388 3394 4653 3120 
Q 4919 2847 4919 2278 
L 4919 0 
L 4359 0 
L 4359 2091 
Q 4359 2428 4304 2576 
Q 4250 2725 4106 2815 
Q 3963 2906 3769 2906 
Q 3419 2906 3187 2673 
Q 2956 2441 2956 1928 
L 2956 0 
L 2394 0 
L 2394 2156 
Q 2394 2531 2256 2718 
Q 2119 2906 1806 2906 
Q 1569 2906 1367 2781 
Q 1166 2656 1075 2415 
Q 984 2175 984 1722 
L 984 0 
L 422 0 
z
" transform="scale(0.015625)"/>
       <path id="ArialMT-6e" d="M 422 0 
L 422 3319 
L 928 3319 
L 928 2847 
Q 1294 3394 1984 3394 
Q 2284 3394 2536 3286 
Q 2788 3178 2913 3003 
Q 3038 2828 3088 2588 
Q 3119 2431 3119 2041 
L 3119 0 
L 2556 0 
L 2556 2019 
Q 2556 2363 2490 2533 
Q 2425 2703 2258 2804 
Q 2091 2906 1866 2906 
Q 1506 2906 1245 2678 
Q 984 2450 984 1813 
L 984 0 
L 422 0 
z
" transform="scale(0.015625)"/>
       <path id="ArialMT-74" d="M 1650 503 
L 1731 6 
Q 1494 -44 1306 -44 
Q 1000 -44 831 53 
Q 663 150 594 308 
Q 525 466 525 972 
L 525 2881 
L 113 2881 
L 113 3319 
L 525 3319 
L 525 4141 
L 1084 4478 
L 1084 3319 
L 1650 3319 
L 1650 2881 
L 1084 2881 
L 1084 941 
Q 1084 700 1114 631 
Q 1144 563 1211 522 
Q 1278 481 1403 481 
Q 1497 481 1650 503 
z
" transform="scale(0.015625)"/>
      </defs>
      <use xlink:href="#ArialMT-4d"/>
      <use xlink:href="#ArialMT-65" x="83.300781"/>
      <use xlink:href="#ArialMT-61" x="138.916016"/>
      <use xlink:href="#ArialMT-73" x="194.53125"/>
      <use xlink:href="#ArialMT-75" x="244.53125"/>
      <use xlink:href="#ArialMT-72" x="300.146484"/>
      <use xlink:href="#ArialMT-65" x="333.447266"/>
      <use xlink:href="#ArialMT-6d" x="389.0625"/>
      <use xlink:href="#ArialMT-65" x="472.363281"/>
      <use xlink:href="#ArialMT-6e" x="527.978516"/>
      <use xlink:href="#ArialMT-74" x="583.59375"/>
     </g>
    </g>
   </g>
  </g>
 </g>
 <defs>
  <clipPath id="p34c8ea54f6">
   <rect x="58.95" y="12.96" width="451.726364" height="299.7"/>
  </clipPath>
 </defs>
</svg>
