<?xml version="1.0" encoding="utf-8" standalone="no"?>
<!DOCTYPE svg PUBLIC "-//W3C//DTD SVG 1.1//EN"
  "http://www.w3.org/Graphics/SVG/1.1/DTD/svg11.dtd">
<svg xmlns:xlink="http://www.w3.org/1999/xlink" width="523.636364pt" height="360pt" viewBox="0 0 523.636364 360" xmlns="http://www.w3.org/2000/svg" version="1.1">
 <metadata>
  <rdf:RDF xmlns:dc="http://purl.org/dc/elements/1.1/" xmlns:cc="http://creativecommons.org/ns#" xmlns:rdf="http://www.w3.org/1999/02/22-rdf-syntax-ns#">
   <cc:Work>
    <dc:type rdf:resource="http://purl.org/dc/dcmitype/StillImage"/>
    <dc:date>2022-12-20T14:33:23.636993</dc:date>
    <dc:format>image/svg+xml</dc:format>
    <dc:creator>
     <cc:Agent>
      <dc:title>Matplotlib v3.6.2, https://matplotlib.org/</dc:title>
     </cc:Agent>
    </dc:creator>
   </cc:Work>
  </rdf:RDF>
 </metadata>
 <defs>
  <style type="text/css">*{stroke-linejoin: round; stroke-linecap: butt}</style>
 </defs>
 <g id="figure_1">
  <g id="patch_1">
   <path d="M 0 360 
L 523.636364 360 
L 523.636364 0 
L 0 0 
z
" style="fill: #ffffff"/>
  </g>
  <g id="axes_1">
   <g id="patch_2">
    <path d="M 49.86 312.66 
L 510.676364 312.66 
L 510.676364 12.96 
L 49.86 12.96 
z
" style="fill: #eaeaf2"/>
   </g>
   <g id="matplotlib.axis_1">
    <g id="xtick_1">
     <g id="line2d_1">
      <path d="M 70.764302 312.66 
L 70.764302 12.96 
" clip-path="url(#pc44cd6dc2e)" style="fill: none; stroke: #ffffff; stroke-linecap: round"/>
     </g>
     <g id="text_1">
      <!-- 0.0 -->
      <g style="fill: #262626" transform="translate(63.119302 330.033594) scale(0.11 -0.11)">
       <defs>
        <path id="ArialMT-30" d="M 266 2259 
Q 266 3072 433 3567 
Q 600 4063 929 4331 
Q 1259 4600 1759 4600 
Q 2128 4600 2406 4451 
Q 2684 4303 2865 4023 
Q 3047 3744 3150 3342 
Q 3253 2941 3253 2259 
Q 3253 1453 3087 958 
Q 2922 463 2592 192 
Q 2263 -78 1759 -78 
Q 1097 -78 719 397 
Q 266 969 266 2259 
z
M 844 2259 
Q 844 1131 1108 757 
Q 1372 384 1759 384 
Q 2147 384 2411 759 
Q 2675 1134 2675 2259 
Q 2675 3391 2411 3762 
Q 2147 4134 1753 4134 
Q 1366 4134 1134 3806 
Q 844 3388 844 2259 
z
" transform="scale(0.015625)"/>
        <path id="ArialMT-2e" d="M 581 0 
L 581 641 
L 1222 641 
L 1222 0 
L 581 0 
z
" transform="scale(0.015625)"/>
       </defs>
       <use xlink:href="#ArialMT-30"/>
       <use xlink:href="#ArialMT-2e" x="55.615234"/>
       <use xlink:href="#ArialMT-30" x="83.398438"/>
      </g>
     </g>
    </g>
    <g id="xtick_2">
     <g id="line2d_2">
      <path d="M 154.557474 312.66 
L 154.557474 12.96 
" clip-path="url(#pc44cd6dc2e)" style="fill: none; stroke: #ffffff; stroke-linecap: round"/>
     </g>
     <g id="text_2">
      <!-- 0.2 -->
      <g style="fill: #262626" transform="translate(146.912474 330.033594) scale(0.11 -0.11)">
       <defs>
        <path id="ArialMT-32" d="M 3222 541 
L 3222 0 
L 194 0 
Q 188 203 259 391 
Q 375 700 629 1000 
Q 884 1300 1366 1694 
Q 2113 2306 2375 2664 
Q 2638 3022 2638 3341 
Q 2638 3675 2398 3904 
Q 2159 4134 1775 4134 
Q 1369 4134 1125 3890 
Q 881 3647 878 3216 
L 300 3275 
Q 359 3922 746 4261 
Q 1134 4600 1788 4600 
Q 2447 4600 2831 4234 
Q 3216 3869 3216 3328 
Q 3216 3053 3103 2787 
Q 2991 2522 2730 2228 
Q 2469 1934 1863 1422 
Q 1356 997 1212 845 
Q 1069 694 975 541 
L 3222 541 
z
" transform="scale(0.015625)"/>
       </defs>
       <use xlink:href="#ArialMT-30"/>
       <use xlink:href="#ArialMT-2e" x="55.615234"/>
       <use xlink:href="#ArialMT-32" x="83.398438"/>
      </g>
     </g>
    </g>
    <g id="xtick_3">
     <g id="line2d_3">
      <path d="M 238.350647 312.66 
L 238.350647 12.96 
" clip-path="url(#pc44cd6dc2e)" style="fill: none; stroke: #ffffff; stroke-linecap: round"/>
     </g>
     <g id="text_3">
      <!-- 0.4 -->
      <g style="fill: #262626" transform="translate(230.705647 330.033594) scale(0.11 -0.11)">
       <defs>
        <path id="ArialMT-34" d="M 2069 0 
L 2069 1097 
L 81 1097 
L 81 1613 
L 2172 4581 
L 2631 4581 
L 2631 1613 
L 3250 1613 
L 3250 1097 
L 2631 1097 
L 2631 0 
L 2069 0 
z
M 2069 1613 
L 2069 3678 
L 634 1613 
L 2069 1613 
z
" transform="scale(0.015625)"/>
       </defs>
       <use xlink:href="#ArialMT-30"/>
       <use xlink:href="#ArialMT-2e" x="55.615234"/>
       <use xlink:href="#ArialMT-34" x="83.398438"/>
      </g>
     </g>
    </g>
    <g id="xtick_4">
     <g id="line2d_4">
      <path d="M 322.14382 312.66 
L 322.14382 12.96 
" clip-path="url(#pc44cd6dc2e)" style="fill: none; stroke: #ffffff; stroke-linecap: round"/>
     </g>
     <g id="text_4">
      <!-- 0.6 -->
      <g style="fill: #262626" transform="translate(314.49882 330.033594) scale(0.11 -0.11)">
       <defs>
        <path id="ArialMT-36" d="M 3184 3459 
L 2625 3416 
Q 2550 3747 2413 3897 
Q 2184 4138 1850 4138 
Q 1581 4138 1378 3988 
Q 1113 3794 959 3422 
Q 806 3050 800 2363 
Q 1003 2672 1297 2822 
Q 1591 2972 1913 2972 
Q 2475 2972 2870 2558 
Q 3266 2144 3266 1488 
Q 3266 1056 3080 686 
Q 2894 316 2569 119 
Q 2244 -78 1831 -78 
Q 1128 -78 684 439 
Q 241 956 241 2144 
Q 241 3472 731 4075 
Q 1159 4600 1884 4600 
Q 2425 4600 2770 4297 
Q 3116 3994 3184 3459 
z
M 888 1484 
Q 888 1194 1011 928 
Q 1134 663 1356 523 
Q 1578 384 1822 384 
Q 2178 384 2434 671 
Q 2691 959 2691 1453 
Q 2691 1928 2437 2201 
Q 2184 2475 1800 2475 
Q 1419 2475 1153 2201 
Q 888 1928 888 1484 
z
" transform="scale(0.015625)"/>
       </defs>
       <use xlink:href="#ArialMT-30"/>
       <use xlink:href="#ArialMT-2e" x="55.615234"/>
       <use xlink:href="#ArialMT-36" x="83.398438"/>
      </g>
     </g>
    </g>
    <g id="xtick_5">
     <g id="line2d_5">
      <path d="M 405.936993 312.66 
L 405.936993 12.96 
" clip-path="url(#pc44cd6dc2e)" style="fill: none; stroke: #ffffff; stroke-linecap: round"/>
     </g>
     <g id="text_5">
      <!-- 0.8 -->
      <g style="fill: #262626" transform="translate(398.291993 330.033594) scale(0.11 -0.11)">
       <defs>
        <path id="ArialMT-38" d="M 1131 2484 
Q 781 2613 612 2850 
Q 444 3088 444 3419 
Q 444 3919 803 4259 
Q 1163 4600 1759 4600 
Q 2359 4600 2725 4251 
Q 3091 3903 3091 3403 
Q 3091 3084 2923 2848 
Q 2756 2613 2416 2484 
Q 2838 2347 3058 2040 
Q 3278 1734 3278 1309 
Q 3278 722 2862 322 
Q 2447 -78 1769 -78 
Q 1091 -78 675 323 
Q 259 725 259 1325 
Q 259 1772 486 2073 
Q 713 2375 1131 2484 
z
M 1019 3438 
Q 1019 3113 1228 2906 
Q 1438 2700 1772 2700 
Q 2097 2700 2305 2904 
Q 2513 3109 2513 3406 
Q 2513 3716 2298 3927 
Q 2084 4138 1766 4138 
Q 1444 4138 1231 3931 
Q 1019 3725 1019 3438 
z
M 838 1322 
Q 838 1081 952 856 
Q 1066 631 1291 507 
Q 1516 384 1775 384 
Q 2178 384 2440 643 
Q 2703 903 2703 1303 
Q 2703 1709 2433 1975 
Q 2163 2241 1756 2241 
Q 1359 2241 1098 1978 
Q 838 1716 838 1322 
z
" transform="scale(0.015625)"/>
       </defs>
       <use xlink:href="#ArialMT-30"/>
       <use xlink:href="#ArialMT-2e" x="55.615234"/>
       <use xlink:href="#ArialMT-38" x="83.398438"/>
      </g>
     </g>
    </g>
    <g id="xtick_6">
     <g id="line2d_6">
      <path d="M 489.730165 312.66 
L 489.730165 12.96 
" clip-path="url(#pc44cd6dc2e)" style="fill: none; stroke: #ffffff; stroke-linecap: round"/>
     </g>
     <g id="text_6">
      <!-- 1.0 -->
      <g style="fill: #262626" transform="translate(482.085165 330.033594) scale(0.11 -0.11)">
       <defs>
        <path id="ArialMT-31" d="M 2384 0 
L 1822 0 
L 1822 3584 
Q 1619 3391 1289 3197 
Q 959 3003 697 2906 
L 697 3450 
Q 1169 3672 1522 3987 
Q 1875 4303 2022 4600 
L 2384 4600 
L 2384 0 
z
" transform="scale(0.015625)"/>
       </defs>
       <use xlink:href="#ArialMT-31"/>
       <use xlink:href="#ArialMT-2e" x="55.615234"/>
       <use xlink:href="#ArialMT-30" x="83.398438"/>
      </g>
     </g>
    </g>
    <g id="text_7">
     <!-- x/c [-] -->
     <g style="fill: #262626" transform="translate(265.602869 344.955469) scale(0.12 -0.12)">
      <defs>
       <path id="ArialMT-78" d="M 47 0 
L 1259 1725 
L 138 3319 
L 841 3319 
L 1350 2541 
Q 1494 2319 1581 2169 
Q 1719 2375 1834 2534 
L 2394 3319 
L 3066 3319 
L 1919 1756 
L 3153 0 
L 2463 0 
L 1781 1031 
L 1600 1309 
L 728 0 
L 47 0 
z
" transform="scale(0.015625)"/>
       <path id="ArialMT-2f" d="M 0 -78 
L 1328 4659 
L 1778 4659 
L 453 -78 
L 0 -78 
z
" transform="scale(0.015625)"/>
       <path id="ArialMT-63" d="M 2588 1216 
L 3141 1144 
Q 3050 572 2676 248 
Q 2303 -75 1759 -75 
Q 1078 -75 664 370 
Q 250 816 250 1647 
Q 250 2184 428 2587 
Q 606 2991 970 3192 
Q 1334 3394 1763 3394 
Q 2303 3394 2647 3120 
Q 2991 2847 3088 2344 
L 2541 2259 
Q 2463 2594 2264 2762 
Q 2066 2931 1784 2931 
Q 1359 2931 1093 2626 
Q 828 2322 828 1663 
Q 828 994 1084 691 
Q 1341 388 1753 388 
Q 2084 388 2306 591 
Q 2528 794 2588 1216 
z
" transform="scale(0.015625)"/>
       <path id="ArialMT-20" transform="scale(0.015625)"/>
       <path id="ArialMT-5b" d="M 434 -1272 
L 434 4581 
L 1675 4581 
L 1675 4116 
L 997 4116 
L 997 -806 
L 1675 -806 
L 1675 -1272 
L 434 -1272 
z
" transform="scale(0.015625)"/>
       <path id="ArialMT-2d" d="M 203 1375 
L 203 1941 
L 1931 1941 
L 1931 1375 
L 203 1375 
z
" transform="scale(0.015625)"/>
       <path id="ArialMT-5d" d="M 1363 -1272 
L 122 -1272 
L 122 -806 
L 800 -806 
L 800 4116 
L 122 4116 
L 122 4581 
L 1363 4581 
L 1363 -1272 
z
" transform="scale(0.015625)"/>
      </defs>
      <use xlink:href="#ArialMT-78"/>
      <use xlink:href="#ArialMT-2f" x="50"/>
      <use xlink:href="#ArialMT-63" x="77.783203"/>
      <use xlink:href="#ArialMT-20" x="127.783203"/>
      <use xlink:href="#ArialMT-5b" x="155.566406"/>
      <use xlink:href="#ArialMT-2d" x="183.349609"/>
      <use xlink:href="#ArialMT-5d" x="216.650391"/>
     </g>
    </g>
   </g>
   <g id="matplotlib.axis_2">
    <g id="ytick_1">
     <g id="line2d_7">
      <path d="M 49.86 34.830032 
L 510.676364 34.830032 
" clip-path="url(#pc44cd6dc2e)" style="fill: none; stroke: #ffffff; stroke-linecap: round"/>
     </g>
     <g id="text_8">
      <!-- −8 -->
      <g style="fill: #262626" transform="translate(27.818281 38.766829) scale(0.11 -0.11)">
       <defs>
        <path id="ArialMT-2212" d="M 3381 1997 
L 356 1997 
L 356 2522 
L 3381 2522 
L 3381 1997 
z
" transform="scale(0.015625)"/>
       </defs>
       <use xlink:href="#ArialMT-2212"/>
       <use xlink:href="#ArialMT-38" x="58.398438"/>
      </g>
     </g>
    </g>
    <g id="ytick_2">
     <g id="line2d_8">
      <path d="M 49.86 93.529708 
L 510.676364 93.529708 
" clip-path="url(#pc44cd6dc2e)" style="fill: none; stroke: #ffffff; stroke-linecap: round"/>
     </g>
     <g id="text_9">
      <!-- −6 -->
      <g style="fill: #262626" transform="translate(27.818281 97.466504) scale(0.11 -0.11)">
       <use xlink:href="#ArialMT-2212"/>
       <use xlink:href="#ArialMT-36" x="58.398438"/>
      </g>
     </g>
    </g>
    <g id="ytick_3">
     <g id="line2d_9">
      <path d="M 49.86 152.229383 
L 510.676364 152.229383 
" clip-path="url(#pc44cd6dc2e)" style="fill: none; stroke: #ffffff; stroke-linecap: round"/>
     </g>
     <g id="text_10">
      <!-- −4 -->
      <g style="fill: #262626" transform="translate(27.818281 156.16618) scale(0.11 -0.11)">
       <use xlink:href="#ArialMT-2212"/>
       <use xlink:href="#ArialMT-34" x="58.398438"/>
      </g>
     </g>
    </g>
    <g id="ytick_4">
     <g id="line2d_10">
      <path d="M 49.86 210.929059 
L 510.676364 210.929059 
" clip-path="url(#pc44cd6dc2e)" style="fill: none; stroke: #ffffff; stroke-linecap: round"/>
     </g>
     <g id="text_11">
      <!-- −2 -->
      <g style="fill: #262626" transform="translate(27.818281 214.865856) scale(0.11 -0.11)">
       <use xlink:href="#ArialMT-2212"/>
       <use xlink:href="#ArialMT-32" x="58.398438"/>
      </g>
     </g>
    </g>
    <g id="ytick_5">
     <g id="line2d_11">
      <path d="M 49.86 269.628735 
L 510.676364 269.628735 
" clip-path="url(#pc44cd6dc2e)" style="fill: none; stroke: #ffffff; stroke-linecap: round"/>
     </g>
     <g id="text_12">
      <!-- 0 -->
      <g style="fill: #262626" transform="translate(34.242969 273.565532) scale(0.11 -0.11)">
       <use xlink:href="#ArialMT-30"/>
      </g>
     </g>
    </g>
    <g id="text_13">
     <!-- Cp [-] -->
     <g style="fill: #262626" transform="translate(21.433281 177.478125) rotate(-90) scale(0.12 -0.12)">
      <defs>
       <path id="ArialMT-43" d="M 3763 1606 
L 4369 1453 
Q 4178 706 3683 314 
Q 3188 -78 2472 -78 
Q 1731 -78 1267 223 
Q 803 525 561 1097 
Q 319 1669 319 2325 
Q 319 3041 592 3573 
Q 866 4106 1370 4382 
Q 1875 4659 2481 4659 
Q 3169 4659 3637 4309 
Q 4106 3959 4291 3325 
L 3694 3184 
Q 3534 3684 3231 3912 
Q 2928 4141 2469 4141 
Q 1941 4141 1586 3887 
Q 1231 3634 1087 3207 
Q 944 2781 944 2328 
Q 944 1744 1114 1308 
Q 1284 872 1643 656 
Q 2003 441 2422 441 
Q 2931 441 3284 734 
Q 3638 1028 3763 1606 
z
" transform="scale(0.015625)"/>
       <path id="ArialMT-70" d="M 422 -1272 
L 422 3319 
L 934 3319 
L 934 2888 
Q 1116 3141 1344 3267 
Q 1572 3394 1897 3394 
Q 2322 3394 2647 3175 
Q 2972 2956 3137 2557 
Q 3303 2159 3303 1684 
Q 3303 1175 3120 767 
Q 2938 359 2589 142 
Q 2241 -75 1856 -75 
Q 1575 -75 1351 44 
Q 1128 163 984 344 
L 984 -1272 
L 422 -1272 
z
M 931 1641 
Q 931 1000 1190 694 
Q 1450 388 1819 388 
Q 2194 388 2461 705 
Q 2728 1022 2728 1688 
Q 2728 2322 2467 2637 
Q 2206 2953 1844 2953 
Q 1484 2953 1207 2617 
Q 931 2281 931 1641 
z
" transform="scale(0.015625)"/>
      </defs>
      <use xlink:href="#ArialMT-43"/>
      <use xlink:href="#ArialMT-70" x="72.216797"/>
      <use xlink:href="#ArialMT-20" x="127.832031"/>
      <use xlink:href="#ArialMT-5b" x="155.615234"/>
      <use xlink:href="#ArialMT-2d" x="183.398438"/>
      <use xlink:href="#ArialMT-5d" x="216.699219"/>
     </g>
    </g>
   </g>
   <g id="PathCollection_1">
    <defs>
     <path id="m7008d63e6f" d="M 0 3 
C 0.795609 3 1.55874 2.683901 2.12132 2.12132 
C 2.683901 1.55874 3 0.795609 3 0 
C 3 -0.795609 2.683901 -1.55874 2.12132 -2.12132 
C 1.55874 -2.683901 0.795609 -3 0 -3 
C -0.795609 -3 -1.55874 -2.683901 -2.12132 -2.12132 
C -2.683901 -1.55874 -3 -0.795609 -3 0 
C -3 0.795609 -2.683901 1.55874 -2.12132 2.12132 
C -1.55874 2.683901 -0.795609 3 0 3 
z
" style="stroke: #ffffff; stroke-width: 0.48"/>
    </defs>
    <g clip-path="url(#pc44cd6dc2e)">
     <use xlink:href="#m7008d63e6f" x="489.730165" y="266.576352" style="fill: #4c72b0; stroke: #ffffff; stroke-width: 0.48"/>
     <use xlink:href="#m7008d63e6f" x="482.523952" y="266.458953" style="fill: #4c72b0; stroke: #ffffff; stroke-width: 0.48"/>
     <use xlink:href="#m7008d63e6f" x="473.055324" y="266.282854" style="fill: #4c72b0; stroke: #ffffff; stroke-width: 0.48"/>
     <use xlink:href="#m7008d63e6f" x="462.91635" y="266.077405" style="fill: #4c72b0; stroke: #ffffff; stroke-width: 0.48"/>
     <use xlink:href="#m7008d63e6f" x="452.567893" y="265.871956" style="fill: #4c72b0; stroke: #ffffff; stroke-width: 0.48"/>
     <use xlink:href="#m7008d63e6f" x="442.17754" y="265.666507" style="fill: #4c72b0; stroke: #ffffff; stroke-width: 0.48"/>
     <use xlink:href="#m7008d63e6f" x="431.74529" y="265.461058" style="fill: #4c72b0; stroke: #ffffff; stroke-width: 0.48"/>
     <use xlink:href="#m7008d63e6f" x="421.31304" y="265.255609" style="fill: #4c72b0; stroke: #ffffff; stroke-width: 0.48"/>
     <use xlink:href="#m7008d63e6f" x="410.838893" y="265.05016" style="fill: #4c72b0; stroke: #ffffff; stroke-width: 0.48"/>
     <use xlink:href="#m7008d63e6f" x="400.406643" y="264.844712" style="fill: #4c72b0; stroke: #ffffff; stroke-width: 0.48"/>
     <use xlink:href="#m7008d63e6f" x="389.974393" y="264.639263" style="fill: #4c72b0; stroke: #ffffff; stroke-width: 0.48"/>
     <use xlink:href="#m7008d63e6f" x="379.58404" y="264.433814" style="fill: #4c72b0; stroke: #ffffff; stroke-width: 0.48"/>
     <use xlink:href="#m7008d63e6f" x="369.193686" y="264.257715" style="fill: #4c72b0; stroke: #ffffff; stroke-width: 0.48"/>
     <use xlink:href="#m7008d63e6f" x="358.84523" y="264.081616" style="fill: #4c72b0; stroke: #ffffff; stroke-width: 0.48"/>
     <use xlink:href="#m7008d63e6f" x="348.496773" y="263.934867" style="fill: #4c72b0; stroke: #ffffff; stroke-width: 0.48"/>
     <use xlink:href="#m7008d63e6f" x="338.190212" y="263.934867" style="fill: #4c72b0; stroke: #ffffff; stroke-width: 0.48"/>
     <use xlink:href="#m7008d63e6f" x="327.883652" y="263.641368" style="fill: #4c72b0; stroke: #ffffff; stroke-width: 0.48"/>
     <use xlink:href="#m7008d63e6f" x="317.618989" y="262.819573" style="fill: #4c72b0; stroke: #ffffff; stroke-width: 0.48"/>
     <use xlink:href="#m7008d63e6f" x="307.312428" y="261.58688" style="fill: #4c72b0; stroke: #ffffff; stroke-width: 0.48"/>
     <use xlink:href="#m7008d63e6f" x="297.047765" y="259.972638" style="fill: #4c72b0; stroke: #ffffff; stroke-width: 0.48"/>
     <use xlink:href="#m7008d63e6f" x="286.783101" y="258.035549" style="fill: #4c72b0; stroke: #ffffff; stroke-width: 0.48"/>
     <use xlink:href="#m7008d63e6f" x="276.518437" y="255.804961" style="fill: #4c72b0; stroke: #ffffff; stroke-width: 0.48"/>
     <use xlink:href="#m7008d63e6f" x="266.29567" y="253.427625" style="fill: #4c72b0; stroke: #ffffff; stroke-width: 0.48"/>
     <use xlink:href="#m7008d63e6f" x="256.1148" y="250.903539" style="fill: #4c72b0; stroke: #ffffff; stroke-width: 0.48"/>
     <use xlink:href="#m7008d63e6f" x="245.975826" y="248.350103" style="fill: #4c72b0; stroke: #ffffff; stroke-width: 0.48"/>
     <use xlink:href="#m7008d63e6f" x="235.836852" y="245.943416" style="fill: #4c72b0; stroke: #ffffff; stroke-width: 0.48"/>
     <use xlink:href="#m7008d63e6f" x="225.697878" y="243.771528" style="fill: #4c72b0; stroke: #ffffff; stroke-width: 0.48"/>
     <use xlink:href="#m7008d63e6f" x="215.558904" y="241.746389" style="fill: #4c72b0; stroke: #ffffff; stroke-width: 0.48"/>
     <use xlink:href="#m7008d63e6f" x="205.336137" y="239.72125" style="fill: #4c72b0; stroke: #ffffff; stroke-width: 0.48"/>
     <use xlink:href="#m7008d63e6f" x="195.155267" y="237.637412" style="fill: #4c72b0; stroke: #ffffff; stroke-width: 0.48"/>
     <use xlink:href="#m7008d63e6f" x="184.974396" y="235.406824" style="fill: #4c72b0; stroke: #ffffff; stroke-width: 0.48"/>
     <use xlink:href="#m7008d63e6f" x="174.793526" y="233.000137" style="fill: #4c72b0; stroke: #ffffff; stroke-width: 0.48"/>
     <use xlink:href="#m7008d63e6f" x="164.654552" y="230.329302" style="fill: #4c72b0; stroke: #ffffff; stroke-width: 0.48"/>
     <use xlink:href="#m7008d63e6f" x="154.557474" y="227.364969" style="fill: #4c72b0; stroke: #ffffff; stroke-width: 0.48"/>
     <use xlink:href="#m7008d63e6f" x="144.502294" y="223.960387" style="fill: #4c72b0; stroke: #ffffff; stroke-width: 0.48"/>
     <use xlink:href="#m7008d63e6f" x="134.530906" y="219.968809" style="fill: #4c72b0; stroke: #ffffff; stroke-width: 0.48"/>
     <use xlink:href="#m7008d63e6f" x="124.727105" y="215.008687" style="fill: #4c72b0; stroke: #ffffff; stroke-width: 0.48"/>
     <use xlink:href="#m7008d63e6f" x="115.09089" y="208.874571" style="fill: #4c72b0; stroke: #ffffff; stroke-width: 0.48"/>
     <use xlink:href="#m7008d63e6f" x="105.873641" y="201.096864" style="fill: #4c72b0; stroke: #ffffff; stroke-width: 0.48"/>
     <use xlink:href="#m7008d63e6f" x="97.452427" y="190.530922" style="fill: #4c72b0; stroke: #ffffff; stroke-width: 0.48"/>
     <use xlink:href="#m7008d63e6f" x="90.288111" y="176.765848" style="fill: #4c72b0; stroke: #ffffff; stroke-width: 0.48"/>
     <use xlink:href="#m7008d63e6f" x="84.799658" y="160.711487" style="fill: #4c72b0; stroke: #ffffff; stroke-width: 0.48"/>
     <use xlink:href="#m7008d63e6f" x="80.693793" y="141.868891" style="fill: #4c72b0; stroke: #ffffff; stroke-width: 0.48"/>
     <use xlink:href="#m7008d63e6f" x="77.677239" y="84.137759" style="fill: #4c72b0; stroke: #ffffff; stroke-width: 0.48"/>
     <use xlink:href="#m7008d63e6f" x="75.414823" y="52.674733" style="fill: #4c72b0; stroke: #ffffff; stroke-width: 0.48"/>
     <use xlink:href="#m7008d63e6f" x="73.738959" y="49.769099" style="fill: #4c72b0; stroke: #ffffff; stroke-width: 0.48"/>
     <use xlink:href="#m7008d63e6f" x="72.482062" y="34.008236" style="fill: #4c72b0; stroke: #ffffff; stroke-width: 0.48"/>
     <use xlink:href="#m7008d63e6f" x="71.64413" y="26.582727" style="fill: #4c72b0; stroke: #ffffff; stroke-width: 0.48"/>
     <use xlink:href="#m7008d63e6f" x="71.141371" y="41.404395" style="fill: #4c72b0; stroke: #ffffff; stroke-width: 0.48"/>
     <use xlink:href="#m7008d63e6f" x="70.848095" y="42.108792" style="fill: #4c72b0; stroke: #ffffff; stroke-width: 0.48"/>
     <use xlink:href="#m7008d63e6f" x="70.806198" y="51.236591" style="fill: #4c72b0; stroke: #ffffff; stroke-width: 0.48"/>
     <use xlink:href="#m7008d63e6f" x="71.057578" y="140.1666" style="fill: #4c72b0; stroke: #ffffff; stroke-width: 0.48"/>
     <use xlink:href="#m7008d63e6f" x="71.476544" y="171.747026" style="fill: #4c72b0; stroke: #ffffff; stroke-width: 0.48"/>
     <use xlink:href="#m7008d63e6f" x="72.188786" y="209.226769" style="fill: #4c72b0; stroke: #ffffff; stroke-width: 0.48"/>
     <use xlink:href="#m7008d63e6f" x="73.319994" y="246.530413" style="fill: #4c72b0; stroke: #ffffff; stroke-width: 0.48"/>
     <use xlink:href="#m7008d63e6f" x="74.870167" y="272.035422" style="fill: #4c72b0; stroke: #ffffff; stroke-width: 0.48"/>
     <use xlink:href="#m7008d63e6f" x="76.9231" y="286.211394" style="fill: #4c72b0; stroke: #ffffff; stroke-width: 0.48"/>
     <use xlink:href="#m7008d63e6f" x="79.646378" y="294.1652" style="fill: #4c72b0; stroke: #ffffff; stroke-width: 0.48"/>
     <use xlink:href="#m7008d63e6f" x="83.333278" y="298.010028" style="fill: #4c72b0; stroke: #ffffff; stroke-width: 0.48"/>
     <use xlink:href="#m7008d63e6f" x="88.318971" y="299.037273" style="fill: #4c72b0; stroke: #ffffff; stroke-width: 0.48"/>
     <use xlink:href="#m7008d63e6f" x="94.896735" y="298.186127" style="fill: #4c72b0; stroke: #ffffff; stroke-width: 0.48"/>
     <use xlink:href="#m7008d63e6f" x="102.94088" y="296.249038" style="fill: #4c72b0; stroke: #ffffff; stroke-width: 0.48"/>
     <use xlink:href="#m7008d63e6f" x="111.990543" y="293.959751" style="fill: #4c72b0; stroke: #ffffff; stroke-width: 0.48"/>
     <use xlink:href="#m7008d63e6f" x="121.459171" y="291.670463" style="fill: #4c72b0; stroke: #ffffff; stroke-width: 0.48"/>
     <use xlink:href="#m7008d63e6f" x="131.262972" y="289.527925" style="fill: #4c72b0; stroke: #ffffff; stroke-width: 0.48"/>
     <use xlink:href="#m7008d63e6f" x="141.192463" y="287.590836" style="fill: #4c72b0; stroke: #ffffff; stroke-width: 0.48"/>
     <use xlink:href="#m7008d63e6f" x="151.205748" y="285.771146" style="fill: #4c72b0; stroke: #ffffff; stroke-width: 0.48"/>
     <use xlink:href="#m7008d63e6f" x="161.260928" y="284.098205" style="fill: #4c72b0; stroke: #ffffff; stroke-width: 0.48"/>
     <use xlink:href="#m7008d63e6f" x="171.399902" y="282.542664" style="fill: #4c72b0; stroke: #ffffff; stroke-width: 0.48"/>
     <use xlink:href="#m7008d63e6f" x="181.580773" y="281.104522" style="fill: #4c72b0; stroke: #ffffff; stroke-width: 0.48"/>
     <use xlink:href="#m7008d63e6f" x="191.761643" y="279.754429" style="fill: #4c72b0; stroke: #ffffff; stroke-width: 0.48"/>
     <use xlink:href="#m7008d63e6f" x="201.942514" y="278.463036" style="fill: #4c72b0; stroke: #ffffff; stroke-width: 0.48"/>
     <use xlink:href="#m7008d63e6f" x="212.165281" y="277.200993" style="fill: #4c72b0; stroke: #ffffff; stroke-width: 0.48"/>
     <use xlink:href="#m7008d63e6f" x="222.346151" y="276.027" style="fill: #4c72b0; stroke: #ffffff; stroke-width: 0.48"/>
     <use xlink:href="#m7008d63e6f" x="232.485125" y="274.911706" style="fill: #4c72b0; stroke: #ffffff; stroke-width: 0.48"/>
     <use xlink:href="#m7008d63e6f" x="242.582202" y="274.031211" style="fill: #4c72b0; stroke: #ffffff; stroke-width: 0.48"/>
     <use xlink:href="#m7008d63e6f" x="252.721176" y="273.385514" style="fill: #4c72b0; stroke: #ffffff; stroke-width: 0.48"/>
     <use xlink:href="#m7008d63e6f" x="262.902047" y="272.915917" style="fill: #4c72b0; stroke: #ffffff; stroke-width: 0.48"/>
     <use xlink:href="#m7008d63e6f" x="273.124814" y="272.505019" style="fill: #4c72b0; stroke: #ffffff; stroke-width: 0.48"/>
     <use xlink:href="#m7008d63e6f" x="283.347581" y="272.182171" style="fill: #4c72b0; stroke: #ffffff; stroke-width: 0.48"/>
     <use xlink:href="#m7008d63e6f" x="293.612245" y="271.947372" style="fill: #4c72b0; stroke: #ffffff; stroke-width: 0.48"/>
     <use xlink:href="#m7008d63e6f" x="303.876908" y="271.712574" style="fill: #4c72b0; stroke: #ffffff; stroke-width: 0.48"/>
     <use xlink:href="#m7008d63e6f" x="314.183468" y="271.536475" style="fill: #4c72b0; stroke: #ffffff; stroke-width: 0.48"/>
     <use xlink:href="#m7008d63e6f" x="324.448132" y="271.389725" style="fill: #4c72b0; stroke: #ffffff; stroke-width: 0.48"/>
     <use xlink:href="#m7008d63e6f" x="334.754692" y="271.301676" style="fill: #4c72b0; stroke: #ffffff; stroke-width: 0.48"/>
     <use xlink:href="#m7008d63e6f" x="345.061253" y="271.242976" style="fill: #4c72b0; stroke: #ffffff; stroke-width: 0.48"/>
     <use xlink:href="#m7008d63e6f" x="355.409709" y="271.213626" style="fill: #4c72b0; stroke: #ffffff; stroke-width: 0.48"/>
     <use xlink:href="#m7008d63e6f" x="365.758166" y="271.213626" style="fill: #4c72b0; stroke: #ffffff; stroke-width: 0.48"/>
     <use xlink:href="#m7008d63e6f" x="376.106623" y="271.213626" style="fill: #4c72b0; stroke: #ffffff; stroke-width: 0.48"/>
     <use xlink:href="#m7008d63e6f" x="386.538873" y="271.213626" style="fill: #4c72b0; stroke: #ffffff; stroke-width: 0.48"/>
     <use xlink:href="#m7008d63e6f" x="396.929227" y="271.154927" style="fill: #4c72b0; stroke: #ffffff; stroke-width: 0.48"/>
     <use xlink:href="#m7008d63e6f" x="407.361477" y="271.037527" style="fill: #4c72b0; stroke: #ffffff; stroke-width: 0.48"/>
     <use xlink:href="#m7008d63e6f" x="417.835623" y="270.861428" style="fill: #4c72b0; stroke: #ffffff; stroke-width: 0.48"/>
     <use xlink:href="#m7008d63e6f" x="428.267873" y="270.62663" style="fill: #4c72b0; stroke: #ffffff; stroke-width: 0.48"/>
     <use xlink:href="#m7008d63e6f" x="438.700123" y="270.362481" style="fill: #4c72b0; stroke: #ffffff; stroke-width: 0.48"/>
     <use xlink:href="#m7008d63e6f" x="449.090477" y="270.010283" style="fill: #4c72b0; stroke: #ffffff; stroke-width: 0.48"/>
     <use xlink:href="#m7008d63e6f" x="459.48083" y="269.570035" style="fill: #4c72b0; stroke: #ffffff; stroke-width: 0.48"/>
     <use xlink:href="#m7008d63e6f" x="469.745494" y="269.041738" style="fill: #4c72b0; stroke: #ffffff; stroke-width: 0.48"/>
     <use xlink:href="#m7008d63e6f" x="479.507398" y="268.278643" style="fill: #4c72b0; stroke: #ffffff; stroke-width: 0.48"/>
     <use xlink:href="#m7008d63e6f" x="488.096198" y="267.192699" style="fill: #4c72b0; stroke: #ffffff; stroke-width: 0.48"/>
    </g>
   </g>
   <g id="PathCollection_2">
    <defs>
     <path id="mc0d6623e39" d="M 0 3 
C 0.795609 3 1.55874 2.683901 2.12132 2.12132 
C 2.683901 1.55874 3 0.795609 3 0 
C 3 -0.795609 2.683901 -1.55874 2.12132 -2.12132 
C 1.55874 -2.683901 0.795609 -3 0 -3 
C -0.795609 -3 -1.55874 -2.683901 -2.12132 -2.12132 
C -2.683901 -1.55874 -3 -0.795609 -3 0 
C -3 0.795609 -2.683901 1.55874 -2.12132 2.12132 
C -1.55874 2.683901 -0.795609 3 0 3 
z
" style="stroke: #ffffff; stroke-width: 0.48"/>
    </defs>
    <g clip-path="url(#pc44cd6dc2e)">
     <use xlink:href="#mc0d6623e39" x="489.730165" y="266.576352" style="fill: #2e8b57; stroke: #ffffff; stroke-width: 0.48"/>
     <use xlink:href="#mc0d6623e39" x="482.523952" y="266.458953" style="fill: #2e8b57; stroke: #ffffff; stroke-width: 0.48"/>
     <use xlink:href="#mc0d6623e39" x="473.055324" y="266.282854" style="fill: #2e8b57; stroke: #ffffff; stroke-width: 0.48"/>
     <use xlink:href="#mc0d6623e39" x="462.91635" y="266.077405" style="fill: #2e8b57; stroke: #ffffff; stroke-width: 0.48"/>
     <use xlink:href="#mc0d6623e39" x="452.567893" y="265.871956" style="fill: #2e8b57; stroke: #ffffff; stroke-width: 0.48"/>
     <use xlink:href="#mc0d6623e39" x="442.17754" y="265.666507" style="fill: #2e8b57; stroke: #ffffff; stroke-width: 0.48"/>
     <use xlink:href="#mc0d6623e39" x="431.74529" y="265.461058" style="fill: #2e8b57; stroke: #ffffff; stroke-width: 0.48"/>
     <use xlink:href="#mc0d6623e39" x="421.31304" y="265.255609" style="fill: #2e8b57; stroke: #ffffff; stroke-width: 0.48"/>
     <use xlink:href="#mc0d6623e39" x="410.838893" y="265.05016" style="fill: #2e8b57; stroke: #ffffff; stroke-width: 0.48"/>
     <use xlink:href="#mc0d6623e39" x="400.406643" y="264.844712" style="fill: #2e8b57; stroke: #ffffff; stroke-width: 0.48"/>
     <use xlink:href="#mc0d6623e39" x="389.974393" y="264.639263" style="fill: #2e8b57; stroke: #ffffff; stroke-width: 0.48"/>
     <use xlink:href="#mc0d6623e39" x="379.58404" y="264.433814" style="fill: #2e8b57; stroke: #ffffff; stroke-width: 0.48"/>
     <use xlink:href="#mc0d6623e39" x="369.193686" y="264.257715" style="fill: #2e8b57; stroke: #ffffff; stroke-width: 0.48"/>
     <use xlink:href="#mc0d6623e39" x="358.84523" y="264.081616" style="fill: #2e8b57; stroke: #ffffff; stroke-width: 0.48"/>
     <use xlink:href="#mc0d6623e39" x="348.496773" y="263.934867" style="fill: #2e8b57; stroke: #ffffff; stroke-width: 0.48"/>
     <use xlink:href="#mc0d6623e39" x="338.190212" y="263.934867" style="fill: #2e8b57; stroke: #ffffff; stroke-width: 0.48"/>
     <use xlink:href="#mc0d6623e39" x="327.883652" y="263.641368" style="fill: #2e8b57; stroke: #ffffff; stroke-width: 0.48"/>
     <use xlink:href="#mc0d6623e39" x="317.618989" y="262.819573" style="fill: #2e8b57; stroke: #ffffff; stroke-width: 0.48"/>
     <use xlink:href="#mc0d6623e39" x="307.312428" y="261.58688" style="fill: #2e8b57; stroke: #ffffff; stroke-width: 0.48"/>
     <use xlink:href="#mc0d6623e39" x="297.047765" y="259.972638" style="fill: #2e8b57; stroke: #ffffff; stroke-width: 0.48"/>
     <use xlink:href="#mc0d6623e39" x="286.783101" y="258.035549" style="fill: #2e8b57; stroke: #ffffff; stroke-width: 0.48"/>
     <use xlink:href="#mc0d6623e39" x="276.518437" y="255.804961" style="fill: #2e8b57; stroke: #ffffff; stroke-width: 0.48"/>
     <use xlink:href="#mc0d6623e39" x="266.29567" y="253.427625" style="fill: #2e8b57; stroke: #ffffff; stroke-width: 0.48"/>
     <use xlink:href="#mc0d6623e39" x="256.1148" y="250.903539" style="fill: #2e8b57; stroke: #ffffff; stroke-width: 0.48"/>
     <use xlink:href="#mc0d6623e39" x="245.975826" y="248.350103" style="fill: #2e8b57; stroke: #ffffff; stroke-width: 0.48"/>
     <use xlink:href="#mc0d6623e39" x="235.836852" y="245.943416" style="fill: #2e8b57; stroke: #ffffff; stroke-width: 0.48"/>
     <use xlink:href="#mc0d6623e39" x="225.697878" y="243.771528" style="fill: #2e8b57; stroke: #ffffff; stroke-width: 0.48"/>
     <use xlink:href="#mc0d6623e39" x="215.558904" y="241.746389" style="fill: #2e8b57; stroke: #ffffff; stroke-width: 0.48"/>
     <use xlink:href="#mc0d6623e39" x="205.336137" y="239.72125" style="fill: #2e8b57; stroke: #ffffff; stroke-width: 0.48"/>
     <use xlink:href="#mc0d6623e39" x="195.155267" y="237.637412" style="fill: #2e8b57; stroke: #ffffff; stroke-width: 0.48"/>
     <use xlink:href="#mc0d6623e39" x="184.974396" y="235.406824" style="fill: #2e8b57; stroke: #ffffff; stroke-width: 0.48"/>
     <use xlink:href="#mc0d6623e39" x="174.793526" y="233.000137" style="fill: #2e8b57; stroke: #ffffff; stroke-width: 0.48"/>
     <use xlink:href="#mc0d6623e39" x="164.654552" y="230.329302" style="fill: #2e8b57; stroke: #ffffff; stroke-width: 0.48"/>
     <use xlink:href="#mc0d6623e39" x="154.557474" y="227.364969" style="fill: #2e8b57; stroke: #ffffff; stroke-width: 0.48"/>
     <use xlink:href="#mc0d6623e39" x="144.502294" y="223.960387" style="fill: #2e8b57; stroke: #ffffff; stroke-width: 0.48"/>
     <use xlink:href="#mc0d6623e39" x="134.530906" y="219.968809" style="fill: #2e8b57; stroke: #ffffff; stroke-width: 0.48"/>
     <use xlink:href="#mc0d6623e39" x="124.727105" y="215.008687" style="fill: #2e8b57; stroke: #ffffff; stroke-width: 0.48"/>
     <use xlink:href="#mc0d6623e39" x="115.09089" y="208.874571" style="fill: #2e8b57; stroke: #ffffff; stroke-width: 0.48"/>
     <use xlink:href="#mc0d6623e39" x="105.873641" y="201.096864" style="fill: #2e8b57; stroke: #ffffff; stroke-width: 0.48"/>
     <use xlink:href="#mc0d6623e39" x="97.452427" y="190.530922" style="fill: #2e8b57; stroke: #ffffff; stroke-width: 0.48"/>
     <use xlink:href="#mc0d6623e39" x="90.288111" y="176.765848" style="fill: #2e8b57; stroke: #ffffff; stroke-width: 0.48"/>
     <use xlink:href="#mc0d6623e39" x="84.799658" y="160.711487" style="fill: #2e8b57; stroke: #ffffff; stroke-width: 0.48"/>
     <use xlink:href="#mc0d6623e39" x="80.693793" y="141.868891" style="fill: #2e8b57; stroke: #ffffff; stroke-width: 0.48"/>
     <use xlink:href="#mc0d6623e39" x="77.677239" y="84.137759" style="fill: #2e8b57; stroke: #ffffff; stroke-width: 0.48"/>
     <use xlink:href="#mc0d6623e39" x="75.414823" y="52.674733" style="fill: #2e8b57; stroke: #ffffff; stroke-width: 0.48"/>
     <use xlink:href="#mc0d6623e39" x="73.738959" y="49.769099" style="fill: #2e8b57; stroke: #ffffff; stroke-width: 0.48"/>
     <use xlink:href="#mc0d6623e39" x="72.482062" y="34.008236" style="fill: #2e8b57; stroke: #ffffff; stroke-width: 0.48"/>
     <use xlink:href="#mc0d6623e39" x="71.64413" y="26.582727" style="fill: #2e8b57; stroke: #ffffff; stroke-width: 0.48"/>
     <use xlink:href="#mc0d6623e39" x="71.141371" y="41.404395" style="fill: #2e8b57; stroke: #ffffff; stroke-width: 0.48"/>
     <use xlink:href="#mc0d6623e39" x="70.848095" y="42.108792" style="fill: #2e8b57; stroke: #ffffff; stroke-width: 0.48"/>
     <use xlink:href="#mc0d6623e39" x="70.806198" y="51.236591" style="fill: #2e8b57; stroke: #ffffff; stroke-width: 0.48"/>
     <use xlink:href="#mc0d6623e39" x="71.057578" y="140.1666" style="fill: #2e8b57; stroke: #ffffff; stroke-width: 0.48"/>
     <use xlink:href="#mc0d6623e39" x="71.476544" y="171.747026" style="fill: #2e8b57; stroke: #ffffff; stroke-width: 0.48"/>
     <use xlink:href="#mc0d6623e39" x="72.188786" y="209.226769" style="fill: #2e8b57; stroke: #ffffff; stroke-width: 0.48"/>
     <use xlink:href="#mc0d6623e39" x="73.319994" y="246.530413" style="fill: #2e8b57; stroke: #ffffff; stroke-width: 0.48"/>
     <use xlink:href="#mc0d6623e39" x="74.870167" y="272.035422" style="fill: #2e8b57; stroke: #ffffff; stroke-width: 0.48"/>
     <use xlink:href="#mc0d6623e39" x="76.9231" y="286.211394" style="fill: #2e8b57; stroke: #ffffff; stroke-width: 0.48"/>
     <use xlink:href="#mc0d6623e39" x="79.646378" y="294.1652" style="fill: #2e8b57; stroke: #ffffff; stroke-width: 0.48"/>
     <use xlink:href="#mc0d6623e39" x="83.333278" y="298.010028" style="fill: #2e8b57; stroke: #ffffff; stroke-width: 0.48"/>
     <use xlink:href="#mc0d6623e39" x="88.318971" y="299.037273" style="fill: #2e8b57; stroke: #ffffff; stroke-width: 0.48"/>
     <use xlink:href="#mc0d6623e39" x="94.896735" y="298.186127" style="fill: #2e8b57; stroke: #ffffff; stroke-width: 0.48"/>
     <use xlink:href="#mc0d6623e39" x="102.94088" y="296.249038" style="fill: #2e8b57; stroke: #ffffff; stroke-width: 0.48"/>
     <use xlink:href="#mc0d6623e39" x="111.990543" y="293.959751" style="fill: #2e8b57; stroke: #ffffff; stroke-width: 0.48"/>
     <use xlink:href="#mc0d6623e39" x="121.459171" y="291.670463" style="fill: #2e8b57; stroke: #ffffff; stroke-width: 0.48"/>
     <use xlink:href="#mc0d6623e39" x="131.262972" y="289.527925" style="fill: #2e8b57; stroke: #ffffff; stroke-width: 0.48"/>
     <use xlink:href="#mc0d6623e39" x="141.192463" y="287.590836" style="fill: #2e8b57; stroke: #ffffff; stroke-width: 0.48"/>
     <use xlink:href="#mc0d6623e39" x="151.205748" y="285.771146" style="fill: #2e8b57; stroke: #ffffff; stroke-width: 0.48"/>
     <use xlink:href="#mc0d6623e39" x="161.260928" y="284.098205" style="fill: #2e8b57; stroke: #ffffff; stroke-width: 0.48"/>
     <use xlink:href="#mc0d6623e39" x="171.399902" y="282.542664" style="fill: #2e8b57; stroke: #ffffff; stroke-width: 0.48"/>
     <use xlink:href="#mc0d6623e39" x="181.580773" y="281.104522" style="fill: #2e8b57; stroke: #ffffff; stroke-width: 0.48"/>
     <use xlink:href="#mc0d6623e39" x="191.761643" y="279.754429" style="fill: #2e8b57; stroke: #ffffff; stroke-width: 0.48"/>
     <use xlink:href="#mc0d6623e39" x="201.942514" y="278.463036" style="fill: #2e8b57; stroke: #ffffff; stroke-width: 0.48"/>
     <use xlink:href="#mc0d6623e39" x="212.165281" y="277.200993" style="fill: #2e8b57; stroke: #ffffff; stroke-width: 0.48"/>
     <use xlink:href="#mc0d6623e39" x="222.346151" y="276.027" style="fill: #2e8b57; stroke: #ffffff; stroke-width: 0.48"/>
     <use xlink:href="#mc0d6623e39" x="232.485125" y="274.911706" style="fill: #2e8b57; stroke: #ffffff; stroke-width: 0.48"/>
     <use xlink:href="#mc0d6623e39" x="242.582202" y="274.031211" style="fill: #2e8b57; stroke: #ffffff; stroke-width: 0.48"/>
     <use xlink:href="#mc0d6623e39" x="252.721176" y="273.385514" style="fill: #2e8b57; stroke: #ffffff; stroke-width: 0.48"/>
     <use xlink:href="#mc0d6623e39" x="262.902047" y="272.915917" style="fill: #2e8b57; stroke: #ffffff; stroke-width: 0.48"/>
     <use xlink:href="#mc0d6623e39" x="273.124814" y="272.505019" style="fill: #2e8b57; stroke: #ffffff; stroke-width: 0.48"/>
     <use xlink:href="#mc0d6623e39" x="283.347581" y="272.182171" style="fill: #2e8b57; stroke: #ffffff; stroke-width: 0.48"/>
     <use xlink:href="#mc0d6623e39" x="293.612245" y="271.947372" style="fill: #2e8b57; stroke: #ffffff; stroke-width: 0.48"/>
     <use xlink:href="#mc0d6623e39" x="303.876908" y="271.712574" style="fill: #2e8b57; stroke: #ffffff; stroke-width: 0.48"/>
     <use xlink:href="#mc0d6623e39" x="314.183468" y="271.536475" style="fill: #2e8b57; stroke: #ffffff; stroke-width: 0.48"/>
     <use xlink:href="#mc0d6623e39" x="324.448132" y="271.389725" style="fill: #2e8b57; stroke: #ffffff; stroke-width: 0.48"/>
     <use xlink:href="#mc0d6623e39" x="334.754692" y="271.301676" style="fill: #2e8b57; stroke: #ffffff; stroke-width: 0.48"/>
     <use xlink:href="#mc0d6623e39" x="345.061253" y="271.242976" style="fill: #2e8b57; stroke: #ffffff; stroke-width: 0.48"/>
     <use xlink:href="#mc0d6623e39" x="355.409709" y="271.213626" style="fill: #2e8b57; stroke: #ffffff; stroke-width: 0.48"/>
     <use xlink:href="#mc0d6623e39" x="365.758166" y="271.213626" style="fill: #2e8b57; stroke: #ffffff; stroke-width: 0.48"/>
     <use xlink:href="#mc0d6623e39" x="376.106623" y="271.213626" style="fill: #2e8b57; stroke: #ffffff; stroke-width: 0.48"/>
     <use xlink:href="#mc0d6623e39" x="386.538873" y="271.213626" style="fill: #2e8b57; stroke: #ffffff; stroke-width: 0.48"/>
     <use xlink:href="#mc0d6623e39" x="396.929227" y="271.154927" style="fill: #2e8b57; stroke: #ffffff; stroke-width: 0.48"/>
     <use xlink:href="#mc0d6623e39" x="407.361477" y="271.037527" style="fill: #2e8b57; stroke: #ffffff; stroke-width: 0.48"/>
     <use xlink:href="#mc0d6623e39" x="417.835623" y="270.861428" style="fill: #2e8b57; stroke: #ffffff; stroke-width: 0.48"/>
     <use xlink:href="#mc0d6623e39" x="428.267873" y="270.62663" style="fill: #2e8b57; stroke: #ffffff; stroke-width: 0.48"/>
     <use xlink:href="#mc0d6623e39" x="438.700123" y="270.362481" style="fill: #2e8b57; stroke: #ffffff; stroke-width: 0.48"/>
     <use xlink:href="#mc0d6623e39" x="449.090477" y="270.010283" style="fill: #2e8b57; stroke: #ffffff; stroke-width: 0.48"/>
     <use xlink:href="#mc0d6623e39" x="459.48083" y="269.570035" style="fill: #2e8b57; stroke: #ffffff; stroke-width: 0.48"/>
     <use xlink:href="#mc0d6623e39" x="469.745494" y="269.041738" style="fill: #2e8b57; stroke: #ffffff; stroke-width: 0.48"/>
     <use xlink:href="#mc0d6623e39" x="479.507398" y="268.278643" style="fill: #2e8b57; stroke: #ffffff; stroke-width: 0.48"/>
     <use xlink:href="#mc0d6623e39" x="488.096198" y="267.192699" style="fill: #2e8b57; stroke: #ffffff; stroke-width: 0.48"/>
    </g>
   </g>
   <g id="line2d_12">
    <path d="M 489.730165 266.576352 
L 482.523952 266.458953 
L 473.055324 266.282854 
L 462.91635 266.077405 
L 452.567893 265.871956 
L 442.17754 265.666507 
L 431.74529 265.461058 
L 421.31304 265.255609 
L 410.838893 265.05016 
L 400.406643 264.844712 
L 389.974393 264.639263 
L 379.58404 264.433814 
L 369.193686 264.257715 
L 358.84523 264.081616 
L 348.496773 263.934867 
L 338.190212 263.934867 
L 327.883652 263.641368 
L 317.618989 262.819573 
L 307.312428 261.58688 
L 297.047765 259.972638 
L 286.783101 258.035549 
L 276.518437 255.804961 
L 266.29567 253.427625 
L 256.1148 250.903539 
L 245.975826 248.350103 
L 235.836852 245.943416 
L 225.697878 243.771528 
L 215.558904 241.746389 
L 205.336137 239.72125 
L 195.155267 237.637412 
L 184.974396 235.406824 
L 174.793526 233.000137 
L 164.654552 230.329302 
L 154.557474 227.364969 
L 144.502294 223.960387 
L 134.530906 219.968809 
L 124.727105 215.008687 
L 115.09089 208.874571 
L 105.873641 201.096864 
L 97.452427 190.530922 
L 90.288111 176.765848 
L 84.799658 160.711487 
L 80.693793 141.868891 
L 77.677239 84.137759 
L 75.414823 52.674733 
L 73.738959 49.769099 
L 72.482062 34.008236 
L 71.64413 26.582727 
L 71.141371 41.404395 
L 70.848095 42.108792 
L 70.806198 51.236591 
L 71.057578 140.1666 
L 71.476544 171.747026 
L 72.188786 209.226769 
L 73.319994 246.530413 
L 74.870167 272.035422 
L 76.9231 286.211394 
L 79.646378 294.1652 
L 83.333278 298.010028 
L 88.318971 299.037273 
L 94.896735 298.186127 
L 102.94088 296.249038 
L 111.990543 293.959751 
L 121.459171 291.670463 
L 131.262972 289.527925 
L 141.192463 287.590836 
L 151.205748 285.771146 
L 161.260928 284.098205 
L 171.399902 282.542664 
L 181.580773 281.104522 
L 191.761643 279.754429 
L 201.942514 278.463036 
L 212.165281 277.200993 
L 222.346151 276.027 
L 232.485125 274.911706 
L 242.582202 274.031211 
L 252.721176 273.385514 
L 262.902047 272.915917 
L 273.124814 272.505019 
L 283.347581 272.182171 
L 293.612245 271.947372 
L 303.876908 271.712574 
L 314.183468 271.536475 
L 324.448132 271.389725 
L 334.754692 271.301676 
L 345.061253 271.242976 
L 355.409709 271.213626 
L 365.758166 271.213626 
L 376.106623 271.213626 
L 386.538873 271.213626 
L 396.929227 271.154927 
L 407.361477 271.037527 
L 417.835623 270.861428 
L 428.267873 270.62663 
L 438.700123 270.362481 
L 449.090477 270.010283 
L 459.48083 269.570035 
L 469.745494 269.041738 
L 479.507398 268.278643 
L 488.096198 267.192699 
" clip-path="url(#pc44cd6dc2e)" style="fill: none; stroke: #808080; stroke-linecap: round"/>
   </g>
   <g id="patch_3">
    <path d="M 49.86 312.66 
L 49.86 12.96 
" style="fill: none; stroke: #ffffff; stroke-width: 1.25; stroke-linejoin: miter; stroke-linecap: square"/>
   </g>
   <g id="patch_4">
    <path d="M 49.86 312.66 
L 510.676364 312.66 
" style="fill: none; stroke: #ffffff; stroke-width: 1.25; stroke-linejoin: miter; stroke-linecap: square"/>
   </g>
  </g>
 </g>
 <defs>
  <clipPath id="pc44cd6dc2e">
   <rect x="49.86" y="12.96" width="460.816364" height="299.7"/>
  </clipPath>
 </defs>
</svg>
