<?xml version="1.0" encoding="utf-8" standalone="no"?>
<!DOCTYPE svg PUBLIC "-//W3C//DTD SVG 1.1//EN"
  "http://www.w3.org/Graphics/SVG/1.1/DTD/svg11.dtd">
<svg xmlns:xlink="http://www.w3.org/1999/xlink" width="523.636364pt" height="360pt" viewBox="0 0 523.636364 360" xmlns="http://www.w3.org/2000/svg" version="1.1">
 <metadata>
  <rdf:RDF xmlns:dc="http://purl.org/dc/elements/1.1/" xmlns:cc="http://creativecommons.org/ns#" xmlns:rdf="http://www.w3.org/1999/02/22-rdf-syntax-ns#">
   <cc:Work>
    <dc:type rdf:resource="http://purl.org/dc/dcmitype/StillImage"/>
    <dc:date>2022-12-20T14:32:40.474230</dc:date>
    <dc:format>image/svg+xml</dc:format>
    <dc:creator>
     <cc:Agent>
      <dc:title>Matplotlib v3.6.2, https://matplotlib.org/</dc:title>
     </cc:Agent>
    </dc:creator>
   </cc:Work>
  </rdf:RDF>
 </metadata>
 <defs>
  <style type="text/css">*{stroke-linejoin: round; stroke-linecap: butt}</style>
 </defs>
 <g id="figure_1">
  <g id="patch_1">
   <path d="M 0 360 
L 523.636364 360 
L 523.636364 0 
L 0 0 
z
" style="fill: #ffffff"/>
  </g>
  <g id="axes_1">
   <g id="patch_2">
    <path d="M 65.16 312.66 
L 510.676364 312.66 
L 510.676364 12.96 
L 65.16 12.96 
z
" style="fill: #eaeaf2"/>
   </g>
   <g id="matplotlib.axis_1">
    <g id="xtick_1">
     <g id="line2d_1">
      <path d="M 85.329725 312.66 
L 85.329725 12.96 
" clip-path="url(#pdf2cd53297)" style="fill: none; stroke: #ffffff; stroke-linecap: round"/>
     </g>
     <g id="text_1">
      <!-- 0.0 -->
      <g style="fill: #262626" transform="translate(77.684725 330.033594) scale(0.11 -0.11)">
       <defs>
        <path id="ArialMT-30" d="M 266 2259 
Q 266 3072 433 3567 
Q 600 4063 929 4331 
Q 1259 4600 1759 4600 
Q 2128 4600 2406 4451 
Q 2684 4303 2865 4023 
Q 3047 3744 3150 3342 
Q 3253 2941 3253 2259 
Q 3253 1453 3087 958 
Q 2922 463 2592 192 
Q 2263 -78 1759 -78 
Q 1097 -78 719 397 
Q 266 969 266 2259 
z
M 844 2259 
Q 844 1131 1108 757 
Q 1372 384 1759 384 
Q 2147 384 2411 759 
Q 2675 1134 2675 2259 
Q 2675 3391 2411 3762 
Q 2147 4134 1753 4134 
Q 1366 4134 1134 3806 
Q 844 3388 844 2259 
z
" transform="scale(0.015625)"/>
        <path id="ArialMT-2e" d="M 581 0 
L 581 641 
L 1222 641 
L 1222 0 
L 581 0 
z
" transform="scale(0.015625)"/>
       </defs>
       <use xlink:href="#ArialMT-30"/>
       <use xlink:href="#ArialMT-2e" x="55.615234"/>
       <use xlink:href="#ArialMT-30" x="83.398438"/>
      </g>
     </g>
    </g>
    <g id="xtick_2">
     <g id="line2d_2">
      <path d="M 166.348904 312.66 
L 166.348904 12.96 
" clip-path="url(#pdf2cd53297)" style="fill: none; stroke: #ffffff; stroke-linecap: round"/>
     </g>
     <g id="text_2">
      <!-- 0.2 -->
      <g style="fill: #262626" transform="translate(158.703904 330.033594) scale(0.11 -0.11)">
       <defs>
        <path id="ArialMT-32" d="M 3222 541 
L 3222 0 
L 194 0 
Q 188 203 259 391 
Q 375 700 629 1000 
Q 884 1300 1366 1694 
Q 2113 2306 2375 2664 
Q 2638 3022 2638 3341 
Q 2638 3675 2398 3904 
Q 2159 4134 1775 4134 
Q 1369 4134 1125 3890 
Q 881 3647 878 3216 
L 300 3275 
Q 359 3922 746 4261 
Q 1134 4600 1788 4600 
Q 2447 4600 2831 4234 
Q 3216 3869 3216 3328 
Q 3216 3053 3103 2787 
Q 2991 2522 2730 2228 
Q 2469 1934 1863 1422 
Q 1356 997 1212 845 
Q 1069 694 975 541 
L 3222 541 
z
" transform="scale(0.015625)"/>
       </defs>
       <use xlink:href="#ArialMT-30"/>
       <use xlink:href="#ArialMT-2e" x="55.615234"/>
       <use xlink:href="#ArialMT-32" x="83.398438"/>
      </g>
     </g>
    </g>
    <g id="xtick_3">
     <g id="line2d_3">
      <path d="M 247.368083 312.66 
L 247.368083 12.96 
" clip-path="url(#pdf2cd53297)" style="fill: none; stroke: #ffffff; stroke-linecap: round"/>
     </g>
     <g id="text_3">
      <!-- 0.4 -->
      <g style="fill: #262626" transform="translate(239.723083 330.033594) scale(0.11 -0.11)">
       <defs>
        <path id="ArialMT-34" d="M 2069 0 
L 2069 1097 
L 81 1097 
L 81 1613 
L 2172 4581 
L 2631 4581 
L 2631 1613 
L 3250 1613 
L 3250 1097 
L 2631 1097 
L 2631 0 
L 2069 0 
z
M 2069 1613 
L 2069 3678 
L 634 1613 
L 2069 1613 
z
" transform="scale(0.015625)"/>
       </defs>
       <use xlink:href="#ArialMT-30"/>
       <use xlink:href="#ArialMT-2e" x="55.615234"/>
       <use xlink:href="#ArialMT-34" x="83.398438"/>
      </g>
     </g>
    </g>
    <g id="xtick_4">
     <g id="line2d_4">
      <path d="M 328.387262 312.66 
L 328.387262 12.96 
" clip-path="url(#pdf2cd53297)" style="fill: none; stroke: #ffffff; stroke-linecap: round"/>
     </g>
     <g id="text_4">
      <!-- 0.6 -->
      <g style="fill: #262626" transform="translate(320.742262 330.033594) scale(0.11 -0.11)">
       <defs>
        <path id="ArialMT-36" d="M 3184 3459 
L 2625 3416 
Q 2550 3747 2413 3897 
Q 2184 4138 1850 4138 
Q 1581 4138 1378 3988 
Q 1113 3794 959 3422 
Q 806 3050 800 2363 
Q 1003 2672 1297 2822 
Q 1591 2972 1913 2972 
Q 2475 2972 2870 2558 
Q 3266 2144 3266 1488 
Q 3266 1056 3080 686 
Q 2894 316 2569 119 
Q 2244 -78 1831 -78 
Q 1128 -78 684 439 
Q 241 956 241 2144 
Q 241 3472 731 4075 
Q 1159 4600 1884 4600 
Q 2425 4600 2770 4297 
Q 3116 3994 3184 3459 
z
M 888 1484 
Q 888 1194 1011 928 
Q 1134 663 1356 523 
Q 1578 384 1822 384 
Q 2178 384 2434 671 
Q 2691 959 2691 1453 
Q 2691 1928 2437 2201 
Q 2184 2475 1800 2475 
Q 1419 2475 1153 2201 
Q 888 1928 888 1484 
z
" transform="scale(0.015625)"/>
       </defs>
       <use xlink:href="#ArialMT-30"/>
       <use xlink:href="#ArialMT-2e" x="55.615234"/>
       <use xlink:href="#ArialMT-36" x="83.398438"/>
      </g>
     </g>
    </g>
    <g id="xtick_5">
     <g id="line2d_5">
      <path d="M 409.406441 312.66 
L 409.406441 12.96 
" clip-path="url(#pdf2cd53297)" style="fill: none; stroke: #ffffff; stroke-linecap: round"/>
     </g>
     <g id="text_5">
      <!-- 0.8 -->
      <g style="fill: #262626" transform="translate(401.761441 330.033594) scale(0.11 -0.11)">
       <defs>
        <path id="ArialMT-38" d="M 1131 2484 
Q 781 2613 612 2850 
Q 444 3088 444 3419 
Q 444 3919 803 4259 
Q 1163 4600 1759 4600 
Q 2359 4600 2725 4251 
Q 3091 3903 3091 3403 
Q 3091 3084 2923 2848 
Q 2756 2613 2416 2484 
Q 2838 2347 3058 2040 
Q 3278 1734 3278 1309 
Q 3278 722 2862 322 
Q 2447 -78 1769 -78 
Q 1091 -78 675 323 
Q 259 725 259 1325 
Q 259 1772 486 2073 
Q 713 2375 1131 2484 
z
M 1019 3438 
Q 1019 3113 1228 2906 
Q 1438 2700 1772 2700 
Q 2097 2700 2305 2904 
Q 2513 3109 2513 3406 
Q 2513 3716 2298 3927 
Q 2084 4138 1766 4138 
Q 1444 4138 1231 3931 
Q 1019 3725 1019 3438 
z
M 838 1322 
Q 838 1081 952 856 
Q 1066 631 1291 507 
Q 1516 384 1775 384 
Q 2178 384 2440 643 
Q 2703 903 2703 1303 
Q 2703 1709 2433 1975 
Q 2163 2241 1756 2241 
Q 1359 2241 1098 1978 
Q 838 1716 838 1322 
z
" transform="scale(0.015625)"/>
       </defs>
       <use xlink:href="#ArialMT-30"/>
       <use xlink:href="#ArialMT-2e" x="55.615234"/>
       <use xlink:href="#ArialMT-38" x="83.398438"/>
      </g>
     </g>
    </g>
    <g id="xtick_6">
     <g id="line2d_6">
      <path d="M 490.42562 312.66 
L 490.42562 12.96 
" clip-path="url(#pdf2cd53297)" style="fill: none; stroke: #ffffff; stroke-linecap: round"/>
     </g>
     <g id="text_6">
      <!-- 1.0 -->
      <g style="fill: #262626" transform="translate(482.78062 330.033594) scale(0.11 -0.11)">
       <defs>
        <path id="ArialMT-31" d="M 2384 0 
L 1822 0 
L 1822 3584 
Q 1619 3391 1289 3197 
Q 959 3003 697 2906 
L 697 3450 
Q 1169 3672 1522 3987 
Q 1875 4303 2022 4600 
L 2384 4600 
L 2384 0 
z
" transform="scale(0.015625)"/>
       </defs>
       <use xlink:href="#ArialMT-31"/>
       <use xlink:href="#ArialMT-2e" x="55.615234"/>
       <use xlink:href="#ArialMT-30" x="83.398438"/>
      </g>
     </g>
    </g>
    <g id="text_7">
     <!-- x/c [-] -->
     <g style="fill: #262626" transform="translate(273.252869 344.955469) scale(0.12 -0.12)">
      <defs>
       <path id="ArialMT-78" d="M 47 0 
L 1259 1725 
L 138 3319 
L 841 3319 
L 1350 2541 
Q 1494 2319 1581 2169 
Q 1719 2375 1834 2534 
L 2394 3319 
L 3066 3319 
L 1919 1756 
L 3153 0 
L 2463 0 
L 1781 1031 
L 1600 1309 
L 728 0 
L 47 0 
z
" transform="scale(0.015625)"/>
       <path id="ArialMT-2f" d="M 0 -78 
L 1328 4659 
L 1778 4659 
L 453 -78 
L 0 -78 
z
" transform="scale(0.015625)"/>
       <path id="ArialMT-63" d="M 2588 1216 
L 3141 1144 
Q 3050 572 2676 248 
Q 2303 -75 1759 -75 
Q 1078 -75 664 370 
Q 250 816 250 1647 
Q 250 2184 428 2587 
Q 606 2991 970 3192 
Q 1334 3394 1763 3394 
Q 2303 3394 2647 3120 
Q 2991 2847 3088 2344 
L 2541 2259 
Q 2463 2594 2264 2762 
Q 2066 2931 1784 2931 
Q 1359 2931 1093 2626 
Q 828 2322 828 1663 
Q 828 994 1084 691 
Q 1341 388 1753 388 
Q 2084 388 2306 591 
Q 2528 794 2588 1216 
z
" transform="scale(0.015625)"/>
       <path id="ArialMT-20" transform="scale(0.015625)"/>
       <path id="ArialMT-5b" d="M 434 -1272 
L 434 4581 
L 1675 4581 
L 1675 4116 
L 997 4116 
L 997 -806 
L 1675 -806 
L 1675 -1272 
L 434 -1272 
z
" transform="scale(0.015625)"/>
       <path id="ArialMT-2d" d="M 203 1375 
L 203 1941 
L 1931 1941 
L 1931 1375 
L 203 1375 
z
" transform="scale(0.015625)"/>
       <path id="ArialMT-5d" d="M 1363 -1272 
L 122 -1272 
L 122 -806 
L 800 -806 
L 800 4116 
L 122 4116 
L 122 4581 
L 1363 4581 
L 1363 -1272 
z
" transform="scale(0.015625)"/>
      </defs>
      <use xlink:href="#ArialMT-78"/>
      <use xlink:href="#ArialMT-2f" x="50"/>
      <use xlink:href="#ArialMT-63" x="77.783203"/>
      <use xlink:href="#ArialMT-20" x="127.783203"/>
      <use xlink:href="#ArialMT-5b" x="155.566406"/>
      <use xlink:href="#ArialMT-2d" x="183.349609"/>
      <use xlink:href="#ArialMT-5d" x="216.650391"/>
     </g>
    </g>
   </g>
   <g id="matplotlib.axis_2">
    <g id="ytick_1">
     <g id="line2d_7">
      <path d="M 65.16 18.007017 
L 510.676364 18.007017 
" clip-path="url(#pdf2cd53297)" style="fill: none; stroke: #ffffff; stroke-linecap: round"/>
     </g>
     <g id="text_8">
      <!-- −1.00 -->
      <g style="fill: #262626" transform="translate(27.828281 21.943813) scale(0.11 -0.11)">
       <defs>
        <path id="ArialMT-2212" d="M 3381 1997 
L 356 1997 
L 356 2522 
L 3381 2522 
L 3381 1997 
z
" transform="scale(0.015625)"/>
       </defs>
       <use xlink:href="#ArialMT-2212"/>
       <use xlink:href="#ArialMT-31" x="58.398438"/>
       <use xlink:href="#ArialMT-2e" x="114.013672"/>
       <use xlink:href="#ArialMT-30" x="141.796875"/>
       <use xlink:href="#ArialMT-30" x="197.412109"/>
      </g>
     </g>
    </g>
    <g id="ytick_2">
     <g id="line2d_8">
      <path d="M 65.16 53.153372 
L 510.676364 53.153372 
" clip-path="url(#pdf2cd53297)" style="fill: none; stroke: #ffffff; stroke-linecap: round"/>
     </g>
     <g id="text_9">
      <!-- −0.75 -->
      <g style="fill: #262626" transform="translate(27.828281 57.090169) scale(0.11 -0.11)">
       <defs>
        <path id="ArialMT-37" d="M 303 3981 
L 303 4522 
L 3269 4522 
L 3269 4084 
Q 2831 3619 2401 2847 
Q 1972 2075 1738 1259 
Q 1569 684 1522 0 
L 944 0 
Q 953 541 1156 1306 
Q 1359 2072 1739 2783 
Q 2119 3494 2547 3981 
L 303 3981 
z
" transform="scale(0.015625)"/>
        <path id="ArialMT-35" d="M 266 1200 
L 856 1250 
Q 922 819 1161 601 
Q 1400 384 1738 384 
Q 2144 384 2425 690 
Q 2706 997 2706 1503 
Q 2706 1984 2436 2262 
Q 2166 2541 1728 2541 
Q 1456 2541 1237 2417 
Q 1019 2294 894 2097 
L 366 2166 
L 809 4519 
L 3088 4519 
L 3088 3981 
L 1259 3981 
L 1013 2750 
Q 1425 3038 1878 3038 
Q 2478 3038 2890 2622 
Q 3303 2206 3303 1553 
Q 3303 931 2941 478 
Q 2500 -78 1738 -78 
Q 1113 -78 717 272 
Q 322 622 266 1200 
z
" transform="scale(0.015625)"/>
       </defs>
       <use xlink:href="#ArialMT-2212"/>
       <use xlink:href="#ArialMT-30" x="58.398438"/>
       <use xlink:href="#ArialMT-2e" x="114.013672"/>
       <use xlink:href="#ArialMT-37" x="141.796875"/>
       <use xlink:href="#ArialMT-35" x="197.412109"/>
      </g>
     </g>
    </g>
    <g id="ytick_3">
     <g id="line2d_9">
      <path d="M 65.16 88.299727 
L 510.676364 88.299727 
" clip-path="url(#pdf2cd53297)" style="fill: none; stroke: #ffffff; stroke-linecap: round"/>
     </g>
     <g id="text_10">
      <!-- −0.50 -->
      <g style="fill: #262626" transform="translate(27.828281 92.236524) scale(0.11 -0.11)">
       <use xlink:href="#ArialMT-2212"/>
       <use xlink:href="#ArialMT-30" x="58.398438"/>
       <use xlink:href="#ArialMT-2e" x="114.013672"/>
       <use xlink:href="#ArialMT-35" x="141.796875"/>
       <use xlink:href="#ArialMT-30" x="197.412109"/>
      </g>
     </g>
    </g>
    <g id="ytick_4">
     <g id="line2d_10">
      <path d="M 65.16 123.446082 
L 510.676364 123.446082 
" clip-path="url(#pdf2cd53297)" style="fill: none; stroke: #ffffff; stroke-linecap: round"/>
     </g>
     <g id="text_11">
      <!-- −0.25 -->
      <g style="fill: #262626" transform="translate(27.828281 127.382879) scale(0.11 -0.11)">
       <use xlink:href="#ArialMT-2212"/>
       <use xlink:href="#ArialMT-30" x="58.398438"/>
       <use xlink:href="#ArialMT-2e" x="114.013672"/>
       <use xlink:href="#ArialMT-32" x="141.796875"/>
       <use xlink:href="#ArialMT-35" x="197.412109"/>
      </g>
     </g>
    </g>
    <g id="ytick_5">
     <g id="line2d_11">
      <path d="M 65.16 158.592437 
L 510.676364 158.592437 
" clip-path="url(#pdf2cd53297)" style="fill: none; stroke: #ffffff; stroke-linecap: round"/>
     </g>
     <g id="text_12">
      <!-- 0.00 -->
      <g style="fill: #262626" transform="translate(34.252969 162.529234) scale(0.11 -0.11)">
       <use xlink:href="#ArialMT-30"/>
       <use xlink:href="#ArialMT-2e" x="55.615234"/>
       <use xlink:href="#ArialMT-30" x="83.398438"/>
       <use xlink:href="#ArialMT-30" x="139.013672"/>
      </g>
     </g>
    </g>
    <g id="ytick_6">
     <g id="line2d_12">
      <path d="M 65.16 193.738793 
L 510.676364 193.738793 
" clip-path="url(#pdf2cd53297)" style="fill: none; stroke: #ffffff; stroke-linecap: round"/>
     </g>
     <g id="text_13">
      <!-- 0.25 -->
      <g style="fill: #262626" transform="translate(34.252969 197.675589) scale(0.11 -0.11)">
       <use xlink:href="#ArialMT-30"/>
       <use xlink:href="#ArialMT-2e" x="55.615234"/>
       <use xlink:href="#ArialMT-32" x="83.398438"/>
       <use xlink:href="#ArialMT-35" x="139.013672"/>
      </g>
     </g>
    </g>
    <g id="ytick_7">
     <g id="line2d_13">
      <path d="M 65.16 228.885148 
L 510.676364 228.885148 
" clip-path="url(#pdf2cd53297)" style="fill: none; stroke: #ffffff; stroke-linecap: round"/>
     </g>
     <g id="text_14">
      <!-- 0.50 -->
      <g style="fill: #262626" transform="translate(34.252969 232.821945) scale(0.11 -0.11)">
       <use xlink:href="#ArialMT-30"/>
       <use xlink:href="#ArialMT-2e" x="55.615234"/>
       <use xlink:href="#ArialMT-35" x="83.398438"/>
       <use xlink:href="#ArialMT-30" x="139.013672"/>
      </g>
     </g>
    </g>
    <g id="ytick_8">
     <g id="line2d_14">
      <path d="M 65.16 264.031503 
L 510.676364 264.031503 
" clip-path="url(#pdf2cd53297)" style="fill: none; stroke: #ffffff; stroke-linecap: round"/>
     </g>
     <g id="text_15">
      <!-- 0.75 -->
      <g style="fill: #262626" transform="translate(34.252969 267.9683) scale(0.11 -0.11)">
       <use xlink:href="#ArialMT-30"/>
       <use xlink:href="#ArialMT-2e" x="55.615234"/>
       <use xlink:href="#ArialMT-37" x="83.398438"/>
       <use xlink:href="#ArialMT-35" x="139.013672"/>
      </g>
     </g>
    </g>
    <g id="ytick_9">
     <g id="line2d_15">
      <path d="M 65.16 299.177858 
L 510.676364 299.177858 
" clip-path="url(#pdf2cd53297)" style="fill: none; stroke: #ffffff; stroke-linecap: round"/>
     </g>
     <g id="text_16">
      <!-- 1.00 -->
      <g style="fill: #262626" transform="translate(34.252969 303.114655) scale(0.11 -0.11)">
       <use xlink:href="#ArialMT-31"/>
       <use xlink:href="#ArialMT-2e" x="55.615234"/>
       <use xlink:href="#ArialMT-30" x="83.398438"/>
       <use xlink:href="#ArialMT-30" x="139.013672"/>
      </g>
     </g>
    </g>
    <g id="text_17">
     <!-- Cp [-] -->
     <g style="fill: #262626" transform="translate(21.443281 177.478125) rotate(-90) scale(0.12 -0.12)">
      <defs>
       <path id="ArialMT-43" d="M 3763 1606 
L 4369 1453 
Q 4178 706 3683 314 
Q 3188 -78 2472 -78 
Q 1731 -78 1267 223 
Q 803 525 561 1097 
Q 319 1669 319 2325 
Q 319 3041 592 3573 
Q 866 4106 1370 4382 
Q 1875 4659 2481 4659 
Q 3169 4659 3637 4309 
Q 4106 3959 4291 3325 
L 3694 3184 
Q 3534 3684 3231 3912 
Q 2928 4141 2469 4141 
Q 1941 4141 1586 3887 
Q 1231 3634 1087 3207 
Q 944 2781 944 2328 
Q 944 1744 1114 1308 
Q 1284 872 1643 656 
Q 2003 441 2422 441 
Q 2931 441 3284 734 
Q 3638 1028 3763 1606 
z
" transform="scale(0.015625)"/>
       <path id="ArialMT-70" d="M 422 -1272 
L 422 3319 
L 934 3319 
L 934 2888 
Q 1116 3141 1344 3267 
Q 1572 3394 1897 3394 
Q 2322 3394 2647 3175 
Q 2972 2956 3137 2557 
Q 3303 2159 3303 1684 
Q 3303 1175 3120 767 
Q 2938 359 2589 142 
Q 2241 -75 1856 -75 
Q 1575 -75 1351 44 
Q 1128 163 984 344 
L 984 -1272 
L 422 -1272 
z
M 931 1641 
Q 931 1000 1190 694 
Q 1450 388 1819 388 
Q 2194 388 2461 705 
Q 2728 1022 2728 1688 
Q 2728 2322 2467 2637 
Q 2206 2953 1844 2953 
Q 1484 2953 1207 2617 
Q 931 2281 931 1641 
z
" transform="scale(0.015625)"/>
      </defs>
      <use xlink:href="#ArialMT-43"/>
      <use xlink:href="#ArialMT-70" x="72.216797"/>
      <use xlink:href="#ArialMT-20" x="127.832031"/>
      <use xlink:href="#ArialMT-5b" x="155.615234"/>
      <use xlink:href="#ArialMT-2d" x="183.398438"/>
      <use xlink:href="#ArialMT-5d" x="216.699219"/>
     </g>
    </g>
   </g>
   <g id="PathCollection_1">
    <defs>
     <path id="md35815ca99" d="M 0 3 
C 0.795609 3 1.55874 2.683901 2.12132 2.12132 
C 2.683901 1.55874 3 0.795609 3 0 
C 3 -0.795609 2.683901 -1.55874 2.12132 -2.12132 
C 1.55874 -2.683901 0.795609 -3 0 -3 
C -0.795609 -3 -1.55874 -2.683901 -2.12132 -2.12132 
C -2.683901 -1.55874 -3 -0.795609 -3 0 
C -3 0.795609 -2.683901 1.55874 -2.12132 2.12132 
C -1.55874 2.683901 -0.795609 3 0 3 
z
" style="stroke: #ffffff; stroke-width: 0.48"/>
    </defs>
    <g clip-path="url(#pdf2cd53297)">
     <use xlink:href="#md35815ca99" x="490.42562" y="197.81577" style="fill: #4c72b0; stroke: #ffffff; stroke-width: 0.48"/>
     <use xlink:href="#md35815ca99" x="481.878096" y="189.099474" style="fill: #4c72b0; stroke: #ffffff; stroke-width: 0.48"/>
     <use xlink:href="#md35815ca99" x="470.69745" y="180.242592" style="fill: #4c72b0; stroke: #ffffff; stroke-width: 0.48"/>
     <use xlink:href="#md35815ca99" x="459.071198" y="173.072736" style="fill: #4c72b0; stroke: #ffffff; stroke-width: 0.48"/>
     <use xlink:href="#md35815ca99" x="447.363926" y="167.027563" style="fill: #4c72b0; stroke: #ffffff; stroke-width: 0.48"/>
     <use xlink:href="#md35815ca99" x="435.616145" y="161.825902" style="fill: #4c72b0; stroke: #ffffff; stroke-width: 0.48"/>
     <use xlink:href="#md35815ca99" x="423.868364" y="156.764827" style="fill: #4c72b0; stroke: #ffffff; stroke-width: 0.48"/>
     <use xlink:href="#md35815ca99" x="412.120583" y="151.984923" style="fill: #4c72b0; stroke: #ffffff; stroke-width: 0.48"/>
     <use xlink:href="#md35815ca99" x="400.372802" y="147.205018" style="fill: #4c72b0; stroke: #ffffff; stroke-width: 0.48"/>
     <use xlink:href="#md35815ca99" x="388.625021" y="142.003358" style="fill: #4c72b0; stroke: #ffffff; stroke-width: 0.48"/>
     <use xlink:href="#md35815ca99" x="376.87724" y="136.520526" style="fill: #4c72b0; stroke: #ffffff; stroke-width: 0.48"/>
     <use xlink:href="#md35815ca99" x="365.210479" y="130.897109" style="fill: #4c72b0; stroke: #ffffff; stroke-width: 0.48"/>
     <use xlink:href="#md35815ca99" x="353.543717" y="125.695449" style="fill: #4c72b0; stroke: #ffffff; stroke-width: 0.48"/>
     <use xlink:href="#md35815ca99" x="341.917465" y="121.05613" style="fill: #4c72b0; stroke: #ffffff; stroke-width: 0.48"/>
     <use xlink:href="#md35815ca99" x="330.250703" y="116.697982" style="fill: #4c72b0; stroke: #ffffff; stroke-width: 0.48"/>
     <use xlink:href="#md35815ca99" x="318.624451" y="103.623538" style="fill: #4c72b0; stroke: #ffffff; stroke-width: 0.48"/>
     <use xlink:href="#md35815ca99" x="306.998198" y="90.97085" style="fill: #4c72b0; stroke: #ffffff; stroke-width: 0.48"/>
     <use xlink:href="#md35815ca99" x="295.371946" y="88.299727" style="fill: #4c72b0; stroke: #ffffff; stroke-width: 0.48"/>
     <use xlink:href="#md35815ca99" x="283.786204" y="85.206848" style="fill: #4c72b0; stroke: #ffffff; stroke-width: 0.48"/>
     <use xlink:href="#md35815ca99" x="272.200461" y="81.270456" style="fill: #4c72b0; stroke: #ffffff; stroke-width: 0.48"/>
     <use xlink:href="#md35815ca99" x="260.655228" y="76.771722" style="fill: #4c72b0; stroke: #ffffff; stroke-width: 0.48"/>
     <use xlink:href="#md35815ca99" x="249.150505" y="72.694745" style="fill: #4c72b0; stroke: #ffffff; stroke-width: 0.48"/>
     <use xlink:href="#md35815ca99" x="237.645781" y="70.445379" style="fill: #4c72b0; stroke: #ffffff; stroke-width: 0.48"/>
     <use xlink:href="#md35815ca99" x="226.100548" y="69.461281" style="fill: #4c72b0; stroke: #ffffff; stroke-width: 0.48"/>
     <use xlink:href="#md35815ca99" x="214.555315" y="68.758354" style="fill: #4c72b0; stroke: #ffffff; stroke-width: 0.48"/>
     <use xlink:href="#md35815ca99" x="202.969573" y="67.914841" style="fill: #4c72b0; stroke: #ffffff; stroke-width: 0.48"/>
     <use xlink:href="#md35815ca99" x="191.42434" y="66.930743" style="fill: #4c72b0; stroke: #ffffff; stroke-width: 0.48"/>
     <use xlink:href="#md35815ca99" x="179.879107" y="65.80606" style="fill: #4c72b0; stroke: #ffffff; stroke-width: 0.48"/>
     <use xlink:href="#md35815ca99" x="168.414893" y="64.400205" style="fill: #4c72b0; stroke: #ffffff; stroke-width: 0.48"/>
     <use xlink:href="#md35815ca99" x="156.991188" y="62.994351" style="fill: #4c72b0; stroke: #ffffff; stroke-width: 0.48"/>
     <use xlink:href="#md35815ca99" x="145.648503" y="61.307326" style="fill: #4c72b0; stroke: #ffffff; stroke-width: 0.48"/>
     <use xlink:href="#md35815ca99" x="134.467857" y="58.636203" style="fill: #4c72b0; stroke: #ffffff; stroke-width: 0.48"/>
     <use xlink:href="#md35815ca99" x="123.530268" y="55.96508" style="fill: #4c72b0; stroke: #ffffff; stroke-width: 0.48"/>
     <use xlink:href="#md35815ca99" x="113.159813" y="51.747518" style="fill: #4c72b0; stroke: #ffffff; stroke-width: 0.48"/>
     <use xlink:href="#md35815ca99" x="104.085665" y="44.29649" style="fill: #4c72b0; stroke: #ffffff; stroke-width: 0.48"/>
     <use xlink:href="#md35815ca99" x="97.320563" y="37.407805" style="fill: #4c72b0; stroke: #ffffff; stroke-width: 0.48"/>
     <use xlink:href="#md35815ca99" x="92.74298" y="30.378534" style="fill: #4c72b0; stroke: #ffffff; stroke-width: 0.48"/>
     <use xlink:href="#md35815ca99" x="89.74527" y="28.410338" style="fill: #4c72b0; stroke: #ffffff; stroke-width: 0.48"/>
     <use xlink:href="#md35815ca99" x="87.71979" y="26.582727" style="fill: #4c72b0; stroke: #ffffff; stroke-width: 0.48"/>
     <use xlink:href="#md35815ca99" x="86.423484" y="76.912308" style="fill: #4c72b0; stroke: #ffffff; stroke-width: 0.48"/>
     <use xlink:href="#md35815ca99" x="85.734821" y="152.969021" style="fill: #4c72b0; stroke: #ffffff; stroke-width: 0.48"/>
     <use xlink:href="#md35815ca99" x="85.410744" y="209.062603" style="fill: #4c72b0; stroke: #ffffff; stroke-width: 0.48"/>
     <use xlink:href="#md35815ca99" x="85.410744" y="259.532769" style="fill: #4c72b0; stroke: #ffffff; stroke-width: 0.48"/>
     <use xlink:href="#md35815ca99" x="85.77533" y="291.867416" style="fill: #4c72b0; stroke: #ffffff; stroke-width: 0.48"/>
     <use xlink:href="#md35815ca99" x="86.463993" y="299.037273" style="fill: #4c72b0; stroke: #ffffff; stroke-width: 0.48"/>
     <use xlink:href="#md35815ca99" x="87.7603" y="283.713462" style="fill: #4c72b0; stroke: #ffffff; stroke-width: 0.48"/>
     <use xlink:href="#md35815ca99" x="89.785779" y="261.641551" style="fill: #4c72b0; stroke: #ffffff; stroke-width: 0.48"/>
     <use xlink:href="#md35815ca99" x="92.823999" y="238.0232" style="fill: #4c72b0; stroke: #ffffff; stroke-width: 0.48"/>
     <use xlink:href="#md35815ca99" x="97.361073" y="215.951289" style="fill: #4c72b0; stroke: #ffffff; stroke-width: 0.48"/>
     <use xlink:href="#md35815ca99" x="104.126174" y="195.847574" style="fill: #4c72b0; stroke: #ffffff; stroke-width: 0.48"/>
     <use xlink:href="#md35815ca99" x="113.159813" y="179.820836" style="fill: #4c72b0; stroke: #ffffff; stroke-width: 0.48"/>
     <use xlink:href="#md35815ca99" x="123.530268" y="167.027563" style="fill: #4c72b0; stroke: #ffffff; stroke-width: 0.48"/>
     <use xlink:href="#md35815ca99" x="134.467857" y="157.327169" style="fill: #4c72b0; stroke: #ffffff; stroke-width: 0.48"/>
     <use xlink:href="#md35815ca99" x="145.648503" y="150.016727" style="fill: #4c72b0; stroke: #ffffff; stroke-width: 0.48"/>
     <use xlink:href="#md35815ca99" x="156.991188" y="143.971554" style="fill: #4c72b0; stroke: #ffffff; stroke-width: 0.48"/>
     <use xlink:href="#md35815ca99" x="168.414893" y="138.769893" style="fill: #4c72b0; stroke: #ffffff; stroke-width: 0.48"/>
     <use xlink:href="#md35815ca99" x="179.879107" y="134.55233" style="fill: #4c72b0; stroke: #ffffff; stroke-width: 0.48"/>
     <use xlink:href="#md35815ca99" x="191.42434" y="130.756524" style="fill: #4c72b0; stroke: #ffffff; stroke-width: 0.48"/>
     <use xlink:href="#md35815ca99" x="202.969573" y="127.382474" style="fill: #4c72b0; stroke: #ffffff; stroke-width: 0.48"/>
     <use xlink:href="#md35815ca99" x="214.555315" y="124.289595" style="fill: #4c72b0; stroke: #ffffff; stroke-width: 0.48"/>
     <use xlink:href="#md35815ca99" x="226.100548" y="121.477886" style="fill: #4c72b0; stroke: #ffffff; stroke-width: 0.48"/>
     <use xlink:href="#md35815ca99" x="237.645781" y="118.947349" style="fill: #4c72b0; stroke: #ffffff; stroke-width: 0.48"/>
     <use xlink:href="#md35815ca99" x="249.150505" y="117.822665" style="fill: #4c72b0; stroke: #ffffff; stroke-width: 0.48"/>
     <use xlink:href="#md35815ca99" x="260.655228" y="118.806763" style="fill: #4c72b0; stroke: #ffffff; stroke-width: 0.48"/>
     <use xlink:href="#md35815ca99" x="272.200461" y="120.774959" style="fill: #4c72b0; stroke: #ffffff; stroke-width: 0.48"/>
     <use xlink:href="#md35815ca99" x="283.786204" y="123.446082" style="fill: #4c72b0; stroke: #ffffff; stroke-width: 0.48"/>
     <use xlink:href="#md35815ca99" x="295.371946" y="126.257791" style="fill: #4c72b0; stroke: #ffffff; stroke-width: 0.48"/>
     <use xlink:href="#md35815ca99" x="306.998198" y="129.35067" style="fill: #4c72b0; stroke: #ffffff; stroke-width: 0.48"/>
     <use xlink:href="#md35815ca99" x="318.624451" y="132.302964" style="fill: #4c72b0; stroke: #ffffff; stroke-width: 0.48"/>
     <use xlink:href="#md35815ca99" x="330.250703" y="135.255258" style="fill: #4c72b0; stroke: #ffffff; stroke-width: 0.48"/>
     <use xlink:href="#md35815ca99" x="341.917465" y="137.926381" style="fill: #4c72b0; stroke: #ffffff; stroke-width: 0.48"/>
     <use xlink:href="#md35815ca99" x="353.543717" y="140.175747" style="fill: #4c72b0; stroke: #ffffff; stroke-width: 0.48"/>
     <use xlink:href="#md35815ca99" x="365.210479" y="142.003358" style="fill: #4c72b0; stroke: #ffffff; stroke-width: 0.48"/>
     <use xlink:href="#md35815ca99" x="376.91775" y="143.830968" style="fill: #4c72b0; stroke: #ffffff; stroke-width: 0.48"/>
     <use xlink:href="#md35815ca99" x="388.625021" y="149.454385" style="fill: #4c72b0; stroke: #ffffff; stroke-width: 0.48"/>
     <use xlink:href="#md35815ca99" x="400.372802" y="162.669415" style="fill: #4c72b0; stroke: #ffffff; stroke-width: 0.48"/>
     <use xlink:href="#md35815ca99" x="412.120583" y="165.059367" style="fill: #4c72b0; stroke: #ffffff; stroke-width: 0.48"/>
     <use xlink:href="#md35815ca99" x="423.868364" y="166.886977" style="fill: #4c72b0; stroke: #ffffff; stroke-width: 0.48"/>
     <use xlink:href="#md35815ca99" x="435.616145" y="169.417515" style="fill: #4c72b0; stroke: #ffffff; stroke-width: 0.48"/>
     <use xlink:href="#md35815ca99" x="447.363926" y="172.369809" style="fill: #4c72b0; stroke: #ffffff; stroke-width: 0.48"/>
     <use xlink:href="#md35815ca99" x="459.071198" y="176.165615" style="fill: #4c72b0; stroke: #ffffff; stroke-width: 0.48"/>
     <use xlink:href="#md35815ca99" x="470.69745" y="181.086105" style="fill: #4c72b0; stroke: #ffffff; stroke-width: 0.48"/>
     <use xlink:href="#md35815ca99" x="481.878096" y="188.115376" style="fill: #4c72b0; stroke: #ffffff; stroke-width: 0.48"/>
     <use xlink:href="#md35815ca99" x="490.42562" y="197.81577" style="fill: #4c72b0; stroke: #ffffff; stroke-width: 0.48"/>
    </g>
   </g>
   <g id="PathCollection_2">
    <defs>
     <path id="m8239b1189b" d="M 0 3 
C 0.795609 3 1.55874 2.683901 2.12132 2.12132 
C 2.683901 1.55874 3 0.795609 3 0 
C 3 -0.795609 2.683901 -1.55874 2.12132 -2.12132 
C 1.55874 -2.683901 0.795609 -3 0 -3 
C -0.795609 -3 -1.55874 -2.683901 -2.12132 -2.12132 
C -2.683901 -1.55874 -3 -0.795609 -3 0 
C -3 0.795609 -2.683901 1.55874 -2.12132 2.12132 
C -1.55874 2.683901 -0.795609 3 0 3 
z
" style="stroke: #ffffff; stroke-width: 0.48"/>
    </defs>
    <g clip-path="url(#pdf2cd53297)">
     <use xlink:href="#m8239b1189b" x="490.42562" y="197.81577" style="fill: #2e8b57; stroke: #ffffff; stroke-width: 0.48"/>
     <use xlink:href="#m8239b1189b" x="481.878096" y="189.099474" style="fill: #2e8b57; stroke: #ffffff; stroke-width: 0.48"/>
     <use xlink:href="#m8239b1189b" x="470.69745" y="180.242592" style="fill: #2e8b57; stroke: #ffffff; stroke-width: 0.48"/>
     <use xlink:href="#m8239b1189b" x="459.071198" y="173.072736" style="fill: #2e8b57; stroke: #ffffff; stroke-width: 0.48"/>
     <use xlink:href="#m8239b1189b" x="447.363926" y="167.027563" style="fill: #2e8b57; stroke: #ffffff; stroke-width: 0.48"/>
     <use xlink:href="#m8239b1189b" x="435.616145" y="161.825902" style="fill: #2e8b57; stroke: #ffffff; stroke-width: 0.48"/>
     <use xlink:href="#m8239b1189b" x="423.868364" y="156.764827" style="fill: #2e8b57; stroke: #ffffff; stroke-width: 0.48"/>
     <use xlink:href="#m8239b1189b" x="412.120583" y="151.984923" style="fill: #2e8b57; stroke: #ffffff; stroke-width: 0.48"/>
     <use xlink:href="#m8239b1189b" x="400.372802" y="147.205018" style="fill: #2e8b57; stroke: #ffffff; stroke-width: 0.48"/>
     <use xlink:href="#m8239b1189b" x="388.625021" y="142.003358" style="fill: #2e8b57; stroke: #ffffff; stroke-width: 0.48"/>
     <use xlink:href="#m8239b1189b" x="376.87724" y="136.520526" style="fill: #2e8b57; stroke: #ffffff; stroke-width: 0.48"/>
     <use xlink:href="#m8239b1189b" x="365.210479" y="130.897109" style="fill: #2e8b57; stroke: #ffffff; stroke-width: 0.48"/>
     <use xlink:href="#m8239b1189b" x="353.543717" y="125.695449" style="fill: #2e8b57; stroke: #ffffff; stroke-width: 0.48"/>
     <use xlink:href="#m8239b1189b" x="341.917465" y="121.05613" style="fill: #2e8b57; stroke: #ffffff; stroke-width: 0.48"/>
     <use xlink:href="#m8239b1189b" x="330.250703" y="116.697982" style="fill: #2e8b57; stroke: #ffffff; stroke-width: 0.48"/>
     <use xlink:href="#m8239b1189b" x="318.624451" y="103.623538" style="fill: #2e8b57; stroke: #ffffff; stroke-width: 0.48"/>
     <use xlink:href="#m8239b1189b" x="306.998198" y="90.97085" style="fill: #2e8b57; stroke: #ffffff; stroke-width: 0.48"/>
     <use xlink:href="#m8239b1189b" x="295.371946" y="88.299727" style="fill: #2e8b57; stroke: #ffffff; stroke-width: 0.48"/>
     <use xlink:href="#m8239b1189b" x="283.786204" y="85.206848" style="fill: #2e8b57; stroke: #ffffff; stroke-width: 0.48"/>
     <use xlink:href="#m8239b1189b" x="272.200461" y="81.270456" style="fill: #2e8b57; stroke: #ffffff; stroke-width: 0.48"/>
     <use xlink:href="#m8239b1189b" x="260.655228" y="76.771722" style="fill: #2e8b57; stroke: #ffffff; stroke-width: 0.48"/>
     <use xlink:href="#m8239b1189b" x="249.150505" y="72.694745" style="fill: #2e8b57; stroke: #ffffff; stroke-width: 0.48"/>
     <use xlink:href="#m8239b1189b" x="237.645781" y="70.445379" style="fill: #2e8b57; stroke: #ffffff; stroke-width: 0.48"/>
     <use xlink:href="#m8239b1189b" x="226.100548" y="69.461281" style="fill: #2e8b57; stroke: #ffffff; stroke-width: 0.48"/>
     <use xlink:href="#m8239b1189b" x="214.555315" y="68.758354" style="fill: #2e8b57; stroke: #ffffff; stroke-width: 0.48"/>
     <use xlink:href="#m8239b1189b" x="202.969573" y="67.914841" style="fill: #2e8b57; stroke: #ffffff; stroke-width: 0.48"/>
     <use xlink:href="#m8239b1189b" x="191.42434" y="66.930743" style="fill: #2e8b57; stroke: #ffffff; stroke-width: 0.48"/>
     <use xlink:href="#m8239b1189b" x="179.879107" y="65.80606" style="fill: #2e8b57; stroke: #ffffff; stroke-width: 0.48"/>
     <use xlink:href="#m8239b1189b" x="168.414893" y="64.400205" style="fill: #2e8b57; stroke: #ffffff; stroke-width: 0.48"/>
     <use xlink:href="#m8239b1189b" x="156.991188" y="62.994351" style="fill: #2e8b57; stroke: #ffffff; stroke-width: 0.48"/>
     <use xlink:href="#m8239b1189b" x="145.648503" y="61.307326" style="fill: #2e8b57; stroke: #ffffff; stroke-width: 0.48"/>
     <use xlink:href="#m8239b1189b" x="134.467857" y="58.636203" style="fill: #2e8b57; stroke: #ffffff; stroke-width: 0.48"/>
     <use xlink:href="#m8239b1189b" x="123.530268" y="55.96508" style="fill: #2e8b57; stroke: #ffffff; stroke-width: 0.48"/>
     <use xlink:href="#m8239b1189b" x="113.159813" y="51.747518" style="fill: #2e8b57; stroke: #ffffff; stroke-width: 0.48"/>
     <use xlink:href="#m8239b1189b" x="104.085665" y="44.29649" style="fill: #2e8b57; stroke: #ffffff; stroke-width: 0.48"/>
     <use xlink:href="#m8239b1189b" x="97.320563" y="37.407805" style="fill: #2e8b57; stroke: #ffffff; stroke-width: 0.48"/>
     <use xlink:href="#m8239b1189b" x="92.74298" y="30.378534" style="fill: #2e8b57; stroke: #ffffff; stroke-width: 0.48"/>
     <use xlink:href="#m8239b1189b" x="89.74527" y="28.410338" style="fill: #2e8b57; stroke: #ffffff; stroke-width: 0.48"/>
     <use xlink:href="#m8239b1189b" x="87.71979" y="26.582727" style="fill: #2e8b57; stroke: #ffffff; stroke-width: 0.48"/>
     <use xlink:href="#m8239b1189b" x="86.423484" y="76.912308" style="fill: #2e8b57; stroke: #ffffff; stroke-width: 0.48"/>
     <use xlink:href="#m8239b1189b" x="85.734821" y="152.969021" style="fill: #2e8b57; stroke: #ffffff; stroke-width: 0.48"/>
     <use xlink:href="#m8239b1189b" x="85.410744" y="209.062603" style="fill: #2e8b57; stroke: #ffffff; stroke-width: 0.48"/>
     <use xlink:href="#m8239b1189b" x="85.410744" y="259.532769" style="fill: #2e8b57; stroke: #ffffff; stroke-width: 0.48"/>
     <use xlink:href="#m8239b1189b" x="85.77533" y="291.867416" style="fill: #2e8b57; stroke: #ffffff; stroke-width: 0.48"/>
     <use xlink:href="#m8239b1189b" x="86.463993" y="299.037273" style="fill: #2e8b57; stroke: #ffffff; stroke-width: 0.48"/>
     <use xlink:href="#m8239b1189b" x="87.7603" y="283.713462" style="fill: #2e8b57; stroke: #ffffff; stroke-width: 0.48"/>
     <use xlink:href="#m8239b1189b" x="89.785779" y="261.641551" style="fill: #2e8b57; stroke: #ffffff; stroke-width: 0.48"/>
     <use xlink:href="#m8239b1189b" x="92.823999" y="238.0232" style="fill: #2e8b57; stroke: #ffffff; stroke-width: 0.48"/>
     <use xlink:href="#m8239b1189b" x="97.361073" y="215.951289" style="fill: #2e8b57; stroke: #ffffff; stroke-width: 0.48"/>
     <use xlink:href="#m8239b1189b" x="104.126174" y="195.847574" style="fill: #2e8b57; stroke: #ffffff; stroke-width: 0.48"/>
     <use xlink:href="#m8239b1189b" x="113.159813" y="179.820836" style="fill: #2e8b57; stroke: #ffffff; stroke-width: 0.48"/>
     <use xlink:href="#m8239b1189b" x="123.530268" y="167.027563" style="fill: #2e8b57; stroke: #ffffff; stroke-width: 0.48"/>
     <use xlink:href="#m8239b1189b" x="134.467857" y="157.327169" style="fill: #2e8b57; stroke: #ffffff; stroke-width: 0.48"/>
     <use xlink:href="#m8239b1189b" x="145.648503" y="150.016727" style="fill: #2e8b57; stroke: #ffffff; stroke-width: 0.48"/>
     <use xlink:href="#m8239b1189b" x="156.991188" y="143.971554" style="fill: #2e8b57; stroke: #ffffff; stroke-width: 0.48"/>
     <use xlink:href="#m8239b1189b" x="168.414893" y="138.769893" style="fill: #2e8b57; stroke: #ffffff; stroke-width: 0.48"/>
     <use xlink:href="#m8239b1189b" x="179.879107" y="134.55233" style="fill: #2e8b57; stroke: #ffffff; stroke-width: 0.48"/>
     <use xlink:href="#m8239b1189b" x="191.42434" y="130.756524" style="fill: #2e8b57; stroke: #ffffff; stroke-width: 0.48"/>
     <use xlink:href="#m8239b1189b" x="202.969573" y="127.382474" style="fill: #2e8b57; stroke: #ffffff; stroke-width: 0.48"/>
     <use xlink:href="#m8239b1189b" x="214.555315" y="124.289595" style="fill: #2e8b57; stroke: #ffffff; stroke-width: 0.48"/>
     <use xlink:href="#m8239b1189b" x="226.100548" y="121.477886" style="fill: #2e8b57; stroke: #ffffff; stroke-width: 0.48"/>
     <use xlink:href="#m8239b1189b" x="237.645781" y="118.947349" style="fill: #2e8b57; stroke: #ffffff; stroke-width: 0.48"/>
     <use xlink:href="#m8239b1189b" x="249.150505" y="117.822665" style="fill: #2e8b57; stroke: #ffffff; stroke-width: 0.48"/>
     <use xlink:href="#m8239b1189b" x="260.655228" y="118.806763" style="fill: #2e8b57; stroke: #ffffff; stroke-width: 0.48"/>
     <use xlink:href="#m8239b1189b" x="272.200461" y="120.774959" style="fill: #2e8b57; stroke: #ffffff; stroke-width: 0.48"/>
     <use xlink:href="#m8239b1189b" x="283.786204" y="123.446082" style="fill: #2e8b57; stroke: #ffffff; stroke-width: 0.48"/>
     <use xlink:href="#m8239b1189b" x="295.371946" y="126.257791" style="fill: #2e8b57; stroke: #ffffff; stroke-width: 0.48"/>
     <use xlink:href="#m8239b1189b" x="306.998198" y="129.35067" style="fill: #2e8b57; stroke: #ffffff; stroke-width: 0.48"/>
     <use xlink:href="#m8239b1189b" x="318.624451" y="132.302964" style="fill: #2e8b57; stroke: #ffffff; stroke-width: 0.48"/>
     <use xlink:href="#m8239b1189b" x="330.250703" y="135.255258" style="fill: #2e8b57; stroke: #ffffff; stroke-width: 0.48"/>
     <use xlink:href="#m8239b1189b" x="341.917465" y="137.926381" style="fill: #2e8b57; stroke: #ffffff; stroke-width: 0.48"/>
     <use xlink:href="#m8239b1189b" x="353.543717" y="140.175747" style="fill: #2e8b57; stroke: #ffffff; stroke-width: 0.48"/>
     <use xlink:href="#m8239b1189b" x="365.210479" y="142.003358" style="fill: #2e8b57; stroke: #ffffff; stroke-width: 0.48"/>
     <use xlink:href="#m8239b1189b" x="376.91775" y="143.830968" style="fill: #2e8b57; stroke: #ffffff; stroke-width: 0.48"/>
     <use xlink:href="#m8239b1189b" x="388.625021" y="149.454385" style="fill: #2e8b57; stroke: #ffffff; stroke-width: 0.48"/>
     <use xlink:href="#m8239b1189b" x="400.372802" y="162.669415" style="fill: #2e8b57; stroke: #ffffff; stroke-width: 0.48"/>
     <use xlink:href="#m8239b1189b" x="412.120583" y="165.059367" style="fill: #2e8b57; stroke: #ffffff; stroke-width: 0.48"/>
     <use xlink:href="#m8239b1189b" x="423.868364" y="166.886977" style="fill: #2e8b57; stroke: #ffffff; stroke-width: 0.48"/>
     <use xlink:href="#m8239b1189b" x="435.616145" y="169.417515" style="fill: #2e8b57; stroke: #ffffff; stroke-width: 0.48"/>
     <use xlink:href="#m8239b1189b" x="447.363926" y="172.369809" style="fill: #2e8b57; stroke: #ffffff; stroke-width: 0.48"/>
     <use xlink:href="#m8239b1189b" x="459.071198" y="176.165615" style="fill: #2e8b57; stroke: #ffffff; stroke-width: 0.48"/>
     <use xlink:href="#m8239b1189b" x="470.69745" y="181.086105" style="fill: #2e8b57; stroke: #ffffff; stroke-width: 0.48"/>
     <use xlink:href="#m8239b1189b" x="481.878096" y="188.115376" style="fill: #2e8b57; stroke: #ffffff; stroke-width: 0.48"/>
     <use xlink:href="#m8239b1189b" x="490.42562" y="197.81577" style="fill: #2e8b57; stroke: #ffffff; stroke-width: 0.48"/>
    </g>
   </g>
   <g id="line2d_16">
    <path d="M 490.42562 197.81577 
L 481.878096 189.099474 
L 470.69745 180.242592 
L 459.071198 173.072736 
L 447.363926 167.027563 
L 435.616145 161.825902 
L 423.868364 156.764827 
L 412.120583 151.984923 
L 400.372802 147.205018 
L 388.625021 142.003358 
L 376.87724 136.520526 
L 365.210479 130.897109 
L 353.543717 125.695449 
L 341.917465 121.05613 
L 330.250703 116.697982 
L 318.624451 103.623538 
L 306.998198 90.97085 
L 295.371946 88.299727 
L 283.786204 85.206848 
L 272.200461 81.270456 
L 260.655228 76.771722 
L 249.150505 72.694745 
L 237.645781 70.445379 
L 226.100548 69.461281 
L 214.555315 68.758354 
L 202.969573 67.914841 
L 191.42434 66.930743 
L 179.879107 65.80606 
L 168.414893 64.400205 
L 156.991188 62.994351 
L 145.648503 61.307326 
L 134.467857 58.636203 
L 123.530268 55.96508 
L 113.159813 51.747518 
L 104.085665 44.29649 
L 97.320563 37.407805 
L 92.74298 30.378534 
L 89.74527 28.410338 
L 87.71979 26.582727 
L 86.423484 76.912308 
L 85.734821 152.969021 
L 85.410744 209.062603 
L 85.410744 259.532769 
L 85.77533 291.867416 
L 86.463993 299.037273 
L 87.7603 283.713462 
L 89.785779 261.641551 
L 92.823999 238.0232 
L 97.361073 215.951289 
L 104.126174 195.847574 
L 113.159813 179.820836 
L 123.530268 167.027563 
L 134.467857 157.327169 
L 145.648503 150.016727 
L 156.991188 143.971554 
L 168.414893 138.769893 
L 179.879107 134.55233 
L 191.42434 130.756524 
L 202.969573 127.382474 
L 214.555315 124.289595 
L 226.100548 121.477886 
L 237.645781 118.947349 
L 249.150505 117.822665 
L 260.655228 118.806763 
L 272.200461 120.774959 
L 283.786204 123.446082 
L 295.371946 126.257791 
L 306.998198 129.35067 
L 318.624451 132.302964 
L 330.250703 135.255258 
L 341.917465 137.926381 
L 353.543717 140.175747 
L 365.210479 142.003358 
L 376.91775 143.830968 
L 388.625021 149.454385 
L 400.372802 162.669415 
L 412.120583 165.059367 
L 423.868364 166.886977 
L 435.616145 169.417515 
L 447.363926 172.369809 
L 459.071198 176.165615 
L 470.69745 181.086105 
L 481.878096 188.115376 
L 490.42562 197.81577 
" clip-path="url(#pdf2cd53297)" style="fill: none; stroke: #808080; stroke-linecap: round"/>
   </g>
   <g id="patch_3">
    <path d="M 65.16 312.66 
L 65.16 12.96 
" style="fill: none; stroke: #ffffff; stroke-width: 1.25; stroke-linejoin: miter; stroke-linecap: square"/>
   </g>
   <g id="patch_4">
    <path d="M 65.16 312.66 
L 510.676364 312.66 
" style="fill: none; stroke: #ffffff; stroke-width: 1.25; stroke-linejoin: miter; stroke-linecap: square"/>
   </g>
  </g>
 </g>
 <defs>
  <clipPath id="pdf2cd53297">
   <rect x="65.16" y="12.96" width="445.516364" height="299.7"/>
  </clipPath>
 </defs>
</svg>
