<?xml version="1.0" encoding="utf-8" standalone="no"?>
<!DOCTYPE svg PUBLIC "-//W3C//DTD SVG 1.1//EN"
  "http://www.w3.org/Graphics/SVG/1.1/DTD/svg11.dtd">
<svg xmlns:xlink="http://www.w3.org/1999/xlink" width="460.8pt" height="345.6pt" viewBox="0 0 460.8 345.6" xmlns="http://www.w3.org/2000/svg" version="1.1">
 <metadata>
  <rdf:RDF xmlns:dc="http://purl.org/dc/elements/1.1/" xmlns:cc="http://creativecommons.org/ns#" xmlns:rdf="http://www.w3.org/1999/02/22-rdf-syntax-ns#">
   <cc:Work>
    <dc:type rdf:resource="http://purl.org/dc/dcmitype/StillImage"/>
    <dc:date>2022-12-03T19:11:37.081439</dc:date>
    <dc:format>image/svg+xml</dc:format>
    <dc:creator>
     <cc:Agent>
      <dc:title>Matplotlib v3.5.2, https://matplotlib.org/</dc:title>
     </cc:Agent>
    </dc:creator>
   </cc:Work>
  </rdf:RDF>
 </metadata>
 <defs>
  <style type="text/css">*{stroke-linejoin: round; stroke-linecap: butt}</style>
 </defs>
 <g id="figure_1">
  <g id="patch_1">
   <path d="M 0 345.6 
L 460.8 345.6 
L 460.8 0 
L 0 0 
z
" style="fill: #ffffff"/>
  </g>
  <g id="axes_1">
   <g id="patch_2">
    <path d="M 57.6 307.584 
L 414.72 307.584 
L 414.72 41.472 
L 57.6 41.472 
z
" style="fill: #eaeaf2"/>
   </g>
   <g id="matplotlib.axis_1">
    <g id="xtick_1">
     <g id="line2d_1">
      <path d="M 73.832727 307.584 
L 73.832727 41.472 
" clip-path="url(#p05377ead50)" style="fill: none; stroke: #ffffff; stroke-linecap: round"/>
     </g>
     <g id="text_1">
      <!-- 0 -->
      <g style="fill: #262626" transform="translate(70.774212 324.957594) scale(0.11 -0.11)">
       <defs>
        <path id="ArialMT-30" d="M 266 2259 
Q 266 3072 433 3567 
Q 600 4063 929 4331 
Q 1259 4600 1759 4600 
Q 2128 4600 2406 4451 
Q 2684 4303 2865 4023 
Q 3047 3744 3150 3342 
Q 3253 2941 3253 2259 
Q 3253 1453 3087 958 
Q 2922 463 2592 192 
Q 2263 -78 1759 -78 
Q 1097 -78 719 397 
Q 266 969 266 2259 
z
M 844 2259 
Q 844 1131 1108 757 
Q 1372 384 1759 384 
Q 2147 384 2411 759 
Q 2675 1134 2675 2259 
Q 2675 3391 2411 3762 
Q 2147 4134 1753 4134 
Q 1366 4134 1134 3806 
Q 844 3388 844 2259 
z
" transform="scale(0.015625)"/>
        <path id="ArialMT-2e" d="M 581 0 
L 581 641 
L 1222 641 
L 1222 0 
L 581 0 
z
" transform="scale(0.015625)"/>
       </defs>
       <use xlink:href="#ArialMT-30"/>
       <use xlink:href="#ArialMT-2e" x="55.615234"/>
       <use xlink:href="#ArialMT-30" x="83.398438"/>
      </g>
     </g>
    </g>
    <g id="xtick_2">
     <g id="line2d_2">
      <path d="M 138.763636 307.584 
L 138.763636 41.472 
" clip-path="url(#p05377ead50)" style="fill: none; stroke: #ffffff; stroke-linecap: round"/>
     </g>
     <g id="text_2">
      <!-- 20 -->
      <g style="fill: #262626" transform="translate(132.646605 324.957594) scale(0.11 -0.11)">
       <defs>
        <path id="ArialMT-32" d="M 3222 541 
L 3222 0 
L 194 0 
Q 188 203 259 391 
Q 375 700 629 1000 
Q 884 1300 1366 1694 
Q 2113 2306 2375 2664 
Q 2638 3022 2638 3341 
Q 2638 3675 2398 3904 
Q 2159 4134 1775 4134 
Q 1369 4134 1125 3890 
Q 881 3647 878 3216 
L 300 3275 
Q 359 3922 746 4261 
Q 1134 4600 1788 4600 
Q 2447 4600 2831 4234 
Q 3216 3869 3216 3328 
Q 3216 3053 3103 2787 
Q 2991 2522 2730 2228 
Q 2469 1934 1863 1422 
Q 1356 997 1212 845 
Q 1069 694 975 541 
L 3222 541 
z
" transform="scale(0.015625)"/>
       </defs>
       <use xlink:href="#ArialMT-30"/>
       <use xlink:href="#ArialMT-2e" x="55.615234"/>
       <use xlink:href="#ArialMT-32" x="83.398438"/>
      </g>
     </g>
    </g>
    <g id="xtick_3">
     <g id="line2d_3">
      <path d="M 203.694545 307.584 
L 203.694545 41.472 
" clip-path="url(#p05377ead50)" style="fill: none; stroke: #ffffff; stroke-linecap: round"/>
     </g>
     <g id="text_3">
      <!-- 40 -->
      <g style="fill: #262626" transform="translate(197.577514 324.957594) scale(0.11 -0.11)">
       <defs>
        <path id="ArialMT-34" d="M 2069 0 
L 2069 1097 
L 81 1097 
L 81 1613 
L 2172 4581 
L 2631 4581 
L 2631 1613 
L 3250 1613 
L 3250 1097 
L 2631 1097 
L 2631 0 
L 2069 0 
z
M 2069 1613 
L 2069 3678 
L 634 1613 
L 2069 1613 
z
" transform="scale(0.015625)"/>
       </defs>
       <use xlink:href="#ArialMT-30"/>
       <use xlink:href="#ArialMT-2e" x="55.615234"/>
       <use xlink:href="#ArialMT-34" x="83.398438"/>
      </g>
     </g>
    </g>
    <g id="xtick_4">
     <g id="line2d_4">
      <path d="M 268.625455 307.584 
L 268.625455 41.472 
" clip-path="url(#p05377ead50)" style="fill: none; stroke: #ffffff; stroke-linecap: round"/>
     </g>
     <g id="text_4">
      <!-- 60 -->
      <g style="fill: #262626" transform="translate(262.508423 324.957594) scale(0.11 -0.11)">
       <defs>
        <path id="ArialMT-36" d="M 3184 3459 
L 2625 3416 
Q 2550 3747 2413 3897 
Q 2184 4138 1850 4138 
Q 1581 4138 1378 3988 
Q 1113 3794 959 3422 
Q 806 3050 800 2363 
Q 1003 2672 1297 2822 
Q 1591 2972 1913 2972 
Q 2475 2972 2870 2558 
Q 3266 2144 3266 1488 
Q 3266 1056 3080 686 
Q 2894 316 2569 119 
Q 2244 -78 1831 -78 
Q 1128 -78 684 439 
Q 241 956 241 2144 
Q 241 3472 731 4075 
Q 1159 4600 1884 4600 
Q 2425 4600 2770 4297 
Q 3116 3994 3184 3459 
z
M 888 1484 
Q 888 1194 1011 928 
Q 1134 663 1356 523 
Q 1578 384 1822 384 
Q 2178 384 2434 671 
Q 2691 959 2691 1453 
Q 2691 1928 2437 2201 
Q 2184 2475 1800 2475 
Q 1419 2475 1153 2201 
Q 888 1928 888 1484 
z
" transform="scale(0.015625)"/>
       </defs>
       <use xlink:href="#ArialMT-30"/>
       <use xlink:href="#ArialMT-2e" x="55.615234"/>
       <use xlink:href="#ArialMT-36" x="83.398438"/>
      </g>
     </g>
    </g>
    <g id="xtick_5">
     <g id="line2d_5">
      <path d="M 333.556364 307.584 
L 333.556364 41.472 
" clip-path="url(#p05377ead50)" style="fill: none; stroke: #ffffff; stroke-linecap: round"/>
     </g>
     <g id="text_5">
      <!-- 80 -->
      <g style="fill: #262626" transform="translate(327.439332 324.957594) scale(0.11 -0.11)">
       <defs>
        <path id="ArialMT-38" d="M 1131 2484 
Q 781 2613 612 2850 
Q 444 3088 444 3419 
Q 444 3919 803 4259 
Q 1163 4600 1759 4600 
Q 2359 4600 2725 4251 
Q 3091 3903 3091 3403 
Q 3091 3084 2923 2848 
Q 2756 2613 2416 2484 
Q 2838 2347 3058 2040 
Q 3278 1734 3278 1309 
Q 3278 722 2862 322 
Q 2447 -78 1769 -78 
Q 1091 -78 675 323 
Q 259 725 259 1325 
Q 259 1772 486 2073 
Q 713 2375 1131 2484 
z
M 1019 3438 
Q 1019 3113 1228 2906 
Q 1438 2700 1772 2700 
Q 2097 2700 2305 2904 
Q 2513 3109 2513 3406 
Q 2513 3716 2298 3927 
Q 2084 4138 1766 4138 
Q 1444 4138 1231 3931 
Q 1019 3725 1019 3438 
z
M 838 1322 
Q 838 1081 952 856 
Q 1066 631 1291 507 
Q 1516 384 1775 384 
Q 2178 384 2440 643 
Q 2703 903 2703 1303 
Q 2703 1709 2433 1975 
Q 2163 2241 1756 2241 
Q 1359 2241 1098 1978 
Q 838 1716 838 1322 
z
" transform="scale(0.015625)"/>
       </defs>
       <use xlink:href="#ArialMT-30"/>
       <use xlink:href="#ArialMT-2e" x="55.615234"/>
       <use xlink:href="#ArialMT-38" x="83.398438"/>
      </g>
     </g>
    </g>
    <g id="xtick_6">
     <g id="line2d_6">
      <path d="M 398.487273 307.584 
L 398.487273 41.472 
" clip-path="url(#p05377ead50)" style="fill: none; stroke: #ffffff; stroke-linecap: round"/>
     </g>
     <g id="text_6">
      <!-- 100 -->
      <g style="fill: #262626" transform="translate(389.311726 324.957594) scale(0.11 -0.11)">
       <defs>
        <path id="ArialMT-31" d="M 2384 0 
L 1822 0 
L 1822 3584 
Q 1619 3391 1289 3197 
Q 959 3003 697 2906 
L 697 3450 
Q 1169 3672 1522 3987 
Q 1875 4303 2022 4600 
L 2384 4600 
L 2384 0 
z
" transform="scale(0.015625)"/>
       </defs>
       <use xlink:href="#ArialMT-31"/>
       <use xlink:href="#ArialMT-2e" x="55.615234"/>
       <use xlink:href="#ArialMT-30" x="83.398438"/>
      </g>
     </g>
    </g>
    <g id="text_7">
     <!-- x/c [-] -->
     <g style="fill: #262626" transform="translate(221.494687 339.879469)scale(0.12 -0.12)">
      <defs>
       <path id="ArialMT-78" d="M 47 0 
L 1259 1725 
L 138 3319 
L 841 3319 
L 1350 2541 
Q 1494 2319 1581 2169 
Q 1719 2375 1834 2534 
L 2394 3319 
L 3066 3319 
L 1919 1756 
L 3153 0 
L 2463 0 
L 1781 1031 
L 1600 1309 
L 728 0 
L 47 0 
z
" transform="scale(0.015625)"/>
       <path id="ArialMT-2f" d="M 0 -78 
L 1328 4659 
L 1778 4659 
L 453 -78 
L 0 -78 
z
" transform="scale(0.015625)"/>
       <path id="ArialMT-63" d="M 2588 1216 
L 3141 1144 
Q 3050 572 2676 248 
Q 2303 -75 1759 -75 
Q 1078 -75 664 370 
Q 250 816 250 1647 
Q 250 2184 428 2587 
Q 606 2991 970 3192 
Q 1334 3394 1763 3394 
Q 2303 3394 2647 3120 
Q 2991 2847 3088 2344 
L 2541 2259 
Q 2463 2594 2264 2762 
Q 2066 2931 1784 2931 
Q 1359 2931 1093 2626 
Q 828 2322 828 1663 
Q 828 994 1084 691 
Q 1341 388 1753 388 
Q 2084 388 2306 591 
Q 2528 794 2588 1216 
z
" transform="scale(0.015625)"/>
       <path id="ArialMT-20" transform="scale(0.015625)"/>
       <path id="ArialMT-5b" d="M 434 -1272 
L 434 4581 
L 1675 4581 
L 1675 4116 
L 997 4116 
L 997 -806 
L 1675 -806 
L 1675 -1272 
L 434 -1272 
z
" transform="scale(0.015625)"/>
       <path id="ArialMT-2d" d="M 203 1375 
L 203 1941 
L 1931 1941 
L 1931 1375 
L 203 1375 
z
" transform="scale(0.015625)"/>
       <path id="ArialMT-5d" d="M 1363 -1272 
L 122 -1272 
L 122 -806 
L 800 -806 
L 800 4116 
L 122 4116 
L 122 4581 
L 1363 4581 
L 1363 -1272 
z
" transform="scale(0.015625)"/>
      </defs>
      <use xlink:href="#ArialMT-78"/>
      <use xlink:href="#ArialMT-2f" x="50"/>
      <use xlink:href="#ArialMT-63" x="77.783203"/>
      <use xlink:href="#ArialMT-20" x="127.783203"/>
      <use xlink:href="#ArialMT-5b" x="155.566406"/>
      <use xlink:href="#ArialMT-2d" x="183.349609"/>
      <use xlink:href="#ArialMT-5d" x="216.650391"/>
     </g>
    </g>
   </g>
   <g id="matplotlib.axis_2">
    <g id="ytick_1">
     <g id="line2d_7">
      <path d="M 57.6 56.462045 
L 414.72 56.462045 
" clip-path="url(#p05377ead50)" style="fill: none; stroke: #ffffff; stroke-linecap: round"/>
     </g>
     <g id="text_8">
      <!-- −0.6 -->
      <g style="fill: #262626" transform="translate(26.385313 60.398842)scale(0.11 -0.11)">
       <defs>
        <path id="ArialMT-2212" d="M 3381 1997 
L 356 1997 
L 356 2522 
L 3381 2522 
L 3381 1997 
z
" transform="scale(0.015625)"/>
       </defs>
       <use xlink:href="#ArialMT-2212"/>
       <use xlink:href="#ArialMT-30" x="58.398438"/>
       <use xlink:href="#ArialMT-2e" x="114.013672"/>
       <use xlink:href="#ArialMT-36" x="141.796875"/>
      </g>
     </g>
    </g>
    <g id="ytick_2">
     <g id="line2d_8">
      <path d="M 57.6 86.405604 
L 414.72 86.405604 
" clip-path="url(#p05377ead50)" style="fill: none; stroke: #ffffff; stroke-linecap: round"/>
     </g>
     <g id="text_9">
      <!-- −0.4 -->
      <g style="fill: #262626" transform="translate(26.385313 90.342401)scale(0.11 -0.11)">
       <use xlink:href="#ArialMT-2212"/>
       <use xlink:href="#ArialMT-30" x="58.398438"/>
       <use xlink:href="#ArialMT-2e" x="114.013672"/>
       <use xlink:href="#ArialMT-34" x="141.796875"/>
      </g>
     </g>
    </g>
    <g id="ytick_3">
     <g id="line2d_9">
      <path d="M 57.6 116.349162 
L 414.72 116.349162 
" clip-path="url(#p05377ead50)" style="fill: none; stroke: #ffffff; stroke-linecap: round"/>
     </g>
     <g id="text_10">
      <!-- −0.2 -->
      <g style="fill: #262626" transform="translate(26.385313 120.285959)scale(0.11 -0.11)">
       <use xlink:href="#ArialMT-2212"/>
       <use xlink:href="#ArialMT-30" x="58.398438"/>
       <use xlink:href="#ArialMT-2e" x="114.013672"/>
       <use xlink:href="#ArialMT-32" x="141.796875"/>
      </g>
     </g>
    </g>
    <g id="ytick_4">
     <g id="line2d_10">
      <path d="M 57.6 146.292721 
L 414.72 146.292721 
" clip-path="url(#p05377ead50)" style="fill: none; stroke: #ffffff; stroke-linecap: round"/>
     </g>
     <g id="text_11">
      <!-- 0.0 -->
      <g style="fill: #262626" transform="translate(32.81 150.229518)scale(0.11 -0.11)">
       <use xlink:href="#ArialMT-30"/>
       <use xlink:href="#ArialMT-2e" x="55.615234"/>
       <use xlink:href="#ArialMT-30" x="83.398438"/>
      </g>
     </g>
    </g>
    <g id="ytick_5">
     <g id="line2d_11">
      <path d="M 57.6 176.23628 
L 414.72 176.23628 
" clip-path="url(#p05377ead50)" style="fill: none; stroke: #ffffff; stroke-linecap: round"/>
     </g>
     <g id="text_12">
      <!-- 0.2 -->
      <g style="fill: #262626" transform="translate(32.81 180.173077)scale(0.11 -0.11)">
       <use xlink:href="#ArialMT-30"/>
       <use xlink:href="#ArialMT-2e" x="55.615234"/>
       <use xlink:href="#ArialMT-32" x="83.398438"/>
      </g>
     </g>
    </g>
    <g id="ytick_6">
     <g id="line2d_12">
      <path d="M 57.6 206.179839 
L 414.72 206.179839 
" clip-path="url(#p05377ead50)" style="fill: none; stroke: #ffffff; stroke-linecap: round"/>
     </g>
     <g id="text_13">
      <!-- 0.4 -->
      <g style="fill: #262626" transform="translate(32.81 210.116636)scale(0.11 -0.11)">
       <use xlink:href="#ArialMT-30"/>
       <use xlink:href="#ArialMT-2e" x="55.615234"/>
       <use xlink:href="#ArialMT-34" x="83.398438"/>
      </g>
     </g>
    </g>
    <g id="ytick_7">
     <g id="line2d_13">
      <path d="M 57.6 236.123398 
L 414.72 236.123398 
" clip-path="url(#p05377ead50)" style="fill: none; stroke: #ffffff; stroke-linecap: round"/>
     </g>
     <g id="text_14">
      <!-- 0.6 -->
      <g style="fill: #262626" transform="translate(32.81 240.060194)scale(0.11 -0.11)">
       <use xlink:href="#ArialMT-30"/>
       <use xlink:href="#ArialMT-2e" x="55.615234"/>
       <use xlink:href="#ArialMT-36" x="83.398438"/>
      </g>
     </g>
    </g>
    <g id="ytick_8">
     <g id="line2d_14">
      <path d="M 57.6 266.066956 
L 414.72 266.066956 
" clip-path="url(#p05377ead50)" style="fill: none; stroke: #ffffff; stroke-linecap: round"/>
     </g>
     <g id="text_15">
      <!-- 0.8 -->
      <g style="fill: #262626" transform="translate(32.81 270.003753)scale(0.11 -0.11)">
       <use xlink:href="#ArialMT-30"/>
       <use xlink:href="#ArialMT-2e" x="55.615234"/>
       <use xlink:href="#ArialMT-38" x="83.398438"/>
      </g>
     </g>
    </g>
    <g id="ytick_9">
     <g id="line2d_15">
      <path d="M 57.6 296.010515 
L 414.72 296.010515 
" clip-path="url(#p05377ead50)" style="fill: none; stroke: #ffffff; stroke-linecap: round"/>
     </g>
     <g id="text_16">
      <!-- 1.0 -->
      <g style="fill: #262626" transform="translate(32.81 299.947312)scale(0.11 -0.11)">
       <use xlink:href="#ArialMT-31"/>
       <use xlink:href="#ArialMT-2e" x="55.615234"/>
       <use xlink:href="#ArialMT-30" x="83.398438"/>
      </g>
     </g>
    </g>
    <g id="text_17">
     <!-- Cp [-] -->
     <g style="fill: #262626" transform="translate(20.000312 189.196125)rotate(-90)scale(0.12 -0.12)">
      <defs>
       <path id="ArialMT-43" d="M 3763 1606 
L 4369 1453 
Q 4178 706 3683 314 
Q 3188 -78 2472 -78 
Q 1731 -78 1267 223 
Q 803 525 561 1097 
Q 319 1669 319 2325 
Q 319 3041 592 3573 
Q 866 4106 1370 4382 
Q 1875 4659 2481 4659 
Q 3169 4659 3637 4309 
Q 4106 3959 4291 3325 
L 3694 3184 
Q 3534 3684 3231 3912 
Q 2928 4141 2469 4141 
Q 1941 4141 1586 3887 
Q 1231 3634 1087 3207 
Q 944 2781 944 2328 
Q 944 1744 1114 1308 
Q 1284 872 1643 656 
Q 2003 441 2422 441 
Q 2931 441 3284 734 
Q 3638 1028 3763 1606 
z
" transform="scale(0.015625)"/>
       <path id="ArialMT-70" d="M 422 -1272 
L 422 3319 
L 934 3319 
L 934 2888 
Q 1116 3141 1344 3267 
Q 1572 3394 1897 3394 
Q 2322 3394 2647 3175 
Q 2972 2956 3137 2557 
Q 3303 2159 3303 1684 
Q 3303 1175 3120 767 
Q 2938 359 2589 142 
Q 2241 -75 1856 -75 
Q 1575 -75 1351 44 
Q 1128 163 984 344 
L 984 -1272 
L 422 -1272 
z
M 931 1641 
Q 931 1000 1190 694 
Q 1450 388 1819 388 
Q 2194 388 2461 705 
Q 2728 1022 2728 1688 
Q 2728 2322 2467 2637 
Q 2206 2953 1844 2953 
Q 1484 2953 1207 2617 
Q 931 2281 931 1641 
z
" transform="scale(0.015625)"/>
      </defs>
      <use xlink:href="#ArialMT-43"/>
      <use xlink:href="#ArialMT-70" x="72.216797"/>
      <use xlink:href="#ArialMT-20" x="127.832031"/>
      <use xlink:href="#ArialMT-5b" x="155.615234"/>
      <use xlink:href="#ArialMT-2d" x="183.398438"/>
      <use xlink:href="#ArialMT-5d" x="216.699219"/>
     </g>
    </g>
   </g>
   <g id="PathCollection_1">
    <defs>
     <path id="m45aef0b8f5" d="M -1.5 3 
L 0 1.5 
L 1.5 3 
L 3 1.5 
L 1.5 0 
L 3 -1.5 
L 1.5 -3 
L 0 -1.5 
L -1.5 -3 
L -3 -1.5 
L -1.5 0 
L -3 1.5 
z
" style="stroke: #ffffff; stroke-width: 0.48"/>
    </defs>
    <g clip-path="url(#p05377ead50)">
     <use xlink:href="#m45aef0b8f5" x="398.487273" y="59.037191" style="fill: #2e8b57; stroke: #ffffff; stroke-width: 0.48"/>
     <use xlink:href="#m45aef0b8f5" x="382.903855" y="57.294476" style="fill: #2e8b57; stroke: #ffffff; stroke-width: 0.48"/>
     <use xlink:href="#m45aef0b8f5" x="366.346473" y="55.38258" style="fill: #2e8b57; stroke: #ffffff; stroke-width: 0.48"/>
     <use xlink:href="#m45aef0b8f5" x="350.4384" y="54.499245" style="fill: #2e8b57; stroke: #ffffff; stroke-width: 0.48"/>
     <use xlink:href="#m45aef0b8f5" x="333.881018" y="53.725204" style="fill: #2e8b57; stroke: #ffffff; stroke-width: 0.48"/>
     <use xlink:href="#m45aef0b8f5" x="317.323636" y="53.568" style="fill: #2e8b57; stroke: #ffffff; stroke-width: 0.48"/>
     <use xlink:href="#m45aef0b8f5" x="301.740218" y="53.741673" style="fill: #2e8b57; stroke: #ffffff; stroke-width: 0.48"/>
     <use xlink:href="#m45aef0b8f5" x="284.858182" y="54.374979" style="fill: #2e8b57; stroke: #ffffff; stroke-width: 0.48"/>
     <use xlink:href="#m45aef0b8f5" x="267.976145" y="55.232862" style="fill: #2e8b57; stroke: #ffffff; stroke-width: 0.48"/>
     <use xlink:href="#m45aef0b8f5" x="253.042036" y="55.601168" style="fill: #2e8b57; stroke: #ffffff; stroke-width: 0.48"/>
     <use xlink:href="#m45aef0b8f5" x="236.484655" y="56.250943" style="fill: #2e8b57; stroke: #ffffff; stroke-width: 0.48"/>
     <use xlink:href="#m45aef0b8f5" x="220.576582" y="56.668656" style="fill: #2e8b57; stroke: #ffffff; stroke-width: 0.48"/>
     <use xlink:href="#m45aef0b8f5" x="204.343855" y="57.608883" style="fill: #2e8b57; stroke: #ffffff; stroke-width: 0.48"/>
     <use xlink:href="#m45aef0b8f5" x="187.786473" y="58.264647" style="fill: #2e8b57; stroke: #ffffff; stroke-width: 0.48"/>
     <use xlink:href="#m45aef0b8f5" x="171.553745" y="58.664394" style="fill: #2e8b57; stroke: #ffffff; stroke-width: 0.48"/>
     <use xlink:href="#m45aef0b8f5" x="154.996364" y="59.192898" style="fill: #2e8b57; stroke: #ffffff; stroke-width: 0.48"/>
     <use xlink:href="#m45aef0b8f5" x="138.763636" y="59.84417" style="fill: #2e8b57; stroke: #ffffff; stroke-width: 0.48"/>
     <use xlink:href="#m45aef0b8f5" x="122.855564" y="59.841176" style="fill: #2e8b57; stroke: #ffffff; stroke-width: 0.48"/>
     <use xlink:href="#m45aef0b8f5" x="106.622836" y="59.637559" style="fill: #2e8b57; stroke: #ffffff; stroke-width: 0.48"/>
     <use xlink:href="#m45aef0b8f5" x="102.726982" y="59.573181" style="fill: #2e8b57; stroke: #ffffff; stroke-width: 0.48"/>
     <use xlink:href="#m45aef0b8f5" x="96.8832" y="59.1914" style="fill: #2e8b57; stroke: #ffffff; stroke-width: 0.48"/>
     <use xlink:href="#m45aef0b8f5" x="91.688727" y="56.572836" style="fill: #2e8b57; stroke: #ffffff; stroke-width: 0.48"/>
     <use xlink:href="#m45aef0b8f5" x="87.792873" y="58.070014" style="fill: #2e8b57; stroke: #ffffff; stroke-width: 0.48"/>
     <use xlink:href="#m45aef0b8f5" x="83.897018" y="60.911658" style="fill: #2e8b57; stroke: #ffffff; stroke-width: 0.48"/>
     <use xlink:href="#m45aef0b8f5" x="79.676509" y="58.968321" style="fill: #2e8b57; stroke: #ffffff; stroke-width: 0.48"/>
     <use xlink:href="#m45aef0b8f5" x="76.429964" y="59.80674" style="fill: #2e8b57; stroke: #ffffff; stroke-width: 0.48"/>
     <use xlink:href="#m45aef0b8f5" x="73.832727" y="109.05042" style="fill: #2e8b57; stroke: #ffffff; stroke-width: 0.48"/>
     <use xlink:href="#m45aef0b8f5" x="73.832727" y="109.02946" style="fill: #2e8b57; stroke: #ffffff; stroke-width: 0.48"/>
     <use xlink:href="#m45aef0b8f5" x="75.780655" y="288.569541" style="fill: #2e8b57; stroke: #ffffff; stroke-width: 0.48"/>
     <use xlink:href="#m45aef0b8f5" x="79.0272" y="295.488" style="fill: #2e8b57; stroke: #ffffff; stroke-width: 0.48"/>
     <use xlink:href="#m45aef0b8f5" x="83.572364" y="283.694729" style="fill: #2e8b57; stroke: #ffffff; stroke-width: 0.48"/>
     <use xlink:href="#m45aef0b8f5" x="87.468218" y="269.477528" style="fill: #2e8b57; stroke: #ffffff; stroke-width: 0.48"/>
     <use xlink:href="#m45aef0b8f5" x="91.364073" y="258.837084" style="fill: #2e8b57; stroke: #ffffff; stroke-width: 0.48"/>
     <use xlink:href="#m45aef0b8f5" x="96.233891" y="246.545253" style="fill: #2e8b57; stroke: #ffffff; stroke-width: 0.48"/>
     <use xlink:href="#m45aef0b8f5" x="101.103709" y="236.882467" style="fill: #2e8b57; stroke: #ffffff; stroke-width: 0.48"/>
     <use xlink:href="#m45aef0b8f5" x="105.648873" y="225.542841" style="fill: #2e8b57; stroke: #ffffff; stroke-width: 0.48"/>
     <use xlink:href="#m45aef0b8f5" x="122.530909" y="203.817292" style="fill: #2e8b57; stroke: #ffffff; stroke-width: 0.48"/>
     <use xlink:href="#m45aef0b8f5" x="138.438982" y="184.580053" style="fill: #2e8b57; stroke: #ffffff; stroke-width: 0.48"/>
     <use xlink:href="#m45aef0b8f5" x="154.671709" y="167.932931" style="fill: #2e8b57; stroke: #ffffff; stroke-width: 0.48"/>
     <use xlink:href="#m45aef0b8f5" x="170.904436" y="154.113979" style="fill: #2e8b57; stroke: #ffffff; stroke-width: 0.48"/>
     <use xlink:href="#m45aef0b8f5" x="187.137164" y="140.467202" style="fill: #2e8b57; stroke: #ffffff; stroke-width: 0.48"/>
     <use xlink:href="#m45aef0b8f5" x="203.694545" y="128.402942" style="fill: #2e8b57; stroke: #ffffff; stroke-width: 0.48"/>
     <use xlink:href="#m45aef0b8f5" x="219.927273" y="121.605754" style="fill: #2e8b57; stroke: #ffffff; stroke-width: 0.48"/>
     <use xlink:href="#m45aef0b8f5" x="234.861382" y="117.615775" style="fill: #2e8b57; stroke: #ffffff; stroke-width: 0.48"/>
     <use xlink:href="#m45aef0b8f5" x="252.717382" y="115.364019" style="fill: #2e8b57; stroke: #ffffff; stroke-width: 0.48"/>
     <use xlink:href="#m45aef0b8f5" x="268.950109" y="112.630172" style="fill: #2e8b57; stroke: #ffffff; stroke-width: 0.48"/>
     <use xlink:href="#m45aef0b8f5" x="284.858182" y="111.534238" style="fill: #2e8b57; stroke: #ffffff; stroke-width: 0.48"/>
     <use xlink:href="#m45aef0b8f5" x="300.766255" y="111.660001" style="fill: #2e8b57; stroke: #ffffff; stroke-width: 0.48"/>
     <use xlink:href="#m45aef0b8f5" x="317.323636" y="110.372428" style="fill: #2e8b57; stroke: #ffffff; stroke-width: 0.48"/>
     <use xlink:href="#m45aef0b8f5" x="333.556364" y="108.179062" style="fill: #2e8b57; stroke: #ffffff; stroke-width: 0.48"/>
     <use xlink:href="#m45aef0b8f5" x="349.789091" y="103.009307" style="fill: #2e8b57; stroke: #ffffff; stroke-width: 0.48"/>
     <use xlink:href="#m45aef0b8f5" x="366.021818" y="107.472394" style="fill: #2e8b57; stroke: #ffffff; stroke-width: 0.48"/>
     <use xlink:href="#m45aef0b8f5" x="382.903855" y="86.547836" style="fill: #2e8b57; stroke: #ffffff; stroke-width: 0.48"/>
     <use xlink:href="#m45aef0b8f5" x="398.487273" y="59.037191" style="fill: #2e8b57; stroke: #ffffff; stroke-width: 0.48"/>
    </g>
   </g>
   <g id="line2d_16">
    <path d="M 398.487273 59.037191 
L 382.903855 57.294476 
L 366.346473 55.38258 
L 350.4384 54.499245 
L 333.881018 53.725204 
L 317.323636 53.568 
L 301.740218 53.741673 
L 284.858182 54.374979 
L 267.976145 55.232862 
L 253.042036 55.601168 
L 236.484655 56.250943 
L 220.576582 56.668656 
L 204.343855 57.608883 
L 187.786473 58.264647 
L 171.553745 58.664394 
L 154.996364 59.192898 
L 138.763636 59.84417 
L 122.855564 59.841176 
L 106.622836 59.637559 
L 102.726982 59.573181 
L 96.8832 59.1914 
L 91.688727 56.572836 
L 87.792873 58.070014 
L 83.897018 60.911658 
L 79.676509 58.968321 
L 76.429964 59.80674 
L 73.832727 109.05042 
L 73.832727 109.02946 
L 75.780655 288.569541 
L 79.0272 295.488 
L 83.572364 283.694729 
L 87.468218 269.477528 
L 91.364073 258.837084 
L 96.233891 246.545253 
L 101.103709 236.882467 
L 105.648873 225.542841 
L 122.530909 203.817292 
L 138.438982 184.580053 
L 154.671709 167.932931 
L 170.904436 154.113979 
L 187.137164 140.467202 
L 203.694545 128.402942 
L 219.927273 121.605754 
L 234.861382 117.615775 
L 252.717382 115.364019 
L 268.950109 112.630172 
L 284.858182 111.534238 
L 300.766255 111.660001 
L 317.323636 110.372428 
L 333.556364 108.179062 
L 349.789091 103.009307 
L 366.021818 107.472394 
L 382.903855 86.547836 
L 398.487273 59.037191 
" clip-path="url(#p05377ead50)" style="fill: none; stroke: #808080; stroke-linecap: round"/>
   </g>
   <g id="patch_3">
    <path d="M 57.6 307.584 
L 57.6 41.472 
" style="fill: none; stroke: #ffffff; stroke-width: 1.25; stroke-linejoin: miter; stroke-linecap: square"/>
   </g>
   <g id="patch_4">
    <path d="M 414.72 307.584 
L 414.72 41.472 
" style="fill: none; stroke: #ffffff; stroke-width: 1.25; stroke-linejoin: miter; stroke-linecap: square"/>
   </g>
   <g id="patch_5">
    <path d="M 57.6 307.584 
L 414.72 307.584 
" style="fill: none; stroke: #ffffff; stroke-width: 1.25; stroke-linejoin: miter; stroke-linecap: square"/>
   </g>
   <g id="patch_6">
    <path d="M 57.6 41.472 
L 414.72 41.472 
" style="fill: none; stroke: #ffffff; stroke-width: 1.25; stroke-linejoin: miter; stroke-linecap: square"/>
   </g>
  </g>
 </g>
 <defs>
  <clipPath id="p05377ead50">
   <rect x="57.6" y="41.472" width="357.12" height="266.112"/>
  </clipPath>
 </defs>
</svg>
