<?xml version="1.0" encoding="utf-8" standalone="no"?>
<!DOCTYPE svg PUBLIC "-//W3C//DTD SVG 1.1//EN"
  "http://www.w3.org/Graphics/SVG/1.1/DTD/svg11.dtd">
<svg xmlns:xlink="http://www.w3.org/1999/xlink" width="460.8pt" height="345.6pt" viewBox="0 0 460.8 345.6" xmlns="http://www.w3.org/2000/svg" version="1.1">
 <metadata>
  <rdf:RDF xmlns:dc="http://purl.org/dc/elements/1.1/" xmlns:cc="http://creativecommons.org/ns#" xmlns:rdf="http://www.w3.org/1999/02/22-rdf-syntax-ns#">
   <cc:Work>
    <dc:type rdf:resource="http://purl.org/dc/dcmitype/StillImage"/>
    <dc:date>2022-12-12T06:48:44.680125</dc:date>
    <dc:format>image/svg+xml</dc:format>
    <dc:creator>
     <cc:Agent>
      <dc:title>Matplotlib v3.6.2, https://matplotlib.org/</dc:title>
     </cc:Agent>
    </dc:creator>
   </cc:Work>
  </rdf:RDF>
 </metadata>
 <defs>
  <style type="text/css">*{stroke-linejoin: round; stroke-linecap: butt}</style>
 </defs>
 <g id="figure_1">
  <g id="patch_1">
   <path d="M 0 345.6 
L 460.8 345.6 
L 460.8 0 
L 0 0 
z
" style="fill: #ffffff"/>
  </g>
  <g id="axes_1">
   <g id="patch_2">
    <path d="M 57.6 307.584 
L 414.72 307.584 
L 414.72 41.472 
L 57.6 41.472 
z
" style="fill: #eaeaf2"/>
   </g>
   <g id="matplotlib.axis_1">
    <g id="xtick_1">
     <g id="line2d_1">
      <path d="M 119.252987 307.584 
L 119.252987 41.472 
" clip-path="url(#p745c1d4d0d)" style="fill: none; stroke: #ffffff; stroke-linecap: round"/>
     </g>
     <g id="text_1">
      <!-- 0 -->
      <g style="fill: #262626" transform="translate(116.194472 324.957594) scale(0.11 -0.11)">
       <defs>
        <path id="ArialMT-30" d="M 266 2259 
Q 266 3072 433 3567 
Q 600 4063 929 4331 
Q 1259 4600 1759 4600 
Q 2128 4600 2406 4451 
Q 2684 4303 2865 4023 
Q 3047 3744 3150 3342 
Q 3253 2941 3253 2259 
Q 3253 1453 3087 958 
Q 2922 463 2592 192 
Q 2263 -78 1759 -78 
Q 1097 -78 719 397 
Q 266 969 266 2259 
z
M 844 2259 
Q 844 1131 1108 757 
Q 1372 384 1759 384 
Q 2147 384 2411 759 
Q 2675 1134 2675 2259 
Q 2675 3391 2411 3762 
Q 2147 4134 1753 4134 
Q 1366 4134 1134 3806 
Q 844 3388 844 2259 
z
" transform="scale(0.015625)"/>
       </defs>
       <use xlink:href="#ArialMT-30"/>
      </g>
     </g>
    </g>
    <g id="xtick_2">
     <g id="line2d_2">
      <path d="M 194.676866 307.584 
L 194.676866 41.472 
" clip-path="url(#p745c1d4d0d)" style="fill: none; stroke: #ffffff; stroke-linecap: round"/>
     </g>
     <g id="text_2">
      <!-- 5 -->
      <g style="fill: #262626" transform="translate(191.618351 324.957594) scale(0.11 -0.11)">
       <defs>
        <path id="ArialMT-35" d="M 266 1200 
L 856 1250 
Q 922 819 1161 601 
Q 1400 384 1738 384 
Q 2144 384 2425 690 
Q 2706 997 2706 1503 
Q 2706 1984 2436 2262 
Q 2166 2541 1728 2541 
Q 1456 2541 1237 2417 
Q 1019 2294 894 2097 
L 366 2166 
L 809 4519 
L 3088 4519 
L 3088 3981 
L 1259 3981 
L 1013 2750 
Q 1425 3038 1878 3038 
Q 2478 3038 2890 2622 
Q 3303 2206 3303 1553 
Q 3303 931 2941 478 
Q 2500 -78 1738 -78 
Q 1113 -78 717 272 
Q 322 622 266 1200 
z
" transform="scale(0.015625)"/>
       </defs>
       <use xlink:href="#ArialMT-35"/>
      </g>
     </g>
    </g>
    <g id="xtick_3">
     <g id="line2d_3">
      <path d="M 270.100746 307.584 
L 270.100746 41.472 
" clip-path="url(#p745c1d4d0d)" style="fill: none; stroke: #ffffff; stroke-linecap: round"/>
     </g>
     <g id="text_3">
      <!-- 10 -->
      <g style="fill: #262626" transform="translate(263.983714 324.957594) scale(0.11 -0.11)">
       <defs>
        <path id="ArialMT-31" d="M 2384 0 
L 1822 0 
L 1822 3584 
Q 1619 3391 1289 3197 
Q 959 3003 697 2906 
L 697 3450 
Q 1169 3672 1522 3987 
Q 1875 4303 2022 4600 
L 2384 4600 
L 2384 0 
z
" transform="scale(0.015625)"/>
       </defs>
       <use xlink:href="#ArialMT-31"/>
       <use xlink:href="#ArialMT-30" x="55.615234"/>
      </g>
     </g>
    </g>
    <g id="xtick_4">
     <g id="line2d_4">
      <path d="M 345.524625 307.584 
L 345.524625 41.472 
" clip-path="url(#p745c1d4d0d)" style="fill: none; stroke: #ffffff; stroke-linecap: round"/>
     </g>
     <g id="text_4">
      <!-- 15 -->
      <g style="fill: #262626" transform="translate(339.407594 324.957594) scale(0.11 -0.11)">
       <use xlink:href="#ArialMT-31"/>
       <use xlink:href="#ArialMT-35" x="55.615234"/>
      </g>
     </g>
    </g>
    <g id="text_5">
     <!-- Alpha [degrees] -->
     <g style="fill: #262626" transform="translate(194.13375 339.733219) scale(0.12 -0.12)">
      <defs>
       <path id="ArialMT-41" d="M -9 0 
L 1750 4581 
L 2403 4581 
L 4278 0 
L 3588 0 
L 3053 1388 
L 1138 1388 
L 634 0 
L -9 0 
z
M 1313 1881 
L 2866 1881 
L 2388 3150 
Q 2169 3728 2063 4100 
Q 1975 3659 1816 3225 
L 1313 1881 
z
" transform="scale(0.015625)"/>
       <path id="ArialMT-6c" d="M 409 0 
L 409 4581 
L 972 4581 
L 972 0 
L 409 0 
z
" transform="scale(0.015625)"/>
       <path id="ArialMT-70" d="M 422 -1272 
L 422 3319 
L 934 3319 
L 934 2888 
Q 1116 3141 1344 3267 
Q 1572 3394 1897 3394 
Q 2322 3394 2647 3175 
Q 2972 2956 3137 2557 
Q 3303 2159 3303 1684 
Q 3303 1175 3120 767 
Q 2938 359 2589 142 
Q 2241 -75 1856 -75 
Q 1575 -75 1351 44 
Q 1128 163 984 344 
L 984 -1272 
L 422 -1272 
z
M 931 1641 
Q 931 1000 1190 694 
Q 1450 388 1819 388 
Q 2194 388 2461 705 
Q 2728 1022 2728 1688 
Q 2728 2322 2467 2637 
Q 2206 2953 1844 2953 
Q 1484 2953 1207 2617 
Q 931 2281 931 1641 
z
" transform="scale(0.015625)"/>
       <path id="ArialMT-68" d="M 422 0 
L 422 4581 
L 984 4581 
L 984 2938 
Q 1378 3394 1978 3394 
Q 2347 3394 2619 3248 
Q 2891 3103 3008 2847 
Q 3125 2591 3125 2103 
L 3125 0 
L 2563 0 
L 2563 2103 
Q 2563 2525 2380 2717 
Q 2197 2909 1863 2909 
Q 1613 2909 1392 2779 
Q 1172 2650 1078 2428 
Q 984 2206 984 1816 
L 984 0 
L 422 0 
z
" transform="scale(0.015625)"/>
       <path id="ArialMT-61" d="M 2588 409 
Q 2275 144 1986 34 
Q 1697 -75 1366 -75 
Q 819 -75 525 192 
Q 231 459 231 875 
Q 231 1119 342 1320 
Q 453 1522 633 1644 
Q 813 1766 1038 1828 
Q 1203 1872 1538 1913 
Q 2219 1994 2541 2106 
Q 2544 2222 2544 2253 
Q 2544 2597 2384 2738 
Q 2169 2928 1744 2928 
Q 1347 2928 1158 2789 
Q 969 2650 878 2297 
L 328 2372 
Q 403 2725 575 2942 
Q 747 3159 1072 3276 
Q 1397 3394 1825 3394 
Q 2250 3394 2515 3294 
Q 2781 3194 2906 3042 
Q 3031 2891 3081 2659 
Q 3109 2516 3109 2141 
L 3109 1391 
Q 3109 606 3145 398 
Q 3181 191 3288 0 
L 2700 0 
Q 2613 175 2588 409 
z
M 2541 1666 
Q 2234 1541 1622 1453 
Q 1275 1403 1131 1340 
Q 988 1278 909 1158 
Q 831 1038 831 891 
Q 831 666 1001 516 
Q 1172 366 1500 366 
Q 1825 366 2078 508 
Q 2331 650 2450 897 
Q 2541 1088 2541 1459 
L 2541 1666 
z
" transform="scale(0.015625)"/>
       <path id="ArialMT-20" transform="scale(0.015625)"/>
       <path id="ArialMT-5b" d="M 434 -1272 
L 434 4581 
L 1675 4581 
L 1675 4116 
L 997 4116 
L 997 -806 
L 1675 -806 
L 1675 -1272 
L 434 -1272 
z
" transform="scale(0.015625)"/>
       <path id="ArialMT-64" d="M 2575 0 
L 2575 419 
Q 2259 -75 1647 -75 
Q 1250 -75 917 144 
Q 584 363 401 755 
Q 219 1147 219 1656 
Q 219 2153 384 2558 
Q 550 2963 881 3178 
Q 1213 3394 1622 3394 
Q 1922 3394 2156 3267 
Q 2391 3141 2538 2938 
L 2538 4581 
L 3097 4581 
L 3097 0 
L 2575 0 
z
M 797 1656 
Q 797 1019 1065 703 
Q 1334 388 1700 388 
Q 2069 388 2326 689 
Q 2584 991 2584 1609 
Q 2584 2291 2321 2609 
Q 2059 2928 1675 2928 
Q 1300 2928 1048 2622 
Q 797 2316 797 1656 
z
" transform="scale(0.015625)"/>
       <path id="ArialMT-65" d="M 2694 1069 
L 3275 997 
Q 3138 488 2766 206 
Q 2394 -75 1816 -75 
Q 1088 -75 661 373 
Q 234 822 234 1631 
Q 234 2469 665 2931 
Q 1097 3394 1784 3394 
Q 2450 3394 2872 2941 
Q 3294 2488 3294 1666 
Q 3294 1616 3291 1516 
L 816 1516 
Q 847 969 1125 678 
Q 1403 388 1819 388 
Q 2128 388 2347 550 
Q 2566 713 2694 1069 
z
M 847 1978 
L 2700 1978 
Q 2663 2397 2488 2606 
Q 2219 2931 1791 2931 
Q 1403 2931 1139 2672 
Q 875 2413 847 1978 
z
" transform="scale(0.015625)"/>
       <path id="ArialMT-67" d="M 319 -275 
L 866 -356 
Q 900 -609 1056 -725 
Q 1266 -881 1628 -881 
Q 2019 -881 2231 -725 
Q 2444 -569 2519 -288 
Q 2563 -116 2559 434 
Q 2191 0 1641 0 
Q 956 0 581 494 
Q 206 988 206 1678 
Q 206 2153 378 2554 
Q 550 2956 876 3175 
Q 1203 3394 1644 3394 
Q 2231 3394 2613 2919 
L 2613 3319 
L 3131 3319 
L 3131 450 
Q 3131 -325 2973 -648 
Q 2816 -972 2473 -1159 
Q 2131 -1347 1631 -1347 
Q 1038 -1347 672 -1080 
Q 306 -813 319 -275 
z
M 784 1719 
Q 784 1066 1043 766 
Q 1303 466 1694 466 
Q 2081 466 2343 764 
Q 2606 1063 2606 1700 
Q 2606 2309 2336 2618 
Q 2066 2928 1684 2928 
Q 1309 2928 1046 2623 
Q 784 2319 784 1719 
z
" transform="scale(0.015625)"/>
       <path id="ArialMT-72" d="M 416 0 
L 416 3319 
L 922 3319 
L 922 2816 
Q 1116 3169 1280 3281 
Q 1444 3394 1641 3394 
Q 1925 3394 2219 3213 
L 2025 2691 
Q 1819 2813 1613 2813 
Q 1428 2813 1281 2702 
Q 1134 2591 1072 2394 
Q 978 2094 978 1738 
L 978 0 
L 416 0 
z
" transform="scale(0.015625)"/>
       <path id="ArialMT-73" d="M 197 991 
L 753 1078 
Q 800 744 1014 566 
Q 1228 388 1613 388 
Q 2000 388 2187 545 
Q 2375 703 2375 916 
Q 2375 1106 2209 1216 
Q 2094 1291 1634 1406 
Q 1016 1563 777 1677 
Q 538 1791 414 1992 
Q 291 2194 291 2438 
Q 291 2659 392 2848 
Q 494 3038 669 3163 
Q 800 3259 1026 3326 
Q 1253 3394 1513 3394 
Q 1903 3394 2198 3281 
Q 2494 3169 2634 2976 
Q 2775 2784 2828 2463 
L 2278 2388 
Q 2241 2644 2061 2787 
Q 1881 2931 1553 2931 
Q 1166 2931 1000 2803 
Q 834 2675 834 2503 
Q 834 2394 903 2306 
Q 972 2216 1119 2156 
Q 1203 2125 1616 2013 
Q 2213 1853 2448 1751 
Q 2684 1650 2818 1456 
Q 2953 1263 2953 975 
Q 2953 694 2789 445 
Q 2625 197 2315 61 
Q 2006 -75 1616 -75 
Q 969 -75 630 194 
Q 291 463 197 991 
z
" transform="scale(0.015625)"/>
       <path id="ArialMT-5d" d="M 1363 -1272 
L 122 -1272 
L 122 -806 
L 800 -806 
L 800 4116 
L 122 4116 
L 122 4581 
L 1363 4581 
L 1363 -1272 
z
" transform="scale(0.015625)"/>
      </defs>
      <use xlink:href="#ArialMT-41"/>
      <use xlink:href="#ArialMT-6c" x="66.699219"/>
      <use xlink:href="#ArialMT-70" x="88.916016"/>
      <use xlink:href="#ArialMT-68" x="144.53125"/>
      <use xlink:href="#ArialMT-61" x="200.146484"/>
      <use xlink:href="#ArialMT-20" x="255.761719"/>
      <use xlink:href="#ArialMT-5b" x="283.544922"/>
      <use xlink:href="#ArialMT-64" x="311.328125"/>
      <use xlink:href="#ArialMT-65" x="366.943359"/>
      <use xlink:href="#ArialMT-67" x="422.558594"/>
      <use xlink:href="#ArialMT-72" x="478.173828"/>
      <use xlink:href="#ArialMT-65" x="511.474609"/>
      <use xlink:href="#ArialMT-65" x="567.089844"/>
      <use xlink:href="#ArialMT-73" x="622.705078"/>
      <use xlink:href="#ArialMT-5d" x="672.705078"/>
     </g>
    </g>
   </g>
   <g id="matplotlib.axis_2">
    <g id="ytick_1">
     <g id="line2d_5">
      <path d="M 57.6 277.305999 
L 414.72 277.305999 
" clip-path="url(#p745c1d4d0d)" style="fill: none; stroke: #ffffff; stroke-linecap: round"/>
     </g>
     <g id="text_6">
      <!-- −0.2 -->
      <g style="fill: #262626" transform="translate(26.385313 281.242796) scale(0.11 -0.11)">
       <defs>
        <path id="ArialMT-2212" d="M 3381 1997 
L 356 1997 
L 356 2522 
L 3381 2522 
L 3381 1997 
z
" transform="scale(0.015625)"/>
        <path id="ArialMT-2e" d="M 581 0 
L 581 641 
L 1222 641 
L 1222 0 
L 581 0 
z
" transform="scale(0.015625)"/>
        <path id="ArialMT-32" d="M 3222 541 
L 3222 0 
L 194 0 
Q 188 203 259 391 
Q 375 700 629 1000 
Q 884 1300 1366 1694 
Q 2113 2306 2375 2664 
Q 2638 3022 2638 3341 
Q 2638 3675 2398 3904 
Q 2159 4134 1775 4134 
Q 1369 4134 1125 3890 
Q 881 3647 878 3216 
L 300 3275 
Q 359 3922 746 4261 
Q 1134 4600 1788 4600 
Q 2447 4600 2831 4234 
Q 3216 3869 3216 3328 
Q 3216 3053 3103 2787 
Q 2991 2522 2730 2228 
Q 2469 1934 1863 1422 
Q 1356 997 1212 845 
Q 1069 694 975 541 
L 3222 541 
z
" transform="scale(0.015625)"/>
       </defs>
       <use xlink:href="#ArialMT-2212"/>
       <use xlink:href="#ArialMT-30" x="58.398438"/>
       <use xlink:href="#ArialMT-2e" x="114.013672"/>
       <use xlink:href="#ArialMT-32" x="141.796875"/>
      </g>
     </g>
    </g>
    <g id="ytick_2">
     <g id="line2d_6">
      <path d="M 57.6 238.330649 
L 414.72 238.330649 
" clip-path="url(#p745c1d4d0d)" style="fill: none; stroke: #ffffff; stroke-linecap: round"/>
     </g>
     <g id="text_7">
      <!-- 0.0 -->
      <g style="fill: #262626" transform="translate(32.81 242.267445) scale(0.11 -0.11)">
       <use xlink:href="#ArialMT-30"/>
       <use xlink:href="#ArialMT-2e" x="55.615234"/>
       <use xlink:href="#ArialMT-30" x="83.398438"/>
      </g>
     </g>
    </g>
    <g id="ytick_3">
     <g id="line2d_7">
      <path d="M 57.6 199.355298 
L 414.72 199.355298 
" clip-path="url(#p745c1d4d0d)" style="fill: none; stroke: #ffffff; stroke-linecap: round"/>
     </g>
     <g id="text_8">
      <!-- 0.2 -->
      <g style="fill: #262626" transform="translate(32.81 203.292095) scale(0.11 -0.11)">
       <use xlink:href="#ArialMT-30"/>
       <use xlink:href="#ArialMT-2e" x="55.615234"/>
       <use xlink:href="#ArialMT-32" x="83.398438"/>
      </g>
     </g>
    </g>
    <g id="ytick_4">
     <g id="line2d_8">
      <path d="M 57.6 160.379948 
L 414.72 160.379948 
" clip-path="url(#p745c1d4d0d)" style="fill: none; stroke: #ffffff; stroke-linecap: round"/>
     </g>
     <g id="text_9">
      <!-- 0.4 -->
      <g style="fill: #262626" transform="translate(32.81 164.316745) scale(0.11 -0.11)">
       <defs>
        <path id="ArialMT-34" d="M 2069 0 
L 2069 1097 
L 81 1097 
L 81 1613 
L 2172 4581 
L 2631 4581 
L 2631 1613 
L 3250 1613 
L 3250 1097 
L 2631 1097 
L 2631 0 
L 2069 0 
z
M 2069 1613 
L 2069 3678 
L 634 1613 
L 2069 1613 
z
" transform="scale(0.015625)"/>
       </defs>
       <use xlink:href="#ArialMT-30"/>
       <use xlink:href="#ArialMT-2e" x="55.615234"/>
       <use xlink:href="#ArialMT-34" x="83.398438"/>
      </g>
     </g>
    </g>
    <g id="ytick_5">
     <g id="line2d_9">
      <path d="M 57.6 121.404597 
L 414.72 121.404597 
" clip-path="url(#p745c1d4d0d)" style="fill: none; stroke: #ffffff; stroke-linecap: round"/>
     </g>
     <g id="text_10">
      <!-- 0.6 -->
      <g style="fill: #262626" transform="translate(32.81 125.341394) scale(0.11 -0.11)">
       <defs>
        <path id="ArialMT-36" d="M 3184 3459 
L 2625 3416 
Q 2550 3747 2413 3897 
Q 2184 4138 1850 4138 
Q 1581 4138 1378 3988 
Q 1113 3794 959 3422 
Q 806 3050 800 2363 
Q 1003 2672 1297 2822 
Q 1591 2972 1913 2972 
Q 2475 2972 2870 2558 
Q 3266 2144 3266 1488 
Q 3266 1056 3080 686 
Q 2894 316 2569 119 
Q 2244 -78 1831 -78 
Q 1128 -78 684 439 
Q 241 956 241 2144 
Q 241 3472 731 4075 
Q 1159 4600 1884 4600 
Q 2425 4600 2770 4297 
Q 3116 3994 3184 3459 
z
M 888 1484 
Q 888 1194 1011 928 
Q 1134 663 1356 523 
Q 1578 384 1822 384 
Q 2178 384 2434 671 
Q 2691 959 2691 1453 
Q 2691 1928 2437 2201 
Q 2184 2475 1800 2475 
Q 1419 2475 1153 2201 
Q 888 1928 888 1484 
z
" transform="scale(0.015625)"/>
       </defs>
       <use xlink:href="#ArialMT-30"/>
       <use xlink:href="#ArialMT-2e" x="55.615234"/>
       <use xlink:href="#ArialMT-36" x="83.398438"/>
      </g>
     </g>
    </g>
    <g id="ytick_6">
     <g id="line2d_10">
      <path d="M 57.6 82.429247 
L 414.72 82.429247 
" clip-path="url(#p745c1d4d0d)" style="fill: none; stroke: #ffffff; stroke-linecap: round"/>
     </g>
     <g id="text_11">
      <!-- 0.8 -->
      <g style="fill: #262626" transform="translate(32.81 86.366044) scale(0.11 -0.11)">
       <defs>
        <path id="ArialMT-38" d="M 1131 2484 
Q 781 2613 612 2850 
Q 444 3088 444 3419 
Q 444 3919 803 4259 
Q 1163 4600 1759 4600 
Q 2359 4600 2725 4251 
Q 3091 3903 3091 3403 
Q 3091 3084 2923 2848 
Q 2756 2613 2416 2484 
Q 2838 2347 3058 2040 
Q 3278 1734 3278 1309 
Q 3278 722 2862 322 
Q 2447 -78 1769 -78 
Q 1091 -78 675 323 
Q 259 725 259 1325 
Q 259 1772 486 2073 
Q 713 2375 1131 2484 
z
M 1019 3438 
Q 1019 3113 1228 2906 
Q 1438 2700 1772 2700 
Q 2097 2700 2305 2904 
Q 2513 3109 2513 3406 
Q 2513 3716 2298 3927 
Q 2084 4138 1766 4138 
Q 1444 4138 1231 3931 
Q 1019 3725 1019 3438 
z
M 838 1322 
Q 838 1081 952 856 
Q 1066 631 1291 507 
Q 1516 384 1775 384 
Q 2178 384 2440 643 
Q 2703 903 2703 1303 
Q 2703 1709 2433 1975 
Q 2163 2241 1756 2241 
Q 1359 2241 1098 1978 
Q 838 1716 838 1322 
z
" transform="scale(0.015625)"/>
       </defs>
       <use xlink:href="#ArialMT-30"/>
       <use xlink:href="#ArialMT-2e" x="55.615234"/>
       <use xlink:href="#ArialMT-38" x="83.398438"/>
      </g>
     </g>
    </g>
    <g id="ytick_7">
     <g id="line2d_11">
      <path d="M 57.6 43.453897 
L 414.72 43.453897 
" clip-path="url(#p745c1d4d0d)" style="fill: none; stroke: #ffffff; stroke-linecap: round"/>
     </g>
     <g id="text_12">
      <!-- 1.0 -->
      <g style="fill: #262626" transform="translate(32.81 47.390693) scale(0.11 -0.11)">
       <use xlink:href="#ArialMT-31"/>
       <use xlink:href="#ArialMT-2e" x="55.615234"/>
       <use xlink:href="#ArialMT-30" x="83.398438"/>
      </g>
     </g>
    </g>
    <g id="text_13">
     <!-- Cl/Cm [-] -->
     <g style="fill: #262626" transform="translate(20.000312 198.1905) rotate(-90) scale(0.12 -0.12)">
      <defs>
       <path id="ArialMT-43" d="M 3763 1606 
L 4369 1453 
Q 4178 706 3683 314 
Q 3188 -78 2472 -78 
Q 1731 -78 1267 223 
Q 803 525 561 1097 
Q 319 1669 319 2325 
Q 319 3041 592 3573 
Q 866 4106 1370 4382 
Q 1875 4659 2481 4659 
Q 3169 4659 3637 4309 
Q 4106 3959 4291 3325 
L 3694 3184 
Q 3534 3684 3231 3912 
Q 2928 4141 2469 4141 
Q 1941 4141 1586 3887 
Q 1231 3634 1087 3207 
Q 944 2781 944 2328 
Q 944 1744 1114 1308 
Q 1284 872 1643 656 
Q 2003 441 2422 441 
Q 2931 441 3284 734 
Q 3638 1028 3763 1606 
z
" transform="scale(0.015625)"/>
       <path id="ArialMT-2f" d="M 0 -78 
L 1328 4659 
L 1778 4659 
L 453 -78 
L 0 -78 
z
" transform="scale(0.015625)"/>
       <path id="ArialMT-6d" d="M 422 0 
L 422 3319 
L 925 3319 
L 925 2853 
Q 1081 3097 1340 3245 
Q 1600 3394 1931 3394 
Q 2300 3394 2536 3241 
Q 2772 3088 2869 2813 
Q 3263 3394 3894 3394 
Q 4388 3394 4653 3120 
Q 4919 2847 4919 2278 
L 4919 0 
L 4359 0 
L 4359 2091 
Q 4359 2428 4304 2576 
Q 4250 2725 4106 2815 
Q 3963 2906 3769 2906 
Q 3419 2906 3187 2673 
Q 2956 2441 2956 1928 
L 2956 0 
L 2394 0 
L 2394 2156 
Q 2394 2531 2256 2718 
Q 2119 2906 1806 2906 
Q 1569 2906 1367 2781 
Q 1166 2656 1075 2415 
Q 984 2175 984 1722 
L 984 0 
L 422 0 
z
" transform="scale(0.015625)"/>
       <path id="ArialMT-2d" d="M 203 1375 
L 203 1941 
L 1931 1941 
L 1931 1375 
L 203 1375 
z
" transform="scale(0.015625)"/>
      </defs>
      <use xlink:href="#ArialMT-43"/>
      <use xlink:href="#ArialMT-6c" x="72.216797"/>
      <use xlink:href="#ArialMT-2f" x="94.433594"/>
      <use xlink:href="#ArialMT-43" x="122.216797"/>
      <use xlink:href="#ArialMT-6d" x="194.433594"/>
      <use xlink:href="#ArialMT-20" x="277.734375"/>
      <use xlink:href="#ArialMT-5b" x="305.517578"/>
      <use xlink:href="#ArialMT-2d" x="333.300781"/>
      <use xlink:href="#ArialMT-5d" x="366.601562"/>
     </g>
    </g>
   </g>
   <g id="PathCollection_1">
    <defs>
     <path id="m4fbef4645c" d="M -1.5 3 
L 0 1.5 
L 1.5 3 
L 3 1.5 
L 1.5 0 
L 3 -1.5 
L 1.5 -3 
L 0 -1.5 
L -1.5 -3 
L -3 -1.5 
L -1.5 0 
L -3 1.5 
z
" style="stroke: #ffffff; stroke-width: 0.48"/>
    </defs>
    <g clip-path="url(#p745c1d4d0d)">
     <use xlink:href="#m4fbef4645c" x="73.832727" y="295.488" style="fill: #ff0000; stroke: #ffffff; stroke-width: 0.48"/>
     <use xlink:href="#m4fbef4645c" x="88.902418" y="276.29264" style="fill: #ff0000; stroke: #ffffff; stroke-width: 0.48"/>
     <use xlink:href="#m4fbef4645c" x="104.032448" y="257.272669" style="fill: #ff0000; stroke: #ffffff; stroke-width: 0.48"/>
     <use xlink:href="#m4fbef4645c" x="119.252987" y="238.48655" style="fill: #ff0000; stroke: #ffffff; stroke-width: 0.48"/>
     <use xlink:href="#m4fbef4645c" x="134.322678" y="219.54453" style="fill: #ff0000; stroke: #ffffff; stroke-width: 0.48"/>
     <use xlink:href="#m4fbef4645c" x="149.618641" y="200.134805" style="fill: #ff0000; stroke: #ffffff; stroke-width: 0.48"/>
     <use xlink:href="#m4fbef4645c" x="164.688332" y="180.958933" style="fill: #ff0000; stroke: #ffffff; stroke-width: 0.48"/>
     <use xlink:href="#m4fbef4645c" x="172.26089" y="171.293046" style="fill: #ff0000; stroke: #ffffff; stroke-width: 0.48"/>
     <use xlink:href="#m4fbef4645c" x="179.758023" y="162.055888" style="fill: #ff0000; stroke: #ffffff; stroke-width: 0.48"/>
     <use xlink:href="#m4fbef4645c" x="187.481428" y="153.15002" style="fill: #ff0000; stroke: #ffffff; stroke-width: 0.48"/>
     <use xlink:href="#m4fbef4645c" x="194.903138" y="145.569315" style="fill: #ff0000; stroke: #ffffff; stroke-width: 0.48"/>
     <use xlink:href="#m4fbef4645c" x="202.626543" y="138.612215" style="fill: #ff0000; stroke: #ffffff; stroke-width: 0.48"/>
     <use xlink:href="#m4fbef4645c" x="210.108592" y="131.128947" style="fill: #ff0000; stroke: #ffffff; stroke-width: 0.48"/>
     <use xlink:href="#m4fbef4645c" x="217.68115" y="123.626192" style="fill: #ff0000; stroke: #ffffff; stroke-width: 0.48"/>
     <use xlink:href="#m4fbef4645c" x="225.253707" y="115.460856" style="fill: #ff0000; stroke: #ffffff; stroke-width: 0.48"/>
     <use xlink:href="#m4fbef4645c" x="232.901688" y="108.406318" style="fill: #ff0000; stroke: #ffffff; stroke-width: 0.48"/>
     <use xlink:href="#m4fbef4645c" x="240.383737" y="101.215366" style="fill: #ff0000; stroke: #ffffff; stroke-width: 0.48"/>
     <use xlink:href="#m4fbef4645c" x="247.880871" y="93.225419" style="fill: #ff0000; stroke: #ffffff; stroke-width: 0.48"/>
     <use xlink:href="#m4fbef4645c" x="255.528852" y="84.631354" style="fill: #ff0000; stroke: #ffffff; stroke-width: 0.48"/>
     <use xlink:href="#m4fbef4645c" x="263.025986" y="77.537841" style="fill: #ff0000; stroke: #ffffff; stroke-width: 0.48"/>
     <use xlink:href="#m4fbef4645c" x="270.658882" y="72.256681" style="fill: #ff0000; stroke: #ffffff; stroke-width: 0.48"/>
     <use xlink:href="#m4fbef4645c" x="285.713489" y="63.29235" style="fill: #ff0000; stroke: #ffffff; stroke-width: 0.48"/>
     <use xlink:href="#m4fbef4645c" x="300.888773" y="58.51787" style="fill: #ff0000; stroke: #ffffff; stroke-width: 0.48"/>
     <use xlink:href="#m4fbef4645c" x="315.91321" y="55.633694" style="fill: #ff0000; stroke: #ffffff; stroke-width: 0.48"/>
     <use xlink:href="#m4fbef4645c" x="331.058325" y="53.568" style="fill: #ff0000; stroke: #ffffff; stroke-width: 0.48"/>
     <use xlink:href="#m4fbef4645c" x="346.128016" y="54.094167" style="fill: #ff0000; stroke: #ffffff; stroke-width: 0.48"/>
     <use xlink:href="#m4fbef4645c" x="353.715658" y="57.523998" style="fill: #ff0000; stroke: #ffffff; stroke-width: 0.48"/>
     <use xlink:href="#m4fbef4645c" x="361.137368" y="64.169295" style="fill: #ff0000; stroke: #ffffff; stroke-width: 0.48"/>
     <use xlink:href="#m4fbef4645c" x="368.393145" y="123.665168" style="fill: #ff0000; stroke: #ffffff; stroke-width: 0.48"/>
     <use xlink:href="#m4fbef4645c" x="375.860109" y="127.017048" style="fill: #ff0000; stroke: #ffffff; stroke-width: 0.48"/>
     <use xlink:href="#m4fbef4645c" x="383.327073" y="142.821552" style="fill: #ff0000; stroke: #ffffff; stroke-width: 0.48"/>
     <use xlink:href="#m4fbef4645c" x="391.020309" y="141.028686" style="fill: #ff0000; stroke: #ffffff; stroke-width: 0.48"/>
     <use xlink:href="#m4fbef4645c" x="398.487273" y="141.028686" style="fill: #ff0000; stroke: #ffffff; stroke-width: 0.48"/>
     <use xlink:href="#m4fbef4645c" x="391.020309" y="140.677908" style="fill: #ff0000; stroke: #ffffff; stroke-width: 0.48"/>
     <use xlink:href="#m4fbef4645c" x="383.477921" y="143.328232" style="fill: #ff0000; stroke: #ffffff; stroke-width: 0.48"/>
     <use xlink:href="#m4fbef4645c" x="375.784685" y="144.166202" style="fill: #ff0000; stroke: #ffffff; stroke-width: 0.48"/>
     <use xlink:href="#m4fbef4645c" x="368.317721" y="134.987507" style="fill: #ff0000; stroke: #ffffff; stroke-width: 0.48"/>
     <use xlink:href="#m4fbef4645c" x="353.24803" y="112.401291" style="fill: #ff0000; stroke: #ffffff; stroke-width: 0.48"/>
     <use xlink:href="#m4fbef4645c" x="345.630218" y="112.635144" style="fill: #ff0000; stroke: #ffffff; stroke-width: 0.48"/>
     <use xlink:href="#m4fbef4645c" x="338.253763" y="98.506579" style="fill: #ff0000; stroke: #ffffff; stroke-width: 0.48"/>
     <use xlink:href="#m4fbef4645c" x="330.847138" y="84.046724" style="fill: #ff0000; stroke: #ffffff; stroke-width: 0.48"/>
     <use xlink:href="#m4fbef4645c" x="323.531022" y="54.639822" style="fill: #ff0000; stroke: #ffffff; stroke-width: 0.48"/>
     <use xlink:href="#m4fbef4645c" x="315.988634" y="55.887033" style="fill: #ff0000; stroke: #ffffff; stroke-width: 0.48"/>
    </g>
   </g>
   <g id="PathCollection_2">
    <defs>
     <path id="me0227f96f7" d="M -3 3 
L 3 3 
L 3 -3 
L -3 -3 
z
" style="stroke: #ffffff; stroke-width: 0.48"/>
    </defs>
    <g clip-path="url(#p745c1d4d0d)">
     <use xlink:href="#me0227f96f7" x="73.832727" y="237.823969" style="fill: #2e8b57; stroke: #ffffff; stroke-width: 0.48"/>
     <use xlink:href="#me0227f96f7" x="88.902418" y="237.921407" style="fill: #2e8b57; stroke: #ffffff; stroke-width: 0.48"/>
     <use xlink:href="#me0227f96f7" x="104.032448" y="237.940895" style="fill: #2e8b57; stroke: #ffffff; stroke-width: 0.48"/>
     <use xlink:href="#me0227f96f7" x="119.252987" y="237.882432" style="fill: #2e8b57; stroke: #ffffff; stroke-width: 0.48"/>
     <use xlink:href="#me0227f96f7" x="134.322678" y="237.90192" style="fill: #2e8b57; stroke: #ffffff; stroke-width: 0.48"/>
     <use xlink:href="#me0227f96f7" x="149.618641" y="237.960383" style="fill: #2e8b57; stroke: #ffffff; stroke-width: 0.48"/>
     <use xlink:href="#me0227f96f7" x="164.688332" y="237.940895" style="fill: #2e8b57; stroke: #ffffff; stroke-width: 0.48"/>
     <use xlink:href="#me0227f96f7" x="172.26089" y="237.921407" style="fill: #2e8b57; stroke: #ffffff; stroke-width: 0.48"/>
     <use xlink:href="#me0227f96f7" x="179.758023" y="237.882432" style="fill: #2e8b57; stroke: #ffffff; stroke-width: 0.48"/>
     <use xlink:href="#me0227f96f7" x="187.481428" y="237.726531" style="fill: #2e8b57; stroke: #ffffff; stroke-width: 0.48"/>
     <use xlink:href="#me0227f96f7" x="194.903138" y="237.414728" style="fill: #2e8b57; stroke: #ffffff; stroke-width: 0.48"/>
     <use xlink:href="#me0227f96f7" x="202.626543" y="237.005487" style="fill: #2e8b57; stroke: #ffffff; stroke-width: 0.48"/>
     <use xlink:href="#me0227f96f7" x="210.108592" y="236.732659" style="fill: #2e8b57; stroke: #ffffff; stroke-width: 0.48"/>
     <use xlink:href="#me0227f96f7" x="217.68115" y="236.518295" style="fill: #2e8b57; stroke: #ffffff; stroke-width: 0.48"/>
     <use xlink:href="#me0227f96f7" x="225.253707" y="236.22598" style="fill: #2e8b57; stroke: #ffffff; stroke-width: 0.48"/>
     <use xlink:href="#me0227f96f7" x="232.901688" y="236.031103" style="fill: #2e8b57; stroke: #ffffff; stroke-width: 0.48"/>
     <use xlink:href="#me0227f96f7" x="240.383737" y="235.680325" style="fill: #2e8b57; stroke: #ffffff; stroke-width: 0.48"/>
     <use xlink:href="#me0227f96f7" x="247.880871" y="235.38801" style="fill: #2e8b57; stroke: #ffffff; stroke-width: 0.48"/>
     <use xlink:href="#me0227f96f7" x="255.528852" y="235.426985" style="fill: #2e8b57; stroke: #ffffff; stroke-width: 0.48"/>
     <use xlink:href="#me0227f96f7" x="263.025986" y="235.173645" style="fill: #2e8b57; stroke: #ffffff; stroke-width: 0.48"/>
     <use xlink:href="#me0227f96f7" x="270.658882" y="234.647478" style="fill: #2e8b57; stroke: #ffffff; stroke-width: 0.48"/>
     <use xlink:href="#me0227f96f7" x="285.713489" y="233.692582" style="fill: #2e8b57; stroke: #ffffff; stroke-width: 0.48"/>
     <use xlink:href="#me0227f96f7" x="300.888773" y="232.991026" style="fill: #2e8b57; stroke: #ffffff; stroke-width: 0.48"/>
     <use xlink:href="#me0227f96f7" x="315.91321" y="233.224878" style="fill: #2e8b57; stroke: #ffffff; stroke-width: 0.48"/>
     <use xlink:href="#me0227f96f7" x="331.058325" y="234.452601" style="fill: #2e8b57; stroke: #ffffff; stroke-width: 0.48"/>
     <use xlink:href="#me0227f96f7" x="346.128016" y="236.381881" style="fill: #2e8b57; stroke: #ffffff; stroke-width: 0.48"/>
     <use xlink:href="#me0227f96f7" x="353.715658" y="237.999358" style="fill: #2e8b57; stroke: #ffffff; stroke-width: 0.48"/>
     <use xlink:href="#me0227f96f7" x="361.137368" y="239.597348" style="fill: #2e8b57; stroke: #ffffff; stroke-width: 0.48"/>
     <use xlink:href="#me0227f96f7" x="368.393145" y="253.998739" style="fill: #2e8b57; stroke: #ffffff; stroke-width: 0.48"/>
     <use xlink:href="#me0227f96f7" x="375.860109" y="253.570011" style="fill: #2e8b57; stroke: #ffffff; stroke-width: 0.48"/>
     <use xlink:href="#me0227f96f7" x="383.327073" y="249.497087" style="fill: #2e8b57; stroke: #ffffff; stroke-width: 0.48"/>
     <use xlink:href="#me0227f96f7" x="391.020309" y="249.691963" style="fill: #2e8b57; stroke: #ffffff; stroke-width: 0.48"/>
     <use xlink:href="#me0227f96f7" x="398.487273" y="249.691963" style="fill: #2e8b57; stroke: #ffffff; stroke-width: 0.48"/>
     <use xlink:href="#me0227f96f7" x="391.020309" y="249.984278" style="fill: #2e8b57; stroke: #ffffff; stroke-width: 0.48"/>
     <use xlink:href="#me0227f96f7" x="383.477921" y="249.360673" style="fill: #2e8b57; stroke: #ffffff; stroke-width: 0.48"/>
     <use xlink:href="#me0227f96f7" x="375.784685" y="249.263234" style="fill: #2e8b57; stroke: #ffffff; stroke-width: 0.48"/>
     <use xlink:href="#me0227f96f7" x="368.317721" y="251.484829" style="fill: #2e8b57; stroke: #ffffff; stroke-width: 0.48"/>
     <use xlink:href="#me0227f96f7" x="353.24803" y="255.772118" style="fill: #2e8b57; stroke: #ffffff; stroke-width: 0.48"/>
     <use xlink:href="#me0227f96f7" x="345.630218" y="255.42134" style="fill: #2e8b57; stroke: #ffffff; stroke-width: 0.48"/>
     <use xlink:href="#me0227f96f7" x="338.253763" y="252.537164" style="fill: #2e8b57; stroke: #ffffff; stroke-width: 0.48"/>
     <use xlink:href="#me0227f96f7" x="330.847138" y="249.341185" style="fill: #2e8b57; stroke: #ffffff; stroke-width: 0.48"/>
     <use xlink:href="#me0227f96f7" x="323.531022" y="233.653607" style="fill: #2e8b57; stroke: #ffffff; stroke-width: 0.48"/>
     <use xlink:href="#me0227f96f7" x="315.988634" y="233.127439" style="fill: #2e8b57; stroke: #ffffff; stroke-width: 0.48"/>
    </g>
   </g>
   <g id="line2d_12">
    <path d="M 73.832727 295.488 
L 88.902418 276.29264 
L 104.032448 257.272669 
L 119.252987 238.48655 
L 134.322678 219.54453 
L 149.618641 200.134805 
L 164.688332 180.958933 
L 172.26089 171.293046 
L 179.758023 162.055888 
L 187.481428 153.15002 
L 194.903138 145.569315 
L 202.626543 138.612215 
L 210.108592 131.128947 
L 217.68115 123.626192 
L 225.253707 115.460856 
L 232.901688 108.406318 
L 240.383737 101.215366 
L 247.880871 93.225419 
L 255.528852 84.631354 
L 263.025986 77.537841 
L 270.658882 72.256681 
L 285.713489 63.29235 
L 300.888773 58.51787 
L 315.91321 55.633694 
L 331.058325 53.568 
L 346.128016 54.094167 
L 353.715658 57.523998 
L 361.137368 64.169295 
L 368.393145 123.665168 
L 375.860109 127.017048 
L 383.327073 142.821552 
L 391.020309 141.028686 
L 398.487273 141.028686 
L 391.020309 140.677908 
L 383.477921 143.328232 
L 375.784685 144.166202 
L 368.317721 134.987507 
L 353.24803 112.401291 
L 345.630218 112.635144 
L 338.253763 98.506579 
L 330.847138 84.046724 
L 323.531022 54.639822 
L 315.988634 55.887033 
" clip-path="url(#p745c1d4d0d)" style="fill: none; stroke: #ff0000; stroke-linecap: round"/>
   </g>
   <g id="line2d_13">
    <path d="M 73.832727 237.823969 
L 88.902418 237.921407 
L 104.032448 237.940895 
L 119.252987 237.882432 
L 134.322678 237.90192 
L 149.618641 237.960383 
L 164.688332 237.940895 
L 172.26089 237.921407 
L 179.758023 237.882432 
L 187.481428 237.726531 
L 194.903138 237.414728 
L 202.626543 237.005487 
L 210.108592 236.732659 
L 217.68115 236.518295 
L 225.253707 236.22598 
L 232.901688 236.031103 
L 240.383737 235.680325 
L 247.880871 235.38801 
L 255.528852 235.426985 
L 263.025986 235.173645 
L 270.658882 234.647478 
L 285.713489 233.692582 
L 300.888773 232.991026 
L 315.91321 233.224878 
L 331.058325 234.452601 
L 346.128016 236.381881 
L 353.715658 237.999358 
L 361.137368 239.597348 
L 368.393145 253.998739 
L 375.860109 253.570011 
L 383.327073 249.497087 
L 391.020309 249.691963 
L 398.487273 249.691963 
L 391.020309 249.984278 
L 383.477921 249.360673 
L 375.784685 249.263234 
L 368.317721 251.484829 
L 353.24803 255.772118 
L 345.630218 255.42134 
L 338.253763 252.537164 
L 330.847138 249.341185 
L 323.531022 233.653607 
L 315.988634 233.127439 
" clip-path="url(#p745c1d4d0d)" style="fill: none; stroke: #008000; stroke-linecap: round"/>
   </g>
   <g id="patch_3">
    <path d="M 57.6 307.584 
L 57.6 41.472 
" style="fill: none; stroke: #ffffff; stroke-width: 1.25; stroke-linejoin: miter; stroke-linecap: square"/>
   </g>
   <g id="patch_4">
    <path d="M 414.72 307.584 
L 414.72 41.472 
" style="fill: none; stroke: #ffffff; stroke-width: 1.25; stroke-linejoin: miter; stroke-linecap: square"/>
   </g>
   <g id="patch_5">
    <path d="M 57.6 307.584 
L 414.72 307.584 
" style="fill: none; stroke: #ffffff; stroke-width: 1.25; stroke-linejoin: miter; stroke-linecap: square"/>
   </g>
   <g id="patch_6">
    <path d="M 57.6 41.472 
L 414.72 41.472 
" style="fill: none; stroke: #ffffff; stroke-width: 1.25; stroke-linejoin: miter; stroke-linecap: square"/>
   </g>
   <g id="legend_1">
    <g id="patch_7">
     <path d="M 65.3 81.391687 
L 117.606719 81.391687 
Q 119.806719 81.391687 119.806719 79.191688 
L 119.806719 49.172 
Q 119.806719 46.972 117.606719 46.972 
L 65.3 46.972 
Q 63.1 46.972 63.1 49.172 
L 63.1 79.191688 
Q 63.1 81.391687 65.3 81.391687 
z
" style="fill: #eaeaf2; opacity: 0.8; stroke: #cccccc; stroke-linejoin: miter"/>
    </g>
    <g id="line2d_14">
     <path d="M 67.5 55.395594 
L 78.5 55.395594 
L 89.5 55.395594 
" style="fill: none; stroke: #ff0000; stroke-linecap: round"/>
    </g>
    <g id="text_14">
     <!-- Cl -->
     <g style="fill: #262626" transform="translate(98.3 59.245594) scale(0.11 -0.11)">
      <use xlink:href="#ArialMT-43"/>
      <use xlink:href="#ArialMT-6c" x="72.216797"/>
     </g>
    </g>
    <g id="line2d_15">
     <path d="M 67.5 70.955438 
L 78.5 70.955438 
L 89.5 70.955438 
" style="fill: none; stroke: #008000; stroke-linecap: round"/>
    </g>
    <g id="text_15">
     <!-- Cm -->
     <g style="fill: #262626" transform="translate(98.3 74.805438) scale(0.11 -0.11)">
      <use xlink:href="#ArialMT-43"/>
      <use xlink:href="#ArialMT-6d" x="72.216797"/>
     </g>
    </g>
   </g>
  </g>
 </g>
 <defs>
  <clipPath id="p745c1d4d0d">
   <rect x="57.6" y="41.472" width="357.12" height="266.112"/>
  </clipPath>
 </defs>
</svg>
