<?xml version="1.0" encoding="utf-8" standalone="no"?>
<!DOCTYPE svg PUBLIC "-//W3C//DTD SVG 1.1//EN"
  "http://www.w3.org/Graphics/SVG/1.1/DTD/svg11.dtd">
<svg xmlns:xlink="http://www.w3.org/1999/xlink" width="460.8pt" height="345.6pt" viewBox="0 0 460.8 345.6" xmlns="http://www.w3.org/2000/svg" version="1.1">
 <metadata>
  <rdf:RDF xmlns:dc="http://purl.org/dc/elements/1.1/" xmlns:cc="http://creativecommons.org/ns#" xmlns:rdf="http://www.w3.org/1999/02/22-rdf-syntax-ns#">
   <cc:Work>
    <dc:type rdf:resource="http://purl.org/dc/dcmitype/StillImage"/>
    <dc:date>2022-12-20T22:15:59.505907</dc:date>
    <dc:format>image/svg+xml</dc:format>
    <dc:creator>
     <cc:Agent>
      <dc:title>Matplotlib v3.6.2, https://matplotlib.org/</dc:title>
     </cc:Agent>
    </dc:creator>
   </cc:Work>
  </rdf:RDF>
 </metadata>
 <defs>
  <style type="text/css">*{stroke-linejoin: round; stroke-linecap: butt}</style>
 </defs>
 <g id="figure_1">
  <g id="patch_1">
   <path d="M 0 345.6 
L 460.8 345.6 
L 460.8 0 
L 0 0 
z
" style="fill: #ffffff"/>
  </g>
  <g id="axes_1">
   <g id="patch_2">
    <path d="M 57.6 307.584 
L 414.72 307.584 
L 414.72 41.472 
L 57.6 41.472 
z
" style="fill: #eaeaf2"/>
   </g>
   <g id="matplotlib.axis_1">
    <g id="xtick_1">
     <g id="line2d_1">
      <path d="M 98.232815 307.584 
L 98.232815 41.472 
" clip-path="url(#pb7393bd254)" style="fill: none; stroke: #ffffff; stroke-linecap: round"/>
     </g>
     <g id="text_1">
      <!-- −0.2 -->
      <g style="fill: #262626" transform="translate(87.375471 324.957594) scale(0.11 -0.11)">
       <defs>
        <path id="ArialMT-2212" d="M 3381 1997 
L 356 1997 
L 356 2522 
L 3381 2522 
L 3381 1997 
z
" transform="scale(0.015625)"/>
        <path id="ArialMT-30" d="M 266 2259 
Q 266 3072 433 3567 
Q 600 4063 929 4331 
Q 1259 4600 1759 4600 
Q 2128 4600 2406 4451 
Q 2684 4303 2865 4023 
Q 3047 3744 3150 3342 
Q 3253 2941 3253 2259 
Q 3253 1453 3087 958 
Q 2922 463 2592 192 
Q 2263 -78 1759 -78 
Q 1097 -78 719 397 
Q 266 969 266 2259 
z
M 844 2259 
Q 844 1131 1108 757 
Q 1372 384 1759 384 
Q 2147 384 2411 759 
Q 2675 1134 2675 2259 
Q 2675 3391 2411 3762 
Q 2147 4134 1753 4134 
Q 1366 4134 1134 3806 
Q 844 3388 844 2259 
z
" transform="scale(0.015625)"/>
        <path id="ArialMT-2e" d="M 581 0 
L 581 641 
L 1222 641 
L 1222 0 
L 581 0 
z
" transform="scale(0.015625)"/>
        <path id="ArialMT-32" d="M 3222 541 
L 3222 0 
L 194 0 
Q 188 203 259 391 
Q 375 700 629 1000 
Q 884 1300 1366 1694 
Q 2113 2306 2375 2664 
Q 2638 3022 2638 3341 
Q 2638 3675 2398 3904 
Q 2159 4134 1775 4134 
Q 1369 4134 1125 3890 
Q 881 3647 878 3216 
L 300 3275 
Q 359 3922 746 4261 
Q 1134 4600 1788 4600 
Q 2447 4600 2831 4234 
Q 3216 3869 3216 3328 
Q 3216 3053 3103 2787 
Q 2991 2522 2730 2228 
Q 2469 1934 1863 1422 
Q 1356 997 1212 845 
Q 1069 694 975 541 
L 3222 541 
z
" transform="scale(0.015625)"/>
       </defs>
       <use xlink:href="#ArialMT-2212"/>
       <use xlink:href="#ArialMT-30" x="58.398438"/>
       <use xlink:href="#ArialMT-2e" x="114.013672"/>
       <use xlink:href="#ArialMT-32" x="141.796875"/>
      </g>
     </g>
    </g>
    <g id="xtick_2">
     <g id="line2d_2">
      <path d="M 150.537398 307.584 
L 150.537398 41.472 
" clip-path="url(#pb7393bd254)" style="fill: none; stroke: #ffffff; stroke-linecap: round"/>
     </g>
     <g id="text_2">
      <!-- 0.0 -->
      <g style="fill: #262626" transform="translate(142.892398 324.957594) scale(0.11 -0.11)">
       <use xlink:href="#ArialMT-30"/>
       <use xlink:href="#ArialMT-2e" x="55.615234"/>
       <use xlink:href="#ArialMT-30" x="83.398438"/>
      </g>
     </g>
    </g>
    <g id="xtick_3">
     <g id="line2d_3">
      <path d="M 202.841981 307.584 
L 202.841981 41.472 
" clip-path="url(#pb7393bd254)" style="fill: none; stroke: #ffffff; stroke-linecap: round"/>
     </g>
     <g id="text_3">
      <!-- 0.2 -->
      <g style="fill: #262626" transform="translate(195.196981 324.957594) scale(0.11 -0.11)">
       <use xlink:href="#ArialMT-30"/>
       <use xlink:href="#ArialMT-2e" x="55.615234"/>
       <use xlink:href="#ArialMT-32" x="83.398438"/>
      </g>
     </g>
    </g>
    <g id="xtick_4">
     <g id="line2d_4">
      <path d="M 255.146564 307.584 
L 255.146564 41.472 
" clip-path="url(#pb7393bd254)" style="fill: none; stroke: #ffffff; stroke-linecap: round"/>
     </g>
     <g id="text_4">
      <!-- 0.4 -->
      <g style="fill: #262626" transform="translate(247.501564 324.957594) scale(0.11 -0.11)">
       <defs>
        <path id="ArialMT-34" d="M 2069 0 
L 2069 1097 
L 81 1097 
L 81 1613 
L 2172 4581 
L 2631 4581 
L 2631 1613 
L 3250 1613 
L 3250 1097 
L 2631 1097 
L 2631 0 
L 2069 0 
z
M 2069 1613 
L 2069 3678 
L 634 1613 
L 2069 1613 
z
" transform="scale(0.015625)"/>
       </defs>
       <use xlink:href="#ArialMT-30"/>
       <use xlink:href="#ArialMT-2e" x="55.615234"/>
       <use xlink:href="#ArialMT-34" x="83.398438"/>
      </g>
     </g>
    </g>
    <g id="xtick_5">
     <g id="line2d_5">
      <path d="M 307.451146 307.584 
L 307.451146 41.472 
" clip-path="url(#pb7393bd254)" style="fill: none; stroke: #ffffff; stroke-linecap: round"/>
     </g>
     <g id="text_5">
      <!-- 0.6 -->
      <g style="fill: #262626" transform="translate(299.806146 324.957594) scale(0.11 -0.11)">
       <defs>
        <path id="ArialMT-36" d="M 3184 3459 
L 2625 3416 
Q 2550 3747 2413 3897 
Q 2184 4138 1850 4138 
Q 1581 4138 1378 3988 
Q 1113 3794 959 3422 
Q 806 3050 800 2363 
Q 1003 2672 1297 2822 
Q 1591 2972 1913 2972 
Q 2475 2972 2870 2558 
Q 3266 2144 3266 1488 
Q 3266 1056 3080 686 
Q 2894 316 2569 119 
Q 2244 -78 1831 -78 
Q 1128 -78 684 439 
Q 241 956 241 2144 
Q 241 3472 731 4075 
Q 1159 4600 1884 4600 
Q 2425 4600 2770 4297 
Q 3116 3994 3184 3459 
z
M 888 1484 
Q 888 1194 1011 928 
Q 1134 663 1356 523 
Q 1578 384 1822 384 
Q 2178 384 2434 671 
Q 2691 959 2691 1453 
Q 2691 1928 2437 2201 
Q 2184 2475 1800 2475 
Q 1419 2475 1153 2201 
Q 888 1928 888 1484 
z
" transform="scale(0.015625)"/>
       </defs>
       <use xlink:href="#ArialMT-30"/>
       <use xlink:href="#ArialMT-2e" x="55.615234"/>
       <use xlink:href="#ArialMT-36" x="83.398438"/>
      </g>
     </g>
    </g>
    <g id="xtick_6">
     <g id="line2d_6">
      <path d="M 359.755729 307.584 
L 359.755729 41.472 
" clip-path="url(#pb7393bd254)" style="fill: none; stroke: #ffffff; stroke-linecap: round"/>
     </g>
     <g id="text_6">
      <!-- 0.8 -->
      <g style="fill: #262626" transform="translate(352.110729 324.957594) scale(0.11 -0.11)">
       <defs>
        <path id="ArialMT-38" d="M 1131 2484 
Q 781 2613 612 2850 
Q 444 3088 444 3419 
Q 444 3919 803 4259 
Q 1163 4600 1759 4600 
Q 2359 4600 2725 4251 
Q 3091 3903 3091 3403 
Q 3091 3084 2923 2848 
Q 2756 2613 2416 2484 
Q 2838 2347 3058 2040 
Q 3278 1734 3278 1309 
Q 3278 722 2862 322 
Q 2447 -78 1769 -78 
Q 1091 -78 675 323 
Q 259 725 259 1325 
Q 259 1772 486 2073 
Q 713 2375 1131 2484 
z
M 1019 3438 
Q 1019 3113 1228 2906 
Q 1438 2700 1772 2700 
Q 2097 2700 2305 2904 
Q 2513 3109 2513 3406 
Q 2513 3716 2298 3927 
Q 2084 4138 1766 4138 
Q 1444 4138 1231 3931 
Q 1019 3725 1019 3438 
z
M 838 1322 
Q 838 1081 952 856 
Q 1066 631 1291 507 
Q 1516 384 1775 384 
Q 2178 384 2440 643 
Q 2703 903 2703 1303 
Q 2703 1709 2433 1975 
Q 2163 2241 1756 2241 
Q 1359 2241 1098 1978 
Q 838 1716 838 1322 
z
" transform="scale(0.015625)"/>
       </defs>
       <use xlink:href="#ArialMT-30"/>
       <use xlink:href="#ArialMT-2e" x="55.615234"/>
       <use xlink:href="#ArialMT-38" x="83.398438"/>
      </g>
     </g>
    </g>
    <g id="xtick_7">
     <g id="line2d_7">
      <path d="M 412.060312 307.584 
L 412.060312 41.472 
" clip-path="url(#pb7393bd254)" style="fill: none; stroke: #ffffff; stroke-linecap: round"/>
     </g>
     <g id="text_7">
      <!-- 1.0 -->
      <g style="fill: #262626" transform="translate(404.415312 324.957594) scale(0.11 -0.11)">
       <defs>
        <path id="ArialMT-31" d="M 2384 0 
L 1822 0 
L 1822 3584 
Q 1619 3391 1289 3197 
Q 959 3003 697 2906 
L 697 3450 
Q 1169 3672 1522 3987 
Q 1875 4303 2022 4600 
L 2384 4600 
L 2384 0 
z
" transform="scale(0.015625)"/>
       </defs>
       <use xlink:href="#ArialMT-31"/>
       <use xlink:href="#ArialMT-2e" x="55.615234"/>
       <use xlink:href="#ArialMT-30" x="83.398438"/>
      </g>
     </g>
    </g>
    <g id="text_8">
     <!-- $C_l$ [-] -->
     <g style="fill: #262626" transform="translate(223.62 340.143844) scale(0.12 -0.12)">
      <defs>
       <path id="DejaVuSans-Oblique-43" d="M 4447 4306 
L 4319 3641 
Q 4019 3944 3683 4091 
Q 3347 4238 2956 4238 
Q 2422 4238 2017 3981 
Q 1613 3725 1319 3200 
Q 1131 2863 1032 2486 
Q 934 2109 934 1728 
Q 934 1091 1264 756 
Q 1594 422 2222 422 
Q 2656 422 3056 561 
Q 3456 700 3834 978 
L 3688 231 
Q 3316 72 2936 -9 
Q 2556 -91 2175 -91 
Q 1278 -91 773 396 
Q 269 884 269 1753 
Q 269 2309 461 2846 
Q 653 3384 1013 3828 
Q 1394 4300 1883 4525 
Q 2372 4750 3022 4750 
Q 3422 4750 3780 4639 
Q 4138 4528 4447 4306 
z
" transform="scale(0.015625)"/>
       <path id="DejaVuSans-Oblique-6c" d="M 1172 4863 
L 1747 4863 
L 800 0 
L 225 0 
L 1172 4863 
z
" transform="scale(0.015625)"/>
       <path id="ArialMT-20" transform="scale(0.015625)"/>
       <path id="ArialMT-5b" d="M 434 -1272 
L 434 4581 
L 1675 4581 
L 1675 4116 
L 997 4116 
L 997 -806 
L 1675 -806 
L 1675 -1272 
L 434 -1272 
z
" transform="scale(0.015625)"/>
       <path id="ArialMT-2d" d="M 203 1375 
L 203 1941 
L 1931 1941 
L 1931 1375 
L 203 1375 
z
" transform="scale(0.015625)"/>
       <path id="ArialMT-5d" d="M 1363 -1272 
L 122 -1272 
L 122 -806 
L 800 -806 
L 800 4116 
L 122 4116 
L 122 4581 
L 1363 4581 
L 1363 -1272 
z
" transform="scale(0.015625)"/>
      </defs>
      <use xlink:href="#DejaVuSans-Oblique-43" transform="translate(0 0.78125)"/>
      <use xlink:href="#DejaVuSans-Oblique-6c" transform="translate(69.824219 -15.625) scale(0.7)"/>
      <use xlink:href="#ArialMT-20" transform="translate(92.006836 0.78125)"/>
      <use xlink:href="#ArialMT-5b" transform="translate(119.790039 0.78125)"/>
      <use xlink:href="#ArialMT-2d" transform="translate(147.573242 0.78125)"/>
      <use xlink:href="#ArialMT-5d" transform="translate(180.874023 0.78125)"/>
     </g>
    </g>
   </g>
   <g id="matplotlib.axis_2">
    <g id="ytick_1">
     <g id="line2d_8">
      <path d="M 57.6 301.603918 
L 414.72 301.603918 
" clip-path="url(#pb7393bd254)" style="fill: none; stroke: #ffffff; stroke-linecap: round"/>
     </g>
     <g id="text_9">
      <!-- 0.00 -->
      <g style="fill: #262626" transform="translate(26.692969 305.540715) scale(0.11 -0.11)">
       <use xlink:href="#ArialMT-30"/>
       <use xlink:href="#ArialMT-2e" x="55.615234"/>
       <use xlink:href="#ArialMT-30" x="83.398438"/>
       <use xlink:href="#ArialMT-30" x="139.013672"/>
      </g>
     </g>
    </g>
    <g id="ytick_2">
     <g id="line2d_9">
      <path d="M 57.6 262.649027 
L 414.72 262.649027 
" clip-path="url(#pb7393bd254)" style="fill: none; stroke: #ffffff; stroke-linecap: round"/>
     </g>
     <g id="text_10">
      <!-- 0.05 -->
      <g style="fill: #262626" transform="translate(26.692969 266.585824) scale(0.11 -0.11)">
       <defs>
        <path id="ArialMT-35" d="M 266 1200 
L 856 1250 
Q 922 819 1161 601 
Q 1400 384 1738 384 
Q 2144 384 2425 690 
Q 2706 997 2706 1503 
Q 2706 1984 2436 2262 
Q 2166 2541 1728 2541 
Q 1456 2541 1237 2417 
Q 1019 2294 894 2097 
L 366 2166 
L 809 4519 
L 3088 4519 
L 3088 3981 
L 1259 3981 
L 1013 2750 
Q 1425 3038 1878 3038 
Q 2478 3038 2890 2622 
Q 3303 2206 3303 1553 
Q 3303 931 2941 478 
Q 2500 -78 1738 -78 
Q 1113 -78 717 272 
Q 322 622 266 1200 
z
" transform="scale(0.015625)"/>
       </defs>
       <use xlink:href="#ArialMT-30"/>
       <use xlink:href="#ArialMT-2e" x="55.615234"/>
       <use xlink:href="#ArialMT-30" x="83.398438"/>
       <use xlink:href="#ArialMT-35" x="139.013672"/>
      </g>
     </g>
    </g>
    <g id="ytick_3">
     <g id="line2d_10">
      <path d="M 57.6 223.694136 
L 414.72 223.694136 
" clip-path="url(#pb7393bd254)" style="fill: none; stroke: #ffffff; stroke-linecap: round"/>
     </g>
     <g id="text_11">
      <!-- 0.10 -->
      <g style="fill: #262626" transform="translate(26.692969 227.630933) scale(0.11 -0.11)">
       <use xlink:href="#ArialMT-30"/>
       <use xlink:href="#ArialMT-2e" x="55.615234"/>
       <use xlink:href="#ArialMT-31" x="83.398438"/>
       <use xlink:href="#ArialMT-30" x="139.013672"/>
      </g>
     </g>
    </g>
    <g id="ytick_4">
     <g id="line2d_11">
      <path d="M 57.6 184.739246 
L 414.72 184.739246 
" clip-path="url(#pb7393bd254)" style="fill: none; stroke: #ffffff; stroke-linecap: round"/>
     </g>
     <g id="text_12">
      <!-- 0.15 -->
      <g style="fill: #262626" transform="translate(26.692969 188.676042) scale(0.11 -0.11)">
       <use xlink:href="#ArialMT-30"/>
       <use xlink:href="#ArialMT-2e" x="55.615234"/>
       <use xlink:href="#ArialMT-31" x="83.398438"/>
       <use xlink:href="#ArialMT-35" x="139.013672"/>
      </g>
     </g>
    </g>
    <g id="ytick_5">
     <g id="line2d_12">
      <path d="M 57.6 145.784355 
L 414.72 145.784355 
" clip-path="url(#pb7393bd254)" style="fill: none; stroke: #ffffff; stroke-linecap: round"/>
     </g>
     <g id="text_13">
      <!-- 0.20 -->
      <g style="fill: #262626" transform="translate(26.692969 149.721152) scale(0.11 -0.11)">
       <use xlink:href="#ArialMT-30"/>
       <use xlink:href="#ArialMT-2e" x="55.615234"/>
       <use xlink:href="#ArialMT-32" x="83.398438"/>
       <use xlink:href="#ArialMT-30" x="139.013672"/>
      </g>
     </g>
    </g>
    <g id="ytick_6">
     <g id="line2d_13">
      <path d="M 57.6 106.829464 
L 414.72 106.829464 
" clip-path="url(#pb7393bd254)" style="fill: none; stroke: #ffffff; stroke-linecap: round"/>
     </g>
     <g id="text_14">
      <!-- 0.25 -->
      <g style="fill: #262626" transform="translate(26.692969 110.766261) scale(0.11 -0.11)">
       <use xlink:href="#ArialMT-30"/>
       <use xlink:href="#ArialMT-2e" x="55.615234"/>
       <use xlink:href="#ArialMT-32" x="83.398438"/>
       <use xlink:href="#ArialMT-35" x="139.013672"/>
      </g>
     </g>
    </g>
    <g id="ytick_7">
     <g id="line2d_14">
      <path d="M 57.6 67.874573 
L 414.72 67.874573 
" clip-path="url(#pb7393bd254)" style="fill: none; stroke: #ffffff; stroke-linecap: round"/>
     </g>
     <g id="text_15">
      <!-- 0.30 -->
      <g style="fill: #262626" transform="translate(26.692969 71.81137) scale(0.11 -0.11)">
       <defs>
        <path id="ArialMT-33" d="M 269 1209 
L 831 1284 
Q 928 806 1161 595 
Q 1394 384 1728 384 
Q 2125 384 2398 659 
Q 2672 934 2672 1341 
Q 2672 1728 2419 1979 
Q 2166 2231 1775 2231 
Q 1616 2231 1378 2169 
L 1441 2663 
Q 1497 2656 1531 2656 
Q 1891 2656 2178 2843 
Q 2466 3031 2466 3422 
Q 2466 3731 2256 3934 
Q 2047 4138 1716 4138 
Q 1388 4138 1169 3931 
Q 950 3725 888 3313 
L 325 3413 
Q 428 3978 793 4289 
Q 1159 4600 1703 4600 
Q 2078 4600 2393 4439 
Q 2709 4278 2876 4000 
Q 3044 3722 3044 3409 
Q 3044 3113 2884 2869 
Q 2725 2625 2413 2481 
Q 2819 2388 3044 2092 
Q 3269 1797 3269 1353 
Q 3269 753 2831 336 
Q 2394 -81 1725 -81 
Q 1122 -81 723 278 
Q 325 638 269 1209 
z
" transform="scale(0.015625)"/>
       </defs>
       <use xlink:href="#ArialMT-30"/>
       <use xlink:href="#ArialMT-2e" x="55.615234"/>
       <use xlink:href="#ArialMT-33" x="83.398438"/>
       <use xlink:href="#ArialMT-30" x="139.013672"/>
      </g>
     </g>
    </g>
    <g id="text_16">
     <!-- $C_d$ [-] -->
     <g style="fill: #262626" transform="translate(20.292969 188.568) rotate(-90) scale(0.12 -0.12)">
      <defs>
       <path id="DejaVuSans-Oblique-64" d="M 2675 525 
Q 2444 222 2128 65 
Q 1813 -91 1428 -91 
Q 903 -91 598 267 
Q 294 625 294 1247 
Q 294 1766 478 2236 
Q 663 2706 1013 3078 
Q 1244 3325 1534 3454 
Q 1825 3584 2144 3584 
Q 2481 3584 2739 3421 
Q 2997 3259 3138 2956 
L 3513 4863 
L 4091 4863 
L 3144 0 
L 2566 0 
L 2675 525 
z
M 891 1350 
Q 891 897 1095 644 
Q 1300 391 1663 391 
Q 1931 391 2161 520 
Q 2391 650 2566 903 
Q 2750 1166 2856 1509 
Q 2963 1853 2963 2188 
Q 2963 2622 2758 2865 
Q 2553 3109 2194 3109 
Q 1922 3109 1687 2981 
Q 1453 2853 1288 2613 
Q 1106 2353 998 2009 
Q 891 1666 891 1350 
z
" transform="scale(0.015625)"/>
      </defs>
      <use xlink:href="#DejaVuSans-Oblique-43" transform="translate(0 0.78125)"/>
      <use xlink:href="#DejaVuSans-Oblique-64" transform="translate(69.824219 -15.625) scale(0.7)"/>
      <use xlink:href="#ArialMT-20" transform="translate(116.992188 0.78125)"/>
      <use xlink:href="#ArialMT-5b" transform="translate(144.775391 0.78125)"/>
      <use xlink:href="#ArialMT-2d" transform="translate(172.558594 0.78125)"/>
      <use xlink:href="#ArialMT-5d" transform="translate(205.859375 0.78125)"/>
     </g>
    </g>
   </g>
   <g id="PathCollection_1">
    <defs>
     <path id="m040a3730d7" d="M -1.5 3 
L 0 1.5 
L 1.5 3 
L 3 1.5 
L 1.5 0 
L 3 -1.5 
L 1.5 -3 
L 0 -1.5 
L -1.5 -3 
L -3 -1.5 
L -1.5 0 
L -3 1.5 
z
" style="stroke: #ffffff; stroke-width: 0.48"/>
    </defs>
    <g clip-path="url(#pb7393bd254)">
     <use xlink:href="#m040a3730d7" x="73.832727" y="295.389834" style="fill: #2e8b57; stroke: #ffffff; stroke-width: 0.48"/>
     <use xlink:href="#m040a3730d7" x="99.592734" y="295.373473" style="fill: #2e8b57; stroke: #ffffff; stroke-width: 0.48"/>
     <use xlink:href="#m040a3730d7" x="125.117371" y="295.393729" style="fill: #2e8b57; stroke: #ffffff; stroke-width: 0.48"/>
     <use xlink:href="#m040a3730d7" x="150.32818" y="295.405416" style="fill: #2e8b57; stroke: #ffffff; stroke-width: 0.48"/>
     <use xlink:href="#m040a3730d7" x="175.748207" y="295.488" style="fill: #2e8b57; stroke: #ffffff; stroke-width: 0.48"/>
     <use xlink:href="#m040a3730d7" x="201.795889" y="295.279202" style="fill: #2e8b57; stroke: #ffffff; stroke-width: 0.48"/>
     <use xlink:href="#m040a3730d7" x="227.529744" y="295.301017" style="fill: #2e8b57; stroke: #ffffff; stroke-width: 0.48"/>
     <use xlink:href="#m040a3730d7" x="240.50128" y="295.238689" style="fill: #2e8b57; stroke: #ffffff; stroke-width: 0.48"/>
     <use xlink:href="#m040a3730d7" x="252.897466" y="295.195838" style="fill: #2e8b57; stroke: #ffffff; stroke-width: 0.48"/>
     <use xlink:href="#m040a3730d7" x="264.849064" y="294.945748" style="fill: #2e8b57; stroke: #ffffff; stroke-width: 0.48"/>
     <use xlink:href="#m040a3730d7" x="275.022305" y="294.260142" style="fill: #2e8b57; stroke: #ffffff; stroke-width: 0.48"/>
     <use xlink:href="#m040a3730d7" x="284.358673" y="293.049424" style="fill: #2e8b57; stroke: #ffffff; stroke-width: 0.48"/>
     <use xlink:href="#m040a3730d7" x="294.401153" y="292.227476" style="fill: #2e8b57; stroke: #ffffff; stroke-width: 0.48"/>
     <use xlink:href="#m040a3730d7" x="304.469785" y="291.537974" style="fill: #2e8b57; stroke: #ffffff; stroke-width: 0.48"/>
     <use xlink:href="#m040a3730d7" x="315.427595" y="290.895997" style="fill: #2e8b57; stroke: #ffffff; stroke-width: 0.48"/>
     <use xlink:href="#m040a3730d7" x="324.894725" y="290.354524" style="fill: #2e8b57; stroke: #ffffff; stroke-width: 0.48"/>
     <use xlink:href="#m040a3730d7" x="334.54492" y="289.685279" style="fill: #2e8b57; stroke: #ffffff; stroke-width: 0.48"/>
     <use xlink:href="#m040a3730d7" x="345.26736" y="288.758153" style="fill: #2e8b57; stroke: #ffffff; stroke-width: 0.48"/>
     <use xlink:href="#m040a3730d7" x="356.80052" y="287.779606" style="fill: #2e8b57; stroke: #ffffff; stroke-width: 0.48"/>
     <use xlink:href="#m040a3730d7" x="366.319954" y="286.651473" style="fill: #2e8b57; stroke: #ffffff; stroke-width: 0.48"/>
     <use xlink:href="#m040a3730d7" x="373.407225" y="286.125582" style="fill: #2e8b57; stroke: #ffffff; stroke-width: 0.48"/>
     <use xlink:href="#m040a3730d7" x="385.437279" y="283.096449" style="fill: #2e8b57; stroke: #ffffff; stroke-width: 0.48"/>
     <use xlink:href="#m040a3730d7" x="391.844591" y="276.565272" style="fill: #2e8b57; stroke: #ffffff; stroke-width: 0.48"/>
     <use xlink:href="#m040a3730d7" x="395.71513" y="266.408174" style="fill: #2e8b57; stroke: #ffffff; stroke-width: 0.48"/>
     <use xlink:href="#m040a3730d7" x="398.487273" y="250.305001" style="fill: #2e8b57; stroke: #ffffff; stroke-width: 0.48"/>
     <use xlink:href="#m040a3730d7" x="397.781161" y="241.97255" style="fill: #2e8b57; stroke: #ffffff; stroke-width: 0.48"/>
     <use xlink:href="#m040a3730d7" x="393.178358" y="240.112844" style="fill: #2e8b57; stroke: #ffffff; stroke-width: 0.48"/>
     <use xlink:href="#m040a3730d7" x="384.260426" y="238.916929" style="fill: #2e8b57; stroke: #ffffff; stroke-width: 0.48"/>
     <use xlink:href="#m040a3730d7" x="304.417481" y="62.096005" style="fill: #2e8b57; stroke: #ffffff; stroke-width: 0.48"/>
     <use xlink:href="#m040a3730d7" x="299.919286" y="53.568" style="fill: #2e8b57; stroke: #ffffff; stroke-width: 0.48"/>
     <use xlink:href="#m040a3730d7" x="278.709778" y="81.667721" style="fill: #2e8b57; stroke: #ffffff; stroke-width: 0.48"/>
     <use xlink:href="#m040a3730d7" x="281.115789" y="79.87268" style="fill: #2e8b57; stroke: #ffffff; stroke-width: 0.48"/>
     <use xlink:href="#m040a3730d7" x="281.115789" y="70.044361" style="fill: #2e8b57; stroke: #ffffff; stroke-width: 0.48"/>
     <use xlink:href="#m040a3730d7" x="281.58653" y="70.501691" style="fill: #2e8b57; stroke: #ffffff; stroke-width: 0.48"/>
     <use xlink:href="#m040a3730d7" x="278.029819" y="83.617803" style="fill: #2e8b57; stroke: #ffffff; stroke-width: 0.48"/>
     <use xlink:href="#m040a3730d7" x="276.90527" y="89.804618" style="fill: #2e8b57; stroke: #ffffff; stroke-width: 0.48"/>
     <use xlink:href="#m040a3730d7" x="289.222999" y="72.856904" style="fill: #2e8b57; stroke: #ffffff; stroke-width: 0.48"/>
     <use xlink:href="#m040a3730d7" x="319.533505" y="59.366046" style="fill: #2e8b57; stroke: #ffffff; stroke-width: 0.48"/>
     <use xlink:href="#m040a3730d7" x="319.219677" y="67.789652" style="fill: #2e8b57; stroke: #ffffff; stroke-width: 0.48"/>
     <use xlink:href="#m040a3730d7" x="338.180089" y="132.499958" style="fill: #2e8b57; stroke: #ffffff; stroke-width: 0.48"/>
     <use xlink:href="#m040a3730d7" x="357.585089" y="229.774995" style="fill: #2e8b57; stroke: #ffffff; stroke-width: 0.48"/>
     <use xlink:href="#m040a3730d7" x="397.048897" y="260.035154" style="fill: #2e8b57; stroke: #ffffff; stroke-width: 0.48"/>
     <use xlink:href="#m040a3730d7" x="395.37515" y="266.681637" style="fill: #2e8b57; stroke: #ffffff; stroke-width: 0.48"/>
    </g>
   </g>
   <g id="line2d_15">
    <path d="M 73.832727 295.389834 
L 99.592734 295.373473 
L 125.117371 295.393729 
L 150.32818 295.405416 
L 175.748207 295.488 
L 201.795889 295.279202 
L 227.529744 295.301017 
L 240.50128 295.238689 
L 252.897466 295.195838 
L 264.849064 294.945748 
L 275.022305 294.260142 
L 284.358673 293.049424 
L 294.401153 292.227476 
L 304.469785 291.537974 
L 315.427595 290.895997 
L 324.894725 290.354524 
L 334.54492 289.685279 
L 345.26736 288.758153 
L 356.80052 287.779606 
L 366.319954 286.651473 
L 373.407225 286.125582 
L 385.437279 283.096449 
L 391.844591 276.565272 
L 395.71513 266.408174 
L 398.487273 250.305001 
L 397.781161 241.97255 
L 393.178358 240.112844 
L 384.260426 238.916929 
L 304.417481 62.096005 
L 299.919286 53.568 
L 278.709778 81.667721 
L 281.115789 79.87268 
L 281.115789 70.044361 
L 281.58653 70.501691 
L 278.029819 83.617803 
L 276.90527 89.804618 
L 289.222999 72.856904 
L 319.533505 59.366046 
L 319.219677 67.789652 
L 338.180089 132.499958 
L 357.585089 229.774995 
L 397.048897 260.035154 
L 395.37515 266.681637 
" clip-path="url(#pb7393bd254)" style="fill: none; stroke: #808080; stroke-linecap: round"/>
   </g>
   <g id="patch_3">
    <path d="M 57.6 307.584 
L 57.6 41.472 
" style="fill: none; stroke: #ffffff; stroke-width: 1.25; stroke-linejoin: miter; stroke-linecap: square"/>
   </g>
   <g id="patch_4">
    <path d="M 414.72 307.584 
L 414.72 41.472 
" style="fill: none; stroke: #ffffff; stroke-width: 1.25; stroke-linejoin: miter; stroke-linecap: square"/>
   </g>
   <g id="patch_5">
    <path d="M 57.6 307.584 
L 414.72 307.584 
" style="fill: none; stroke: #ffffff; stroke-width: 1.25; stroke-linejoin: miter; stroke-linecap: square"/>
   </g>
   <g id="patch_6">
    <path d="M 57.6 41.472 
L 414.72 41.472 
" style="fill: none; stroke: #ffffff; stroke-width: 1.25; stroke-linejoin: miter; stroke-linecap: square"/>
   </g>
  </g>
 </g>
 <defs>
  <clipPath id="pb7393bd254">
   <rect x="57.6" y="41.472" width="357.12" height="266.112"/>
  </clipPath>
 </defs>
</svg>
