<?xml version="1.0" encoding="utf-8" standalone="no"?>
<!DOCTYPE svg PUBLIC "-//W3C//DTD SVG 1.1//EN"
  "http://www.w3.org/Graphics/SVG/1.1/DTD/svg11.dtd">
<svg xmlns:xlink="http://www.w3.org/1999/xlink" width="360pt" height="360pt" viewBox="0 0 360 360" xmlns="http://www.w3.org/2000/svg" version="1.1">
 <metadata>
  <rdf:RDF xmlns:dc="http://purl.org/dc/elements/1.1/" xmlns:cc="http://creativecommons.org/ns#" xmlns:rdf="http://www.w3.org/1999/02/22-rdf-syntax-ns#">
   <cc:Work>
    <dc:type rdf:resource="http://purl.org/dc/dcmitype/StillImage"/>
    <dc:date>2022-12-20T13:17:23.402776</dc:date>
    <dc:format>image/svg+xml</dc:format>
    <dc:creator>
     <cc:Agent>
      <dc:title>Matplotlib v3.6.2, https://matplotlib.org/</dc:title>
     </cc:Agent>
    </dc:creator>
   </cc:Work>
  </rdf:RDF>
 </metadata>
 <defs>
  <style type="text/css">*{stroke-linejoin: round; stroke-linecap: butt}</style>
 </defs>
 <g id="figure_1">
  <g id="patch_1">
   <path d="M 0 360 
L 360 360 
L 360 0 
L 0 0 
z
" style="fill: #ffffff"/>
  </g>
  <g id="axes_1">
   <g id="patch_2">
    <path d="M 58.68 312.66 
L 347.04 312.66 
L 347.04 12.96 
L 58.68 12.96 
z
" style="fill: #eaeaf2"/>
   </g>
   <g id="matplotlib.axis_1">
    <g id="xtick_1">
     <g id="line2d_1">
      <path d="M 71.787273 312.66 
L 71.787273 12.96 
" clip-path="url(#pc9b76596a3)" style="fill: none; stroke: #ffffff; stroke-linecap: round"/>
     </g>
     <g id="text_1">
      <!-- 0 -->
      <g style="fill: #262626" transform="translate(68.728757 330.033594) scale(0.11 -0.11)">
       <defs>
        <path id="ArialMT-30" d="M 266 2259 
Q 266 3072 433 3567 
Q 600 4063 929 4331 
Q 1259 4600 1759 4600 
Q 2128 4600 2406 4451 
Q 2684 4303 2865 4023 
Q 3047 3744 3150 3342 
Q 3253 2941 3253 2259 
Q 3253 1453 3087 958 
Q 2922 463 2592 192 
Q 2263 -78 1759 -78 
Q 1097 -78 719 397 
Q 266 969 266 2259 
z
M 844 2259 
Q 844 1131 1108 757 
Q 1372 384 1759 384 
Q 2147 384 2411 759 
Q 2675 1134 2675 2259 
Q 2675 3391 2411 3762 
Q 2147 4134 1753 4134 
Q 1366 4134 1134 3806 
Q 844 3388 844 2259 
z
" transform="scale(0.015625)"/>
       </defs>
       <use xlink:href="#ArialMT-30"/>
      </g>
     </g>
    </g>
    <g id="xtick_2">
     <g id="line2d_2">
      <path d="M 109.236623 312.66 
L 109.236623 12.96 
" clip-path="url(#pc9b76596a3)" style="fill: none; stroke: #ffffff; stroke-linecap: round"/>
     </g>
     <g id="text_2">
      <!-- 2 -->
      <g style="fill: #262626" transform="translate(106.178108 330.033594) scale(0.11 -0.11)">
       <defs>
        <path id="ArialMT-32" d="M 3222 541 
L 3222 0 
L 194 0 
Q 188 203 259 391 
Q 375 700 629 1000 
Q 884 1300 1366 1694 
Q 2113 2306 2375 2664 
Q 2638 3022 2638 3341 
Q 2638 3675 2398 3904 
Q 2159 4134 1775 4134 
Q 1369 4134 1125 3890 
Q 881 3647 878 3216 
L 300 3275 
Q 359 3922 746 4261 
Q 1134 4600 1788 4600 
Q 2447 4600 2831 4234 
Q 3216 3869 3216 3328 
Q 3216 3053 3103 2787 
Q 2991 2522 2730 2228 
Q 2469 1934 1863 1422 
Q 1356 997 1212 845 
Q 1069 694 975 541 
L 3222 541 
z
" transform="scale(0.015625)"/>
       </defs>
       <use xlink:href="#ArialMT-32"/>
      </g>
     </g>
    </g>
    <g id="xtick_3">
     <g id="line2d_3">
      <path d="M 146.685974 312.66 
L 146.685974 12.96 
" clip-path="url(#pc9b76596a3)" style="fill: none; stroke: #ffffff; stroke-linecap: round"/>
     </g>
     <g id="text_3">
      <!-- 4 -->
      <g style="fill: #262626" transform="translate(143.627458 330.033594) scale(0.11 -0.11)">
       <defs>
        <path id="ArialMT-34" d="M 2069 0 
L 2069 1097 
L 81 1097 
L 81 1613 
L 2172 4581 
L 2631 4581 
L 2631 1613 
L 3250 1613 
L 3250 1097 
L 2631 1097 
L 2631 0 
L 2069 0 
z
M 2069 1613 
L 2069 3678 
L 634 1613 
L 2069 1613 
z
" transform="scale(0.015625)"/>
       </defs>
       <use xlink:href="#ArialMT-34"/>
      </g>
     </g>
    </g>
    <g id="xtick_4">
     <g id="line2d_4">
      <path d="M 184.135325 312.66 
L 184.135325 12.96 
" clip-path="url(#pc9b76596a3)" style="fill: none; stroke: #ffffff; stroke-linecap: round"/>
     </g>
     <g id="text_4">
      <!-- 6 -->
      <g style="fill: #262626" transform="translate(181.076809 330.033594) scale(0.11 -0.11)">
       <defs>
        <path id="ArialMT-36" d="M 3184 3459 
L 2625 3416 
Q 2550 3747 2413 3897 
Q 2184 4138 1850 4138 
Q 1581 4138 1378 3988 
Q 1113 3794 959 3422 
Q 806 3050 800 2363 
Q 1003 2672 1297 2822 
Q 1591 2972 1913 2972 
Q 2475 2972 2870 2558 
Q 3266 2144 3266 1488 
Q 3266 1056 3080 686 
Q 2894 316 2569 119 
Q 2244 -78 1831 -78 
Q 1128 -78 684 439 
Q 241 956 241 2144 
Q 241 3472 731 4075 
Q 1159 4600 1884 4600 
Q 2425 4600 2770 4297 
Q 3116 3994 3184 3459 
z
M 888 1484 
Q 888 1194 1011 928 
Q 1134 663 1356 523 
Q 1578 384 1822 384 
Q 2178 384 2434 671 
Q 2691 959 2691 1453 
Q 2691 1928 2437 2201 
Q 2184 2475 1800 2475 
Q 1419 2475 1153 2201 
Q 888 1928 888 1484 
z
" transform="scale(0.015625)"/>
       </defs>
       <use xlink:href="#ArialMT-36"/>
      </g>
     </g>
    </g>
    <g id="xtick_5">
     <g id="line2d_5">
      <path d="M 221.584675 312.66 
L 221.584675 12.96 
" clip-path="url(#pc9b76596a3)" style="fill: none; stroke: #ffffff; stroke-linecap: round"/>
     </g>
     <g id="text_5">
      <!-- 8 -->
      <g style="fill: #262626" transform="translate(218.52616 330.033594) scale(0.11 -0.11)">
       <defs>
        <path id="ArialMT-38" d="M 1131 2484 
Q 781 2613 612 2850 
Q 444 3088 444 3419 
Q 444 3919 803 4259 
Q 1163 4600 1759 4600 
Q 2359 4600 2725 4251 
Q 3091 3903 3091 3403 
Q 3091 3084 2923 2848 
Q 2756 2613 2416 2484 
Q 2838 2347 3058 2040 
Q 3278 1734 3278 1309 
Q 3278 722 2862 322 
Q 2447 -78 1769 -78 
Q 1091 -78 675 323 
Q 259 725 259 1325 
Q 259 1772 486 2073 
Q 713 2375 1131 2484 
z
M 1019 3438 
Q 1019 3113 1228 2906 
Q 1438 2700 1772 2700 
Q 2097 2700 2305 2904 
Q 2513 3109 2513 3406 
Q 2513 3716 2298 3927 
Q 2084 4138 1766 4138 
Q 1444 4138 1231 3931 
Q 1019 3725 1019 3438 
z
M 838 1322 
Q 838 1081 952 856 
Q 1066 631 1291 507 
Q 1516 384 1775 384 
Q 2178 384 2440 643 
Q 2703 903 2703 1303 
Q 2703 1709 2433 1975 
Q 2163 2241 1756 2241 
Q 1359 2241 1098 1978 
Q 838 1716 838 1322 
z
" transform="scale(0.015625)"/>
       </defs>
       <use xlink:href="#ArialMT-38"/>
      </g>
     </g>
    </g>
    <g id="xtick_6">
     <g id="line2d_6">
      <path d="M 259.034026 312.66 
L 259.034026 12.96 
" clip-path="url(#pc9b76596a3)" style="fill: none; stroke: #ffffff; stroke-linecap: round"/>
     </g>
     <g id="text_6">
      <!-- 10 -->
      <g style="fill: #262626" transform="translate(252.916995 330.033594) scale(0.11 -0.11)">
       <defs>
        <path id="ArialMT-31" d="M 2384 0 
L 1822 0 
L 1822 3584 
Q 1619 3391 1289 3197 
Q 959 3003 697 2906 
L 697 3450 
Q 1169 3672 1522 3987 
Q 1875 4303 2022 4600 
L 2384 4600 
L 2384 0 
z
" transform="scale(0.015625)"/>
       </defs>
       <use xlink:href="#ArialMT-31"/>
       <use xlink:href="#ArialMT-30" x="55.615234"/>
      </g>
     </g>
    </g>
    <g id="xtick_7">
     <g id="line2d_7">
      <path d="M 296.483377 312.66 
L 296.483377 12.96 
" clip-path="url(#pc9b76596a3)" style="fill: none; stroke: #ffffff; stroke-linecap: round"/>
     </g>
     <g id="text_7">
      <!-- 12 -->
      <g style="fill: #262626" transform="translate(290.366345 330.033594) scale(0.11 -0.11)">
       <use xlink:href="#ArialMT-31"/>
       <use xlink:href="#ArialMT-32" x="55.615234"/>
      </g>
     </g>
    </g>
    <g id="xtick_8">
     <g id="line2d_8">
      <path d="M 333.932727 312.66 
L 333.932727 12.96 
" clip-path="url(#pc9b76596a3)" style="fill: none; stroke: #ffffff; stroke-linecap: round"/>
     </g>
     <g id="text_8">
      <!-- 14 -->
      <g style="fill: #262626" transform="translate(327.815696 330.033594) scale(0.11 -0.11)">
       <use xlink:href="#ArialMT-31"/>
       <use xlink:href="#ArialMT-34" x="55.615234"/>
      </g>
     </g>
    </g>
    <g id="text_9">
     <!-- α [°] -->
     <g style="fill: #262626" transform="translate(191.991562 344.955469) scale(0.12 -0.12)">
      <defs>
       <path id="ArialMT-3b1" d="M 2884 3319 
L 3459 3319 
Q 3241 2631 3056 1659 
Q 3275 453 3459 0 
L 2900 0 
Q 2766 313 2697 606 
Q 2438 -75 1613 -75 
Q 988 -75 606 394 
Q 225 863 225 1666 
Q 225 2491 608 2942 
Q 991 3394 1622 3394 
Q 2013 3394 2259 3236 
Q 2506 3078 2719 2756 
Q 2741 2866 2884 3319 
z
M 1716 2928 
Q 1313 2928 1078 2603 
Q 844 2278 844 1666 
Q 844 1069 1066 728 
Q 1288 388 1684 388 
Q 2072 388 2331 723 
Q 2591 1059 2591 1691 
Q 2591 2303 2348 2615 
Q 2106 2928 1716 2928 
z
" transform="scale(0.015625)"/>
       <path id="ArialMT-20" transform="scale(0.015625)"/>
       <path id="ArialMT-5b" d="M 434 -1272 
L 434 4581 
L 1675 4581 
L 1675 4116 
L 997 4116 
L 997 -806 
L 1675 -806 
L 1675 -1272 
L 434 -1272 
z
" transform="scale(0.015625)"/>
       <path id="ArialMT-b0" d="M 400 3794 
Q 400 4153 654 4406 
Q 909 4659 1266 4659 
Q 1628 4659 1881 4406 
Q 2134 4153 2134 3794 
Q 2134 3434 1879 3179 
Q 1625 2925 1266 2925 
Q 909 2925 654 3178 
Q 400 3431 400 3794 
z
M 741 3794 
Q 741 3575 895 3420 
Q 1050 3266 1269 3266 
Q 1484 3266 1639 3420 
Q 1794 3575 1794 3794 
Q 1794 4013 1639 4167 
Q 1484 4322 1269 4322 
Q 1050 4322 895 4167 
Q 741 4013 741 3794 
z
" transform="scale(0.015625)"/>
       <path id="ArialMT-5d" d="M 1363 -1272 
L 122 -1272 
L 122 -806 
L 800 -806 
L 800 4116 
L 122 4116 
L 122 4581 
L 1363 4581 
L 1363 -1272 
z
" transform="scale(0.015625)"/>
      </defs>
      <use xlink:href="#ArialMT-3b1"/>
      <use xlink:href="#ArialMT-20" x="57.8125"/>
      <use xlink:href="#ArialMT-5b" x="85.595703"/>
      <use xlink:href="#ArialMT-b0" x="113.378906"/>
      <use xlink:href="#ArialMT-5d" x="153.369141"/>
     </g>
    </g>
   </g>
   <g id="matplotlib.axis_2">
    <g id="ytick_1">
     <g id="line2d_9">
      <path d="M 58.68 299.037273 
L 347.04 299.037273 
" clip-path="url(#pc9b76596a3)" style="fill: none; stroke: #ffffff; stroke-linecap: round"/>
     </g>
     <g id="text_10">
      <!-- 0.00 -->
      <g style="fill: #262626" transform="translate(27.772969 302.97407) scale(0.11 -0.11)">
       <defs>
        <path id="ArialMT-2e" d="M 581 0 
L 581 641 
L 1222 641 
L 1222 0 
L 581 0 
z
" transform="scale(0.015625)"/>
       </defs>
       <use xlink:href="#ArialMT-30"/>
       <use xlink:href="#ArialMT-2e" x="55.615234"/>
       <use xlink:href="#ArialMT-30" x="83.398438"/>
       <use xlink:href="#ArialMT-30" x="139.013672"/>
      </g>
     </g>
    </g>
    <g id="ytick_2">
     <g id="line2d_10">
      <path d="M 58.68 250.939517 
L 347.04 250.939517 
" clip-path="url(#pc9b76596a3)" style="fill: none; stroke: #ffffff; stroke-linecap: round"/>
     </g>
     <g id="text_11">
      <!-- 0.01 -->
      <g style="fill: #262626" transform="translate(27.772969 254.876314) scale(0.11 -0.11)">
       <use xlink:href="#ArialMT-30"/>
       <use xlink:href="#ArialMT-2e" x="55.615234"/>
       <use xlink:href="#ArialMT-30" x="83.398438"/>
       <use xlink:href="#ArialMT-31" x="139.013672"/>
      </g>
     </g>
    </g>
    <g id="ytick_3">
     <g id="line2d_11">
      <path d="M 58.68 202.841762 
L 347.04 202.841762 
" clip-path="url(#pc9b76596a3)" style="fill: none; stroke: #ffffff; stroke-linecap: round"/>
     </g>
     <g id="text_12">
      <!-- 0.02 -->
      <g style="fill: #262626" transform="translate(27.772969 206.778559) scale(0.11 -0.11)">
       <use xlink:href="#ArialMT-30"/>
       <use xlink:href="#ArialMT-2e" x="55.615234"/>
       <use xlink:href="#ArialMT-30" x="83.398438"/>
       <use xlink:href="#ArialMT-32" x="139.013672"/>
      </g>
     </g>
    </g>
    <g id="ytick_4">
     <g id="line2d_12">
      <path d="M 58.68 154.744006 
L 347.04 154.744006 
" clip-path="url(#pc9b76596a3)" style="fill: none; stroke: #ffffff; stroke-linecap: round"/>
     </g>
     <g id="text_13">
      <!-- 0.03 -->
      <g style="fill: #262626" transform="translate(27.772969 158.680803) scale(0.11 -0.11)">
       <defs>
        <path id="ArialMT-33" d="M 269 1209 
L 831 1284 
Q 928 806 1161 595 
Q 1394 384 1728 384 
Q 2125 384 2398 659 
Q 2672 934 2672 1341 
Q 2672 1728 2419 1979 
Q 2166 2231 1775 2231 
Q 1616 2231 1378 2169 
L 1441 2663 
Q 1497 2656 1531 2656 
Q 1891 2656 2178 2843 
Q 2466 3031 2466 3422 
Q 2466 3731 2256 3934 
Q 2047 4138 1716 4138 
Q 1388 4138 1169 3931 
Q 950 3725 888 3313 
L 325 3413 
Q 428 3978 793 4289 
Q 1159 4600 1703 4600 
Q 2078 4600 2393 4439 
Q 2709 4278 2876 4000 
Q 3044 3722 3044 3409 
Q 3044 3113 2884 2869 
Q 2725 2625 2413 2481 
Q 2819 2388 3044 2092 
Q 3269 1797 3269 1353 
Q 3269 753 2831 336 
Q 2394 -81 1725 -81 
Q 1122 -81 723 278 
Q 325 638 269 1209 
z
" transform="scale(0.015625)"/>
       </defs>
       <use xlink:href="#ArialMT-30"/>
       <use xlink:href="#ArialMT-2e" x="55.615234"/>
       <use xlink:href="#ArialMT-30" x="83.398438"/>
       <use xlink:href="#ArialMT-33" x="139.013672"/>
      </g>
     </g>
    </g>
    <g id="ytick_5">
     <g id="line2d_13">
      <path d="M 58.68 106.646251 
L 347.04 106.646251 
" clip-path="url(#pc9b76596a3)" style="fill: none; stroke: #ffffff; stroke-linecap: round"/>
     </g>
     <g id="text_14">
      <!-- 0.04 -->
      <g style="fill: #262626" transform="translate(27.772969 110.583048) scale(0.11 -0.11)">
       <use xlink:href="#ArialMT-30"/>
       <use xlink:href="#ArialMT-2e" x="55.615234"/>
       <use xlink:href="#ArialMT-30" x="83.398438"/>
       <use xlink:href="#ArialMT-34" x="139.013672"/>
      </g>
     </g>
    </g>
    <g id="ytick_6">
     <g id="line2d_14">
      <path d="M 58.68 58.548496 
L 347.04 58.548496 
" clip-path="url(#pc9b76596a3)" style="fill: none; stroke: #ffffff; stroke-linecap: round"/>
     </g>
     <g id="text_15">
      <!-- 0.05 -->
      <g style="fill: #262626" transform="translate(27.772969 62.485292) scale(0.11 -0.11)">
       <defs>
        <path id="ArialMT-35" d="M 266 1200 
L 856 1250 
Q 922 819 1161 601 
Q 1400 384 1738 384 
Q 2144 384 2425 690 
Q 2706 997 2706 1503 
Q 2706 1984 2436 2262 
Q 2166 2541 1728 2541 
Q 1456 2541 1237 2417 
Q 1019 2294 894 2097 
L 366 2166 
L 809 4519 
L 3088 4519 
L 3088 3981 
L 1259 3981 
L 1013 2750 
Q 1425 3038 1878 3038 
Q 2478 3038 2890 2622 
Q 3303 2206 3303 1553 
Q 3303 931 2941 478 
Q 2500 -78 1738 -78 
Q 1113 -78 717 272 
Q 322 622 266 1200 
z
" transform="scale(0.015625)"/>
       </defs>
       <use xlink:href="#ArialMT-30"/>
       <use xlink:href="#ArialMT-2e" x="55.615234"/>
       <use xlink:href="#ArialMT-30" x="83.398438"/>
       <use xlink:href="#ArialMT-35" x="139.013672"/>
      </g>
     </g>
    </g>
    <g id="text_16">
     <!-- CDi [-] -->
     <g style="fill: #262626" transform="translate(21.387969 179.807813) rotate(-90) scale(0.12 -0.12)">
      <defs>
       <path id="ArialMT-43" d="M 3763 1606 
L 4369 1453 
Q 4178 706 3683 314 
Q 3188 -78 2472 -78 
Q 1731 -78 1267 223 
Q 803 525 561 1097 
Q 319 1669 319 2325 
Q 319 3041 592 3573 
Q 866 4106 1370 4382 
Q 1875 4659 2481 4659 
Q 3169 4659 3637 4309 
Q 4106 3959 4291 3325 
L 3694 3184 
Q 3534 3684 3231 3912 
Q 2928 4141 2469 4141 
Q 1941 4141 1586 3887 
Q 1231 3634 1087 3207 
Q 944 2781 944 2328 
Q 944 1744 1114 1308 
Q 1284 872 1643 656 
Q 2003 441 2422 441 
Q 2931 441 3284 734 
Q 3638 1028 3763 1606 
z
" transform="scale(0.015625)"/>
       <path id="ArialMT-44" d="M 494 0 
L 494 4581 
L 2072 4581 
Q 2606 4581 2888 4516 
Q 3281 4425 3559 4188 
Q 3922 3881 4101 3404 
Q 4281 2928 4281 2316 
Q 4281 1794 4159 1391 
Q 4038 988 3847 723 
Q 3656 459 3429 307 
Q 3203 156 2883 78 
Q 2563 0 2147 0 
L 494 0 
z
M 1100 541 
L 2078 541 
Q 2531 541 2789 625 
Q 3047 709 3200 863 
Q 3416 1078 3536 1442 
Q 3656 1806 3656 2325 
Q 3656 3044 3420 3430 
Q 3184 3816 2847 3947 
Q 2603 4041 2063 4041 
L 1100 4041 
L 1100 541 
z
" transform="scale(0.015625)"/>
       <path id="ArialMT-69" d="M 425 3934 
L 425 4581 
L 988 4581 
L 988 3934 
L 425 3934 
z
M 425 0 
L 425 3319 
L 988 3319 
L 988 0 
L 425 0 
z
" transform="scale(0.015625)"/>
       <path id="ArialMT-2d" d="M 203 1375 
L 203 1941 
L 1931 1941 
L 1931 1375 
L 203 1375 
z
" transform="scale(0.015625)"/>
      </defs>
      <use xlink:href="#ArialMT-43"/>
      <use xlink:href="#ArialMT-44" x="72.216797"/>
      <use xlink:href="#ArialMT-69" x="144.433594"/>
      <use xlink:href="#ArialMT-20" x="166.650391"/>
      <use xlink:href="#ArialMT-5b" x="194.433594"/>
      <use xlink:href="#ArialMT-2d" x="222.216797"/>
      <use xlink:href="#ArialMT-5d" x="255.517578"/>
     </g>
    </g>
   </g>
   <g id="PathCollection_1">
    <defs>
     <path id="m8f2d3877d4" d="M 0 3 
C 0.795609 3 1.55874 2.683901 2.12132 2.12132 
C 2.683901 1.55874 3 0.795609 3 0 
C 3 -0.795609 2.683901 -1.55874 2.12132 -2.12132 
C 1.55874 -2.683901 0.795609 -3 0 -3 
C -0.795609 -3 -1.55874 -2.683901 -2.12132 -2.12132 
C -2.683901 -1.55874 -3 -0.795609 -3 0 
C -3 0.795609 -2.683901 1.55874 -2.12132 2.12132 
C -1.55874 2.683901 -0.795609 3 0 3 
z
" style="stroke: #ffffff; stroke-width: 0.48"/>
    </defs>
    <g clip-path="url(#pc9b76596a3)">
     <use xlink:href="#m8f2d3877d4" x="71.787273" y="299.037273" style="fill: #4c72b0; stroke: #ffffff; stroke-width: 0.48"/>
     <use xlink:href="#m8f2d3877d4" x="81.14961" y="298.67173" style="fill: #4c72b0; stroke: #ffffff; stroke-width: 0.48"/>
     <use xlink:href="#m8f2d3877d4" x="90.511948" y="297.575101" style="fill: #4c72b0; stroke: #ffffff; stroke-width: 0.48"/>
     <use xlink:href="#m8f2d3877d4" x="99.874286" y="295.752196" style="fill: #4c72b0; stroke: #ffffff; stroke-width: 0.48"/>
     <use xlink:href="#m8f2d3877d4" x="109.236623" y="293.198205" style="fill: #4c72b0; stroke: #ffffff; stroke-width: 0.48"/>
     <use xlink:href="#m8f2d3877d4" x="118.598961" y="289.917938" style="fill: #4c72b0; stroke: #ffffff; stroke-width: 0.48"/>
     <use xlink:href="#m8f2d3877d4" x="127.961299" y="285.911395" style="fill: #4c72b0; stroke: #ffffff; stroke-width: 0.48"/>
     <use xlink:href="#m8f2d3877d4" x="137.323636" y="281.188196" style="fill: #4c72b0; stroke: #ffffff; stroke-width: 0.48"/>
     <use xlink:href="#m8f2d3877d4" x="146.685974" y="275.74834" style="fill: #4c72b0; stroke: #ffffff; stroke-width: 0.48"/>
     <use xlink:href="#m8f2d3877d4" x="156.048312" y="269.591827" style="fill: #4c72b0; stroke: #ffffff; stroke-width: 0.48"/>
     <use xlink:href="#m8f2d3877d4" x="165.410649" y="262.728277" style="fill: #4c72b0; stroke: #ffffff; stroke-width: 0.48"/>
     <use xlink:href="#m8f2d3877d4" x="174.772987" y="255.1625" style="fill: #4c72b0; stroke: #ffffff; stroke-width: 0.48"/>
     <use xlink:href="#m8f2d3877d4" x="184.135325" y="246.899306" style="fill: #4c72b0; stroke: #ffffff; stroke-width: 0.48"/>
     <use xlink:href="#m8f2d3877d4" x="193.497662" y="237.948314" style="fill: #4c72b0; stroke: #ffffff; stroke-width: 0.48"/>
     <use xlink:href="#m8f2d3877d4" x="202.86" y="228.309523" style="fill: #4c72b0; stroke: #ffffff; stroke-width: 0.48"/>
     <use xlink:href="#m8f2d3877d4" x="212.222338" y="217.992555" style="fill: #4c72b0; stroke: #ffffff; stroke-width: 0.48"/>
     <use xlink:href="#m8f2d3877d4" x="221.584675" y="207.011837" style="fill: #4c72b0; stroke: #ffffff; stroke-width: 0.48"/>
     <use xlink:href="#m8f2d3877d4" x="230.947013" y="195.367371" style="fill: #4c72b0; stroke: #ffffff; stroke-width: 0.48"/>
     <use xlink:href="#m8f2d3877d4" x="240.309351" y="183.068775" style="fill: #4c72b0; stroke: #ffffff; stroke-width: 0.48"/>
     <use xlink:href="#m8f2d3877d4" x="249.671688" y="170.135288" style="fill: #4c72b0; stroke: #ffffff; stroke-width: 0.48"/>
     <use xlink:href="#m8f2d3877d4" x="259.034026" y="156.562102" style="fill: #4c72b0; stroke: #ffffff; stroke-width: 0.48"/>
     <use xlink:href="#m8f2d3877d4" x="268.396364" y="142.368454" style="fill: #4c72b0; stroke: #ffffff; stroke-width: 0.48"/>
     <use xlink:href="#m8f2d3877d4" x="277.758701" y="127.568775" style="fill: #4c72b0; stroke: #ffffff; stroke-width: 0.48"/>
     <use xlink:href="#m8f2d3877d4" x="287.121039" y="112.163064" style="fill: #4c72b0; stroke: #ffffff; stroke-width: 0.48"/>
     <use xlink:href="#m8f2d3877d4" x="296.483377" y="96.17537" style="fill: #4c72b0; stroke: #ffffff; stroke-width: 0.48"/>
     <use xlink:href="#m8f2d3877d4" x="305.845714" y="79.605693" style="fill: #4c72b0; stroke: #ffffff; stroke-width: 0.48"/>
     <use xlink:href="#m8f2d3877d4" x="315.208052" y="62.478082" style="fill: #4c72b0; stroke: #ffffff; stroke-width: 0.48"/>
     <use xlink:href="#m8f2d3877d4" x="324.57039" y="44.797347" style="fill: #4c72b0; stroke: #ffffff; stroke-width: 0.48"/>
     <use xlink:href="#m8f2d3877d4" x="333.932727" y="26.582727" style="fill: #4c72b0; stroke: #ffffff; stroke-width: 0.48"/>
    </g>
   </g>
   <g id="line2d_15">
    <path d="M 71.787273 299.037273 
L 81.14961 298.67173 
L 90.511948 297.575101 
L 99.874286 295.752196 
L 109.236623 293.198205 
L 118.598961 289.917938 
L 127.961299 285.911395 
L 137.323636 281.188196 
L 146.685974 275.74834 
L 156.048312 269.591827 
L 165.410649 262.728277 
L 174.772987 255.1625 
L 184.135325 246.899306 
L 193.497662 237.948314 
L 202.86 228.309523 
L 212.222338 217.992555 
L 221.584675 207.011837 
L 230.947013 195.367371 
L 240.309351 183.068775 
L 249.671688 170.135288 
L 259.034026 156.562102 
L 268.396364 142.368454 
L 277.758701 127.568775 
L 287.121039 112.163064 
L 296.483377 96.17537 
L 305.845714 79.605693 
L 315.208052 62.478082 
L 324.57039 44.797347 
L 333.932727 26.582727 
" clip-path="url(#pc9b76596a3)" style="fill: none; stroke: #808080; stroke-linecap: round"/>
   </g>
   <g id="patch_3">
    <path d="M 58.68 312.66 
L 58.68 12.96 
" style="fill: none; stroke: #ffffff; stroke-width: 1.25; stroke-linejoin: miter; stroke-linecap: square"/>
   </g>
   <g id="patch_4">
    <path d="M 58.68 312.66 
L 347.04 312.66 
" style="fill: none; stroke: #ffffff; stroke-width: 1.25; stroke-linejoin: miter; stroke-linecap: square"/>
   </g>
  </g>
 </g>
 <defs>
  <clipPath id="pc9b76596a3">
   <rect x="58.68" y="12.96" width="288.36" height="299.7"/>
  </clipPath>
 </defs>
</svg>
