<?xml version="1.0" encoding="utf-8" standalone="no"?>
<!DOCTYPE svg PUBLIC "-//W3C//DTD SVG 1.1//EN"
  "http://www.w3.org/Graphics/SVG/1.1/DTD/svg11.dtd">
<svg xmlns:xlink="http://www.w3.org/1999/xlink" width="523.636364pt" height="360pt" viewBox="0 0 523.636364 360" xmlns="http://www.w3.org/2000/svg" version="1.1">
 <metadata>
  <rdf:RDF xmlns:dc="http://purl.org/dc/elements/1.1/" xmlns:cc="http://creativecommons.org/ns#" xmlns:rdf="http://www.w3.org/1999/02/22-rdf-syntax-ns#">
   <cc:Work>
    <dc:type rdf:resource="http://purl.org/dc/dcmitype/StillImage"/>
    <dc:date>2022-12-19T01:54:02.147974</dc:date>
    <dc:format>image/svg+xml</dc:format>
    <dc:creator>
     <cc:Agent>
      <dc:title>Matplotlib v3.5.2, https://matplotlib.org/</dc:title>
     </cc:Agent>
    </dc:creator>
   </cc:Work>
  </rdf:RDF>
 </metadata>
 <defs>
  <style type="text/css">*{stroke-linejoin: round; stroke-linecap: butt}</style>
 </defs>
 <g id="figure_1">
  <g id="patch_1">
   <path d="M 0 360 
L 523.636364 360 
L 523.636364 0 
L 0 0 
z
" style="fill: #ffffff"/>
  </g>
  <g id="axes_1">
   <g id="patch_2">
    <path d="M 58.77 312.66 
L 510.676364 312.66 
L 510.676364 12.96 
L 58.77 12.96 
z
" style="fill: #eaeaf2"/>
   </g>
   <g id="matplotlib.axis_1">
    <g id="xtick_1">
     <g id="line2d_1">
      <path d="M 58.77 312.66 
L 58.77 12.96 
" clip-path="url(#pe0ea2c5f42)" style="fill: none; stroke: #ffffff; stroke-linecap: round"/>
     </g>
     <g id="text_1">
      <!-- −10.0 -->
      <g style="fill: #262626" transform="translate(44.854141 330.033594)scale(0.11 -0.11)">
       <defs>
        <path id="ArialMT-2212" d="M 3381 1997 
L 356 1997 
L 356 2522 
L 3381 2522 
L 3381 1997 
z
" transform="scale(0.015625)"/>
        <path id="ArialMT-31" d="M 2384 0 
L 1822 0 
L 1822 3584 
Q 1619 3391 1289 3197 
Q 959 3003 697 2906 
L 697 3450 
Q 1169 3672 1522 3987 
Q 1875 4303 2022 4600 
L 2384 4600 
L 2384 0 
z
" transform="scale(0.015625)"/>
        <path id="ArialMT-30" d="M 266 2259 
Q 266 3072 433 3567 
Q 600 4063 929 4331 
Q 1259 4600 1759 4600 
Q 2128 4600 2406 4451 
Q 2684 4303 2865 4023 
Q 3047 3744 3150 3342 
Q 3253 2941 3253 2259 
Q 3253 1453 3087 958 
Q 2922 463 2592 192 
Q 2263 -78 1759 -78 
Q 1097 -78 719 397 
Q 266 969 266 2259 
z
M 844 2259 
Q 844 1131 1108 757 
Q 1372 384 1759 384 
Q 2147 384 2411 759 
Q 2675 1134 2675 2259 
Q 2675 3391 2411 3762 
Q 2147 4134 1753 4134 
Q 1366 4134 1134 3806 
Q 844 3388 844 2259 
z
" transform="scale(0.015625)"/>
        <path id="ArialMT-2e" d="M 581 0 
L 581 641 
L 1222 641 
L 1222 0 
L 581 0 
z
" transform="scale(0.015625)"/>
       </defs>
       <use xlink:href="#ArialMT-2212"/>
       <use xlink:href="#ArialMT-31" x="58.398438"/>
       <use xlink:href="#ArialMT-30" x="114.013672"/>
       <use xlink:href="#ArialMT-2e" x="169.628906"/>
       <use xlink:href="#ArialMT-30" x="197.412109"/>
      </g>
     </g>
    </g>
    <g id="xtick_2">
     <g id="line2d_2">
      <path d="M 95.666641 312.66 
L 95.666641 12.96 
" clip-path="url(#pe0ea2c5f42)" style="fill: none; stroke: #ffffff; stroke-linecap: round"/>
     </g>
     <g id="text_2">
      <!-- −7.5 -->
      <g style="fill: #262626" transform="translate(84.809297 330.033594)scale(0.11 -0.11)">
       <defs>
        <path id="ArialMT-37" d="M 303 3981 
L 303 4522 
L 3269 4522 
L 3269 4084 
Q 2831 3619 2401 2847 
Q 1972 2075 1738 1259 
Q 1569 684 1522 0 
L 944 0 
Q 953 541 1156 1306 
Q 1359 2072 1739 2783 
Q 2119 3494 2547 3981 
L 303 3981 
z
" transform="scale(0.015625)"/>
        <path id="ArialMT-35" d="M 266 1200 
L 856 1250 
Q 922 819 1161 601 
Q 1400 384 1738 384 
Q 2144 384 2425 690 
Q 2706 997 2706 1503 
Q 2706 1984 2436 2262 
Q 2166 2541 1728 2541 
Q 1456 2541 1237 2417 
Q 1019 2294 894 2097 
L 366 2166 
L 809 4519 
L 3088 4519 
L 3088 3981 
L 1259 3981 
L 1013 2750 
Q 1425 3038 1878 3038 
Q 2478 3038 2890 2622 
Q 3303 2206 3303 1553 
Q 3303 931 2941 478 
Q 2500 -78 1738 -78 
Q 1113 -78 717 272 
Q 322 622 266 1200 
z
" transform="scale(0.015625)"/>
       </defs>
       <use xlink:href="#ArialMT-2212"/>
       <use xlink:href="#ArialMT-37" x="58.398438"/>
       <use xlink:href="#ArialMT-2e" x="114.013672"/>
       <use xlink:href="#ArialMT-35" x="141.796875"/>
      </g>
     </g>
    </g>
    <g id="xtick_3">
     <g id="line2d_3">
      <path d="M 132.563281 312.66 
L 132.563281 12.96 
" clip-path="url(#pe0ea2c5f42)" style="fill: none; stroke: #ffffff; stroke-linecap: round"/>
     </g>
     <g id="text_3">
      <!-- −5.0 -->
      <g style="fill: #262626" transform="translate(121.705937 330.033594)scale(0.11 -0.11)">
       <use xlink:href="#ArialMT-2212"/>
       <use xlink:href="#ArialMT-35" x="58.398438"/>
       <use xlink:href="#ArialMT-2e" x="114.013672"/>
       <use xlink:href="#ArialMT-30" x="141.796875"/>
      </g>
     </g>
    </g>
    <g id="xtick_4">
     <g id="line2d_4">
      <path d="M 169.459922 312.66 
L 169.459922 12.96 
" clip-path="url(#pe0ea2c5f42)" style="fill: none; stroke: #ffffff; stroke-linecap: round"/>
     </g>
     <g id="text_4">
      <!-- −2.5 -->
      <g style="fill: #262626" transform="translate(158.602578 330.033594)scale(0.11 -0.11)">
       <defs>
        <path id="ArialMT-32" d="M 3222 541 
L 3222 0 
L 194 0 
Q 188 203 259 391 
Q 375 700 629 1000 
Q 884 1300 1366 1694 
Q 2113 2306 2375 2664 
Q 2638 3022 2638 3341 
Q 2638 3675 2398 3904 
Q 2159 4134 1775 4134 
Q 1369 4134 1125 3890 
Q 881 3647 878 3216 
L 300 3275 
Q 359 3922 746 4261 
Q 1134 4600 1788 4600 
Q 2447 4600 2831 4234 
Q 3216 3869 3216 3328 
Q 3216 3053 3103 2787 
Q 2991 2522 2730 2228 
Q 2469 1934 1863 1422 
Q 1356 997 1212 845 
Q 1069 694 975 541 
L 3222 541 
z
" transform="scale(0.015625)"/>
       </defs>
       <use xlink:href="#ArialMT-2212"/>
       <use xlink:href="#ArialMT-32" x="58.398438"/>
       <use xlink:href="#ArialMT-2e" x="114.013672"/>
       <use xlink:href="#ArialMT-35" x="141.796875"/>
      </g>
     </g>
    </g>
    <g id="xtick_5">
     <g id="line2d_5">
      <path d="M 206.356562 312.66 
L 206.356562 12.96 
" clip-path="url(#pe0ea2c5f42)" style="fill: none; stroke: #ffffff; stroke-linecap: round"/>
     </g>
     <g id="text_5">
      <!-- 0.0 -->
      <g style="fill: #262626" transform="translate(198.711562 330.033594)scale(0.11 -0.11)">
       <use xlink:href="#ArialMT-30"/>
       <use xlink:href="#ArialMT-2e" x="55.615234"/>
       <use xlink:href="#ArialMT-30" x="83.398438"/>
      </g>
     </g>
    </g>
    <g id="xtick_6">
     <g id="line2d_6">
      <path d="M 243.253203 312.66 
L 243.253203 12.96 
" clip-path="url(#pe0ea2c5f42)" style="fill: none; stroke: #ffffff; stroke-linecap: round"/>
     </g>
     <g id="text_6">
      <!-- 2.5 -->
      <g style="fill: #262626" transform="translate(235.608203 330.033594)scale(0.11 -0.11)">
       <use xlink:href="#ArialMT-32"/>
       <use xlink:href="#ArialMT-2e" x="55.615234"/>
       <use xlink:href="#ArialMT-35" x="83.398438"/>
      </g>
     </g>
    </g>
    <g id="xtick_7">
     <g id="line2d_7">
      <path d="M 280.149843 312.66 
L 280.149843 12.96 
" clip-path="url(#pe0ea2c5f42)" style="fill: none; stroke: #ffffff; stroke-linecap: round"/>
     </g>
     <g id="text_7">
      <!-- 5.0 -->
      <g style="fill: #262626" transform="translate(272.504843 330.033594)scale(0.11 -0.11)">
       <use xlink:href="#ArialMT-35"/>
       <use xlink:href="#ArialMT-2e" x="55.615234"/>
       <use xlink:href="#ArialMT-30" x="83.398438"/>
      </g>
     </g>
    </g>
    <g id="xtick_8">
     <g id="line2d_8">
      <path d="M 317.046484 312.66 
L 317.046484 12.96 
" clip-path="url(#pe0ea2c5f42)" style="fill: none; stroke: #ffffff; stroke-linecap: round"/>
     </g>
     <g id="text_8">
      <!-- 7.5 -->
      <g style="fill: #262626" transform="translate(309.401484 330.033594)scale(0.11 -0.11)">
       <use xlink:href="#ArialMT-37"/>
       <use xlink:href="#ArialMT-2e" x="55.615234"/>
       <use xlink:href="#ArialMT-35" x="83.398438"/>
      </g>
     </g>
    </g>
    <g id="xtick_9">
     <g id="line2d_9">
      <path d="M 353.943124 312.66 
L 353.943124 12.96 
" clip-path="url(#pe0ea2c5f42)" style="fill: none; stroke: #ffffff; stroke-linecap: round"/>
     </g>
     <g id="text_9">
      <!-- 10.0 -->
      <g style="fill: #262626" transform="translate(343.239609 330.033594)scale(0.11 -0.11)">
       <use xlink:href="#ArialMT-31"/>
       <use xlink:href="#ArialMT-30" x="55.615234"/>
       <use xlink:href="#ArialMT-2e" x="111.230469"/>
       <use xlink:href="#ArialMT-30" x="139.013672"/>
      </g>
     </g>
    </g>
    <g id="xtick_10">
     <g id="line2d_10">
      <path d="M 390.839765 312.66 
L 390.839765 12.96 
" clip-path="url(#pe0ea2c5f42)" style="fill: none; stroke: #ffffff; stroke-linecap: round"/>
     </g>
     <g id="text_10">
      <!-- 12.5 -->
      <g style="fill: #262626" transform="translate(380.136249 330.033594)scale(0.11 -0.11)">
       <use xlink:href="#ArialMT-31"/>
       <use xlink:href="#ArialMT-32" x="55.615234"/>
       <use xlink:href="#ArialMT-2e" x="111.230469"/>
       <use xlink:href="#ArialMT-35" x="139.013672"/>
      </g>
     </g>
    </g>
    <g id="xtick_11">
     <g id="line2d_11">
      <path d="M 427.736405 312.66 
L 427.736405 12.96 
" clip-path="url(#pe0ea2c5f42)" style="fill: none; stroke: #ffffff; stroke-linecap: round"/>
     </g>
     <g id="text_11">
      <!-- 15.0 -->
      <g style="fill: #262626" transform="translate(417.03289 330.033594)scale(0.11 -0.11)">
       <use xlink:href="#ArialMT-31"/>
       <use xlink:href="#ArialMT-35" x="55.615234"/>
       <use xlink:href="#ArialMT-2e" x="111.230469"/>
       <use xlink:href="#ArialMT-30" x="139.013672"/>
      </g>
     </g>
    </g>
    <g id="xtick_12">
     <g id="line2d_12">
      <path d="M 464.633046 312.66 
L 464.633046 12.96 
" clip-path="url(#pe0ea2c5f42)" style="fill: none; stroke: #ffffff; stroke-linecap: round"/>
     </g>
     <g id="text_12">
      <!-- 17.5 -->
      <g style="fill: #262626" transform="translate(453.92953 330.033594)scale(0.11 -0.11)">
       <use xlink:href="#ArialMT-31"/>
       <use xlink:href="#ArialMT-37" x="55.615234"/>
       <use xlink:href="#ArialMT-2e" x="111.230469"/>
       <use xlink:href="#ArialMT-35" x="139.013672"/>
      </g>
     </g>
    </g>
    <g id="text_13">
     <!-- α [°] -->
     <g style="fill: #262626" transform="translate(273.854744 344.955469)scale(0.12 -0.12)">
      <defs>
       <path id="ArialMT-3b1" d="M 2884 3319 
L 3459 3319 
Q 3241 2631 3056 1659 
Q 3275 453 3459 0 
L 2900 0 
Q 2766 313 2697 606 
Q 2438 -75 1613 -75 
Q 988 -75 606 394 
Q 225 863 225 1666 
Q 225 2491 608 2942 
Q 991 3394 1622 3394 
Q 2013 3394 2259 3236 
Q 2506 3078 2719 2756 
Q 2741 2866 2884 3319 
z
M 1716 2928 
Q 1313 2928 1078 2603 
Q 844 2278 844 1666 
Q 844 1069 1066 728 
Q 1288 388 1684 388 
Q 2072 388 2331 723 
Q 2591 1059 2591 1691 
Q 2591 2303 2348 2615 
Q 2106 2928 1716 2928 
z
" transform="scale(0.015625)"/>
       <path id="ArialMT-20" transform="scale(0.015625)"/>
       <path id="ArialMT-5b" d="M 434 -1272 
L 434 4581 
L 1675 4581 
L 1675 4116 
L 997 4116 
L 997 -806 
L 1675 -806 
L 1675 -1272 
L 434 -1272 
z
" transform="scale(0.015625)"/>
       <path id="ArialMT-b0" d="M 400 3794 
Q 400 4153 654 4406 
Q 909 4659 1266 4659 
Q 1628 4659 1881 4406 
Q 2134 4153 2134 3794 
Q 2134 3434 1879 3179 
Q 1625 2925 1266 2925 
Q 909 2925 654 3178 
Q 400 3431 400 3794 
z
M 741 3794 
Q 741 3575 895 3420 
Q 1050 3266 1269 3266 
Q 1484 3266 1639 3420 
Q 1794 3575 1794 3794 
Q 1794 4013 1639 4167 
Q 1484 4322 1269 4322 
Q 1050 4322 895 4167 
Q 741 4013 741 3794 
z
" transform="scale(0.015625)"/>
       <path id="ArialMT-5d" d="M 1363 -1272 
L 122 -1272 
L 122 -806 
L 800 -806 
L 800 4116 
L 122 4116 
L 122 4581 
L 1363 4581 
L 1363 -1272 
z
" transform="scale(0.015625)"/>
      </defs>
      <use xlink:href="#ArialMT-3b1"/>
      <use xlink:href="#ArialMT-20" x="57.8125"/>
      <use xlink:href="#ArialMT-5b" x="85.595703"/>
      <use xlink:href="#ArialMT-b0" x="113.378906"/>
      <use xlink:href="#ArialMT-5d" x="153.369141"/>
     </g>
    </g>
   </g>
   <g id="matplotlib.axis_2">
    <g id="ytick_1">
     <g id="line2d_13">
      <path d="M 58.77 312.66 
L 510.676364 312.66 
" clip-path="url(#pe0ea2c5f42)" style="fill: none; stroke: #ffffff; stroke-linecap: round"/>
     </g>
     <g id="text_14">
      <!-- −0.05 -->
      <g style="fill: #262626" transform="translate(21.438281 316.596797)scale(0.11 -0.11)">
       <use xlink:href="#ArialMT-2212"/>
       <use xlink:href="#ArialMT-30" x="58.398438"/>
       <use xlink:href="#ArialMT-2e" x="114.013672"/>
       <use xlink:href="#ArialMT-30" x="141.796875"/>
       <use xlink:href="#ArialMT-35" x="197.412109"/>
      </g>
     </g>
    </g>
    <g id="ytick_2">
     <g id="line2d_14">
      <path d="M 58.77 269.845714 
L 510.676364 269.845714 
" clip-path="url(#pe0ea2c5f42)" style="fill: none; stroke: #ffffff; stroke-linecap: round"/>
     </g>
     <g id="text_15">
      <!-- 0.00 -->
      <g style="fill: #262626" transform="translate(27.862969 273.782511)scale(0.11 -0.11)">
       <use xlink:href="#ArialMT-30"/>
       <use xlink:href="#ArialMT-2e" x="55.615234"/>
       <use xlink:href="#ArialMT-30" x="83.398438"/>
       <use xlink:href="#ArialMT-30" x="139.013672"/>
      </g>
     </g>
    </g>
    <g id="ytick_3">
     <g id="line2d_15">
      <path d="M 58.77 227.031429 
L 510.676364 227.031429 
" clip-path="url(#pe0ea2c5f42)" style="fill: none; stroke: #ffffff; stroke-linecap: round"/>
     </g>
     <g id="text_16">
      <!-- 0.05 -->
      <g style="fill: #262626" transform="translate(27.862969 230.968225)scale(0.11 -0.11)">
       <use xlink:href="#ArialMT-30"/>
       <use xlink:href="#ArialMT-2e" x="55.615234"/>
       <use xlink:href="#ArialMT-30" x="83.398438"/>
       <use xlink:href="#ArialMT-35" x="139.013672"/>
      </g>
     </g>
    </g>
    <g id="ytick_4">
     <g id="line2d_16">
      <path d="M 58.77 184.217143 
L 510.676364 184.217143 
" clip-path="url(#pe0ea2c5f42)" style="fill: none; stroke: #ffffff; stroke-linecap: round"/>
     </g>
     <g id="text_17">
      <!-- 0.10 -->
      <g style="fill: #262626" transform="translate(27.862969 188.15394)scale(0.11 -0.11)">
       <use xlink:href="#ArialMT-30"/>
       <use xlink:href="#ArialMT-2e" x="55.615234"/>
       <use xlink:href="#ArialMT-31" x="83.398438"/>
       <use xlink:href="#ArialMT-30" x="139.013672"/>
      </g>
     </g>
    </g>
    <g id="ytick_5">
     <g id="line2d_17">
      <path d="M 58.77 141.402857 
L 510.676364 141.402857 
" clip-path="url(#pe0ea2c5f42)" style="fill: none; stroke: #ffffff; stroke-linecap: round"/>
     </g>
     <g id="text_18">
      <!-- 0.15 -->
      <g style="fill: #262626" transform="translate(27.862969 145.339654)scale(0.11 -0.11)">
       <use xlink:href="#ArialMT-30"/>
       <use xlink:href="#ArialMT-2e" x="55.615234"/>
       <use xlink:href="#ArialMT-31" x="83.398438"/>
       <use xlink:href="#ArialMT-35" x="139.013672"/>
      </g>
     </g>
    </g>
    <g id="ytick_6">
     <g id="line2d_18">
      <path d="M 58.77 98.588571 
L 510.676364 98.588571 
" clip-path="url(#pe0ea2c5f42)" style="fill: none; stroke: #ffffff; stroke-linecap: round"/>
     </g>
     <g id="text_19">
      <!-- 0.20 -->
      <g style="fill: #262626" transform="translate(27.862969 102.525368)scale(0.11 -0.11)">
       <use xlink:href="#ArialMT-30"/>
       <use xlink:href="#ArialMT-2e" x="55.615234"/>
       <use xlink:href="#ArialMT-32" x="83.398438"/>
       <use xlink:href="#ArialMT-30" x="139.013672"/>
      </g>
     </g>
    </g>
    <g id="ytick_7">
     <g id="line2d_19">
      <path d="M 58.77 55.774286 
L 510.676364 55.774286 
" clip-path="url(#pe0ea2c5f42)" style="fill: none; stroke: #ffffff; stroke-linecap: round"/>
     </g>
     <g id="text_20">
      <!-- 0.25 -->
      <g style="fill: #262626" transform="translate(27.862969 59.711083)scale(0.11 -0.11)">
       <use xlink:href="#ArialMT-30"/>
       <use xlink:href="#ArialMT-2e" x="55.615234"/>
       <use xlink:href="#ArialMT-32" x="83.398438"/>
       <use xlink:href="#ArialMT-35" x="139.013672"/>
      </g>
     </g>
    </g>
    <g id="ytick_8">
     <g id="line2d_20">
      <path d="M 58.77 12.96 
L 510.676364 12.96 
" clip-path="url(#pe0ea2c5f42)" style="fill: none; stroke: #ffffff; stroke-linecap: round"/>
     </g>
     <g id="text_21">
      <!-- 0.30 -->
      <g style="fill: #262626" transform="translate(27.862969 16.896797)scale(0.11 -0.11)">
       <defs>
        <path id="ArialMT-33" d="M 269 1209 
L 831 1284 
Q 928 806 1161 595 
Q 1394 384 1728 384 
Q 2125 384 2398 659 
Q 2672 934 2672 1341 
Q 2672 1728 2419 1979 
Q 2166 2231 1775 2231 
Q 1616 2231 1378 2169 
L 1441 2663 
Q 1497 2656 1531 2656 
Q 1891 2656 2178 2843 
Q 2466 3031 2466 3422 
Q 2466 3731 2256 3934 
Q 2047 4138 1716 4138 
Q 1388 4138 1169 3931 
Q 950 3725 888 3313 
L 325 3413 
Q 428 3978 793 4289 
Q 1159 4600 1703 4600 
Q 2078 4600 2393 4439 
Q 2709 4278 2876 4000 
Q 3044 3722 3044 3409 
Q 3044 3113 2884 2869 
Q 2725 2625 2413 2481 
Q 2819 2388 3044 2092 
Q 3269 1797 3269 1353 
Q 3269 753 2831 336 
Q 2394 -81 1725 -81 
Q 1122 -81 723 278 
Q 325 638 269 1209 
z
" transform="scale(0.015625)"/>
       </defs>
       <use xlink:href="#ArialMT-30"/>
       <use xlink:href="#ArialMT-2e" x="55.615234"/>
       <use xlink:href="#ArialMT-33" x="83.398438"/>
       <use xlink:href="#ArialMT-30" x="139.013672"/>
      </g>
     </g>
    </g>
    <g id="text_22">
     <!-- CD [-] -->
     <g style="fill: #262626" transform="translate(15.053281 178.474688)rotate(-90)scale(0.12 -0.12)">
      <defs>
       <path id="ArialMT-43" d="M 3763 1606 
L 4369 1453 
Q 4178 706 3683 314 
Q 3188 -78 2472 -78 
Q 1731 -78 1267 223 
Q 803 525 561 1097 
Q 319 1669 319 2325 
Q 319 3041 592 3573 
Q 866 4106 1370 4382 
Q 1875 4659 2481 4659 
Q 3169 4659 3637 4309 
Q 4106 3959 4291 3325 
L 3694 3184 
Q 3534 3684 3231 3912 
Q 2928 4141 2469 4141 
Q 1941 4141 1586 3887 
Q 1231 3634 1087 3207 
Q 944 2781 944 2328 
Q 944 1744 1114 1308 
Q 1284 872 1643 656 
Q 2003 441 2422 441 
Q 2931 441 3284 734 
Q 3638 1028 3763 1606 
z
" transform="scale(0.015625)"/>
       <path id="ArialMT-44" d="M 494 0 
L 494 4581 
L 2072 4581 
Q 2606 4581 2888 4516 
Q 3281 4425 3559 4188 
Q 3922 3881 4101 3404 
Q 4281 2928 4281 2316 
Q 4281 1794 4159 1391 
Q 4038 988 3847 723 
Q 3656 459 3429 307 
Q 3203 156 2883 78 
Q 2563 0 2147 0 
L 494 0 
z
M 1100 541 
L 2078 541 
Q 2531 541 2789 625 
Q 3047 709 3200 863 
Q 3416 1078 3536 1442 
Q 3656 1806 3656 2325 
Q 3656 3044 3420 3430 
Q 3184 3816 2847 3947 
Q 2603 4041 2063 4041 
L 1100 4041 
L 1100 541 
z
" transform="scale(0.015625)"/>
       <path id="ArialMT-2d" d="M 203 1375 
L 203 1941 
L 1931 1941 
L 1931 1375 
L 203 1375 
z
" transform="scale(0.015625)"/>
      </defs>
      <use xlink:href="#ArialMT-43"/>
      <use xlink:href="#ArialMT-44" x="72.216797"/>
      <use xlink:href="#ArialMT-20" x="144.433594"/>
      <use xlink:href="#ArialMT-5b" x="172.216797"/>
      <use xlink:href="#ArialMT-2d" x="200"/>
      <use xlink:href="#ArialMT-5d" x="233.300781"/>
     </g>
    </g>
   </g>
   <g id="PathCollection_1">
    <path d="M 162.080594 264.123588 
C 162.876203 264.123588 163.639333 263.807489 164.201914 263.244908 
C 164.764495 262.682328 165.080594 261.919197 165.080594 261.123588 
C 165.080594 260.327979 164.764495 259.564848 164.201914 259.002268 
C 163.639333 258.439687 162.876203 258.123588 162.080594 258.123588 
C 161.284984 258.123588 160.521854 258.439687 159.959273 259.002268 
C 159.396692 259.564848 159.080594 260.327979 159.080594 261.123588 
C 159.080594 261.919197 159.396692 262.682328 159.959273 263.244908 
C 160.521854 263.807489 161.284984 264.123588 162.080594 264.123588 
z
" clip-path="url(#pe0ea2c5f42)" style="fill: #a6cee3; stroke: #ffffff; stroke-width: 0.48"/>
    <path d="M 169.459922 265.022688 
C 170.255531 265.022688 171.018661 264.706589 171.581242 264.144008 
C 172.143823 263.581428 172.459922 262.818297 172.459922 262.022688 
C 172.459922 261.227079 172.143823 260.463948 171.581242 259.901368 
C 171.018661 259.338787 170.255531 259.022688 169.459922 259.022688 
C 168.664312 259.022688 167.901182 259.338787 167.338601 259.901368 
C 166.776021 260.463948 166.459922 261.227079 166.459922 262.022688 
C 166.459922 262.818297 166.776021 263.581428 167.338601 264.144008 
C 167.901182 264.706589 168.664312 265.022688 169.459922 265.022688 
z
" clip-path="url(#pe0ea2c5f42)" style="fill: #a6cee3; stroke: #ffffff; stroke-width: 0.48"/>
    <path d="M 176.83925 265.777932 
C 177.634859 265.777932 178.397989 265.461833 178.96057 264.899252 
C 179.523151 264.336672 179.83925 263.573541 179.83925 262.777932 
C 179.83925 261.982323 179.523151 261.219192 178.96057 260.656612 
C 178.397989 260.094031 177.634859 259.777932 176.83925 259.777932 
C 176.04364 259.777932 175.28051 260.094031 174.717929 260.656612 
C 174.155349 261.219192 173.83925 261.982323 173.83925 262.777932 
C 173.83925 263.573541 174.155349 264.336672 174.717929 264.899252 
C 175.28051 265.461833 176.04364 265.777932 176.83925 265.777932 
z
" clip-path="url(#pe0ea2c5f42)" style="fill: #a6cee3; stroke: #ffffff; stroke-width: 0.48"/>
    <path d="M 184.218578 266.372194 
C 185.014187 266.372194 185.777317 266.056095 186.339898 265.493515 
C 186.902479 264.930934 187.218578 264.167804 187.218578 263.372194 
C 187.218578 262.576585 186.902479 261.813455 186.339898 261.250874 
C 185.777317 260.688293 185.014187 260.372194 184.218578 260.372194 
C 183.422969 260.372194 182.659838 260.688293 182.097257 261.250874 
C 181.534677 261.813455 181.218578 262.576585 181.218578 263.372194 
C 181.218578 264.167804 181.534677 264.930934 182.097257 265.493515 
C 182.659838 266.056095 183.422969 266.372194 184.218578 266.372194 
z
" clip-path="url(#pe0ea2c5f42)" style="fill: #a6cee3; stroke: #ffffff; stroke-width: 0.48"/>
    <path d="M 191.597906 266.805475 
C 192.393515 266.805475 193.156646 266.489376 193.719226 265.926795 
C 194.281807 265.364214 194.597906 264.601084 194.597906 263.805475 
C 194.597906 263.009866 194.281807 262.246735 193.719226 261.684155 
C 193.156646 261.121574 192.393515 260.805475 191.597906 260.805475 
C 190.802297 260.805475 190.039166 261.121574 189.476586 261.684155 
C 188.914005 262.246735 188.597906 263.009866 188.597906 263.805475 
C 188.597906 264.601084 188.914005 265.364214 189.476586 265.926795 
C 190.039166 266.489376 190.802297 266.805475 191.597906 266.805475 
z
" clip-path="url(#pe0ea2c5f42)" style="fill: #a6cee3; stroke: #ffffff; stroke-width: 0.48"/>
    <path d="M 198.977234 267.069211 
C 199.772843 267.069211 200.535974 266.753112 201.098554 266.190531 
C 201.661135 265.62795 201.977234 264.86482 201.977234 264.069211 
C 201.977234 263.273602 201.661135 262.510471 201.098554 261.947891 
C 200.535974 261.38531 199.772843 261.069211 198.977234 261.069211 
C 198.181625 261.069211 197.418494 261.38531 196.855914 261.947891 
C 196.293333 262.510471 195.977234 263.273602 195.977234 264.069211 
C 195.977234 264.86482 196.293333 265.62795 196.855914 266.190531 
C 197.418494 266.753112 198.181625 267.069211 198.977234 267.069211 
z
" clip-path="url(#pe0ea2c5f42)" style="fill: #a6cee3; stroke: #ffffff; stroke-width: 0.48"/>
    <path d="M 206.356562 267.156552 
C 207.152171 267.156552 207.915302 266.840453 208.477882 266.277872 
C 209.040463 265.715292 209.356562 264.952161 209.356562 264.156552 
C 209.356562 263.360943 209.040463 262.597812 208.477882 262.035232 
C 207.915302 261.472651 207.152171 261.156552 206.356562 261.156552 
C 205.560953 261.156552 204.797823 261.472651 204.235242 262.035232 
C 203.672661 262.597812 203.356562 263.360943 203.356562 264.156552 
C 203.356562 264.952161 203.672661 265.715292 204.235242 266.277872 
C 204.797823 266.840453 205.560953 267.156552 206.356562 267.156552 
z
" clip-path="url(#pe0ea2c5f42)" style="fill: #a6cee3; stroke: #ffffff; stroke-width: 0.48"/>
    <path d="M 213.73589 267.073492 
C 214.5315 267.073492 215.29463 266.757393 215.857211 266.194813 
C 216.419791 265.632232 216.73589 264.869102 216.73589 264.073492 
C 216.73589 263.277883 216.419791 262.514753 215.857211 261.952172 
C 215.29463 261.389591 214.5315 261.073492 213.73589 261.073492 
C 212.940281 261.073492 212.177151 261.389591 211.61457 261.952172 
C 211.051989 262.514753 210.73589 263.277883 210.73589 264.073492 
C 210.73589 264.869102 211.051989 265.632232 211.61457 266.194813 
C 212.177151 266.757393 212.940281 267.073492 213.73589 267.073492 
z
" clip-path="url(#pe0ea2c5f42)" style="fill: #a6cee3; stroke: #ffffff; stroke-width: 0.48"/>
    <path d="M 221.115218 266.823457 
C 221.910828 266.823457 222.673958 266.507358 223.236539 265.944777 
C 223.799119 265.382196 224.115218 264.619066 224.115218 263.823457 
C 224.115218 263.027848 223.799119 262.264717 223.236539 261.702137 
C 222.673958 261.139556 221.910828 260.823457 221.115218 260.823457 
C 220.319609 260.823457 219.556479 261.139556 218.993898 261.702137 
C 218.431317 262.264717 218.115218 263.027848 218.115218 263.823457 
C 218.115218 264.619066 218.431317 265.382196 218.993898 265.944777 
C 219.556479 266.507358 220.319609 266.823457 221.115218 266.823457 
z
" clip-path="url(#pe0ea2c5f42)" style="fill: #a6cee3; stroke: #ffffff; stroke-width: 0.48"/>
    <path d="M 228.494546 266.397883 
C 229.290156 266.397883 230.053286 266.081784 230.615867 265.519203 
C 231.178448 264.956622 231.494546 264.193492 231.494546 263.397883 
C 231.494546 262.602274 231.178448 261.839143 230.615867 261.276563 
C 230.053286 260.713982 229.290156 260.397883 228.494546 260.397883 
C 227.698937 260.397883 226.935807 260.713982 226.373226 261.276563 
C 225.810645 261.839143 225.494546 262.602274 225.494546 263.397883 
C 225.494546 264.193492 225.810645 264.956622 226.373226 265.519203 
C 226.935807 266.081784 227.698937 266.397883 228.494546 266.397883 
z
" clip-path="url(#pe0ea2c5f42)" style="fill: #a6cee3; stroke: #ffffff; stroke-width: 0.48"/>
    <path d="M 235.873875 265.795058 
C 236.669484 265.795058 237.432614 265.478959 237.995195 264.916378 
C 238.557776 264.353797 238.873875 263.590667 238.873875 262.795058 
C 238.873875 261.999448 238.557776 261.236318 237.995195 260.673737 
C 237.432614 260.111157 236.669484 259.795058 235.873875 259.795058 
C 235.078265 259.795058 234.315135 260.111157 233.752554 260.673737 
C 233.189974 261.236318 232.873875 261.999448 232.873875 262.795058 
C 232.873875 263.590667 233.189974 264.353797 233.752554 264.916378 
C 234.315135 265.478959 235.078265 265.795058 235.873875 265.795058 
z
" clip-path="url(#pe0ea2c5f42)" style="fill: #a6cee3; stroke: #ffffff; stroke-width: 0.48"/>
    <path d="M 243.253203 265.032107 
C 244.048812 265.032107 244.811942 264.716008 245.374523 264.153427 
C 245.937104 263.590847 246.253203 262.827716 246.253203 262.032107 
C 246.253203 261.236498 245.937104 260.473368 245.374523 259.910787 
C 244.811942 259.348206 244.048812 259.032107 243.253203 259.032107 
C 242.457593 259.032107 241.694463 259.348206 241.131882 259.910787 
C 240.569302 260.473368 240.253203 261.236498 240.253203 262.032107 
C 240.253203 262.827716 240.569302 263.590847 241.131882 264.153427 
C 241.694463 264.716008 242.457593 265.032107 243.253203 265.032107 
z
" clip-path="url(#pe0ea2c5f42)" style="fill: #a6cee3; stroke: #ffffff; stroke-width: 0.48"/>
    <path d="M 250.632531 264.106462 
C 251.42814 264.106462 252.19127 263.790363 252.753851 263.227783 
C 253.316432 262.665202 253.632531 261.902072 253.632531 261.106462 
C 253.632531 260.310853 253.316432 259.547723 252.753851 258.985142 
C 252.19127 258.422561 251.42814 258.106462 250.632531 258.106462 
C 249.836921 258.106462 249.073791 258.422561 248.51121 258.985142 
C 247.94863 259.547723 247.632531 260.310853 247.632531 261.106462 
C 247.632531 261.902072 247.94863 262.665202 248.51121 263.227783 
C 249.073791 263.790363 249.836921 264.106462 250.632531 264.106462 
z
" clip-path="url(#pe0ea2c5f42)" style="fill: #a6cee3; stroke: #ffffff; stroke-width: 0.48"/>
    <path d="M 258.011859 263.019836 
C 258.807468 263.019836 259.570599 262.703737 260.133179 262.141156 
C 260.69576 261.578575 261.011859 260.815445 261.011859 260.019836 
C 261.011859 259.224226 260.69576 258.461096 260.133179 257.898515 
C 259.570599 257.335935 258.807468 257.019836 258.011859 257.019836 
C 257.21625 257.019836 256.453119 257.335935 255.890539 257.898515 
C 255.327958 258.461096 255.011859 259.224226 255.011859 260.019836 
C 255.011859 260.815445 255.327958 261.578575 255.890539 262.141156 
C 256.453119 262.703737 257.21625 263.019836 258.011859 263.019836 
z
" clip-path="url(#pe0ea2c5f42)" style="fill: #a6cee3; stroke: #ffffff; stroke-width: 0.48"/>
    <path d="M 265.391187 261.769659 
C 266.186796 261.769659 266.949927 261.45356 267.512507 260.890979 
C 268.075088 260.328398 268.391187 259.565268 268.391187 258.769659 
C 268.391187 257.974049 268.075088 257.210919 267.512507 256.648338 
C 266.949927 256.085757 266.186796 255.769659 265.391187 255.769659 
C 264.595578 255.769659 263.832447 256.085757 263.269867 256.648338 
C 262.707286 257.210919 262.391187 257.974049 262.391187 258.769659 
C 262.391187 259.565268 262.707286 260.328398 263.269867 260.890979 
C 263.832447 261.45356 264.595578 261.769659 265.391187 261.769659 
z
" clip-path="url(#pe0ea2c5f42)" style="fill: #a6cee3; stroke: #ffffff; stroke-width: 0.48"/>
    <path d="M 272.770515 260.349937 
C 273.566124 260.349937 274.329255 260.033838 274.891835 259.471257 
C 275.454416 258.908676 275.770515 258.145546 275.770515 257.349937 
C 275.770515 256.554328 275.454416 255.791197 274.891835 255.228617 
C 274.329255 254.666036 273.566124 254.349937 272.770515 254.349937 
C 271.974906 254.349937 271.211776 254.666036 270.649195 255.228617 
C 270.086614 255.791197 269.770515 256.554328 269.770515 257.349937 
C 269.770515 258.145546 270.086614 258.908676 270.649195 259.471257 
C 271.211776 260.033838 271.974906 260.349937 272.770515 260.349937 
z
" clip-path="url(#pe0ea2c5f42)" style="fill: #a6cee3; stroke: #ffffff; stroke-width: 0.48"/>
    <path d="M 280.149843 258.74697 
C 280.945453 258.74697 281.708583 258.430871 282.271164 257.86829 
C 282.833744 257.30571 283.149843 256.542579 283.149843 255.74697 
C 283.149843 254.951361 282.833744 254.18823 282.271164 253.62565 
C 281.708583 253.063069 280.945453 252.74697 280.149843 252.74697 
C 279.354234 252.74697 278.591104 253.063069 278.028523 253.62565 
C 277.465942 254.18823 277.149843 254.951361 277.149843 255.74697 
C 277.149843 256.542579 277.465942 257.30571 278.028523 257.86829 
C 278.591104 258.430871 279.354234 258.74697 280.149843 258.74697 
z
" clip-path="url(#pe0ea2c5f42)" style="fill: #a6cee3; stroke: #ffffff; stroke-width: 0.48"/>
    <path d="M 287.529171 256.972746 
C 288.324781 256.972746 289.087911 256.656647 289.650492 256.094066 
C 290.213072 255.531486 290.529171 254.768355 290.529171 253.972746 
C 290.529171 253.177137 290.213072 252.414006 289.650492 251.851426 
C 289.087911 251.288845 288.324781 250.972746 287.529171 250.972746 
C 286.733562 250.972746 285.970432 251.288845 285.407851 251.851426 
C 284.84527 252.414006 284.529171 253.177137 284.529171 253.972746 
C 284.529171 254.768355 284.84527 255.531486 285.407851 256.094066 
C 285.970432 256.656647 286.733562 256.972746 287.529171 256.972746 
z
" clip-path="url(#pe0ea2c5f42)" style="fill: #a6cee3; stroke: #ffffff; stroke-width: 0.48"/>
    <path d="M 294.908499 254.881696 
C 295.704109 254.881696 296.467239 254.565597 297.02982 254.003017 
C 297.592401 253.440436 297.908499 252.677306 297.908499 251.881696 
C 297.908499 251.086087 297.592401 250.322957 297.02982 249.760376 
C 296.467239 249.197795 295.704109 248.881696 294.908499 248.881696 
C 294.11289 248.881696 293.34976 249.197795 292.787179 249.760376 
C 292.224598 250.322957 291.908499 251.086087 291.908499 251.881696 
C 291.908499 252.677306 292.224598 253.440436 292.787179 254.003017 
C 293.34976 254.565597 294.11289 254.881696 294.908499 254.881696 
z
" clip-path="url(#pe0ea2c5f42)" style="fill: #a6cee3; stroke: #ffffff; stroke-width: 0.48"/>
    <path d="M 302.287828 252.528623 
C 303.083437 252.528623 303.846567 252.212524 304.409148 251.649943 
C 304.971729 251.087363 305.287828 250.324232 305.287828 249.528623 
C 305.287828 248.733014 304.971729 247.969884 304.409148 247.407303 
C 303.846567 246.844722 303.083437 246.528623 302.287828 246.528623 
C 301.492218 246.528623 300.729088 246.844722 300.166507 247.407303 
C 299.603926 247.969884 299.287828 248.733014 299.287828 249.528623 
C 299.287828 250.324232 299.603926 251.087363 300.166507 251.649943 
C 300.729088 252.212524 301.492218 252.528623 302.287828 252.528623 
z
" clip-path="url(#pe0ea2c5f42)" style="fill: #a6cee3; stroke: #ffffff; stroke-width: 0.48"/>
    <path d="M 309.667156 250.063377 
C 310.462765 250.063377 311.225895 249.747278 311.788476 249.184697 
C 312.351057 248.622116 312.667156 247.858986 312.667156 247.063377 
C 312.667156 246.267767 312.351057 245.504637 311.788476 244.942056 
C 311.225895 244.379475 310.462765 244.063377 309.667156 244.063377 
C 308.871546 244.063377 308.108416 244.379475 307.545835 244.942056 
C 306.983255 245.504637 306.667156 246.267767 306.667156 247.063377 
C 306.667156 247.858986 306.983255 248.622116 307.545835 249.184697 
C 308.108416 249.747278 308.871546 250.063377 309.667156 250.063377 
z
" clip-path="url(#pe0ea2c5f42)" style="fill: #a6cee3; stroke: #ffffff; stroke-width: 0.48"/>
    <path d="M 317.046484 247.550178 
C 317.842093 247.550178 318.605223 247.234079 319.167804 246.671498 
C 319.730385 246.108918 320.046484 245.345787 320.046484 244.550178 
C 320.046484 243.754569 319.730385 242.991438 319.167804 242.428858 
C 318.605223 241.866277 317.842093 241.550178 317.046484 241.550178 
C 316.250874 241.550178 315.487744 241.866277 314.925163 242.428858 
C 314.362583 242.991438 314.046484 243.754569 314.046484 244.550178 
C 314.046484 245.345787 314.362583 246.108918 314.925163 246.671498 
C 315.487744 247.234079 316.250874 247.550178 317.046484 247.550178 
z
" clip-path="url(#pe0ea2c5f42)" style="fill: #a6cee3; stroke: #ffffff; stroke-width: 0.48"/>
    <path d="M 324.425812 244.96077 
C 325.221421 244.96077 325.984551 244.644671 326.547132 244.08209 
C 327.109713 243.51951 327.425812 242.756379 327.425812 241.96077 
C 327.425812 241.165161 327.109713 240.40203 326.547132 239.83945 
C 325.984551 239.276869 325.221421 238.96077 324.425812 238.96077 
C 323.630203 238.96077 322.867072 239.276869 322.304492 239.83945 
C 321.741911 240.40203 321.425812 241.165161 321.425812 241.96077 
C 321.425812 242.756379 321.741911 243.51951 322.304492 244.08209 
C 322.867072 244.644671 323.630203 244.96077 324.425812 244.96077 
z
" clip-path="url(#pe0ea2c5f42)" style="fill: #a6cee3; stroke: #ffffff; stroke-width: 0.48"/>
    <path d="M 331.80514 242.290015 
C 332.600749 242.290015 333.36388 241.973916 333.92646 241.411335 
C 334.489041 240.848754 334.80514 240.085624 334.80514 239.290015 
C 334.80514 238.494406 334.489041 237.731275 333.92646 237.168695 
C 333.36388 236.606114 332.600749 236.290015 331.80514 236.290015 
C 331.009531 236.290015 330.2464 236.606114 329.68382 237.168695 
C 329.121239 237.731275 328.80514 238.494406 328.80514 239.290015 
C 328.80514 240.085624 329.121239 240.848754 329.68382 241.411335 
C 330.2464 241.973916 331.009531 242.290015 331.80514 242.290015 
z
" clip-path="url(#pe0ea2c5f42)" style="fill: #a6cee3; stroke: #ffffff; stroke-width: 0.48"/>
    <path d="M 339.184468 239.501092 
C 339.980077 239.501092 340.743208 239.184993 341.305788 238.622413 
C 341.868369 238.059832 342.184468 237.296702 342.184468 236.501092 
C 342.184468 235.705483 341.868369 234.942353 341.305788 234.379772 
C 340.743208 233.817191 339.980077 233.501092 339.184468 233.501092 
C 338.388859 233.501092 337.625728 233.817191 337.063148 234.379772 
C 336.500567 234.942353 336.184468 235.705483 336.184468 236.501092 
C 336.184468 237.296702 336.500567 238.059832 337.063148 238.622413 
C 337.625728 239.184993 338.388859 239.501092 339.184468 239.501092 
z
" clip-path="url(#pe0ea2c5f42)" style="fill: #a6cee3; stroke: #ffffff; stroke-width: 0.48"/>
    <path d="M 346.563796 236.464703 
C 347.359405 236.464703 348.122536 236.148604 348.685117 235.586023 
C 349.247697 235.023443 349.563796 234.260312 349.563796 233.464703 
C 349.563796 232.669094 349.247697 231.905964 348.685117 231.343383 
C 348.122536 230.780802 347.359405 230.464703 346.563796 230.464703 
C 345.768187 230.464703 345.005057 230.780802 344.442476 231.343383 
C 343.879895 231.905964 343.563796 232.669094 343.563796 233.464703 
C 343.563796 234.260312 343.879895 235.023443 344.442476 235.586023 
C 345.005057 236.148604 345.768187 236.464703 346.563796 236.464703 
z
" clip-path="url(#pe0ea2c5f42)" style="fill: #a6cee3; stroke: #ffffff; stroke-width: 0.48"/>
    <path d="M 353.943124 233.089225 
C 354.738734 233.089225 355.501864 232.773126 356.064445 232.210545 
C 356.627025 231.647964 356.943124 230.884834 356.943124 230.089225 
C 356.943124 229.293616 356.627025 228.530485 356.064445 227.967905 
C 355.501864 227.405324 354.738734 227.089225 353.943124 227.089225 
C 353.147515 227.089225 352.384385 227.405324 351.821804 227.967905 
C 351.259223 228.530485 350.943124 229.293616 350.943124 230.089225 
C 350.943124 230.884834 351.259223 231.647964 351.821804 232.210545 
C 352.384385 232.773126 353.147515 233.089225 353.943124 233.089225 
z
" clip-path="url(#pe0ea2c5f42)" style="fill: #a6cee3; stroke: #ffffff; stroke-width: 0.48"/>
    <path d="M 361.322452 229.374657 
C 362.118062 229.374657 362.881192 229.058559 363.443773 228.495978 
C 364.006353 227.933397 364.322452 227.170267 364.322452 226.374657 
C 364.322452 225.579048 364.006353 224.815918 363.443773 224.253337 
C 362.881192 223.690756 362.118062 223.374657 361.322452 223.374657 
C 360.526843 223.374657 359.763713 223.690756 359.201132 224.253337 
C 358.638551 224.815918 358.322452 225.579048 358.322452 226.374657 
C 358.322452 227.170267 358.638551 227.933397 359.201132 228.495978 
C 359.763713 229.058559 360.526843 229.374657 361.322452 229.374657 
z
" clip-path="url(#pe0ea2c5f42)" style="fill: #a6cee3; stroke: #ffffff; stroke-width: 0.48"/>
    <path d="M 368.701781 225.535929 
C 369.49739 225.535929 370.26052 225.21983 370.823101 224.657249 
C 371.385682 224.094668 371.701781 223.331538 371.701781 222.535929 
C 371.701781 221.740319 371.385682 220.977189 370.823101 220.414608 
C 370.26052 219.852027 369.49739 219.535929 368.701781 219.535929 
C 367.906171 219.535929 367.143041 219.852027 366.58046 220.414608 
C 366.017879 220.977189 365.701781 221.740319 365.701781 222.535929 
C 365.701781 223.331538 366.017879 224.094668 366.58046 224.657249 
C 367.143041 225.21983 367.906171 225.535929 368.701781 225.535929 
z
" clip-path="url(#pe0ea2c5f42)" style="fill: #a6cee3; stroke: #ffffff; stroke-width: 0.48"/>
    <path d="M 376.081109 222.057696 
C 376.876718 222.057696 377.639848 221.741597 378.202429 221.179016 
C 378.76501 220.616436 379.081109 219.853305 379.081109 219.057696 
C 379.081109 218.262087 378.76501 217.498956 378.202429 216.936376 
C 377.639848 216.373795 376.876718 216.057696 376.081109 216.057696 
C 375.285499 216.057696 374.522369 216.373795 373.959788 216.936376 
C 373.397208 217.498956 373.081109 218.262087 373.081109 219.057696 
C 373.081109 219.853305 373.397208 220.616436 373.959788 221.179016 
C 374.522369 221.741597 375.285499 222.057696 376.081109 222.057696 
z
" clip-path="url(#pe0ea2c5f42)" style="fill: #a6cee3; stroke: #ffffff; stroke-width: 0.48"/>
    <path d="M 383.460437 218.767846 
C 384.256046 218.767846 385.019176 218.451747 385.581757 217.889167 
C 386.144338 217.326586 386.460437 216.563456 386.460437 215.767846 
C 386.460437 214.972237 386.144338 214.209107 385.581757 213.646526 
C 385.019176 213.083945 384.256046 212.767846 383.460437 212.767846 
C 382.664827 212.767846 381.901697 213.083945 381.339116 213.646526 
C 380.776536 214.209107 380.460437 214.972237 380.460437 215.767846 
C 380.460437 216.563456 380.776536 217.326586 381.339116 217.889167 
C 381.901697 218.451747 382.664827 218.767846 383.460437 218.767846 
z
" clip-path="url(#pe0ea2c5f42)" style="fill: #a6cee3; stroke: #ffffff; stroke-width: 0.48"/>
    <path d="M 390.839765 215.356404 
C 391.635374 215.356404 392.398504 215.040305 392.961085 214.477724 
C 393.523666 213.915144 393.839765 213.152013 393.839765 212.356404 
C 393.839765 211.560795 393.523666 210.797664 392.961085 210.235084 
C 392.398504 209.672503 391.635374 209.356404 390.839765 209.356404 
C 390.044156 209.356404 389.281025 209.672503 388.718444 210.235084 
C 388.155864 210.797664 387.839765 211.560795 387.839765 212.356404 
C 387.839765 213.152013 388.155864 213.915144 388.718444 214.477724 
C 389.281025 215.040305 390.044156 215.356404 390.839765 215.356404 
z
" clip-path="url(#pe0ea2c5f42)" style="fill: #a6cee3; stroke: #ffffff; stroke-width: 0.48"/>
    <path d="M 398.219093 211.866183 
C 399.014702 211.866183 399.777833 211.550085 400.340413 210.987504 
C 400.902994 210.424923 401.219093 209.661793 401.219093 208.866183 
C 401.219093 208.070574 400.902994 207.307444 400.340413 206.744863 
C 399.777833 206.182282 399.014702 205.866183 398.219093 205.866183 
C 397.423484 205.866183 396.660353 206.182282 396.097773 206.744863 
C 395.535192 207.307444 395.219093 208.070574 395.219093 208.866183 
C 395.219093 209.661793 395.535192 210.424923 396.097773 210.987504 
C 396.660353 211.550085 397.423484 211.866183 398.219093 211.866183 
z
" clip-path="url(#pe0ea2c5f42)" style="fill: #a6cee3; stroke: #ffffff; stroke-width: 0.48"/>
    <path d="M 405.598421 208.226969 
C 406.39403 208.226969 407.157161 207.91087 407.719741 207.348289 
C 408.282322 206.785709 408.598421 206.022578 408.598421 205.226969 
C 408.598421 204.43136 408.282322 203.66823 407.719741 203.105649 
C 407.157161 202.543068 406.39403 202.226969 405.598421 202.226969 
C 404.802812 202.226969 404.039681 202.543068 403.477101 203.105649 
C 402.91452 203.66823 402.598421 204.43136 402.598421 205.226969 
C 402.598421 206.022578 402.91452 206.785709 403.477101 207.348289 
C 404.039681 207.91087 404.802812 208.226969 405.598421 208.226969 
z
" clip-path="url(#pe0ea2c5f42)" style="fill: #a6cee3; stroke: #ffffff; stroke-width: 0.48"/>
    <path d="M 412.977749 204.559497 
C 413.773358 204.559497 414.536489 204.243399 415.09907 203.680818 
C 415.66165 203.118237 415.977749 202.355107 415.977749 201.559497 
C 415.977749 200.763888 415.66165 200.000758 415.09907 199.438177 
C 414.536489 198.875596 413.773358 198.559497 412.977749 198.559497 
C 412.18214 198.559497 411.41901 198.875596 410.856429 199.438177 
C 410.293848 200.000758 409.977749 200.763888 409.977749 201.559497 
C 409.977749 202.355107 410.293848 203.118237 410.856429 203.680818 
C 411.41901 204.243399 412.18214 204.559497 412.977749 204.559497 
z
" clip-path="url(#pe0ea2c5f42)" style="fill: #a6cee3; stroke: #ffffff; stroke-width: 0.48"/>
    <path d="M 420.357077 200.659972 
C 421.152687 200.659972 421.915817 200.343873 422.478398 199.781293 
C 423.040978 199.218712 423.357077 198.455582 423.357077 197.659972 
C 423.357077 196.864363 423.040978 196.101233 422.478398 195.538652 
C 421.915817 194.976071 421.152687 194.659972 420.357077 194.659972 
C 419.561468 194.659972 418.798338 194.976071 418.235757 195.538652 
C 417.673176 196.101233 417.357077 196.864363 417.357077 197.659972 
C 417.357077 198.455582 417.673176 199.218712 418.235757 199.781293 
C 418.798338 200.343873 419.561468 200.659972 420.357077 200.659972 
z
" clip-path="url(#pe0ea2c5f42)" style="fill: #a6cee3; stroke: #ffffff; stroke-width: 0.48"/>
    <path d="M 427.736405 196.548088 
C 428.532015 196.548088 429.295145 196.231989 429.857726 195.669409 
C 430.420306 195.106828 430.736405 194.343698 430.736405 193.548088 
C 430.736405 192.752479 430.420306 191.989349 429.857726 191.426768 
C 429.295145 190.864187 428.532015 190.548088 427.736405 190.548088 
C 426.940796 190.548088 426.177666 190.864187 425.615085 191.426768 
C 425.052504 191.989349 424.736405 192.752479 424.736405 193.548088 
C 424.736405 194.343698 425.052504 195.106828 425.615085 195.669409 
C 426.177666 196.231989 426.940796 196.548088 427.736405 196.548088 
z
" clip-path="url(#pe0ea2c5f42)" style="fill: #a6cee3; stroke: #ffffff; stroke-width: 0.48"/>
    <path d="M 435.115733 192.563791 
C 435.911343 192.563791 436.674473 192.247692 437.237054 191.685111 
C 437.799635 191.12253 438.115733 190.3594 438.115733 189.563791 
C 438.115733 188.768182 437.799635 188.005051 437.237054 187.442471 
C 436.674473 186.87989 435.911343 186.563791 435.115733 186.563791 
C 434.320124 186.563791 433.556994 186.87989 432.994413 187.442471 
C 432.431832 188.005051 432.115733 188.768182 432.115733 189.563791 
C 432.115733 190.3594 432.431832 191.12253 432.994413 191.685111 
C 433.556994 192.247692 434.320124 192.563791 435.115733 192.563791 
z
" clip-path="url(#pe0ea2c5f42)" style="fill: #a6cee3; stroke: #ffffff; stroke-width: 0.48"/>
    <path d="M 442.495062 188.388542 
C 443.290671 188.388542 444.053801 188.072443 444.616382 187.509862 
C 445.178963 186.947281 445.495062 186.184151 445.495062 185.388542 
C 445.495062 184.592932 445.178963 183.829802 444.616382 183.267221 
C 444.053801 182.704641 443.290671 182.388542 442.495062 182.388542 
C 441.699452 182.388542 440.936322 182.704641 440.373741 183.267221 
C 439.811161 183.829802 439.495062 184.592932 439.495062 185.388542 
C 439.495062 186.184151 439.811161 186.947281 440.373741 187.509862 
C 440.936322 188.072443 441.699452 188.388542 442.495062 188.388542 
z
" clip-path="url(#pe0ea2c5f42)" style="fill: #a6cee3; stroke: #ffffff; stroke-width: 0.48"/>
    <path d="M 449.87439 184.023197 
C 450.669999 184.023197 451.433129 183.707098 451.99571 183.144517 
C 452.558291 182.581937 452.87439 181.818806 452.87439 181.023197 
C 452.87439 180.227588 452.558291 179.464458 451.99571 178.901877 
C 451.433129 178.339296 450.669999 178.023197 449.87439 178.023197 
C 449.07878 178.023197 448.31565 178.339296 447.753069 178.901877 
C 447.190489 179.464458 446.87439 180.227588 446.87439 181.023197 
C 446.87439 181.818806 447.190489 182.581937 447.753069 183.144517 
C 448.31565 183.707098 449.07878 184.023197 449.87439 184.023197 
z
" clip-path="url(#pe0ea2c5f42)" style="fill: #a6cee3; stroke: #ffffff; stroke-width: 0.48"/>
    <path d="M 457.253718 179.474607 
C 458.049327 179.474607 458.812457 179.158509 459.375038 178.595928 
C 459.937619 178.033347 460.253718 177.270217 460.253718 176.474607 
C 460.253718 175.678998 459.937619 174.915868 459.375038 174.353287 
C 458.812457 173.790706 458.049327 173.474607 457.253718 173.474607 
C 456.458109 173.474607 455.694978 173.790706 455.132397 174.353287 
C 454.569817 174.915868 454.253718 175.678998 454.253718 176.474607 
C 454.253718 177.270217 454.569817 178.033347 455.132397 178.595928 
C 455.694978 179.158509 456.458109 179.474607 457.253718 179.474607 
z
" clip-path="url(#pe0ea2c5f42)" style="fill: #a6cee3; stroke: #ffffff; stroke-width: 0.48"/>
    <path d="M 464.633046 174.729072 
C 465.428655 174.729072 466.191786 174.412973 466.754366 173.850392 
C 467.316947 173.287812 467.633046 172.524681 467.633046 171.729072 
C 467.633046 170.933463 467.316947 170.170332 466.754366 169.607752 
C 466.191786 169.045171 465.428655 168.729072 464.633046 168.729072 
C 463.837437 168.729072 463.074306 169.045171 462.511726 169.607752 
C 461.949145 170.170332 461.633046 170.933463 461.633046 171.729072 
C 461.633046 172.524681 461.949145 173.287812 462.511726 173.850392 
C 463.074306 174.412973 463.837437 174.729072 464.633046 174.729072 
z
" clip-path="url(#pe0ea2c5f42)" style="fill: #a6cee3; stroke: #ffffff; stroke-width: 0.48"/>
    <path d="M 472.012374 169.651298 
C 472.807983 169.651298 473.571114 169.335199 474.133694 168.772618 
C 474.696275 168.210037 475.012374 167.446907 475.012374 166.651298 
C 475.012374 165.855688 474.696275 165.092558 474.133694 164.529977 
C 473.571114 163.967397 472.807983 163.651298 472.012374 163.651298 
C 471.216765 163.651298 470.453634 163.967397 469.891054 164.529977 
C 469.328473 165.092558 469.012374 165.855688 469.012374 166.651298 
C 469.012374 167.446907 469.328473 168.210037 469.891054 168.772618 
C 470.453634 169.335199 471.216765 169.651298 472.012374 169.651298 
z
" clip-path="url(#pe0ea2c5f42)" style="fill: #a6cee3; stroke: #ffffff; stroke-width: 0.48"/>
    <path d="M 479.391702 164.127399 
C 480.187311 164.127399 480.950442 163.8113 481.513022 163.248719 
C 482.075603 162.686138 482.391702 161.923008 482.391702 161.127399 
C 482.391702 160.331789 482.075603 159.568659 481.513022 159.006078 
C 480.950442 158.443497 480.187311 158.127399 479.391702 158.127399 
C 478.596093 158.127399 477.832963 158.443497 477.270382 159.006078 
C 476.707801 159.568659 476.391702 160.331789 476.391702 161.127399 
C 476.391702 161.923008 476.707801 162.686138 477.270382 163.248719 
C 477.832963 163.8113 478.596093 164.127399 479.391702 164.127399 
z
" clip-path="url(#pe0ea2c5f42)" style="fill: #a6cee3; stroke: #ffffff; stroke-width: 0.48"/>
   </g>
   <g id="PathCollection_2">
    <path d="M 162.080594 264.123588 
C 162.876203 264.123588 163.639333 263.807489 164.201914 263.244908 
C 164.764495 262.682328 165.080594 261.919197 165.080594 261.123588 
C 165.080594 260.327979 164.764495 259.564848 164.201914 259.002268 
C 163.639333 258.439687 162.876203 258.123588 162.080594 258.123588 
C 161.284984 258.123588 160.521854 258.439687 159.959273 259.002268 
C 159.396692 259.564848 159.080594 260.327979 159.080594 261.123588 
C 159.080594 261.919197 159.396692 262.682328 159.959273 263.244908 
C 160.521854 263.807489 161.284984 264.123588 162.080594 264.123588 
z
" clip-path="url(#pe0ea2c5f42)" style="fill: #a6cee3; stroke: #ffffff; stroke-width: 0.48"/>
    <path d="M 169.459922 265.022688 
C 170.255531 265.022688 171.018661 264.706589 171.581242 264.144008 
C 172.143823 263.581428 172.459922 262.818297 172.459922 262.022688 
C 172.459922 261.227079 172.143823 260.463948 171.581242 259.901368 
C 171.018661 259.338787 170.255531 259.022688 169.459922 259.022688 
C 168.664312 259.022688 167.901182 259.338787 167.338601 259.901368 
C 166.776021 260.463948 166.459922 261.227079 166.459922 262.022688 
C 166.459922 262.818297 166.776021 263.581428 167.338601 264.144008 
C 167.901182 264.706589 168.664312 265.022688 169.459922 265.022688 
z
" clip-path="url(#pe0ea2c5f42)" style="fill: #a6cee3; stroke: #ffffff; stroke-width: 0.48"/>
    <path d="M 176.83925 265.777932 
C 177.634859 265.777932 178.397989 265.461833 178.96057 264.899252 
C 179.523151 264.336672 179.83925 263.573541 179.83925 262.777932 
C 179.83925 261.982323 179.523151 261.219192 178.96057 260.656612 
C 178.397989 260.094031 177.634859 259.777932 176.83925 259.777932 
C 176.04364 259.777932 175.28051 260.094031 174.717929 260.656612 
C 174.155349 261.219192 173.83925 261.982323 173.83925 262.777932 
C 173.83925 263.573541 174.155349 264.336672 174.717929 264.899252 
C 175.28051 265.461833 176.04364 265.777932 176.83925 265.777932 
z
" clip-path="url(#pe0ea2c5f42)" style="fill: #a6cee3; stroke: #ffffff; stroke-width: 0.48"/>
    <path d="M 184.218578 266.372194 
C 185.014187 266.372194 185.777317 266.056095 186.339898 265.493515 
C 186.902479 264.930934 187.218578 264.167804 187.218578 263.372194 
C 187.218578 262.576585 186.902479 261.813455 186.339898 261.250874 
C 185.777317 260.688293 185.014187 260.372194 184.218578 260.372194 
C 183.422969 260.372194 182.659838 260.688293 182.097257 261.250874 
C 181.534677 261.813455 181.218578 262.576585 181.218578 263.372194 
C 181.218578 264.167804 181.534677 264.930934 182.097257 265.493515 
C 182.659838 266.056095 183.422969 266.372194 184.218578 266.372194 
z
" clip-path="url(#pe0ea2c5f42)" style="fill: #a6cee3; stroke: #ffffff; stroke-width: 0.48"/>
    <path d="M 191.597906 266.805475 
C 192.393515 266.805475 193.156646 266.489376 193.719226 265.926795 
C 194.281807 265.364214 194.597906 264.601084 194.597906 263.805475 
C 194.597906 263.009866 194.281807 262.246735 193.719226 261.684155 
C 193.156646 261.121574 192.393515 260.805475 191.597906 260.805475 
C 190.802297 260.805475 190.039166 261.121574 189.476586 261.684155 
C 188.914005 262.246735 188.597906 263.009866 188.597906 263.805475 
C 188.597906 264.601084 188.914005 265.364214 189.476586 265.926795 
C 190.039166 266.489376 190.802297 266.805475 191.597906 266.805475 
z
" clip-path="url(#pe0ea2c5f42)" style="fill: #a6cee3; stroke: #ffffff; stroke-width: 0.48"/>
    <path d="M 198.977234 267.069211 
C 199.772843 267.069211 200.535974 266.753112 201.098554 266.190531 
C 201.661135 265.62795 201.977234 264.86482 201.977234 264.069211 
C 201.977234 263.273602 201.661135 262.510471 201.098554 261.947891 
C 200.535974 261.38531 199.772843 261.069211 198.977234 261.069211 
C 198.181625 261.069211 197.418494 261.38531 196.855914 261.947891 
C 196.293333 262.510471 195.977234 263.273602 195.977234 264.069211 
C 195.977234 264.86482 196.293333 265.62795 196.855914 266.190531 
C 197.418494 266.753112 198.181625 267.069211 198.977234 267.069211 
z
" clip-path="url(#pe0ea2c5f42)" style="fill: #a6cee3; stroke: #ffffff; stroke-width: 0.48"/>
    <path d="M 206.356562 267.156552 
C 207.152171 267.156552 207.915302 266.840453 208.477882 266.277872 
C 209.040463 265.715292 209.356562 264.952161 209.356562 264.156552 
C 209.356562 263.360943 209.040463 262.597812 208.477882 262.035232 
C 207.915302 261.472651 207.152171 261.156552 206.356562 261.156552 
C 205.560953 261.156552 204.797823 261.472651 204.235242 262.035232 
C 203.672661 262.597812 203.356562 263.360943 203.356562 264.156552 
C 203.356562 264.952161 203.672661 265.715292 204.235242 266.277872 
C 204.797823 266.840453 205.560953 267.156552 206.356562 267.156552 
z
" clip-path="url(#pe0ea2c5f42)" style="fill: #a6cee3; stroke: #ffffff; stroke-width: 0.48"/>
    <path d="M 213.73589 267.073492 
C 214.5315 267.073492 215.29463 266.757393 215.857211 266.194813 
C 216.419791 265.632232 216.73589 264.869102 216.73589 264.073492 
C 216.73589 263.277883 216.419791 262.514753 215.857211 261.952172 
C 215.29463 261.389591 214.5315 261.073492 213.73589 261.073492 
C 212.940281 261.073492 212.177151 261.389591 211.61457 261.952172 
C 211.051989 262.514753 210.73589 263.277883 210.73589 264.073492 
C 210.73589 264.869102 211.051989 265.632232 211.61457 266.194813 
C 212.177151 266.757393 212.940281 267.073492 213.73589 267.073492 
z
" clip-path="url(#pe0ea2c5f42)" style="fill: #a6cee3; stroke: #ffffff; stroke-width: 0.48"/>
    <path d="M 221.115218 266.823457 
C 221.910828 266.823457 222.673958 266.507358 223.236539 265.944777 
C 223.799119 265.382196 224.115218 264.619066 224.115218 263.823457 
C 224.115218 263.027848 223.799119 262.264717 223.236539 261.702137 
C 222.673958 261.139556 221.910828 260.823457 221.115218 260.823457 
C 220.319609 260.823457 219.556479 261.139556 218.993898 261.702137 
C 218.431317 262.264717 218.115218 263.027848 218.115218 263.823457 
C 218.115218 264.619066 218.431317 265.382196 218.993898 265.944777 
C 219.556479 266.507358 220.319609 266.823457 221.115218 266.823457 
z
" clip-path="url(#pe0ea2c5f42)" style="fill: #a6cee3; stroke: #ffffff; stroke-width: 0.48"/>
    <path d="M 228.494546 266.397883 
C 229.290156 266.397883 230.053286 266.081784 230.615867 265.519203 
C 231.178448 264.956622 231.494546 264.193492 231.494546 263.397883 
C 231.494546 262.602274 231.178448 261.839143 230.615867 261.276563 
C 230.053286 260.713982 229.290156 260.397883 228.494546 260.397883 
C 227.698937 260.397883 226.935807 260.713982 226.373226 261.276563 
C 225.810645 261.839143 225.494546 262.602274 225.494546 263.397883 
C 225.494546 264.193492 225.810645 264.956622 226.373226 265.519203 
C 226.935807 266.081784 227.698937 266.397883 228.494546 266.397883 
z
" clip-path="url(#pe0ea2c5f42)" style="fill: #a6cee3; stroke: #ffffff; stroke-width: 0.48"/>
    <path d="M 235.873875 265.795058 
C 236.669484 265.795058 237.432614 265.478959 237.995195 264.916378 
C 238.557776 264.353797 238.873875 263.590667 238.873875 262.795058 
C 238.873875 261.999448 238.557776 261.236318 237.995195 260.673737 
C 237.432614 260.111157 236.669484 259.795058 235.873875 259.795058 
C 235.078265 259.795058 234.315135 260.111157 233.752554 260.673737 
C 233.189974 261.236318 232.873875 261.999448 232.873875 262.795058 
C 232.873875 263.590667 233.189974 264.353797 233.752554 264.916378 
C 234.315135 265.478959 235.078265 265.795058 235.873875 265.795058 
z
" clip-path="url(#pe0ea2c5f42)" style="fill: #a6cee3; stroke: #ffffff; stroke-width: 0.48"/>
    <path d="M 243.253203 265.032107 
C 244.048812 265.032107 244.811942 264.716008 245.374523 264.153427 
C 245.937104 263.590847 246.253203 262.827716 246.253203 262.032107 
C 246.253203 261.236498 245.937104 260.473368 245.374523 259.910787 
C 244.811942 259.348206 244.048812 259.032107 243.253203 259.032107 
C 242.457593 259.032107 241.694463 259.348206 241.131882 259.910787 
C 240.569302 260.473368 240.253203 261.236498 240.253203 262.032107 
C 240.253203 262.827716 240.569302 263.590847 241.131882 264.153427 
C 241.694463 264.716008 242.457593 265.032107 243.253203 265.032107 
z
" clip-path="url(#pe0ea2c5f42)" style="fill: #a6cee3; stroke: #ffffff; stroke-width: 0.48"/>
    <path d="M 250.632531 264.106462 
C 251.42814 264.106462 252.19127 263.790363 252.753851 263.227783 
C 253.316432 262.665202 253.632531 261.902072 253.632531 261.106462 
C 253.632531 260.310853 253.316432 259.547723 252.753851 258.985142 
C 252.19127 258.422561 251.42814 258.106462 250.632531 258.106462 
C 249.836921 258.106462 249.073791 258.422561 248.51121 258.985142 
C 247.94863 259.547723 247.632531 260.310853 247.632531 261.106462 
C 247.632531 261.902072 247.94863 262.665202 248.51121 263.227783 
C 249.073791 263.790363 249.836921 264.106462 250.632531 264.106462 
z
" clip-path="url(#pe0ea2c5f42)" style="fill: #a6cee3; stroke: #ffffff; stroke-width: 0.48"/>
    <path d="M 258.011859 263.019836 
C 258.807468 263.019836 259.570599 262.703737 260.133179 262.141156 
C 260.69576 261.578575 261.011859 260.815445 261.011859 260.019836 
C 261.011859 259.224226 260.69576 258.461096 260.133179 257.898515 
C 259.570599 257.335935 258.807468 257.019836 258.011859 257.019836 
C 257.21625 257.019836 256.453119 257.335935 255.890539 257.898515 
C 255.327958 258.461096 255.011859 259.224226 255.011859 260.019836 
C 255.011859 260.815445 255.327958 261.578575 255.890539 262.141156 
C 256.453119 262.703737 257.21625 263.019836 258.011859 263.019836 
z
" clip-path="url(#pe0ea2c5f42)" style="fill: #a6cee3; stroke: #ffffff; stroke-width: 0.48"/>
    <path d="M 265.391187 261.769659 
C 266.186796 261.769659 266.949927 261.45356 267.512507 260.890979 
C 268.075088 260.328398 268.391187 259.565268 268.391187 258.769659 
C 268.391187 257.974049 268.075088 257.210919 267.512507 256.648338 
C 266.949927 256.085757 266.186796 255.769659 265.391187 255.769659 
C 264.595578 255.769659 263.832447 256.085757 263.269867 256.648338 
C 262.707286 257.210919 262.391187 257.974049 262.391187 258.769659 
C 262.391187 259.565268 262.707286 260.328398 263.269867 260.890979 
C 263.832447 261.45356 264.595578 261.769659 265.391187 261.769659 
z
" clip-path="url(#pe0ea2c5f42)" style="fill: #a6cee3; stroke: #ffffff; stroke-width: 0.48"/>
    <path d="M 272.770515 260.349937 
C 273.566124 260.349937 274.329255 260.033838 274.891835 259.471257 
C 275.454416 258.908676 275.770515 258.145546 275.770515 257.349937 
C 275.770515 256.554328 275.454416 255.791197 274.891835 255.228617 
C 274.329255 254.666036 273.566124 254.349937 272.770515 254.349937 
C 271.974906 254.349937 271.211776 254.666036 270.649195 255.228617 
C 270.086614 255.791197 269.770515 256.554328 269.770515 257.349937 
C 269.770515 258.145546 270.086614 258.908676 270.649195 259.471257 
C 271.211776 260.033838 271.974906 260.349937 272.770515 260.349937 
z
" clip-path="url(#pe0ea2c5f42)" style="fill: #a6cee3; stroke: #ffffff; stroke-width: 0.48"/>
    <path d="M 280.149843 258.74697 
C 280.945453 258.74697 281.708583 258.430871 282.271164 257.86829 
C 282.833744 257.30571 283.149843 256.542579 283.149843 255.74697 
C 283.149843 254.951361 282.833744 254.18823 282.271164 253.62565 
C 281.708583 253.063069 280.945453 252.74697 280.149843 252.74697 
C 279.354234 252.74697 278.591104 253.063069 278.028523 253.62565 
C 277.465942 254.18823 277.149843 254.951361 277.149843 255.74697 
C 277.149843 256.542579 277.465942 257.30571 278.028523 257.86829 
C 278.591104 258.430871 279.354234 258.74697 280.149843 258.74697 
z
" clip-path="url(#pe0ea2c5f42)" style="fill: #a6cee3; stroke: #ffffff; stroke-width: 0.48"/>
    <path d="M 287.529171 256.972746 
C 288.324781 256.972746 289.087911 256.656647 289.650492 256.094066 
C 290.213072 255.531486 290.529171 254.768355 290.529171 253.972746 
C 290.529171 253.177137 290.213072 252.414006 289.650492 251.851426 
C 289.087911 251.288845 288.324781 250.972746 287.529171 250.972746 
C 286.733562 250.972746 285.970432 251.288845 285.407851 251.851426 
C 284.84527 252.414006 284.529171 253.177137 284.529171 253.972746 
C 284.529171 254.768355 284.84527 255.531486 285.407851 256.094066 
C 285.970432 256.656647 286.733562 256.972746 287.529171 256.972746 
z
" clip-path="url(#pe0ea2c5f42)" style="fill: #a6cee3; stroke: #ffffff; stroke-width: 0.48"/>
    <path d="M 294.908499 254.881696 
C 295.704109 254.881696 296.467239 254.565597 297.02982 254.003017 
C 297.592401 253.440436 297.908499 252.677306 297.908499 251.881696 
C 297.908499 251.086087 297.592401 250.322957 297.02982 249.760376 
C 296.467239 249.197795 295.704109 248.881696 294.908499 248.881696 
C 294.11289 248.881696 293.34976 249.197795 292.787179 249.760376 
C 292.224598 250.322957 291.908499 251.086087 291.908499 251.881696 
C 291.908499 252.677306 292.224598 253.440436 292.787179 254.003017 
C 293.34976 254.565597 294.11289 254.881696 294.908499 254.881696 
z
" clip-path="url(#pe0ea2c5f42)" style="fill: #a6cee3; stroke: #ffffff; stroke-width: 0.48"/>
    <path d="M 302.287828 252.528623 
C 303.083437 252.528623 303.846567 252.212524 304.409148 251.649943 
C 304.971729 251.087363 305.287828 250.324232 305.287828 249.528623 
C 305.287828 248.733014 304.971729 247.969884 304.409148 247.407303 
C 303.846567 246.844722 303.083437 246.528623 302.287828 246.528623 
C 301.492218 246.528623 300.729088 246.844722 300.166507 247.407303 
C 299.603926 247.969884 299.287828 248.733014 299.287828 249.528623 
C 299.287828 250.324232 299.603926 251.087363 300.166507 251.649943 
C 300.729088 252.212524 301.492218 252.528623 302.287828 252.528623 
z
" clip-path="url(#pe0ea2c5f42)" style="fill: #a6cee3; stroke: #ffffff; stroke-width: 0.48"/>
    <path d="M 309.667156 250.063377 
C 310.462765 250.063377 311.225895 249.747278 311.788476 249.184697 
C 312.351057 248.622116 312.667156 247.858986 312.667156 247.063377 
C 312.667156 246.267767 312.351057 245.504637 311.788476 244.942056 
C 311.225895 244.379475 310.462765 244.063377 309.667156 244.063377 
C 308.871546 244.063377 308.108416 244.379475 307.545835 244.942056 
C 306.983255 245.504637 306.667156 246.267767 306.667156 247.063377 
C 306.667156 247.858986 306.983255 248.622116 307.545835 249.184697 
C 308.108416 249.747278 308.871546 250.063377 309.667156 250.063377 
z
" clip-path="url(#pe0ea2c5f42)" style="fill: #a6cee3; stroke: #ffffff; stroke-width: 0.48"/>
    <path d="M 317.046484 247.550178 
C 317.842093 247.550178 318.605223 247.234079 319.167804 246.671498 
C 319.730385 246.108918 320.046484 245.345787 320.046484 244.550178 
C 320.046484 243.754569 319.730385 242.991438 319.167804 242.428858 
C 318.605223 241.866277 317.842093 241.550178 317.046484 241.550178 
C 316.250874 241.550178 315.487744 241.866277 314.925163 242.428858 
C 314.362583 242.991438 314.046484 243.754569 314.046484 244.550178 
C 314.046484 245.345787 314.362583 246.108918 314.925163 246.671498 
C 315.487744 247.234079 316.250874 247.550178 317.046484 247.550178 
z
" clip-path="url(#pe0ea2c5f42)" style="fill: #a6cee3; stroke: #ffffff; stroke-width: 0.48"/>
    <path d="M 324.425812 244.96077 
C 325.221421 244.96077 325.984551 244.644671 326.547132 244.08209 
C 327.109713 243.51951 327.425812 242.756379 327.425812 241.96077 
C 327.425812 241.165161 327.109713 240.40203 326.547132 239.83945 
C 325.984551 239.276869 325.221421 238.96077 324.425812 238.96077 
C 323.630203 238.96077 322.867072 239.276869 322.304492 239.83945 
C 321.741911 240.40203 321.425812 241.165161 321.425812 241.96077 
C 321.425812 242.756379 321.741911 243.51951 322.304492 244.08209 
C 322.867072 244.644671 323.630203 244.96077 324.425812 244.96077 
z
" clip-path="url(#pe0ea2c5f42)" style="fill: #a6cee3; stroke: #ffffff; stroke-width: 0.48"/>
    <path d="M 331.80514 242.290015 
C 332.600749 242.290015 333.36388 241.973916 333.92646 241.411335 
C 334.489041 240.848754 334.80514 240.085624 334.80514 239.290015 
C 334.80514 238.494406 334.489041 237.731275 333.92646 237.168695 
C 333.36388 236.606114 332.600749 236.290015 331.80514 236.290015 
C 331.009531 236.290015 330.2464 236.606114 329.68382 237.168695 
C 329.121239 237.731275 328.80514 238.494406 328.80514 239.290015 
C 328.80514 240.085624 329.121239 240.848754 329.68382 241.411335 
C 330.2464 241.973916 331.009531 242.290015 331.80514 242.290015 
z
" clip-path="url(#pe0ea2c5f42)" style="fill: #a6cee3; stroke: #ffffff; stroke-width: 0.48"/>
    <path d="M 339.184468 239.501092 
C 339.980077 239.501092 340.743208 239.184993 341.305788 238.622413 
C 341.868369 238.059832 342.184468 237.296702 342.184468 236.501092 
C 342.184468 235.705483 341.868369 234.942353 341.305788 234.379772 
C 340.743208 233.817191 339.980077 233.501092 339.184468 233.501092 
C 338.388859 233.501092 337.625728 233.817191 337.063148 234.379772 
C 336.500567 234.942353 336.184468 235.705483 336.184468 236.501092 
C 336.184468 237.296702 336.500567 238.059832 337.063148 238.622413 
C 337.625728 239.184993 338.388859 239.501092 339.184468 239.501092 
z
" clip-path="url(#pe0ea2c5f42)" style="fill: #a6cee3; stroke: #ffffff; stroke-width: 0.48"/>
    <path d="M 346.563796 236.464703 
C 347.359405 236.464703 348.122536 236.148604 348.685117 235.586023 
C 349.247697 235.023443 349.563796 234.260312 349.563796 233.464703 
C 349.563796 232.669094 349.247697 231.905964 348.685117 231.343383 
C 348.122536 230.780802 347.359405 230.464703 346.563796 230.464703 
C 345.768187 230.464703 345.005057 230.780802 344.442476 231.343383 
C 343.879895 231.905964 343.563796 232.669094 343.563796 233.464703 
C 343.563796 234.260312 343.879895 235.023443 344.442476 235.586023 
C 345.005057 236.148604 345.768187 236.464703 346.563796 236.464703 
z
" clip-path="url(#pe0ea2c5f42)" style="fill: #a6cee3; stroke: #ffffff; stroke-width: 0.48"/>
    <path d="M 353.943124 233.089225 
C 354.738734 233.089225 355.501864 232.773126 356.064445 232.210545 
C 356.627025 231.647964 356.943124 230.884834 356.943124 230.089225 
C 356.943124 229.293616 356.627025 228.530485 356.064445 227.967905 
C 355.501864 227.405324 354.738734 227.089225 353.943124 227.089225 
C 353.147515 227.089225 352.384385 227.405324 351.821804 227.967905 
C 351.259223 228.530485 350.943124 229.293616 350.943124 230.089225 
C 350.943124 230.884834 351.259223 231.647964 351.821804 232.210545 
C 352.384385 232.773126 353.147515 233.089225 353.943124 233.089225 
z
" clip-path="url(#pe0ea2c5f42)" style="fill: #a6cee3; stroke: #ffffff; stroke-width: 0.48"/>
    <path d="M 361.322452 229.374657 
C 362.118062 229.374657 362.881192 229.058559 363.443773 228.495978 
C 364.006353 227.933397 364.322452 227.170267 364.322452 226.374657 
C 364.322452 225.579048 364.006353 224.815918 363.443773 224.253337 
C 362.881192 223.690756 362.118062 223.374657 361.322452 223.374657 
C 360.526843 223.374657 359.763713 223.690756 359.201132 224.253337 
C 358.638551 224.815918 358.322452 225.579048 358.322452 226.374657 
C 358.322452 227.170267 358.638551 227.933397 359.201132 228.495978 
C 359.763713 229.058559 360.526843 229.374657 361.322452 229.374657 
z
" clip-path="url(#pe0ea2c5f42)" style="fill: #a6cee3; stroke: #ffffff; stroke-width: 0.48"/>
    <path d="M 368.701781 225.535929 
C 369.49739 225.535929 370.26052 225.21983 370.823101 224.657249 
C 371.385682 224.094668 371.701781 223.331538 371.701781 222.535929 
C 371.701781 221.740319 371.385682 220.977189 370.823101 220.414608 
C 370.26052 219.852027 369.49739 219.535929 368.701781 219.535929 
C 367.906171 219.535929 367.143041 219.852027 366.58046 220.414608 
C 366.017879 220.977189 365.701781 221.740319 365.701781 222.535929 
C 365.701781 223.331538 366.017879 224.094668 366.58046 224.657249 
C 367.143041 225.21983 367.906171 225.535929 368.701781 225.535929 
z
" clip-path="url(#pe0ea2c5f42)" style="fill: #a6cee3; stroke: #ffffff; stroke-width: 0.48"/>
    <path d="M 376.081109 222.057696 
C 376.876718 222.057696 377.639848 221.741597 378.202429 221.179016 
C 378.76501 220.616436 379.081109 219.853305 379.081109 219.057696 
C 379.081109 218.262087 378.76501 217.498956 378.202429 216.936376 
C 377.639848 216.373795 376.876718 216.057696 376.081109 216.057696 
C 375.285499 216.057696 374.522369 216.373795 373.959788 216.936376 
C 373.397208 217.498956 373.081109 218.262087 373.081109 219.057696 
C 373.081109 219.853305 373.397208 220.616436 373.959788 221.179016 
C 374.522369 221.741597 375.285499 222.057696 376.081109 222.057696 
z
" clip-path="url(#pe0ea2c5f42)" style="fill: #a6cee3; stroke: #ffffff; stroke-width: 0.48"/>
    <path d="M 383.460437 218.767846 
C 384.256046 218.767846 385.019176 218.451747 385.581757 217.889167 
C 386.144338 217.326586 386.460437 216.563456 386.460437 215.767846 
C 386.460437 214.972237 386.144338 214.209107 385.581757 213.646526 
C 385.019176 213.083945 384.256046 212.767846 383.460437 212.767846 
C 382.664827 212.767846 381.901697 213.083945 381.339116 213.646526 
C 380.776536 214.209107 380.460437 214.972237 380.460437 215.767846 
C 380.460437 216.563456 380.776536 217.326586 381.339116 217.889167 
C 381.901697 218.451747 382.664827 218.767846 383.460437 218.767846 
z
" clip-path="url(#pe0ea2c5f42)" style="fill: #a6cee3; stroke: #ffffff; stroke-width: 0.48"/>
    <path d="M 390.839765 215.356404 
C 391.635374 215.356404 392.398504 215.040305 392.961085 214.477724 
C 393.523666 213.915144 393.839765 213.152013 393.839765 212.356404 
C 393.839765 211.560795 393.523666 210.797664 392.961085 210.235084 
C 392.398504 209.672503 391.635374 209.356404 390.839765 209.356404 
C 390.044156 209.356404 389.281025 209.672503 388.718444 210.235084 
C 388.155864 210.797664 387.839765 211.560795 387.839765 212.356404 
C 387.839765 213.152013 388.155864 213.915144 388.718444 214.477724 
C 389.281025 215.040305 390.044156 215.356404 390.839765 215.356404 
z
" clip-path="url(#pe0ea2c5f42)" style="fill: #a6cee3; stroke: #ffffff; stroke-width: 0.48"/>
    <path d="M 398.219093 211.866183 
C 399.014702 211.866183 399.777833 211.550085 400.340413 210.987504 
C 400.902994 210.424923 401.219093 209.661793 401.219093 208.866183 
C 401.219093 208.070574 400.902994 207.307444 400.340413 206.744863 
C 399.777833 206.182282 399.014702 205.866183 398.219093 205.866183 
C 397.423484 205.866183 396.660353 206.182282 396.097773 206.744863 
C 395.535192 207.307444 395.219093 208.070574 395.219093 208.866183 
C 395.219093 209.661793 395.535192 210.424923 396.097773 210.987504 
C 396.660353 211.550085 397.423484 211.866183 398.219093 211.866183 
z
" clip-path="url(#pe0ea2c5f42)" style="fill: #a6cee3; stroke: #ffffff; stroke-width: 0.48"/>
    <path d="M 405.598421 208.226969 
C 406.39403 208.226969 407.157161 207.91087 407.719741 207.348289 
C 408.282322 206.785709 408.598421 206.022578 408.598421 205.226969 
C 408.598421 204.43136 408.282322 203.66823 407.719741 203.105649 
C 407.157161 202.543068 406.39403 202.226969 405.598421 202.226969 
C 404.802812 202.226969 404.039681 202.543068 403.477101 203.105649 
C 402.91452 203.66823 402.598421 204.43136 402.598421 205.226969 
C 402.598421 206.022578 402.91452 206.785709 403.477101 207.348289 
C 404.039681 207.91087 404.802812 208.226969 405.598421 208.226969 
z
" clip-path="url(#pe0ea2c5f42)" style="fill: #a6cee3; stroke: #ffffff; stroke-width: 0.48"/>
    <path d="M 412.977749 204.559497 
C 413.773358 204.559497 414.536489 204.243399 415.09907 203.680818 
C 415.66165 203.118237 415.977749 202.355107 415.977749 201.559497 
C 415.977749 200.763888 415.66165 200.000758 415.09907 199.438177 
C 414.536489 198.875596 413.773358 198.559497 412.977749 198.559497 
C 412.18214 198.559497 411.41901 198.875596 410.856429 199.438177 
C 410.293848 200.000758 409.977749 200.763888 409.977749 201.559497 
C 409.977749 202.355107 410.293848 203.118237 410.856429 203.680818 
C 411.41901 204.243399 412.18214 204.559497 412.977749 204.559497 
z
" clip-path="url(#pe0ea2c5f42)" style="fill: #a6cee3; stroke: #ffffff; stroke-width: 0.48"/>
    <path d="M 420.357077 200.659972 
C 421.152687 200.659972 421.915817 200.343873 422.478398 199.781293 
C 423.040978 199.218712 423.357077 198.455582 423.357077 197.659972 
C 423.357077 196.864363 423.040978 196.101233 422.478398 195.538652 
C 421.915817 194.976071 421.152687 194.659972 420.357077 194.659972 
C 419.561468 194.659972 418.798338 194.976071 418.235757 195.538652 
C 417.673176 196.101233 417.357077 196.864363 417.357077 197.659972 
C 417.357077 198.455582 417.673176 199.218712 418.235757 199.781293 
C 418.798338 200.343873 419.561468 200.659972 420.357077 200.659972 
z
" clip-path="url(#pe0ea2c5f42)" style="fill: #a6cee3; stroke: #ffffff; stroke-width: 0.48"/>
    <path d="M 427.736405 196.548088 
C 428.532015 196.548088 429.295145 196.231989 429.857726 195.669409 
C 430.420306 195.106828 430.736405 194.343698 430.736405 193.548088 
C 430.736405 192.752479 430.420306 191.989349 429.857726 191.426768 
C 429.295145 190.864187 428.532015 190.548088 427.736405 190.548088 
C 426.940796 190.548088 426.177666 190.864187 425.615085 191.426768 
C 425.052504 191.989349 424.736405 192.752479 424.736405 193.548088 
C 424.736405 194.343698 425.052504 195.106828 425.615085 195.669409 
C 426.177666 196.231989 426.940796 196.548088 427.736405 196.548088 
z
" clip-path="url(#pe0ea2c5f42)" style="fill: #a6cee3; stroke: #ffffff; stroke-width: 0.48"/>
    <path d="M 435.115733 192.563791 
C 435.911343 192.563791 436.674473 192.247692 437.237054 191.685111 
C 437.799635 191.12253 438.115733 190.3594 438.115733 189.563791 
C 438.115733 188.768182 437.799635 188.005051 437.237054 187.442471 
C 436.674473 186.87989 435.911343 186.563791 435.115733 186.563791 
C 434.320124 186.563791 433.556994 186.87989 432.994413 187.442471 
C 432.431832 188.005051 432.115733 188.768182 432.115733 189.563791 
C 432.115733 190.3594 432.431832 191.12253 432.994413 191.685111 
C 433.556994 192.247692 434.320124 192.563791 435.115733 192.563791 
z
" clip-path="url(#pe0ea2c5f42)" style="fill: #a6cee3; stroke: #ffffff; stroke-width: 0.48"/>
    <path d="M 442.495062 188.388542 
C 443.290671 188.388542 444.053801 188.072443 444.616382 187.509862 
C 445.178963 186.947281 445.495062 186.184151 445.495062 185.388542 
C 445.495062 184.592932 445.178963 183.829802 444.616382 183.267221 
C 444.053801 182.704641 443.290671 182.388542 442.495062 182.388542 
C 441.699452 182.388542 440.936322 182.704641 440.373741 183.267221 
C 439.811161 183.829802 439.495062 184.592932 439.495062 185.388542 
C 439.495062 186.184151 439.811161 186.947281 440.373741 187.509862 
C 440.936322 188.072443 441.699452 188.388542 442.495062 188.388542 
z
" clip-path="url(#pe0ea2c5f42)" style="fill: #a6cee3; stroke: #ffffff; stroke-width: 0.48"/>
    <path d="M 449.87439 184.023197 
C 450.669999 184.023197 451.433129 183.707098 451.99571 183.144517 
C 452.558291 182.581937 452.87439 181.818806 452.87439 181.023197 
C 452.87439 180.227588 452.558291 179.464458 451.99571 178.901877 
C 451.433129 178.339296 450.669999 178.023197 449.87439 178.023197 
C 449.07878 178.023197 448.31565 178.339296 447.753069 178.901877 
C 447.190489 179.464458 446.87439 180.227588 446.87439 181.023197 
C 446.87439 181.818806 447.190489 182.581937 447.753069 183.144517 
C 448.31565 183.707098 449.07878 184.023197 449.87439 184.023197 
z
" clip-path="url(#pe0ea2c5f42)" style="fill: #a6cee3; stroke: #ffffff; stroke-width: 0.48"/>
    <path d="M 457.253718 179.474607 
C 458.049327 179.474607 458.812457 179.158509 459.375038 178.595928 
C 459.937619 178.033347 460.253718 177.270217 460.253718 176.474607 
C 460.253718 175.678998 459.937619 174.915868 459.375038 174.353287 
C 458.812457 173.790706 458.049327 173.474607 457.253718 173.474607 
C 456.458109 173.474607 455.694978 173.790706 455.132397 174.353287 
C 454.569817 174.915868 454.253718 175.678998 454.253718 176.474607 
C 454.253718 177.270217 454.569817 178.033347 455.132397 178.595928 
C 455.694978 179.158509 456.458109 179.474607 457.253718 179.474607 
z
" clip-path="url(#pe0ea2c5f42)" style="fill: #a6cee3; stroke: #ffffff; stroke-width: 0.48"/>
    <path d="M 464.633046 174.729072 
C 465.428655 174.729072 466.191786 174.412973 466.754366 173.850392 
C 467.316947 173.287812 467.633046 172.524681 467.633046 171.729072 
C 467.633046 170.933463 467.316947 170.170332 466.754366 169.607752 
C 466.191786 169.045171 465.428655 168.729072 464.633046 168.729072 
C 463.837437 168.729072 463.074306 169.045171 462.511726 169.607752 
C 461.949145 170.170332 461.633046 170.933463 461.633046 171.729072 
C 461.633046 172.524681 461.949145 173.287812 462.511726 173.850392 
C 463.074306 174.412973 463.837437 174.729072 464.633046 174.729072 
z
" clip-path="url(#pe0ea2c5f42)" style="fill: #a6cee3; stroke: #ffffff; stroke-width: 0.48"/>
    <path d="M 472.012374 169.651298 
C 472.807983 169.651298 473.571114 169.335199 474.133694 168.772618 
C 474.696275 168.210037 475.012374 167.446907 475.012374 166.651298 
C 475.012374 165.855688 474.696275 165.092558 474.133694 164.529977 
C 473.571114 163.967397 472.807983 163.651298 472.012374 163.651298 
C 471.216765 163.651298 470.453634 163.967397 469.891054 164.529977 
C 469.328473 165.092558 469.012374 165.855688 469.012374 166.651298 
C 469.012374 167.446907 469.328473 168.210037 469.891054 168.772618 
C 470.453634 169.335199 471.216765 169.651298 472.012374 169.651298 
z
" clip-path="url(#pe0ea2c5f42)" style="fill: #a6cee3; stroke: #ffffff; stroke-width: 0.48"/>
    <path d="M 479.391702 164.127399 
C 480.187311 164.127399 480.950442 163.8113 481.513022 163.248719 
C 482.075603 162.686138 482.391702 161.923008 482.391702 161.127399 
C 482.391702 160.331789 482.075603 159.568659 481.513022 159.006078 
C 480.950442 158.443497 480.187311 158.127399 479.391702 158.127399 
C 478.596093 158.127399 477.832963 158.443497 477.270382 159.006078 
C 476.707801 159.568659 476.391702 160.331789 476.391702 161.127399 
C 476.391702 161.923008 476.707801 162.686138 477.270382 163.248719 
C 477.832963 163.8113 478.596093 164.127399 479.391702 164.127399 
z
" clip-path="url(#pe0ea2c5f42)" style="fill: #a6cee3; stroke: #ffffff; stroke-width: 0.48"/>
   </g>
   <g id="PathCollection_3"/>
   <g id="PathCollection_4"/>
   <g id="line2d_21">
    <path d="M 162.154387 254.24162 
L 176.83925 255.68703 
L 191.597906 256.674327 
L 206.356562 257.129871 
L 221.115218 256.913231 
L 235.873875 256.201658 
L 250.632531 255.096193 
L 258.011859 254.383763 
L 265.317394 253.26631 
L 272.770515 252.147145 
L 280.07605 250.664914 
L 287.529171 249.096199 
L 294.908499 247.393047 
L 309.667156 243.674198 
L 317.120277 241.793794 
L 324.425812 239.789229 
L 331.878933 237.637383 
L 339.184468 235.498382 
L 346.490003 233.010015 
L 353.943124 230.361524 
L 361.248659 227.782391 
L 368.627987 225.040564 
L 376.081109 222.182283 
L 383.460437 219.247791 
L 398.219093 211.935111 
L 412.977749 202.968944 
L 427.662612 192.642994 
L 442.495062 178.075005 
L 449.87439 165.642593 
L 457.327511 72.285187 
L 471.938581 64.438185 
L 479.391702 61.390664 
L 486.697237 55.078125 
L 494.076565 49.819675 
L 486.77103 54.685947 
L 479.465495 59.470871 
L 472.012374 66.88288 
L 464.706839 69.726605 
L 457.253718 73.740873 
L 449.726803 84.405055 
L 442.421268 111.484234 
L 435.115733 126.4033 
L 427.662612 134.035375 
L 420.430871 146.740086 
L 412.903956 183.737623 
L 405.598421 207.792401 
L 398.219093 212.318727 
" clip-path="url(#pe0ea2c5f42)" style="fill: none; stroke: #808080; stroke-linecap: round"/>
   </g>
   <g id="line2d_22">
    <path d="M 162.080594 261.123588 
L 169.459922 262.022688 
L 176.83925 262.777932 
L 184.218578 263.372194 
L 191.597906 263.805475 
L 198.977234 264.069211 
L 206.356562 264.156552 
L 213.73589 264.073492 
L 221.115218 263.823457 
L 228.494546 263.397883 
L 235.873875 262.795058 
L 243.253203 262.032107 
L 250.632531 261.106462 
L 258.011859 260.019836 
L 265.391187 258.769659 
L 272.770515 257.349937 
L 280.149843 255.74697 
L 287.529171 253.972746 
L 294.908499 251.881696 
L 302.287828 249.528623 
L 309.667156 247.063377 
L 317.046484 244.550178 
L 324.425812 241.96077 
L 331.80514 239.290015 
L 339.184468 236.501092 
L 346.563796 233.464703 
L 353.943124 230.089225 
L 361.322452 226.374657 
L 368.701781 222.535929 
L 376.081109 219.057696 
L 383.460437 215.767846 
L 390.839765 212.356404 
L 398.219093 208.866183 
L 405.598421 205.226969 
L 412.977749 201.559497 
L 420.357077 197.659972 
L 427.736405 193.548088 
L 435.115733 189.563791 
L 442.495062 185.388542 
L 449.87439 181.023197 
L 457.253718 176.474607 
L 464.633046 171.729072 
L 472.012374 166.651298 
L 479.391702 161.127399 
" clip-path="url(#pe0ea2c5f42)" style="fill: none; stroke: #808080; stroke-linecap: round"/>
   </g>
   <g id="patch_3">
    <path d="M 58.77 312.66 
L 58.77 12.96 
" style="fill: none; stroke: #ffffff; stroke-width: 1.25; stroke-linejoin: miter; stroke-linecap: square"/>
   </g>
   <g id="patch_4">
    <path d="M 58.77 312.66 
L 510.676364 312.66 
" style="fill: none; stroke: #ffffff; stroke-width: 1.25; stroke-linejoin: miter; stroke-linecap: square"/>
   </g>
   <g id="legend_1">
    <g id="patch_5">
     <path d="M 66.47 52.879688 
L 168.916094 52.879688 
Q 171.116094 52.879688 171.116094 50.679688 
L 171.116094 20.66 
Q 171.116094 18.46 168.916094 18.46 
L 66.47 18.46 
Q 64.27 18.46 64.27 20.66 
L 64.27 50.679688 
Q 64.27 52.879688 66.47 52.879688 
z
" style="fill: #eaeaf2; opacity: 0.8; stroke: #cccccc; stroke-linejoin: miter"/>
    </g>
    <g id="PathCollection_5">
     <defs>
      <path id="m5e7d2a0412" d="M 0 3 
C 0.795609 3 1.55874 2.683901 2.12132 2.12132 
C 2.683901 1.55874 3 0.795609 3 0 
C 3 -0.795609 2.683901 -1.55874 2.12132 -2.12132 
C 1.55874 -2.683901 0.795609 -3 0 -3 
C -0.795609 -3 -1.55874 -2.683901 -2.12132 -2.12132 
C -2.683901 -1.55874 -3 -0.795609 -3 0 
C -3 0.795609 -2.683901 1.55874 -2.12132 2.12132 
C -1.55874 2.683901 -0.795609 3 0 3 
z
" style="stroke: #a6cee3"/>
     </defs>
     <g>
      <use xlink:href="#m5e7d2a0412" x="79.67" y="27.846094" style="fill: #a6cee3; stroke: #a6cee3"/>
     </g>
    </g>
    <g id="text_23">
     <!-- CFD -->
     <g style="fill: #262626" transform="translate(99.47 30.733594)scale(0.11 -0.11)">
      <defs>
       <path id="ArialMT-46" d="M 525 0 
L 525 4581 
L 3616 4581 
L 3616 4041 
L 1131 4041 
L 1131 2622 
L 3281 2622 
L 3281 2081 
L 1131 2081 
L 1131 0 
L 525 0 
z
" transform="scale(0.015625)"/>
      </defs>
      <use xlink:href="#ArialMT-43"/>
      <use xlink:href="#ArialMT-46" x="72.216797"/>
      <use xlink:href="#ArialMT-44" x="133.300781"/>
     </g>
    </g>
    <g id="PathCollection_6">
     <defs>
      <path id="mbf4bf8e355" d="M -1.5 3 
L 0 1.5 
L 1.5 3 
L 3 1.5 
L 1.5 0 
L 3 -1.5 
L 1.5 -3 
L 0 -1.5 
L -1.5 -3 
L -3 -1.5 
L -1.5 0 
L -3 1.5 
z
" style="stroke: #1f78b4"/>
     </defs>
     <g>
      <use xlink:href="#mbf4bf8e355" x="79.67" y="43.405938" style="fill: #1f78b4; stroke: #1f78b4"/>
     </g>
    </g>
    <g id="text_24">
     <!-- Measurement -->
     <g style="fill: #262626" transform="translate(99.47 46.293438)scale(0.11 -0.11)">
      <defs>
       <path id="ArialMT-4d" d="M 475 0 
L 475 4581 
L 1388 4581 
L 2472 1338 
Q 2622 884 2691 659 
Q 2769 909 2934 1394 
L 4031 4581 
L 4847 4581 
L 4847 0 
L 4263 0 
L 4263 3834 
L 2931 0 
L 2384 0 
L 1059 3900 
L 1059 0 
L 475 0 
z
" transform="scale(0.015625)"/>
       <path id="ArialMT-65" d="M 2694 1069 
L 3275 997 
Q 3138 488 2766 206 
Q 2394 -75 1816 -75 
Q 1088 -75 661 373 
Q 234 822 234 1631 
Q 234 2469 665 2931 
Q 1097 3394 1784 3394 
Q 2450 3394 2872 2941 
Q 3294 2488 3294 1666 
Q 3294 1616 3291 1516 
L 816 1516 
Q 847 969 1125 678 
Q 1403 388 1819 388 
Q 2128 388 2347 550 
Q 2566 713 2694 1069 
z
M 847 1978 
L 2700 1978 
Q 2663 2397 2488 2606 
Q 2219 2931 1791 2931 
Q 1403 2931 1139 2672 
Q 875 2413 847 1978 
z
" transform="scale(0.015625)"/>
       <path id="ArialMT-61" d="M 2588 409 
Q 2275 144 1986 34 
Q 1697 -75 1366 -75 
Q 819 -75 525 192 
Q 231 459 231 875 
Q 231 1119 342 1320 
Q 453 1522 633 1644 
Q 813 1766 1038 1828 
Q 1203 1872 1538 1913 
Q 2219 1994 2541 2106 
Q 2544 2222 2544 2253 
Q 2544 2597 2384 2738 
Q 2169 2928 1744 2928 
Q 1347 2928 1158 2789 
Q 969 2650 878 2297 
L 328 2372 
Q 403 2725 575 2942 
Q 747 3159 1072 3276 
Q 1397 3394 1825 3394 
Q 2250 3394 2515 3294 
Q 2781 3194 2906 3042 
Q 3031 2891 3081 2659 
Q 3109 2516 3109 2141 
L 3109 1391 
Q 3109 606 3145 398 
Q 3181 191 3288 0 
L 2700 0 
Q 2613 175 2588 409 
z
M 2541 1666 
Q 2234 1541 1622 1453 
Q 1275 1403 1131 1340 
Q 988 1278 909 1158 
Q 831 1038 831 891 
Q 831 666 1001 516 
Q 1172 366 1500 366 
Q 1825 366 2078 508 
Q 2331 650 2450 897 
Q 2541 1088 2541 1459 
L 2541 1666 
z
" transform="scale(0.015625)"/>
       <path id="ArialMT-73" d="M 197 991 
L 753 1078 
Q 800 744 1014 566 
Q 1228 388 1613 388 
Q 2000 388 2187 545 
Q 2375 703 2375 916 
Q 2375 1106 2209 1216 
Q 2094 1291 1634 1406 
Q 1016 1563 777 1677 
Q 538 1791 414 1992 
Q 291 2194 291 2438 
Q 291 2659 392 2848 
Q 494 3038 669 3163 
Q 800 3259 1026 3326 
Q 1253 3394 1513 3394 
Q 1903 3394 2198 3281 
Q 2494 3169 2634 2976 
Q 2775 2784 2828 2463 
L 2278 2388 
Q 2241 2644 2061 2787 
Q 1881 2931 1553 2931 
Q 1166 2931 1000 2803 
Q 834 2675 834 2503 
Q 834 2394 903 2306 
Q 972 2216 1119 2156 
Q 1203 2125 1616 2013 
Q 2213 1853 2448 1751 
Q 2684 1650 2818 1456 
Q 2953 1263 2953 975 
Q 2953 694 2789 445 
Q 2625 197 2315 61 
Q 2006 -75 1616 -75 
Q 969 -75 630 194 
Q 291 463 197 991 
z
" transform="scale(0.015625)"/>
       <path id="ArialMT-75" d="M 2597 0 
L 2597 488 
Q 2209 -75 1544 -75 
Q 1250 -75 995 37 
Q 741 150 617 320 
Q 494 491 444 738 
Q 409 903 409 1263 
L 409 3319 
L 972 3319 
L 972 1478 
Q 972 1038 1006 884 
Q 1059 663 1231 536 
Q 1403 409 1656 409 
Q 1909 409 2131 539 
Q 2353 669 2445 892 
Q 2538 1116 2538 1541 
L 2538 3319 
L 3100 3319 
L 3100 0 
L 2597 0 
z
" transform="scale(0.015625)"/>
       <path id="ArialMT-72" d="M 416 0 
L 416 3319 
L 922 3319 
L 922 2816 
Q 1116 3169 1280 3281 
Q 1444 3394 1641 3394 
Q 1925 3394 2219 3213 
L 2025 2691 
Q 1819 2813 1613 2813 
Q 1428 2813 1281 2702 
Q 1134 2591 1072 2394 
Q 978 2094 978 1738 
L 978 0 
L 416 0 
z
" transform="scale(0.015625)"/>
       <path id="ArialMT-6d" d="M 422 0 
L 422 3319 
L 925 3319 
L 925 2853 
Q 1081 3097 1340 3245 
Q 1600 3394 1931 3394 
Q 2300 3394 2536 3241 
Q 2772 3088 2869 2813 
Q 3263 3394 3894 3394 
Q 4388 3394 4653 3120 
Q 4919 2847 4919 2278 
L 4919 0 
L 4359 0 
L 4359 2091 
Q 4359 2428 4304 2576 
Q 4250 2725 4106 2815 
Q 3963 2906 3769 2906 
Q 3419 2906 3187 2673 
Q 2956 2441 2956 1928 
L 2956 0 
L 2394 0 
L 2394 2156 
Q 2394 2531 2256 2718 
Q 2119 2906 1806 2906 
Q 1569 2906 1367 2781 
Q 1166 2656 1075 2415 
Q 984 2175 984 1722 
L 984 0 
L 422 0 
z
" transform="scale(0.015625)"/>
       <path id="ArialMT-6e" d="M 422 0 
L 422 3319 
L 928 3319 
L 928 2847 
Q 1294 3394 1984 3394 
Q 2284 3394 2536 3286 
Q 2788 3178 2913 3003 
Q 3038 2828 3088 2588 
Q 3119 2431 3119 2041 
L 3119 0 
L 2556 0 
L 2556 2019 
Q 2556 2363 2490 2533 
Q 2425 2703 2258 2804 
Q 2091 2906 1866 2906 
Q 1506 2906 1245 2678 
Q 984 2450 984 1813 
L 984 0 
L 422 0 
z
" transform="scale(0.015625)"/>
       <path id="ArialMT-74" d="M 1650 503 
L 1731 6 
Q 1494 -44 1306 -44 
Q 1000 -44 831 53 
Q 663 150 594 308 
Q 525 466 525 972 
L 525 2881 
L 113 2881 
L 113 3319 
L 525 3319 
L 525 4141 
L 1084 4478 
L 1084 3319 
L 1650 3319 
L 1650 2881 
L 1084 2881 
L 1084 941 
Q 1084 700 1114 631 
Q 1144 563 1211 522 
Q 1278 481 1403 481 
Q 1497 481 1650 503 
z
" transform="scale(0.015625)"/>
      </defs>
      <use xlink:href="#ArialMT-4d"/>
      <use xlink:href="#ArialMT-65" x="83.300781"/>
      <use xlink:href="#ArialMT-61" x="138.916016"/>
      <use xlink:href="#ArialMT-73" x="194.53125"/>
      <use xlink:href="#ArialMT-75" x="244.53125"/>
      <use xlink:href="#ArialMT-72" x="300.146484"/>
      <use xlink:href="#ArialMT-65" x="333.447266"/>
      <use xlink:href="#ArialMT-6d" x="389.0625"/>
      <use xlink:href="#ArialMT-65" x="472.363281"/>
      <use xlink:href="#ArialMT-6e" x="527.978516"/>
      <use xlink:href="#ArialMT-74" x="583.59375"/>
     </g>
    </g>
   </g>
  </g>
 </g>
 <defs>
  <clipPath id="pe0ea2c5f42">
   <rect x="58.77" y="12.96" width="451.906364" height="299.7"/>
  </clipPath>
 </defs>
</svg>
