<?xml version="1.0" encoding="utf-8" standalone="no"?>
<!DOCTYPE svg PUBLIC "-//W3C//DTD SVG 1.1//EN"
  "http://www.w3.org/Graphics/SVG/1.1/DTD/svg11.dtd">
<svg xmlns:xlink="http://www.w3.org/1999/xlink" width="523.636364pt" height="360pt" viewBox="0 0 523.636364 360" xmlns="http://www.w3.org/2000/svg" version="1.1">
 <metadata>
  <rdf:RDF xmlns:dc="http://purl.org/dc/elements/1.1/" xmlns:cc="http://creativecommons.org/ns#" xmlns:rdf="http://www.w3.org/1999/02/22-rdf-syntax-ns#">
   <cc:Work>
    <dc:type rdf:resource="http://purl.org/dc/dcmitype/StillImage"/>
    <dc:date>2022-12-19T01:04:07.196218</dc:date>
    <dc:format>image/svg+xml</dc:format>
    <dc:creator>
     <cc:Agent>
      <dc:title>Matplotlib v3.5.2, https://matplotlib.org/</dc:title>
     </cc:Agent>
    </dc:creator>
   </cc:Work>
  </rdf:RDF>
 </metadata>
 <defs>
  <style type="text/css">*{stroke-linejoin: round; stroke-linecap: butt}</style>
 </defs>
 <g id="figure_1">
  <g id="patch_1">
   <path d="M 0 360 
L 523.636364 360 
L 523.636364 0 
L 0 0 
z
" style="fill: #ffffff"/>
  </g>
  <g id="axes_1">
   <g id="patch_2">
    <path d="M 58.86 312.66 
L 510.676364 312.66 
L 510.676364 12.96 
L 58.86 12.96 
z
" style="fill: #eaeaf2"/>
   </g>
   <g id="matplotlib.axis_1">
    <g id="xtick_1">
     <g id="line2d_1">
      <path d="M 58.86 312.66 
L 58.86 12.96 
" clip-path="url(#pfb154110e5)" style="fill: none; stroke: #ffffff; stroke-linecap: round"/>
     </g>
     <g id="text_1">
      <!-- −10.0 -->
      <g style="fill: #262626" transform="translate(44.944141 330.033594)scale(0.11 -0.11)">
       <defs>
        <path id="ArialMT-2212" d="M 3381 1997 
L 356 1997 
L 356 2522 
L 3381 2522 
L 3381 1997 
z
" transform="scale(0.015625)"/>
        <path id="ArialMT-31" d="M 2384 0 
L 1822 0 
L 1822 3584 
Q 1619 3391 1289 3197 
Q 959 3003 697 2906 
L 697 3450 
Q 1169 3672 1522 3987 
Q 1875 4303 2022 4600 
L 2384 4600 
L 2384 0 
z
" transform="scale(0.015625)"/>
        <path id="ArialMT-30" d="M 266 2259 
Q 266 3072 433 3567 
Q 600 4063 929 4331 
Q 1259 4600 1759 4600 
Q 2128 4600 2406 4451 
Q 2684 4303 2865 4023 
Q 3047 3744 3150 3342 
Q 3253 2941 3253 2259 
Q 3253 1453 3087 958 
Q 2922 463 2592 192 
Q 2263 -78 1759 -78 
Q 1097 -78 719 397 
Q 266 969 266 2259 
z
M 844 2259 
Q 844 1131 1108 757 
Q 1372 384 1759 384 
Q 2147 384 2411 759 
Q 2675 1134 2675 2259 
Q 2675 3391 2411 3762 
Q 2147 4134 1753 4134 
Q 1366 4134 1134 3806 
Q 844 3388 844 2259 
z
" transform="scale(0.015625)"/>
        <path id="ArialMT-2e" d="M 581 0 
L 581 641 
L 1222 641 
L 1222 0 
L 581 0 
z
" transform="scale(0.015625)"/>
       </defs>
       <use xlink:href="#ArialMT-2212"/>
       <use xlink:href="#ArialMT-31" x="58.398438"/>
       <use xlink:href="#ArialMT-30" x="114.013672"/>
       <use xlink:href="#ArialMT-2e" x="169.628906"/>
       <use xlink:href="#ArialMT-30" x="197.412109"/>
      </g>
     </g>
    </g>
    <g id="xtick_2">
     <g id="line2d_2">
      <path d="M 95.749292 312.66 
L 95.749292 12.96 
" clip-path="url(#pfb154110e5)" style="fill: none; stroke: #ffffff; stroke-linecap: round"/>
     </g>
     <g id="text_2">
      <!-- −7.5 -->
      <g style="fill: #262626" transform="translate(84.891949 330.033594)scale(0.11 -0.11)">
       <defs>
        <path id="ArialMT-37" d="M 303 3981 
L 303 4522 
L 3269 4522 
L 3269 4084 
Q 2831 3619 2401 2847 
Q 1972 2075 1738 1259 
Q 1569 684 1522 0 
L 944 0 
Q 953 541 1156 1306 
Q 1359 2072 1739 2783 
Q 2119 3494 2547 3981 
L 303 3981 
z
" transform="scale(0.015625)"/>
        <path id="ArialMT-35" d="M 266 1200 
L 856 1250 
Q 922 819 1161 601 
Q 1400 384 1738 384 
Q 2144 384 2425 690 
Q 2706 997 2706 1503 
Q 2706 1984 2436 2262 
Q 2166 2541 1728 2541 
Q 1456 2541 1237 2417 
Q 1019 2294 894 2097 
L 366 2166 
L 809 4519 
L 3088 4519 
L 3088 3981 
L 1259 3981 
L 1013 2750 
Q 1425 3038 1878 3038 
Q 2478 3038 2890 2622 
Q 3303 2206 3303 1553 
Q 3303 931 2941 478 
Q 2500 -78 1738 -78 
Q 1113 -78 717 272 
Q 322 622 266 1200 
z
" transform="scale(0.015625)"/>
       </defs>
       <use xlink:href="#ArialMT-2212"/>
       <use xlink:href="#ArialMT-37" x="58.398438"/>
       <use xlink:href="#ArialMT-2e" x="114.013672"/>
       <use xlink:href="#ArialMT-35" x="141.796875"/>
      </g>
     </g>
    </g>
    <g id="xtick_3">
     <g id="line2d_3">
      <path d="M 132.638585 312.66 
L 132.638585 12.96 
" clip-path="url(#pfb154110e5)" style="fill: none; stroke: #ffffff; stroke-linecap: round"/>
     </g>
     <g id="text_3">
      <!-- −5.0 -->
      <g style="fill: #262626" transform="translate(121.781241 330.033594)scale(0.11 -0.11)">
       <use xlink:href="#ArialMT-2212"/>
       <use xlink:href="#ArialMT-35" x="58.398438"/>
       <use xlink:href="#ArialMT-2e" x="114.013672"/>
       <use xlink:href="#ArialMT-30" x="141.796875"/>
      </g>
     </g>
    </g>
    <g id="xtick_4">
     <g id="line2d_4">
      <path d="M 169.527877 312.66 
L 169.527877 12.96 
" clip-path="url(#pfb154110e5)" style="fill: none; stroke: #ffffff; stroke-linecap: round"/>
     </g>
     <g id="text_4">
      <!-- −2.5 -->
      <g style="fill: #262626" transform="translate(158.670533 330.033594)scale(0.11 -0.11)">
       <defs>
        <path id="ArialMT-32" d="M 3222 541 
L 3222 0 
L 194 0 
Q 188 203 259 391 
Q 375 700 629 1000 
Q 884 1300 1366 1694 
Q 2113 2306 2375 2664 
Q 2638 3022 2638 3341 
Q 2638 3675 2398 3904 
Q 2159 4134 1775 4134 
Q 1369 4134 1125 3890 
Q 881 3647 878 3216 
L 300 3275 
Q 359 3922 746 4261 
Q 1134 4600 1788 4600 
Q 2447 4600 2831 4234 
Q 3216 3869 3216 3328 
Q 3216 3053 3103 2787 
Q 2991 2522 2730 2228 
Q 2469 1934 1863 1422 
Q 1356 997 1212 845 
Q 1069 694 975 541 
L 3222 541 
z
" transform="scale(0.015625)"/>
       </defs>
       <use xlink:href="#ArialMT-2212"/>
       <use xlink:href="#ArialMT-32" x="58.398438"/>
       <use xlink:href="#ArialMT-2e" x="114.013672"/>
       <use xlink:href="#ArialMT-35" x="141.796875"/>
      </g>
     </g>
    </g>
    <g id="xtick_5">
     <g id="line2d_5">
      <path d="M 206.417169 312.66 
L 206.417169 12.96 
" clip-path="url(#pfb154110e5)" style="fill: none; stroke: #ffffff; stroke-linecap: round"/>
     </g>
     <g id="text_5">
      <!-- 0.0 -->
      <g style="fill: #262626" transform="translate(198.772169 330.033594)scale(0.11 -0.11)">
       <use xlink:href="#ArialMT-30"/>
       <use xlink:href="#ArialMT-2e" x="55.615234"/>
       <use xlink:href="#ArialMT-30" x="83.398438"/>
      </g>
     </g>
    </g>
    <g id="xtick_6">
     <g id="line2d_6">
      <path d="M 243.306462 312.66 
L 243.306462 12.96 
" clip-path="url(#pfb154110e5)" style="fill: none; stroke: #ffffff; stroke-linecap: round"/>
     </g>
     <g id="text_6">
      <!-- 2.5 -->
      <g style="fill: #262626" transform="translate(235.661462 330.033594)scale(0.11 -0.11)">
       <use xlink:href="#ArialMT-32"/>
       <use xlink:href="#ArialMT-2e" x="55.615234"/>
       <use xlink:href="#ArialMT-35" x="83.398438"/>
      </g>
     </g>
    </g>
    <g id="xtick_7">
     <g id="line2d_7">
      <path d="M 280.195754 312.66 
L 280.195754 12.96 
" clip-path="url(#pfb154110e5)" style="fill: none; stroke: #ffffff; stroke-linecap: round"/>
     </g>
     <g id="text_7">
      <!-- 5.0 -->
      <g style="fill: #262626" transform="translate(272.550754 330.033594)scale(0.11 -0.11)">
       <use xlink:href="#ArialMT-35"/>
       <use xlink:href="#ArialMT-2e" x="55.615234"/>
       <use xlink:href="#ArialMT-30" x="83.398438"/>
      </g>
     </g>
    </g>
    <g id="xtick_8">
     <g id="line2d_8">
      <path d="M 317.085046 312.66 
L 317.085046 12.96 
" clip-path="url(#pfb154110e5)" style="fill: none; stroke: #ffffff; stroke-linecap: round"/>
     </g>
     <g id="text_8">
      <!-- 7.5 -->
      <g style="fill: #262626" transform="translate(309.440046 330.033594)scale(0.11 -0.11)">
       <use xlink:href="#ArialMT-37"/>
       <use xlink:href="#ArialMT-2e" x="55.615234"/>
       <use xlink:href="#ArialMT-35" x="83.398438"/>
      </g>
     </g>
    </g>
    <g id="xtick_9">
     <g id="line2d_9">
      <path d="M 353.974339 312.66 
L 353.974339 12.96 
" clip-path="url(#pfb154110e5)" style="fill: none; stroke: #ffffff; stroke-linecap: round"/>
     </g>
     <g id="text_9">
      <!-- 10.0 -->
      <g style="fill: #262626" transform="translate(343.270823 330.033594)scale(0.11 -0.11)">
       <use xlink:href="#ArialMT-31"/>
       <use xlink:href="#ArialMT-30" x="55.615234"/>
       <use xlink:href="#ArialMT-2e" x="111.230469"/>
       <use xlink:href="#ArialMT-30" x="139.013672"/>
      </g>
     </g>
    </g>
    <g id="xtick_10">
     <g id="line2d_10">
      <path d="M 390.863631 312.66 
L 390.863631 12.96 
" clip-path="url(#pfb154110e5)" style="fill: none; stroke: #ffffff; stroke-linecap: round"/>
     </g>
     <g id="text_10">
      <!-- 12.5 -->
      <g style="fill: #262626" transform="translate(380.160115 330.033594)scale(0.11 -0.11)">
       <use xlink:href="#ArialMT-31"/>
       <use xlink:href="#ArialMT-32" x="55.615234"/>
       <use xlink:href="#ArialMT-2e" x="111.230469"/>
       <use xlink:href="#ArialMT-35" x="139.013672"/>
      </g>
     </g>
    </g>
    <g id="xtick_11">
     <g id="line2d_11">
      <path d="M 427.752923 312.66 
L 427.752923 12.96 
" clip-path="url(#pfb154110e5)" style="fill: none; stroke: #ffffff; stroke-linecap: round"/>
     </g>
     <g id="text_11">
      <!-- 15.0 -->
      <g style="fill: #262626" transform="translate(417.049408 330.033594)scale(0.11 -0.11)">
       <use xlink:href="#ArialMT-31"/>
       <use xlink:href="#ArialMT-35" x="55.615234"/>
       <use xlink:href="#ArialMT-2e" x="111.230469"/>
       <use xlink:href="#ArialMT-30" x="139.013672"/>
      </g>
     </g>
    </g>
    <g id="xtick_12">
     <g id="line2d_12">
      <path d="M 464.642216 312.66 
L 464.642216 12.96 
" clip-path="url(#pfb154110e5)" style="fill: none; stroke: #ffffff; stroke-linecap: round"/>
     </g>
     <g id="text_12">
      <!-- 17.5 -->
      <g style="fill: #262626" transform="translate(453.9387 330.033594)scale(0.11 -0.11)">
       <use xlink:href="#ArialMT-31"/>
       <use xlink:href="#ArialMT-37" x="55.615234"/>
       <use xlink:href="#ArialMT-2e" x="111.230469"/>
       <use xlink:href="#ArialMT-35" x="139.013672"/>
      </g>
     </g>
    </g>
    <g id="xtick_13">
     <g id="line2d_13">
      <path d="M 501.531508 312.66 
L 501.531508 12.96 
" clip-path="url(#pfb154110e5)" style="fill: none; stroke: #ffffff; stroke-linecap: round"/>
     </g>
     <g id="text_13">
      <!-- 20.0 -->
      <g style="fill: #262626" transform="translate(490.827992 330.033594)scale(0.11 -0.11)">
       <use xlink:href="#ArialMT-32"/>
       <use xlink:href="#ArialMT-30" x="55.615234"/>
       <use xlink:href="#ArialMT-2e" x="111.230469"/>
       <use xlink:href="#ArialMT-30" x="139.013672"/>
      </g>
     </g>
    </g>
    <g id="text_14">
     <!-- α [°] -->
     <g style="fill: #262626" transform="translate(273.899744 344.955469)scale(0.12 -0.12)">
      <defs>
       <path id="ArialMT-3b1" d="M 2884 3319 
L 3459 3319 
Q 3241 2631 3056 1659 
Q 3275 453 3459 0 
L 2900 0 
Q 2766 313 2697 606 
Q 2438 -75 1613 -75 
Q 988 -75 606 394 
Q 225 863 225 1666 
Q 225 2491 608 2942 
Q 991 3394 1622 3394 
Q 2013 3394 2259 3236 
Q 2506 3078 2719 2756 
Q 2741 2866 2884 3319 
z
M 1716 2928 
Q 1313 2928 1078 2603 
Q 844 2278 844 1666 
Q 844 1069 1066 728 
Q 1288 388 1684 388 
Q 2072 388 2331 723 
Q 2591 1059 2591 1691 
Q 2591 2303 2348 2615 
Q 2106 2928 1716 2928 
z
" transform="scale(0.015625)"/>
       <path id="ArialMT-20" transform="scale(0.015625)"/>
       <path id="ArialMT-5b" d="M 434 -1272 
L 434 4581 
L 1675 4581 
L 1675 4116 
L 997 4116 
L 997 -806 
L 1675 -806 
L 1675 -1272 
L 434 -1272 
z
" transform="scale(0.015625)"/>
       <path id="ArialMT-b0" d="M 400 3794 
Q 400 4153 654 4406 
Q 909 4659 1266 4659 
Q 1628 4659 1881 4406 
Q 2134 4153 2134 3794 
Q 2134 3434 1879 3179 
Q 1625 2925 1266 2925 
Q 909 2925 654 3178 
Q 400 3431 400 3794 
z
M 741 3794 
Q 741 3575 895 3420 
Q 1050 3266 1269 3266 
Q 1484 3266 1639 3420 
Q 1794 3575 1794 3794 
Q 1794 4013 1639 4167 
Q 1484 4322 1269 4322 
Q 1050 4322 895 4167 
Q 741 4013 741 3794 
z
" transform="scale(0.015625)"/>
       <path id="ArialMT-5d" d="M 1363 -1272 
L 122 -1272 
L 122 -806 
L 800 -806 
L 800 4116 
L 122 4116 
L 122 4581 
L 1363 4581 
L 1363 -1272 
z
" transform="scale(0.015625)"/>
      </defs>
      <use xlink:href="#ArialMT-3b1"/>
      <use xlink:href="#ArialMT-20" x="57.8125"/>
      <use xlink:href="#ArialMT-5b" x="85.595703"/>
      <use xlink:href="#ArialMT-b0" x="113.378906"/>
      <use xlink:href="#ArialMT-5d" x="153.369141"/>
     </g>
    </g>
   </g>
   <g id="matplotlib.axis_2">
    <g id="ytick_1">
     <g id="line2d_14">
      <path d="M 58.86 312.66 
L 510.676364 312.66 
" clip-path="url(#pfb154110e5)" style="fill: none; stroke: #ffffff; stroke-linecap: round"/>
     </g>
     <g id="text_15">
      <!-- −1.00 -->
      <g style="fill: #262626" transform="translate(21.528281 316.596797)scale(0.11 -0.11)">
       <use xlink:href="#ArialMT-2212"/>
       <use xlink:href="#ArialMT-31" x="58.398438"/>
       <use xlink:href="#ArialMT-2e" x="114.013672"/>
       <use xlink:href="#ArialMT-30" x="141.796875"/>
       <use xlink:href="#ArialMT-30" x="197.412109"/>
      </g>
     </g>
    </g>
    <g id="ytick_2">
     <g id="line2d_15">
      <path d="M 58.86 279.36 
L 510.676364 279.36 
" clip-path="url(#pfb154110e5)" style="fill: none; stroke: #ffffff; stroke-linecap: round"/>
     </g>
     <g id="text_16">
      <!-- −0.75 -->
      <g style="fill: #262626" transform="translate(21.528281 283.296797)scale(0.11 -0.11)">
       <use xlink:href="#ArialMT-2212"/>
       <use xlink:href="#ArialMT-30" x="58.398438"/>
       <use xlink:href="#ArialMT-2e" x="114.013672"/>
       <use xlink:href="#ArialMT-37" x="141.796875"/>
       <use xlink:href="#ArialMT-35" x="197.412109"/>
      </g>
     </g>
    </g>
    <g id="ytick_3">
     <g id="line2d_16">
      <path d="M 58.86 246.06 
L 510.676364 246.06 
" clip-path="url(#pfb154110e5)" style="fill: none; stroke: #ffffff; stroke-linecap: round"/>
     </g>
     <g id="text_17">
      <!-- −0.50 -->
      <g style="fill: #262626" transform="translate(21.528281 249.996797)scale(0.11 -0.11)">
       <use xlink:href="#ArialMT-2212"/>
       <use xlink:href="#ArialMT-30" x="58.398438"/>
       <use xlink:href="#ArialMT-2e" x="114.013672"/>
       <use xlink:href="#ArialMT-35" x="141.796875"/>
       <use xlink:href="#ArialMT-30" x="197.412109"/>
      </g>
     </g>
    </g>
    <g id="ytick_4">
     <g id="line2d_17">
      <path d="M 58.86 212.76 
L 510.676364 212.76 
" clip-path="url(#pfb154110e5)" style="fill: none; stroke: #ffffff; stroke-linecap: round"/>
     </g>
     <g id="text_18">
      <!-- −0.25 -->
      <g style="fill: #262626" transform="translate(21.528281 216.696797)scale(0.11 -0.11)">
       <use xlink:href="#ArialMT-2212"/>
       <use xlink:href="#ArialMT-30" x="58.398438"/>
       <use xlink:href="#ArialMT-2e" x="114.013672"/>
       <use xlink:href="#ArialMT-32" x="141.796875"/>
       <use xlink:href="#ArialMT-35" x="197.412109"/>
      </g>
     </g>
    </g>
    <g id="ytick_5">
     <g id="line2d_18">
      <path d="M 58.86 179.46 
L 510.676364 179.46 
" clip-path="url(#pfb154110e5)" style="fill: none; stroke: #ffffff; stroke-linecap: round"/>
     </g>
     <g id="text_19">
      <!-- 0.00 -->
      <g style="fill: #262626" transform="translate(27.952969 183.396797)scale(0.11 -0.11)">
       <use xlink:href="#ArialMT-30"/>
       <use xlink:href="#ArialMT-2e" x="55.615234"/>
       <use xlink:href="#ArialMT-30" x="83.398438"/>
       <use xlink:href="#ArialMT-30" x="139.013672"/>
      </g>
     </g>
    </g>
    <g id="ytick_6">
     <g id="line2d_19">
      <path d="M 58.86 146.16 
L 510.676364 146.16 
" clip-path="url(#pfb154110e5)" style="fill: none; stroke: #ffffff; stroke-linecap: round"/>
     </g>
     <g id="text_20">
      <!-- 0.25 -->
      <g style="fill: #262626" transform="translate(27.952969 150.096797)scale(0.11 -0.11)">
       <use xlink:href="#ArialMT-30"/>
       <use xlink:href="#ArialMT-2e" x="55.615234"/>
       <use xlink:href="#ArialMT-32" x="83.398438"/>
       <use xlink:href="#ArialMT-35" x="139.013672"/>
      </g>
     </g>
    </g>
    <g id="ytick_7">
     <g id="line2d_20">
      <path d="M 58.86 112.86 
L 510.676364 112.86 
" clip-path="url(#pfb154110e5)" style="fill: none; stroke: #ffffff; stroke-linecap: round"/>
     </g>
     <g id="text_21">
      <!-- 0.50 -->
      <g style="fill: #262626" transform="translate(27.952969 116.796797)scale(0.11 -0.11)">
       <use xlink:href="#ArialMT-30"/>
       <use xlink:href="#ArialMT-2e" x="55.615234"/>
       <use xlink:href="#ArialMT-35" x="83.398438"/>
       <use xlink:href="#ArialMT-30" x="139.013672"/>
      </g>
     </g>
    </g>
    <g id="ytick_8">
     <g id="line2d_21">
      <path d="M 58.86 79.56 
L 510.676364 79.56 
" clip-path="url(#pfb154110e5)" style="fill: none; stroke: #ffffff; stroke-linecap: round"/>
     </g>
     <g id="text_22">
      <!-- 0.75 -->
      <g style="fill: #262626" transform="translate(27.952969 83.496797)scale(0.11 -0.11)">
       <use xlink:href="#ArialMT-30"/>
       <use xlink:href="#ArialMT-2e" x="55.615234"/>
       <use xlink:href="#ArialMT-37" x="83.398438"/>
       <use xlink:href="#ArialMT-35" x="139.013672"/>
      </g>
     </g>
    </g>
    <g id="ytick_9">
     <g id="line2d_22">
      <path d="M 58.86 46.26 
L 510.676364 46.26 
" clip-path="url(#pfb154110e5)" style="fill: none; stroke: #ffffff; stroke-linecap: round"/>
     </g>
     <g id="text_23">
      <!-- 1.00 -->
      <g style="fill: #262626" transform="translate(27.952969 50.196797)scale(0.11 -0.11)">
       <use xlink:href="#ArialMT-31"/>
       <use xlink:href="#ArialMT-2e" x="55.615234"/>
       <use xlink:href="#ArialMT-30" x="83.398438"/>
       <use xlink:href="#ArialMT-30" x="139.013672"/>
      </g>
     </g>
    </g>
    <g id="ytick_10">
     <g id="line2d_23">
      <path d="M 58.86 12.96 
L 510.676364 12.96 
" clip-path="url(#pfb154110e5)" style="fill: none; stroke: #ffffff; stroke-linecap: round"/>
     </g>
     <g id="text_24">
      <!-- 1.25 -->
      <g style="fill: #262626" transform="translate(27.952969 16.896797)scale(0.11 -0.11)">
       <use xlink:href="#ArialMT-31"/>
       <use xlink:href="#ArialMT-2e" x="55.615234"/>
       <use xlink:href="#ArialMT-32" x="83.398438"/>
       <use xlink:href="#ArialMT-35" x="139.013672"/>
      </g>
     </g>
    </g>
    <g id="text_25">
     <!-- Cl [-] -->
     <g style="fill: #262626" transform="translate(15.143281 175.474688)rotate(-90)scale(0.12 -0.12)">
      <defs>
       <path id="ArialMT-43" d="M 3763 1606 
L 4369 1453 
Q 4178 706 3683 314 
Q 3188 -78 2472 -78 
Q 1731 -78 1267 223 
Q 803 525 561 1097 
Q 319 1669 319 2325 
Q 319 3041 592 3573 
Q 866 4106 1370 4382 
Q 1875 4659 2481 4659 
Q 3169 4659 3637 4309 
Q 4106 3959 4291 3325 
L 3694 3184 
Q 3534 3684 3231 3912 
Q 2928 4141 2469 4141 
Q 1941 4141 1586 3887 
Q 1231 3634 1087 3207 
Q 944 2781 944 2328 
Q 944 1744 1114 1308 
Q 1284 872 1643 656 
Q 2003 441 2422 441 
Q 2931 441 3284 734 
Q 3638 1028 3763 1606 
z
" transform="scale(0.015625)"/>
       <path id="ArialMT-6c" d="M 409 0 
L 409 4581 
L 972 4581 
L 972 0 
L 409 0 
z
" transform="scale(0.015625)"/>
       <path id="ArialMT-2d" d="M 203 1375 
L 203 1941 
L 1931 1941 
L 1931 1375 
L 203 1375 
z
" transform="scale(0.015625)"/>
      </defs>
      <use xlink:href="#ArialMT-43"/>
      <use xlink:href="#ArialMT-6c" x="72.216797"/>
      <use xlink:href="#ArialMT-20" x="94.433594"/>
      <use xlink:href="#ArialMT-5b" x="122.216797"/>
      <use xlink:href="#ArialMT-2d" x="150"/>
      <use xlink:href="#ArialMT-5d" x="183.300781"/>
     </g>
    </g>
   </g>
   <g id="PolyCollection_1"/>
   <g id="PathCollection_1">
    <path d="M 162.150019 214.07462 
C 162.945628 214.07462 163.708758 213.758521 164.271339 213.195941 
C 164.83392 212.63336 165.150019 211.87023 165.150019 211.07462 
C 165.150019 210.279011 164.83392 209.515881 164.271339 208.9533 
C 163.708758 208.390719 162.945628 208.07462 162.150019 208.07462 
C 161.354409 208.07462 160.591279 208.390719 160.028698 208.9533 
C 159.466117 209.515881 159.150019 210.279011 159.150019 211.07462 
C 159.150019 211.87023 159.466117 212.63336 160.028698 213.195941 
C 160.591279 213.758521 161.354409 214.07462 162.150019 214.07462 
z
" clip-path="url(#pfb154110e5)" style="fill: #a6cee3; stroke: #ffffff; stroke-width: 0.48"/>
    <path d="M 169.527877 208.691609 
C 170.323486 208.691609 171.086617 208.37551 171.649197 207.812929 
C 172.211778 207.250348 172.527877 206.487218 172.527877 205.691609 
C 172.527877 204.896 172.211778 204.132869 171.649197 203.570288 
C 171.086617 203.007708 170.323486 202.691609 169.527877 202.691609 
C 168.732268 202.691609 167.969137 203.007708 167.406557 203.570288 
C 166.843976 204.132869 166.527877 204.896 166.527877 205.691609 
C 166.527877 206.487218 166.843976 207.250348 167.406557 207.812929 
C 167.969137 208.37551 168.732268 208.691609 169.527877 208.691609 
z
" clip-path="url(#pfb154110e5)" style="fill: #a6cee3; stroke: #ffffff; stroke-width: 0.48"/>
    <path d="M 176.905735 203.459646 
C 177.701345 203.459646 178.464475 203.143547 179.027056 202.580966 
C 179.589637 202.018386 179.905735 201.255255 179.905735 200.459646 
C 179.905735 199.664037 179.589637 198.900906 179.027056 198.338326 
C 178.464475 197.775745 177.701345 197.459646 176.905735 197.459646 
C 176.110126 197.459646 175.346996 197.775745 174.784415 198.338326 
C 174.221834 198.900906 173.905735 199.664037 173.905735 200.459646 
C 173.905735 201.255255 174.221834 202.018386 174.784415 202.580966 
C 175.346996 203.143547 176.110126 203.459646 176.905735 203.459646 
z
" clip-path="url(#pfb154110e5)" style="fill: #a6cee3; stroke: #ffffff; stroke-width: 0.48"/>
    <path d="M 184.283594 198.18053 
C 185.079203 198.18053 185.842334 197.864431 186.404914 197.301851 
C 186.967495 196.73927 187.283594 195.97614 187.283594 195.18053 
C 187.283594 194.384921 186.967495 193.621791 186.404914 193.05921 
C 185.842334 192.496629 185.079203 192.18053 184.283594 192.18053 
C 183.487985 192.18053 182.724854 192.496629 182.162274 193.05921 
C 181.599693 193.621791 181.283594 194.384921 181.283594 195.18053 
C 181.283594 195.97614 181.599693 196.73927 182.162274 197.301851 
C 182.724854 197.864431 183.487985 198.18053 184.283594 198.18053 
z
" clip-path="url(#pfb154110e5)" style="fill: #a6cee3; stroke: #ffffff; stroke-width: 0.48"/>
    <path d="M 191.661452 192.925524 
C 192.457062 192.925524 193.220192 192.609425 193.782773 192.046844 
C 194.345353 191.484264 194.661452 190.721133 194.661452 189.925524 
C 194.661452 189.129915 194.345353 188.366784 193.782773 187.804204 
C 193.220192 187.241623 192.457062 186.925524 191.661452 186.925524 
C 190.865843 186.925524 190.102713 187.241623 189.540132 187.804204 
C 188.977551 188.366784 188.661452 189.129915 188.661452 189.925524 
C 188.661452 190.721133 188.977551 191.484264 189.540132 192.046844 
C 190.102713 192.609425 190.865843 192.925524 191.661452 192.925524 
z
" clip-path="url(#pfb154110e5)" style="fill: #a6cee3; stroke: #ffffff; stroke-width: 0.48"/>
    <path d="M 199.039311 187.66106 
C 199.83492 187.66106 200.59805 187.344961 201.160631 186.782381 
C 201.723212 186.2198 202.039311 185.45667 202.039311 184.66106 
C 202.039311 183.865451 201.723212 183.102321 201.160631 182.53974 
C 200.59805 181.977159 199.83492 181.66106 199.039311 181.66106 
C 198.243702 181.66106 197.480571 181.977159 196.917991 182.53974 
C 196.35541 183.102321 196.039311 183.865451 196.039311 184.66106 
C 196.039311 185.45667 196.35541 186.2198 196.917991 186.782381 
C 197.480571 187.344961 198.243702 187.66106 199.039311 187.66106 
z
" clip-path="url(#pfb154110e5)" style="fill: #a6cee3; stroke: #ffffff; stroke-width: 0.48"/>
    <path d="M 206.417169 182.354372 
C 207.212779 182.354372 207.975909 182.038273 208.53849 181.475693 
C 209.10107 180.913112 209.417169 180.149982 209.417169 179.354372 
C 209.417169 178.558763 209.10107 177.795633 208.53849 177.233052 
C 207.975909 176.670471 207.212779 176.354372 206.417169 176.354372 
C 205.62156 176.354372 204.85843 176.670471 204.295849 177.233052 
C 203.733268 177.795633 203.417169 178.558763 203.417169 179.354372 
C 203.417169 180.149982 203.733268 180.913112 204.295849 181.475693 
C 204.85843 182.038273 205.62156 182.354372 206.417169 182.354372 
z
" clip-path="url(#pfb154110e5)" style="fill: #a6cee3; stroke: #ffffff; stroke-width: 0.48"/>
    <path d="M 213.795028 177.105094 
C 214.590637 177.105094 215.353767 176.788995 215.916348 176.226414 
C 216.478929 175.663833 216.795028 174.900703 216.795028 174.105094 
C 216.795028 173.309484 216.478929 172.546354 215.916348 171.983773 
C 215.353767 171.421193 214.590637 171.105094 213.795028 171.105094 
C 212.999419 171.105094 212.236288 171.421193 211.673707 171.983773 
C 211.111127 172.546354 210.795028 173.309484 210.795028 174.105094 
C 210.795028 174.900703 211.111127 175.663833 211.673707 176.226414 
C 212.236288 176.788995 212.999419 177.105094 213.795028 177.105094 
z
" clip-path="url(#pfb154110e5)" style="fill: #a6cee3; stroke: #ffffff; stroke-width: 0.48"/>
    <path d="M 221.172886 171.83397 
C 221.968496 171.83397 222.731626 171.517871 223.294207 170.95529 
C 223.856787 170.39271 224.172886 169.629579 224.172886 168.83397 
C 224.172886 168.038361 223.856787 167.27523 223.294207 166.71265 
C 222.731626 166.150069 221.968496 165.83397 221.172886 165.83397 
C 220.377277 165.83397 219.614147 166.150069 219.051566 166.71265 
C 218.488985 167.27523 218.172886 168.038361 218.172886 168.83397 
C 218.172886 169.629579 218.488985 170.39271 219.051566 170.95529 
C 219.614147 171.517871 220.377277 171.83397 221.172886 171.83397 
z
" clip-path="url(#pfb154110e5)" style="fill: #a6cee3; stroke: #ffffff; stroke-width: 0.48"/>
    <path d="M 228.550745 166.554988 
C 229.346354 166.554988 230.109484 166.238889 230.672065 165.676308 
C 231.234646 165.113727 231.550745 164.350597 231.550745 163.554988 
C 231.550745 162.759378 231.234646 161.996248 230.672065 161.433667 
C 230.109484 160.871087 229.346354 160.554988 228.550745 160.554988 
C 227.755135 160.554988 226.992005 160.871087 226.429424 161.433667 
C 225.866844 161.996248 225.550745 162.759378 225.550745 163.554988 
C 225.550745 164.350597 225.866844 165.113727 226.429424 165.676308 
C 226.992005 166.238889 227.755135 166.554988 228.550745 166.554988 
z
" clip-path="url(#pfb154110e5)" style="fill: #a6cee3; stroke: #ffffff; stroke-width: 0.48"/>
    <path d="M 235.928603 161.29079 
C 236.724213 161.29079 237.487343 160.974691 238.049924 160.412111 
C 238.612504 159.84953 238.928603 159.0864 238.928603 158.29079 
C 238.928603 157.495181 238.612504 156.732051 238.049924 156.16947 
C 237.487343 155.606889 236.724213 155.29079 235.928603 155.29079 
C 235.132994 155.29079 234.369864 155.606889 233.807283 156.16947 
C 233.244702 156.732051 232.928603 157.495181 232.928603 158.29079 
C 232.928603 159.0864 233.244702 159.84953 233.807283 160.412111 
C 234.369864 160.974691 235.132994 161.29079 235.928603 161.29079 
z
" clip-path="url(#pfb154110e5)" style="fill: #a6cee3; stroke: #ffffff; stroke-width: 0.48"/>
    <path d="M 243.306462 156.077209 
C 244.102071 156.077209 244.865201 155.76111 245.427782 155.19853 
C 245.990363 154.635949 246.306462 153.872819 246.306462 153.077209 
C 246.306462 152.2816 245.990363 151.51847 245.427782 150.955889 
C 244.865201 150.393308 244.102071 150.077209 243.306462 150.077209 
C 242.510852 150.077209 241.747722 150.393308 241.185141 150.955889 
C 240.622561 151.51847 240.306462 152.2816 240.306462 153.077209 
C 240.306462 153.872819 240.622561 154.635949 241.185141 155.19853 
C 241.747722 155.76111 242.510852 156.077209 243.306462 156.077209 
z
" clip-path="url(#pfb154110e5)" style="fill: #a6cee3; stroke: #ffffff; stroke-width: 0.48"/>
    <path d="M 250.68432 150.869356 
C 251.479929 150.869356 252.24306 150.553257 252.805641 149.990676 
C 253.368221 149.428095 253.68432 148.664965 253.68432 147.869356 
C 253.68432 147.073746 253.368221 146.310616 252.805641 145.748035 
C 252.24306 145.185455 251.479929 144.869356 250.68432 144.869356 
C 249.888711 144.869356 249.125581 145.185455 248.563 145.748035 
C 248.000419 146.310616 247.68432 147.073746 247.68432 147.869356 
C 247.68432 148.664965 248.000419 149.428095 248.563 149.990676 
C 249.125581 150.553257 249.888711 150.869356 250.68432 150.869356 
z
" clip-path="url(#pfb154110e5)" style="fill: #a6cee3; stroke: #ffffff; stroke-width: 0.48"/>
    <path d="M 258.062179 145.675222 
C 258.857788 145.675222 259.620918 145.359123 260.183499 144.796542 
C 260.74608 144.233961 261.062179 143.470831 261.062179 142.675222 
C 261.062179 141.879612 260.74608 141.116482 260.183499 140.553901 
C 259.620918 139.991321 258.857788 139.675222 258.062179 139.675222 
C 257.266569 139.675222 256.503439 139.991321 255.940858 140.553901 
C 255.378278 141.116482 255.062179 141.879612 255.062179 142.675222 
C 255.062179 143.470831 255.378278 144.233961 255.940858 144.796542 
C 256.503439 145.359123 257.266569 145.675222 258.062179 145.675222 
z
" clip-path="url(#pfb154110e5)" style="fill: #a6cee3; stroke: #ffffff; stroke-width: 0.48"/>
    <path d="M 265.440037 140.490944 
C 266.235646 140.490944 266.998777 140.174845 267.561357 139.612265 
C 268.123938 139.049684 268.440037 138.286554 268.440037 137.490944 
C 268.440037 136.695335 268.123938 135.932205 267.561357 135.369624 
C 266.998777 134.807043 266.235646 134.490944 265.440037 134.490944 
C 264.644428 134.490944 263.881297 134.807043 263.318717 135.369624 
C 262.756136 135.932205 262.440037 136.695335 262.440037 137.490944 
C 262.440037 138.286554 262.756136 139.049684 263.318717 139.612265 
C 263.881297 140.174845 264.644428 140.490944 265.440037 140.490944 
z
" clip-path="url(#pfb154110e5)" style="fill: #a6cee3; stroke: #ffffff; stroke-width: 0.48"/>
    <path d="M 272.817896 135.309997 
C 273.613505 135.309997 274.376635 134.993898 274.939216 134.431318 
C 275.501797 133.868737 275.817896 133.105607 275.817896 132.309997 
C 275.817896 131.514388 275.501797 130.751258 274.939216 130.188677 
C 274.376635 129.626096 273.613505 129.309997 272.817896 129.309997 
C 272.022286 129.309997 271.259156 129.626096 270.696575 130.188677 
C 270.133994 130.751258 269.817896 131.514388 269.817896 132.309997 
C 269.817896 133.105607 270.133994 133.868737 270.696575 134.431318 
C 271.259156 134.993898 272.022286 135.309997 272.817896 135.309997 
z
" clip-path="url(#pfb154110e5)" style="fill: #a6cee3; stroke: #ffffff; stroke-width: 0.48"/>
    <path d="M 280.195754 130.165547 
C 280.991363 130.165547 281.754494 129.849448 282.317074 129.286867 
C 282.879655 128.724286 283.195754 127.961156 283.195754 127.165547 
C 283.195754 126.369938 282.879655 125.606807 282.317074 125.044226 
C 281.754494 124.481646 280.991363 124.165547 280.195754 124.165547 
C 279.400145 124.165547 278.637014 124.481646 278.074434 125.044226 
C 277.511853 125.606807 277.195754 126.369938 277.195754 127.165547 
C 277.195754 127.961156 277.511853 128.724286 278.074434 129.286867 
C 278.637014 129.849448 279.400145 130.165547 280.195754 130.165547 
z
" clip-path="url(#pfb154110e5)" style="fill: #a6cee3; stroke: #ffffff; stroke-width: 0.48"/>
    <path d="M 287.573613 125.099018 
C 288.369222 125.099018 289.132352 124.782919 289.694933 124.220339 
C 290.257514 123.657758 290.573613 122.894628 290.573613 122.099018 
C 290.573613 121.303409 290.257514 120.540279 289.694933 119.977698 
C 289.132352 119.415117 288.369222 119.099018 287.573613 119.099018 
C 286.778003 119.099018 286.014873 119.415117 285.452292 119.977698 
C 284.889711 120.540279 284.573613 121.303409 284.573613 122.099018 
C 284.573613 122.894628 284.889711 123.657758 285.452292 124.220339 
C 286.014873 124.782919 286.778003 125.099018 287.573613 125.099018 
z
" clip-path="url(#pfb154110e5)" style="fill: #a6cee3; stroke: #ffffff; stroke-width: 0.48"/>
    <path d="M 294.951471 120.497092 
C 295.74708 120.497092 296.510211 120.180993 297.072791 119.618412 
C 297.635372 119.055831 297.951471 118.292701 297.951471 117.497092 
C 297.951471 116.701482 297.635372 115.938352 297.072791 115.375771 
C 296.510211 114.813191 295.74708 114.497092 294.951471 114.497092 
C 294.155862 114.497092 293.392731 114.813191 292.830151 115.375771 
C 292.26757 115.938352 291.951471 116.701482 291.951471 117.497092 
C 291.951471 118.292701 292.26757 119.055831 292.830151 119.618412 
C 293.392731 120.180993 294.155862 120.497092 294.951471 120.497092 
z
" clip-path="url(#pfb154110e5)" style="fill: #a6cee3; stroke: #ffffff; stroke-width: 0.48"/>
    <path d="M 302.329329 116.22923 
C 303.124939 116.22923 303.888069 115.913131 304.45065 115.350551 
C 305.013231 114.78797 305.329329 114.02484 305.329329 113.22923 
C 305.329329 112.433621 305.013231 111.670491 304.45065 111.10791 
C 303.888069 110.545329 303.124939 110.22923 302.329329 110.22923 
C 301.53372 110.22923 300.77059 110.545329 300.208009 111.10791 
C 299.645428 111.670491 299.329329 112.433621 299.329329 113.22923 
C 299.329329 114.02484 299.645428 114.78797 300.208009 115.350551 
C 300.77059 115.913131 301.53372 116.22923 302.329329 116.22923 
z
" clip-path="url(#pfb154110e5)" style="fill: #a6cee3; stroke: #ffffff; stroke-width: 0.48"/>
    <path d="M 309.707188 111.927137 
C 310.502797 111.927137 311.265928 111.611038 311.828508 111.048457 
C 312.391089 110.485876 312.707188 109.722746 312.707188 108.927137 
C 312.707188 108.131528 312.391089 107.368397 311.828508 106.805816 
C 311.265928 106.243236 310.502797 105.927137 309.707188 105.927137 
C 308.911579 105.927137 308.148448 106.243236 307.585868 106.805816 
C 307.023287 107.368397 306.707188 108.131528 306.707188 108.927137 
C 306.707188 109.722746 307.023287 110.485876 307.585868 111.048457 
C 308.148448 111.611038 308.911579 111.927137 309.707188 111.927137 
z
" clip-path="url(#pfb154110e5)" style="fill: #a6cee3; stroke: #ffffff; stroke-width: 0.48"/>
    <path d="M 317.085046 107.472929 
C 317.880656 107.472929 318.643786 107.15683 319.206367 106.594249 
C 319.768947 106.031668 320.085046 105.268538 320.085046 104.472929 
C 320.085046 103.67732 319.768947 102.914189 319.206367 102.351608 
C 318.643786 101.789028 317.880656 101.472929 317.085046 101.472929 
C 316.289437 101.472929 315.526307 101.789028 314.963726 102.351608 
C 314.401145 102.914189 314.085046 103.67732 314.085046 104.472929 
C 314.085046 105.268538 314.401145 106.031668 314.963726 106.594249 
C 315.526307 107.15683 316.289437 107.472929 317.085046 107.472929 
z
" clip-path="url(#pfb154110e5)" style="fill: #a6cee3; stroke: #ffffff; stroke-width: 0.48"/>
    <path d="M 324.462905 102.985021 
C 325.258514 102.985021 326.021644 102.668922 326.584225 102.106342 
C 327.146806 101.543761 327.462905 100.780631 327.462905 99.985021 
C 327.462905 99.189412 327.146806 98.426282 326.584225 97.863701 
C 326.021644 97.30112 325.258514 96.985021 324.462905 96.985021 
C 323.667296 96.985021 322.904165 97.30112 322.341584 97.863701 
C 321.779004 98.426282 321.462905 99.189412 321.462905 99.985021 
C 321.462905 100.780631 321.779004 101.543761 322.341584 102.106342 
C 322.904165 102.668922 323.667296 102.985021 324.462905 102.985021 
z
" clip-path="url(#pfb154110e5)" style="fill: #a6cee3; stroke: #ffffff; stroke-width: 0.48"/>
    <path d="M 331.840763 98.491652 
C 332.636373 98.491652 333.399503 98.175553 333.962084 97.612973 
C 334.524664 97.050392 334.840763 96.287262 334.840763 95.491652 
C 334.840763 94.696043 334.524664 93.932913 333.962084 93.370332 
C 333.399503 92.807751 332.636373 92.491652 331.840763 92.491652 
C 331.045154 92.491652 330.282024 92.807751 329.719443 93.370332 
C 329.156862 93.932913 328.840763 94.696043 328.840763 95.491652 
C 328.840763 96.287262 329.156862 97.050392 329.719443 97.612973 
C 330.282024 98.175553 331.045154 98.491652 331.840763 98.491652 
z
" clip-path="url(#pfb154110e5)" style="fill: #a6cee3; stroke: #ffffff; stroke-width: 0.48"/>
    <path d="M 339.218622 94.052096 
C 340.014231 94.052096 340.777361 93.735997 341.339942 93.173417 
C 341.902523 92.610836 342.218622 91.847706 342.218622 91.052096 
C 342.218622 90.256487 341.902523 89.493357 341.339942 88.930776 
C 340.777361 88.368195 340.014231 88.052096 339.218622 88.052096 
C 338.423012 88.052096 337.659882 88.368195 337.097301 88.930776 
C 336.534721 89.493357 336.218622 90.256487 336.218622 91.052096 
C 336.218622 91.847706 336.534721 92.610836 337.097301 93.173417 
C 337.659882 93.735997 338.423012 94.052096 339.218622 94.052096 
z
" clip-path="url(#pfb154110e5)" style="fill: #a6cee3; stroke: #ffffff; stroke-width: 0.48"/>
    <path d="M 346.59648 89.43938 
C 347.39209 89.43938 348.15522 89.123281 348.717801 88.560701 
C 349.280381 87.99812 349.59648 87.23499 349.59648 86.43938 
C 349.59648 85.643771 349.280381 84.880641 348.717801 84.31806 
C 348.15522 83.755479 347.39209 83.43938 346.59648 83.43938 
C 345.800871 83.43938 345.037741 83.755479 344.47516 84.31806 
C 343.912579 84.880641 343.59648 85.643771 343.59648 86.43938 
C 343.59648 87.23499 343.912579 87.99812 344.47516 88.560701 
C 345.037741 89.123281 345.800871 89.43938 346.59648 89.43938 
z
" clip-path="url(#pfb154110e5)" style="fill: #a6cee3; stroke: #ffffff; stroke-width: 0.48"/>
    <path d="M 353.974339 84.453172 
C 354.769948 84.453172 355.533078 84.137073 356.095659 83.574492 
C 356.65824 83.011911 356.974339 82.248781 356.974339 81.453172 
C 356.974339 80.657562 356.65824 79.894432 356.095659 79.331851 
C 355.533078 78.769271 354.769948 78.453172 353.974339 78.453172 
C 353.178729 78.453172 352.415599 78.769271 351.853018 79.331851 
C 351.290438 79.894432 350.974339 80.657562 350.974339 81.453172 
C 350.974339 82.248781 351.290438 83.011911 351.853018 83.574492 
C 352.415599 84.137073 353.178729 84.453172 353.974339 84.453172 
z
" clip-path="url(#pfb154110e5)" style="fill: #a6cee3; stroke: #ffffff; stroke-width: 0.48"/>
    <path d="M 361.352197 79.224272 
C 362.147806 79.224272 362.910937 78.908173 363.473518 78.345593 
C 364.036098 77.783012 364.352197 77.019882 364.352197 76.224272 
C 364.352197 75.428663 364.036098 74.665533 363.473518 74.102952 
C 362.910937 73.540371 362.147806 73.224272 361.352197 73.224272 
C 360.556588 73.224272 359.793458 73.540371 359.230877 74.102952 
C 358.668296 74.665533 358.352197 75.428663 358.352197 76.224272 
C 358.352197 77.019882 358.668296 77.783012 359.230877 78.345593 
C 359.793458 78.908173 360.556588 79.224272 361.352197 79.224272 
z
" clip-path="url(#pfb154110e5)" style="fill: #a6cee3; stroke: #ffffff; stroke-width: 0.48"/>
    <path d="M 368.730056 74.03893 
C 369.525665 74.03893 370.288795 73.722831 370.851376 73.16025 
C 371.413957 72.597669 371.730056 71.834539 371.730056 71.03893 
C 371.730056 70.24332 371.413957 69.48019 370.851376 68.917609 
C 370.288795 68.355029 369.525665 68.03893 368.730056 68.03893 
C 367.934446 68.03893 367.171316 68.355029 366.608735 68.917609 
C 366.046155 69.48019 365.730056 70.24332 365.730056 71.03893 
C 365.730056 71.834539 366.046155 72.597669 366.608735 73.16025 
C 367.171316 73.722831 367.934446 74.03893 368.730056 74.03893 
z
" clip-path="url(#pfb154110e5)" style="fill: #a6cee3; stroke: #ffffff; stroke-width: 0.48"/>
    <path d="M 376.107914 69.98885 
C 376.903523 69.98885 377.666654 69.672751 378.229234 69.110171 
C 378.791815 68.54759 379.107914 67.78446 379.107914 66.98885 
C 379.107914 66.193241 378.791815 65.430111 378.229234 64.86753 
C 377.666654 64.304949 376.903523 63.98885 376.107914 63.98885 
C 375.312305 63.98885 374.549175 64.304949 373.986594 64.86753 
C 373.424013 65.430111 373.107914 66.193241 373.107914 66.98885 
C 373.107914 67.78446 373.424013 68.54759 373.986594 69.110171 
C 374.549175 69.672751 375.312305 69.98885 376.107914 69.98885 
z
" clip-path="url(#pfb154110e5)" style="fill: #a6cee3; stroke: #ffffff; stroke-width: 0.48"/>
    <path d="M 383.485773 66.488488 
C 384.281382 66.488488 385.044512 66.172389 385.607093 65.609808 
C 386.169674 65.047227 386.485773 64.284097 386.485773 63.488488 
C 386.485773 62.692878 386.169674 61.929748 385.607093 61.367167 
C 385.044512 60.804587 384.281382 60.488488 383.485773 60.488488 
C 382.690163 60.488488 381.927033 60.804587 381.364452 61.367167 
C 380.801872 61.929748 380.485773 62.692878 380.485773 63.488488 
C 380.485773 64.284097 380.801872 65.047227 381.364452 65.609808 
C 381.927033 66.172389 382.690163 66.488488 383.485773 66.488488 
z
" clip-path="url(#pfb154110e5)" style="fill: #a6cee3; stroke: #ffffff; stroke-width: 0.48"/>
    <path d="M 390.863631 63.031415 
C 391.65924 63.031415 392.422371 62.715316 392.984951 62.152735 
C 393.547532 61.590154 393.863631 60.827024 393.863631 60.031415 
C 393.863631 59.235806 393.547532 58.472675 392.984951 57.910094 
C 392.422371 57.347514 391.65924 57.031415 390.863631 57.031415 
C 390.068022 57.031415 389.304891 57.347514 388.742311 57.910094 
C 388.17973 58.472675 387.863631 59.235806 387.863631 60.031415 
C 387.863631 60.827024 388.17973 61.590154 388.742311 62.152735 
C 389.304891 62.715316 390.068022 63.031415 390.863631 63.031415 
z
" clip-path="url(#pfb154110e5)" style="fill: #a6cee3; stroke: #ffffff; stroke-width: 0.48"/>
    <path d="M 398.24149 59.694622 
C 399.037099 59.694622 399.800229 59.378523 400.36281 58.815942 
C 400.925391 58.253361 401.24149 57.490231 401.24149 56.694622 
C 401.24149 55.899012 400.925391 55.135882 400.36281 54.573301 
C 399.800229 54.010721 399.037099 53.694622 398.24149 53.694622 
C 397.44588 53.694622 396.68275 54.010721 396.120169 54.573301 
C 395.557588 55.135882 395.24149 55.899012 395.24149 56.694622 
C 395.24149 57.490231 395.557588 58.253361 396.120169 58.815942 
C 396.68275 59.378523 397.44588 59.694622 398.24149 59.694622 
z
" clip-path="url(#pfb154110e5)" style="fill: #a6cee3; stroke: #ffffff; stroke-width: 0.48"/>
    <path d="M 405.619348 56.465321 
C 406.414957 56.465321 407.178088 56.149222 407.740668 55.586641 
C 408.303249 55.02406 408.619348 54.26093 408.619348 53.465321 
C 408.619348 52.669712 408.303249 51.906581 407.740668 51.344 
C 407.178088 50.78142 406.414957 50.465321 405.619348 50.465321 
C 404.823739 50.465321 404.060608 50.78142 403.498028 51.344 
C 402.935447 51.906581 402.619348 52.669712 402.619348 53.465321 
C 402.619348 54.26093 402.935447 55.02406 403.498028 55.586641 
C 404.060608 56.149222 404.823739 56.465321 405.619348 56.465321 
z
" clip-path="url(#pfb154110e5)" style="fill: #a6cee3; stroke: #ffffff; stroke-width: 0.48"/>
    <path d="M 412.997206 53.439683 
C 413.792816 53.439683 414.555946 53.123584 415.118527 52.561003 
C 415.681108 51.998422 415.997206 51.235292 415.997206 50.439683 
C 415.997206 49.644074 415.681108 48.880943 415.118527 48.318362 
C 414.555946 47.755782 413.792816 47.439683 412.997206 47.439683 
C 412.201597 47.439683 411.438467 47.755782 410.875886 48.318362 
C 410.313305 48.880943 409.997206 49.644074 409.997206 50.439683 
C 409.997206 51.235292 410.313305 51.998422 410.875886 52.561003 
C 411.438467 53.123584 412.201597 53.439683 412.997206 53.439683 
z
" clip-path="url(#pfb154110e5)" style="fill: #a6cee3; stroke: #ffffff; stroke-width: 0.48"/>
    <path d="M 420.375065 50.617841 
C 421.170674 50.617841 421.933805 50.301742 422.496385 49.739161 
C 423.058966 49.17658 423.375065 48.41345 423.375065 47.617841 
C 423.375065 46.822232 423.058966 46.059101 422.496385 45.49652 
C 421.933805 44.93394 421.170674 44.617841 420.375065 44.617841 
C 419.579456 44.617841 418.816325 44.93394 418.253745 45.49652 
C 417.691164 46.059101 417.375065 46.822232 417.375065 47.617841 
C 417.375065 48.41345 417.691164 49.17658 418.253745 49.739161 
C 418.816325 50.301742 419.579456 50.617841 420.375065 50.617841 
z
" clip-path="url(#pfb154110e5)" style="fill: #a6cee3; stroke: #ffffff; stroke-width: 0.48"/>
    <path d="M 427.752923 48.033228 
C 428.548533 48.033228 429.311663 47.717129 429.874244 47.154548 
C 430.436824 46.591968 430.752923 45.828837 430.752923 45.033228 
C 430.752923 44.237619 430.436824 43.474488 429.874244 42.911908 
C 429.311663 42.349327 428.548533 42.033228 427.752923 42.033228 
C 426.957314 42.033228 426.194184 42.349327 425.631603 42.911908 
C 425.069022 43.474488 424.752923 44.237619 424.752923 45.033228 
C 424.752923 45.828837 425.069022 46.591968 425.631603 47.154548 
C 426.194184 47.717129 426.957314 48.033228 427.752923 48.033228 
z
" clip-path="url(#pfb154110e5)" style="fill: #a6cee3; stroke: #ffffff; stroke-width: 0.48"/>
    <path d="M 435.130782 45.650946 
C 435.926391 45.650946 436.689521 45.334847 437.252102 44.772266 
C 437.814683 44.209686 438.130782 43.446555 438.130782 42.650946 
C 438.130782 41.855337 437.814683 41.092206 437.252102 40.529626 
C 436.689521 39.967045 435.926391 39.650946 435.130782 39.650946 
C 434.335173 39.650946 433.572042 39.967045 433.009462 40.529626 
C 432.446881 41.092206 432.130782 41.855337 432.130782 42.650946 
C 432.130782 43.446555 432.446881 44.209686 433.009462 44.772266 
C 433.572042 45.334847 434.335173 45.650946 435.130782 45.650946 
z
" clip-path="url(#pfb154110e5)" style="fill: #a6cee3; stroke: #ffffff; stroke-width: 0.48"/>
    <path d="M 442.50864 43.408124 
C 443.30425 43.408124 444.06738 43.092025 444.629961 42.529445 
C 445.192541 41.966864 445.50864 41.203734 445.50864 40.408124 
C 445.50864 39.612515 445.192541 38.849385 444.629961 38.286804 
C 444.06738 37.724223 443.30425 37.408124 442.50864 37.408124 
C 441.713031 37.408124 440.949901 37.724223 440.38732 38.286804 
C 439.824739 38.849385 439.50864 39.612515 439.50864 40.408124 
C 439.50864 41.203734 439.824739 41.966864 440.38732 42.529445 
C 440.949901 43.092025 441.713031 43.408124 442.50864 43.408124 
z
" clip-path="url(#pfb154110e5)" style="fill: #a6cee3; stroke: #ffffff; stroke-width: 0.48"/>
    <path d="M 449.886499 41.410657 
C 450.682108 41.410657 451.445238 41.094558 452.007819 40.531978 
C 452.5704 39.969397 452.886499 39.206267 452.886499 38.410657 
C 452.886499 37.615048 452.5704 36.851918 452.007819 36.289337 
C 451.445238 35.726756 450.682108 35.410657 449.886499 35.410657 
C 449.090889 35.410657 448.327759 35.726756 447.765178 36.289337 
C 447.202598 36.851918 446.886499 37.615048 446.886499 38.410657 
C 446.886499 39.206267 447.202598 39.969397 447.765178 40.531978 
C 448.327759 41.094558 449.090889 41.410657 449.886499 41.410657 
z
" clip-path="url(#pfb154110e5)" style="fill: #a6cee3; stroke: #ffffff; stroke-width: 0.48"/>
    <path d="M 457.264357 39.787482 
C 458.059967 39.787482 458.823097 39.471383 459.385678 38.908802 
C 459.948258 38.346222 460.264357 37.583091 460.264357 36.787482 
C 460.264357 35.991873 459.948258 35.228742 459.385678 34.666162 
C 458.823097 34.103581 458.059967 33.787482 457.264357 33.787482 
C 456.468748 33.787482 455.705618 34.103581 455.143037 34.666162 
C 454.580456 35.228742 454.264357 35.991873 454.264357 36.787482 
C 454.264357 37.583091 454.580456 38.346222 455.143037 38.908802 
C 455.705618 39.471383 456.468748 39.787482 457.264357 39.787482 
z
" clip-path="url(#pfb154110e5)" style="fill: #a6cee3; stroke: #ffffff; stroke-width: 0.48"/>
    <path d="M 464.642216 38.588416 
C 465.437825 38.588416 466.200955 38.272317 466.763536 37.709736 
C 467.326117 37.147155 467.642216 36.384025 467.642216 35.588416 
C 467.642216 34.792806 467.326117 34.029676 466.763536 33.467095 
C 466.200955 32.904515 465.437825 32.588416 464.642216 32.588416 
C 463.846606 32.588416 463.083476 32.904515 462.520895 33.467095 
C 461.958315 34.029676 461.642216 34.792806 461.642216 35.588416 
C 461.642216 36.384025 461.958315 37.147155 462.520895 37.709736 
C 463.083476 38.272317 463.846606 38.588416 464.642216 38.588416 
z
" clip-path="url(#pfb154110e5)" style="fill: #a6cee3; stroke: #ffffff; stroke-width: 0.48"/>
    <path d="M 472.020074 37.768836 
C 472.815683 37.768836 473.578814 37.452737 474.141395 36.890156 
C 474.703975 36.327576 475.020074 35.564445 475.020074 34.768836 
C 475.020074 33.973227 474.703975 33.210096 474.141395 32.647516 
C 473.578814 32.084935 472.815683 31.768836 472.020074 31.768836 
C 471.224465 31.768836 470.461335 32.084935 469.898754 32.647516 
C 469.336173 33.210096 469.020074 33.973227 469.020074 34.768836 
C 469.020074 35.564445 469.336173 36.327576 469.898754 36.890156 
C 470.461335 37.452737 471.224465 37.768836 472.020074 37.768836 
z
" clip-path="url(#pfb154110e5)" style="fill: #a6cee3; stroke: #ffffff; stroke-width: 0.48"/>
    <path d="M 479.397933 37.444494 
C 480.193542 37.444494 480.956672 37.128395 481.519253 36.565814 
C 482.081834 36.003234 482.397933 35.240103 482.397933 34.444494 
C 482.397933 33.648885 482.081834 32.885754 481.519253 32.323174 
C 480.956672 31.760593 480.193542 31.444494 479.397933 31.444494 
C 478.602323 31.444494 477.839193 31.760593 477.276612 32.323174 
C 476.714032 32.885754 476.397933 33.648885 476.397933 34.444494 
C 476.397933 35.240103 476.714032 36.003234 477.276612 36.565814 
C 477.839193 37.128395 478.602323 37.444494 479.397933 37.444494 
z
" clip-path="url(#pfb154110e5)" style="fill: #a6cee3; stroke: #ffffff; stroke-width: 0.48"/>
   </g>
   <g id="PathCollection_2"/>
   <g id="PathCollection_3"/>
   <g id="line2d_24">
    <path d="M 162.150019 211.07462 
L 169.527877 205.691609 
L 176.905735 200.459646 
L 184.283594 195.18053 
L 191.661452 189.925524 
L 199.039311 184.66106 
L 206.417169 179.354372 
L 213.795028 174.105094 
L 221.172886 168.83397 
L 228.550745 163.554988 
L 235.928603 158.29079 
L 243.306462 153.077209 
L 250.68432 147.869356 
L 258.062179 142.675222 
L 265.440037 137.490944 
L 272.817896 132.309997 
L 280.195754 127.165547 
L 287.573613 122.099018 
L 294.951471 117.497092 
L 302.329329 113.22923 
L 309.707188 108.927137 
L 317.085046 104.472929 
L 324.462905 99.985021 
L 331.840763 95.491652 
L 339.218622 91.052096 
L 346.59648 86.43938 
L 353.974339 81.453172 
L 361.352197 76.224272 
L 368.730056 71.03893 
L 376.107914 66.98885 
L 383.485773 63.488488 
L 390.863631 60.031415 
L 398.24149 56.694622 
L 405.619348 53.465321 
L 412.997206 50.439683 
L 420.375065 47.617841 
L 427.752923 45.033228 
L 435.130782 42.650946 
L 442.50864 40.408124 
L 449.886499 38.410657 
L 457.264357 36.787482 
L 464.642216 35.588416 
L 472.020074 34.768836 
L 479.397933 34.444494 
" clip-path="url(#pfb154110e5)" style="fill: none; stroke: #808080; stroke-linecap: round"/>
   </g>
   <g id="line2d_25">
    <path d="M 162.223797 208.77732 
L 176.905735 198.85392 
L 191.661452 188.82396 
L 206.417169 178.90056 
L 221.172886 168.88392 
L 235.928603 158.89392 
L 250.68432 148.8906 
L 258.062179 143.90892 
L 265.366259 139.0338 
L 272.817896 134.06544 
L 280.121975 129.49668 
L 287.573613 125.19432 
L 294.951471 121.33152 
L 309.707188 113.21964 
L 317.158825 108.94392 
L 324.462905 104.8014 
L 331.914542 100.6722 
L 339.218622 96.62292 
L 346.522702 92.46708 
L 353.974339 88.05816 
L 361.278419 84.23532 
L 368.656277 80.81208 
L 376.107914 77.68188 
L 383.485773 75.00456 
L 398.24149 70.38252 
L 412.997206 66.41316 
L 427.679145 63.66924 
L 442.50864 62.61696 
L 449.886499 64.34856 
L 457.338136 100.75212 
L 471.946296 106.02684 
L 479.397933 107.83836 
L 486.702013 107.70516 
L 494.079871 108.14472 
L 486.775791 107.62524 
L 479.471711 106.85268 
L 472.020074 107.45208 
L 464.715994 105.201 
L 457.264357 97.43544 
L 449.738942 90.60228 
L 442.434862 86.23332 
L 435.130782 83.20968 
L 427.679145 80.26596 
L 420.448844 78.228 
L 412.923428 68.95728 
L 405.619348 68.38452 
L 398.24149 70.569 
" clip-path="url(#pfb154110e5)" style="fill: none; stroke: #808080; stroke-linecap: round"/>
   </g>
   <g id="patch_3">
    <path d="M 58.86 312.66 
L 58.86 12.96 
" style="fill: none; stroke: #ffffff; stroke-width: 1.25; stroke-linejoin: miter; stroke-linecap: square"/>
   </g>
   <g id="patch_4">
    <path d="M 58.86 312.66 
L 510.676364 312.66 
" style="fill: none; stroke: #ffffff; stroke-width: 1.25; stroke-linejoin: miter; stroke-linecap: square"/>
   </g>
   <g id="legend_1">
    <g id="patch_5">
     <path d="M 66.56 52.879688 
L 169.006094 52.879688 
Q 171.206094 52.879688 171.206094 50.679688 
L 171.206094 20.66 
Q 171.206094 18.46 169.006094 18.46 
L 66.56 18.46 
Q 64.36 18.46 64.36 20.66 
L 64.36 50.679688 
Q 64.36 52.879688 66.56 52.879688 
z
" style="fill: #eaeaf2; opacity: 0.8; stroke: #cccccc; stroke-linejoin: miter"/>
    </g>
    <g id="PathCollection_4">
     <defs>
      <path id="m2ca22f06be" d="M 0 3 
C 0.795609 3 1.55874 2.683901 2.12132 2.12132 
C 2.683901 1.55874 3 0.795609 3 0 
C 3 -0.795609 2.683901 -1.55874 2.12132 -2.12132 
C 1.55874 -2.683901 0.795609 -3 0 -3 
C -0.795609 -3 -1.55874 -2.683901 -2.12132 -2.12132 
C -2.683901 -1.55874 -3 -0.795609 -3 0 
C -3 0.795609 -2.683901 1.55874 -2.12132 2.12132 
C -1.55874 2.683901 -0.795609 3 0 3 
z
" style="stroke: #a6cee3"/>
     </defs>
     <g>
      <use xlink:href="#m2ca22f06be" x="79.76" y="27.846094" style="fill: #a6cee3; stroke: #a6cee3"/>
     </g>
    </g>
    <g id="text_26">
     <!-- CFD -->
     <g style="fill: #262626" transform="translate(99.56 30.733594)scale(0.11 -0.11)">
      <defs>
       <path id="ArialMT-46" d="M 525 0 
L 525 4581 
L 3616 4581 
L 3616 4041 
L 1131 4041 
L 1131 2622 
L 3281 2622 
L 3281 2081 
L 1131 2081 
L 1131 0 
L 525 0 
z
" transform="scale(0.015625)"/>
       <path id="ArialMT-44" d="M 494 0 
L 494 4581 
L 2072 4581 
Q 2606 4581 2888 4516 
Q 3281 4425 3559 4188 
Q 3922 3881 4101 3404 
Q 4281 2928 4281 2316 
Q 4281 1794 4159 1391 
Q 4038 988 3847 723 
Q 3656 459 3429 307 
Q 3203 156 2883 78 
Q 2563 0 2147 0 
L 494 0 
z
M 1100 541 
L 2078 541 
Q 2531 541 2789 625 
Q 3047 709 3200 863 
Q 3416 1078 3536 1442 
Q 3656 1806 3656 2325 
Q 3656 3044 3420 3430 
Q 3184 3816 2847 3947 
Q 2603 4041 2063 4041 
L 1100 4041 
L 1100 541 
z
" transform="scale(0.015625)"/>
      </defs>
      <use xlink:href="#ArialMT-43"/>
      <use xlink:href="#ArialMT-46" x="72.216797"/>
      <use xlink:href="#ArialMT-44" x="133.300781"/>
     </g>
    </g>
    <g id="PathCollection_5">
     <defs>
      <path id="m2e4c96d442" d="M -1.5 3 
L 0 1.5 
L 1.5 3 
L 3 1.5 
L 1.5 0 
L 3 -1.5 
L 1.5 -3 
L 0 -1.5 
L -1.5 -3 
L -3 -1.5 
L -1.5 0 
L -3 1.5 
z
" style="stroke: #1f78b4"/>
     </defs>
     <g>
      <use xlink:href="#m2e4c96d442" x="79.76" y="43.405938" style="fill: #1f78b4; stroke: #1f78b4"/>
     </g>
    </g>
    <g id="text_27">
     <!-- Measurement -->
     <g style="fill: #262626" transform="translate(99.56 46.293438)scale(0.11 -0.11)">
      <defs>
       <path id="ArialMT-4d" d="M 475 0 
L 475 4581 
L 1388 4581 
L 2472 1338 
Q 2622 884 2691 659 
Q 2769 909 2934 1394 
L 4031 4581 
L 4847 4581 
L 4847 0 
L 4263 0 
L 4263 3834 
L 2931 0 
L 2384 0 
L 1059 3900 
L 1059 0 
L 475 0 
z
" transform="scale(0.015625)"/>
       <path id="ArialMT-65" d="M 2694 1069 
L 3275 997 
Q 3138 488 2766 206 
Q 2394 -75 1816 -75 
Q 1088 -75 661 373 
Q 234 822 234 1631 
Q 234 2469 665 2931 
Q 1097 3394 1784 3394 
Q 2450 3394 2872 2941 
Q 3294 2488 3294 1666 
Q 3294 1616 3291 1516 
L 816 1516 
Q 847 969 1125 678 
Q 1403 388 1819 388 
Q 2128 388 2347 550 
Q 2566 713 2694 1069 
z
M 847 1978 
L 2700 1978 
Q 2663 2397 2488 2606 
Q 2219 2931 1791 2931 
Q 1403 2931 1139 2672 
Q 875 2413 847 1978 
z
" transform="scale(0.015625)"/>
       <path id="ArialMT-61" d="M 2588 409 
Q 2275 144 1986 34 
Q 1697 -75 1366 -75 
Q 819 -75 525 192 
Q 231 459 231 875 
Q 231 1119 342 1320 
Q 453 1522 633 1644 
Q 813 1766 1038 1828 
Q 1203 1872 1538 1913 
Q 2219 1994 2541 2106 
Q 2544 2222 2544 2253 
Q 2544 2597 2384 2738 
Q 2169 2928 1744 2928 
Q 1347 2928 1158 2789 
Q 969 2650 878 2297 
L 328 2372 
Q 403 2725 575 2942 
Q 747 3159 1072 3276 
Q 1397 3394 1825 3394 
Q 2250 3394 2515 3294 
Q 2781 3194 2906 3042 
Q 3031 2891 3081 2659 
Q 3109 2516 3109 2141 
L 3109 1391 
Q 3109 606 3145 398 
Q 3181 191 3288 0 
L 2700 0 
Q 2613 175 2588 409 
z
M 2541 1666 
Q 2234 1541 1622 1453 
Q 1275 1403 1131 1340 
Q 988 1278 909 1158 
Q 831 1038 831 891 
Q 831 666 1001 516 
Q 1172 366 1500 366 
Q 1825 366 2078 508 
Q 2331 650 2450 897 
Q 2541 1088 2541 1459 
L 2541 1666 
z
" transform="scale(0.015625)"/>
       <path id="ArialMT-73" d="M 197 991 
L 753 1078 
Q 800 744 1014 566 
Q 1228 388 1613 388 
Q 2000 388 2187 545 
Q 2375 703 2375 916 
Q 2375 1106 2209 1216 
Q 2094 1291 1634 1406 
Q 1016 1563 777 1677 
Q 538 1791 414 1992 
Q 291 2194 291 2438 
Q 291 2659 392 2848 
Q 494 3038 669 3163 
Q 800 3259 1026 3326 
Q 1253 3394 1513 3394 
Q 1903 3394 2198 3281 
Q 2494 3169 2634 2976 
Q 2775 2784 2828 2463 
L 2278 2388 
Q 2241 2644 2061 2787 
Q 1881 2931 1553 2931 
Q 1166 2931 1000 2803 
Q 834 2675 834 2503 
Q 834 2394 903 2306 
Q 972 2216 1119 2156 
Q 1203 2125 1616 2013 
Q 2213 1853 2448 1751 
Q 2684 1650 2818 1456 
Q 2953 1263 2953 975 
Q 2953 694 2789 445 
Q 2625 197 2315 61 
Q 2006 -75 1616 -75 
Q 969 -75 630 194 
Q 291 463 197 991 
z
" transform="scale(0.015625)"/>
       <path id="ArialMT-75" d="M 2597 0 
L 2597 488 
Q 2209 -75 1544 -75 
Q 1250 -75 995 37 
Q 741 150 617 320 
Q 494 491 444 738 
Q 409 903 409 1263 
L 409 3319 
L 972 3319 
L 972 1478 
Q 972 1038 1006 884 
Q 1059 663 1231 536 
Q 1403 409 1656 409 
Q 1909 409 2131 539 
Q 2353 669 2445 892 
Q 2538 1116 2538 1541 
L 2538 3319 
L 3100 3319 
L 3100 0 
L 2597 0 
z
" transform="scale(0.015625)"/>
       <path id="ArialMT-72" d="M 416 0 
L 416 3319 
L 922 3319 
L 922 2816 
Q 1116 3169 1280 3281 
Q 1444 3394 1641 3394 
Q 1925 3394 2219 3213 
L 2025 2691 
Q 1819 2813 1613 2813 
Q 1428 2813 1281 2702 
Q 1134 2591 1072 2394 
Q 978 2094 978 1738 
L 978 0 
L 416 0 
z
" transform="scale(0.015625)"/>
       <path id="ArialMT-6d" d="M 422 0 
L 422 3319 
L 925 3319 
L 925 2853 
Q 1081 3097 1340 3245 
Q 1600 3394 1931 3394 
Q 2300 3394 2536 3241 
Q 2772 3088 2869 2813 
Q 3263 3394 3894 3394 
Q 4388 3394 4653 3120 
Q 4919 2847 4919 2278 
L 4919 0 
L 4359 0 
L 4359 2091 
Q 4359 2428 4304 2576 
Q 4250 2725 4106 2815 
Q 3963 2906 3769 2906 
Q 3419 2906 3187 2673 
Q 2956 2441 2956 1928 
L 2956 0 
L 2394 0 
L 2394 2156 
Q 2394 2531 2256 2718 
Q 2119 2906 1806 2906 
Q 1569 2906 1367 2781 
Q 1166 2656 1075 2415 
Q 984 2175 984 1722 
L 984 0 
L 422 0 
z
" transform="scale(0.015625)"/>
       <path id="ArialMT-6e" d="M 422 0 
L 422 3319 
L 928 3319 
L 928 2847 
Q 1294 3394 1984 3394 
Q 2284 3394 2536 3286 
Q 2788 3178 2913 3003 
Q 3038 2828 3088 2588 
Q 3119 2431 3119 2041 
L 3119 0 
L 2556 0 
L 2556 2019 
Q 2556 2363 2490 2533 
Q 2425 2703 2258 2804 
Q 2091 2906 1866 2906 
Q 1506 2906 1245 2678 
Q 984 2450 984 1813 
L 984 0 
L 422 0 
z
" transform="scale(0.015625)"/>
       <path id="ArialMT-74" d="M 1650 503 
L 1731 6 
Q 1494 -44 1306 -44 
Q 1000 -44 831 53 
Q 663 150 594 308 
Q 525 466 525 972 
L 525 2881 
L 113 2881 
L 113 3319 
L 525 3319 
L 525 4141 
L 1084 4478 
L 1084 3319 
L 1650 3319 
L 1650 2881 
L 1084 2881 
L 1084 941 
Q 1084 700 1114 631 
Q 1144 563 1211 522 
Q 1278 481 1403 481 
Q 1497 481 1650 503 
z
" transform="scale(0.015625)"/>
      </defs>
      <use xlink:href="#ArialMT-4d"/>
      <use xlink:href="#ArialMT-65" x="83.300781"/>
      <use xlink:href="#ArialMT-61" x="138.916016"/>
      <use xlink:href="#ArialMT-73" x="194.53125"/>
      <use xlink:href="#ArialMT-75" x="244.53125"/>
      <use xlink:href="#ArialMT-72" x="300.146484"/>
      <use xlink:href="#ArialMT-65" x="333.447266"/>
      <use xlink:href="#ArialMT-6d" x="389.0625"/>
      <use xlink:href="#ArialMT-65" x="472.363281"/>
      <use xlink:href="#ArialMT-6e" x="527.978516"/>
      <use xlink:href="#ArialMT-74" x="583.59375"/>
     </g>
    </g>
   </g>
  </g>
 </g>
 <defs>
  <clipPath id="pfb154110e5">
   <rect x="58.86" y="12.96" width="451.816364" height="299.7"/>
  </clipPath>
 </defs>
</svg>
