<?xml version="1.0" encoding="utf-8" standalone="no"?>
<!DOCTYPE svg PUBLIC "-//W3C//DTD SVG 1.1//EN"
  "http://www.w3.org/Graphics/SVG/1.1/DTD/svg11.dtd">
<svg xmlns:xlink="http://www.w3.org/1999/xlink" width="523.636364pt" height="360pt" viewBox="0 0 523.636364 360" xmlns="http://www.w3.org/2000/svg" version="1.1">
 <metadata>
  <rdf:RDF xmlns:dc="http://purl.org/dc/elements/1.1/" xmlns:cc="http://creativecommons.org/ns#" xmlns:rdf="http://www.w3.org/1999/02/22-rdf-syntax-ns#">
   <cc:Work>
    <dc:type rdf:resource="http://purl.org/dc/dcmitype/StillImage"/>
    <dc:date>2022-12-19T01:54:03.554219</dc:date>
    <dc:format>image/svg+xml</dc:format>
    <dc:creator>
     <cc:Agent>
      <dc:title>Matplotlib v3.5.2, https://matplotlib.org/</dc:title>
     </cc:Agent>
    </dc:creator>
   </cc:Work>
  </rdf:RDF>
 </metadata>
 <defs>
  <style type="text/css">*{stroke-linejoin: round; stroke-linecap: butt}</style>
 </defs>
 <g id="figure_1">
  <g id="patch_1">
   <path d="M 0 360 
L 523.636364 360 
L 523.636364 0 
L 0 0 
z
" style="fill: #ffffff"/>
  </g>
  <g id="axes_1">
   <g id="patch_2">
    <path d="M 65.07 312.66 
L 510.676364 312.66 
L 510.676364 12.96 
L 65.07 12.96 
z
" style="fill: #eaeaf2"/>
   </g>
   <g id="matplotlib.axis_1">
    <g id="xtick_1">
     <g id="line2d_1">
      <path d="M 65.07 312.66 
L 65.07 12.96 
" clip-path="url(#p3b693a5157)" style="fill: none; stroke: #ffffff; stroke-linecap: round"/>
     </g>
     <g id="text_1">
      <!-- −10.0 -->
      <g style="fill: #262626" transform="translate(51.154141 330.033594)scale(0.11 -0.11)">
       <defs>
        <path id="ArialMT-2212" d="M 3381 1997 
L 356 1997 
L 356 2522 
L 3381 2522 
L 3381 1997 
z
" transform="scale(0.015625)"/>
        <path id="ArialMT-31" d="M 2384 0 
L 1822 0 
L 1822 3584 
Q 1619 3391 1289 3197 
Q 959 3003 697 2906 
L 697 3450 
Q 1169 3672 1522 3987 
Q 1875 4303 2022 4600 
L 2384 4600 
L 2384 0 
z
" transform="scale(0.015625)"/>
        <path id="ArialMT-30" d="M 266 2259 
Q 266 3072 433 3567 
Q 600 4063 929 4331 
Q 1259 4600 1759 4600 
Q 2128 4600 2406 4451 
Q 2684 4303 2865 4023 
Q 3047 3744 3150 3342 
Q 3253 2941 3253 2259 
Q 3253 1453 3087 958 
Q 2922 463 2592 192 
Q 2263 -78 1759 -78 
Q 1097 -78 719 397 
Q 266 969 266 2259 
z
M 844 2259 
Q 844 1131 1108 757 
Q 1372 384 1759 384 
Q 2147 384 2411 759 
Q 2675 1134 2675 2259 
Q 2675 3391 2411 3762 
Q 2147 4134 1753 4134 
Q 1366 4134 1134 3806 
Q 844 3388 844 2259 
z
" transform="scale(0.015625)"/>
        <path id="ArialMT-2e" d="M 581 0 
L 581 641 
L 1222 641 
L 1222 0 
L 581 0 
z
" transform="scale(0.015625)"/>
       </defs>
       <use xlink:href="#ArialMT-2212"/>
       <use xlink:href="#ArialMT-31" x="58.398438"/>
       <use xlink:href="#ArialMT-30" x="114.013672"/>
       <use xlink:href="#ArialMT-2e" x="169.628906"/>
       <use xlink:href="#ArialMT-30" x="197.412109"/>
      </g>
     </g>
    </g>
    <g id="xtick_2">
     <g id="line2d_2">
      <path d="M 101.452267 312.66 
L 101.452267 12.96 
" clip-path="url(#p3b693a5157)" style="fill: none; stroke: #ffffff; stroke-linecap: round"/>
     </g>
     <g id="text_2">
      <!-- −7.5 -->
      <g style="fill: #262626" transform="translate(90.594923 330.033594)scale(0.11 -0.11)">
       <defs>
        <path id="ArialMT-37" d="M 303 3981 
L 303 4522 
L 3269 4522 
L 3269 4084 
Q 2831 3619 2401 2847 
Q 1972 2075 1738 1259 
Q 1569 684 1522 0 
L 944 0 
Q 953 541 1156 1306 
Q 1359 2072 1739 2783 
Q 2119 3494 2547 3981 
L 303 3981 
z
" transform="scale(0.015625)"/>
        <path id="ArialMT-35" d="M 266 1200 
L 856 1250 
Q 922 819 1161 601 
Q 1400 384 1738 384 
Q 2144 384 2425 690 
Q 2706 997 2706 1503 
Q 2706 1984 2436 2262 
Q 2166 2541 1728 2541 
Q 1456 2541 1237 2417 
Q 1019 2294 894 2097 
L 366 2166 
L 809 4519 
L 3088 4519 
L 3088 3981 
L 1259 3981 
L 1013 2750 
Q 1425 3038 1878 3038 
Q 2478 3038 2890 2622 
Q 3303 2206 3303 1553 
Q 3303 931 2941 478 
Q 2500 -78 1738 -78 
Q 1113 -78 717 272 
Q 322 622 266 1200 
z
" transform="scale(0.015625)"/>
       </defs>
       <use xlink:href="#ArialMT-2212"/>
       <use xlink:href="#ArialMT-37" x="58.398438"/>
       <use xlink:href="#ArialMT-2e" x="114.013672"/>
       <use xlink:href="#ArialMT-35" x="141.796875"/>
      </g>
     </g>
    </g>
    <g id="xtick_3">
     <g id="line2d_3">
      <path d="M 137.834533 312.66 
L 137.834533 12.96 
" clip-path="url(#p3b693a5157)" style="fill: none; stroke: #ffffff; stroke-linecap: round"/>
     </g>
     <g id="text_3">
      <!-- −5.0 -->
      <g style="fill: #262626" transform="translate(126.97719 330.033594)scale(0.11 -0.11)">
       <use xlink:href="#ArialMT-2212"/>
       <use xlink:href="#ArialMT-35" x="58.398438"/>
       <use xlink:href="#ArialMT-2e" x="114.013672"/>
       <use xlink:href="#ArialMT-30" x="141.796875"/>
      </g>
     </g>
    </g>
    <g id="xtick_4">
     <g id="line2d_4">
      <path d="M 174.2168 312.66 
L 174.2168 12.96 
" clip-path="url(#p3b693a5157)" style="fill: none; stroke: #ffffff; stroke-linecap: round"/>
     </g>
     <g id="text_4">
      <!-- −2.5 -->
      <g style="fill: #262626" transform="translate(163.359456 330.033594)scale(0.11 -0.11)">
       <defs>
        <path id="ArialMT-32" d="M 3222 541 
L 3222 0 
L 194 0 
Q 188 203 259 391 
Q 375 700 629 1000 
Q 884 1300 1366 1694 
Q 2113 2306 2375 2664 
Q 2638 3022 2638 3341 
Q 2638 3675 2398 3904 
Q 2159 4134 1775 4134 
Q 1369 4134 1125 3890 
Q 881 3647 878 3216 
L 300 3275 
Q 359 3922 746 4261 
Q 1134 4600 1788 4600 
Q 2447 4600 2831 4234 
Q 3216 3869 3216 3328 
Q 3216 3053 3103 2787 
Q 2991 2522 2730 2228 
Q 2469 1934 1863 1422 
Q 1356 997 1212 845 
Q 1069 694 975 541 
L 3222 541 
z
" transform="scale(0.015625)"/>
       </defs>
       <use xlink:href="#ArialMT-2212"/>
       <use xlink:href="#ArialMT-32" x="58.398438"/>
       <use xlink:href="#ArialMT-2e" x="114.013672"/>
       <use xlink:href="#ArialMT-35" x="141.796875"/>
      </g>
     </g>
    </g>
    <g id="xtick_5">
     <g id="line2d_5">
      <path d="M 210.599067 312.66 
L 210.599067 12.96 
" clip-path="url(#p3b693a5157)" style="fill: none; stroke: #ffffff; stroke-linecap: round"/>
     </g>
     <g id="text_5">
      <!-- 0.0 -->
      <g style="fill: #262626" transform="translate(202.954067 330.033594)scale(0.11 -0.11)">
       <use xlink:href="#ArialMT-30"/>
       <use xlink:href="#ArialMT-2e" x="55.615234"/>
       <use xlink:href="#ArialMT-30" x="83.398438"/>
      </g>
     </g>
    </g>
    <g id="xtick_6">
     <g id="line2d_6">
      <path d="M 246.981333 312.66 
L 246.981333 12.96 
" clip-path="url(#p3b693a5157)" style="fill: none; stroke: #ffffff; stroke-linecap: round"/>
     </g>
     <g id="text_6">
      <!-- 2.5 -->
      <g style="fill: #262626" transform="translate(239.336333 330.033594)scale(0.11 -0.11)">
       <use xlink:href="#ArialMT-32"/>
       <use xlink:href="#ArialMT-2e" x="55.615234"/>
       <use xlink:href="#ArialMT-35" x="83.398438"/>
      </g>
     </g>
    </g>
    <g id="xtick_7">
     <g id="line2d_7">
      <path d="M 283.3636 312.66 
L 283.3636 12.96 
" clip-path="url(#p3b693a5157)" style="fill: none; stroke: #ffffff; stroke-linecap: round"/>
     </g>
     <g id="text_7">
      <!-- 5.0 -->
      <g style="fill: #262626" transform="translate(275.7186 330.033594)scale(0.11 -0.11)">
       <use xlink:href="#ArialMT-35"/>
       <use xlink:href="#ArialMT-2e" x="55.615234"/>
       <use xlink:href="#ArialMT-30" x="83.398438"/>
      </g>
     </g>
    </g>
    <g id="xtick_8">
     <g id="line2d_8">
      <path d="M 319.745867 312.66 
L 319.745867 12.96 
" clip-path="url(#p3b693a5157)" style="fill: none; stroke: #ffffff; stroke-linecap: round"/>
     </g>
     <g id="text_8">
      <!-- 7.5 -->
      <g style="fill: #262626" transform="translate(312.100867 330.033594)scale(0.11 -0.11)">
       <use xlink:href="#ArialMT-37"/>
       <use xlink:href="#ArialMT-2e" x="55.615234"/>
       <use xlink:href="#ArialMT-35" x="83.398438"/>
      </g>
     </g>
    </g>
    <g id="xtick_9">
     <g id="line2d_9">
      <path d="M 356.128133 312.66 
L 356.128133 12.96 
" clip-path="url(#p3b693a5157)" style="fill: none; stroke: #ffffff; stroke-linecap: round"/>
     </g>
     <g id="text_9">
      <!-- 10.0 -->
      <g style="fill: #262626" transform="translate(345.424618 330.033594)scale(0.11 -0.11)">
       <use xlink:href="#ArialMT-31"/>
       <use xlink:href="#ArialMT-30" x="55.615234"/>
       <use xlink:href="#ArialMT-2e" x="111.230469"/>
       <use xlink:href="#ArialMT-30" x="139.013672"/>
      </g>
     </g>
    </g>
    <g id="xtick_10">
     <g id="line2d_10">
      <path d="M 392.5104 312.66 
L 392.5104 12.96 
" clip-path="url(#p3b693a5157)" style="fill: none; stroke: #ffffff; stroke-linecap: round"/>
     </g>
     <g id="text_10">
      <!-- 12.5 -->
      <g style="fill: #262626" transform="translate(381.806884 330.033594)scale(0.11 -0.11)">
       <use xlink:href="#ArialMT-31"/>
       <use xlink:href="#ArialMT-32" x="55.615234"/>
       <use xlink:href="#ArialMT-2e" x="111.230469"/>
       <use xlink:href="#ArialMT-35" x="139.013672"/>
      </g>
     </g>
    </g>
    <g id="xtick_11">
     <g id="line2d_11">
      <path d="M 428.892666 312.66 
L 428.892666 12.96 
" clip-path="url(#p3b693a5157)" style="fill: none; stroke: #ffffff; stroke-linecap: round"/>
     </g>
     <g id="text_11">
      <!-- 15.0 -->
      <g style="fill: #262626" transform="translate(418.189151 330.033594)scale(0.11 -0.11)">
       <use xlink:href="#ArialMT-31"/>
       <use xlink:href="#ArialMT-35" x="55.615234"/>
       <use xlink:href="#ArialMT-2e" x="111.230469"/>
       <use xlink:href="#ArialMT-30" x="139.013672"/>
      </g>
     </g>
    </g>
    <g id="xtick_12">
     <g id="line2d_12">
      <path d="M 465.274933 312.66 
L 465.274933 12.96 
" clip-path="url(#p3b693a5157)" style="fill: none; stroke: #ffffff; stroke-linecap: round"/>
     </g>
     <g id="text_12">
      <!-- 17.5 -->
      <g style="fill: #262626" transform="translate(454.571417 330.033594)scale(0.11 -0.11)">
       <use xlink:href="#ArialMT-31"/>
       <use xlink:href="#ArialMT-37" x="55.615234"/>
       <use xlink:href="#ArialMT-2e" x="111.230469"/>
       <use xlink:href="#ArialMT-35" x="139.013672"/>
      </g>
     </g>
    </g>
    <g id="xtick_13">
     <g id="line2d_13">
      <path d="M 501.6572 312.66 
L 501.6572 12.96 
" clip-path="url(#p3b693a5157)" style="fill: none; stroke: #ffffff; stroke-linecap: round"/>
     </g>
     <g id="text_13">
      <!-- 20.0 -->
      <g style="fill: #262626" transform="translate(490.953684 330.033594)scale(0.11 -0.11)">
       <use xlink:href="#ArialMT-32"/>
       <use xlink:href="#ArialMT-30" x="55.615234"/>
       <use xlink:href="#ArialMT-2e" x="111.230469"/>
       <use xlink:href="#ArialMT-30" x="139.013672"/>
      </g>
     </g>
    </g>
    <g id="text_14">
     <!-- α [°] -->
     <g style="fill: #262626" transform="translate(277.004744 344.955469)scale(0.12 -0.12)">
      <defs>
       <path id="ArialMT-3b1" d="M 2884 3319 
L 3459 3319 
Q 3241 2631 3056 1659 
Q 3275 453 3459 0 
L 2900 0 
Q 2766 313 2697 606 
Q 2438 -75 1613 -75 
Q 988 -75 606 394 
Q 225 863 225 1666 
Q 225 2491 608 2942 
Q 991 3394 1622 3394 
Q 2013 3394 2259 3236 
Q 2506 3078 2719 2756 
Q 2741 2866 2884 3319 
z
M 1716 2928 
Q 1313 2928 1078 2603 
Q 844 2278 844 1666 
Q 844 1069 1066 728 
Q 1288 388 1684 388 
Q 2072 388 2331 723 
Q 2591 1059 2591 1691 
Q 2591 2303 2348 2615 
Q 2106 2928 1716 2928 
z
" transform="scale(0.015625)"/>
       <path id="ArialMT-20" transform="scale(0.015625)"/>
       <path id="ArialMT-5b" d="M 434 -1272 
L 434 4581 
L 1675 4581 
L 1675 4116 
L 997 4116 
L 997 -806 
L 1675 -806 
L 1675 -1272 
L 434 -1272 
z
" transform="scale(0.015625)"/>
       <path id="ArialMT-b0" d="M 400 3794 
Q 400 4153 654 4406 
Q 909 4659 1266 4659 
Q 1628 4659 1881 4406 
Q 2134 4153 2134 3794 
Q 2134 3434 1879 3179 
Q 1625 2925 1266 2925 
Q 909 2925 654 3178 
Q 400 3431 400 3794 
z
M 741 3794 
Q 741 3575 895 3420 
Q 1050 3266 1269 3266 
Q 1484 3266 1639 3420 
Q 1794 3575 1794 3794 
Q 1794 4013 1639 4167 
Q 1484 4322 1269 4322 
Q 1050 4322 895 4167 
Q 741 4013 741 3794 
z
" transform="scale(0.015625)"/>
       <path id="ArialMT-5d" d="M 1363 -1272 
L 122 -1272 
L 122 -806 
L 800 -806 
L 800 4116 
L 122 4116 
L 122 4581 
L 1363 4581 
L 1363 -1272 
z
" transform="scale(0.015625)"/>
      </defs>
      <use xlink:href="#ArialMT-3b1"/>
      <use xlink:href="#ArialMT-20" x="57.8125"/>
      <use xlink:href="#ArialMT-5b" x="85.595703"/>
      <use xlink:href="#ArialMT-b0" x="113.378906"/>
      <use xlink:href="#ArialMT-5d" x="153.369141"/>
     </g>
    </g>
   </g>
   <g id="matplotlib.axis_2">
    <g id="ytick_1">
     <g id="line2d_14">
      <path d="M 65.07 312.66 
L 510.676364 312.66 
" clip-path="url(#p3b693a5157)" style="fill: none; stroke: #ffffff; stroke-linecap: round"/>
     </g>
     <g id="text_15">
      <!-- −0.30 -->
      <g style="fill: #262626" transform="translate(27.738281 316.596797)scale(0.11 -0.11)">
       <defs>
        <path id="ArialMT-33" d="M 269 1209 
L 831 1284 
Q 928 806 1161 595 
Q 1394 384 1728 384 
Q 2125 384 2398 659 
Q 2672 934 2672 1341 
Q 2672 1728 2419 1979 
Q 2166 2231 1775 2231 
Q 1616 2231 1378 2169 
L 1441 2663 
Q 1497 2656 1531 2656 
Q 1891 2656 2178 2843 
Q 2466 3031 2466 3422 
Q 2466 3731 2256 3934 
Q 2047 4138 1716 4138 
Q 1388 4138 1169 3931 
Q 950 3725 888 3313 
L 325 3413 
Q 428 3978 793 4289 
Q 1159 4600 1703 4600 
Q 2078 4600 2393 4439 
Q 2709 4278 2876 4000 
Q 3044 3722 3044 3409 
Q 3044 3113 2884 2869 
Q 2725 2625 2413 2481 
Q 2819 2388 3044 2092 
Q 3269 1797 3269 1353 
Q 3269 753 2831 336 
Q 2394 -81 1725 -81 
Q 1122 -81 723 278 
Q 325 638 269 1209 
z
" transform="scale(0.015625)"/>
       </defs>
       <use xlink:href="#ArialMT-2212"/>
       <use xlink:href="#ArialMT-30" x="58.398438"/>
       <use xlink:href="#ArialMT-2e" x="114.013672"/>
       <use xlink:href="#ArialMT-33" x="141.796875"/>
       <use xlink:href="#ArialMT-30" x="197.412109"/>
      </g>
     </g>
    </g>
    <g id="ytick_2">
     <g id="line2d_15">
      <path d="M 65.07 304.683479 
L 510.676364 304.683479 
" clip-path="url(#p3b693a5157)" style="fill: none; stroke: #ffffff; stroke-linecap: round"/>
     </g>
     <g id="text_16">
      <!-- −0.29 -->
      <g style="fill: #262626" transform="translate(27.738281 308.620276)scale(0.11 -0.11)">
       <defs>
        <path id="ArialMT-39" d="M 350 1059 
L 891 1109 
Q 959 728 1153 556 
Q 1347 384 1650 384 
Q 1909 384 2104 503 
Q 2300 622 2425 820 
Q 2550 1019 2634 1356 
Q 2719 1694 2719 2044 
Q 2719 2081 2716 2156 
Q 2547 1888 2255 1720 
Q 1963 1553 1622 1553 
Q 1053 1553 659 1965 
Q 266 2378 266 3053 
Q 266 3750 677 4175 
Q 1088 4600 1706 4600 
Q 2153 4600 2523 4359 
Q 2894 4119 3086 3673 
Q 3278 3228 3278 2384 
Q 3278 1506 3087 986 
Q 2897 466 2520 194 
Q 2144 -78 1638 -78 
Q 1100 -78 759 220 
Q 419 519 350 1059 
z
M 2653 3081 
Q 2653 3566 2395 3850 
Q 2138 4134 1775 4134 
Q 1400 4134 1122 3828 
Q 844 3522 844 3034 
Q 844 2597 1108 2323 
Q 1372 2050 1759 2050 
Q 2150 2050 2401 2323 
Q 2653 2597 2653 3081 
z
" transform="scale(0.015625)"/>
       </defs>
       <use xlink:href="#ArialMT-2212"/>
       <use xlink:href="#ArialMT-30" x="58.398438"/>
       <use xlink:href="#ArialMT-2e" x="114.013672"/>
       <use xlink:href="#ArialMT-32" x="141.796875"/>
       <use xlink:href="#ArialMT-39" x="197.412109"/>
      </g>
     </g>
    </g>
    <g id="ytick_3">
     <g id="line2d_16">
      <path d="M 65.07 296.706957 
L 510.676364 296.706957 
" clip-path="url(#p3b693a5157)" style="fill: none; stroke: #ffffff; stroke-linecap: round"/>
     </g>
     <g id="text_17">
      <!-- −0.28 -->
      <g style="fill: #262626" transform="translate(27.738281 300.643754)scale(0.11 -0.11)">
       <defs>
        <path id="ArialMT-38" d="M 1131 2484 
Q 781 2613 612 2850 
Q 444 3088 444 3419 
Q 444 3919 803 4259 
Q 1163 4600 1759 4600 
Q 2359 4600 2725 4251 
Q 3091 3903 3091 3403 
Q 3091 3084 2923 2848 
Q 2756 2613 2416 2484 
Q 2838 2347 3058 2040 
Q 3278 1734 3278 1309 
Q 3278 722 2862 322 
Q 2447 -78 1769 -78 
Q 1091 -78 675 323 
Q 259 725 259 1325 
Q 259 1772 486 2073 
Q 713 2375 1131 2484 
z
M 1019 3438 
Q 1019 3113 1228 2906 
Q 1438 2700 1772 2700 
Q 2097 2700 2305 2904 
Q 2513 3109 2513 3406 
Q 2513 3716 2298 3927 
Q 2084 4138 1766 4138 
Q 1444 4138 1231 3931 
Q 1019 3725 1019 3438 
z
M 838 1322 
Q 838 1081 952 856 
Q 1066 631 1291 507 
Q 1516 384 1775 384 
Q 2178 384 2440 643 
Q 2703 903 2703 1303 
Q 2703 1709 2433 1975 
Q 2163 2241 1756 2241 
Q 1359 2241 1098 1978 
Q 838 1716 838 1322 
z
" transform="scale(0.015625)"/>
       </defs>
       <use xlink:href="#ArialMT-2212"/>
       <use xlink:href="#ArialMT-30" x="58.398438"/>
       <use xlink:href="#ArialMT-2e" x="114.013672"/>
       <use xlink:href="#ArialMT-32" x="141.796875"/>
       <use xlink:href="#ArialMT-38" x="197.412109"/>
      </g>
     </g>
    </g>
    <g id="ytick_4">
     <g id="line2d_17">
      <path d="M 65.07 288.730436 
L 510.676364 288.730436 
" clip-path="url(#p3b693a5157)" style="fill: none; stroke: #ffffff; stroke-linecap: round"/>
     </g>
     <g id="text_18">
      <!-- −0.27 -->
      <g style="fill: #262626" transform="translate(27.738281 292.667233)scale(0.11 -0.11)">
       <use xlink:href="#ArialMT-2212"/>
       <use xlink:href="#ArialMT-30" x="58.398438"/>
       <use xlink:href="#ArialMT-2e" x="114.013672"/>
       <use xlink:href="#ArialMT-32" x="141.796875"/>
       <use xlink:href="#ArialMT-37" x="197.412109"/>
      </g>
     </g>
    </g>
    <g id="ytick_5">
     <g id="line2d_18">
      <path d="M 65.07 280.753915 
L 510.676364 280.753915 
" clip-path="url(#p3b693a5157)" style="fill: none; stroke: #ffffff; stroke-linecap: round"/>
     </g>
     <g id="text_19">
      <!-- −0.26 -->
      <g style="fill: #262626" transform="translate(27.738281 284.690712)scale(0.11 -0.11)">
       <defs>
        <path id="ArialMT-36" d="M 3184 3459 
L 2625 3416 
Q 2550 3747 2413 3897 
Q 2184 4138 1850 4138 
Q 1581 4138 1378 3988 
Q 1113 3794 959 3422 
Q 806 3050 800 2363 
Q 1003 2672 1297 2822 
Q 1591 2972 1913 2972 
Q 2475 2972 2870 2558 
Q 3266 2144 3266 1488 
Q 3266 1056 3080 686 
Q 2894 316 2569 119 
Q 2244 -78 1831 -78 
Q 1128 -78 684 439 
Q 241 956 241 2144 
Q 241 3472 731 4075 
Q 1159 4600 1884 4600 
Q 2425 4600 2770 4297 
Q 3116 3994 3184 3459 
z
M 888 1484 
Q 888 1194 1011 928 
Q 1134 663 1356 523 
Q 1578 384 1822 384 
Q 2178 384 2434 671 
Q 2691 959 2691 1453 
Q 2691 1928 2437 2201 
Q 2184 2475 1800 2475 
Q 1419 2475 1153 2201 
Q 888 1928 888 1484 
z
" transform="scale(0.015625)"/>
       </defs>
       <use xlink:href="#ArialMT-2212"/>
       <use xlink:href="#ArialMT-30" x="58.398438"/>
       <use xlink:href="#ArialMT-2e" x="114.013672"/>
       <use xlink:href="#ArialMT-32" x="141.796875"/>
       <use xlink:href="#ArialMT-36" x="197.412109"/>
      </g>
     </g>
    </g>
    <g id="ytick_6">
     <g id="line2d_19">
      <path d="M 65.07 272.777394 
L 510.676364 272.777394 
" clip-path="url(#p3b693a5157)" style="fill: none; stroke: #ffffff; stroke-linecap: round"/>
     </g>
     <g id="text_20">
      <!-- −0.25 -->
      <g style="fill: #262626" transform="translate(27.738281 276.71419)scale(0.11 -0.11)">
       <use xlink:href="#ArialMT-2212"/>
       <use xlink:href="#ArialMT-30" x="58.398438"/>
       <use xlink:href="#ArialMT-2e" x="114.013672"/>
       <use xlink:href="#ArialMT-32" x="141.796875"/>
       <use xlink:href="#ArialMT-35" x="197.412109"/>
      </g>
     </g>
    </g>
    <g id="ytick_7">
     <g id="line2d_20">
      <path d="M 65.07 264.800872 
L 510.676364 264.800872 
" clip-path="url(#p3b693a5157)" style="fill: none; stroke: #ffffff; stroke-linecap: round"/>
     </g>
     <g id="text_21">
      <!-- −0.24 -->
      <g style="fill: #262626" transform="translate(27.738281 268.737669)scale(0.11 -0.11)">
       <defs>
        <path id="ArialMT-34" d="M 2069 0 
L 2069 1097 
L 81 1097 
L 81 1613 
L 2172 4581 
L 2631 4581 
L 2631 1613 
L 3250 1613 
L 3250 1097 
L 2631 1097 
L 2631 0 
L 2069 0 
z
M 2069 1613 
L 2069 3678 
L 634 1613 
L 2069 1613 
z
" transform="scale(0.015625)"/>
       </defs>
       <use xlink:href="#ArialMT-2212"/>
       <use xlink:href="#ArialMT-30" x="58.398438"/>
       <use xlink:href="#ArialMT-2e" x="114.013672"/>
       <use xlink:href="#ArialMT-32" x="141.796875"/>
       <use xlink:href="#ArialMT-34" x="197.412109"/>
      </g>
     </g>
    </g>
    <g id="ytick_8">
     <g id="line2d_21">
      <path d="M 65.07 256.824351 
L 510.676364 256.824351 
" clip-path="url(#p3b693a5157)" style="fill: none; stroke: #ffffff; stroke-linecap: round"/>
     </g>
     <g id="text_22">
      <!-- −0.23 -->
      <g style="fill: #262626" transform="translate(27.738281 260.761148)scale(0.11 -0.11)">
       <use xlink:href="#ArialMT-2212"/>
       <use xlink:href="#ArialMT-30" x="58.398438"/>
       <use xlink:href="#ArialMT-2e" x="114.013672"/>
       <use xlink:href="#ArialMT-32" x="141.796875"/>
       <use xlink:href="#ArialMT-33" x="197.412109"/>
      </g>
     </g>
    </g>
    <g id="ytick_9">
     <g id="line2d_22">
      <path d="M 65.07 248.84783 
L 510.676364 248.84783 
" clip-path="url(#p3b693a5157)" style="fill: none; stroke: #ffffff; stroke-linecap: round"/>
     </g>
     <g id="text_23">
      <!-- −0.22 -->
      <g style="fill: #262626" transform="translate(27.738281 252.784627)scale(0.11 -0.11)">
       <use xlink:href="#ArialMT-2212"/>
       <use xlink:href="#ArialMT-30" x="58.398438"/>
       <use xlink:href="#ArialMT-2e" x="114.013672"/>
       <use xlink:href="#ArialMT-32" x="141.796875"/>
       <use xlink:href="#ArialMT-32" x="197.412109"/>
      </g>
     </g>
    </g>
    <g id="ytick_10">
     <g id="line2d_23">
      <path d="M 65.07 240.871308 
L 510.676364 240.871308 
" clip-path="url(#p3b693a5157)" style="fill: none; stroke: #ffffff; stroke-linecap: round"/>
     </g>
     <g id="text_24">
      <!-- −0.21 -->
      <g style="fill: #262626" transform="translate(27.738281 244.808105)scale(0.11 -0.11)">
       <use xlink:href="#ArialMT-2212"/>
       <use xlink:href="#ArialMT-30" x="58.398438"/>
       <use xlink:href="#ArialMT-2e" x="114.013672"/>
       <use xlink:href="#ArialMT-32" x="141.796875"/>
       <use xlink:href="#ArialMT-31" x="197.412109"/>
      </g>
     </g>
    </g>
    <g id="ytick_11">
     <g id="line2d_24">
      <path d="M 65.07 232.894787 
L 510.676364 232.894787 
" clip-path="url(#p3b693a5157)" style="fill: none; stroke: #ffffff; stroke-linecap: round"/>
     </g>
     <g id="text_25">
      <!-- −0.20 -->
      <g style="fill: #262626" transform="translate(27.738281 236.831584)scale(0.11 -0.11)">
       <use xlink:href="#ArialMT-2212"/>
       <use xlink:href="#ArialMT-30" x="58.398438"/>
       <use xlink:href="#ArialMT-2e" x="114.013672"/>
       <use xlink:href="#ArialMT-32" x="141.796875"/>
       <use xlink:href="#ArialMT-30" x="197.412109"/>
      </g>
     </g>
    </g>
    <g id="ytick_12">
     <g id="line2d_25">
      <path d="M 65.07 224.918266 
L 510.676364 224.918266 
" clip-path="url(#p3b693a5157)" style="fill: none; stroke: #ffffff; stroke-linecap: round"/>
     </g>
     <g id="text_26">
      <!-- −0.19 -->
      <g style="fill: #262626" transform="translate(27.738281 228.855063)scale(0.11 -0.11)">
       <use xlink:href="#ArialMT-2212"/>
       <use xlink:href="#ArialMT-30" x="58.398438"/>
       <use xlink:href="#ArialMT-2e" x="114.013672"/>
       <use xlink:href="#ArialMT-31" x="141.796875"/>
       <use xlink:href="#ArialMT-39" x="197.412109"/>
      </g>
     </g>
    </g>
    <g id="ytick_13">
     <g id="line2d_26">
      <path d="M 65.07 216.941744 
L 510.676364 216.941744 
" clip-path="url(#p3b693a5157)" style="fill: none; stroke: #ffffff; stroke-linecap: round"/>
     </g>
     <g id="text_27">
      <!-- −0.18 -->
      <g style="fill: #262626" transform="translate(27.738281 220.878541)scale(0.11 -0.11)">
       <use xlink:href="#ArialMT-2212"/>
       <use xlink:href="#ArialMT-30" x="58.398438"/>
       <use xlink:href="#ArialMT-2e" x="114.013672"/>
       <use xlink:href="#ArialMT-31" x="141.796875"/>
       <use xlink:href="#ArialMT-38" x="197.412109"/>
      </g>
     </g>
    </g>
    <g id="ytick_14">
     <g id="line2d_27">
      <path d="M 65.07 208.965223 
L 510.676364 208.965223 
" clip-path="url(#p3b693a5157)" style="fill: none; stroke: #ffffff; stroke-linecap: round"/>
     </g>
     <g id="text_28">
      <!-- −0.17 -->
      <g style="fill: #262626" transform="translate(27.738281 212.90202)scale(0.11 -0.11)">
       <use xlink:href="#ArialMT-2212"/>
       <use xlink:href="#ArialMT-30" x="58.398438"/>
       <use xlink:href="#ArialMT-2e" x="114.013672"/>
       <use xlink:href="#ArialMT-31" x="141.796875"/>
       <use xlink:href="#ArialMT-37" x="197.412109"/>
      </g>
     </g>
    </g>
    <g id="ytick_15">
     <g id="line2d_28">
      <path d="M 65.07 200.988702 
L 510.676364 200.988702 
" clip-path="url(#p3b693a5157)" style="fill: none; stroke: #ffffff; stroke-linecap: round"/>
     </g>
     <g id="text_29">
      <!-- −0.16 -->
      <g style="fill: #262626" transform="translate(27.738281 204.925499)scale(0.11 -0.11)">
       <use xlink:href="#ArialMT-2212"/>
       <use xlink:href="#ArialMT-30" x="58.398438"/>
       <use xlink:href="#ArialMT-2e" x="114.013672"/>
       <use xlink:href="#ArialMT-31" x="141.796875"/>
       <use xlink:href="#ArialMT-36" x="197.412109"/>
      </g>
     </g>
    </g>
    <g id="ytick_16">
     <g id="line2d_29">
      <path d="M 65.07 193.012181 
L 510.676364 193.012181 
" clip-path="url(#p3b693a5157)" style="fill: none; stroke: #ffffff; stroke-linecap: round"/>
     </g>
     <g id="text_30">
      <!-- −0.15 -->
      <g style="fill: #262626" transform="translate(27.738281 196.948977)scale(0.11 -0.11)">
       <use xlink:href="#ArialMT-2212"/>
       <use xlink:href="#ArialMT-30" x="58.398438"/>
       <use xlink:href="#ArialMT-2e" x="114.013672"/>
       <use xlink:href="#ArialMT-31" x="141.796875"/>
       <use xlink:href="#ArialMT-35" x="197.412109"/>
      </g>
     </g>
    </g>
    <g id="ytick_17">
     <g id="line2d_30">
      <path d="M 65.07 185.035659 
L 510.676364 185.035659 
" clip-path="url(#p3b693a5157)" style="fill: none; stroke: #ffffff; stroke-linecap: round"/>
     </g>
     <g id="text_31">
      <!-- −0.14 -->
      <g style="fill: #262626" transform="translate(27.738281 188.972456)scale(0.11 -0.11)">
       <use xlink:href="#ArialMT-2212"/>
       <use xlink:href="#ArialMT-30" x="58.398438"/>
       <use xlink:href="#ArialMT-2e" x="114.013672"/>
       <use xlink:href="#ArialMT-31" x="141.796875"/>
       <use xlink:href="#ArialMT-34" x="197.412109"/>
      </g>
     </g>
    </g>
    <g id="ytick_18">
     <g id="line2d_31">
      <path d="M 65.07 177.059138 
L 510.676364 177.059138 
" clip-path="url(#p3b693a5157)" style="fill: none; stroke: #ffffff; stroke-linecap: round"/>
     </g>
     <g id="text_32">
      <!-- −0.13 -->
      <g style="fill: #262626" transform="translate(27.738281 180.995935)scale(0.11 -0.11)">
       <use xlink:href="#ArialMT-2212"/>
       <use xlink:href="#ArialMT-30" x="58.398438"/>
       <use xlink:href="#ArialMT-2e" x="114.013672"/>
       <use xlink:href="#ArialMT-31" x="141.796875"/>
       <use xlink:href="#ArialMT-33" x="197.412109"/>
      </g>
     </g>
    </g>
    <g id="ytick_19">
     <g id="line2d_32">
      <path d="M 65.07 169.082617 
L 510.676364 169.082617 
" clip-path="url(#p3b693a5157)" style="fill: none; stroke: #ffffff; stroke-linecap: round"/>
     </g>
     <g id="text_33">
      <!-- −0.12 -->
      <g style="fill: #262626" transform="translate(27.738281 173.019414)scale(0.11 -0.11)">
       <use xlink:href="#ArialMT-2212"/>
       <use xlink:href="#ArialMT-30" x="58.398438"/>
       <use xlink:href="#ArialMT-2e" x="114.013672"/>
       <use xlink:href="#ArialMT-31" x="141.796875"/>
       <use xlink:href="#ArialMT-32" x="197.412109"/>
      </g>
     </g>
    </g>
    <g id="ytick_20">
     <g id="line2d_33">
      <path d="M 65.07 161.106095 
L 510.676364 161.106095 
" clip-path="url(#p3b693a5157)" style="fill: none; stroke: #ffffff; stroke-linecap: round"/>
     </g>
     <g id="text_34">
      <!-- −0.11 -->
      <g style="fill: #262626" transform="translate(28.549531 165.042892)scale(0.11 -0.11)">
       <use xlink:href="#ArialMT-2212"/>
       <use xlink:href="#ArialMT-30" x="58.398438"/>
       <use xlink:href="#ArialMT-2e" x="114.013672"/>
       <use xlink:href="#ArialMT-31" x="141.796875"/>
       <use xlink:href="#ArialMT-31" x="190.037109"/>
      </g>
     </g>
    </g>
    <g id="ytick_21">
     <g id="line2d_34">
      <path d="M 65.07 153.129574 
L 510.676364 153.129574 
" clip-path="url(#p3b693a5157)" style="fill: none; stroke: #ffffff; stroke-linecap: round"/>
     </g>
     <g id="text_35">
      <!-- −0.10 -->
      <g style="fill: #262626" transform="translate(27.738281 157.066371)scale(0.11 -0.11)">
       <use xlink:href="#ArialMT-2212"/>
       <use xlink:href="#ArialMT-30" x="58.398438"/>
       <use xlink:href="#ArialMT-2e" x="114.013672"/>
       <use xlink:href="#ArialMT-31" x="141.796875"/>
       <use xlink:href="#ArialMT-30" x="197.412109"/>
      </g>
     </g>
    </g>
    <g id="ytick_22">
     <g id="line2d_35">
      <path d="M 65.07 145.153053 
L 510.676364 145.153053 
" clip-path="url(#p3b693a5157)" style="fill: none; stroke: #ffffff; stroke-linecap: round"/>
     </g>
     <g id="text_36">
      <!-- −0.09 -->
      <g style="fill: #262626" transform="translate(27.738281 149.08985)scale(0.11 -0.11)">
       <use xlink:href="#ArialMT-2212"/>
       <use xlink:href="#ArialMT-30" x="58.398438"/>
       <use xlink:href="#ArialMT-2e" x="114.013672"/>
       <use xlink:href="#ArialMT-30" x="141.796875"/>
       <use xlink:href="#ArialMT-39" x="197.412109"/>
      </g>
     </g>
    </g>
    <g id="ytick_23">
     <g id="line2d_36">
      <path d="M 65.07 137.176532 
L 510.676364 137.176532 
" clip-path="url(#p3b693a5157)" style="fill: none; stroke: #ffffff; stroke-linecap: round"/>
     </g>
     <g id="text_37">
      <!-- −0.08 -->
      <g style="fill: #262626" transform="translate(27.738281 141.113328)scale(0.11 -0.11)">
       <use xlink:href="#ArialMT-2212"/>
       <use xlink:href="#ArialMT-30" x="58.398438"/>
       <use xlink:href="#ArialMT-2e" x="114.013672"/>
       <use xlink:href="#ArialMT-30" x="141.796875"/>
       <use xlink:href="#ArialMT-38" x="197.412109"/>
      </g>
     </g>
    </g>
    <g id="ytick_24">
     <g id="line2d_37">
      <path d="M 65.07 129.20001 
L 510.676364 129.20001 
" clip-path="url(#p3b693a5157)" style="fill: none; stroke: #ffffff; stroke-linecap: round"/>
     </g>
     <g id="text_38">
      <!-- −0.07 -->
      <g style="fill: #262626" transform="translate(27.738281 133.136807)scale(0.11 -0.11)">
       <use xlink:href="#ArialMT-2212"/>
       <use xlink:href="#ArialMT-30" x="58.398438"/>
       <use xlink:href="#ArialMT-2e" x="114.013672"/>
       <use xlink:href="#ArialMT-30" x="141.796875"/>
       <use xlink:href="#ArialMT-37" x="197.412109"/>
      </g>
     </g>
    </g>
    <g id="ytick_25">
     <g id="line2d_38">
      <path d="M 65.07 121.223489 
L 510.676364 121.223489 
" clip-path="url(#p3b693a5157)" style="fill: none; stroke: #ffffff; stroke-linecap: round"/>
     </g>
     <g id="text_39">
      <!-- −0.06 -->
      <g style="fill: #262626" transform="translate(27.738281 125.160286)scale(0.11 -0.11)">
       <use xlink:href="#ArialMT-2212"/>
       <use xlink:href="#ArialMT-30" x="58.398438"/>
       <use xlink:href="#ArialMT-2e" x="114.013672"/>
       <use xlink:href="#ArialMT-30" x="141.796875"/>
       <use xlink:href="#ArialMT-36" x="197.412109"/>
      </g>
     </g>
    </g>
    <g id="ytick_26">
     <g id="line2d_39">
      <path d="M 65.07 113.246968 
L 510.676364 113.246968 
" clip-path="url(#p3b693a5157)" style="fill: none; stroke: #ffffff; stroke-linecap: round"/>
     </g>
     <g id="text_40">
      <!-- −0.05 -->
      <g style="fill: #262626" transform="translate(27.738281 117.183765)scale(0.11 -0.11)">
       <use xlink:href="#ArialMT-2212"/>
       <use xlink:href="#ArialMT-30" x="58.398438"/>
       <use xlink:href="#ArialMT-2e" x="114.013672"/>
       <use xlink:href="#ArialMT-30" x="141.796875"/>
       <use xlink:href="#ArialMT-35" x="197.412109"/>
      </g>
     </g>
    </g>
    <g id="ytick_27">
     <g id="line2d_40">
      <path d="M 65.07 105.270446 
L 510.676364 105.270446 
" clip-path="url(#p3b693a5157)" style="fill: none; stroke: #ffffff; stroke-linecap: round"/>
     </g>
     <g id="text_41">
      <!-- −0.04 -->
      <g style="fill: #262626" transform="translate(27.738281 109.207243)scale(0.11 -0.11)">
       <use xlink:href="#ArialMT-2212"/>
       <use xlink:href="#ArialMT-30" x="58.398438"/>
       <use xlink:href="#ArialMT-2e" x="114.013672"/>
       <use xlink:href="#ArialMT-30" x="141.796875"/>
       <use xlink:href="#ArialMT-34" x="197.412109"/>
      </g>
     </g>
    </g>
    <g id="ytick_28">
     <g id="line2d_41">
      <path d="M 65.07 97.293925 
L 510.676364 97.293925 
" clip-path="url(#p3b693a5157)" style="fill: none; stroke: #ffffff; stroke-linecap: round"/>
     </g>
     <g id="text_42">
      <!-- −0.03 -->
      <g style="fill: #262626" transform="translate(27.738281 101.230722)scale(0.11 -0.11)">
       <use xlink:href="#ArialMT-2212"/>
       <use xlink:href="#ArialMT-30" x="58.398438"/>
       <use xlink:href="#ArialMT-2e" x="114.013672"/>
       <use xlink:href="#ArialMT-30" x="141.796875"/>
       <use xlink:href="#ArialMT-33" x="197.412109"/>
      </g>
     </g>
    </g>
    <g id="ytick_29">
     <g id="line2d_42">
      <path d="M 65.07 89.317404 
L 510.676364 89.317404 
" clip-path="url(#p3b693a5157)" style="fill: none; stroke: #ffffff; stroke-linecap: round"/>
     </g>
     <g id="text_43">
      <!-- −0.02 -->
      <g style="fill: #262626" transform="translate(27.738281 93.254201)scale(0.11 -0.11)">
       <use xlink:href="#ArialMT-2212"/>
       <use xlink:href="#ArialMT-30" x="58.398438"/>
       <use xlink:href="#ArialMT-2e" x="114.013672"/>
       <use xlink:href="#ArialMT-30" x="141.796875"/>
       <use xlink:href="#ArialMT-32" x="197.412109"/>
      </g>
     </g>
    </g>
    <g id="ytick_30">
     <g id="line2d_43">
      <path d="M 65.07 81.340882 
L 510.676364 81.340882 
" clip-path="url(#p3b693a5157)" style="fill: none; stroke: #ffffff; stroke-linecap: round"/>
     </g>
     <g id="text_44">
      <!-- −0.01 -->
      <g style="fill: #262626" transform="translate(27.738281 85.277679)scale(0.11 -0.11)">
       <use xlink:href="#ArialMT-2212"/>
       <use xlink:href="#ArialMT-30" x="58.398438"/>
       <use xlink:href="#ArialMT-2e" x="114.013672"/>
       <use xlink:href="#ArialMT-30" x="141.796875"/>
       <use xlink:href="#ArialMT-31" x="197.412109"/>
      </g>
     </g>
    </g>
    <g id="ytick_31">
     <g id="line2d_44">
      <path d="M 65.07 73.364361 
L 510.676364 73.364361 
" clip-path="url(#p3b693a5157)" style="fill: none; stroke: #ffffff; stroke-linecap: round"/>
     </g>
     <g id="text_45">
      <!-- 0.00 -->
      <g style="fill: #262626" transform="translate(34.162969 77.301158)scale(0.11 -0.11)">
       <use xlink:href="#ArialMT-30"/>
       <use xlink:href="#ArialMT-2e" x="55.615234"/>
       <use xlink:href="#ArialMT-30" x="83.398438"/>
       <use xlink:href="#ArialMT-30" x="139.013672"/>
      </g>
     </g>
    </g>
    <g id="ytick_32">
     <g id="line2d_45">
      <path d="M 65.07 65.38784 
L 510.676364 65.38784 
" clip-path="url(#p3b693a5157)" style="fill: none; stroke: #ffffff; stroke-linecap: round"/>
     </g>
     <g id="text_46">
      <!-- 0.01 -->
      <g style="fill: #262626" transform="translate(34.162969 69.324637)scale(0.11 -0.11)">
       <use xlink:href="#ArialMT-30"/>
       <use xlink:href="#ArialMT-2e" x="55.615234"/>
       <use xlink:href="#ArialMT-30" x="83.398438"/>
       <use xlink:href="#ArialMT-31" x="139.013672"/>
      </g>
     </g>
    </g>
    <g id="ytick_33">
     <g id="line2d_46">
      <path d="M 65.07 57.411319 
L 510.676364 57.411319 
" clip-path="url(#p3b693a5157)" style="fill: none; stroke: #ffffff; stroke-linecap: round"/>
     </g>
     <g id="text_47">
      <!-- 0.02 -->
      <g style="fill: #262626" transform="translate(34.162969 61.348115)scale(0.11 -0.11)">
       <use xlink:href="#ArialMT-30"/>
       <use xlink:href="#ArialMT-2e" x="55.615234"/>
       <use xlink:href="#ArialMT-30" x="83.398438"/>
       <use xlink:href="#ArialMT-32" x="139.013672"/>
      </g>
     </g>
    </g>
    <g id="ytick_34">
     <g id="line2d_47">
      <path d="M 65.07 49.434797 
L 510.676364 49.434797 
" clip-path="url(#p3b693a5157)" style="fill: none; stroke: #ffffff; stroke-linecap: round"/>
     </g>
     <g id="text_48">
      <!-- 0.03 -->
      <g style="fill: #262626" transform="translate(34.162969 53.371594)scale(0.11 -0.11)">
       <use xlink:href="#ArialMT-30"/>
       <use xlink:href="#ArialMT-2e" x="55.615234"/>
       <use xlink:href="#ArialMT-30" x="83.398438"/>
       <use xlink:href="#ArialMT-33" x="139.013672"/>
      </g>
     </g>
    </g>
    <g id="ytick_35">
     <g id="line2d_48">
      <path d="M 65.07 41.458276 
L 510.676364 41.458276 
" clip-path="url(#p3b693a5157)" style="fill: none; stroke: #ffffff; stroke-linecap: round"/>
     </g>
     <g id="text_49">
      <!-- 0.04 -->
      <g style="fill: #262626" transform="translate(34.162969 45.395073)scale(0.11 -0.11)">
       <use xlink:href="#ArialMT-30"/>
       <use xlink:href="#ArialMT-2e" x="55.615234"/>
       <use xlink:href="#ArialMT-30" x="83.398438"/>
       <use xlink:href="#ArialMT-34" x="139.013672"/>
      </g>
     </g>
    </g>
    <g id="ytick_36">
     <g id="line2d_49">
      <path d="M 65.07 33.481755 
L 510.676364 33.481755 
" clip-path="url(#p3b693a5157)" style="fill: none; stroke: #ffffff; stroke-linecap: round"/>
     </g>
     <g id="text_50">
      <!-- 0.05 -->
      <g style="fill: #262626" transform="translate(34.162969 37.418552)scale(0.11 -0.11)">
       <use xlink:href="#ArialMT-30"/>
       <use xlink:href="#ArialMT-2e" x="55.615234"/>
       <use xlink:href="#ArialMT-30" x="83.398438"/>
       <use xlink:href="#ArialMT-35" x="139.013672"/>
      </g>
     </g>
    </g>
    <g id="text_51">
     <!-- Cm [-] -->
     <g style="fill: #262626" transform="translate(21.353281 179.139375)rotate(-90)scale(0.12 -0.12)">
      <defs>
       <path id="ArialMT-43" d="M 3763 1606 
L 4369 1453 
Q 4178 706 3683 314 
Q 3188 -78 2472 -78 
Q 1731 -78 1267 223 
Q 803 525 561 1097 
Q 319 1669 319 2325 
Q 319 3041 592 3573 
Q 866 4106 1370 4382 
Q 1875 4659 2481 4659 
Q 3169 4659 3637 4309 
Q 4106 3959 4291 3325 
L 3694 3184 
Q 3534 3684 3231 3912 
Q 2928 4141 2469 4141 
Q 1941 4141 1586 3887 
Q 1231 3634 1087 3207 
Q 944 2781 944 2328 
Q 944 1744 1114 1308 
Q 1284 872 1643 656 
Q 2003 441 2422 441 
Q 2931 441 3284 734 
Q 3638 1028 3763 1606 
z
" transform="scale(0.015625)"/>
       <path id="ArialMT-6d" d="M 422 0 
L 422 3319 
L 925 3319 
L 925 2853 
Q 1081 3097 1340 3245 
Q 1600 3394 1931 3394 
Q 2300 3394 2536 3241 
Q 2772 3088 2869 2813 
Q 3263 3394 3894 3394 
Q 4388 3394 4653 3120 
Q 4919 2847 4919 2278 
L 4919 0 
L 4359 0 
L 4359 2091 
Q 4359 2428 4304 2576 
Q 4250 2725 4106 2815 
Q 3963 2906 3769 2906 
Q 3419 2906 3187 2673 
Q 2956 2441 2956 1928 
L 2956 0 
L 2394 0 
L 2394 2156 
Q 2394 2531 2256 2718 
Q 2119 2906 1806 2906 
Q 1569 2906 1367 2781 
Q 1166 2656 1075 2415 
Q 984 2175 984 1722 
L 984 0 
L 422 0 
z
" transform="scale(0.015625)"/>
       <path id="ArialMT-2d" d="M 203 1375 
L 203 1941 
L 1931 1941 
L 1931 1375 
L 203 1375 
z
" transform="scale(0.015625)"/>
      </defs>
      <use xlink:href="#ArialMT-43"/>
      <use xlink:href="#ArialMT-6d" x="72.216797"/>
      <use xlink:href="#ArialMT-20" x="155.517578"/>
      <use xlink:href="#ArialMT-5b" x="183.300781"/>
      <use xlink:href="#ArialMT-2d" x="211.083984"/>
      <use xlink:href="#ArialMT-5d" x="244.384766"/>
     </g>
    </g>
   </g>
   <g id="PolyCollection_1">
    <defs>
     <path id="md6cc53cb10" d="M 166.940347 -334.817018 
L 166.940347 -334.817018 
L 174.2168 -326.694526 
L 181.493253 -318.761078 
L 188.769707 -310.678469 
L 196.04616 -302.664458 
L 203.322613 -294.610565 
L 210.599067 -286.428249 
L 217.87552 -278.428596 
L 225.151973 -270.36194 
L 232.428427 -262.268962 
L 239.70488 -254.226235 
L 246.981333 -246.353409 
L 254.257787 -238.510893 
L 261.53424 -230.715439 
L 268.810693 -222.949498 
L 276.087147 -215.191533 
L 283.3636 -207.534072 
L 290.640053 -200.108729 
L 297.916507 -193.870291 
L 305.19296 -188.490926 
L 312.469413 -183.017437 
L 319.745867 -177.170647 
L 327.02232 -171.297534 
L 334.298773 -165.449946 
L 341.575226 -159.769865 
L 348.85168 -153.536214 
L 356.128133 -146.086941 
L 363.404586 -137.735523 
L 370.68104 -129.452703 
L 377.957493 -124.432281 
L 385.233946 -120.991209 
L 392.5104 -117.52222 
L 399.786853 -114.23031 
L 407.063306 -110.960734 
L 414.33976 -108.050899 
L 421.616213 -105.246354 
L 428.892666 -102.63165 
L 436.16912 -100.499526 
L 443.445573 -98.297209 
L 450.722026 -96.204967 
L 457.99848 -94.419024 
L 465.274933 -92.953737 
L 472.551386 -91.569013 
L 479.82784 -90.357379 
L 479.82784 -90.357379 
L 479.82784 -90.357379 
L 472.551386 -91.569013 
L 465.274933 -92.953737 
L 457.99848 -94.419024 
L 450.722026 -96.204967 
L 443.445573 -98.297209 
L 436.16912 -100.499526 
L 428.892666 -102.63165 
L 421.616213 -105.246354 
L 414.33976 -108.050899 
L 407.063306 -110.960734 
L 399.786853 -114.23031 
L 392.5104 -117.52222 
L 385.233946 -120.991209 
L 377.957493 -124.432281 
L 370.68104 -129.452703 
L 363.404586 -137.735523 
L 356.128133 -146.086941 
L 348.85168 -153.536214 
L 341.575226 -159.769865 
L 334.298773 -165.449946 
L 327.02232 -171.297534 
L 319.745867 -177.170647 
L 312.469413 -183.017437 
L 305.19296 -188.490926 
L 297.916507 -193.870291 
L 290.640053 -200.108729 
L 283.3636 -207.534072 
L 276.087147 -215.191533 
L 268.810693 -222.949498 
L 261.53424 -230.715439 
L 254.257787 -238.510893 
L 246.981333 -246.353409 
L 239.70488 -254.226235 
L 232.428427 -262.268962 
L 225.151973 -270.36194 
L 217.87552 -278.428596 
L 210.599067 -286.428249 
L 203.322613 -294.610565 
L 196.04616 -302.664458 
L 188.769707 -310.678469 
L 181.493253 -318.761078 
L 174.2168 -326.694526 
L 166.940347 -334.817018 
z
" style="stroke: #808080; stroke-opacity: 0.2"/>
    </defs>
    <g clip-path="url(#p3b693a5157)">
     <use xlink:href="#md6cc53cb10" x="0" y="360" style="fill: #808080; fill-opacity: 0.2; stroke: #808080; stroke-opacity: 0.2"/>
    </g>
   </g>
   <g id="PathCollection_1">
    <path d="M 166.940347 28.182982 
C 167.735956 28.182982 168.499086 27.866883 169.061667 27.304302 
C 169.624248 26.741722 169.940347 25.978591 169.940347 25.182982 
C 169.940347 24.387373 169.624248 23.624242 169.061667 23.061662 
C 168.499086 22.499081 167.735956 22.182982 166.940347 22.182982 
C 166.144737 22.182982 165.381607 22.499081 164.819026 23.061662 
C 164.256446 23.624242 163.940347 24.387373 163.940347 25.182982 
C 163.940347 25.978591 164.256446 26.741722 164.819026 27.304302 
C 165.381607 27.866883 166.144737 28.182982 166.940347 28.182982 
z
" clip-path="url(#p3b693a5157)" style="fill: #a6cee3; stroke: #ffffff; stroke-width: 0.48"/>
    <path d="M 174.2168 36.305474 
C 175.012409 36.305474 175.77554 35.989375 176.33812 35.426794 
C 176.900701 34.864213 177.2168 34.101083 177.2168 33.305474 
C 177.2168 32.509864 176.900701 31.746734 176.33812 31.184153 
C 175.77554 30.621572 175.012409 30.305474 174.2168 30.305474 
C 173.421191 30.305474 172.65806 30.621572 172.09548 31.184153 
C 171.532899 31.746734 171.2168 32.509864 171.2168 33.305474 
C 171.2168 34.101083 171.532899 34.864213 172.09548 35.426794 
C 172.65806 35.989375 173.421191 36.305474 174.2168 36.305474 
z
" clip-path="url(#p3b693a5157)" style="fill: #a6cee3; stroke: #ffffff; stroke-width: 0.48"/>
    <path d="M 181.493253 44.238922 
C 182.288863 44.238922 183.051993 43.922823 183.614574 43.360242 
C 184.177154 42.797661 184.493253 42.034531 184.493253 41.238922 
C 184.493253 40.443312 184.177154 39.680182 183.614574 39.117601 
C 183.051993 38.555021 182.288863 38.238922 181.493253 38.238922 
C 180.697644 38.238922 179.934514 38.555021 179.371933 39.117601 
C 178.809352 39.680182 178.493253 40.443312 178.493253 41.238922 
C 178.493253 42.034531 178.809352 42.797661 179.371933 43.360242 
C 179.934514 43.922823 180.697644 44.238922 181.493253 44.238922 
z
" clip-path="url(#p3b693a5157)" style="fill: #a6cee3; stroke: #ffffff; stroke-width: 0.48"/>
    <path d="M 188.769707 52.321531 
C 189.565316 52.321531 190.328446 52.005432 190.891027 51.442851 
C 191.453608 50.88027 191.769707 50.11714 191.769707 49.321531 
C 191.769707 48.525921 191.453608 47.762791 190.891027 47.20021 
C 190.328446 46.63763 189.565316 46.321531 188.769707 46.321531 
C 187.974097 46.321531 187.210967 46.63763 186.648386 47.20021 
C 186.085806 47.762791 185.769707 48.525921 185.769707 49.321531 
C 185.769707 50.11714 186.085806 50.88027 186.648386 51.442851 
C 187.210967 52.005432 187.974097 52.321531 188.769707 52.321531 
z
" clip-path="url(#p3b693a5157)" style="fill: #a6cee3; stroke: #ffffff; stroke-width: 0.48"/>
    <path d="M 196.04616 60.335542 
C 196.841769 60.335542 197.6049 60.019443 198.16748 59.456862 
C 198.730061 58.894281 199.04616 58.131151 199.04616 57.335542 
C 199.04616 56.539932 198.730061 55.776802 198.16748 55.214221 
C 197.6049 54.651641 196.841769 54.335542 196.04616 54.335542 
C 195.250551 54.335542 194.48742 54.651641 193.92484 55.214221 
C 193.362259 55.776802 193.04616 56.539932 193.04616 57.335542 
C 193.04616 58.131151 193.362259 58.894281 193.92484 59.456862 
C 194.48742 60.019443 195.250551 60.335542 196.04616 60.335542 
z
" clip-path="url(#p3b693a5157)" style="fill: #a6cee3; stroke: #ffffff; stroke-width: 0.48"/>
    <path d="M 203.322613 68.389435 
C 204.118223 68.389435 204.881353 68.073336 205.443934 67.510756 
C 206.006514 66.948175 206.322613 66.185044 206.322613 65.389435 
C 206.322613 64.593826 206.006514 63.830696 205.443934 63.268115 
C 204.881353 62.705534 204.118223 62.389435 203.322613 62.389435 
C 202.527004 62.389435 201.763874 62.705534 201.201293 63.268115 
C 200.638712 63.830696 200.322613 64.593826 200.322613 65.389435 
C 200.322613 66.185044 200.638712 66.948175 201.201293 67.510756 
C 201.763874 68.073336 202.527004 68.389435 203.322613 68.389435 
z
" clip-path="url(#p3b693a5157)" style="fill: #a6cee3; stroke: #ffffff; stroke-width: 0.48"/>
    <path d="M 210.599067 76.571751 
C 211.394676 76.571751 212.157806 76.255652 212.720387 75.693071 
C 213.282968 75.13049 213.599067 74.36736 213.599067 73.571751 
C 213.599067 72.776141 213.282968 72.013011 212.720387 71.45043 
C 212.157806 70.88785 211.394676 70.571751 210.599067 70.571751 
C 209.803457 70.571751 209.040327 70.88785 208.477746 71.45043 
C 207.915166 72.013011 207.599067 72.776141 207.599067 73.571751 
C 207.599067 74.36736 207.915166 75.13049 208.477746 75.693071 
C 209.040327 76.255652 209.803457 76.571751 210.599067 76.571751 
z
" clip-path="url(#p3b693a5157)" style="fill: #a6cee3; stroke: #ffffff; stroke-width: 0.48"/>
    <path d="M 217.87552 84.571404 
C 218.671129 84.571404 219.43426 84.255305 219.99684 83.692724 
C 220.559421 83.130144 220.87552 82.367013 220.87552 81.571404 
C 220.87552 80.775795 220.559421 80.012664 219.99684 79.450084 
C 219.43426 78.887503 218.671129 78.571404 217.87552 78.571404 
C 217.079911 78.571404 216.31678 78.887503 215.7542 79.450084 
C 215.191619 80.012664 214.87552 80.775795 214.87552 81.571404 
C 214.87552 82.367013 215.191619 83.130144 215.7542 83.692724 
C 216.31678 84.255305 217.079911 84.571404 217.87552 84.571404 
z
" clip-path="url(#p3b693a5157)" style="fill: #a6cee3; stroke: #ffffff; stroke-width: 0.48"/>
    <path d="M 225.151973 92.63806 
C 225.947583 92.63806 226.710713 92.321961 227.273294 91.75938 
C 227.835874 91.1968 228.151973 90.433669 228.151973 89.63806 
C 228.151973 88.842451 227.835874 88.07932 227.273294 87.51674 
C 226.710713 86.954159 225.947583 86.63806 225.151973 86.63806 
C 224.356364 86.63806 223.593234 86.954159 223.030653 87.51674 
C 222.468072 88.07932 222.151973 88.842451 222.151973 89.63806 
C 222.151973 90.433669 222.468072 91.1968 223.030653 91.75938 
C 223.593234 92.321961 224.356364 92.63806 225.151973 92.63806 
z
" clip-path="url(#p3b693a5157)" style="fill: #a6cee3; stroke: #ffffff; stroke-width: 0.48"/>
    <path d="M 232.428427 100.731038 
C 233.224036 100.731038 233.987166 100.414939 234.549747 99.852359 
C 235.112328 99.289778 235.428427 98.526648 235.428427 97.731038 
C 235.428427 96.935429 235.112328 96.172299 234.549747 95.609718 
C 233.987166 95.047137 233.224036 94.731038 232.428427 94.731038 
C 231.632817 94.731038 230.869687 95.047137 230.307106 95.609718 
C 229.744525 96.172299 229.428427 96.935429 229.428427 97.731038 
C 229.428427 98.526648 229.744525 99.289778 230.307106 99.852359 
C 230.869687 100.414939 231.632817 100.731038 232.428427 100.731038 
z
" clip-path="url(#p3b693a5157)" style="fill: #a6cee3; stroke: #ffffff; stroke-width: 0.48"/>
    <path d="M 239.70488 108.773765 
C 240.500489 108.773765 241.26362 108.457666 241.8262 107.895085 
C 242.388781 107.332504 242.70488 106.569374 242.70488 105.773765 
C 242.70488 104.978156 242.388781 104.215025 241.8262 103.652444 
C 241.26362 103.089864 240.500489 102.773765 239.70488 102.773765 
C 238.909271 102.773765 238.14614 103.089864 237.58356 103.652444 
C 237.020979 104.215025 236.70488 104.978156 236.70488 105.773765 
C 236.70488 106.569374 237.020979 107.332504 237.58356 107.895085 
C 238.14614 108.457666 238.909271 108.773765 239.70488 108.773765 
z
" clip-path="url(#p3b693a5157)" style="fill: #a6cee3; stroke: #ffffff; stroke-width: 0.48"/>
    <path d="M 246.981333 116.646591 
C 247.776943 116.646591 248.540073 116.330492 249.102654 115.767912 
C 249.665234 115.205331 249.981333 114.442201 249.981333 113.646591 
C 249.981333 112.850982 249.665234 112.087852 249.102654 111.525271 
C 248.540073 110.96269 247.776943 110.646591 246.981333 110.646591 
C 246.185724 110.646591 245.422594 110.96269 244.860013 111.525271 
C 244.297432 112.087852 243.981333 112.850982 243.981333 113.646591 
C 243.981333 114.442201 244.297432 115.205331 244.860013 115.767912 
C 245.422594 116.330492 246.185724 116.646591 246.981333 116.646591 
z
" clip-path="url(#p3b693a5157)" style="fill: #a6cee3; stroke: #ffffff; stroke-width: 0.48"/>
    <path d="M 254.257787 124.489107 
C 255.053396 124.489107 255.816526 124.173008 256.379107 123.610427 
C 256.941688 123.047847 257.257787 122.284716 257.257787 121.489107 
C 257.257787 120.693498 256.941688 119.930367 256.379107 119.367787 
C 255.816526 118.805206 255.053396 118.489107 254.257787 118.489107 
C 253.462177 118.489107 252.699047 118.805206 252.136466 119.367787 
C 251.573885 119.930367 251.257787 120.693498 251.257787 121.489107 
C 251.257787 122.284716 251.573885 123.047847 252.136466 123.610427 
C 252.699047 124.173008 253.462177 124.489107 254.257787 124.489107 
z
" clip-path="url(#p3b693a5157)" style="fill: #a6cee3; stroke: #ffffff; stroke-width: 0.48"/>
    <path d="M 261.53424 132.284561 
C 262.329849 132.284561 263.092979 131.968462 263.65556 131.405882 
C 264.218141 130.843301 264.53424 130.080171 264.53424 129.284561 
C 264.53424 128.488952 264.218141 127.725822 263.65556 127.163241 
C 263.092979 126.60066 262.329849 126.284561 261.53424 126.284561 
C 260.738631 126.284561 259.9755 126.60066 259.41292 127.163241 
C 258.850339 127.725822 258.53424 128.488952 258.53424 129.284561 
C 258.53424 130.080171 258.850339 130.843301 259.41292 131.405882 
C 259.9755 131.968462 260.738631 132.284561 261.53424 132.284561 
z
" clip-path="url(#p3b693a5157)" style="fill: #a6cee3; stroke: #ffffff; stroke-width: 0.48"/>
    <path d="M 268.810693 140.050502 
C 269.606303 140.050502 270.369433 139.734404 270.932014 139.171823 
C 271.494594 138.609242 271.810693 137.846112 271.810693 137.050502 
C 271.810693 136.254893 271.494594 135.491763 270.932014 134.929182 
C 270.369433 134.366601 269.606303 134.050502 268.810693 134.050502 
C 268.015084 134.050502 267.251954 134.366601 266.689373 134.929182 
C 266.126792 135.491763 265.810693 136.254893 265.810693 137.050502 
C 265.810693 137.846112 266.126792 138.609242 266.689373 139.171823 
C 267.251954 139.734404 268.015084 140.050502 268.810693 140.050502 
z
" clip-path="url(#p3b693a5157)" style="fill: #a6cee3; stroke: #ffffff; stroke-width: 0.48"/>
    <path d="M 276.087147 147.808467 
C 276.882756 147.808467 277.645886 147.492368 278.208467 146.929787 
C 278.771048 146.367207 279.087147 145.604076 279.087147 144.808467 
C 279.087147 144.012858 278.771048 143.249727 278.208467 142.687147 
C 277.645886 142.124566 276.882756 141.808467 276.087147 141.808467 
C 275.291537 141.808467 274.528407 142.124566 273.965826 142.687147 
C 273.403245 143.249727 273.087147 144.012858 273.087147 144.808467 
C 273.087147 145.604076 273.403245 146.367207 273.965826 146.929787 
C 274.528407 147.492368 275.291537 147.808467 276.087147 147.808467 
z
" clip-path="url(#p3b693a5157)" style="fill: #a6cee3; stroke: #ffffff; stroke-width: 0.48"/>
    <path d="M 283.3636 155.465928 
C 284.159209 155.465928 284.922339 155.149829 285.48492 154.587248 
C 286.047501 154.024667 286.3636 153.261537 286.3636 152.465928 
C 286.3636 151.670318 286.047501 150.907188 285.48492 150.344607 
C 284.922339 149.782026 284.159209 149.465928 283.3636 149.465928 
C 282.567991 149.465928 281.80486 149.782026 281.24228 150.344607 
C 280.679699 150.907188 280.3636 151.670318 280.3636 152.465928 
C 280.3636 153.261537 280.679699 154.024667 281.24228 154.587248 
C 281.80486 155.149829 282.567991 155.465928 283.3636 155.465928 
z
" clip-path="url(#p3b693a5157)" style="fill: #a6cee3; stroke: #ffffff; stroke-width: 0.48"/>
    <path d="M 290.640053 162.891271 
C 291.435662 162.891271 292.198793 162.575172 292.761374 162.012592 
C 293.323954 161.450011 293.640053 160.686881 293.640053 159.891271 
C 293.640053 159.095662 293.323954 158.332532 292.761374 157.769951 
C 292.198793 157.20737 291.435662 156.891271 290.640053 156.891271 
C 289.844444 156.891271 289.081314 157.20737 288.518733 157.769951 
C 287.956152 158.332532 287.640053 159.095662 287.640053 159.891271 
C 287.640053 160.686881 287.956152 161.450011 288.518733 162.012592 
C 289.081314 162.575172 289.844444 162.891271 290.640053 162.891271 
z
" clip-path="url(#p3b693a5157)" style="fill: #a6cee3; stroke: #ffffff; stroke-width: 0.48"/>
    <path d="M 297.916507 169.129709 
C 298.712116 169.129709 299.475246 168.81361 300.037827 168.251029 
C 300.600408 167.688448 300.916507 166.925318 300.916507 166.129709 
C 300.916507 165.334099 300.600408 164.570969 300.037827 164.008388 
C 299.475246 163.445807 298.712116 163.129709 297.916507 163.129709 
C 297.120897 163.129709 296.357767 163.445807 295.795186 164.008388 
C 295.232605 164.570969 294.916507 165.334099 294.916507 166.129709 
C 294.916507 166.925318 295.232605 167.688448 295.795186 168.251029 
C 296.357767 168.81361 297.120897 169.129709 297.916507 169.129709 
z
" clip-path="url(#p3b693a5157)" style="fill: #a6cee3; stroke: #ffffff; stroke-width: 0.48"/>
    <path d="M 305.19296 174.509074 
C 305.988569 174.509074 306.751699 174.192976 307.31428 173.630395 
C 307.876861 173.067814 308.19296 172.304684 308.19296 171.509074 
C 308.19296 170.713465 307.876861 169.950335 307.31428 169.387754 
C 306.751699 168.825173 305.988569 168.509074 305.19296 168.509074 
C 304.397351 168.509074 303.63422 168.825173 303.07164 169.387754 
C 302.509059 169.950335 302.19296 170.713465 302.19296 171.509074 
C 302.19296 172.304684 302.509059 173.067814 303.07164 173.630395 
C 303.63422 174.192976 304.397351 174.509074 305.19296 174.509074 
z
" clip-path="url(#p3b693a5157)" style="fill: #a6cee3; stroke: #ffffff; stroke-width: 0.48"/>
    <path d="M 312.469413 179.982563 
C 313.265022 179.982563 314.028153 179.666464 314.590734 179.103884 
C 315.153314 178.541303 315.469413 177.778173 315.469413 176.982563 
C 315.469413 176.186954 315.153314 175.423824 314.590734 174.861243 
C 314.028153 174.298662 313.265022 173.982563 312.469413 173.982563 
C 311.673804 173.982563 310.910674 174.298662 310.348093 174.861243 
C 309.785512 175.423824 309.469413 176.186954 309.469413 176.982563 
C 309.469413 177.778173 309.785512 178.541303 310.348093 179.103884 
C 310.910674 179.666464 311.673804 179.982563 312.469413 179.982563 
z
" clip-path="url(#p3b693a5157)" style="fill: #a6cee3; stroke: #ffffff; stroke-width: 0.48"/>
    <path d="M 319.745867 185.829353 
C 320.541476 185.829353 321.304606 185.513255 321.867187 184.950674 
C 322.429768 184.388093 322.745867 183.624963 322.745867 182.829353 
C 322.745867 182.033744 322.429768 181.270614 321.867187 180.708033 
C 321.304606 180.145452 320.541476 179.829353 319.745867 179.829353 
C 318.950257 179.829353 318.187127 180.145452 317.624546 180.708033 
C 317.061965 181.270614 316.745867 182.033744 316.745867 182.829353 
C 316.745867 183.624963 317.061965 184.388093 317.624546 184.950674 
C 318.187127 185.513255 318.950257 185.829353 319.745867 185.829353 
z
" clip-path="url(#p3b693a5157)" style="fill: #a6cee3; stroke: #ffffff; stroke-width: 0.48"/>
    <path d="M 327.02232 191.702466 
C 327.817929 191.702466 328.581059 191.386367 329.14364 190.823786 
C 329.706221 190.261206 330.02232 189.498075 330.02232 188.702466 
C 330.02232 187.906857 329.706221 187.143727 329.14364 186.581146 
C 328.581059 186.018565 327.817929 185.702466 327.02232 185.702466 
C 326.226711 185.702466 325.46358 186.018565 324.900999 186.581146 
C 324.338419 187.143727 324.02232 187.906857 324.02232 188.702466 
C 324.02232 189.498075 324.338419 190.261206 324.900999 190.823786 
C 325.46358 191.386367 326.226711 191.702466 327.02232 191.702466 
z
" clip-path="url(#p3b693a5157)" style="fill: #a6cee3; stroke: #ffffff; stroke-width: 0.48"/>
    <path d="M 334.298773 197.550054 
C 335.094382 197.550054 335.857513 197.233955 336.420094 196.671374 
C 336.982674 196.108793 337.298773 195.345663 337.298773 194.550054 
C 337.298773 193.754445 336.982674 192.991314 336.420094 192.428734 
C 335.857513 191.866153 335.094382 191.550054 334.298773 191.550054 
C 333.503164 191.550054 332.740034 191.866153 332.177453 192.428734 
C 331.614872 192.991314 331.298773 193.754445 331.298773 194.550054 
C 331.298773 195.345663 331.614872 196.108793 332.177453 196.671374 
C 332.740034 197.233955 333.503164 197.550054 334.298773 197.550054 
z
" clip-path="url(#p3b693a5157)" style="fill: #a6cee3; stroke: #ffffff; stroke-width: 0.48"/>
    <path d="M 341.575226 203.230135 
C 342.370836 203.230135 343.133966 202.914036 343.696547 202.351455 
C 344.259128 201.788874 344.575226 201.025744 344.575226 200.230135 
C 344.575226 199.434525 344.259128 198.671395 343.696547 198.108814 
C 343.133966 197.546234 342.370836 197.230135 341.575226 197.230135 
C 340.779617 197.230135 340.016487 197.546234 339.453906 198.108814 
C 338.891325 198.671395 338.575226 199.434525 338.575226 200.230135 
C 338.575226 201.025744 338.891325 201.788874 339.453906 202.351455 
C 340.016487 202.914036 340.779617 203.230135 341.575226 203.230135 
z
" clip-path="url(#p3b693a5157)" style="fill: #a6cee3; stroke: #ffffff; stroke-width: 0.48"/>
    <path d="M 348.85168 209.463786 
C 349.647289 209.463786 350.410419 209.147687 350.973 208.585106 
C 351.535581 208.022526 351.85168 207.259395 351.85168 206.463786 
C 351.85168 205.668177 351.535581 204.905046 350.973 204.342466 
C 350.410419 203.779885 349.647289 203.463786 348.85168 203.463786 
C 348.056071 203.463786 347.29294 203.779885 346.730359 204.342466 
C 346.167779 204.905046 345.85168 205.668177 345.85168 206.463786 
C 345.85168 207.259395 346.167779 208.022526 346.730359 208.585106 
C 347.29294 209.147687 348.056071 209.463786 348.85168 209.463786 
z
" clip-path="url(#p3b693a5157)" style="fill: #a6cee3; stroke: #ffffff; stroke-width: 0.48"/>
    <path d="M 356.128133 216.913059 
C 356.923742 216.913059 357.686873 216.59696 358.249454 216.03438 
C 358.812034 215.471799 359.128133 214.708669 359.128133 213.913059 
C 359.128133 213.11745 358.812034 212.35432 358.249454 211.791739 
C 357.686873 211.229158 356.923742 210.913059 356.128133 210.913059 
C 355.332524 210.913059 354.569394 211.229158 354.006813 211.791739 
C 353.444232 212.35432 353.128133 213.11745 353.128133 213.913059 
C 353.128133 214.708669 353.444232 215.471799 354.006813 216.03438 
C 354.569394 216.59696 355.332524 216.913059 356.128133 216.913059 
z
" clip-path="url(#p3b693a5157)" style="fill: #a6cee3; stroke: #ffffff; stroke-width: 0.48"/>
    <path d="M 363.404586 225.264477 
C 364.200196 225.264477 364.963326 224.948378 365.525907 224.385797 
C 366.088488 223.823217 366.404586 223.060086 366.404586 222.264477 
C 366.404586 221.468868 366.088488 220.705738 365.525907 220.143157 
C 364.963326 219.580576 364.200196 219.264477 363.404586 219.264477 
C 362.608977 219.264477 361.845847 219.580576 361.283266 220.143157 
C 360.720685 220.705738 360.404586 221.468868 360.404586 222.264477 
C 360.404586 223.060086 360.720685 223.823217 361.283266 224.385797 
C 361.845847 224.948378 362.608977 225.264477 363.404586 225.264477 
z
" clip-path="url(#p3b693a5157)" style="fill: #a6cee3; stroke: #ffffff; stroke-width: 0.48"/>
    <path d="M 370.68104 233.547297 
C 371.476649 233.547297 372.239779 233.231198 372.80236 232.668617 
C 373.364941 232.106036 373.68104 231.342906 373.68104 230.547297 
C 373.68104 229.751688 373.364941 228.988557 372.80236 228.425976 
C 372.239779 227.863396 371.476649 227.547297 370.68104 227.547297 
C 369.885431 227.547297 369.1223 227.863396 368.559719 228.425976 
C 367.997139 228.988557 367.68104 229.751688 367.68104 230.547297 
C 367.68104 231.342906 367.997139 232.106036 368.559719 232.668617 
C 369.1223 233.231198 369.885431 233.547297 370.68104 233.547297 
z
" clip-path="url(#p3b693a5157)" style="fill: #a6cee3; stroke: #ffffff; stroke-width: 0.48"/>
    <path d="M 377.957493 238.567719 
C 378.753102 238.567719 379.516233 238.25162 380.078813 237.68904 
C 380.641394 237.126459 380.957493 236.363329 380.957493 235.567719 
C 380.957493 234.77211 380.641394 234.00898 380.078813 233.446399 
C 379.516233 232.883818 378.753102 232.567719 377.957493 232.567719 
C 377.161884 232.567719 376.398754 232.883818 375.836173 233.446399 
C 375.273592 234.00898 374.957493 234.77211 374.957493 235.567719 
C 374.957493 236.363329 375.273592 237.126459 375.836173 237.68904 
C 376.398754 238.25162 377.161884 238.567719 377.957493 238.567719 
z
" clip-path="url(#p3b693a5157)" style="fill: #a6cee3; stroke: #ffffff; stroke-width: 0.48"/>
    <path d="M 385.233946 242.008791 
C 386.029556 242.008791 386.792686 241.692692 387.355267 241.130111 
C 387.917848 240.56753 388.233946 239.8044 388.233946 239.008791 
C 388.233946 238.213181 387.917848 237.450051 387.355267 236.88747 
C 386.792686 236.32489 386.029556 236.008791 385.233946 236.008791 
C 384.438337 236.008791 383.675207 236.32489 383.112626 236.88747 
C 382.550045 237.450051 382.233946 238.213181 382.233946 239.008791 
C 382.233946 239.8044 382.550045 240.56753 383.112626 241.130111 
C 383.675207 241.692692 384.438337 242.008791 385.233946 242.008791 
z
" clip-path="url(#p3b693a5157)" style="fill: #a6cee3; stroke: #ffffff; stroke-width: 0.48"/>
    <path d="M 392.5104 245.47778 
C 393.306009 245.47778 394.069139 245.161681 394.63172 244.5991 
C 395.194301 244.036519 395.5104 243.273389 395.5104 242.47778 
C 395.5104 241.68217 395.194301 240.91904 394.63172 240.356459 
C 394.069139 239.793879 393.306009 239.47778 392.5104 239.47778 
C 391.714791 239.47778 390.95166 239.793879 390.389079 240.356459 
C 389.826499 240.91904 389.5104 241.68217 389.5104 242.47778 
C 389.5104 243.273389 389.826499 244.036519 390.389079 244.5991 
C 390.95166 245.161681 391.714791 245.47778 392.5104 245.47778 
z
" clip-path="url(#p3b693a5157)" style="fill: #a6cee3; stroke: #ffffff; stroke-width: 0.48"/>
    <path d="M 399.786853 248.76969 
C 400.582462 248.76969 401.345593 248.453591 401.908173 247.89101 
C 402.470754 247.32843 402.786853 246.565299 402.786853 245.76969 
C 402.786853 244.974081 402.470754 244.21095 401.908173 243.64837 
C 401.345593 243.085789 400.582462 242.76969 399.786853 242.76969 
C 398.991244 242.76969 398.228114 243.085789 397.665533 243.64837 
C 397.102952 244.21095 396.786853 244.974081 396.786853 245.76969 
C 396.786853 246.565299 397.102952 247.32843 397.665533 247.89101 
C 398.228114 248.453591 398.991244 248.76969 399.786853 248.76969 
z
" clip-path="url(#p3b693a5157)" style="fill: #a6cee3; stroke: #ffffff; stroke-width: 0.48"/>
    <path d="M 407.063306 252.039266 
C 407.858916 252.039266 408.622046 251.723167 409.184627 251.160586 
C 409.747208 250.598006 410.063306 249.834875 410.063306 249.039266 
C 410.063306 248.243657 409.747208 247.480527 409.184627 246.917946 
C 408.622046 246.355365 407.858916 246.039266 407.063306 246.039266 
C 406.267697 246.039266 405.504567 246.355365 404.941986 246.917946 
C 404.379405 247.480527 404.063306 248.243657 404.063306 249.039266 
C 404.063306 249.834875 404.379405 250.598006 404.941986 251.160586 
C 405.504567 251.723167 406.267697 252.039266 407.063306 252.039266 
z
" clip-path="url(#p3b693a5157)" style="fill: #a6cee3; stroke: #ffffff; stroke-width: 0.48"/>
    <path d="M 414.33976 254.949101 
C 415.135369 254.949101 415.898499 254.633002 416.46108 254.070421 
C 417.023661 253.507841 417.33976 252.74471 417.33976 251.949101 
C 417.33976 251.153492 417.023661 250.390362 416.46108 249.827781 
C 415.898499 249.2652 415.135369 248.949101 414.33976 248.949101 
C 413.54415 248.949101 412.78102 249.2652 412.218439 249.827781 
C 411.655859 250.390362 411.33976 251.153492 411.33976 251.949101 
C 411.33976 252.74471 411.655859 253.507841 412.218439 254.070421 
C 412.78102 254.633002 413.54415 254.949101 414.33976 254.949101 
z
" clip-path="url(#p3b693a5157)" style="fill: #a6cee3; stroke: #ffffff; stroke-width: 0.48"/>
    <path d="M 421.616213 257.753646 
C 422.411822 257.753646 423.174953 257.437547 423.737533 256.874966 
C 424.300114 256.312386 424.616213 255.549255 424.616213 254.753646 
C 424.616213 253.958037 424.300114 253.194906 423.737533 252.632326 
C 423.174953 252.069745 422.411822 251.753646 421.616213 251.753646 
C 420.820604 251.753646 420.057474 252.069745 419.494893 252.632326 
C 418.932312 253.194906 418.616213 253.958037 418.616213 254.753646 
C 418.616213 255.549255 418.932312 256.312386 419.494893 256.874966 
C 420.057474 257.437547 420.820604 257.753646 421.616213 257.753646 
z
" clip-path="url(#p3b693a5157)" style="fill: #a6cee3; stroke: #ffffff; stroke-width: 0.48"/>
    <path d="M 428.892666 260.36835 
C 429.688276 260.36835 430.451406 260.052251 431.013987 259.48967 
C 431.576568 258.927089 431.892666 258.163959 431.892666 257.36835 
C 431.892666 256.57274 431.576568 255.80961 431.013987 255.247029 
C 430.451406 254.684449 429.688276 254.36835 428.892666 254.36835 
C 428.097057 254.36835 427.333927 254.684449 426.771346 255.247029 
C 426.208765 255.80961 425.892666 256.57274 425.892666 257.36835 
C 425.892666 258.163959 426.208765 258.927089 426.771346 259.48967 
C 427.333927 260.052251 428.097057 260.36835 428.892666 260.36835 
z
" clip-path="url(#p3b693a5157)" style="fill: #a6cee3; stroke: #ffffff; stroke-width: 0.48"/>
    <path d="M 436.16912 262.500474 
C 436.964729 262.500474 437.727859 262.184375 438.29044 261.621794 
C 438.853021 261.059213 439.16912 260.296083 439.16912 259.500474 
C 439.16912 258.704865 438.853021 257.941734 438.29044 257.379153 
C 437.727859 256.816573 436.964729 256.500474 436.16912 256.500474 
C 435.37351 256.500474 434.61038 256.816573 434.047799 257.379153 
C 433.485219 257.941734 433.16912 258.704865 433.16912 259.500474 
C 433.16912 260.296083 433.485219 261.059213 434.047799 261.621794 
C 434.61038 262.184375 435.37351 262.500474 436.16912 262.500474 
z
" clip-path="url(#p3b693a5157)" style="fill: #a6cee3; stroke: #ffffff; stroke-width: 0.48"/>
    <path d="M 443.445573 264.702791 
C 444.241182 264.702791 445.004313 264.386692 445.566893 263.824112 
C 446.129474 263.261531 446.445573 262.498401 446.445573 261.702791 
C 446.445573 260.907182 446.129474 260.144052 445.566893 259.581471 
C 445.004313 259.01889 444.241182 258.702791 443.445573 258.702791 
C 442.649964 258.702791 441.886833 259.01889 441.324253 259.581471 
C 440.761672 260.144052 440.445573 260.907182 440.445573 261.702791 
C 440.445573 262.498401 440.761672 263.261531 441.324253 263.824112 
C 441.886833 264.386692 442.649964 264.702791 443.445573 264.702791 
z
" clip-path="url(#p3b693a5157)" style="fill: #a6cee3; stroke: #ffffff; stroke-width: 0.48"/>
    <path d="M 450.722026 266.795033 
C 451.517636 266.795033 452.280766 266.478934 452.843347 265.916353 
C 453.405928 265.353773 453.722026 264.590642 453.722026 263.795033 
C 453.722026 262.999424 453.405928 262.236293 452.843347 261.673713 
C 452.280766 261.111132 451.517636 260.795033 450.722026 260.795033 
C 449.926417 260.795033 449.163287 261.111132 448.600706 261.673713 
C 448.038125 262.236293 447.722026 262.999424 447.722026 263.795033 
C 447.722026 264.590642 448.038125 265.353773 448.600706 265.916353 
C 449.163287 266.478934 449.926417 266.795033 450.722026 266.795033 
z
" clip-path="url(#p3b693a5157)" style="fill: #a6cee3; stroke: #ffffff; stroke-width: 0.48"/>
    <path d="M 457.99848 268.580976 
C 458.794089 268.580976 459.557219 268.264877 460.1198 267.702296 
C 460.682381 267.139716 460.99848 266.376585 460.99848 265.580976 
C 460.99848 264.785367 460.682381 264.022236 460.1198 263.459656 
C 459.557219 262.897075 458.794089 262.580976 457.99848 262.580976 
C 457.20287 262.580976 456.43974 262.897075 455.877159 263.459656 
C 455.314579 264.022236 454.99848 264.785367 454.99848 265.580976 
C 454.99848 266.376585 455.314579 267.139716 455.877159 267.702296 
C 456.43974 268.264877 457.20287 268.580976 457.99848 268.580976 
z
" clip-path="url(#p3b693a5157)" style="fill: #a6cee3; stroke: #ffffff; stroke-width: 0.48"/>
    <path d="M 465.274933 270.046263 
C 466.070542 270.046263 466.833673 269.730164 467.396253 269.167583 
C 467.958834 268.605003 468.274933 267.841872 468.274933 267.046263 
C 468.274933 266.250654 467.958834 265.487523 467.396253 264.924943 
C 466.833673 264.362362 466.070542 264.046263 465.274933 264.046263 
C 464.479324 264.046263 463.716193 264.362362 463.153613 264.924943 
C 462.591032 265.487523 462.274933 266.250654 462.274933 267.046263 
C 462.274933 267.841872 462.591032 268.605003 463.153613 269.167583 
C 463.716193 269.730164 464.479324 270.046263 465.274933 270.046263 
z
" clip-path="url(#p3b693a5157)" style="fill: #a6cee3; stroke: #ffffff; stroke-width: 0.48"/>
    <path d="M 472.551386 271.430987 
C 473.346996 271.430987 474.110126 271.114888 474.672707 270.552307 
C 475.235287 269.989727 475.551386 269.226596 475.551386 268.430987 
C 475.551386 267.635378 475.235287 266.872247 474.672707 266.309667 
C 474.110126 265.747086 473.346996 265.430987 472.551386 265.430987 
C 471.755777 265.430987 470.992647 265.747086 470.430066 266.309667 
C 469.867485 266.872247 469.551386 267.635378 469.551386 268.430987 
C 469.551386 269.226596 469.867485 269.989727 470.430066 270.552307 
C 470.992647 271.114888 471.755777 271.430987 472.551386 271.430987 
z
" clip-path="url(#p3b693a5157)" style="fill: #a6cee3; stroke: #ffffff; stroke-width: 0.48"/>
    <path d="M 479.82784 272.642621 
C 480.623449 272.642621 481.386579 272.326522 481.94916 271.763941 
C 482.511741 271.20136 482.82784 270.43823 482.82784 269.642621 
C 482.82784 268.847011 482.511741 268.083881 481.94916 267.5213 
C 481.386579 266.95872 480.623449 266.642621 479.82784 266.642621 
C 479.03223 266.642621 478.2691 266.95872 477.706519 267.5213 
C 477.143939 268.083881 476.82784 268.847011 476.82784 269.642621 
C 476.82784 270.43823 477.143939 271.20136 477.706519 271.763941 
C 478.2691 272.326522 479.03223 272.642621 479.82784 272.642621 
z
" clip-path="url(#p3b693a5157)" style="fill: #a6cee3; stroke: #ffffff; stroke-width: 0.48"/>
   </g>
   <g id="PathCollection_2"/>
   <g id="PathCollection_3"/>
   <g id="line2d_50">
    <path d="M 166.940347 25.182982 
L 174.2168 33.305474 
L 181.493253 41.238922 
L 188.769707 49.321531 
L 196.04616 57.335542 
L 203.322613 65.389435 
L 210.599067 73.571751 
L 217.87552 81.571404 
L 225.151973 89.63806 
L 232.428427 97.731038 
L 239.70488 105.773765 
L 246.981333 113.646591 
L 254.257787 121.489107 
L 261.53424 129.284561 
L 268.810693 137.050502 
L 276.087147 144.808467 
L 283.3636 152.465928 
L 290.640053 159.891271 
L 297.916507 166.129709 
L 305.19296 171.509074 
L 312.469413 176.982563 
L 319.745867 182.829353 
L 327.02232 188.702466 
L 334.298773 194.550054 
L 341.575226 200.230135 
L 348.85168 206.463786 
L 356.128133 213.913059 
L 363.404586 222.264477 
L 370.68104 230.547297 
L 377.957493 235.567719 
L 385.233946 239.008791 
L 392.5104 242.47778 
L 399.786853 245.76969 
L 407.063306 249.039266 
L 414.33976 251.949101 
L 421.616213 254.753646 
L 428.892666 257.36835 
L 436.16912 259.500474 
L 443.445573 261.702791 
L 450.722026 263.795033 
L 457.99848 265.580976 
L 465.274933 267.046263 
L 472.551386 268.430987 
L 479.82784 269.642621 
" clip-path="url(#p3b693a5157)" style="fill: none; stroke: #808080; stroke-linecap: round"/>
   </g>
   <g id="line2d_51">
    <path d="M 167.013111 72.287531 
L 181.493253 72.287531 
L 196.04616 72.33539 
L 210.599067 72.064188 
L 225.151973 71.824893 
L 239.70488 71.713221 
L 254.257787 71.434043 
L 261.53424 71.39416 
L 268.737929 71.099029 
L 276.087147 70.827827 
L 283.290835 70.325307 
L 290.640053 69.368124 
L 297.916507 68.147716 
L 312.469413 66.257281 
L 319.818631 65.38784 
L 327.02232 64.550305 
L 334.371538 63.640982 
L 341.575226 62.715705 
L 348.778915 62.237114 
L 356.128133 62.077584 
L 363.331822 61.551133 
L 370.608275 60.61788 
L 377.957493 59.740463 
L 385.233946 58.878998 
L 399.786853 58.934834 
L 414.33976 60.928964 
L 428.819902 63.936113 
L 443.445573 70.779968 
L 450.722026 78.501241 
L 458.071244 125.060196 
L 472.478622 127.118138 
L 479.82784 126.336439 
L 487.031529 127.253739 
L 494.307982 126.99849 
L 487.104293 127.094209 
L 479.900604 126.711336 
L 472.551386 126.089167 
L 465.347698 126.200838 
L 457.99848 122.930464 
L 450.576497 114.890131 
L 443.372809 103.79479 
L 436.16912 101.114679 
L 428.819902 96.82331 
L 421.688978 90.258633 
L 414.266995 63.226203 
L 407.063306 59.72451 
L 399.786853 58.703515 
" clip-path="url(#p3b693a5157)" style="fill: none; stroke: #808080; stroke-linecap: round"/>
   </g>
   <g id="patch_3">
    <path d="M 65.07 312.66 
L 65.07 12.96 
" style="fill: none; stroke: #ffffff; stroke-width: 1.25; stroke-linejoin: miter; stroke-linecap: square"/>
   </g>
   <g id="patch_4">
    <path d="M 65.07 312.66 
L 510.676364 312.66 
" style="fill: none; stroke: #ffffff; stroke-width: 1.25; stroke-linejoin: miter; stroke-linecap: square"/>
   </g>
   <g id="legend_1">
    <g id="patch_5">
     <path d="M 400.53027 52.879688 
L 502.976364 52.879688 
Q 505.176364 52.879688 505.176364 50.679688 
L 505.176364 20.66 
Q 505.176364 18.46 502.976364 18.46 
L 400.53027 18.46 
Q 398.33027 18.46 398.33027 20.66 
L 398.33027 50.679688 
Q 398.33027 52.879688 400.53027 52.879688 
z
" style="fill: #eaeaf2; opacity: 0.8; stroke: #cccccc; stroke-linejoin: miter"/>
    </g>
    <g id="PathCollection_4">
     <defs>
      <path id="ma91d13a153" d="M 0 3 
C 0.795609 3 1.55874 2.683901 2.12132 2.12132 
C 2.683901 1.55874 3 0.795609 3 0 
C 3 -0.795609 2.683901 -1.55874 2.12132 -2.12132 
C 1.55874 -2.683901 0.795609 -3 0 -3 
C -0.795609 -3 -1.55874 -2.683901 -2.12132 -2.12132 
C -2.683901 -1.55874 -3 -0.795609 -3 0 
C -3 0.795609 -2.683901 1.55874 -2.12132 2.12132 
C -1.55874 2.683901 -0.795609 3 0 3 
z
" style="stroke: #a6cee3"/>
     </defs>
     <g>
      <use xlink:href="#ma91d13a153" x="413.73027" y="27.846094" style="fill: #a6cee3; stroke: #a6cee3"/>
     </g>
    </g>
    <g id="text_52">
     <!-- CFD -->
     <g style="fill: #262626" transform="translate(433.53027 30.733594)scale(0.11 -0.11)">
      <defs>
       <path id="ArialMT-46" d="M 525 0 
L 525 4581 
L 3616 4581 
L 3616 4041 
L 1131 4041 
L 1131 2622 
L 3281 2622 
L 3281 2081 
L 1131 2081 
L 1131 0 
L 525 0 
z
" transform="scale(0.015625)"/>
       <path id="ArialMT-44" d="M 494 0 
L 494 4581 
L 2072 4581 
Q 2606 4581 2888 4516 
Q 3281 4425 3559 4188 
Q 3922 3881 4101 3404 
Q 4281 2928 4281 2316 
Q 4281 1794 4159 1391 
Q 4038 988 3847 723 
Q 3656 459 3429 307 
Q 3203 156 2883 78 
Q 2563 0 2147 0 
L 494 0 
z
M 1100 541 
L 2078 541 
Q 2531 541 2789 625 
Q 3047 709 3200 863 
Q 3416 1078 3536 1442 
Q 3656 1806 3656 2325 
Q 3656 3044 3420 3430 
Q 3184 3816 2847 3947 
Q 2603 4041 2063 4041 
L 1100 4041 
L 1100 541 
z
" transform="scale(0.015625)"/>
      </defs>
      <use xlink:href="#ArialMT-43"/>
      <use xlink:href="#ArialMT-46" x="72.216797"/>
      <use xlink:href="#ArialMT-44" x="133.300781"/>
     </g>
    </g>
    <g id="PathCollection_5">
     <defs>
      <path id="m2eb766cff9" d="M -1.5 3 
L 0 1.5 
L 1.5 3 
L 3 1.5 
L 1.5 0 
L 3 -1.5 
L 1.5 -3 
L 0 -1.5 
L -1.5 -3 
L -3 -1.5 
L -1.5 0 
L -3 1.5 
z
" style="stroke: #1f78b4"/>
     </defs>
     <g>
      <use xlink:href="#m2eb766cff9" x="413.73027" y="43.405938" style="fill: #1f78b4; stroke: #1f78b4"/>
     </g>
    </g>
    <g id="text_53">
     <!-- Measurement -->
     <g style="fill: #262626" transform="translate(433.53027 46.293438)scale(0.11 -0.11)">
      <defs>
       <path id="ArialMT-4d" d="M 475 0 
L 475 4581 
L 1388 4581 
L 2472 1338 
Q 2622 884 2691 659 
Q 2769 909 2934 1394 
L 4031 4581 
L 4847 4581 
L 4847 0 
L 4263 0 
L 4263 3834 
L 2931 0 
L 2384 0 
L 1059 3900 
L 1059 0 
L 475 0 
z
" transform="scale(0.015625)"/>
       <path id="ArialMT-65" d="M 2694 1069 
L 3275 997 
Q 3138 488 2766 206 
Q 2394 -75 1816 -75 
Q 1088 -75 661 373 
Q 234 822 234 1631 
Q 234 2469 665 2931 
Q 1097 3394 1784 3394 
Q 2450 3394 2872 2941 
Q 3294 2488 3294 1666 
Q 3294 1616 3291 1516 
L 816 1516 
Q 847 969 1125 678 
Q 1403 388 1819 388 
Q 2128 388 2347 550 
Q 2566 713 2694 1069 
z
M 847 1978 
L 2700 1978 
Q 2663 2397 2488 2606 
Q 2219 2931 1791 2931 
Q 1403 2931 1139 2672 
Q 875 2413 847 1978 
z
" transform="scale(0.015625)"/>
       <path id="ArialMT-61" d="M 2588 409 
Q 2275 144 1986 34 
Q 1697 -75 1366 -75 
Q 819 -75 525 192 
Q 231 459 231 875 
Q 231 1119 342 1320 
Q 453 1522 633 1644 
Q 813 1766 1038 1828 
Q 1203 1872 1538 1913 
Q 2219 1994 2541 2106 
Q 2544 2222 2544 2253 
Q 2544 2597 2384 2738 
Q 2169 2928 1744 2928 
Q 1347 2928 1158 2789 
Q 969 2650 878 2297 
L 328 2372 
Q 403 2725 575 2942 
Q 747 3159 1072 3276 
Q 1397 3394 1825 3394 
Q 2250 3394 2515 3294 
Q 2781 3194 2906 3042 
Q 3031 2891 3081 2659 
Q 3109 2516 3109 2141 
L 3109 1391 
Q 3109 606 3145 398 
Q 3181 191 3288 0 
L 2700 0 
Q 2613 175 2588 409 
z
M 2541 1666 
Q 2234 1541 1622 1453 
Q 1275 1403 1131 1340 
Q 988 1278 909 1158 
Q 831 1038 831 891 
Q 831 666 1001 516 
Q 1172 366 1500 366 
Q 1825 366 2078 508 
Q 2331 650 2450 897 
Q 2541 1088 2541 1459 
L 2541 1666 
z
" transform="scale(0.015625)"/>
       <path id="ArialMT-73" d="M 197 991 
L 753 1078 
Q 800 744 1014 566 
Q 1228 388 1613 388 
Q 2000 388 2187 545 
Q 2375 703 2375 916 
Q 2375 1106 2209 1216 
Q 2094 1291 1634 1406 
Q 1016 1563 777 1677 
Q 538 1791 414 1992 
Q 291 2194 291 2438 
Q 291 2659 392 2848 
Q 494 3038 669 3163 
Q 800 3259 1026 3326 
Q 1253 3394 1513 3394 
Q 1903 3394 2198 3281 
Q 2494 3169 2634 2976 
Q 2775 2784 2828 2463 
L 2278 2388 
Q 2241 2644 2061 2787 
Q 1881 2931 1553 2931 
Q 1166 2931 1000 2803 
Q 834 2675 834 2503 
Q 834 2394 903 2306 
Q 972 2216 1119 2156 
Q 1203 2125 1616 2013 
Q 2213 1853 2448 1751 
Q 2684 1650 2818 1456 
Q 2953 1263 2953 975 
Q 2953 694 2789 445 
Q 2625 197 2315 61 
Q 2006 -75 1616 -75 
Q 969 -75 630 194 
Q 291 463 197 991 
z
" transform="scale(0.015625)"/>
       <path id="ArialMT-75" d="M 2597 0 
L 2597 488 
Q 2209 -75 1544 -75 
Q 1250 -75 995 37 
Q 741 150 617 320 
Q 494 491 444 738 
Q 409 903 409 1263 
L 409 3319 
L 972 3319 
L 972 1478 
Q 972 1038 1006 884 
Q 1059 663 1231 536 
Q 1403 409 1656 409 
Q 1909 409 2131 539 
Q 2353 669 2445 892 
Q 2538 1116 2538 1541 
L 2538 3319 
L 3100 3319 
L 3100 0 
L 2597 0 
z
" transform="scale(0.015625)"/>
       <path id="ArialMT-72" d="M 416 0 
L 416 3319 
L 922 3319 
L 922 2816 
Q 1116 3169 1280 3281 
Q 1444 3394 1641 3394 
Q 1925 3394 2219 3213 
L 2025 2691 
Q 1819 2813 1613 2813 
Q 1428 2813 1281 2702 
Q 1134 2591 1072 2394 
Q 978 2094 978 1738 
L 978 0 
L 416 0 
z
" transform="scale(0.015625)"/>
       <path id="ArialMT-6e" d="M 422 0 
L 422 3319 
L 928 3319 
L 928 2847 
Q 1294 3394 1984 3394 
Q 2284 3394 2536 3286 
Q 2788 3178 2913 3003 
Q 3038 2828 3088 2588 
Q 3119 2431 3119 2041 
L 3119 0 
L 2556 0 
L 2556 2019 
Q 2556 2363 2490 2533 
Q 2425 2703 2258 2804 
Q 2091 2906 1866 2906 
Q 1506 2906 1245 2678 
Q 984 2450 984 1813 
L 984 0 
L 422 0 
z
" transform="scale(0.015625)"/>
       <path id="ArialMT-74" d="M 1650 503 
L 1731 6 
Q 1494 -44 1306 -44 
Q 1000 -44 831 53 
Q 663 150 594 308 
Q 525 466 525 972 
L 525 2881 
L 113 2881 
L 113 3319 
L 525 3319 
L 525 4141 
L 1084 4478 
L 1084 3319 
L 1650 3319 
L 1650 2881 
L 1084 2881 
L 1084 941 
Q 1084 700 1114 631 
Q 1144 563 1211 522 
Q 1278 481 1403 481 
Q 1497 481 1650 503 
z
" transform="scale(0.015625)"/>
      </defs>
      <use xlink:href="#ArialMT-4d"/>
      <use xlink:href="#ArialMT-65" x="83.300781"/>
      <use xlink:href="#ArialMT-61" x="138.916016"/>
      <use xlink:href="#ArialMT-73" x="194.53125"/>
      <use xlink:href="#ArialMT-75" x="244.53125"/>
      <use xlink:href="#ArialMT-72" x="300.146484"/>
      <use xlink:href="#ArialMT-65" x="333.447266"/>
      <use xlink:href="#ArialMT-6d" x="389.0625"/>
      <use xlink:href="#ArialMT-65" x="472.363281"/>
      <use xlink:href="#ArialMT-6e" x="527.978516"/>
      <use xlink:href="#ArialMT-74" x="583.59375"/>
     </g>
    </g>
   </g>
  </g>
 </g>
 <defs>
  <clipPath id="p3b693a5157">
   <rect x="65.07" y="12.96" width="445.606364" height="299.7"/>
  </clipPath>
 </defs>
</svg>
