<?xml version="1.0" encoding="utf-8" standalone="no"?>
<!DOCTYPE svg PUBLIC "-//W3C//DTD SVG 1.1//EN"
  "http://www.w3.org/Graphics/SVG/1.1/DTD/svg11.dtd">
<svg xmlns:xlink="http://www.w3.org/1999/xlink" width="523.636364pt" height="360pt" viewBox="0 0 523.636364 360" xmlns="http://www.w3.org/2000/svg" version="1.1">
 <metadata>
  <rdf:RDF xmlns:dc="http://purl.org/dc/elements/1.1/" xmlns:cc="http://creativecommons.org/ns#" xmlns:rdf="http://www.w3.org/1999/02/22-rdf-syntax-ns#">
   <cc:Work>
    <dc:type rdf:resource="http://purl.org/dc/dcmitype/StillImage"/>
    <dc:date>2022-12-19T07:20:03.872200</dc:date>
    <dc:format>image/svg+xml</dc:format>
    <dc:creator>
     <cc:Agent>
      <dc:title>Matplotlib v3.5.2, https://matplotlib.org/</dc:title>
     </cc:Agent>
    </dc:creator>
   </cc:Work>
  </rdf:RDF>
 </metadata>
 <defs>
  <style type="text/css">*{stroke-linejoin: round; stroke-linecap: butt}</style>
 </defs>
 <g id="figure_1">
  <g id="patch_1">
   <path d="M 0 360 
L 523.636364 360 
L 523.636364 0 
L 0 0 
z
" style="fill: #ffffff"/>
  </g>
  <g id="axes_1">
   <g id="patch_2">
    <path d="M 58.77 312.66 
L 510.676364 312.66 
L 510.676364 12.96 
L 58.77 12.96 
z
" style="fill: #eaeaf2"/>
   </g>
   <g id="matplotlib.axis_1">
    <g id="xtick_1">
     <g id="line2d_1">
      <path d="M 58.77 312.66 
L 58.77 12.96 
" clip-path="url(#p5f33b0a583)" style="fill: none; stroke: #ffffff; stroke-linecap: round"/>
     </g>
     <g id="text_1">
      <!-- −10 -->
      <g style="fill: #262626" transform="translate(49.440625 330.033594)scale(0.11 -0.11)">
       <defs>
        <path id="ArialMT-2212" d="M 3381 1997 
L 356 1997 
L 356 2522 
L 3381 2522 
L 3381 1997 
z
" transform="scale(0.015625)"/>
        <path id="ArialMT-31" d="M 2384 0 
L 1822 0 
L 1822 3584 
Q 1619 3391 1289 3197 
Q 959 3003 697 2906 
L 697 3450 
Q 1169 3672 1522 3987 
Q 1875 4303 2022 4600 
L 2384 4600 
L 2384 0 
z
" transform="scale(0.015625)"/>
        <path id="ArialMT-30" d="M 266 2259 
Q 266 3072 433 3567 
Q 600 4063 929 4331 
Q 1259 4600 1759 4600 
Q 2128 4600 2406 4451 
Q 2684 4303 2865 4023 
Q 3047 3744 3150 3342 
Q 3253 2941 3253 2259 
Q 3253 1453 3087 958 
Q 2922 463 2592 192 
Q 2263 -78 1759 -78 
Q 1097 -78 719 397 
Q 266 969 266 2259 
z
M 844 2259 
Q 844 1131 1108 757 
Q 1372 384 1759 384 
Q 2147 384 2411 759 
Q 2675 1134 2675 2259 
Q 2675 3391 2411 3762 
Q 2147 4134 1753 4134 
Q 1366 4134 1134 3806 
Q 844 3388 844 2259 
z
" transform="scale(0.015625)"/>
       </defs>
       <use xlink:href="#ArialMT-2212"/>
       <use xlink:href="#ArialMT-31" x="58.398438"/>
       <use xlink:href="#ArialMT-30" x="114.013672"/>
      </g>
     </g>
    </g>
    <g id="xtick_2">
     <g id="line2d_2">
      <path d="M 74.050012 312.66 
L 74.050012 12.96 
" clip-path="url(#p5f33b0a583)" style="fill: none; stroke: #ffffff; stroke-linecap: round"/>
     </g>
     <g id="text_2">
      <!-- −9 -->
      <g style="fill: #262626" transform="translate(67.779153 330.033594)scale(0.11 -0.11)">
       <defs>
        <path id="ArialMT-39" d="M 350 1059 
L 891 1109 
Q 959 728 1153 556 
Q 1347 384 1650 384 
Q 1909 384 2104 503 
Q 2300 622 2425 820 
Q 2550 1019 2634 1356 
Q 2719 1694 2719 2044 
Q 2719 2081 2716 2156 
Q 2547 1888 2255 1720 
Q 1963 1553 1622 1553 
Q 1053 1553 659 1965 
Q 266 2378 266 3053 
Q 266 3750 677 4175 
Q 1088 4600 1706 4600 
Q 2153 4600 2523 4359 
Q 2894 4119 3086 3673 
Q 3278 3228 3278 2384 
Q 3278 1506 3087 986 
Q 2897 466 2520 194 
Q 2144 -78 1638 -78 
Q 1100 -78 759 220 
Q 419 519 350 1059 
z
M 2653 3081 
Q 2653 3566 2395 3850 
Q 2138 4134 1775 4134 
Q 1400 4134 1122 3828 
Q 844 3522 844 3034 
Q 844 2597 1108 2323 
Q 1372 2050 1759 2050 
Q 2150 2050 2401 2323 
Q 2653 2597 2653 3081 
z
" transform="scale(0.015625)"/>
       </defs>
       <use xlink:href="#ArialMT-2212"/>
       <use xlink:href="#ArialMT-39" x="58.398438"/>
      </g>
     </g>
    </g>
    <g id="xtick_3">
     <g id="line2d_3">
      <path d="M 89.330025 312.66 
L 89.330025 12.96 
" clip-path="url(#p5f33b0a583)" style="fill: none; stroke: #ffffff; stroke-linecap: round"/>
     </g>
     <g id="text_3">
      <!-- −8 -->
      <g style="fill: #262626" transform="translate(83.059165 330.033594)scale(0.11 -0.11)">
       <defs>
        <path id="ArialMT-38" d="M 1131 2484 
Q 781 2613 612 2850 
Q 444 3088 444 3419 
Q 444 3919 803 4259 
Q 1163 4600 1759 4600 
Q 2359 4600 2725 4251 
Q 3091 3903 3091 3403 
Q 3091 3084 2923 2848 
Q 2756 2613 2416 2484 
Q 2838 2347 3058 2040 
Q 3278 1734 3278 1309 
Q 3278 722 2862 322 
Q 2447 -78 1769 -78 
Q 1091 -78 675 323 
Q 259 725 259 1325 
Q 259 1772 486 2073 
Q 713 2375 1131 2484 
z
M 1019 3438 
Q 1019 3113 1228 2906 
Q 1438 2700 1772 2700 
Q 2097 2700 2305 2904 
Q 2513 3109 2513 3406 
Q 2513 3716 2298 3927 
Q 2084 4138 1766 4138 
Q 1444 4138 1231 3931 
Q 1019 3725 1019 3438 
z
M 838 1322 
Q 838 1081 952 856 
Q 1066 631 1291 507 
Q 1516 384 1775 384 
Q 2178 384 2440 643 
Q 2703 903 2703 1303 
Q 2703 1709 2433 1975 
Q 2163 2241 1756 2241 
Q 1359 2241 1098 1978 
Q 838 1716 838 1322 
z
" transform="scale(0.015625)"/>
       </defs>
       <use xlink:href="#ArialMT-2212"/>
       <use xlink:href="#ArialMT-38" x="58.398438"/>
      </g>
     </g>
    </g>
    <g id="xtick_4">
     <g id="line2d_4">
      <path d="M 104.610037 312.66 
L 104.610037 12.96 
" clip-path="url(#p5f33b0a583)" style="fill: none; stroke: #ffffff; stroke-linecap: round"/>
     </g>
     <g id="text_4">
      <!-- −7 -->
      <g style="fill: #262626" transform="translate(98.339178 330.033594)scale(0.11 -0.11)">
       <defs>
        <path id="ArialMT-37" d="M 303 3981 
L 303 4522 
L 3269 4522 
L 3269 4084 
Q 2831 3619 2401 2847 
Q 1972 2075 1738 1259 
Q 1569 684 1522 0 
L 944 0 
Q 953 541 1156 1306 
Q 1359 2072 1739 2783 
Q 2119 3494 2547 3981 
L 303 3981 
z
" transform="scale(0.015625)"/>
       </defs>
       <use xlink:href="#ArialMT-2212"/>
       <use xlink:href="#ArialMT-37" x="58.398438"/>
      </g>
     </g>
    </g>
    <g id="xtick_5">
     <g id="line2d_5">
      <path d="M 119.890049 312.66 
L 119.890049 12.96 
" clip-path="url(#p5f33b0a583)" style="fill: none; stroke: #ffffff; stroke-linecap: round"/>
     </g>
     <g id="text_5">
      <!-- −6 -->
      <g style="fill: #262626" transform="translate(113.61919 330.033594)scale(0.11 -0.11)">
       <defs>
        <path id="ArialMT-36" d="M 3184 3459 
L 2625 3416 
Q 2550 3747 2413 3897 
Q 2184 4138 1850 4138 
Q 1581 4138 1378 3988 
Q 1113 3794 959 3422 
Q 806 3050 800 2363 
Q 1003 2672 1297 2822 
Q 1591 2972 1913 2972 
Q 2475 2972 2870 2558 
Q 3266 2144 3266 1488 
Q 3266 1056 3080 686 
Q 2894 316 2569 119 
Q 2244 -78 1831 -78 
Q 1128 -78 684 439 
Q 241 956 241 2144 
Q 241 3472 731 4075 
Q 1159 4600 1884 4600 
Q 2425 4600 2770 4297 
Q 3116 3994 3184 3459 
z
M 888 1484 
Q 888 1194 1011 928 
Q 1134 663 1356 523 
Q 1578 384 1822 384 
Q 2178 384 2434 671 
Q 2691 959 2691 1453 
Q 2691 1928 2437 2201 
Q 2184 2475 1800 2475 
Q 1419 2475 1153 2201 
Q 888 1928 888 1484 
z
" transform="scale(0.015625)"/>
       </defs>
       <use xlink:href="#ArialMT-2212"/>
       <use xlink:href="#ArialMT-36" x="58.398438"/>
      </g>
     </g>
    </g>
    <g id="xtick_6">
     <g id="line2d_6">
      <path d="M 135.170061 312.66 
L 135.170061 12.96 
" clip-path="url(#p5f33b0a583)" style="fill: none; stroke: #ffffff; stroke-linecap: round"/>
     </g>
     <g id="text_6">
      <!-- −5 -->
      <g style="fill: #262626" transform="translate(128.899202 330.033594)scale(0.11 -0.11)">
       <defs>
        <path id="ArialMT-35" d="M 266 1200 
L 856 1250 
Q 922 819 1161 601 
Q 1400 384 1738 384 
Q 2144 384 2425 690 
Q 2706 997 2706 1503 
Q 2706 1984 2436 2262 
Q 2166 2541 1728 2541 
Q 1456 2541 1237 2417 
Q 1019 2294 894 2097 
L 366 2166 
L 809 4519 
L 3088 4519 
L 3088 3981 
L 1259 3981 
L 1013 2750 
Q 1425 3038 1878 3038 
Q 2478 3038 2890 2622 
Q 3303 2206 3303 1553 
Q 3303 931 2941 478 
Q 2500 -78 1738 -78 
Q 1113 -78 717 272 
Q 322 622 266 1200 
z
" transform="scale(0.015625)"/>
       </defs>
       <use xlink:href="#ArialMT-2212"/>
       <use xlink:href="#ArialMT-35" x="58.398438"/>
      </g>
     </g>
    </g>
    <g id="xtick_7">
     <g id="line2d_7">
      <path d="M 150.450074 312.66 
L 150.450074 12.96 
" clip-path="url(#p5f33b0a583)" style="fill: none; stroke: #ffffff; stroke-linecap: round"/>
     </g>
     <g id="text_7">
      <!-- −4 -->
      <g style="fill: #262626" transform="translate(144.179214 330.033594)scale(0.11 -0.11)">
       <defs>
        <path id="ArialMT-34" d="M 2069 0 
L 2069 1097 
L 81 1097 
L 81 1613 
L 2172 4581 
L 2631 4581 
L 2631 1613 
L 3250 1613 
L 3250 1097 
L 2631 1097 
L 2631 0 
L 2069 0 
z
M 2069 1613 
L 2069 3678 
L 634 1613 
L 2069 1613 
z
" transform="scale(0.015625)"/>
       </defs>
       <use xlink:href="#ArialMT-2212"/>
       <use xlink:href="#ArialMT-34" x="58.398438"/>
      </g>
     </g>
    </g>
    <g id="xtick_8">
     <g id="line2d_8">
      <path d="M 165.730086 312.66 
L 165.730086 12.96 
" clip-path="url(#p5f33b0a583)" style="fill: none; stroke: #ffffff; stroke-linecap: round"/>
     </g>
     <g id="text_8">
      <!-- −3 -->
      <g style="fill: #262626" transform="translate(159.459227 330.033594)scale(0.11 -0.11)">
       <defs>
        <path id="ArialMT-33" d="M 269 1209 
L 831 1284 
Q 928 806 1161 595 
Q 1394 384 1728 384 
Q 2125 384 2398 659 
Q 2672 934 2672 1341 
Q 2672 1728 2419 1979 
Q 2166 2231 1775 2231 
Q 1616 2231 1378 2169 
L 1441 2663 
Q 1497 2656 1531 2656 
Q 1891 2656 2178 2843 
Q 2466 3031 2466 3422 
Q 2466 3731 2256 3934 
Q 2047 4138 1716 4138 
Q 1388 4138 1169 3931 
Q 950 3725 888 3313 
L 325 3413 
Q 428 3978 793 4289 
Q 1159 4600 1703 4600 
Q 2078 4600 2393 4439 
Q 2709 4278 2876 4000 
Q 3044 3722 3044 3409 
Q 3044 3113 2884 2869 
Q 2725 2625 2413 2481 
Q 2819 2388 3044 2092 
Q 3269 1797 3269 1353 
Q 3269 753 2831 336 
Q 2394 -81 1725 -81 
Q 1122 -81 723 278 
Q 325 638 269 1209 
z
" transform="scale(0.015625)"/>
       </defs>
       <use xlink:href="#ArialMT-2212"/>
       <use xlink:href="#ArialMT-33" x="58.398438"/>
      </g>
     </g>
    </g>
    <g id="xtick_9">
     <g id="line2d_9">
      <path d="M 181.010098 312.66 
L 181.010098 12.96 
" clip-path="url(#p5f33b0a583)" style="fill: none; stroke: #ffffff; stroke-linecap: round"/>
     </g>
     <g id="text_9">
      <!-- −2 -->
      <g style="fill: #262626" transform="translate(174.739239 330.033594)scale(0.11 -0.11)">
       <defs>
        <path id="ArialMT-32" d="M 3222 541 
L 3222 0 
L 194 0 
Q 188 203 259 391 
Q 375 700 629 1000 
Q 884 1300 1366 1694 
Q 2113 2306 2375 2664 
Q 2638 3022 2638 3341 
Q 2638 3675 2398 3904 
Q 2159 4134 1775 4134 
Q 1369 4134 1125 3890 
Q 881 3647 878 3216 
L 300 3275 
Q 359 3922 746 4261 
Q 1134 4600 1788 4600 
Q 2447 4600 2831 4234 
Q 3216 3869 3216 3328 
Q 3216 3053 3103 2787 
Q 2991 2522 2730 2228 
Q 2469 1934 1863 1422 
Q 1356 997 1212 845 
Q 1069 694 975 541 
L 3222 541 
z
" transform="scale(0.015625)"/>
       </defs>
       <use xlink:href="#ArialMT-2212"/>
       <use xlink:href="#ArialMT-32" x="58.398438"/>
      </g>
     </g>
    </g>
    <g id="xtick_10">
     <g id="line2d_10">
      <path d="M 196.290111 312.66 
L 196.290111 12.96 
" clip-path="url(#p5f33b0a583)" style="fill: none; stroke: #ffffff; stroke-linecap: round"/>
     </g>
     <g id="text_10">
      <!-- −1 -->
      <g style="fill: #262626" transform="translate(190.019251 330.033594)scale(0.11 -0.11)">
       <use xlink:href="#ArialMT-2212"/>
       <use xlink:href="#ArialMT-31" x="58.398438"/>
      </g>
     </g>
    </g>
    <g id="xtick_11">
     <g id="line2d_11">
      <path d="M 211.570123 312.66 
L 211.570123 12.96 
" clip-path="url(#p5f33b0a583)" style="fill: none; stroke: #ffffff; stroke-linecap: round"/>
     </g>
     <g id="text_11">
      <!-- 0 -->
      <g style="fill: #262626" transform="translate(208.511607 330.033594)scale(0.11 -0.11)">
       <use xlink:href="#ArialMT-30"/>
      </g>
     </g>
    </g>
    <g id="xtick_12">
     <g id="line2d_12">
      <path d="M 226.850135 312.66 
L 226.850135 12.96 
" clip-path="url(#p5f33b0a583)" style="fill: none; stroke: #ffffff; stroke-linecap: round"/>
     </g>
     <g id="text_12">
      <!-- 1 -->
      <g style="fill: #262626" transform="translate(223.79162 330.033594)scale(0.11 -0.11)">
       <use xlink:href="#ArialMT-31"/>
      </g>
     </g>
    </g>
    <g id="xtick_13">
     <g id="line2d_13">
      <path d="M 242.130148 312.66 
L 242.130148 12.96 
" clip-path="url(#p5f33b0a583)" style="fill: none; stroke: #ffffff; stroke-linecap: round"/>
     </g>
     <g id="text_13">
      <!-- 2 -->
      <g style="fill: #262626" transform="translate(239.071632 330.033594)scale(0.11 -0.11)">
       <use xlink:href="#ArialMT-32"/>
      </g>
     </g>
    </g>
    <g id="xtick_14">
     <g id="line2d_14">
      <path d="M 257.41016 312.66 
L 257.41016 12.96 
" clip-path="url(#p5f33b0a583)" style="fill: none; stroke: #ffffff; stroke-linecap: round"/>
     </g>
     <g id="text_14">
      <!-- 3 -->
      <g style="fill: #262626" transform="translate(254.351644 330.033594)scale(0.11 -0.11)">
       <use xlink:href="#ArialMT-33"/>
      </g>
     </g>
    </g>
    <g id="xtick_15">
     <g id="line2d_15">
      <path d="M 272.690172 312.66 
L 272.690172 12.96 
" clip-path="url(#p5f33b0a583)" style="fill: none; stroke: #ffffff; stroke-linecap: round"/>
     </g>
     <g id="text_15">
      <!-- 4 -->
      <g style="fill: #262626" transform="translate(269.631657 330.033594)scale(0.11 -0.11)">
       <use xlink:href="#ArialMT-34"/>
      </g>
     </g>
    </g>
    <g id="xtick_16">
     <g id="line2d_16">
      <path d="M 287.970184 312.66 
L 287.970184 12.96 
" clip-path="url(#p5f33b0a583)" style="fill: none; stroke: #ffffff; stroke-linecap: round"/>
     </g>
     <g id="text_16">
      <!-- 5 -->
      <g style="fill: #262626" transform="translate(284.911669 330.033594)scale(0.11 -0.11)">
       <use xlink:href="#ArialMT-35"/>
      </g>
     </g>
    </g>
    <g id="xtick_17">
     <g id="line2d_17">
      <path d="M 303.250197 312.66 
L 303.250197 12.96 
" clip-path="url(#p5f33b0a583)" style="fill: none; stroke: #ffffff; stroke-linecap: round"/>
     </g>
     <g id="text_17">
      <!-- 6 -->
      <g style="fill: #262626" transform="translate(300.191681 330.033594)scale(0.11 -0.11)">
       <use xlink:href="#ArialMT-36"/>
      </g>
     </g>
    </g>
    <g id="xtick_18">
     <g id="line2d_18">
      <path d="M 318.530209 312.66 
L 318.530209 12.96 
" clip-path="url(#p5f33b0a583)" style="fill: none; stroke: #ffffff; stroke-linecap: round"/>
     </g>
     <g id="text_18">
      <!-- 7 -->
      <g style="fill: #262626" transform="translate(315.471693 330.033594)scale(0.11 -0.11)">
       <use xlink:href="#ArialMT-37"/>
      </g>
     </g>
    </g>
    <g id="xtick_19">
     <g id="line2d_19">
      <path d="M 333.810221 312.66 
L 333.810221 12.96 
" clip-path="url(#p5f33b0a583)" style="fill: none; stroke: #ffffff; stroke-linecap: round"/>
     </g>
     <g id="text_19">
      <!-- 8 -->
      <g style="fill: #262626" transform="translate(330.751706 330.033594)scale(0.11 -0.11)">
       <use xlink:href="#ArialMT-38"/>
      </g>
     </g>
    </g>
    <g id="xtick_20">
     <g id="line2d_20">
      <path d="M 349.090234 312.66 
L 349.090234 12.96 
" clip-path="url(#p5f33b0a583)" style="fill: none; stroke: #ffffff; stroke-linecap: round"/>
     </g>
     <g id="text_20">
      <!-- 9 -->
      <g style="fill: #262626" transform="translate(346.031718 330.033594)scale(0.11 -0.11)">
       <use xlink:href="#ArialMT-39"/>
      </g>
     </g>
    </g>
    <g id="xtick_21">
     <g id="line2d_21">
      <path d="M 364.370246 312.66 
L 364.370246 12.96 
" clip-path="url(#p5f33b0a583)" style="fill: none; stroke: #ffffff; stroke-linecap: round"/>
     </g>
     <g id="text_21">
      <!-- 10 -->
      <g style="fill: #262626" transform="translate(358.253215 330.033594)scale(0.11 -0.11)">
       <use xlink:href="#ArialMT-31"/>
       <use xlink:href="#ArialMT-30" x="55.615234"/>
      </g>
     </g>
    </g>
    <g id="xtick_22">
     <g id="line2d_22">
      <path d="M 379.650258 312.66 
L 379.650258 12.96 
" clip-path="url(#p5f33b0a583)" style="fill: none; stroke: #ffffff; stroke-linecap: round"/>
     </g>
     <g id="text_22">
      <!-- 11 -->
      <g style="fill: #262626" transform="translate(373.938852 330.033594)scale(0.11 -0.11)">
       <use xlink:href="#ArialMT-31"/>
       <use xlink:href="#ArialMT-31" x="48.240234"/>
      </g>
     </g>
    </g>
    <g id="xtick_23">
     <g id="line2d_23">
      <path d="M 394.93027 312.66 
L 394.93027 12.96 
" clip-path="url(#p5f33b0a583)" style="fill: none; stroke: #ffffff; stroke-linecap: round"/>
     </g>
     <g id="text_23">
      <!-- 12 -->
      <g style="fill: #262626" transform="translate(388.813239 330.033594)scale(0.11 -0.11)">
       <use xlink:href="#ArialMT-31"/>
       <use xlink:href="#ArialMT-32" x="55.615234"/>
      </g>
     </g>
    </g>
    <g id="xtick_24">
     <g id="line2d_24">
      <path d="M 410.210283 312.66 
L 410.210283 12.96 
" clip-path="url(#p5f33b0a583)" style="fill: none; stroke: #ffffff; stroke-linecap: round"/>
     </g>
     <g id="text_24">
      <!-- 13 -->
      <g style="fill: #262626" transform="translate(404.093252 330.033594)scale(0.11 -0.11)">
       <use xlink:href="#ArialMT-31"/>
       <use xlink:href="#ArialMT-33" x="55.615234"/>
      </g>
     </g>
    </g>
    <g id="xtick_25">
     <g id="line2d_25">
      <path d="M 425.490295 312.66 
L 425.490295 12.96 
" clip-path="url(#p5f33b0a583)" style="fill: none; stroke: #ffffff; stroke-linecap: round"/>
     </g>
     <g id="text_25">
      <!-- 14 -->
      <g style="fill: #262626" transform="translate(419.373264 330.033594)scale(0.11 -0.11)">
       <use xlink:href="#ArialMT-31"/>
       <use xlink:href="#ArialMT-34" x="55.615234"/>
      </g>
     </g>
    </g>
    <g id="xtick_26">
     <g id="line2d_26">
      <path d="M 440.770307 312.66 
L 440.770307 12.96 
" clip-path="url(#p5f33b0a583)" style="fill: none; stroke: #ffffff; stroke-linecap: round"/>
     </g>
     <g id="text_26">
      <!-- 15 -->
      <g style="fill: #262626" transform="translate(434.653276 330.033594)scale(0.11 -0.11)">
       <use xlink:href="#ArialMT-31"/>
       <use xlink:href="#ArialMT-35" x="55.615234"/>
      </g>
     </g>
    </g>
    <g id="xtick_27">
     <g id="line2d_27">
      <path d="M 456.05032 312.66 
L 456.05032 12.96 
" clip-path="url(#p5f33b0a583)" style="fill: none; stroke: #ffffff; stroke-linecap: round"/>
     </g>
     <g id="text_27">
      <!-- 16 -->
      <g style="fill: #262626" transform="translate(449.933288 330.033594)scale(0.11 -0.11)">
       <use xlink:href="#ArialMT-31"/>
       <use xlink:href="#ArialMT-36" x="55.615234"/>
      </g>
     </g>
    </g>
    <g id="xtick_28">
     <g id="line2d_28">
      <path d="M 471.330332 312.66 
L 471.330332 12.96 
" clip-path="url(#p5f33b0a583)" style="fill: none; stroke: #ffffff; stroke-linecap: round"/>
     </g>
     <g id="text_28">
      <!-- 17 -->
      <g style="fill: #262626" transform="translate(465.213301 330.033594)scale(0.11 -0.11)">
       <use xlink:href="#ArialMT-31"/>
       <use xlink:href="#ArialMT-37" x="55.615234"/>
      </g>
     </g>
    </g>
    <g id="xtick_29">
     <g id="line2d_29">
      <path d="M 486.610344 312.66 
L 486.610344 12.96 
" clip-path="url(#p5f33b0a583)" style="fill: none; stroke: #ffffff; stroke-linecap: round"/>
     </g>
     <g id="text_29">
      <!-- 18 -->
      <g style="fill: #262626" transform="translate(480.493313 330.033594)scale(0.11 -0.11)">
       <use xlink:href="#ArialMT-31"/>
       <use xlink:href="#ArialMT-38" x="55.615234"/>
      </g>
     </g>
    </g>
    <g id="xtick_30">
     <g id="line2d_30">
      <path d="M 501.890357 312.66 
L 501.890357 12.96 
" clip-path="url(#p5f33b0a583)" style="fill: none; stroke: #ffffff; stroke-linecap: round"/>
     </g>
     <g id="text_30">
      <!-- 19 -->
      <g style="fill: #262626" transform="translate(495.773325 330.033594)scale(0.11 -0.11)">
       <use xlink:href="#ArialMT-31"/>
       <use xlink:href="#ArialMT-39" x="55.615234"/>
      </g>
     </g>
    </g>
    <g id="text_31">
     <!-- α [°] -->
     <g style="fill: #262626" transform="translate(273.854744 344.955469)scale(0.12 -0.12)">
      <defs>
       <path id="ArialMT-3b1" d="M 2884 3319 
L 3459 3319 
Q 3241 2631 3056 1659 
Q 3275 453 3459 0 
L 2900 0 
Q 2766 313 2697 606 
Q 2438 -75 1613 -75 
Q 988 -75 606 394 
Q 225 863 225 1666 
Q 225 2491 608 2942 
Q 991 3394 1622 3394 
Q 2013 3394 2259 3236 
Q 2506 3078 2719 2756 
Q 2741 2866 2884 3319 
z
M 1716 2928 
Q 1313 2928 1078 2603 
Q 844 2278 844 1666 
Q 844 1069 1066 728 
Q 1288 388 1684 388 
Q 2072 388 2331 723 
Q 2591 1059 2591 1691 
Q 2591 2303 2348 2615 
Q 2106 2928 1716 2928 
z
" transform="scale(0.015625)"/>
       <path id="ArialMT-20" transform="scale(0.015625)"/>
       <path id="ArialMT-5b" d="M 434 -1272 
L 434 4581 
L 1675 4581 
L 1675 4116 
L 997 4116 
L 997 -806 
L 1675 -806 
L 1675 -1272 
L 434 -1272 
z
" transform="scale(0.015625)"/>
       <path id="ArialMT-b0" d="M 400 3794 
Q 400 4153 654 4406 
Q 909 4659 1266 4659 
Q 1628 4659 1881 4406 
Q 2134 4153 2134 3794 
Q 2134 3434 1879 3179 
Q 1625 2925 1266 2925 
Q 909 2925 654 3178 
Q 400 3431 400 3794 
z
M 741 3794 
Q 741 3575 895 3420 
Q 1050 3266 1269 3266 
Q 1484 3266 1639 3420 
Q 1794 3575 1794 3794 
Q 1794 4013 1639 4167 
Q 1484 4322 1269 4322 
Q 1050 4322 895 4167 
Q 741 4013 741 3794 
z
" transform="scale(0.015625)"/>
       <path id="ArialMT-5d" d="M 1363 -1272 
L 122 -1272 
L 122 -806 
L 800 -806 
L 800 4116 
L 122 4116 
L 122 4581 
L 1363 4581 
L 1363 -1272 
z
" transform="scale(0.015625)"/>
      </defs>
      <use xlink:href="#ArialMT-3b1"/>
      <use xlink:href="#ArialMT-20" x="57.8125"/>
      <use xlink:href="#ArialMT-5b" x="85.595703"/>
      <use xlink:href="#ArialMT-b0" x="113.378906"/>
      <use xlink:href="#ArialMT-5d" x="153.369141"/>
     </g>
    </g>
   </g>
   <g id="matplotlib.axis_2">
    <g id="ytick_1">
     <g id="line2d_31">
      <path d="M 58.77 312.66 
L 510.676364 312.66 
" clip-path="url(#p5f33b0a583)" style="fill: none; stroke: #ffffff; stroke-linecap: round"/>
     </g>
     <g id="text_32">
      <!-- −0.05 -->
      <g style="fill: #262626" transform="translate(21.438281 316.596797)scale(0.11 -0.11)">
       <defs>
        <path id="ArialMT-2e" d="M 581 0 
L 581 641 
L 1222 641 
L 1222 0 
L 581 0 
z
" transform="scale(0.015625)"/>
       </defs>
       <use xlink:href="#ArialMT-2212"/>
       <use xlink:href="#ArialMT-30" x="58.398438"/>
       <use xlink:href="#ArialMT-2e" x="114.013672"/>
       <use xlink:href="#ArialMT-30" x="141.796875"/>
       <use xlink:href="#ArialMT-35" x="197.412109"/>
      </g>
     </g>
    </g>
    <g id="ytick_2">
     <g id="line2d_32">
      <path d="M 58.77 296.886316 
L 510.676364 296.886316 
" clip-path="url(#p5f33b0a583)" style="fill: none; stroke: #ffffff; stroke-linecap: round"/>
     </g>
     <g id="text_33">
      <!-- −0.03 -->
      <g style="fill: #262626" transform="translate(21.438281 300.823113)scale(0.11 -0.11)">
       <use xlink:href="#ArialMT-2212"/>
       <use xlink:href="#ArialMT-30" x="58.398438"/>
       <use xlink:href="#ArialMT-2e" x="114.013672"/>
       <use xlink:href="#ArialMT-30" x="141.796875"/>
       <use xlink:href="#ArialMT-33" x="197.412109"/>
      </g>
     </g>
    </g>
    <g id="ytick_3">
     <g id="line2d_33">
      <path d="M 58.77 281.112632 
L 510.676364 281.112632 
" clip-path="url(#p5f33b0a583)" style="fill: none; stroke: #ffffff; stroke-linecap: round"/>
     </g>
     <g id="text_34">
      <!-- −0.01 -->
      <g style="fill: #262626" transform="translate(21.438281 285.049428)scale(0.11 -0.11)">
       <use xlink:href="#ArialMT-2212"/>
       <use xlink:href="#ArialMT-30" x="58.398438"/>
       <use xlink:href="#ArialMT-2e" x="114.013672"/>
       <use xlink:href="#ArialMT-30" x="141.796875"/>
       <use xlink:href="#ArialMT-31" x="197.412109"/>
      </g>
     </g>
    </g>
    <g id="ytick_4">
     <g id="line2d_34">
      <path d="M 58.77 265.338947 
L 510.676364 265.338947 
" clip-path="url(#p5f33b0a583)" style="fill: none; stroke: #ffffff; stroke-linecap: round"/>
     </g>
     <g id="text_35">
      <!-- 0.01 -->
      <g style="fill: #262626" transform="translate(27.862969 269.275744)scale(0.11 -0.11)">
       <use xlink:href="#ArialMT-30"/>
       <use xlink:href="#ArialMT-2e" x="55.615234"/>
       <use xlink:href="#ArialMT-30" x="83.398438"/>
       <use xlink:href="#ArialMT-31" x="139.013672"/>
      </g>
     </g>
    </g>
    <g id="ytick_5">
     <g id="line2d_35">
      <path d="M 58.77 249.565263 
L 510.676364 249.565263 
" clip-path="url(#p5f33b0a583)" style="fill: none; stroke: #ffffff; stroke-linecap: round"/>
     </g>
     <g id="text_36">
      <!-- 0.03 -->
      <g style="fill: #262626" transform="translate(27.862969 253.50206)scale(0.11 -0.11)">
       <use xlink:href="#ArialMT-30"/>
       <use xlink:href="#ArialMT-2e" x="55.615234"/>
       <use xlink:href="#ArialMT-30" x="83.398438"/>
       <use xlink:href="#ArialMT-33" x="139.013672"/>
      </g>
     </g>
    </g>
    <g id="ytick_6">
     <g id="line2d_36">
      <path d="M 58.77 233.791579 
L 510.676364 233.791579 
" clip-path="url(#p5f33b0a583)" style="fill: none; stroke: #ffffff; stroke-linecap: round"/>
     </g>
     <g id="text_37">
      <!-- 0.05 -->
      <g style="fill: #262626" transform="translate(27.862969 237.728376)scale(0.11 -0.11)">
       <use xlink:href="#ArialMT-30"/>
       <use xlink:href="#ArialMT-2e" x="55.615234"/>
       <use xlink:href="#ArialMT-30" x="83.398438"/>
       <use xlink:href="#ArialMT-35" x="139.013672"/>
      </g>
     </g>
    </g>
    <g id="ytick_7">
     <g id="line2d_37">
      <path d="M 58.77 218.017895 
L 510.676364 218.017895 
" clip-path="url(#p5f33b0a583)" style="fill: none; stroke: #ffffff; stroke-linecap: round"/>
     </g>
     <g id="text_38">
      <!-- 0.07 -->
      <g style="fill: #262626" transform="translate(27.862969 221.954692)scale(0.11 -0.11)">
       <use xlink:href="#ArialMT-30"/>
       <use xlink:href="#ArialMT-2e" x="55.615234"/>
       <use xlink:href="#ArialMT-30" x="83.398438"/>
       <use xlink:href="#ArialMT-37" x="139.013672"/>
      </g>
     </g>
    </g>
    <g id="ytick_8">
     <g id="line2d_38">
      <path d="M 58.77 202.244211 
L 510.676364 202.244211 
" clip-path="url(#p5f33b0a583)" style="fill: none; stroke: #ffffff; stroke-linecap: round"/>
     </g>
     <g id="text_39">
      <!-- 0.09 -->
      <g style="fill: #262626" transform="translate(27.862969 206.181007)scale(0.11 -0.11)">
       <use xlink:href="#ArialMT-30"/>
       <use xlink:href="#ArialMT-2e" x="55.615234"/>
       <use xlink:href="#ArialMT-30" x="83.398438"/>
       <use xlink:href="#ArialMT-39" x="139.013672"/>
      </g>
     </g>
    </g>
    <g id="ytick_9">
     <g id="line2d_39">
      <path d="M 58.77 186.470526 
L 510.676364 186.470526 
" clip-path="url(#p5f33b0a583)" style="fill: none; stroke: #ffffff; stroke-linecap: round"/>
     </g>
     <g id="text_40">
      <!-- 0.11 -->
      <g style="fill: #262626" transform="translate(28.674219 190.407323)scale(0.11 -0.11)">
       <use xlink:href="#ArialMT-30"/>
       <use xlink:href="#ArialMT-2e" x="55.615234"/>
       <use xlink:href="#ArialMT-31" x="83.398438"/>
       <use xlink:href="#ArialMT-31" x="131.638672"/>
      </g>
     </g>
    </g>
    <g id="ytick_10">
     <g id="line2d_40">
      <path d="M 58.77 170.696842 
L 510.676364 170.696842 
" clip-path="url(#p5f33b0a583)" style="fill: none; stroke: #ffffff; stroke-linecap: round"/>
     </g>
     <g id="text_41">
      <!-- 0.13 -->
      <g style="fill: #262626" transform="translate(27.862969 174.633639)scale(0.11 -0.11)">
       <use xlink:href="#ArialMT-30"/>
       <use xlink:href="#ArialMT-2e" x="55.615234"/>
       <use xlink:href="#ArialMT-31" x="83.398438"/>
       <use xlink:href="#ArialMT-33" x="139.013672"/>
      </g>
     </g>
    </g>
    <g id="ytick_11">
     <g id="line2d_41">
      <path d="M 58.77 154.923158 
L 510.676364 154.923158 
" clip-path="url(#p5f33b0a583)" style="fill: none; stroke: #ffffff; stroke-linecap: round"/>
     </g>
     <g id="text_42">
      <!-- 0.15 -->
      <g style="fill: #262626" transform="translate(27.862969 158.859955)scale(0.11 -0.11)">
       <use xlink:href="#ArialMT-30"/>
       <use xlink:href="#ArialMT-2e" x="55.615234"/>
       <use xlink:href="#ArialMT-31" x="83.398438"/>
       <use xlink:href="#ArialMT-35" x="139.013672"/>
      </g>
     </g>
    </g>
    <g id="ytick_12">
     <g id="line2d_42">
      <path d="M 58.77 139.149474 
L 510.676364 139.149474 
" clip-path="url(#p5f33b0a583)" style="fill: none; stroke: #ffffff; stroke-linecap: round"/>
     </g>
     <g id="text_43">
      <!-- 0.17 -->
      <g style="fill: #262626" transform="translate(27.862969 143.086271)scale(0.11 -0.11)">
       <use xlink:href="#ArialMT-30"/>
       <use xlink:href="#ArialMT-2e" x="55.615234"/>
       <use xlink:href="#ArialMT-31" x="83.398438"/>
       <use xlink:href="#ArialMT-37" x="139.013672"/>
      </g>
     </g>
    </g>
    <g id="ytick_13">
     <g id="line2d_43">
      <path d="M 58.77 123.375789 
L 510.676364 123.375789 
" clip-path="url(#p5f33b0a583)" style="fill: none; stroke: #ffffff; stroke-linecap: round"/>
     </g>
     <g id="text_44">
      <!-- 0.19 -->
      <g style="fill: #262626" transform="translate(27.862969 127.312586)scale(0.11 -0.11)">
       <use xlink:href="#ArialMT-30"/>
       <use xlink:href="#ArialMT-2e" x="55.615234"/>
       <use xlink:href="#ArialMT-31" x="83.398438"/>
       <use xlink:href="#ArialMT-39" x="139.013672"/>
      </g>
     </g>
    </g>
    <g id="ytick_14">
     <g id="line2d_44">
      <path d="M 58.77 107.602105 
L 510.676364 107.602105 
" clip-path="url(#p5f33b0a583)" style="fill: none; stroke: #ffffff; stroke-linecap: round"/>
     </g>
     <g id="text_45">
      <!-- 0.21 -->
      <g style="fill: #262626" transform="translate(27.862969 111.538902)scale(0.11 -0.11)">
       <use xlink:href="#ArialMT-30"/>
       <use xlink:href="#ArialMT-2e" x="55.615234"/>
       <use xlink:href="#ArialMT-32" x="83.398438"/>
       <use xlink:href="#ArialMT-31" x="139.013672"/>
      </g>
     </g>
    </g>
    <g id="ytick_15">
     <g id="line2d_45">
      <path d="M 58.77 91.828421 
L 510.676364 91.828421 
" clip-path="url(#p5f33b0a583)" style="fill: none; stroke: #ffffff; stroke-linecap: round"/>
     </g>
     <g id="text_46">
      <!-- 0.23 -->
      <g style="fill: #262626" transform="translate(27.862969 95.765218)scale(0.11 -0.11)">
       <use xlink:href="#ArialMT-30"/>
       <use xlink:href="#ArialMT-2e" x="55.615234"/>
       <use xlink:href="#ArialMT-32" x="83.398438"/>
       <use xlink:href="#ArialMT-33" x="139.013672"/>
      </g>
     </g>
    </g>
    <g id="ytick_16">
     <g id="line2d_46">
      <path d="M 58.77 76.054737 
L 510.676364 76.054737 
" clip-path="url(#p5f33b0a583)" style="fill: none; stroke: #ffffff; stroke-linecap: round"/>
     </g>
     <g id="text_47">
      <!-- 0.25 -->
      <g style="fill: #262626" transform="translate(27.862969 79.991534)scale(0.11 -0.11)">
       <use xlink:href="#ArialMT-30"/>
       <use xlink:href="#ArialMT-2e" x="55.615234"/>
       <use xlink:href="#ArialMT-32" x="83.398438"/>
       <use xlink:href="#ArialMT-35" x="139.013672"/>
      </g>
     </g>
    </g>
    <g id="ytick_17">
     <g id="line2d_47">
      <path d="M 58.77 60.281053 
L 510.676364 60.281053 
" clip-path="url(#p5f33b0a583)" style="fill: none; stroke: #ffffff; stroke-linecap: round"/>
     </g>
     <g id="text_48">
      <!-- 0.27 -->
      <g style="fill: #262626" transform="translate(27.862969 64.21785)scale(0.11 -0.11)">
       <use xlink:href="#ArialMT-30"/>
       <use xlink:href="#ArialMT-2e" x="55.615234"/>
       <use xlink:href="#ArialMT-32" x="83.398438"/>
       <use xlink:href="#ArialMT-37" x="139.013672"/>
      </g>
     </g>
    </g>
    <g id="ytick_18">
     <g id="line2d_48">
      <path d="M 58.77 44.507368 
L 510.676364 44.507368 
" clip-path="url(#p5f33b0a583)" style="fill: none; stroke: #ffffff; stroke-linecap: round"/>
     </g>
     <g id="text_49">
      <!-- 0.29 -->
      <g style="fill: #262626" transform="translate(27.862969 48.444165)scale(0.11 -0.11)">
       <use xlink:href="#ArialMT-30"/>
       <use xlink:href="#ArialMT-2e" x="55.615234"/>
       <use xlink:href="#ArialMT-32" x="83.398438"/>
       <use xlink:href="#ArialMT-39" x="139.013672"/>
      </g>
     </g>
    </g>
    <g id="ytick_19">
     <g id="line2d_49">
      <path d="M 58.77 28.733684 
L 510.676364 28.733684 
" clip-path="url(#p5f33b0a583)" style="fill: none; stroke: #ffffff; stroke-linecap: round"/>
     </g>
     <g id="text_50">
      <!-- 0.31 -->
      <g style="fill: #262626" transform="translate(27.862969 32.670481)scale(0.11 -0.11)">
       <use xlink:href="#ArialMT-30"/>
       <use xlink:href="#ArialMT-2e" x="55.615234"/>
       <use xlink:href="#ArialMT-33" x="83.398438"/>
       <use xlink:href="#ArialMT-31" x="139.013672"/>
      </g>
     </g>
    </g>
    <g id="ytick_20">
     <g id="line2d_50">
      <path d="M 58.77 12.96 
L 510.676364 12.96 
" clip-path="url(#p5f33b0a583)" style="fill: none; stroke: #ffffff; stroke-linecap: round"/>
     </g>
     <g id="text_51">
      <!-- 0.33 -->
      <g style="fill: #262626" transform="translate(27.862969 16.896797)scale(0.11 -0.11)">
       <use xlink:href="#ArialMT-30"/>
       <use xlink:href="#ArialMT-2e" x="55.615234"/>
       <use xlink:href="#ArialMT-33" x="83.398438"/>
       <use xlink:href="#ArialMT-33" x="139.013672"/>
      </g>
     </g>
    </g>
    <g id="text_52">
     <!-- CD [-] -->
     <g style="fill: #262626" transform="translate(15.053281 178.474688)rotate(-90)scale(0.12 -0.12)">
      <defs>
       <path id="ArialMT-43" d="M 3763 1606 
L 4369 1453 
Q 4178 706 3683 314 
Q 3188 -78 2472 -78 
Q 1731 -78 1267 223 
Q 803 525 561 1097 
Q 319 1669 319 2325 
Q 319 3041 592 3573 
Q 866 4106 1370 4382 
Q 1875 4659 2481 4659 
Q 3169 4659 3637 4309 
Q 4106 3959 4291 3325 
L 3694 3184 
Q 3534 3684 3231 3912 
Q 2928 4141 2469 4141 
Q 1941 4141 1586 3887 
Q 1231 3634 1087 3207 
Q 944 2781 944 2328 
Q 944 1744 1114 1308 
Q 1284 872 1643 656 
Q 2003 441 2422 441 
Q 2931 441 3284 734 
Q 3638 1028 3763 1606 
z
" transform="scale(0.015625)"/>
       <path id="ArialMT-44" d="M 494 0 
L 494 4581 
L 2072 4581 
Q 2606 4581 2888 4516 
Q 3281 4425 3559 4188 
Q 3922 3881 4101 3404 
Q 4281 2928 4281 2316 
Q 4281 1794 4159 1391 
Q 4038 988 3847 723 
Q 3656 459 3429 307 
Q 3203 156 2883 78 
Q 2563 0 2147 0 
L 494 0 
z
M 1100 541 
L 2078 541 
Q 2531 541 2789 625 
Q 3047 709 3200 863 
Q 3416 1078 3536 1442 
Q 3656 1806 3656 2325 
Q 3656 3044 3420 3430 
Q 3184 3816 2847 3947 
Q 2603 4041 2063 4041 
L 1100 4041 
L 1100 541 
z
" transform="scale(0.015625)"/>
       <path id="ArialMT-2d" d="M 203 1375 
L 203 1941 
L 1931 1941 
L 1931 1375 
L 203 1375 
z
" transform="scale(0.015625)"/>
      </defs>
      <use xlink:href="#ArialMT-43"/>
      <use xlink:href="#ArialMT-44" x="72.216797"/>
      <use xlink:href="#ArialMT-20" x="144.433594"/>
      <use xlink:href="#ArialMT-5b" x="172.216797"/>
      <use xlink:href="#ArialMT-2d" x="200"/>
      <use xlink:href="#ArialMT-5d" x="233.300781"/>
     </g>
    </g>
   </g>
   <g id="PolyCollection_1"/>
   <g id="PathCollection_1">
    <defs>
     <path id="mdcaaef5218" d="M 0 3 
C 0.795609 3 1.55874 2.683901 2.12132 2.12132 
C 2.683901 1.55874 3 0.795609 3 0 
C 3 -0.795609 2.683901 -1.55874 2.12132 -2.12132 
C 1.55874 -2.683901 0.795609 -3 0 -3 
C -0.795609 -3 -1.55874 -2.683901 -2.12132 -2.12132 
C -2.683901 -1.55874 -3 -0.795609 -3 0 
C -3 0.795609 -2.683901 1.55874 -2.12132 2.12132 
C -1.55874 2.683901 -0.795609 3 0 3 
z
" style="stroke: #ffffff; stroke-width: 0.48"/>
    </defs>
    <g clip-path="url(#p5f33b0a583)">
     <use xlink:href="#mdcaaef5218" x="165.730086" y="265.192252" style="fill: #2e8b57; stroke: #ffffff; stroke-width: 0.48"/>
     <use xlink:href="#mdcaaef5218" x="173.370092" y="266.020371" style="fill: #2e8b57; stroke: #ffffff; stroke-width: 0.48"/>
     <use xlink:href="#mdcaaef5218" x="181.010098" y="266.71599" style="fill: #2e8b57; stroke: #ffffff; stroke-width: 0.48"/>
     <use xlink:href="#mdcaaef5218" x="188.650105" y="267.263337" style="fill: #2e8b57; stroke: #ffffff; stroke-width: 0.48"/>
     <use xlink:href="#mdcaaef5218" x="196.290111" y="267.662411" style="fill: #2e8b57; stroke: #ffffff; stroke-width: 0.48"/>
     <use xlink:href="#mdcaaef5218" x="203.930117" y="267.905326" style="fill: #2e8b57; stroke: #ffffff; stroke-width: 0.48"/>
     <use xlink:href="#mdcaaef5218" x="211.570123" y="267.985772" style="fill: #2e8b57; stroke: #ffffff; stroke-width: 0.48"/>
     <use xlink:href="#mdcaaef5218" x="219.210129" y="267.909269" style="fill: #2e8b57; stroke: #ffffff; stroke-width: 0.48"/>
     <use xlink:href="#mdcaaef5218" x="226.850135" y="267.678973" style="fill: #2e8b57; stroke: #ffffff; stroke-width: 0.48"/>
     <use xlink:href="#mdcaaef5218" x="234.490141" y="267.286997" style="fill: #2e8b57; stroke: #ffffff; stroke-width: 0.48"/>
     <use xlink:href="#mdcaaef5218" x="242.130148" y="266.731764" style="fill: #2e8b57; stroke: #ffffff; stroke-width: 0.48"/>
     <use xlink:href="#mdcaaef5218" x="249.770154" y="266.029046" style="fill: #2e8b57; stroke: #ffffff; stroke-width: 0.48"/>
     <use xlink:href="#mdcaaef5218" x="257.41016" y="265.176478" style="fill: #2e8b57; stroke: #ffffff; stroke-width: 0.48"/>
     <use xlink:href="#mdcaaef5218" x="265.050166" y="264.175638" style="fill: #2e8b57; stroke: #ffffff; stroke-width: 0.48"/>
     <use xlink:href="#mdcaaef5218" x="272.690172" y="263.024159" style="fill: #2e8b57; stroke: #ffffff; stroke-width: 0.48"/>
     <use xlink:href="#mdcaaef5218" x="280.330178" y="261.716521" style="fill: #2e8b57; stroke: #ffffff; stroke-width: 0.48"/>
     <use xlink:href="#mdcaaef5218" x="287.970184" y="260.240104" style="fill: #2e8b57; stroke: #ffffff; stroke-width: 0.48"/>
     <use xlink:href="#mdcaaef5218" x="295.610191" y="258.60595" style="fill: #2e8b57; stroke: #ffffff; stroke-width: 0.48"/>
     <use xlink:href="#mdcaaef5218" x="303.250197" y="256.679983" style="fill: #2e8b57; stroke: #ffffff; stroke-width: 0.48"/>
     <use xlink:href="#mdcaaef5218" x="310.890203" y="254.512679" style="fill: #2e8b57; stroke: #ffffff; stroke-width: 0.48"/>
     <use xlink:href="#mdcaaef5218" x="318.530209" y="252.242057" style="fill: #2e8b57; stroke: #ffffff; stroke-width: 0.48"/>
     <use xlink:href="#mdcaaef5218" x="326.170215" y="249.927269" style="fill: #2e8b57; stroke: #ffffff; stroke-width: 0.48"/>
     <use xlink:href="#mdcaaef5218" x="333.810221" y="247.542288" style="fill: #2e8b57; stroke: #ffffff; stroke-width: 0.48"/>
     <use xlink:href="#mdcaaef5218" x="341.450227" y="245.082382" style="fill: #2e8b57; stroke: #ffffff; stroke-width: 0.48"/>
     <use xlink:href="#mdcaaef5218" x="349.090234" y="242.513638" style="fill: #2e8b57; stroke: #ffffff; stroke-width: 0.48"/>
     <use xlink:href="#mdcaaef5218" x="356.73024" y="239.716963" style="fill: #2e8b57; stroke: #ffffff; stroke-width: 0.48"/>
     <use xlink:href="#mdcaaef5218" x="364.370246" y="236.60797" style="fill: #2e8b57; stroke: #ffffff; stroke-width: 0.48"/>
     <use xlink:href="#mdcaaef5218" x="372.010252" y="233.186658" style="fill: #2e8b57; stroke: #ffffff; stroke-width: 0.48"/>
     <use xlink:href="#mdcaaef5218" x="379.650258" y="229.650987" style="fill: #2e8b57; stroke: #ffffff; stroke-width: 0.48"/>
     <use xlink:href="#mdcaaef5218" x="387.290264" y="226.447352" style="fill: #2e8b57; stroke: #ffffff; stroke-width: 0.48"/>
     <use xlink:href="#mdcaaef5218" x="394.93027" y="223.417227" style="fill: #2e8b57; stroke: #ffffff; stroke-width: 0.48"/>
     <use xlink:href="#mdcaaef5218" x="402.570277" y="220.275109" style="fill: #2e8b57; stroke: #ffffff; stroke-width: 0.48"/>
     <use xlink:href="#mdcaaef5218" x="410.210283" y="217.060432" style="fill: #2e8b57; stroke: #ffffff; stroke-width: 0.48"/>
     <use xlink:href="#mdcaaef5218" x="417.850289" y="213.708524" style="fill: #2e8b57; stroke: #ffffff; stroke-width: 0.48"/>
     <use xlink:href="#mdcaaef5218" x="425.490295" y="210.33059" style="fill: #2e8b57; stroke: #ffffff; stroke-width: 0.48"/>
     <use xlink:href="#mdcaaef5218" x="433.130301" y="206.738922" style="fill: #2e8b57; stroke: #ffffff; stroke-width: 0.48"/>
     <use xlink:href="#mdcaaef5218" x="440.770307" y="202.95166" style="fill: #2e8b57; stroke: #ffffff; stroke-width: 0.48"/>
     <use xlink:href="#mdcaaef5218" x="448.410314" y="199.281913" style="fill: #2e8b57; stroke: #ffffff; stroke-width: 0.48"/>
     <use xlink:href="#mdcaaef5218" x="456.05032" y="195.436288" style="fill: #2e8b57; stroke: #ffffff; stroke-width: 0.48"/>
     <use xlink:href="#mdcaaef5218" x="463.690326" y="191.415576" style="fill: #2e8b57; stroke: #ffffff; stroke-width: 0.48"/>
     <use xlink:href="#mdcaaef5218" x="471.330332" y="187.226086" style="fill: #2e8b57; stroke: #ffffff; stroke-width: 0.48"/>
     <use xlink:href="#mdcaaef5218" x="478.970338" y="182.855198" style="fill: #2e8b57; stroke: #ffffff; stroke-width: 0.48"/>
     <use xlink:href="#mdcaaef5218" x="486.610344" y="178.178301" style="fill: #2e8b57; stroke: #ffffff; stroke-width: 0.48"/>
     <use xlink:href="#mdcaaef5218" x="494.25035" y="173.090499" style="fill: #2e8b57; stroke: #ffffff; stroke-width: 0.48"/>
    </g>
   </g>
   <g id="line2d_51">
    <path d="M 165.730086 265.192252 
L 173.370092 266.020371 
L 181.010098 266.71599 
L 188.650105 267.263337 
L 196.290111 267.662411 
L 203.930117 267.905326 
L 211.570123 267.985772 
L 219.210129 267.909269 
L 226.850135 267.678973 
L 234.490141 267.286997 
L 242.130148 266.731764 
L 249.770154 266.029046 
L 257.41016 265.176478 
L 265.050166 264.175638 
L 272.690172 263.024159 
L 280.330178 261.716521 
L 287.970184 260.240104 
L 295.610191 258.60595 
L 303.250197 256.679983 
L 310.890203 254.512679 
L 318.530209 252.242057 
L 326.170215 249.927269 
L 333.810221 247.542288 
L 341.450227 245.082382 
L 349.090234 242.513638 
L 356.73024 239.716963 
L 364.370246 236.60797 
L 372.010252 233.186658 
L 379.650258 229.650987 
L 387.290264 226.447352 
L 394.93027 223.417227 
L 402.570277 220.275109 
L 410.210283 217.060432 
L 417.850289 213.708524 
L 425.490295 210.33059 
L 433.130301 206.738922 
L 440.770307 202.95166 
L 448.410314 199.281913 
L 456.05032 195.436288 
L 463.690326 191.415576 
L 471.330332 187.226086 
L 478.970338 182.855198 
L 486.610344 178.178301 
L 494.25035 173.090499 
" clip-path="url(#p5f33b0a583)" style="fill: none; stroke: #808080; stroke-linecap: round"/>
   </g>
   <g id="patch_3">
    <path d="M 58.77 312.66 
L 58.77 12.96 
" style="fill: none; stroke: #ffffff; stroke-width: 1.25; stroke-linejoin: miter; stroke-linecap: square"/>
   </g>
   <g id="patch_4">
    <path d="M 58.77 312.66 
L 510.676364 312.66 
" style="fill: none; stroke: #ffffff; stroke-width: 1.25; stroke-linejoin: miter; stroke-linecap: square"/>
   </g>
  </g>
 </g>
 <defs>
  <clipPath id="p5f33b0a583">
   <rect x="58.77" y="12.96" width="451.906364" height="299.7"/>
  </clipPath>
 </defs>
</svg>
